999
dxfrw 0.5.11
0
SECTION
2
HEADER
9
$ACADVER
1
AC1021
9
$HANDSEED
5
20000
9
$DWGCODEPAGE
3
ANSI_1252
9
$INSBASE
10
0
20
0
30
0
9
$EXTMIN
10
0.5
20
0.5
30
0
9
$EXTMAX
10
19.52
20
2.24
30
0
9
$LIMMIN
10
0
20
0
9
$LIMMAX
10
420
20
297
9
$ORTHOMODE
70
0
9
$LTSCALE
40
1
9
$TEXTSTYLE
7
STANDARD
9
$CLAYER
8
adjustment
9
$DIMASZ
40
0.1
9
$DIMLFAC
40
1
9
$DIMSCALE
40
1
9
$DIMEXO
40
0.025
9
$DIMEXE
40
0.05
9
$DIMTXT
40
0.1
9
$DIMTSZ
40
0
9
$DIMAUNIT
70
0
9
$DIMADEC
70
2
9
$DIMLUNIT
70
2
9
$DIMSTYLE
2
STANDARD
9
$DIMGAP
40
0.025
9
$DIMTIH
70
0
9
$LUNITS
70
2
9
$LUPREC
70
4
9
$AUNITS
70
0
9
$AUPREC
70
2
9
$SPLINESEGS
70
8
9
$GRIDMODE
70
1
9
$SNAPSTYLE
70
0
9
$GRIDUNIT
10
0
20
0
9
$PINSBASE
10
0
20
0
30
0
9
$PLIMMIN
10
0
20
0
9
$PLIMMAX
10
7.8201774e-07
20
1.10599728e-06
9
$INSUNITS
70
1
9
$PSVPSCALE
40
1
0
ENDSEC
0
SECTION
2
CLASSES
0
ENDSEC
0
SECTION
2
TABLES
0
TABLE
2
VPORT
5
8
330
0
100
AcDbSymbolTable
70
1
0
VPORT
5
31
330
2
100
AcDbSymbolTableRecord
100
AcDbViewportTableRecord
2
*ACTIVE
70
0
10
0
20
0
11
1
21
1
12
10.6163189489
22
1.08101889078
13
0
23
0
14
10
24
10
15
10
25
10
16
0
26
0
36
1
17
0
27
0
37
0
40
2.0038398951
41
2.5866873065
42
50
43
0
44
0
50
0
51
0
71
0
72
100
73
1
74
3
75
0
76
1
77
0
78
0
281
0
65
1
110
0
120
0
130
0
111
1
121
0
131
0
112
0
122
1
132
0
79
0
146
0
348
10020
60
7
61
5
292
1
282
1
141
0
142
0
63
250
421
3358443
0
ENDTAB
0
TABLE
2
LTYPE
5
5
330
0
100
AcDbSymbolTable
70
4
0
LTYPE
5
14
330
5
100
AcDbSymbolTableRecord
100
AcDbLinetypeTableRecord
2
ByBlock
70
0
3

72
65
73
0
40
0
0
LTYPE
5
15
330
5
100
AcDbSymbolTableRecord
100
AcDbLinetypeTableRecord
2
ByLayer
70
0
3

72
65
73
0
40
0
0
LTYPE
5
16
330
5
100
AcDbSymbolTableRecord
100
AcDbLinetypeTableRecord
2
Continuous
70
0
3
Solid line
72
65
73
0
40
0
0
LTYPE
5
32
330
5
100
AcDbSymbolTableRecord
100
AcDbLinetypeTableRecord
2
DOT
70
0
3
Dot . . . . . . . . . . . . . . . . . . . . . .
72
65
73
2
40
6.35
49
0
74
0
49
-6.35
74
0
0
LTYPE
5
33
330
5
100
AcDbSymbolTableRecord
100
AcDbLinetypeTableRecord
2
DOT2
70
0
3
Dot (.5x) .....................................
72
65
73
2
40
3.175
49
0
74
0
49
-3.175
74
0
0
LTYPE
5
34
330
5
100
AcDbSymbolTableRecord
100
AcDbLinetypeTableRecord
2
DOTX2
70
0
3
Dot (2x) .  .  .  .  .  .  .  .  .  .  .  .  .
72
65
73
2
40
12.7
49
0
74
0
49
-12.7
74
0
0
LTYPE
5
35
330
5
100
AcDbSymbolTableRecord
100
AcDbLinetypeTableRecord
2
DASHED
70
0
3
Dot . . . . . . . . . . . . . . . . . . . . . .
72
65
73
2
40
19.05
49
12.7
74
0
49
-6.35
74
0
0
LTYPE
5
36
330
5
100
AcDbSymbolTableRecord
100
AcDbLinetypeTableRecord
2
DASHED2
70
0
3
Dashed (.5x) _ _ _ _ _ _ _ _ _ _ _ _ _ _ _ _ _
72
65
73
2
40
9.525
49
6.35
74
0
49
-3.175
74
0
0
LTYPE
5
37
330
5
100
AcDbSymbolTableRecord
100
AcDbLinetypeTableRecord
2
DASHEDX2
70
0
3
Dashed (2x) ____  ____  ____  ____  ____  ___
72
65
73
2
40
38.1
49
25.4
74
0
49
-12.7
74
0
0
LTYPE
5
38
330
5
100
AcDbSymbolTableRecord
100
AcDbLinetypeTableRecord
2
DASHDOT
70
0
3
Dash dot __ . __ . __ . __ . __ . __ . __ . __
72
65
73
4
40
25.4
49
12.7
74
0
49
-6.35
74
0
49
0
74
0
49
-6.35
74
0
0
LTYPE
5
39
330
5
100
AcDbSymbolTableRecord
100
AcDbLinetypeTableRecord
2
DASHDOT2
70
0
3
Dash dot (.5x) _._._._._._._._._._._._._._._.
72
65
73
4
40
12.7
49
6.35
74
0
49
-3.175
74
0
49
0
74
0
49
-3.175
74
0
0
LTYPE
5
3A
330
5
100
AcDbSymbolTableRecord
100
AcDbLinetypeTableRecord
2
DASHDOTX2
70
0
3
Dash dot (2x) ____  .  ____  .  ____  .  ___
72
65
73
4
40
50.8
49
25.4
74
0
49
-12.7
74
0
49
0
74
0
49
-12.7
74
0
0
LTYPE
5
3B
330
5
100
AcDbSymbolTableRecord
100
AcDbLinetypeTableRecord
2
DIVIDE
70
0
3
Divide ____ . . ____ . . ____ . . ____ . . ____
72
65
73
6
40
31.75
49
12.7
74
0
49
-6.35
74
0
49
0
74
0
49
-6.35
74
0
49
0
74
0
49
-6.35
74
0
0
LTYPE
5
3C
330
5
100
AcDbSymbolTableRecord
100
AcDbLinetypeTableRecord
2
DIVIDE2
70
0
3
Divide (.5x) __..__..__..__..__..__..__..__.._
72
65
73
6
40
15.875
49
6.35
74
0
49
-3.175
74
0
49
0
74
0
49
-3.175
74
0
49
0
74
0
49
-3.175
74
0
0
LTYPE
5
3D
330
5
100
AcDbSymbolTableRecord
100
AcDbLinetypeTableRecord
2
DIVIDEX2
70
0
3
Divide (2x) ________  .  .  ________  .  .  _
72
65
73
6
40
63.5
49
25.4
74
0
49
-12.7
74
0
49
0
74
0
49
-12.7
74
0
49
0
74
0
49
-12.7
74
0
0
LTYPE
5
3E
330
5
100
AcDbSymbolTableRecord
100
AcDbLinetypeTableRecord
2
BORDER
70
0
3
Border __ __ . __ __ . __ __ . __ __ . __ __ .
72
65
73
6
40
44.45
49
12.7
74
0
49
-6.35
74
0
49
12.7
74
0
49
-6.35
74
0
49
0
74
0
49
-6.35
74
0
0
LTYPE
5
3F
330
5
100
AcDbSymbolTableRecord
100
AcDbLinetypeTableRecord
2
BORDER2
70
0
3
Border (.5x) __.__.__.__.__.__.__.__.__.__.__.
72
65
73
6
40
22.225
49
6.35
74
0
49
-3.175
74
0
49
6.35
74
0
49
-3.175
74
0
49
0
74
0
49
-3.175
74
0
0
LTYPE
5
40
330
5
100
AcDbSymbolTableRecord
100
AcDbLinetypeTableRecord
2
BORDERX2
70
0
3
Border (2x) ____  ____  .  ____  ____  .  ___
72
65
73
6
40
88.9
49
25.4
74
0
49
-12.7
74
0
49
25.4
74
0
49
-12.7
74
0
49
0
74
0
49
-12.7
74
0
0
LTYPE
5
41
330
5
100
AcDbSymbolTableRecord
100
AcDbLinetypeTableRecord
2
CENTER
70
0
3
Center ____ _ ____ _ ____ _ ____ _ ____ _ ____
72
65
73
4
40
50.8
49
31.75
74
0
49
-6.35
74
0
49
6.35
74
0
49
-6.35
74
0
0
LTYPE
5
42
330
5
100
AcDbSymbolTableRecord
100
AcDbLinetypeTableRecord
2
CENTER2
70
0
3
Center (.5x) ___ _ ___ _ ___ _ ___ _ ___ _ ___
72
65
73
4
40
28.575
49
19.05
74
0
49
-3.175
74
0
49
3.175
74
0
49
-3.175
74
0
0
LTYPE
5
43
330
5
100
AcDbSymbolTableRecord
100
AcDbLinetypeTableRecord
2
CENTERX2
70
0
3
Center (2x) ________  __  ________  __  _____
72
65
73
4
40
101.6
49
63.5
74
0
49
-12.7
74
0
49
12.7
74
0
49
-12.7
74
0
0
ENDTAB
0
TABLE
2
LAYER
5
2
330
0
100
AcDbSymbolTable
70
1
0
LAYER
5
10
330
2
100
AcDbSymbolTableRecord
100
AcDbLayerTableRecord
2
0
70
0
62
7
6
CONTINUOUS
370
0
390
F
0
LAYER
5
44
330
2
100
AcDbSymbolTableRecord
100
AcDbLayerTableRecord
2
4-40 Tap Hole
70
0
62
2
6
CONTINUOUS
370
0
390
F
0
LAYER
5
45
330
2
100
AcDbSymbolTableRecord
100
AcDbLayerTableRecord
2
BNC Hole
70
0
62
3
6
CONTINUOUS
370
0
390
F
0
LAYER
5
46
330
2
100
AcDbSymbolTableRecord
100
AcDbLayerTableRecord
2
Boundary
70
0
62
5
6
CONTINUOUS
370
0
390
F
0
LAYER
5
47
330
2
100
AcDbSymbolTableRecord
100
AcDbLayerTableRecord
2
Cutout
70
0
62
6
6
CONTINUOUS
370
0
390
F
0
LAYER
5
48
330
2
100
AcDbSymbolTableRecord
100
AcDbLayerTableRecord
2
Dimension
70
0
62
253
420
10526884
6
CONTINUOUS
370
0
390
F
0
LAYER
5
49
330
2
100
AcDbSymbolTableRecord
100
AcDbLayerTableRecord
2
Engrave
70
0
62
30
420
16744448
6
CONTINUOUS
370
0
390
F
0
LAYER
5
4A
330
2
100
AcDbSymbolTableRecord
100
AcDbLayerTableRecord
2
Laser Fixture Pocket
70
0
62
16
420
8388608
6
CONTINUOUS
370
0
390
F
0
LAYER
5
4B
330
2
100
AcDbSymbolTableRecord
100
AcDbLayerTableRecord
2
Reference
70
0
62
7
6
CONTINUOUS
370
0
390
F
0
LAYER
5
4C
330
2
100
AcDbSymbolTableRecord
100
AcDbLayerTableRecord
2
adjustment
70
0
62
136
420
32896
6
CONTINUOUS
370
0
390
F
0
LAYER
5
4D
330
2
100
AcDbSymbolTableRecord
100
AcDbLayerTableRecord
2
tmp
70
0
62
1
6
CONTINUOUS
370
0
390
F
0
ENDTAB
0
TABLE
2
STYLE
5
3
330
0
100
AcDbSymbolTable
70
3
0
STYLE
5
4E
330
2
100
AcDbSymbolTableRecord
100
AcDbTextStyleTableRecord
2
iso
70
0
40
0
41
1
50
0
71
0
42
1
3
iso
4

0
STYLE
5
4F
330
2
100
AcDbSymbolTableRecord
100
AcDbTextStyleTableRecord
2
Standard
70
0
40
0
41
1
50
0
71
0
42
1
3
txt
4

0
ENDTAB
0
TABLE
2
VIEW
5
6
330
0
100
AcDbSymbolTable
70
0
0
ENDTAB
0
TABLE
2
UCS
5
7
330
0
100
AcDbSymbolTable
70
0
0
ENDTAB
0
TABLE
2
APPID
5
9
330
0
100
AcDbSymbolTable
70
1
0
APPID
5
12
330
9
100
AcDbSymbolTableRecord
100
AcDbRegAppTableRecord
2
ACAD
70
0
0
ENDTAB
0
TABLE
2
DIMSTYLE
5
A
330
0
100
AcDbSymbolTable
70
1
100
AcDbDimStyleTable
71
1
0
DIMSTYLE
105
50
330
A
100
AcDbSymbolTableRecord
100
AcDbDimStyleTableRecord
2
Standard
70
0
40
1
41
0.1
42
0.025
43
0.38
44
0.05
45
0
46
0
47
0
48
0
140
0.1
141
0.09
142
0
143
25.4
144
1
145
0
146
1
147
0.025
148
0
71
0
72
0
73
0
74
1
75
0
76
0
77
0
78
0
79
0
170
0
171
2
172
0
173
0
174
0
175
0
176
0
177
0
178
0
179
0
271
4
272
4
273
2
274
2
275
0
276
0
277
2
278
46
279
0
280
0
281
0
282
0
283
1
284
0
285
0
286
0
288
0
289
3
340
Standard
341

371
-2
372
-2
0
ENDTAB
0
TABLE
2
BLOCK_RECORD
5
1
330
0
100
AcDbSymbolTable
70
2
0
BLOCK_RECORD
5
1F
330
1
100
AcDbSymbolTableRecord
100
AcDbBlockTableRecord
2
*Model_Space
70
0
280
1
281
0
0
BLOCK_RECORD
5
1E
330
1
100
AcDbSymbolTableRecord
100
AcDbBlockTableRecord
2
*Paper_Space
70
0
280
1
281
0
0
BLOCK_RECORD
5
51
330
1
100
AcDbSymbolTableRecord
100
AcDbBlockTableRecord
2
bottom-0
70
0
280
1
281
0
0
BLOCK_RECORD
5
54
330
1
100
AcDbSymbolTableRecord
100
AcDbBlockTableRecord
2
back-0
70
0
280
1
281
0
0
BLOCK_RECORD
5
57
330
1
100
AcDbSymbolTableRecord
100
AcDbBlockTableRecord
2
front-0
70
0
280
1
281
0
0
BLOCK_RECORD
5
5A
330
1
100
AcDbSymbolTableRecord
100
AcDbBlockTableRecord
2
back-1
70
0
280
1
281
0
0
ENDTAB
0
ENDSEC
0
SECTION
2
BLOCKS
0
BLOCK
5
20
330
1F
100
AcDbEntity
8
0
100
AcDbBlockBegin
2
*Model_Space
70
0
10
0
20
0
30
0
3
*Model_Space
1

0
ENDBLK
5
21
330
1F
100
AcDbEntity
8
0
100
AcDbBlockEnd
0
BLOCK
5
1C
330
1B
100
AcDbEntity
8
0
100
AcDbBlockBegin
2
*Paper_Space
70
0
10
0
20
0
30
0
3
*Paper_Space
1

0
ENDBLK
5
1D
330
1F
100
AcDbEntity
8
0
100
AcDbBlockEnd
0
BLOCK
5
52
330
51
100
AcDbEntity
8
0
100
AcDbBlockBegin
2
bottom-0
70
0
10
0
20
0
3
bottom-0
1

0
LINE
5
5D
100
AcDbEntity
8
Boundary
6
ByLayer
62
256
370
-1
100
AcDbLine
10
11.6250393701
20
0
11
0
21
0
0
LINE
5
5E
100
AcDbEntity
8
Boundary
6
ByLayer
62
256
370
-1
100
AcDbLine
10
0
20
0
11
0
21
16.5
0
LINE
5
5F
100
AcDbEntity
8
Boundary
6
ByLayer
62
256
370
-1
100
AcDbLine
10
0
20
16.5
11
11.6250393701
21
16.5
0
LINE
5
60
100
AcDbEntity
8
Boundary
6
ByLayer
62
256
370
-1
100
AcDbLine
10
11.6250393701
20
16.5
11
11.6250393701
21
0
0
ENDBLK
5
53
330
51
100
AcDbEntity
8
0
100
AcDbBlockEnd
0
BLOCK
5
55
330
54
100
AcDbEntity
8
0
100
AcDbBlockBegin
2
back-0
70
0
10
0
20
0
3
back-0
1

0
LINE
5
61
100
AcDbEntity
8
Boundary
6
ByLayer
62
256
370
-1
100
AcDbLine
10
0
20
0
11
0
21
1.46
0
CIRCLE
5
62
100
AcDbEntity
8
4-40 Tap Hole
6
ByLayer
62
256
370
-1
100
AcDbCircle
10
11.2815354331
20
0.787974787261
40
0.061403210791
0
CIRCLE
5
63
100
AcDbEntity
8
4-40 Tap Hole
6
ByLayer
62
256
370
-1
100
AcDbCircle
10
13.1335114687
20
0.788011811024
40
0.0614215121771
0
LINE
5
64
100
AcDbEntity
8
Cutout
6
ByLayer
62
256
370
-1
100
AcDbLine
10
11.4004330709
20
0.520275590551
11
11.4004330709
21
1.05570866142
0
LINE
5
65
100
AcDbEntity
8
Cutout
6
ByLayer
62
256
370
-1
100
AcDbLine
10
13.0146062992
20
1.05570866142
11
13.0146062992
21
0.520275590551
0
LINE
5
66
100
AcDbEntity
8
Cutout
6
ByLayer
62
256
370
-1
100
AcDbLine
10
11.4004330709
20
1.05570866142
11
13.0146062992
21
1.05570866142
0
LINE
5
67
100
AcDbEntity
8
Cutout
6
ByLayer
62
256
370
-1
100
AcDbLine
10
11.4004330709
20
0.520275590551
11
13.0146062992
21
0.520275590551
0
LINE
5
68
100
AcDbEntity
8
Boundary
6
ByLayer
62
256
370
-1
100
AcDbLine
10
16.8438
20
1.46
11
16.8438
21
0
0
LINE
5
69
100
AcDbEntity
8
Boundary
6
ByLayer
62
256
370
-1
100
AcDbLine
10
16.8438
20
0
11
0
21
0
0
LINE
5
6A
100
AcDbEntity
8
Boundary
6
ByLayer
62
256
370
-1
100
AcDbLine
10
0
20
1.46
11
16.8438
21
1.46
0
ENDBLK
5
56
330
54
100
AcDbEntity
8
0
100
AcDbBlockEnd
0
BLOCK
5
58
330
57
100
AcDbEntity
8
0
100
AcDbBlockBegin
2
front-0
70
0
10
0
20
0
3
front-0
1

0
LINE
5
6B
100
AcDbEntity
8
Boundary
6
ByLayer
62
256
370
-1
100
AcDbLine
10
0
20
0
11
0
21
1.74
0
LINE
5
6C
100
AcDbEntity
8
Boundary
6
ByLayer
62
256
370
-1
100
AcDbLine
10
0
20
1.74
11
19
21
1.74
0
LINE
5
6D
100
AcDbEntity
8
Boundary
6
ByLayer
62
256
370
-1
100
AcDbLine
10
19
20
1.74
11
19
21
0
0
LINE
5
6E
100
AcDbEntity
8
Boundary
6
ByLayer
62
256
370
-1
100
AcDbLine
10
19
20
0
11
0
21
0
0
CIRCLE
5
6F
100
AcDbEntity
8
BNC Hole
6
ByLayer
62
256
370
-1
100
AcDbCircle
10
2.12999684441
20
0.865108336424
40
0.265754445816
0
CIRCLE
5
70
100
AcDbEntity
8
BNC Hole
6
ByLayer
62
256
370
-1
100
AcDbCircle
10
2.93001581713
20
0.865101672622
40
0.265739101021
0
CIRCLE
5
71
100
AcDbEntity
8
BNC Hole
6
ByLayer
62
256
370
-1
100
AcDbCircle
10
3.72999731499
20
0.865115455892
40
0.265759184349
0
CIRCLE
5
72
100
AcDbEntity
8
BNC Hole
6
ByLayer
62
256
370
-1
100
AcDbCircle
10
4.52999716936
20
0.865107507862
40
0.265751930664
0
CIRCLE
5
73
100
AcDbEntity
8
BNC Hole
6
ByLayer
62
256
370
-1
100
AcDbCircle
10
5.3299995811
20
0.86512305174
40
0.265748450441
0
CIRCLE
5
74
100
AcDbEntity
8
BNC Hole
6
ByLayer
62
256
370
-1
100
AcDbCircle
10
6.1299834009
20
0.865100010712
40
0.265738117019
0
CIRCLE
5
75
100
AcDbEntity
8
BNC Hole
6
ByLayer
62
256
370
-1
100
AcDbCircle
10
6.93
20
0.865116872171
40
0.26574345744
0
CIRCLE
5
76
100
AcDbEntity
8
BNC Hole
6
ByLayer
62
256
370
-1
100
AcDbCircle
10
7.73000080547
20
0.865107562622
40
0.265750416763
0
CIRCLE
5
77
100
AcDbEntity
8
BNC Hole
6
ByLayer
62
256
370
-1
100
AcDbCircle
10
8.53000399498
20
0.865109422433
40
0.265753978674
0
CIRCLE
5
78
100
AcDbEntity
8
BNC Hole
6
ByLayer
62
256
370
-1
100
AcDbCircle
10
9.33000687726
20
0.865107593338
40
0.26575134844
0
CIRCLE
5
79
100
AcDbEntity
8
4-40 Tap Hole
6
ByLayer
62
256
370
-1
100
AcDbCircle
10
10.6099822513
20
1.46999544439
40
0.0439975809454
0
CIRCLE
5
7A
100
AcDbEntity
8
4-40 Tap Hole
6
ByLayer
62
256
370
-1
100
AcDbCircle
10
9.81000615873
20
0.270000525208
40
0.0440017712647
0
CIRCLE
5
7B
100
AcDbEntity
8
4-40 Tap Hole
6
ByLayer
62
256
370
-1
100
AcDbCircle
10
10.6099936165
20
0.269989034438
40
0.0439909117484
0
CIRCLE
5
7C
100
AcDbEntity
8
4-40 Tap Hole
6
ByLayer
62
256
370
-1
100
AcDbCircle
10
9.8099988189
20
1.47000393701
40
0.0440066929134
0
LINE
5
7D
100
AcDbEntity
8
Cutout
6
ByLayer
62
256
370
-1
100
AcDbLine
10
9.96
20
0.207480314961
11
9.96
21
1.53251968504
0
LINE
5
7E
100
AcDbEntity
8
Cutout
6
ByLayer
62
256
370
-1
100
AcDbLine
10
9.96
20
1.53251968504
11
10.46
21
1.53251968504
0
LINE
5
7F
100
AcDbEntity
8
Cutout
6
ByLayer
62
256
370
-1
100
AcDbLine
10
10.46
20
1.53251968504
11
10.46
21
0.207480314961
0
LINE
5
80
100
AcDbEntity
8
Cutout
6
ByLayer
62
256
370
-1
100
AcDbLine
10
10.46
20
0.207480314961
11
9.96
21
0.207480314961
0
LINE
5
81
100
AcDbEntity
8
Cutout
6
ByLayer
62
256
370
-1
100
AcDbLine
10
10.7387795276
20
0.561968503937
11
10.7387795276
21
0.851338582677
0
LINE
5
82
100
AcDbEntity
8
Cutout
6
ByLayer
62
256
370
-1
100
AcDbLine
10
10.7387795276
20
0.851338582677
11
10.9612204724
21
0.851338582677
0
LINE
5
83
100
AcDbEntity
8
Cutout
6
ByLayer
62
256
370
-1
100
AcDbLine
10
10.9612204724
20
0.851338582677
11
10.9612204724
21
0.561968503937
0
LINE
5
84
100
AcDbEntity
8
Cutout
6
ByLayer
62
256
370
-1
100
AcDbLine
10
10.9612204724
20
0.561968503937
11
10.7387795276
21
0.561968503937
0
LINE
5
85
100
AcDbEntity
8
Cutout
6
ByLayer
62
256
370
-1
100
AcDbLine
10
11.4277559055
20
0.561968503937
11
11.4277559055
21
0.851338582677
0
LINE
5
86
100
AcDbEntity
8
Cutout
6
ByLayer
62
256
370
-1
100
AcDbLine
10
11.4277559055
20
0.851338582677
11
11.8722440945
21
0.851338582677
0
LINE
5
87
100
AcDbEntity
8
Cutout
6
ByLayer
62
256
370
-1
100
AcDbLine
10
11.8722440945
20
0.851338582677
11
11.8722440945
21
0.561968503937
0
LINE
5
88
100
AcDbEntity
8
Cutout
6
ByLayer
62
256
370
-1
100
AcDbLine
10
11.8722440945
20
0.561968503937
11
11.4277559055
21
0.561968503937
0
LINE
5
89
100
AcDbEntity
8
Cutout
6
ByLayer
62
256
370
-1
100
AcDbLine
10
12.0304724409
20
0.518661417323
11
12.0304724409
21
1.03834645669
0
LINE
5
8A
100
AcDbEntity
8
Cutout
6
ByLayer
62
256
370
-1
100
AcDbLine
10
12.0304724409
20
1.03834645669
11
12.5895275591
21
1.03834645669
0
LINE
5
8B
100
AcDbEntity
8
Cutout
6
ByLayer
62
256
370
-1
100
AcDbLine
10
12.5895275591
20
1.03834645669
11
12.5895275591
21
0.518661417323
0
LINE
5
8C
100
AcDbEntity
8
Cutout
6
ByLayer
62
256
370
-1
100
AcDbLine
10
12.5895275591
20
0.518661417323
11
12.0304724409
21
0.518661417323
0
LINE
5
8D
100
AcDbEntity
8
Cutout
6
ByLayer
62
256
370
-1
100
AcDbLine
10
12.9554724409
20
0.518661417323
11
12.9554724409
21
1.0974015748
0
LINE
5
8E
100
AcDbEntity
8
Cutout
6
ByLayer
62
256
370
-1
100
AcDbLine
10
12.9554724409
20
1.0974015748
11
14.2625590551
21
1.0974015748
0
LINE
5
8F
100
AcDbEntity
8
Cutout
6
ByLayer
62
256
370
-1
100
AcDbLine
10
14.2625590551
20
1.0974015748
11
14.2625590551
21
0.518661417323
0
LINE
5
90
100
AcDbEntity
8
Cutout
6
ByLayer
62
256
370
-1
100
AcDbLine
10
14.2625590551
20
0.518661417323
11
12.9554724409
21
0.518661417323
0
LINE
5
91
100
AcDbEntity
8
Cutout
6
ByLayer
62
256
370
-1
100
AcDbLine
10
14.775511811
20
0.518661417323
11
14.775511811
21
0.727322834646
0
LINE
5
92
100
AcDbEntity
8
Cutout
6
ByLayer
62
256
370
-1
100
AcDbLine
10
14.775511811
20
0.727322834646
11
15.964488189
21
0.727322834646
0
LINE
5
93
100
AcDbEntity
8
Cutout
6
ByLayer
62
256
370
-1
100
AcDbLine
10
15.964488189
20
0.727322834646
11
15.964488189
21
0.518661417323
0
LINE
5
94
100
AcDbEntity
8
Cutout
6
ByLayer
62
256
370
-1
100
AcDbLine
10
15.964488189
20
0.518661417323
11
14.775511811
21
0.518661417323
0
LINE
5
95
100
AcDbEntity
8
Cutout
6
ByLayer
62
256
370
-1
100
AcDbLine
10
16.1257086614
20
0.561968503937
11
16.1257086614
21
0.851338582677
0
LINE
5
96
100
AcDbEntity
8
Cutout
6
ByLayer
62
256
370
-1
100
AcDbLine
10
16.1257086614
20
0.851338582677
11
17.0142913386
21
0.851338582677
0
LINE
5
97
100
AcDbEntity
8
Cutout
6
ByLayer
62
256
370
-1
100
AcDbLine
10
17.0142913386
20
0.851338582677
11
17.0142913386
21
0.561968503937
0
LINE
5
98
100
AcDbEntity
8
Cutout
6
ByLayer
62
256
370
-1
100
AcDbLine
10
17.0142913386
20
0.561968503937
11
16.1257086614
21
0.561968503937
0
LINE
5
99
100
AcDbEntity
8
Cutout
6
ByLayer
62
256
370
-1
100
AcDbLine
10
17.2688976378
20
0.598346456693
11
17.2688976378
21
1.14165354331
0
LINE
5
9A
100
AcDbEntity
8
Cutout
6
ByLayer
62
256
370
-1
100
AcDbLine
10
17.2688976378
20
1.14165354331
11
17.6311023622
21
1.14165354331
0
LINE
5
9B
100
AcDbEntity
8
Cutout
6
ByLayer
62
256
370
-1
100
AcDbLine
10
17.6311023622
20
1.14165354331
11
17.6311023622
21
0.598346456693
0
LINE
5
9C
100
AcDbEntity
8
Cutout
6
ByLayer
62
256
370
-1
100
AcDbLine
10
17.6311023622
20
0.598346456693
11
17.2688976378
21
0.598346456693
0
LINE
5
9D
100
AcDbEntity
8
Reference
6
ByLayer
62
256
370
-1
100
AcDbLine
10
0.15
20
0.252480314961
11
0.15094488189
21
0.267559055118
0
LINE
5
9E
100
AcDbEntity
8
Reference
6
ByLayer
62
256
370
-1
100
AcDbLine
10
0.15094488189
20
0.267559055118
11
0.153779527559
21
0.282362204724
0
LINE
5
9F
100
AcDbEntity
8
Reference
6
ByLayer
62
256
370
-1
100
AcDbLine
10
0.153779527559
20
0.282362204724
11
0.15842519685
21
0.296692913386
0
LINE
5
A0
100
AcDbEntity
8
Reference
6
ByLayer
62
256
370
-1
100
AcDbLine
10
0.15842519685
20
0.296692913386
11
0.164842519685
21
0.31031496063
0
LINE
5
A1
100
AcDbEntity
8
Reference
6
ByLayer
62
256
370
-1
100
AcDbLine
10
0.164842519685
20
0.31031496063
11
0.172913385827
21
0.323031496063
0
LINE
5
A2
100
AcDbEntity
8
Reference
6
ByLayer
62
256
370
-1
100
AcDbLine
10
0.172913385827
20
0.323031496063
11
0.182519685039
21
0.334645669291
0
LINE
5
A3
100
AcDbEntity
8
Reference
6
ByLayer
62
256
370
-1
100
AcDbLine
10
0.182519685039
20
0.334645669291
11
0.193503937008
21
0.344960629921
0
LINE
5
A4
100
AcDbEntity
8
Reference
6
ByLayer
62
256
370
-1
100
AcDbLine
10
0.193503937008
20
0.344960629921
11
0.205708661417
21
0.353818897638
0
LINE
5
A5
100
AcDbEntity
8
Reference
6
ByLayer
62
256
370
-1
100
AcDbLine
10
0.205708661417
20
0.353818897638
11
0.218897637795
21
0.361062992126
0
LINE
5
A6
100
AcDbEntity
8
Reference
6
ByLayer
62
256
370
-1
100
AcDbLine
10
0.218897637795
20
0.361062992126
11
0.232913385827
21
0.366614173228
0
LINE
5
A7
100
AcDbEntity
8
Reference
6
ByLayer
62
256
370
-1
100
AcDbLine
10
0.232913385827
20
0.366614173228
11
0.247519685039
21
0.370393700787
0
LINE
5
A8
100
AcDbEntity
8
Reference
6
ByLayer
62
256
370
-1
100
AcDbLine
10
0.247519685039
20
0.370393700787
11
0.262480314961
21
0.372244094488
0
LINE
5
A9
100
AcDbEntity
8
Reference
6
ByLayer
62
256
370
-1
100
AcDbLine
10
0.262480314961
20
0.372244094488
11
0.27
21
0.372244094488
0
LINE
5
AA
100
AcDbEntity
8
Reference
6
ByLayer
62
256
370
-1
100
AcDbLine
10
0.27
20
0.372244094488
11
0.27
21
0.372480314961
0
LINE
5
AB
100
AcDbEntity
8
Reference
6
ByLayer
62
256
370
-1
100
AcDbLine
10
0.27
20
0.372480314961
11
0.42
21
0.372480314961
0
LINE
5
AC
100
AcDbEntity
8
Reference
6
ByLayer
62
256
370
-1
100
AcDbLine
10
0.42
20
0.372480314961
11
0.42
21
0.372244094488
0
LINE
5
AD
100
AcDbEntity
8
Reference
6
ByLayer
62
256
370
-1
100
AcDbLine
10
0.42
20
0.372244094488
11
0.427519685039
21
0.372244094488
0
LINE
5
AE
100
AcDbEntity
8
Reference
6
ByLayer
62
256
370
-1
100
AcDbLine
10
0.427519685039
20
0.372244094488
11
0.442480314961
21
0.370393700787
0
LINE
5
AF
100
AcDbEntity
8
Reference
6
ByLayer
62
256
370
-1
100
AcDbLine
10
0.442480314961
20
0.370393700787
11
0.457086614173
21
0.366614173228
0
LINE
5
B0
100
AcDbEntity
8
Reference
6
ByLayer
62
256
370
-1
100
AcDbLine
10
0.457086614173
20
0.366614173228
11
0.471102362205
21
0.361062992126
0
LINE
5
B1
100
AcDbEntity
8
Reference
6
ByLayer
62
256
370
-1
100
AcDbLine
10
0.471102362205
20
0.361062992126
11
0.484291338583
21
0.353818897638
0
LINE
5
B2
100
AcDbEntity
8
Reference
6
ByLayer
62
256
370
-1
100
AcDbLine
10
0.484291338583
20
0.353818897638
11
0.496496062992
21
0.344960629921
0
LINE
5
B3
100
AcDbEntity
8
Reference
6
ByLayer
62
256
370
-1
100
AcDbLine
10
0.496496062992
20
0.344960629921
11
0.507480314961
21
0.334645669291
0
LINE
5
B4
100
AcDbEntity
8
Reference
6
ByLayer
62
256
370
-1
100
AcDbLine
10
0.507480314961
20
0.334645669291
11
0.517086614173
21
0.323031496063
0
LINE
5
B5
100
AcDbEntity
8
Reference
6
ByLayer
62
256
370
-1
100
AcDbLine
10
0.517086614173
20
0.323031496063
11
0.525157480315
21
0.31031496063
0
LINE
5
B6
100
AcDbEntity
8
Reference
6
ByLayer
62
256
370
-1
100
AcDbLine
10
0.525157480315
20
0.31031496063
11
0.53157480315
21
0.296692913386
0
LINE
5
B7
100
AcDbEntity
8
Reference
6
ByLayer
62
256
370
-1
100
AcDbLine
10
0.53157480315
20
0.296692913386
11
0.536220472441
21
0.282362204724
0
LINE
5
B8
100
AcDbEntity
8
Reference
6
ByLayer
62
256
370
-1
100
AcDbLine
10
0.536220472441
20
0.282362204724
11
0.53905511811
21
0.267559055118
0
LINE
5
B9
100
AcDbEntity
8
Reference
6
ByLayer
62
256
370
-1
100
AcDbLine
10
0.53905511811
20
0.267559055118
11
0.54
21
0.252480314961
0
LINE
5
BA
100
AcDbEntity
8
Reference
6
ByLayer
62
256
370
-1
100
AcDbLine
10
0.54
20
0.252480314961
11
0.53905511811
21
0.237440944882
0
LINE
5
BB
100
AcDbEntity
8
Reference
6
ByLayer
62
256
370
-1
100
AcDbLine
10
0.53905511811
20
0.237440944882
11
0.536220472441
21
0.222637795276
0
LINE
5
BC
100
AcDbEntity
8
Reference
6
ByLayer
62
256
370
-1
100
AcDbLine
10
0.536220472441
20
0.222637795276
11
0.53157480315
21
0.208307086614
0
LINE
5
BD
100
AcDbEntity
8
Reference
6
ByLayer
62
256
370
-1
100
AcDbLine
10
0.53157480315
20
0.208307086614
11
0.525157480315
21
0.19468503937
0
LINE
5
BE
100
AcDbEntity
8
Reference
6
ByLayer
62
256
370
-1
100
AcDbLine
10
0.525157480315
20
0.19468503937
11
0.517086614173
21
0.181968503937
0
LINE
5
BF
100
AcDbEntity
8
Reference
6
ByLayer
62
256
370
-1
100
AcDbLine
10
0.517086614173
20
0.181968503937
11
0.507480314961
21
0.170354330709
0
LINE
5
C0
100
AcDbEntity
8
Reference
6
ByLayer
62
256
370
-1
100
AcDbLine
10
0.507480314961
20
0.170354330709
11
0.496496062992
21
0.160039370079
0
LINE
5
C1
100
AcDbEntity
8
Reference
6
ByLayer
62
256
370
-1
100
AcDbLine
10
0.496496062992
20
0.160039370079
11
0.484291338583
21
0.151181102362
0
LINE
5
C2
100
AcDbEntity
8
Reference
6
ByLayer
62
256
370
-1
100
AcDbLine
10
0.484291338583
20
0.151181102362
11
0.471102362205
21
0.143937007874
0
LINE
5
C3
100
AcDbEntity
8
Reference
6
ByLayer
62
256
370
-1
100
AcDbLine
10
0.471102362205
20
0.143937007874
11
0.457086614173
21
0.138385826772
0
LINE
5
C4
100
AcDbEntity
8
Reference
6
ByLayer
62
256
370
-1
100
AcDbLine
10
0.457086614173
20
0.138385826772
11
0.442480314961
21
0.134606299213
0
LINE
5
C5
100
AcDbEntity
8
Reference
6
ByLayer
62
256
370
-1
100
AcDbLine
10
0.442480314961
20
0.134606299213
11
0.427519685039
21
0.132755905512
0
LINE
5
C6
100
AcDbEntity
8
Reference
6
ByLayer
62
256
370
-1
100
AcDbLine
10
0.427519685039
20
0.132755905512
11
0.42
21
0.132755905512
0
LINE
5
C7
100
AcDbEntity
8
Reference
6
ByLayer
62
256
370
-1
100
AcDbLine
10
0.42
20
0.132755905512
11
0.42
21
0.132519685039
0
LINE
5
C8
100
AcDbEntity
8
Reference
6
ByLayer
62
256
370
-1
100
AcDbLine
10
0.42
20
0.132519685039
11
0.27
21
0.132519685039
0
LINE
5
C9
100
AcDbEntity
8
Reference
6
ByLayer
62
256
370
-1
100
AcDbLine
10
0.27
20
0.132519685039
11
0.27
21
0.132755905512
0
LINE
5
CA
100
AcDbEntity
8
Reference
6
ByLayer
62
256
370
-1
100
AcDbLine
10
0.27
20
0.132755905512
11
0.262480314961
21
0.132755905512
0
LINE
5
CB
100
AcDbEntity
8
Reference
6
ByLayer
62
256
370
-1
100
AcDbLine
10
0.262480314961
20
0.132755905512
11
0.247519685039
21
0.134606299213
0
LINE
5
CC
100
AcDbEntity
8
Reference
6
ByLayer
62
256
370
-1
100
AcDbLine
10
0.247519685039
20
0.134606299213
11
0.232913385827
21
0.138385826772
0
LINE
5
CD
100
AcDbEntity
8
Reference
6
ByLayer
62
256
370
-1
100
AcDbLine
10
0.232913385827
20
0.138385826772
11
0.218897637795
21
0.143937007874
0
LINE
5
CE
100
AcDbEntity
8
Reference
6
ByLayer
62
256
370
-1
100
AcDbLine
10
0.218897637795
20
0.143937007874
11
0.205708661417
21
0.151181102362
0
LINE
5
CF
100
AcDbEntity
8
Reference
6
ByLayer
62
256
370
-1
100
AcDbLine
10
0.205708661417
20
0.151181102362
11
0.193503937008
21
0.160039370079
0
LINE
5
D0
100
AcDbEntity
8
Reference
6
ByLayer
62
256
370
-1
100
AcDbLine
10
0.193503937008
20
0.160039370079
11
0.182519685039
21
0.170354330709
0
LINE
5
D1
100
AcDbEntity
8
Reference
6
ByLayer
62
256
370
-1
100
AcDbLine
10
0.182519685039
20
0.170354330709
11
0.172913385827
21
0.181968503937
0
LINE
5
D2
100
AcDbEntity
8
Reference
6
ByLayer
62
256
370
-1
100
AcDbLine
10
0.172913385827
20
0.181968503937
11
0.164842519685
21
0.19468503937
0
LINE
5
D3
100
AcDbEntity
8
Reference
6
ByLayer
62
256
370
-1
100
AcDbLine
10
0.164842519685
20
0.19468503937
11
0.15842519685
21
0.208307086614
0
LINE
5
D4
100
AcDbEntity
8
Reference
6
ByLayer
62
256
370
-1
100
AcDbLine
10
0.15842519685
20
0.208307086614
11
0.153779527559
21
0.222637795276
0
LINE
5
D5
100
AcDbEntity
8
Reference
6
ByLayer
62
256
370
-1
100
AcDbLine
10
0.153779527559
20
0.222637795276
11
0.15094488189
21
0.237440944882
0
LINE
5
D6
100
AcDbEntity
8
Reference
6
ByLayer
62
256
370
-1
100
AcDbLine
10
0.15094488189
20
0.237440944882
11
0.15
21
0.252480314961
0
LINE
5
D7
100
AcDbEntity
8
Reference
6
ByLayer
62
256
370
-1
100
AcDbLine
10
0.15
20
1.48751968504
11
0.15094488189
21
1.50255905512
0
LINE
5
D8
100
AcDbEntity
8
Reference
6
ByLayer
62
256
370
-1
100
AcDbLine
10
0.15094488189
20
1.50255905512
11
0.153779527559
21
1.51736220472
0
LINE
5
D9
100
AcDbEntity
8
Reference
6
ByLayer
62
256
370
-1
100
AcDbLine
10
0.153779527559
20
1.51736220472
11
0.15842519685
21
1.53169291339
0
LINE
5
DA
100
AcDbEntity
8
Reference
6
ByLayer
62
256
370
-1
100
AcDbLine
10
0.15842519685
20
1.53169291339
11
0.164842519685
21
1.54531496063
0
LINE
5
DB
100
AcDbEntity
8
Reference
6
ByLayer
62
256
370
-1
100
AcDbLine
10
0.164842519685
20
1.54531496063
11
0.172913385827
21
1.55803149606
0
LINE
5
DC
100
AcDbEntity
8
Reference
6
ByLayer
62
256
370
-1
100
AcDbLine
10
0.172913385827
20
1.55803149606
11
0.182519685039
21
1.56964566929
0
LINE
5
DD
100
AcDbEntity
8
Reference
6
ByLayer
62
256
370
-1
100
AcDbLine
10
0.182519685039
20
1.56964566929
11
0.193503937008
21
1.57996062992
0
LINE
5
DE
100
AcDbEntity
8
Reference
6
ByLayer
62
256
370
-1
100
AcDbLine
10
0.193503937008
20
1.57996062992
11
0.205708661417
21
1.58881889764
0
LINE
5
DF
100
AcDbEntity
8
Reference
6
ByLayer
62
256
370
-1
100
AcDbLine
10
0.205708661417
20
1.58881889764
11
0.218897637795
21
1.59606299213
0
LINE
5
E0
100
AcDbEntity
8
Reference
6
ByLayer
62
256
370
-1
100
AcDbLine
10
0.218897637795
20
1.59606299213
11
0.232913385827
21
1.60161417323
0
LINE
5
E1
100
AcDbEntity
8
Reference
6
ByLayer
62
256
370
-1
100
AcDbLine
10
0.232913385827
20
1.60161417323
11
0.247519685039
21
1.60539370079
0
LINE
5
E2
100
AcDbEntity
8
Reference
6
ByLayer
62
256
370
-1
100
AcDbLine
10
0.247519685039
20
1.60539370079
11
0.262480314961
21
1.60724409449
0
LINE
5
E3
100
AcDbEntity
8
Reference
6
ByLayer
62
256
370
-1
100
AcDbLine
10
0.262480314961
20
1.60724409449
11
0.27
21
1.60724409449
0
LINE
5
E4
100
AcDbEntity
8
Reference
6
ByLayer
62
256
370
-1
100
AcDbLine
10
0.27
20
1.60724409449
11
0.27
21
1.60748031496
0
LINE
5
E5
100
AcDbEntity
8
Reference
6
ByLayer
62
256
370
-1
100
AcDbLine
10
0.42
20
1.60748031496
11
0.42
21
1.60724409449
0
LINE
5
E6
100
AcDbEntity
8
Reference
6
ByLayer
62
256
370
-1
100
AcDbLine
10
0.42
20
1.60724409449
11
0.427519685039
21
1.60724409449
0
LINE
5
E7
100
AcDbEntity
8
Reference
6
ByLayer
62
256
370
-1
100
AcDbLine
10
0.427519685039
20
1.60724409449
11
0.442480314961
21
1.60539370079
0
LINE
5
E8
100
AcDbEntity
8
Reference
6
ByLayer
62
256
370
-1
100
AcDbLine
10
0.442480314961
20
1.60539370079
11
0.457086614173
21
1.60161417323
0
LINE
5
E9
100
AcDbEntity
8
Reference
6
ByLayer
62
256
370
-1
100
AcDbLine
10
0.457086614173
20
1.60161417323
11
0.471102362205
21
1.59606299213
0
LINE
5
EA
100
AcDbEntity
8
Reference
6
ByLayer
62
256
370
-1
100
AcDbLine
10
0.471102362205
20
1.59606299213
11
0.484291338583
21
1.58881889764
0
LINE
5
EB
100
AcDbEntity
8
Reference
6
ByLayer
62
256
370
-1
100
AcDbLine
10
0.484291338583
20
1.58881889764
11
0.496496062992
21
1.57996062992
0
LINE
5
EC
100
AcDbEntity
8
Reference
6
ByLayer
62
256
370
-1
100
AcDbLine
10
0.496496062992
20
1.57996062992
11
0.507480314961
21
1.56964566929
0
LINE
5
ED
100
AcDbEntity
8
Reference
6
ByLayer
62
256
370
-1
100
AcDbLine
10
0.507480314961
20
1.56964566929
11
0.517086614173
21
1.55803149606
0
LINE
5
EE
100
AcDbEntity
8
Reference
6
ByLayer
62
256
370
-1
100
AcDbLine
10
0.517086614173
20
1.55803149606
11
0.525157480315
21
1.54531496063
0
LINE
5
EF
100
AcDbEntity
8
Reference
6
ByLayer
62
256
370
-1
100
AcDbLine
10
0.525157480315
20
1.54531496063
11
0.53157480315
21
1.53169291339
0
LINE
5
F0
100
AcDbEntity
8
Reference
6
ByLayer
62
256
370
-1
100
AcDbLine
10
0.53157480315
20
1.53169291339
11
0.536220472441
21
1.51736220472
0
LINE
5
F1
100
AcDbEntity
8
Reference
6
ByLayer
62
256
370
-1
100
AcDbLine
10
0.536220472441
20
1.51736220472
11
0.53905511811
21
1.50255905512
0
LINE
5
F2
100
AcDbEntity
8
Reference
6
ByLayer
62
256
370
-1
100
AcDbLine
10
0.53905511811
20
1.50255905512
11
0.54
21
1.48751968504
0
LINE
5
F3
100
AcDbEntity
8
Reference
6
ByLayer
62
256
370
-1
100
AcDbLine
10
0.54
20
1.48751968504
11
0.53905511811
21
1.47244094488
0
LINE
5
F4
100
AcDbEntity
8
Reference
6
ByLayer
62
256
370
-1
100
AcDbLine
10
0.53905511811
20
1.47244094488
11
0.536220472441
21
1.45763779528
0
LINE
5
F5
100
AcDbEntity
8
Reference
6
ByLayer
62
256
370
-1
100
AcDbLine
10
0.536220472441
20
1.45763779528
11
0.53157480315
21
1.44330708661
0
LINE
5
F6
100
AcDbEntity
8
Reference
6
ByLayer
62
256
370
-1
100
AcDbLine
10
0.53157480315
20
1.44330708661
11
0.525157480315
21
1.42968503937
0
LINE
5
F7
100
AcDbEntity
8
Reference
6
ByLayer
62
256
370
-1
100
AcDbLine
10
0.525157480315
20
1.42968503937
11
0.517086614173
21
1.41696850394
0
LINE
5
F8
100
AcDbEntity
8
Reference
6
ByLayer
62
256
370
-1
100
AcDbLine
10
0.517086614173
20
1.41696850394
11
0.507480314961
21
1.40535433071
0
LINE
5
F9
100
AcDbEntity
8
Reference
6
ByLayer
62
256
370
-1
100
AcDbLine
10
0.507480314961
20
1.40535433071
11
0.496496062992
21
1.39503937008
0
LINE
5
FA
100
AcDbEntity
8
Reference
6
ByLayer
62
256
370
-1
100
AcDbLine
10
0.496496062992
20
1.39503937008
11
0.484291338583
21
1.38618110236
0
LINE
5
FB
100
AcDbEntity
8
Reference
6
ByLayer
62
256
370
-1
100
AcDbLine
10
0.484291338583
20
1.38618110236
11
0.471102362205
21
1.37893700787
0
LINE
5
FC
100
AcDbEntity
8
Reference
6
ByLayer
62
256
370
-1
100
AcDbLine
10
0.471102362205
20
1.37893700787
11
0.457086614173
21
1.37338582677
0
LINE
5
FD
100
AcDbEntity
8
Reference
6
ByLayer
62
256
370
-1
100
AcDbLine
10
0.457086614173
20
1.37338582677
11
0.442480314961
21
1.36960629921
0
LINE
5
FE
100
AcDbEntity
8
Reference
6
ByLayer
62
256
370
-1
100
AcDbLine
10
0.442480314961
20
1.36960629921
11
0.427519685039
21
1.36775590551
0
LINE
5
FF
100
AcDbEntity
8
Reference
6
ByLayer
62
256
370
-1
100
AcDbLine
10
0.427519685039
20
1.36775590551
11
0.42
21
1.36775590551
0
LINE
5
100
100
AcDbEntity
8
Reference
6
ByLayer
62
256
370
-1
100
AcDbLine
10
0.42
20
1.36775590551
11
0.42
21
1.36751968504
0
LINE
5
101
100
AcDbEntity
8
Reference
6
ByLayer
62
256
370
-1
100
AcDbLine
10
0.42
20
1.36751968504
11
0.27
21
1.36751968504
0
LINE
5
102
100
AcDbEntity
8
Reference
6
ByLayer
62
256
370
-1
100
AcDbLine
10
0.27
20
1.36751968504
11
0.27
21
1.36775590551
0
LINE
5
103
100
AcDbEntity
8
Reference
6
ByLayer
62
256
370
-1
100
AcDbLine
10
0.27
20
1.36775590551
11
0.262480314961
21
1.36775590551
0
LINE
5
104
100
AcDbEntity
8
Reference
6
ByLayer
62
256
370
-1
100
AcDbLine
10
0.262480314961
20
1.36775590551
11
0.247519685039
21
1.36960629921
0
LINE
5
105
100
AcDbEntity
8
Reference
6
ByLayer
62
256
370
-1
100
AcDbLine
10
0.247519685039
20
1.36960629921
11
0.232913385827
21
1.37338582677
0
LINE
5
106
100
AcDbEntity
8
Reference
6
ByLayer
62
256
370
-1
100
AcDbLine
10
0.232913385827
20
1.37338582677
11
0.218897637795
21
1.37893700787
0
LINE
5
107
100
AcDbEntity
8
Reference
6
ByLayer
62
256
370
-1
100
AcDbLine
10
0.218897637795
20
1.37893700787
11
0.205708661417
21
1.38618110236
0
LINE
5
108
100
AcDbEntity
8
Reference
6
ByLayer
62
256
370
-1
100
AcDbLine
10
0.205708661417
20
1.38618110236
11
0.193503937008
21
1.39503937008
0
LINE
5
109
100
AcDbEntity
8
Reference
6
ByLayer
62
256
370
-1
100
AcDbLine
10
0.193503937008
20
1.39503937008
11
0.182519685039
21
1.40535433071
0
LINE
5
10A
100
AcDbEntity
8
Reference
6
ByLayer
62
256
370
-1
100
AcDbLine
10
0.182519685039
20
1.40535433071
11
0.172913385827
21
1.41696850394
0
LINE
5
10B
100
AcDbEntity
8
Reference
6
ByLayer
62
256
370
-1
100
AcDbLine
10
0.172913385827
20
1.41696850394
11
0.164842519685
21
1.42968503937
0
LINE
5
10C
100
AcDbEntity
8
Reference
6
ByLayer
62
256
370
-1
100
AcDbLine
10
0.164842519685
20
1.42968503937
11
0.15842519685
21
1.44330708661
0
LINE
5
10D
100
AcDbEntity
8
Reference
6
ByLayer
62
256
370
-1
100
AcDbLine
10
0.15842519685
20
1.44330708661
11
0.153779527559
21
1.45763779528
0
LINE
5
10E
100
AcDbEntity
8
Reference
6
ByLayer
62
256
370
-1
100
AcDbLine
10
0.153779527559
20
1.45763779528
11
0.15094488189
21
1.47244094488
0
LINE
5
10F
100
AcDbEntity
8
Reference
6
ByLayer
62
256
370
-1
100
AcDbLine
10
0.15094488189
20
1.47244094488
11
0.15
21
1.48751968504
0
LINE
5
110
100
AcDbEntity
8
Reference
6
ByLayer
62
256
370
-1
100
AcDbLine
10
18.46
20
0.252480314961
11
18.4609448819
21
0.267559055118
0
LINE
5
111
100
AcDbEntity
8
Reference
6
ByLayer
62
256
370
-1
100
AcDbLine
10
18.4609448819
20
0.267559055118
11
18.4637795276
21
0.282362204724
0
LINE
5
112
100
AcDbEntity
8
Reference
6
ByLayer
62
256
370
-1
100
AcDbLine
10
18.4637795276
20
0.282362204724
11
18.4684251969
21
0.296692913386
0
LINE
5
113
100
AcDbEntity
8
Reference
6
ByLayer
62
256
370
-1
100
AcDbLine
10
18.4684251969
20
0.296692913386
11
18.4748425197
21
0.31031496063
0
LINE
5
114
100
AcDbEntity
8
Reference
6
ByLayer
62
256
370
-1
100
AcDbLine
10
18.4748425197
20
0.31031496063
11
18.4829133858
21
0.323031496063
0
LINE
5
115
100
AcDbEntity
8
Reference
6
ByLayer
62
256
370
-1
100
AcDbLine
10
18.4829133858
20
0.323031496063
11
18.492519685
21
0.334645669291
0
LINE
5
116
100
AcDbEntity
8
Reference
6
ByLayer
62
256
370
-1
100
AcDbLine
10
18.492519685
20
0.334645669291
11
18.503503937
21
0.344960629921
0
LINE
5
117
100
AcDbEntity
8
Reference
6
ByLayer
62
256
370
-1
100
AcDbLine
10
18.503503937
20
0.344960629921
11
18.5157086614
21
0.353818897638
0
LINE
5
118
100
AcDbEntity
8
Reference
6
ByLayer
62
256
370
-1
100
AcDbLine
10
18.5157086614
20
0.353818897638
11
18.5288976378
21
0.361062992126
0
LINE
5
119
100
AcDbEntity
8
Reference
6
ByLayer
62
256
370
-1
100
AcDbLine
10
18.5288976378
20
0.361062992126
11
18.5429133858
21
0.366614173228
0
LINE
5
11A
100
AcDbEntity
8
Reference
6
ByLayer
62
256
370
-1
100
AcDbLine
10
18.5429133858
20
0.366614173228
11
18.557519685
21
0.370393700787
0
LINE
5
11B
100
AcDbEntity
8
Reference
6
ByLayer
62
256
370
-1
100
AcDbLine
10
18.557519685
20
0.370393700787
11
18.572480315
21
0.372244094488
0
LINE
5
11C
100
AcDbEntity
8
Reference
6
ByLayer
62
256
370
-1
100
AcDbLine
10
18.572480315
20
0.372244094488
11
18.58
21
0.372244094488
0
LINE
5
11D
100
AcDbEntity
8
Reference
6
ByLayer
62
256
370
-1
100
AcDbLine
10
18.58
20
0.372244094488
11
18.58
21
0.372480314961
0
LINE
5
11E
100
AcDbEntity
8
Reference
6
ByLayer
62
256
370
-1
100
AcDbLine
10
18.58
20
0.372480314961
11
18.73
21
0.372480314961
0
LINE
5
11F
100
AcDbEntity
8
Reference
6
ByLayer
62
256
370
-1
100
AcDbLine
10
18.73
20
0.372480314961
11
18.73
21
0.372244094488
0
LINE
5
120
100
AcDbEntity
8
Reference
6
ByLayer
62
256
370
-1
100
AcDbLine
10
18.73
20
0.372244094488
11
18.737519685
21
0.372244094488
0
LINE
5
121
100
AcDbEntity
8
Reference
6
ByLayer
62
256
370
-1
100
AcDbLine
10
18.737519685
20
0.372244094488
11
18.752480315
21
0.370393700787
0
LINE
5
122
100
AcDbEntity
8
Reference
6
ByLayer
62
256
370
-1
100
AcDbLine
10
18.752480315
20
0.370393700787
11
18.7670866142
21
0.366614173228
0
LINE
5
123
100
AcDbEntity
8
Reference
6
ByLayer
62
256
370
-1
100
AcDbLine
10
18.7670866142
20
0.366614173228
11
18.7811023622
21
0.361062992126
0
LINE
5
124
100
AcDbEntity
8
Reference
6
ByLayer
62
256
370
-1
100
AcDbLine
10
18.7811023622
20
0.361062992126
11
18.7942913386
21
0.353818897638
0
LINE
5
125
100
AcDbEntity
8
Reference
6
ByLayer
62
256
370
-1
100
AcDbLine
10
18.7942913386
20
0.353818897638
11
18.806496063
21
0.344960629921
0
LINE
5
126
100
AcDbEntity
8
Reference
6
ByLayer
62
256
370
-1
100
AcDbLine
10
18.806496063
20
0.344960629921
11
18.817480315
21
0.334645669291
0
LINE
5
127
100
AcDbEntity
8
Reference
6
ByLayer
62
256
370
-1
100
AcDbLine
10
18.817480315
20
0.334645669291
11
18.8270866142
21
0.323031496063
0
LINE
5
128
100
AcDbEntity
8
Reference
6
ByLayer
62
256
370
-1
100
AcDbLine
10
18.8270866142
20
0.323031496063
11
18.8351574803
21
0.31031496063
0
LINE
5
129
100
AcDbEntity
8
Reference
6
ByLayer
62
256
370
-1
100
AcDbLine
10
18.8351574803
20
0.31031496063
11
18.8415748031
21
0.296692913386
0
LINE
5
12A
100
AcDbEntity
8
Reference
6
ByLayer
62
256
370
-1
100
AcDbLine
10
18.8415748031
20
0.296692913386
11
18.8462204724
21
0.282362204724
0
LINE
5
12B
100
AcDbEntity
8
Reference
6
ByLayer
62
256
370
-1
100
AcDbLine
10
18.8462204724
20
0.282362204724
11
18.8490551181
21
0.267559055118
0
LINE
5
12C
100
AcDbEntity
8
Reference
6
ByLayer
62
256
370
-1
100
AcDbLine
10
18.8490551181
20
0.267559055118
11
18.85
21
0.252480314961
0
LINE
5
12D
100
AcDbEntity
8
Reference
6
ByLayer
62
256
370
-1
100
AcDbLine
10
18.85
20
0.252480314961
11
18.8490551181
21
0.237440944882
0
LINE
5
12E
100
AcDbEntity
8
Reference
6
ByLayer
62
256
370
-1
100
AcDbLine
10
18.8490551181
20
0.237440944882
11
18.8462204724
21
0.222637795276
0
LINE
5
12F
100
AcDbEntity
8
Reference
6
ByLayer
62
256
370
-1
100
AcDbLine
10
18.8462204724
20
0.222637795276
11
18.8415748031
21
0.208307086614
0
LINE
5
130
100
AcDbEntity
8
Reference
6
ByLayer
62
256
370
-1
100
AcDbLine
10
18.8415748031
20
0.208307086614
11
18.8351574803
21
0.19468503937
0
LINE
5
131
100
AcDbEntity
8
Reference
6
ByLayer
62
256
370
-1
100
AcDbLine
10
18.8351574803
20
0.19468503937
11
18.8270866142
21
0.181968503937
0
LINE
5
132
100
AcDbEntity
8
Reference
6
ByLayer
62
256
370
-1
100
AcDbLine
10
18.8270866142
20
0.181968503937
11
18.817480315
21
0.170354330709
0
LINE
5
133
100
AcDbEntity
8
Reference
6
ByLayer
62
256
370
-1
100
AcDbLine
10
18.817480315
20
0.170354330709
11
18.806496063
21
0.160039370079
0
LINE
5
134
100
AcDbEntity
8
Reference
6
ByLayer
62
256
370
-1
100
AcDbLine
10
18.806496063
20
0.160039370079
11
18.7942913386
21
0.151181102362
0
LINE
5
135
100
AcDbEntity
8
Reference
6
ByLayer
62
256
370
-1
100
AcDbLine
10
18.7942913386
20
0.151181102362
11
18.7811023622
21
0.143937007874
0
LINE
5
136
100
AcDbEntity
8
Reference
6
ByLayer
62
256
370
-1
100
AcDbLine
10
18.7811023622
20
0.143937007874
11
18.7670866142
21
0.138385826772
0
LINE
5
137
100
AcDbEntity
8
Reference
6
ByLayer
62
256
370
-1
100
AcDbLine
10
18.7670866142
20
0.138385826772
11
18.752480315
21
0.134606299213
0
LINE
5
138
100
AcDbEntity
8
Reference
6
ByLayer
62
256
370
-1
100
AcDbLine
10
18.752480315
20
0.134606299213
11
18.737519685
21
0.132755905512
0
LINE
5
139
100
AcDbEntity
8
Reference
6
ByLayer
62
256
370
-1
100
AcDbLine
10
18.737519685
20
0.132755905512
11
18.73
21
0.132755905512
0
LINE
5
13A
100
AcDbEntity
8
Reference
6
ByLayer
62
256
370
-1
100
AcDbLine
10
18.73
20
0.132755905512
11
18.73
21
0.132519685039
0
LINE
5
13B
100
AcDbEntity
8
Reference
6
ByLayer
62
256
370
-1
100
AcDbLine
10
18.73
20
0.132519685039
11
18.58
21
0.132519685039
0
LINE
5
13C
100
AcDbEntity
8
Reference
6
ByLayer
62
256
370
-1
100
AcDbLine
10
18.58
20
0.132519685039
11
18.58
21
0.132755905512
0
LINE
5
13D
100
AcDbEntity
8
Reference
6
ByLayer
62
256
370
-1
100
AcDbLine
10
18.58
20
0.132755905512
11
18.572480315
21
0.132755905512
0
LINE
5
13E
100
AcDbEntity
8
Reference
6
ByLayer
62
256
370
-1
100
AcDbLine
10
18.572480315
20
0.132755905512
11
18.557519685
21
0.134606299213
0
LINE
5
13F
100
AcDbEntity
8
Reference
6
ByLayer
62
256
370
-1
100
AcDbLine
10
18.557519685
20
0.134606299213
11
18.5429133858
21
0.138385826772
0
LINE
5
140
100
AcDbEntity
8
Reference
6
ByLayer
62
256
370
-1
100
AcDbLine
10
18.5429133858
20
0.138385826772
11
18.5288976378
21
0.143937007874
0
LINE
5
141
100
AcDbEntity
8
Reference
6
ByLayer
62
256
370
-1
100
AcDbLine
10
18.5288976378
20
0.143937007874
11
18.5157086614
21
0.151181102362
0
LINE
5
142
100
AcDbEntity
8
Reference
6
ByLayer
62
256
370
-1
100
AcDbLine
10
18.5157086614
20
0.151181102362
11
18.503503937
21
0.160039370079
0
LINE
5
143
100
AcDbEntity
8
Reference
6
ByLayer
62
256
370
-1
100
AcDbLine
10
18.503503937
20
0.160039370079
11
18.492519685
21
0.170354330709
0
LINE
5
144
100
AcDbEntity
8
Reference
6
ByLayer
62
256
370
-1
100
AcDbLine
10
18.492519685
20
0.170354330709
11
18.4829133858
21
0.181968503937
0
LINE
5
145
100
AcDbEntity
8
Reference
6
ByLayer
62
256
370
-1
100
AcDbLine
10
18.4829133858
20
0.181968503937
11
18.4748425197
21
0.19468503937
0
LINE
5
146
100
AcDbEntity
8
Reference
6
ByLayer
62
256
370
-1
100
AcDbLine
10
18.4748425197
20
0.19468503937
11
18.4684251969
21
0.208307086614
0
LINE
5
147
100
AcDbEntity
8
Reference
6
ByLayer
62
256
370
-1
100
AcDbLine
10
18.4684251969
20
0.208307086614
11
18.4637795276
21
0.222637795276
0
LINE
5
148
100
AcDbEntity
8
Reference
6
ByLayer
62
256
370
-1
100
AcDbLine
10
18.4637795276
20
0.222637795276
11
18.4609448819
21
0.237440944882
0
LINE
5
149
100
AcDbEntity
8
Reference
6
ByLayer
62
256
370
-1
100
AcDbLine
10
18.4609448819
20
0.237440944882
11
18.46
21
0.252480314961
0
LINE
5
14A
100
AcDbEntity
8
Reference
6
ByLayer
62
256
370
-1
100
AcDbLine
10
18.46
20
1.48751968504
11
18.4609448819
21
1.50255905512
0
LINE
5
14B
100
AcDbEntity
8
Reference
6
ByLayer
62
256
370
-1
100
AcDbLine
10
18.4609448819
20
1.50255905512
11
18.4637795276
21
1.51736220472
0
LINE
5
14C
100
AcDbEntity
8
Reference
6
ByLayer
62
256
370
-1
100
AcDbLine
10
18.4637795276
20
1.51736220472
11
18.4684251969
21
1.53169291339
0
LINE
5
14D
100
AcDbEntity
8
Reference
6
ByLayer
62
256
370
-1
100
AcDbLine
10
18.4684251969
20
1.53169291339
11
18.4748425197
21
1.54531496063
0
LINE
5
14E
100
AcDbEntity
8
Reference
6
ByLayer
62
256
370
-1
100
AcDbLine
10
18.4748425197
20
1.54531496063
11
18.4829133858
21
1.55803149606
0
LINE
5
14F
100
AcDbEntity
8
Reference
6
ByLayer
62
256
370
-1
100
AcDbLine
10
18.4829133858
20
1.55803149606
11
18.492519685
21
1.56964566929
0
LINE
5
150
100
AcDbEntity
8
Reference
6
ByLayer
62
256
370
-1
100
AcDbLine
10
18.492519685
20
1.56964566929
11
18.503503937
21
1.57996062992
0
LINE
5
151
100
AcDbEntity
8
Reference
6
ByLayer
62
256
370
-1
100
AcDbLine
10
18.503503937
20
1.57996062992
11
18.5157086614
21
1.58881889764
0
LINE
5
152
100
AcDbEntity
8
Reference
6
ByLayer
62
256
370
-1
100
AcDbLine
10
18.5157086614
20
1.58881889764
11
18.5288976378
21
1.59606299213
0
LINE
5
153
100
AcDbEntity
8
Reference
6
ByLayer
62
256
370
-1
100
AcDbLine
10
18.5288976378
20
1.59606299213
11
18.5429133858
21
1.60161417323
0
LINE
5
154
100
AcDbEntity
8
Reference
6
ByLayer
62
256
370
-1
100
AcDbLine
10
18.5429133858
20
1.60161417323
11
18.557519685
21
1.60539370079
0
LINE
5
155
100
AcDbEntity
8
Reference
6
ByLayer
62
256
370
-1
100
AcDbLine
10
18.557519685
20
1.60539370079
11
18.572480315
21
1.60724409449
0
LINE
5
156
100
AcDbEntity
8
Reference
6
ByLayer
62
256
370
-1
100
AcDbLine
10
18.572480315
20
1.60724409449
11
18.58
21
1.60724409449
0
LINE
5
157
100
AcDbEntity
8
Reference
6
ByLayer
62
256
370
-1
100
AcDbLine
10
18.58
20
1.60724409449
11
18.58
21
1.60748031496
0
LINE
5
158
100
AcDbEntity
8
Reference
6
ByLayer
62
256
370
-1
100
AcDbLine
10
18.58
20
1.60748031496
11
18.73
21
1.60748031496
0
LINE
5
159
100
AcDbEntity
8
Reference
6
ByLayer
62
256
370
-1
100
AcDbLine
10
18.73
20
1.60748031496
11
18.73
21
1.60724409449
0
LINE
5
15A
100
AcDbEntity
8
Reference
6
ByLayer
62
256
370
-1
100
AcDbLine
10
18.73
20
1.60724409449
11
18.737519685
21
1.60724409449
0
LINE
5
15B
100
AcDbEntity
8
Reference
6
ByLayer
62
256
370
-1
100
AcDbLine
10
18.737519685
20
1.60724409449
11
18.752480315
21
1.60539370079
0
LINE
5
15C
100
AcDbEntity
8
Reference
6
ByLayer
62
256
370
-1
100
AcDbLine
10
18.752480315
20
1.60539370079
11
18.7670866142
21
1.60161417323
0
LINE
5
15D
100
AcDbEntity
8
Reference
6
ByLayer
62
256
370
-1
100
AcDbLine
10
18.7670866142
20
1.60161417323
11
18.7811023622
21
1.59606299213
0
LINE
5
15E
100
AcDbEntity
8
Reference
6
ByLayer
62
256
370
-1
100
AcDbLine
10
18.7811023622
20
1.59606299213
11
18.7942913386
21
1.58881889764
0
LINE
5
15F
100
AcDbEntity
8
Reference
6
ByLayer
62
256
370
-1
100
AcDbLine
10
18.7942913386
20
1.58881889764
11
18.806496063
21
1.57996062992
0
LINE
5
160
100
AcDbEntity
8
Reference
6
ByLayer
62
256
370
-1
100
AcDbLine
10
18.806496063
20
1.57996062992
11
18.817480315
21
1.56964566929
0
LINE
5
161
100
AcDbEntity
8
Reference
6
ByLayer
62
256
370
-1
100
AcDbLine
10
18.817480315
20
1.56964566929
11
18.8270866142
21
1.55803149606
0
LINE
5
162
100
AcDbEntity
8
Reference
6
ByLayer
62
256
370
-1
100
AcDbLine
10
18.8270866142
20
1.55803149606
11
18.8351574803
21
1.54531496063
0
LINE
5
163
100
AcDbEntity
8
Reference
6
ByLayer
62
256
370
-1
100
AcDbLine
10
18.8351574803
20
1.54531496063
11
18.8415748031
21
1.53169291339
0
LINE
5
164
100
AcDbEntity
8
Reference
6
ByLayer
62
256
370
-1
100
AcDbLine
10
18.8415748031
20
1.53169291339
11
18.8462204724
21
1.51736220472
0
LINE
5
165
100
AcDbEntity
8
Reference
6
ByLayer
62
256
370
-1
100
AcDbLine
10
18.8462204724
20
1.51736220472
11
18.8490551181
21
1.50255905512
0
LINE
5
166
100
AcDbEntity
8
Reference
6
ByLayer
62
256
370
-1
100
AcDbLine
10
18.8490551181
20
1.50255905512
11
18.85
21
1.48751968504
0
LINE
5
167
100
AcDbEntity
8
Reference
6
ByLayer
62
256
370
-1
100
AcDbLine
10
18.85
20
1.48751968504
11
18.8490551181
21
1.47244094488
0
LINE
5
168
100
AcDbEntity
8
Reference
6
ByLayer
62
256
370
-1
100
AcDbLine
10
18.8490551181
20
1.47244094488
11
18.8462204724
21
1.45763779528
0
LINE
5
169
100
AcDbEntity
8
Reference
6
ByLayer
62
256
370
-1
100
AcDbLine
10
18.8462204724
20
1.45763779528
11
18.8415748031
21
1.44330708661
0
LINE
5
16A
100
AcDbEntity
8
Reference
6
ByLayer
62
256
370
-1
100
AcDbLine
10
18.8415748031
20
1.44330708661
11
18.8351574803
21
1.42968503937
0
LINE
5
16B
100
AcDbEntity
8
Reference
6
ByLayer
62
256
370
-1
100
AcDbLine
10
18.8351574803
20
1.42968503937
11
18.8270866142
21
1.41696850394
0
LINE
5
16C
100
AcDbEntity
8
Reference
6
ByLayer
62
256
370
-1
100
AcDbLine
10
18.8270866142
20
1.41696850394
11
18.817480315
21
1.40535433071
0
LINE
5
16D
100
AcDbEntity
8
Reference
6
ByLayer
62
256
370
-1
100
AcDbLine
10
18.817480315
20
1.40535433071
11
18.806496063
21
1.39503937008
0
LINE
5
16E
100
AcDbEntity
8
Reference
6
ByLayer
62
256
370
-1
100
AcDbLine
10
18.806496063
20
1.39503937008
11
18.7942913386
21
1.38618110236
0
LINE
5
16F
100
AcDbEntity
8
Reference
6
ByLayer
62
256
370
-1
100
AcDbLine
10
18.7942913386
20
1.38618110236
11
18.7811023622
21
1.37893700787
0
LINE
5
170
100
AcDbEntity
8
Reference
6
ByLayer
62
256
370
-1
100
AcDbLine
10
18.7811023622
20
1.37893700787
11
18.7670866142
21
1.37338582677
0
LINE
5
171
100
AcDbEntity
8
Reference
6
ByLayer
62
256
370
-1
100
AcDbLine
10
18.7670866142
20
1.37338582677
11
18.752480315
21
1.36960629921
0
LINE
5
172
100
AcDbEntity
8
Reference
6
ByLayer
62
256
370
-1
100
AcDbLine
10
18.752480315
20
1.36960629921
11
18.737519685
21
1.36775590551
0
LINE
5
173
100
AcDbEntity
8
Reference
6
ByLayer
62
256
370
-1
100
AcDbLine
10
18.737519685
20
1.36775590551
11
18.73
21
1.36775590551
0
LINE
5
174
100
AcDbEntity
8
Reference
6
ByLayer
62
256
370
-1
100
AcDbLine
10
18.73
20
1.36775590551
11
18.73
21
1.36751968504
0
LINE
5
175
100
AcDbEntity
8
Reference
6
ByLayer
62
256
370
-1
100
AcDbLine
10
18.73
20
1.36751968504
11
18.58
21
1.36751968504
0
LINE
5
176
100
AcDbEntity
8
Reference
6
ByLayer
62
256
370
-1
100
AcDbLine
10
18.58
20
1.36751968504
11
18.58
21
1.36775590551
0
LINE
5
177
100
AcDbEntity
8
Reference
6
ByLayer
62
256
370
-1
100
AcDbLine
10
18.58
20
1.36775590551
11
18.572480315
21
1.36775590551
0
LINE
5
178
100
AcDbEntity
8
Reference
6
ByLayer
62
256
370
-1
100
AcDbLine
10
18.572480315
20
1.36775590551
11
18.557519685
21
1.36960629921
0
LINE
5
179
100
AcDbEntity
8
Reference
6
ByLayer
62
256
370
-1
100
AcDbLine
10
18.557519685
20
1.36960629921
11
18.5429133858
21
1.37338582677
0
LINE
5
17A
100
AcDbEntity
8
Reference
6
ByLayer
62
256
370
-1
100
AcDbLine
10
18.5429133858
20
1.37338582677
11
18.5288976378
21
1.37893700787
0
LINE
5
17B
100
AcDbEntity
8
Reference
6
ByLayer
62
256
370
-1
100
AcDbLine
10
18.5288976378
20
1.37893700787
11
18.5157086614
21
1.38618110236
0
LINE
5
17C
100
AcDbEntity
8
Reference
6
ByLayer
62
256
370
-1
100
AcDbLine
10
18.5157086614
20
1.38618110236
11
18.503503937
21
1.39503937008
0
LINE
5
17D
100
AcDbEntity
8
Reference
6
ByLayer
62
256
370
-1
100
AcDbLine
10
18.503503937
20
1.39503937008
11
18.492519685
21
1.40535433071
0
LINE
5
17E
100
AcDbEntity
8
Reference
6
ByLayer
62
256
370
-1
100
AcDbLine
10
18.492519685
20
1.40535433071
11
18.4829133858
21
1.41696850394
0
LINE
5
17F
100
AcDbEntity
8
Reference
6
ByLayer
62
256
370
-1
100
AcDbLine
10
18.4829133858
20
1.41696850394
11
18.4748425197
21
1.42968503937
0
LINE
5
180
100
AcDbEntity
8
Reference
6
ByLayer
62
256
370
-1
100
AcDbLine
10
18.4748425197
20
1.42968503937
11
18.4684251969
21
1.44330708661
0
LINE
5
181
100
AcDbEntity
8
Reference
6
ByLayer
62
256
370
-1
100
AcDbLine
10
18.4684251969
20
1.44330708661
11
18.4637795276
21
1.45763779528
0
LINE
5
182
100
AcDbEntity
8
Reference
6
ByLayer
62
256
370
-1
100
AcDbLine
10
18.4637795276
20
1.45763779528
11
18.4609448819
21
1.47244094488
0
LINE
5
183
100
AcDbEntity
8
Reference
6
ByLayer
62
256
370
-1
100
AcDbLine
10
18.4609448819
20
1.47244094488
11
18.46
21
1.48751968504
0
LINE
5
184
100
AcDbEntity
8
Reference
6
ByLayer
62
256
370
-1
100
AcDbLine
10
0.27
20
1.60748031496
11
0.42
21
1.60748031496
0
ENDBLK
5
59
330
57
100
AcDbEntity
8
0
100
AcDbBlockEnd
0
BLOCK
5
5B
330
5A
100
AcDbEntity
8
0
100
AcDbBlockBegin
2
back-1
70
0
10
0
20
0
3
back-1
1

0
LINE
5
185
100
AcDbEntity
8
Boundary
6
ByLayer
62
256
370
-1
100
AcDbLine
10
0
20
0
11
0
21
1.46
0
CIRCLE
5
186
100
AcDbEntity
8
4-40 Tap Hole
6
ByLayer
62
256
370
-1
100
AcDbCircle
10
11.2815354331
20
0.787974787261
40
0.061403210791
0
CIRCLE
5
187
100
AcDbEntity
8
4-40 Tap Hole
6
ByLayer
62
256
370
-1
100
AcDbCircle
10
13.1335114687
20
0.788011811024
40
0.0614215121771
0
LINE
5
188
100
AcDbEntity
8
Cutout
6
ByLayer
62
256
370
-1
100
AcDbLine
10
11.4004330709
20
0.520275590551
11
11.4004330709
21
1.05570866142
0
LINE
5
189
100
AcDbEntity
8
Cutout
6
ByLayer
62
256
370
-1
100
AcDbLine
10
13.0146062992
20
1.05570866142
11
13.0146062992
21
0.520275590551
0
LINE
5
18A
100
AcDbEntity
8
Cutout
6
ByLayer
62
256
370
-1
100
AcDbLine
10
11.4004330709
20
1.05570866142
11
13.0146062992
21
1.05570866142
0
LINE
5
18B
100
AcDbEntity
8
Cutout
6
ByLayer
62
256
370
-1
100
AcDbLine
10
11.4004330709
20
0.520275590551
11
13.0146062992
21
0.520275590551
0
LINE
5
18C
100
AcDbEntity
8
Boundary
6
ByLayer
62
256
370
-1
100
AcDbLine
10
16.8438
20
1.46
11
16.8438
21
0
0
LINE
5
18D
100
AcDbEntity
8
Boundary
6
ByLayer
62
256
370
-1
100
AcDbLine
10
16.8438
20
0
11
0
21
0
0
LINE
5
18E
100
AcDbEntity
8
Boundary
6
ByLayer
62
256
370
-1
100
AcDbLine
10
0
20
1.46
11
16.8438
21
1.46
0
ENDBLK
5
5C
330
5A
100
AcDbEntity
8
0
100
AcDbBlockEnd
0
ENDSEC
0
SECTION
2
ENTITIES
0
CIRCLE
5
18F
100
AcDbEntity
8
BNC Hole
6
ByLayer
62
256
370
-1
100
AcDbCircle
10
2.63999684441
20
1.36510833642
40
0.265754445816
0
CIRCLE
5
190
100
AcDbEntity
8
BNC Hole
6
ByLayer
62
256
370
-1
100
AcDbCircle
10
3.44001581713
20
1.36510167262
40
0.265739101021
0
CIRCLE
5
191
100
AcDbEntity
8
BNC Hole
6
ByLayer
62
256
370
-1
100
AcDbCircle
10
4.23999731499
20
1.36511545589
40
0.265759184349
0
CIRCLE
5
192
100
AcDbEntity
8
BNC Hole
6
ByLayer
62
256
370
-1
100
AcDbCircle
10
5.03999716936
20
1.36510750786
40
0.265751930664
0
CIRCLE
5
193
100
AcDbEntity
8
BNC Hole
6
ByLayer
62
256
370
-1
100
AcDbCircle
10
5.8399995811
20
1.36512305174
40
0.265748450441
0
CIRCLE
5
194
100
AcDbEntity
8
BNC Hole
6
ByLayer
62
256
370
-1
100
AcDbCircle
10
6.6399834009
20
1.36510001071
40
0.265738117019
0
CIRCLE
5
195
100
AcDbEntity
8
BNC Hole
6
ByLayer
62
256
370
-1
100
AcDbCircle
10
7.44
20
1.36511687217
40
0.26574345744
0
CIRCLE
5
196
100
AcDbEntity
8
BNC Hole
6
ByLayer
62
256
370
-1
100
AcDbCircle
10
8.24000080547
20
1.36510756262
40
0.265750416763
0
CIRCLE
5
197
100
AcDbEntity
8
BNC Hole
6
ByLayer
62
256
370
-1
100
AcDbCircle
10
9.04000399498
20
1.36510942243
40
0.265753978674
0
CIRCLE
5
198
100
AcDbEntity
8
BNC Hole
6
ByLayer
62
256
370
-1
100
AcDbCircle
10
9.84000687726
20
1.36510759334
40
0.26575134844
0
CIRCLE
5
199
100
AcDbEntity
8
4-40 Tap Hole
6
ByLayer
62
256
370
-1
100
AcDbCircle
10
11.1199822513
20
1.96999544439
40
0.0439975809454
0
CIRCLE
5
19A
100
AcDbEntity
8
4-40 Tap Hole
6
ByLayer
62
256
370
-1
100
AcDbCircle
10
10.3200061587
20
0.77000052521
40
0.0440017712647
0
CIRCLE
5
19B
100
AcDbEntity
8
4-40 Tap Hole
6
ByLayer
62
256
370
-1
100
AcDbCircle
10
11.1199936165
20
0.76998903444
40
0.0439909117484
0
CIRCLE
5
19C
100
AcDbEntity
8
4-40 Tap Hole
6
ByLayer
62
256
370
-1
100
AcDbCircle
10
10.3199988189
20
1.97000393701
40
0.0440066929134
0
LINE
5
19D
100
AcDbEntity
8
Reference
6
ByLayer
62
256
370
-1
100
AcDbLine
10
0.66
20
0.75248031496
11
0.66094488189
21
0.76755905512
0
LINE
5
19E
100
AcDbEntity
8
Reference
6
ByLayer
62
256
370
-1
100
AcDbLine
10
0.66094488189
20
0.76755905512
11
0.66377952756
21
0.78236220472
0
LINE
5
19F
100
AcDbEntity
8
Reference
6
ByLayer
62
256
370
-1
100
AcDbLine
10
0.66377952756
20
0.78236220472
11
0.66842519685
21
0.79669291339
0
LINE
5
1A0
100
AcDbEntity
8
Reference
6
ByLayer
62
256
370
-1
100
AcDbLine
10
0.66842519685
20
0.79669291339
11
0.67484251968
21
0.81031496063
0
LINE
5
1A1
100
AcDbEntity
8
Reference
6
ByLayer
62
256
370
-1
100
AcDbLine
10
0.67484251968
20
0.81031496063
11
0.68291338583
21
0.82303149606
0
LINE
5
1A2
100
AcDbEntity
8
Reference
6
ByLayer
62
256
370
-1
100
AcDbLine
10
0.68291338583
20
0.82303149606
11
0.69251968504
21
0.83464566929
0
LINE
5
1A3
100
AcDbEntity
8
Reference
6
ByLayer
62
256
370
-1
100
AcDbLine
10
0.69251968504
20
0.83464566929
11
0.70350393701
21
0.84496062992
0
LINE
5
1A4
100
AcDbEntity
8
Reference
6
ByLayer
62
256
370
-1
100
AcDbLine
10
0.70350393701
20
0.84496062992
11
0.71570866142
21
0.85381889764
0
LINE
5
1A5
100
AcDbEntity
8
Reference
6
ByLayer
62
256
370
-1
100
AcDbLine
10
0.71570866142
20
0.85381889764
11
0.72889763779
21
0.86106299213
0
LINE
5
1A6
100
AcDbEntity
8
Reference
6
ByLayer
62
256
370
-1
100
AcDbLine
10
0.72889763779
20
0.86106299213
11
0.74291338583
21
0.86661417323
0
LINE
5
1A7
100
AcDbEntity
8
Reference
6
ByLayer
62
256
370
-1
100
AcDbLine
10
0.74291338583
20
0.86661417323
11
0.75751968504
21
0.87039370079
0
LINE
5
1A8
100
AcDbEntity
8
Reference
6
ByLayer
62
256
370
-1
100
AcDbLine
10
0.75751968504
20
0.87039370079
11
0.77248031496
21
0.87224409449
0
LINE
5
1A9
100
AcDbEntity
8
Reference
6
ByLayer
62
256
370
-1
100
AcDbLine
10
0.77248031496
20
0.87224409449
11
0.78
21
0.87224409449
0
LINE
5
1AA
100
AcDbEntity
8
Reference
6
ByLayer
62
256
370
-1
100
AcDbLine
10
0.78
20
0.87224409449
11
0.78
21
0.87248031496
0
LINE
5
1AB
100
AcDbEntity
8
Reference
6
ByLayer
62
256
370
-1
100
AcDbLine
10
0.78
20
0.87248031496
11
0.93
21
0.87248031496
0
LINE
5
1AC
100
AcDbEntity
8
Reference
6
ByLayer
62
256
370
-1
100
AcDbLine
10
0.93
20
0.87248031496
11
0.93
21
0.87224409449
0
LINE
5
1AD
100
AcDbEntity
8
Reference
6
ByLayer
62
256
370
-1
100
AcDbLine
10
0.93
20
0.87224409449
11
0.93751968504
21
0.87224409449
0
LINE
5
1AE
100
AcDbEntity
8
Reference
6
ByLayer
62
256
370
-1
100
AcDbLine
10
0.93751968504
20
0.87224409449
11
0.95248031496
21
0.87039370079
0
LINE
5
1AF
100
AcDbEntity
8
Reference
6
ByLayer
62
256
370
-1
100
AcDbLine
10
0.95248031496
20
0.87039370079
11
0.96708661417
21
0.86661417323
0
LINE
5
1B0
100
AcDbEntity
8
Reference
6
ByLayer
62
256
370
-1
100
AcDbLine
10
0.96708661417
20
0.86661417323
11
0.9811023622
21
0.86106299213
0
LINE
5
1B1
100
AcDbEntity
8
Reference
6
ByLayer
62
256
370
-1
100
AcDbLine
10
0.9811023622
20
0.86106299213
11
0.99429133858
21
0.85381889764
0
LINE
5
1B2
100
AcDbEntity
8
Reference
6
ByLayer
62
256
370
-1
100
AcDbLine
10
0.99429133858
20
0.85381889764
11
1.00649606299
21
0.84496062992
0
LINE
5
1B3
100
AcDbEntity
8
Reference
6
ByLayer
62
256
370
-1
100
AcDbLine
10
1.00649606299
20
0.84496062992
11
1.01748031496
21
0.83464566929
0
LINE
5
1B4
100
AcDbEntity
8
Reference
6
ByLayer
62
256
370
-1
100
AcDbLine
10
1.01748031496
20
0.83464566929
11
1.02708661417
21
0.82303149606
0
LINE
5
1B5
100
AcDbEntity
8
Reference
6
ByLayer
62
256
370
-1
100
AcDbLine
10
1.02708661417
20
0.82303149606
11
1.03515748031
21
0.81031496063
0
LINE
5
1B6
100
AcDbEntity
8
Reference
6
ByLayer
62
256
370
-1
100
AcDbLine
10
1.03515748031
20
0.81031496063
11
1.04157480315
21
0.79669291339
0
LINE
5
1B7
100
AcDbEntity
8
Reference
6
ByLayer
62
256
370
-1
100
AcDbLine
10
1.04157480315
20
0.79669291339
11
1.04622047244
21
0.78236220472
0
LINE
5
1B8
100
AcDbEntity
8
Reference
6
ByLayer
62
256
370
-1
100
AcDbLine
10
1.04622047244
20
0.78236220472
11
1.04905511811
21
0.76755905512
0
LINE
5
1B9
100
AcDbEntity
8
Reference
6
ByLayer
62
256
370
-1
100
AcDbLine
10
1.04905511811
20
0.76755905512
11
1.05
21
0.75248031496
0
LINE
5
1BA
100
AcDbEntity
8
Reference
6
ByLayer
62
256
370
-1
100
AcDbLine
10
1.05
20
0.75248031496
11
1.04905511811
21
0.73744094488
0
LINE
5
1BB
100
AcDbEntity
8
Reference
6
ByLayer
62
256
370
-1
100
AcDbLine
10
1.04905511811
20
0.73744094488
11
1.04622047244
21
0.72263779528
0
LINE
5
1BC
100
AcDbEntity
8
Reference
6
ByLayer
62
256
370
-1
100
AcDbLine
10
1.04622047244
20
0.72263779528
11
1.04157480315
21
0.70830708661
0
LINE
5
1BD
100
AcDbEntity
8
Reference
6
ByLayer
62
256
370
-1
100
AcDbLine
10
1.04157480315
20
0.70830708661
11
1.03515748031
21
0.69468503937
0
LINE
5
1BE
100
AcDbEntity
8
Reference
6
ByLayer
62
256
370
-1
100
AcDbLine
10
1.03515748031
20
0.69468503937
11
1.02708661417
21
0.68196850394
0
LINE
5
1BF
100
AcDbEntity
8
Reference
6
ByLayer
62
256
370
-1
100
AcDbLine
10
1.02708661417
20
0.68196850394
11
1.01748031496
21
0.67035433071
0
LINE
5
1C0
100
AcDbEntity
8
Reference
6
ByLayer
62
256
370
-1
100
AcDbLine
10
1.01748031496
20
0.67035433071
11
1.00649606299
21
0.66003937008
0
LINE
5
1C1
100
AcDbEntity
8
Reference
6
ByLayer
62
256
370
-1
100
AcDbLine
10
1.00649606299
20
0.66003937008
11
0.99429133858
21
0.65118110236
0
LINE
5
1C2
100
AcDbEntity
8
Reference
6
ByLayer
62
256
370
-1
100
AcDbLine
10
0.99429133858
20
0.65118110236
11
0.9811023622
21
0.64393700787
0
LINE
5
1C3
100
AcDbEntity
8
Reference
6
ByLayer
62
256
370
-1
100
AcDbLine
10
0.9811023622
20
0.64393700787
11
0.96708661417
21
0.63838582677
0
LINE
5
1C4
100
AcDbEntity
8
Reference
6
ByLayer
62
256
370
-1
100
AcDbLine
10
0.96708661417
20
0.63838582677
11
0.95248031496
21
0.63460629921
0
LINE
5
1C5
100
AcDbEntity
8
Reference
6
ByLayer
62
256
370
-1
100
AcDbLine
10
0.95248031496
20
0.63460629921
11
0.93751968504
21
0.63275590551
0
LINE
5
1C6
100
AcDbEntity
8
Reference
6
ByLayer
62
256
370
-1
100
AcDbLine
10
0.93751968504
20
0.63275590551
11
0.93
21
0.63275590551
0
LINE
5
1C7
100
AcDbEntity
8
Reference
6
ByLayer
62
256
370
-1
100
AcDbLine
10
0.93
20
0.63275590551
11
0.93
21
0.63251968504
0
LINE
5
1C8
100
AcDbEntity
8
Reference
6
ByLayer
62
256
370
-1
100
AcDbLine
10
0.93
20
0.63251968504
11
0.78
21
0.63251968504
0
LINE
5
1C9
100
AcDbEntity
8
Reference
6
ByLayer
62
256
370
-1
100
AcDbLine
10
0.78
20
0.63251968504
11
0.78
21
0.63275590551
0
LINE
5
1CA
100
AcDbEntity
8
Reference
6
ByLayer
62
256
370
-1
100
AcDbLine
10
0.78
20
0.63275590551
11
0.77248031496
21
0.63275590551
0
LINE
5
1CB
100
AcDbEntity
8
Reference
6
ByLayer
62
256
370
-1
100
AcDbLine
10
0.77248031496
20
0.63275590551
11
0.75751968504
21
0.63460629921
0
LINE
5
1CC
100
AcDbEntity
8
Reference
6
ByLayer
62
256
370
-1
100
AcDbLine
10
0.75751968504
20
0.63460629921
11
0.74291338583
21
0.63838582677
0
LINE
5
1CD
100
AcDbEntity
8
Reference
6
ByLayer
62
256
370
-1
100
AcDbLine
10
0.74291338583
20
0.63838582677
11
0.72889763779
21
0.64393700787
0
LINE
5
1CE
100
AcDbEntity
8
Reference
6
ByLayer
62
256
370
-1
100
AcDbLine
10
0.72889763779
20
0.64393700787
11
0.71570866142
21
0.65118110236
0
LINE
5
1CF
100
AcDbEntity
8
Reference
6
ByLayer
62
256
370
-1
100
AcDbLine
10
0.71570866142
20
0.65118110236
11
0.70350393701
21
0.66003937008
0
LINE
5
1D0
100
AcDbEntity
8
Reference
6
ByLayer
62
256
370
-1
100
AcDbLine
10
0.70350393701
20
0.66003937008
11
0.69251968504
21
0.67035433071
0
LINE
5
1D1
100
AcDbEntity
8
Reference
6
ByLayer
62
256
370
-1
100
AcDbLine
10
0.69251968504
20
0.67035433071
11
0.68291338583
21
0.68196850394
0
LINE
5
1D2
100
AcDbEntity
8
Reference
6
ByLayer
62
256
370
-1
100
AcDbLine
10
0.68291338583
20
0.68196850394
11
0.67484251968
21
0.69468503937
0
LINE
5
1D3
100
AcDbEntity
8
Reference
6
ByLayer
62
256
370
-1
100
AcDbLine
10
0.67484251968
20
0.69468503937
11
0.66842519685
21
0.70830708661
0
LINE
5
1D4
100
AcDbEntity
8
Reference
6
ByLayer
62
256
370
-1
100
AcDbLine
10
0.66842519685
20
0.70830708661
11
0.66377952756
21
0.72263779528
0
LINE
5
1D5
100
AcDbEntity
8
Reference
6
ByLayer
62
256
370
-1
100
AcDbLine
10
0.66377952756
20
0.72263779528
11
0.66094488189
21
0.73744094488
0
LINE
5
1D6
100
AcDbEntity
8
Reference
6
ByLayer
62
256
370
-1
100
AcDbLine
10
0.66094488189
20
0.73744094488
11
0.66
21
0.75248031496
0
LINE
5
1D7
100
AcDbEntity
8
Reference
6
ByLayer
62
256
370
-1
100
AcDbLine
10
0.66
20
1.98751968504
11
0.66094488189
21
2.00255905512
0
LINE
5
1D8
100
AcDbEntity
8
Reference
6
ByLayer
62
256
370
-1
100
AcDbLine
10
0.66094488189
20
2.00255905512
11
0.66377952756
21
2.01736220472
0
LINE
5
1D9
100
AcDbEntity
8
Reference
6
ByLayer
62
256
370
-1
100
AcDbLine
10
0.66377952756
20
2.01736220472
11
0.66842519685
21
2.03169291339
0
LINE
5
1DA
100
AcDbEntity
8
Reference
6
ByLayer
62
256
370
-1
100
AcDbLine
10
0.66842519685
20
2.03169291339
11
0.67484251968
21
2.04531496063
0
LINE
5
1DB
100
AcDbEntity
8
Reference
6
ByLayer
62
256
370
-1
100
AcDbLine
10
0.67484251968
20
2.04531496063
11
0.68291338583
21
2.05803149606
0
LINE
5
1DC
100
AcDbEntity
8
Reference
6
ByLayer
62
256
370
-1
100
AcDbLine
10
0.68291338583
20
2.05803149606
11
0.69251968504
21
2.06964566929
0
LINE
5
1DD
100
AcDbEntity
8
Reference
6
ByLayer
62
256
370
-1
100
AcDbLine
10
0.69251968504
20
2.06964566929
11
0.70350393701
21
2.07996062992
0
LINE
5
1DE
100
AcDbEntity
8
Reference
6
ByLayer
62
256
370
-1
100
AcDbLine
10
0.70350393701
20
2.07996062992
11
0.71570866142
21
2.08881889764
0
LINE
5
1DF
100
AcDbEntity
8
Reference
6
ByLayer
62
256
370
-1
100
AcDbLine
10
0.71570866142
20
2.08881889764
11
0.72889763779
21
2.09606299213
0
LINE
5
1E0
100
AcDbEntity
8
Reference
6
ByLayer
62
256
370
-1
100
AcDbLine
10
0.72889763779
20
2.09606299213
11
0.74291338583
21
2.10161417323
0
LINE
5
1E1
100
AcDbEntity
8
Reference
6
ByLayer
62
256
370
-1
100
AcDbLine
10
0.74291338583
20
2.10161417323
11
0.75751968504
21
2.10539370079
0
LINE
5
1E2
100
AcDbEntity
8
Reference
6
ByLayer
62
256
370
-1
100
AcDbLine
10
0.75751968504
20
2.10539370079
11
0.77248031496
21
2.10724409449
0
LINE
5
1E3
100
AcDbEntity
8
Reference
6
ByLayer
62
256
370
-1
100
AcDbLine
10
0.77248031496
20
2.10724409449
11
0.78
21
2.10724409449
0
LINE
5
1E4
100
AcDbEntity
8
Reference
6
ByLayer
62
256
370
-1
100
AcDbLine
10
0.78
20
2.10724409449
11
0.78
21
2.10748031496
0
LINE
5
1E5
100
AcDbEntity
8
Reference
6
ByLayer
62
256
370
-1
100
AcDbLine
10
0.93
20
2.10748031496
11
0.93
21
2.10724409449
0
LINE
5
1E6
100
AcDbEntity
8
Reference
6
ByLayer
62
256
370
-1
100
AcDbLine
10
0.93
20
2.10724409449
11
0.93751968504
21
2.10724409449
0
LINE
5
1E7
100
AcDbEntity
8
Reference
6
ByLayer
62
256
370
-1
100
AcDbLine
10
0.93751968504
20
2.10724409449
11
0.95248031496
21
2.10539370079
0
LINE
5
1E8
100
AcDbEntity
8
Reference
6
ByLayer
62
256
370
-1
100
AcDbLine
10
0.95248031496
20
2.10539370079
11
0.96708661417
21
2.10161417323
0
LINE
5
1E9
100
AcDbEntity
8
Reference
6
ByLayer
62
256
370
-1
100
AcDbLine
10
0.96708661417
20
2.10161417323
11
0.9811023622
21
2.09606299213
0
LINE
5
1EA
100
AcDbEntity
8
Reference
6
ByLayer
62
256
370
-1
100
AcDbLine
10
0.9811023622
20
2.09606299213
11
0.99429133858
21
2.08881889764
0
LINE
5
1EB
100
AcDbEntity
8
Reference
6
ByLayer
62
256
370
-1
100
AcDbLine
10
0.99429133858
20
2.08881889764
11
1.00649606299
21
2.07996062992
0
LINE
5
1EC
100
AcDbEntity
8
Reference
6
ByLayer
62
256
370
-1
100
AcDbLine
10
1.00649606299
20
2.07996062992
11
1.01748031496
21
2.06964566929
0
LINE
5
1ED
100
AcDbEntity
8
Reference
6
ByLayer
62
256
370
-1
100
AcDbLine
10
1.01748031496
20
2.06964566929
11
1.02708661417
21
2.05803149606
0
LINE
5
1EE
100
AcDbEntity
8
Reference
6
ByLayer
62
256
370
-1
100
AcDbLine
10
1.02708661417
20
2.05803149606
11
1.03515748031
21
2.04531496063
0
LINE
5
1EF
100
AcDbEntity
8
Reference
6
ByLayer
62
256
370
-1
100
AcDbLine
10
1.03515748031
20
2.04531496063
11
1.04157480315
21
2.03169291339
0
LINE
5
1F0
100
AcDbEntity
8
Reference
6
ByLayer
62
256
370
-1
100
AcDbLine
10
1.04157480315
20
2.03169291339
11
1.04622047244
21
2.01736220472
0
LINE
5
1F1
100
AcDbEntity
8
Reference
6
ByLayer
62
256
370
-1
100
AcDbLine
10
1.04622047244
20
2.01736220472
11
1.04905511811
21
2.00255905512
0
LINE
5
1F2
100
AcDbEntity
8
Reference
6
ByLayer
62
256
370
-1
100
AcDbLine
10
1.04905511811
20
2.00255905512
11
1.05
21
1.98751968504
0
LINE
5
1F3
100
AcDbEntity
8
Reference
6
ByLayer
62
256
370
-1
100
AcDbLine
10
1.05
20
1.98751968504
11
1.04905511811
21
1.97244094488
0
LINE
5
1F4
100
AcDbEntity
8
Reference
6
ByLayer
62
256
370
-1
100
AcDbLine
10
1.04905511811
20
1.97244094488
11
1.04622047244
21
1.95763779528
0
LINE
5
1F5
100
AcDbEntity
8
Reference
6
ByLayer
62
256
370
-1
100
AcDbLine
10
1.04622047244
20
1.95763779528
11
1.04157480315
21
1.94330708661
0
LINE
5
1F6
100
AcDbEntity
8
Reference
6
ByLayer
62
256
370
-1
100
AcDbLine
10
1.04157480315
20
1.94330708661
11
1.03515748031
21
1.92968503937
0
LINE
5
1F7
100
AcDbEntity
8
Reference
6
ByLayer
62
256
370
-1
100
AcDbLine
10
1.03515748031
20
1.92968503937
11
1.02708661417
21
1.91696850394
0
LINE
5
1F8
100
AcDbEntity
8
Reference
6
ByLayer
62
256
370
-1
100
AcDbLine
10
1.02708661417
20
1.91696850394
11
1.01748031496
21
1.90535433071
0
LINE
5
1F9
100
AcDbEntity
8
Reference
6
ByLayer
62
256
370
-1
100
AcDbLine
10
1.01748031496
20
1.90535433071
11
1.00649606299
21
1.89503937008
0
LINE
5
1FA
100
AcDbEntity
8
Reference
6
ByLayer
62
256
370
-1
100
AcDbLine
10
1.00649606299
20
1.89503937008
11
0.99429133858
21
1.88618110236
0
LINE
5
1FB
100
AcDbEntity
8
Reference
6
ByLayer
62
256
370
-1
100
AcDbLine
10
0.99429133858
20
1.88618110236
11
0.9811023622
21
1.87893700787
0
LINE
5
1FC
100
AcDbEntity
8
Reference
6
ByLayer
62
256
370
-1
100
AcDbLine
10
0.9811023622
20
1.87893700787
11
0.96708661417
21
1.87338582677
0
LINE
5
1FD
100
AcDbEntity
8
Reference
6
ByLayer
62
256
370
-1
100
AcDbLine
10
0.96708661417
20
1.87338582677
11
0.95248031496
21
1.86960629921
0
LINE
5
1FE
100
AcDbEntity
8
Reference
6
ByLayer
62
256
370
-1
100
AcDbLine
10
0.95248031496
20
1.86960629921
11
0.93751968504
21
1.86775590551
0
LINE
5
1FF
100
AcDbEntity
8
Reference
6
ByLayer
62
256
370
-1
100
AcDbLine
10
0.93751968504
20
1.86775590551
11
0.93
21
1.86775590551
0
LINE
5
200
100
AcDbEntity
8
Reference
6
ByLayer
62
256
370
-1
100
AcDbLine
10
0.93
20
1.86775590551
11
0.93
21
1.86751968504
0
LINE
5
201
100
AcDbEntity
8
Reference
6
ByLayer
62
256
370
-1
100
AcDbLine
10
0.93
20
1.86751968504
11
0.78
21
1.86751968504
0
LINE
5
202
100
AcDbEntity
8
Reference
6
ByLayer
62
256
370
-1
100
AcDbLine
10
0.78
20
1.86751968504
11
0.78
21
1.86775590551
0
LINE
5
203
100
AcDbEntity
8
Reference
6
ByLayer
62
256
370
-1
100
AcDbLine
10
0.78
20
1.86775590551
11
0.77248031496
21
1.86775590551
0
LINE
5
204
100
AcDbEntity
8
Reference
6
ByLayer
62
256
370
-1
100
AcDbLine
10
0.77248031496
20
1.86775590551
11
0.75751968504
21
1.86960629921
0
LINE
5
205
100
AcDbEntity
8
Reference
6
ByLayer
62
256
370
-1
100
AcDbLine
10
0.75751968504
20
1.86960629921
11
0.74291338583
21
1.87338582677
0
LINE
5
206
100
AcDbEntity
8
Reference
6
ByLayer
62
256
370
-1
100
AcDbLine
10
0.74291338583
20
1.87338582677
11
0.72889763779
21
1.87893700787
0
LINE
5
207
100
AcDbEntity
8
Reference
6
ByLayer
62
256
370
-1
100
AcDbLine
10
0.72889763779
20
1.87893700787
11
0.71570866142
21
1.88618110236
0
LINE
5
208
100
AcDbEntity
8
Reference
6
ByLayer
62
256
370
-1
100
AcDbLine
10
0.71570866142
20
1.88618110236
11
0.70350393701
21
1.89503937008
0
LINE
5
209
100
AcDbEntity
8
Reference
6
ByLayer
62
256
370
-1
100
AcDbLine
10
0.70350393701
20
1.89503937008
11
0.69251968504
21
1.90535433071
0
LINE
5
20A
100
AcDbEntity
8
Reference
6
ByLayer
62
256
370
-1
100
AcDbLine
10
0.69251968504
20
1.90535433071
11
0.68291338583
21
1.91696850394
0
LINE
5
20B
100
AcDbEntity
8
Reference
6
ByLayer
62
256
370
-1
100
AcDbLine
10
0.68291338583
20
1.91696850394
11
0.67484251968
21
1.92968503937
0
LINE
5
20C
100
AcDbEntity
8
Reference
6
ByLayer
62
256
370
-1
100
AcDbLine
10
0.67484251968
20
1.92968503937
11
0.66842519685
21
1.94330708661
0
LINE
5
20D
100
AcDbEntity
8
Reference
6
ByLayer
62
256
370
-1
100
AcDbLine
10
0.66842519685
20
1.94330708661
11
0.66377952756
21
1.95763779528
0
LINE
5
20E
100
AcDbEntity
8
Reference
6
ByLayer
62
256
370
-1
100
AcDbLine
10
0.66377952756
20
1.95763779528
11
0.66094488189
21
1.97244094488
0
LINE
5
20F
100
AcDbEntity
8
Reference
6
ByLayer
62
256
370
-1
100
AcDbLine
10
0.66094488189
20
1.97244094488
11
0.66
21
1.98751968504
0
LINE
5
210
100
AcDbEntity
8
Reference
6
ByLayer
62
256
370
-1
100
AcDbLine
10
18.97
20
0.75248031496
11
18.9709448819
21
0.76755905512
0
LINE
5
211
100
AcDbEntity
8
Reference
6
ByLayer
62
256
370
-1
100
AcDbLine
10
18.9709448819
20
0.76755905512
11
18.9737795276
21
0.78236220472
0
LINE
5
212
100
AcDbEntity
8
Reference
6
ByLayer
62
256
370
-1
100
AcDbLine
10
18.9737795276
20
0.78236220472
11
18.9784251969
21
0.79669291339
0
LINE
5
213
100
AcDbEntity
8
Reference
6
ByLayer
62
256
370
-1
100
AcDbLine
10
18.9784251969
20
0.79669291339
11
18.9848425197
21
0.81031496063
0
LINE
5
214
100
AcDbEntity
8
Reference
6
ByLayer
62
256
370
-1
100
AcDbLine
10
18.9848425197
20
0.81031496063
11
18.9929133858
21
0.82303149606
0
LINE
5
215
100
AcDbEntity
8
Reference
6
ByLayer
62
256
370
-1
100
AcDbLine
10
18.9929133858
20
0.82303149606
11
19.002519685
21
0.83464566929
0
LINE
5
216
100
AcDbEntity
8
Reference
6
ByLayer
62
256
370
-1
100
AcDbLine
10
19.002519685
20
0.83464566929
11
19.013503937
21
0.84496062992
0
LINE
5
217
100
AcDbEntity
8
Reference
6
ByLayer
62
256
370
-1
100
AcDbLine
10
19.013503937
20
0.84496062992
11
19.0257086614
21
0.85381889764
0
LINE
5
218
100
AcDbEntity
8
Reference
6
ByLayer
62
256
370
-1
100
AcDbLine
10
19.0257086614
20
0.85381889764
11
19.0388976378
21
0.86106299213
0
LINE
5
219
100
AcDbEntity
8
Reference
6
ByLayer
62
256
370
-1
100
AcDbLine
10
19.0388976378
20
0.86106299213
11
19.0529133858
21
0.86661417323
0
LINE
5
21A
100
AcDbEntity
8
Reference
6
ByLayer
62
256
370
-1
100
AcDbLine
10
19.0529133858
20
0.86661417323
11
19.067519685
21
0.87039370079
0
LINE
5
21B
100
AcDbEntity
8
Reference
6
ByLayer
62
256
370
-1
100
AcDbLine
10
19.067519685
20
0.87039370079
11
19.082480315
21
0.87224409449
0
LINE
5
21C
100
AcDbEntity
8
Reference
6
ByLayer
62
256
370
-1
100
AcDbLine
10
19.082480315
20
0.87224409449
11
19.09
21
0.87224409449
0
LINE
5
21D
100
AcDbEntity
8
Reference
6
ByLayer
62
256
370
-1
100
AcDbLine
10
19.09
20
0.87224409449
11
19.09
21
0.87248031496
0
LINE
5
21E
100
AcDbEntity
8
Reference
6
ByLayer
62
256
370
-1
100
AcDbLine
10
19.09
20
0.87248031496
11
19.24
21
0.87248031496
0
LINE
5
21F
100
AcDbEntity
8
Reference
6
ByLayer
62
256
370
-1
100
AcDbLine
10
19.24
20
0.87248031496
11
19.24
21
0.87224409449
0
LINE
5
220
100
AcDbEntity
8
Reference
6
ByLayer
62
256
370
-1
100
AcDbLine
10
19.24
20
0.87224409449
11
19.247519685
21
0.87224409449
0
LINE
5
221
100
AcDbEntity
8
Reference
6
ByLayer
62
256
370
-1
100
AcDbLine
10
19.247519685
20
0.87224409449
11
19.262480315
21
0.87039370079
0
LINE
5
222
100
AcDbEntity
8
Reference
6
ByLayer
62
256
370
-1
100
AcDbLine
10
19.262480315
20
0.87039370079
11
19.2770866142
21
0.86661417323
0
LINE
5
223
100
AcDbEntity
8
Reference
6
ByLayer
62
256
370
-1
100
AcDbLine
10
19.2770866142
20
0.86661417323
11
19.2911023622
21
0.86106299213
0
LINE
5
224
100
AcDbEntity
8
Reference
6
ByLayer
62
256
370
-1
100
AcDbLine
10
19.2911023622
20
0.86106299213
11
19.3042913386
21
0.85381889764
0
LINE
5
225
100
AcDbEntity
8
Reference
6
ByLayer
62
256
370
-1
100
AcDbLine
10
19.3042913386
20
0.85381889764
11
19.316496063
21
0.84496062992
0
LINE
5
226
100
AcDbEntity
8
Reference
6
ByLayer
62
256
370
-1
100
AcDbLine
10
19.316496063
20
0.84496062992
11
19.327480315
21
0.83464566929
0
LINE
5
227
100
AcDbEntity
8
Reference
6
ByLayer
62
256
370
-1
100
AcDbLine
10
19.327480315
20
0.83464566929
11
19.3370866142
21
0.82303149606
0
LINE
5
228
100
AcDbEntity
8
Reference
6
ByLayer
62
256
370
-1
100
AcDbLine
10
19.3370866142
20
0.82303149606
11
19.3451574803
21
0.81031496063
0
LINE
5
229
100
AcDbEntity
8
Reference
6
ByLayer
62
256
370
-1
100
AcDbLine
10
19.3451574803
20
0.81031496063
11
19.3515748031
21
0.79669291339
0
LINE
5
22A
100
AcDbEntity
8
Reference
6
ByLayer
62
256
370
-1
100
AcDbLine
10
19.3515748031
20
0.79669291339
11
19.3562204724
21
0.78236220472
0
LINE
5
22B
100
AcDbEntity
8
Reference
6
ByLayer
62
256
370
-1
100
AcDbLine
10
19.3562204724
20
0.78236220472
11
19.3590551181
21
0.76755905512
0
LINE
5
22C
100
AcDbEntity
8
Reference
6
ByLayer
62
256
370
-1
100
AcDbLine
10
19.3590551181
20
0.76755905512
11
19.36
21
0.75248031496
0
LINE
5
22D
100
AcDbEntity
8
Reference
6
ByLayer
62
256
370
-1
100
AcDbLine
10
19.36
20
0.75248031496
11
19.3590551181
21
0.73744094488
0
LINE
5
22E
100
AcDbEntity
8
Reference
6
ByLayer
62
256
370
-1
100
AcDbLine
10
19.3590551181
20
0.73744094488
11
19.3562204724
21
0.72263779528
0
LINE
5
22F
100
AcDbEntity
8
Reference
6
ByLayer
62
256
370
-1
100
AcDbLine
10
19.3562204724
20
0.72263779528
11
19.3515748031
21
0.70830708661
0
LINE
5
230
100
AcDbEntity
8
Reference
6
ByLayer
62
256
370
-1
100
AcDbLine
10
19.3515748031
20
0.70830708661
11
19.3451574803
21
0.69468503937
0
LINE
5
231
100
AcDbEntity
8
Reference
6
ByLayer
62
256
370
-1
100
AcDbLine
10
19.3451574803
20
0.69468503937
11
19.3370866142
21
0.68196850394
0
LINE
5
232
100
AcDbEntity
8
Reference
6
ByLayer
62
256
370
-1
100
AcDbLine
10
19.3370866142
20
0.68196850394
11
19.327480315
21
0.67035433071
0
LINE
5
233
100
AcDbEntity
8
Reference
6
ByLayer
62
256
370
-1
100
AcDbLine
10
19.327480315
20
0.67035433071
11
19.316496063
21
0.66003937008
0
LINE
5
234
100
AcDbEntity
8
Reference
6
ByLayer
62
256
370
-1
100
AcDbLine
10
19.316496063
20
0.66003937008
11
19.3042913386
21
0.65118110236
0
LINE
5
235
100
AcDbEntity
8
Reference
6
ByLayer
62
256
370
-1
100
AcDbLine
10
19.3042913386
20
0.65118110236
11
19.2911023622
21
0.64393700787
0
LINE
5
236
100
AcDbEntity
8
Reference
6
ByLayer
62
256
370
-1
100
AcDbLine
10
19.2911023622
20
0.64393700787
11
19.2770866142
21
0.63838582677
0
LINE
5
237
100
AcDbEntity
8
Reference
6
ByLayer
62
256
370
-1
100
AcDbLine
10
19.2770866142
20
0.63838582677
11
19.262480315
21
0.63460629921
0
LINE
5
238
100
AcDbEntity
8
Reference
6
ByLayer
62
256
370
-1
100
AcDbLine
10
19.262480315
20
0.63460629921
11
19.247519685
21
0.63275590551
0
LINE
5
239
100
AcDbEntity
8
Reference
6
ByLayer
62
256
370
-1
100
AcDbLine
10
19.247519685
20
0.63275590551
11
19.24
21
0.63275590551
0
LINE
5
23A
100
AcDbEntity
8
Reference
6
ByLayer
62
256
370
-1
100
AcDbLine
10
19.24
20
0.63275590551
11
19.24
21
0.63251968504
0
LINE
5
23B
100
AcDbEntity
8
Reference
6
ByLayer
62
256
370
-1
100
AcDbLine
10
19.24
20
0.63251968504
11
19.09
21
0.63251968504
0
LINE
5
23C
100
AcDbEntity
8
Reference
6
ByLayer
62
256
370
-1
100
AcDbLine
10
19.09
20
0.63251968504
11
19.09
21
0.63275590551
0
LINE
5
23D
100
AcDbEntity
8
Reference
6
ByLayer
62
256
370
-1
100
AcDbLine
10
19.09
20
0.63275590551
11
19.082480315
21
0.63275590551
0
LINE
5
23E
100
AcDbEntity
8
Reference
6
ByLayer
62
256
370
-1
100
AcDbLine
10
19.082480315
20
0.63275590551
11
19.067519685
21
0.63460629921
0
LINE
5
23F
100
AcDbEntity
8
Reference
6
ByLayer
62
256
370
-1
100
AcDbLine
10
19.067519685
20
0.63460629921
11
19.0529133858
21
0.63838582677
0
LINE
5
240
100
AcDbEntity
8
Reference
6
ByLayer
62
256
370
-1
100
AcDbLine
10
19.0529133858
20
0.63838582677
11
19.0388976378
21
0.64393700787
0
LINE
5
241
100
AcDbEntity
8
Reference
6
ByLayer
62
256
370
-1
100
AcDbLine
10
19.0388976378
20
0.64393700787
11
19.0257086614
21
0.65118110236
0
LINE
5
242
100
AcDbEntity
8
Reference
6
ByLayer
62
256
370
-1
100
AcDbLine
10
19.0257086614
20
0.65118110236
11
19.013503937
21
0.66003937008
0
LINE
5
243
100
AcDbEntity
8
Reference
6
ByLayer
62
256
370
-1
100
AcDbLine
10
19.013503937
20
0.66003937008
11
19.002519685
21
0.67035433071
0
LINE
5
244
100
AcDbEntity
8
Reference
6
ByLayer
62
256
370
-1
100
AcDbLine
10
19.002519685
20
0.67035433071
11
18.9929133858
21
0.68196850394
0
LINE
5
245
100
AcDbEntity
8
Reference
6
ByLayer
62
256
370
-1
100
AcDbLine
10
18.9929133858
20
0.68196850394
11
18.9848425197
21
0.69468503937
0
LINE
5
246
100
AcDbEntity
8
Reference
6
ByLayer
62
256
370
-1
100
AcDbLine
10
18.9848425197
20
0.69468503937
11
18.9784251969
21
0.70830708661
0
LINE
5
247
100
AcDbEntity
8
Reference
6
ByLayer
62
256
370
-1
100
AcDbLine
10
18.9784251969
20
0.70830708661
11
18.9737795276
21
0.72263779528
0
LINE
5
248
100
AcDbEntity
8
Reference
6
ByLayer
62
256
370
-1
100
AcDbLine
10
18.9737795276
20
0.72263779528
11
18.9709448819
21
0.73744094488
0
LINE
5
249
100
AcDbEntity
8
Reference
6
ByLayer
62
256
370
-1
100
AcDbLine
10
18.9709448819
20
0.73744094488
11
18.97
21
0.75248031496
0
LINE
5
24A
100
AcDbEntity
8
Reference
6
ByLayer
62
256
370
-1
100
AcDbLine
10
18.97
20
1.98751968504
11
18.9709448819
21
2.00255905512
0
LINE
5
24B
100
AcDbEntity
8
Reference
6
ByLayer
62
256
370
-1
100
AcDbLine
10
18.9709448819
20
2.00255905512
11
18.9737795276
21
2.01736220472
0
LINE
5
24C
100
AcDbEntity
8
Reference
6
ByLayer
62
256
370
-1
100
AcDbLine
10
18.9737795276
20
2.01736220472
11
18.9784251969
21
2.03169291339
0
LINE
5
24D
100
AcDbEntity
8
Reference
6
ByLayer
62
256
370
-1
100
AcDbLine
10
18.9784251969
20
2.03169291339
11
18.9848425197
21
2.04531496063
0
LINE
5
24E
100
AcDbEntity
8
Reference
6
ByLayer
62
256
370
-1
100
AcDbLine
10
18.9848425197
20
2.04531496063
11
18.9929133858
21
2.05803149606
0
LINE
5
24F
100
AcDbEntity
8
Reference
6
ByLayer
62
256
370
-1
100
AcDbLine
10
18.9929133858
20
2.05803149606
11
19.002519685
21
2.06964566929
0
LINE
5
250
100
AcDbEntity
8
Reference
6
ByLayer
62
256
370
-1
100
AcDbLine
10
19.002519685
20
2.06964566929
11
19.013503937
21
2.07996062992
0
LINE
5
251
100
AcDbEntity
8
Reference
6
ByLayer
62
256
370
-1
100
AcDbLine
10
19.013503937
20
2.07996062992
11
19.0257086614
21
2.08881889764
0
LINE
5
252
100
AcDbEntity
8
Reference
6
ByLayer
62
256
370
-1
100
AcDbLine
10
19.0257086614
20
2.08881889764
11
19.0388976378
21
2.09606299213
0
LINE
5
253
100
AcDbEntity
8
Reference
6
ByLayer
62
256
370
-1
100
AcDbLine
10
19.0388976378
20
2.09606299213
11
19.0529133858
21
2.10161417323
0
LINE
5
254
100
AcDbEntity
8
Reference
6
ByLayer
62
256
370
-1
100
AcDbLine
10
19.0529133858
20
2.10161417323
11
19.067519685
21
2.10539370079
0
LINE
5
255
100
AcDbEntity
8
Reference
6
ByLayer
62
256
370
-1
100
AcDbLine
10
19.067519685
20
2.10539370079
11
19.082480315
21
2.10724409449
0
LINE
5
256
100
AcDbEntity
8
Reference
6
ByLayer
62
256
370
-1
100
AcDbLine
10
19.082480315
20
2.10724409449
11
19.09
21
2.10724409449
0
LINE
5
257
100
AcDbEntity
8
Reference
6
ByLayer
62
256
370
-1
100
AcDbLine
10
19.09
20
2.10724409449
11
19.09
21
2.10748031496
0
LINE
5
258
100
AcDbEntity
8
Reference
6
ByLayer
62
256
370
-1
100
AcDbLine
10
19.09
20
2.10748031496
11
19.24
21
2.10748031496
0
LINE
5
259
100
AcDbEntity
8
Reference
6
ByLayer
62
256
370
-1
100
AcDbLine
10
19.24
20
2.10748031496
11
19.24
21
2.10724409449
0
LINE
5
25A
100
AcDbEntity
8
Reference
6
ByLayer
62
256
370
-1
100
AcDbLine
10
19.24
20
2.10724409449
11
19.247519685
21
2.10724409449
0
LINE
5
25B
100
AcDbEntity
8
Reference
6
ByLayer
62
256
370
-1
100
AcDbLine
10
19.247519685
20
2.10724409449
11
19.262480315
21
2.10539370079
0
LINE
5
25C
100
AcDbEntity
8
Reference
6
ByLayer
62
256
370
-1
100
AcDbLine
10
19.262480315
20
2.10539370079
11
19.2770866142
21
2.10161417323
0
LINE
5
25D
100
AcDbEntity
8
Reference
6
ByLayer
62
256
370
-1
100
AcDbLine
10
19.2770866142
20
2.10161417323
11
19.2911023622
21
2.09606299213
0
LINE
5
25E
100
AcDbEntity
8
Reference
6
ByLayer
62
256
370
-1
100
AcDbLine
10
19.2911023622
20
2.09606299213
11
19.3042913386
21
2.08881889764
0
LINE
5
25F
100
AcDbEntity
8
Reference
6
ByLayer
62
256
370
-1
100
AcDbLine
10
19.3042913386
20
2.08881889764
11
19.316496063
21
2.07996062992
0
LINE
5
260
100
AcDbEntity
8
Reference
6
ByLayer
62
256
370
-1
100
AcDbLine
10
19.316496063
20
2.07996062992
11
19.327480315
21
2.06964566929
0
LINE
5
261
100
AcDbEntity
8
Reference
6
ByLayer
62
256
370
-1
100
AcDbLine
10
19.327480315
20
2.06964566929
11
19.3370866142
21
2.05803149606
0
LINE
5
262
100
AcDbEntity
8
Reference
6
ByLayer
62
256
370
-1
100
AcDbLine
10
19.3370866142
20
2.05803149606
11
19.3451574803
21
2.04531496063
0
LINE
5
263
100
AcDbEntity
8
Reference
6
ByLayer
62
256
370
-1
100
AcDbLine
10
19.3451574803
20
2.04531496063
11
19.3515748031
21
2.03169291339
0
LINE
5
264
100
AcDbEntity
8
Reference
6
ByLayer
62
256
370
-1
100
AcDbLine
10
19.3515748031
20
2.03169291339
11
19.3562204724
21
2.01736220472
0
LINE
5
265
100
AcDbEntity
8
Reference
6
ByLayer
62
256
370
-1
100
AcDbLine
10
19.3562204724
20
2.01736220472
11
19.3590551181
21
2.00255905512
0
LINE
5
266
100
AcDbEntity
8
Reference
6
ByLayer
62
256
370
-1
100
AcDbLine
10
19.3590551181
20
2.00255905512
11
19.36
21
1.98751968504
0
LINE
5
267
100
AcDbEntity
8
Reference
6
ByLayer
62
256
370
-1
100
AcDbLine
10
19.36
20
1.98751968504
11
19.3590551181
21
1.97244094488
0
LINE
5
268
100
AcDbEntity
8
Reference
6
ByLayer
62
256
370
-1
100
AcDbLine
10
19.3590551181
20
1.97244094488
11
19.3562204724
21
1.95763779528
0
LINE
5
269
100
AcDbEntity
8
Reference
6
ByLayer
62
256
370
-1
100
AcDbLine
10
19.3562204724
20
1.95763779528
11
19.3515748031
21
1.94330708661
0
LINE
5
26A
100
AcDbEntity
8
Reference
6
ByLayer
62
256
370
-1
100
AcDbLine
10
19.3515748031
20
1.94330708661
11
19.3451574803
21
1.92968503937
0
LINE
5
26B
100
AcDbEntity
8
Reference
6
ByLayer
62
256
370
-1
100
AcDbLine
10
19.3451574803
20
1.92968503937
11
19.3370866142
21
1.91696850394
0
LINE
5
26C
100
AcDbEntity
8
Reference
6
ByLayer
62
256
370
-1
100
AcDbLine
10
19.3370866142
20
1.91696850394
11
19.327480315
21
1.90535433071
0
LINE
5
26D
100
AcDbEntity
8
Reference
6
ByLayer
62
256
370
-1
100
AcDbLine
10
19.327480315
20
1.90535433071
11
19.316496063
21
1.89503937008
0
LINE
5
26E
100
AcDbEntity
8
Reference
6
ByLayer
62
256
370
-1
100
AcDbLine
10
19.316496063
20
1.89503937008
11
19.3042913386
21
1.88618110236
0
LINE
5
26F
100
AcDbEntity
8
Reference
6
ByLayer
62
256
370
-1
100
AcDbLine
10
19.3042913386
20
1.88618110236
11
19.2911023622
21
1.87893700787
0
LINE
5
270
100
AcDbEntity
8
Reference
6
ByLayer
62
256
370
-1
100
AcDbLine
10
19.2911023622
20
1.87893700787
11
19.2770866142
21
1.87338582677
0
LINE
5
271
100
AcDbEntity
8
Reference
6
ByLayer
62
256
370
-1
100
AcDbLine
10
19.2770866142
20
1.87338582677
11
19.262480315
21
1.86960629921
0
LINE
5
272
100
AcDbEntity
8
Reference
6
ByLayer
62
256
370
-1
100
AcDbLine
10
19.262480315
20
1.86960629921
11
19.247519685
21
1.86775590551
0
LINE
5
273
100
AcDbEntity
8
Reference
6
ByLayer
62
256
370
-1
100
AcDbLine
10
19.247519685
20
1.86775590551
11
19.24
21
1.86775590551
0
LINE
5
274
100
AcDbEntity
8
Reference
6
ByLayer
62
256
370
-1
100
AcDbLine
10
19.24
20
1.86775590551
11
19.24
21
1.86751968504
0
LINE
5
275
100
AcDbEntity
8
Reference
6
ByLayer
62
256
370
-1
100
AcDbLine
10
19.24
20
1.86751968504
11
19.09
21
1.86751968504
0
LINE
5
276
100
AcDbEntity
8
Reference
6
ByLayer
62
256
370
-1
100
AcDbLine
10
19.09
20
1.86751968504
11
19.09
21
1.86775590551
0
LINE
5
277
100
AcDbEntity
8
Reference
6
ByLayer
62
256
370
-1
100
AcDbLine
10
19.09
20
1.86775590551
11
19.082480315
21
1.86775590551
0
LINE
5
278
100
AcDbEntity
8
Reference
6
ByLayer
62
256
370
-1
100
AcDbLine
10
19.082480315
20
1.86775590551
11
19.067519685
21
1.86960629921
0
LINE
5
279
100
AcDbEntity
8
Reference
6
ByLayer
62
256
370
-1
100
AcDbLine
10
19.067519685
20
1.86960629921
11
19.0529133858
21
1.87338582677
0
LINE
5
27A
100
AcDbEntity
8
Reference
6
ByLayer
62
256
370
-1
100
AcDbLine
10
19.0529133858
20
1.87338582677
11
19.0388976378
21
1.87893700787
0
LINE
5
27B
100
AcDbEntity
8
Reference
6
ByLayer
62
256
370
-1
100
AcDbLine
10
19.0388976378
20
1.87893700787
11
19.0257086614
21
1.88618110236
0
LINE
5
27C
100
AcDbEntity
8
Reference
6
ByLayer
62
256
370
-1
100
AcDbLine
10
19.0257086614
20
1.88618110236
11
19.013503937
21
1.89503937008
0
LINE
5
27D
100
AcDbEntity
8
Reference
6
ByLayer
62
256
370
-1
100
AcDbLine
10
19.013503937
20
1.89503937008
11
19.002519685
21
1.90535433071
0
LINE
5
27E
100
AcDbEntity
8
Reference
6
ByLayer
62
256
370
-1
100
AcDbLine
10
19.002519685
20
1.90535433071
11
18.9929133858
21
1.91696850394
0
LINE
5
27F
100
AcDbEntity
8
Reference
6
ByLayer
62
256
370
-1
100
AcDbLine
10
18.9929133858
20
1.91696850394
11
18.9848425197
21
1.92968503937
0
LINE
5
280
100
AcDbEntity
8
Reference
6
ByLayer
62
256
370
-1
100
AcDbLine
10
18.9848425197
20
1.92968503937
11
18.9784251969
21
1.94330708661
0
LINE
5
281
100
AcDbEntity
8
Reference
6
ByLayer
62
256
370
-1
100
AcDbLine
10
18.9784251969
20
1.94330708661
11
18.9737795276
21
1.95763779528
0
LINE
5
282
100
AcDbEntity
8
Reference
6
ByLayer
62
256
370
-1
100
AcDbLine
10
18.9737795276
20
1.95763779528
11
18.9709448819
21
1.97244094488
0
LINE
5
283
100
AcDbEntity
8
Reference
6
ByLayer
62
256
370
-1
100
AcDbLine
10
18.9709448819
20
1.97244094488
11
18.97
21
1.98751968504
0
LINE
5
284
100
AcDbEntity
8
Reference
6
ByLayer
62
256
370
-1
100
AcDbLine
10
0.78
20
2.10748031496
11
0.93
21
2.10748031496
0
LINE
5
285
100
AcDbEntity
8
Boundary
6
ByLayer
62
256
370
-1
100
AcDbLine
10
0.5
20
0.5
11
0.5
21
2.24
0
LINE
5
286
100
AcDbEntity
8
Boundary
6
ByLayer
62
256
370
-1
100
AcDbLine
10
0.5
20
2.24
11
19.52
21
2.24
0
LINE
5
287
100
AcDbEntity
8
Boundary
6
ByLayer
62
256
370
-1
100
AcDbLine
10
19.52
20
2.24
11
19.52
21
0.5
0
LINE
5
288
100
AcDbEntity
8
Boundary
6
ByLayer
62
256
370
-1
100
AcDbLine
10
19.52
20
0.5
11
0.5
21
0.5
0
LINE
5
289
100
AcDbEntity
8
Cutout
6
ByLayer
62
256
370
-1
100
AcDbLine
10
10.47
20
0.70748031496
11
10.47
21
2.03251968504
0
LINE
5
28A
100
AcDbEntity
8
Cutout
6
ByLayer
62
256
370
-1
100
AcDbLine
10
10.47
20
2.03251968504
11
10.97
21
2.03251968504
0
LINE
5
28B
100
AcDbEntity
8
Cutout
6
ByLayer
62
256
370
-1
100
AcDbLine
10
10.97
20
2.03251968504
11
10.97
21
0.70748031496
0
LINE
5
28C
100
AcDbEntity
8
Cutout
6
ByLayer
62
256
370
-1
100
AcDbLine
10
10.97
20
0.70748031496
11
10.47
21
0.70748031496
0
LINE
5
28D
100
AcDbEntity
8
Cutout
6
ByLayer
62
256
370
-1
100
AcDbLine
10
11.9377559055
20
1.06196850394
11
11.9377559055
21
1.35133858268
0
LINE
5
28E
100
AcDbEntity
8
Cutout
6
ByLayer
62
256
370
-1
100
AcDbLine
10
11.9377559055
20
1.35133858268
11
12.3822440945
21
1.35133858268
0
LINE
5
28F
100
AcDbEntity
8
Cutout
6
ByLayer
62
256
370
-1
100
AcDbLine
10
12.3822440945
20
1.35133858268
11
12.3822440945
21
1.06196850394
0
LINE
5
290
100
AcDbEntity
8
Cutout
6
ByLayer
62
256
370
-1
100
AcDbLine
10
12.3822440945
20
1.06196850394
11
11.9377559055
21
1.06196850394
0
LINE
5
291
100
AcDbEntity
8
Cutout
6
ByLayer
62
256
370
-1
100
AcDbLine
10
12.5404724409
20
1.01866141732
11
12.5404724409
21
1.53834645669
0
LINE
5
292
100
AcDbEntity
8
Cutout
6
ByLayer
62
256
370
-1
100
AcDbLine
10
12.5404724409
20
1.53834645669
11
13.0995275591
21
1.53834645669
0
LINE
5
293
100
AcDbEntity
8
Cutout
6
ByLayer
62
256
370
-1
100
AcDbLine
10
13.0995275591
20
1.53834645669
11
13.0995275591
21
1.01866141732
0
LINE
5
294
100
AcDbEntity
8
Cutout
6
ByLayer
62
256
370
-1
100
AcDbLine
10
13.0995275591
20
1.01866141732
11
12.5404724409
21
1.01866141732
0
LINE
5
295
100
AcDbEntity
8
Cutout
6
ByLayer
62
256
370
-1
100
AcDbLine
10
13.4654724409
20
1.01866141732
11
13.4654724409
21
1.5974015748
0
LINE
5
296
100
AcDbEntity
8
Cutout
6
ByLayer
62
256
370
-1
100
AcDbLine
10
13.4654724409
20
1.5974015748
11
14.7725590551
21
1.5974015748
0
LINE
5
297
100
AcDbEntity
8
Cutout
6
ByLayer
62
256
370
-1
100
AcDbLine
10
14.7725590551
20
1.5974015748
11
14.7725590551
21
1.01866141732
0
LINE
5
298
100
AcDbEntity
8
Cutout
6
ByLayer
62
256
370
-1
100
AcDbLine
10
14.7725590551
20
1.01866141732
11
13.4654724409
21
1.01866141732
0
LINE
5
299
100
AcDbEntity
8
Cutout
6
ByLayer
62
256
370
-1
100
AcDbLine
10
16.6357086614
20
1.06196850394
11
16.6357086614
21
1.35133858268
0
LINE
5
29A
100
AcDbEntity
8
Cutout
6
ByLayer
62
256
370
-1
100
AcDbLine
10
16.6357086614
20
1.35133858268
11
17.5242913386
21
1.35133858268
0
LINE
5
29B
100
AcDbEntity
8
Cutout
6
ByLayer
62
256
370
-1
100
AcDbLine
10
17.5242913386
20
1.35133858268
11
17.5242913386
21
1.06196850394
0
LINE
5
29C
100
AcDbEntity
8
Cutout
6
ByLayer
62
256
370
-1
100
AcDbLine
10
17.5242913386
20
1.06196850394
11
16.6357086614
21
1.06196850394
0
LINE
5
29D
100
AcDbEntity
8
Cutout
6
ByLayer
62
256
370
-1
100
AcDbLine
10
17.7788976378
20
1.09834645669
11
17.7788976378
21
1.64165354331
0
LINE
5
29E
100
AcDbEntity
8
Cutout
6
ByLayer
62
256
370
-1
100
AcDbLine
10
17.7788976378
20
1.64165354331
11
18.1411023622
21
1.64165354331
0
LINE
5
29F
100
AcDbEntity
8
Cutout
6
ByLayer
62
256
370
-1
100
AcDbLine
10
18.1411023622
20
1.64165354331
11
18.1411023622
21
1.09834645669
0
LINE
5
2A0
100
AcDbEntity
8
Cutout
6
ByLayer
62
256
370
-1
100
AcDbLine
10
18.1411023622
20
1.09834645669
11
17.7788976378
21
1.09834645669
0
LINE
5
2A1
100
AcDbEntity
8
tmp
6
ByLayer
62
256
370
-1
100
AcDbLine
10
16.474488189
20
1.22732283465
11
16.474488189
21
1.01866141732
0
LINE
5
2A2
100
AcDbEntity
8
tmp
6
ByLayer
62
256
370
-1
100
AcDbLine
10
16.474488189
20
1.01866141732
11
15.285511811
21
1.01866141732
0
LINE
5
2A3
100
AcDbEntity
8
tmp
6
ByLayer
62
256
370
-1
100
AcDbLine
10
15.285511811
20
1.01866141732
11
15.285511811
21
1.22732283465
0
LINE
5
2A4
100
AcDbEntity
8
tmp
6
ByLayer
62
256
370
-1
100
AcDbLine
10
15.285511811
20
1.22732283465
11
16.474488189
21
1.22732283465
0
LINE
5
2A5
100
AcDbEntity
8
Cutout
6
ByLayer
62
256
370
-1
100
AcDbLine
10
11.4862
20
1.35134
11
11.4862
21
1.06197
0
LINE
5
2A6
100
AcDbEntity
8
Cutout
6
ByLayer
62
256
370
-1
100
AcDbLine
10
11.2338
20
1.06197
11
11.2338
21
1.35134
0
LINE
5
2A7
100
AcDbEntity
8
Cutout
6
ByLayer
62
256
370
-1
100
AcDbLine
10
11.4862
20
1.06197
11
11.2338
21
1.06197
0
LINE
5
2A8
100
AcDbEntity
8
Cutout
6
ByLayer
62
256
370
-1
100
AcDbLine
10
11.2338
20
1.35134
11
11.4862
21
1.35134
0
LINE
5
2A9
100
AcDbEntity
8
Cutout
6
ByLayer
62
256
370
-1
100
AcDbLine
10
15.28
20
0.99
11
15.28
21
1.26
0
LINE
5
2AA
100
AcDbEntity
8
Cutout
6
ByLayer
62
256
370
-1
100
AcDbLine
10
16.48
20
1.26
11
16.48
21
0.99
0
LINE
5
2AB
100
AcDbEntity
8
Cutout
6
ByLayer
62
256
370
-1
100
AcDbLine
10
15.28
20
1.26
11
16.48
21
1.26
0
LINE
5
2AC
100
AcDbEntity
8
Cutout
6
ByLayer
62
256
370
-1
100
AcDbLine
10
16.48
20
0.99
11
15.28
21
0.99
0
MTEXT
5
2AD
100
AcDbEntity
8
Engrave
6
ByLayer
62
256
370
-1
100
AcDbMText
10
2.41
20
1.89
30
0
40
0.15
41
0.466666666667
71
1
72
1
1
ADC0
7
iso
210
0
220
0
230
1
50
0
73
2
44
1
0
MTEXT
5
2AE
100
AcDbEntity
8
Engrave
6
ByLayer
62
256
370
-1
100
AcDbMText
10
3.21
20
1.89
30
0
40
0.15
41
0.433333333333
71
1
72
1
1
ADC1
7
iso
210
0
220
0
230
1
50
0
73
2
44
1
0
MTEXT
5
2AF
100
AcDbEntity
8
Engrave
6
ByLayer
62
256
370
-1
100
AcDbMText
10
3.98
20
1.89
30
0
40
0.15
41
0.466666666667
71
1
72
1
1
ADC2
7
iso
210
0
220
0
230
1
50
0
73
2
44
1
0
MTEXT
5
2B0
100
AcDbEntity
8
Engrave
6
ByLayer
62
256
370
-1
100
AcDbMText
10
5.595
20
1.89
30
0
40
0.15
41
0.466666666667
71
1
72
1
1
DAC0
7
iso
210
0
220
0
230
1
50
0
73
2
44
1
0
MTEXT
5
2B1
100
AcDbEntity
8
Engrave
6
ByLayer
62
256
370
-1
100
AcDbMText
10
6.41
20
1.89
30
0
40
0.15
41
0.433333333333
71
1
72
1
1
DAC1
7
iso
210
0
220
0
230
1
50
0
73
2
44
1
0
MTEXT
5
2B2
100
AcDbEntity
8
Engrave
6
ByLayer
62
256
370
-1
100
AcDbMText
10
7.21
20
1.89
30
0
40
0.15
41
0.466666666667
71
1
72
1
1
DAC2
7
iso
210
0
220
0
230
1
50
0
73
2
44
1
0
MTEXT
5
2B3
100
AcDbEntity
8
Engrave
6
ByLayer
62
256
370
-1
100
AcDbMText
10
8.03
20
1.89
30
0
40
0.15
41
0.466666666667
71
1
72
1
1
DAC3
7
iso
210
0
220
0
230
1
50
0
73
2
44
1
0
MTEXT
5
2B4
100
AcDbEntity
8
Engrave
6
ByLayer
62
256
370
-1
100
AcDbMText
10
8.85
20
1.89
30
0
40
0.15
41
0.383333333333
71
1
72
1
1
INT0
7
iso
210
0
220
0
230
1
50
0
73
2
44
1
0
MTEXT
5
2B5
100
AcDbEntity
8
Engrave
6
ByLayer
62
256
370
-1
100
AcDbMText
10
9.67
20
1.89
30
0
40
0.15
41
0.35
71
1
72
1
1
INT1
7
iso
210
0
220
0
230
1
50
0
73
2
44
1
0
MTEXT
5
2B6
100
AcDbEntity
8
Engrave
6
ByLayer
62
256
370
-1
100
AcDbMText
10
11.21
20
1.59
30
0
40
0.15
41
0.4
71
1
72
1
1
PWR
7
iso
210
0
220
0
230
1
50
0
73
2
44
1
0
MTEXT
5
2B7
100
AcDbEntity
8
Engrave
6
ByLayer
62
256
370
-1
100
AcDbMText
10
12.67
20
1.75
30
0
40
0.15
41
0.3499999682
71
1
72
1
1
USB
7
iso
210
0
220
0
230
1
50
0
73
2
44
1
0
MTEXT
5
2B8
100
AcDbEntity
8
Engrave
6
ByLayer
62
256
370
-1
100
AcDbMText
10
14
20
1.84
30
0
40
0.15
41
0.233333333333
71
1
72
1
1
I2C
7
iso
210
0
220
0
230
1
50
0
73
2
44
1
0
MTEXT
5
2B9
100
AcDbEntity
8
Engrave
6
ByLayer
62
256
370
-1
100
AcDbMText
10
15.5
20
1.495
30
0
40
0.15
41
0.779166634866
71
1
72
1
1
SD Card
7
iso
210
0
220
0
230
1
50
0
73
2
44
1
0
MTEXT
5
2BA
100
AcDbEntity
8
Engrave
6
ByLayer
62
256
370
-1
100
AcDbMText
10
16.8
20
1.59
30
0
40
0.15
41
0.633333378676
71
1
72
1
1
Status
7
iso
210
0
220
0
230
1
50
0
73
2
44
1
0
MTEXT
5
2BB
100
AcDbEntity
8
Engrave
6
ByLayer
62
256
370
-1
100
AcDbMText
10
4.82
20
1.88
30
0
40
0.15
41
0.466666666667
71
1
72
1
1
ADC3
7
iso
210
0
220
0
230
1
50
0
73
2
44
1
0
LINE
5
2BC
100
AcDbEntity
8
Laser Fixture Pocket
6
ByLayer
62
256
370
-1
100
AcDbLine
10
2.1975
20
0.62
11
17.8225
21
0.62
0
LINE
5
2BD
100
AcDbEntity
8
Laser Fixture Pocket
6
ByLayer
62
256
370
-1
100
AcDbLine
10
17.8225
20
0.62
11
17.8225
21
2.12
0
LINE
5
2BE
100
AcDbEntity
8
Laser Fixture Pocket
6
ByLayer
62
256
370
-1
100
AcDbLine
10
17.8225
20
2.12
11
2.1975
21
2.12
0
LINE
5
2BF
100
AcDbEntity
8
Laser Fixture Pocket
6
ByLayer
62
256
370
-1
100
AcDbLine
10
2.1975
20
2.12
11
2.1975
21
0.62
0
LINE
5
2C0
100
AcDbEntity
8
adjustment
6
ByLayer
62
256
370
-1
100
AcDbLine
10
17.8225
20
0.62
11
17.8225
21
2.12
0
LINE
5
2C1
100
AcDbEntity
8
adjustment
6
ByLayer
62
256
370
-1
100
AcDbLine
10
17.8225
20
0.62
11
17.8725
21
0.62
0
LINE
5
2C2
100
AcDbEntity
8
adjustment
6
ByLayer
62
256
370
-1
100
AcDbLine
10
17.8225
20
2.12
11
17.8725
21
2.12
0
LINE
5
2C3
100
AcDbEntity
8
adjustment
6
ByLayer
62
256
370
-1
100
AcDbLine
10
17.8725
20
2.12
11
17.8725
21
0.62
0
ENDSEC
0
SECTION
2
OBJECTS
0
DICTIONARY
5
C
330
0
100
AcDbDictionary
281
1
3
ACAD_GROUP
350
D
0
DICTIONARY
5
D
330
C
100
AcDbDictionary
281
1
0
ENDSEC
0
EOF
