999
dxfrw 0.5.11
0
SECTION
2
HEADER
9
$ACADVER
1
AC1021
9
$HANDSEED
5
20000
9
$DWGCODEPAGE
3
ANSI_1252
9
$INSBASE
10
0
20
0
30
0
9
$EXTMIN
10
-0.5
20
-0.5
30
0
9
$EXTMAX
10
40.5
20
19.5
30
0
9
$LIMMIN
10
0
20
0
9
$LIMMAX
10
420
20
297
9
$ORTHOMODE
70
0
9
$LTSCALE
40
1
9
$TEXTSTYLE
7
STANDARD
9
$CLAYER
8
engrave
9
$DIMASZ
40
0.1
9
$DIMLFAC
40
1
9
$DIMSCALE
40
1
9
$DIMEXO
40
0.025
9
$DIMEXE
40
0.05
9
$DIMTXT
40
0.1
9
$DIMTSZ
40
0
9
$DIMAUNIT
70
0
9
$DIMADEC
70
2
9
$DIMLUNIT
70
2
9
$DIMSTYLE
2
STANDARD
9
$DIMGAP
40
0.025
9
$DIMTIH
70
0
9
$LUNITS
70
2
9
$LUPREC
70
4
9
$AUNITS
70
0
9
$AUPREC
70
2
9
$SPLINESEGS
70
8
9
$GRIDMODE
70
1
9
$SNAPSTYLE
70
0
9
$GRIDUNIT
10
0
20
0
9
$PINSBASE
10
0
20
0
30
0
9
$PLIMMIN
10
0
20
0
9
$PLIMMAX
10
7.8201774e-07
20
1.10599728e-06
9
$INSUNITS
70
1
9
$PSVPSCALE
40
1
0
ENDSEC
0
SECTION
2
CLASSES
0
ENDSEC
0
SECTION
2
TABLES
0
TABLE
2
VPORT
5
8
330
0
100
AcDbSymbolTable
70
1
0
VPORT
5
31
330
2
100
AcDbSymbolTableRecord
100
AcDbViewportTableRecord
2
*ACTIVE
70
0
10
0
20
0
11
1
21
1
12
19.3980892022
22
10.032775168
13
0
23
0
14
10
24
10
15
10
25
10
16
0
26
0
36
1
17
0
27
0
37
0
40
29.1597082846
41
1.31330472103
42
50
43
0
44
0
50
0
51
0
71
0
72
100
73
1
74
3
75
0
76
1
77
0
78
0
281
0
65
1
110
0
120
0
130
0
111
1
121
0
131
0
112
0
122
1
132
0
79
0
146
0
348
10020
60
7
61
5
292
1
282
1
141
0
142
0
63
250
421
3358443
0
ENDTAB
0
TABLE
2
LTYPE
5
5
330
0
100
AcDbSymbolTable
70
4
0
LTYPE
5
14
330
5
100
AcDbSymbolTableRecord
100
AcDbLinetypeTableRecord
2
ByBlock
70
0
3

72
65
73
0
40
0
0
LTYPE
5
15
330
5
100
AcDbSymbolTableRecord
100
AcDbLinetypeTableRecord
2
ByLayer
70
0
3

72
65
73
0
40
0
0
LTYPE
5
16
330
5
100
AcDbSymbolTableRecord
100
AcDbLinetypeTableRecord
2
Continuous
70
0
3
Solid line
72
65
73
0
40
0
0
LTYPE
5
32
330
5
100
AcDbSymbolTableRecord
100
AcDbLinetypeTableRecord
2
DOT
70
0
3
Dot . . . . . . . . . . . . . . . . . . . . . .
72
65
73
2
40
6.35
49
0
74
0
49
-6.35
74
0
0
LTYPE
5
33
330
5
100
AcDbSymbolTableRecord
100
AcDbLinetypeTableRecord
2
DOT2
70
0
3
Dot (.5x) .....................................
72
65
73
2
40
3.175
49
0
74
0
49
-3.175
74
0
0
LTYPE
5
34
330
5
100
AcDbSymbolTableRecord
100
AcDbLinetypeTableRecord
2
DOTX2
70
0
3
Dot (2x) .  .  .  .  .  .  .  .  .  .  .  .  .
72
65
73
2
40
12.7
49
0
74
0
49
-12.7
74
0
0
LTYPE
5
35
330
5
100
AcDbSymbolTableRecord
100
AcDbLinetypeTableRecord
2
DASHED
70
0
3
Dot . . . . . . . . . . . . . . . . . . . . . .
72
65
73
2
40
19.05
49
12.7
74
0
49
-6.35
74
0
0
LTYPE
5
36
330
5
100
AcDbSymbolTableRecord
100
AcDbLinetypeTableRecord
2
DASHED2
70
0
3
Dashed (.5x) _ _ _ _ _ _ _ _ _ _ _ _ _ _ _ _ _
72
65
73
2
40
9.525
49
6.35
74
0
49
-3.175
74
0
0
LTYPE
5
37
330
5
100
AcDbSymbolTableRecord
100
AcDbLinetypeTableRecord
2
DASHEDX2
70
0
3
Dashed (2x) ____  ____  ____  ____  ____  ___
72
65
73
2
40
38.1
49
25.4
74
0
49
-12.7
74
0
0
LTYPE
5
38
330
5
100
AcDbSymbolTableRecord
100
AcDbLinetypeTableRecord
2
DASHDOT
70
0
3
Dash dot __ . __ . __ . __ . __ . __ . __ . __
72
65
73
4
40
25.4
49
12.7
74
0
49
-6.35
74
0
49
0
74
0
49
-6.35
74
0
0
LTYPE
5
39
330
5
100
AcDbSymbolTableRecord
100
AcDbLinetypeTableRecord
2
DASHDOT2
70
0
3
Dash dot (.5x) _._._._._._._._._._._._._._._.
72
65
73
4
40
12.7
49
6.35
74
0
49
-3.175
74
0
49
0
74
0
49
-3.175
74
0
0
LTYPE
5
3A
330
5
100
AcDbSymbolTableRecord
100
AcDbLinetypeTableRecord
2
DASHDOTX2
70
0
3
Dash dot (2x) ____  .  ____  .  ____  .  ___
72
65
73
4
40
50.8
49
25.4
74
0
49
-12.7
74
0
49
0
74
0
49
-12.7
74
0
0
LTYPE
5
3B
330
5
100
AcDbSymbolTableRecord
100
AcDbLinetypeTableRecord
2
DIVIDE
70
0
3
Divide ____ . . ____ . . ____ . . ____ . . ____
72
65
73
6
40
31.75
49
12.7
74
0
49
-6.35
74
0
49
0
74
0
49
-6.35
74
0
49
0
74
0
49
-6.35
74
0
0
LTYPE
5
3C
330
5
100
AcDbSymbolTableRecord
100
AcDbLinetypeTableRecord
2
DIVIDE2
70
0
3
Divide (.5x) __..__..__..__..__..__..__..__.._
72
65
73
6
40
15.875
49
6.35
74
0
49
-3.175
74
0
49
0
74
0
49
-3.175
74
0
49
0
74
0
49
-3.175
74
0
0
LTYPE
5
3D
330
5
100
AcDbSymbolTableRecord
100
AcDbLinetypeTableRecord
2
DIVIDEX2
70
0
3
Divide (2x) ________  .  .  ________  .  .  _
72
65
73
6
40
63.5
49
25.4
74
0
49
-12.7
74
0
49
0
74
0
49
-12.7
74
0
49
0
74
0
49
-12.7
74
0
0
LTYPE
5
3E
330
5
100
AcDbSymbolTableRecord
100
AcDbLinetypeTableRecord
2
BORDER
70
0
3
Border __ __ . __ __ . __ __ . __ __ . __ __ .
72
65
73
6
40
44.45
49
12.7
74
0
49
-6.35
74
0
49
12.7
74
0
49
-6.35
74
0
49
0
74
0
49
-6.35
74
0
0
LTYPE
5
3F
330
5
100
AcDbSymbolTableRecord
100
AcDbLinetypeTableRecord
2
BORDER2
70
0
3
Border (.5x) __.__.__.__.__.__.__.__.__.__.__.
72
65
73
6
40
22.225
49
6.35
74
0
49
-3.175
74
0
49
6.35
74
0
49
-3.175
74
0
49
0
74
0
49
-3.175
74
0
0
LTYPE
5
40
330
5
100
AcDbSymbolTableRecord
100
AcDbLinetypeTableRecord
2
BORDERX2
70
0
3
Border (2x) ____  ____  .  ____  ____  .  ___
72
65
73
6
40
88.9
49
25.4
74
0
49
-12.7
74
0
49
25.4
74
0
49
-12.7
74
0
49
0
74
0
49
-12.7
74
0
0
LTYPE
5
41
330
5
100
AcDbSymbolTableRecord
100
AcDbLinetypeTableRecord
2
CENTER
70
0
3
Center ____ _ ____ _ ____ _ ____ _ ____ _ ____
72
65
73
4
40
50.8
49
31.75
74
0
49
-6.35
74
0
49
6.35
74
0
49
-6.35
74
0
0
LTYPE
5
42
330
5
100
AcDbSymbolTableRecord
100
AcDbLinetypeTableRecord
2
CENTER2
70
0
3
Center (.5x) ___ _ ___ _ ___ _ ___ _ ___ _ ___
72
65
73
4
40
28.575
49
19.05
74
0
49
-3.175
74
0
49
3.175
74
0
49
-3.175
74
0
0
LTYPE
5
43
330
5
100
AcDbSymbolTableRecord
100
AcDbLinetypeTableRecord
2
CENTERX2
70
0
3
Center (2x) ________  __  ________  __  _____
72
65
73
4
40
101.6
49
63.5
74
0
49
-12.7
74
0
49
12.7
74
0
49
-12.7
74
0
0
ENDTAB
0
TABLE
2
LAYER
5
2
330
0
100
AcDbSymbolTable
70
1
0
LAYER
5
10
330
2
100
AcDbSymbolTableRecord
100
AcDbLayerTableRecord
2
0
70
0
62
7
6
CONTINUOUS
370
0
390
F
0
LAYER
5
44
330
2
100
AcDbSymbolTableRecord
100
AcDbLayerTableRecord
2
4-40 Tap Hole
70
0
62
2
6
CONTINUOUS
370
0
390
F
0
LAYER
5
45
330
2
100
AcDbSymbolTableRecord
100
AcDbLayerTableRecord
2
4-40 Through Hole
70
0
62
30
420
16744448
6
CONTINUOUS
370
0
390
F
0
LAYER
5
46
330
2
100
AcDbSymbolTableRecord
100
AcDbLayerTableRecord
2
BNC Hole
70
0
62
3
6
CONTINUOUS
370
0
390
F
0
LAYER
5
47
330
2
100
AcDbSymbolTableRecord
100
AcDbLayerTableRecord
2
Boundary
70
0
62
5
6
CONTINUOUS
370
0
390
F
0
LAYER
5
48
330
2
100
AcDbSymbolTableRecord
100
AcDbLayerTableRecord
2
Boundary Temp
70
0
62
1
6
CONTINUOUS
370
0
390
F
0
LAYER
5
49
330
2
100
AcDbSymbolTableRecord
100
AcDbLayerTableRecord
2
Cutout
70
4
62
6
6
CONTINUOUS
370
0
390
F
0
LAYER
5
4A
330
2
100
AcDbSymbolTableRecord
100
AcDbLayerTableRecord
2
Cutout With Corner
70
4
62
216
420
8388736
6
CONTINUOUS
370
0
390
F
0
LAYER
5
4B
330
2
100
AcDbSymbolTableRecord
100
AcDbLayerTableRecord
2
DC Jack Hole
70
4
62
56
420
8421376
6
CONTINUOUS
370
0
390
F
0
LAYER
5
4C
330
2
100
AcDbSymbolTableRecord
100
AcDbLayerTableRecord
2
Dimension
70
4
62
253
420
10526884
6
CONTINUOUS
370
0
390
F
0
LAYER
5
4D
330
2
100
AcDbSymbolTableRecord
100
AcDbLayerTableRecord
2
Fixture Boundary
70
4
62
161
420
11184895
6
CONTINUOUS
370
0
390
F
0
LAYER
5
4E
330
2
100
AcDbSymbolTableRecord
100
AcDbLayerTableRecord
2
Fixture Hole 1/4 Through
70
4
62
200
420
11141375
6
CONTINUOUS
370
0
390
F
0
LAYER
5
4F
330
2
100
AcDbSymbolTableRecord
100
AcDbLayerTableRecord
2
Fixture Hole 1/4-20 Insert
70
4
62
2
6
CONTINUOUS
370
0
390
F
0
LAYER
5
50
330
2
100
AcDbSymbolTableRecord
100
AcDbLayerTableRecord
2
Fixture Hole 8-32 Insert
70
4
62
4
6
CONTINUOUS
370
0
390
F
0
LAYER
5
51
330
2
100
AcDbSymbolTableRecord
100
AcDbLayerTableRecord
2
Fixture Pocket
70
4
62
4
6
CONTINUOUS
370
0
390
F
0
LAYER
5
52
330
2
100
AcDbSymbolTableRecord
100
AcDbLayerTableRecord
2
Fixture Slots
70
4
62
16
420
8388608
6
CONTINUOUS
370
0
390
F
0
LAYER
5
53
330
2
100
AcDbSymbolTableRecord
100
AcDbLayerTableRecord
2
Reference
70
4
62
7
6
CONTINUOUS
370
0
390
F
0
LAYER
5
54
330
2
100
AcDbSymbolTableRecord
100
AcDbLayerTableRecord
2
Zeroing Pocket
70
4
62
96
420
32768
6
CONTINUOUS
370
0
390
F
0
LAYER
5
55
330
2
100
AcDbSymbolTableRecord
100
AcDbLayerTableRecord
2
engrave
70
0
62
7
6
CONTINUOUS
370
0
390
F
0
LAYER
5
56
330
2
100
AcDbSymbolTableRecord
100
AcDbLayerTableRecord
2
tmp
70
4
62
1
6
CONTINUOUS
370
0
390
F
0
ENDTAB
0
TABLE
2
STYLE
5
3
330
0
100
AcDbSymbolTable
70
3
0
STYLE
5
57
330
2
100
AcDbSymbolTableRecord
100
AcDbTextStyleTableRecord
2
iso
70
0
40
0
41
1
50
0
71
0
42
1
3
iso
4

0
STYLE
5
58
330
2
100
AcDbSymbolTableRecord
100
AcDbTextStyleTableRecord
2
Standard
70
0
40
0
41
1
50
0
71
0
42
1
3
txt
4

0
ENDTAB
0
TABLE
2
VIEW
5
6
330
0
100
AcDbSymbolTable
70
0
0
ENDTAB
0
TABLE
2
UCS
5
7
330
0
100
AcDbSymbolTable
70
0
0
ENDTAB
0
TABLE
2
APPID
5
9
330
0
100
AcDbSymbolTable
70
1
0
APPID
5
12
330
9
100
AcDbSymbolTableRecord
100
AcDbRegAppTableRecord
2
ACAD
70
0
0
ENDTAB
0
TABLE
2
DIMSTYLE
5
A
330
0
100
AcDbSymbolTable
70
1
100
AcDbDimStyleTable
71
1
0
DIMSTYLE
105
59
330
A
100
AcDbSymbolTableRecord
100
AcDbDimStyleTableRecord
2
Standard
70
0
40
1
41
0.1
42
0.025
43
0.38
44
0.05
45
0
46
0
47
0
48
0
140
0.1
141
0.09
142
0
143
25.4
144
1
145
0
146
1
147
0.025
148
0
71
0
72
0
73
0
74
1
75
0
76
0
77
0
78
0
79
0
170
0
171
2
172
0
173
0
174
0
175
0
176
0
177
0
178
0
179
0
271
4
272
4
273
2
274
2
275
0
276
0
277
2
278
46
279
0
280
0
281
0
282
0
283
1
284
0
285
0
286
0
288
0
289
3
340
Standard
341

371
-2
372
-2
0
ENDTAB
0
TABLE
2
BLOCK_RECORD
5
1
330
0
100
AcDbSymbolTable
70
2
0
BLOCK_RECORD
5
1F
330
1
100
AcDbSymbolTableRecord
100
AcDbBlockTableRecord
2
*Model_Space
70
0
280
1
281
0
0
BLOCK_RECORD
5
1E
330
1
100
AcDbSymbolTableRecord
100
AcDbBlockTableRecord
2
*Paper_Space
70
0
280
1
281
0
0
BLOCK_RECORD
5
5A
330
1
100
AcDbSymbolTableRecord
100
AcDbBlockTableRecord
2
*D1
70
0
280
1
281
0
0
BLOCK_RECORD
5
5D
330
1
100
AcDbSymbolTableRecord
100
AcDbBlockTableRecord
2
bottom-0
70
0
280
1
281
0
0
BLOCK_RECORD
5
60
330
1
100
AcDbSymbolTableRecord
100
AcDbBlockTableRecord
2
back-0
70
0
280
1
281
0
0
BLOCK_RECORD
5
63
330
1
100
AcDbSymbolTableRecord
100
AcDbBlockTableRecord
2
front-0
70
0
280
1
281
0
0
BLOCK_RECORD
5
66
330
1
100
AcDbSymbolTableRecord
100
AcDbBlockTableRecord
2
back-1
70
0
280
1
281
0
0
ENDTAB
0
ENDSEC
0
SECTION
2
BLOCKS
0
BLOCK
5
20
330
1F
100
AcDbEntity
8
0
100
AcDbBlockBegin
2
*Model_Space
70
0
10
0
20
0
30
0
3
*Model_Space
1

0
ENDBLK
5
21
330
1F
100
AcDbEntity
8
0
100
AcDbBlockEnd
0
BLOCK
5
1C
330
1B
100
AcDbEntity
8
0
100
AcDbBlockBegin
2
*Paper_Space
70
0
10
0
20
0
30
0
3
*Paper_Space
1

0
ENDBLK
5
1D
330
1F
100
AcDbEntity
8
0
100
AcDbBlockEnd
0
BLOCK
5
5B
330
5A
100
AcDbEntity
8
0
100
AcDbBlockBegin
2
*D1
70
1
10
0
20
0
3
*D1
1

0
LINE
5
69
100
AcDbEntity
8
engrave
6
CONTINUOUS
62
7
370
0
100
AcDbLine
10
6.35
20
1.6
11
6.87489166358
21
1.6
0
SOLID
5
6A
100
AcDbEntity
8
engrave
6
CONTINUOUS
62
7
370
0
100
AcDbTrace
10
6.35
20
1.6
30
0
11
6.45
21
1.61665138631
31
0
12
6.45
22
1.58334861369
32
0
13
6.45
23
1.58334861369
33
0
0
SOLID
5
6B
100
AcDbEntity
8
engrave
6
CONTINUOUS
62
7
370
0
100
AcDbTrace
10
6.87489166358
20
1.6
30
0
11
6.77489166358
21
1.58334861369
31
0
12
6.77489166358
22
1.61665138631
32
0
13
6.77489166358
23
1.61665138631
33
0
0
MTEXT
5
6C
100
AcDbEntity
8
engrave
6
CONTINUOUS
62
7
370
0
100
AcDbMText
10
6.61244583179
20
1.675
30
0
40
0.1
41
0.4
71
5
72
1
1
0.5249
7
standard
210
0
220
0
230
1
50
0
73
2
44
1
0
LINE
5
6D
100
AcDbEntity
8
engrave
6
CONTINUOUS
62
7
370
0
100
AcDbLine
10
6.35
20
1.875
11
6.35
21
1.55
0
LINE
5
6E
100
AcDbEntity
8
engrave
6
CONTINUOUS
62
7
370
0
100
AcDbLine
10
6.87489166358
20
2.10499684441
11
6.87489166358
21
1.55
0
ENDBLK
5
5C
330
5A
100
AcDbEntity
8
0
100
AcDbBlockEnd
0
BLOCK
5
5E
330
5D
100
AcDbEntity
8
0
100
AcDbBlockBegin
2
bottom-0
70
0
10
0
20
0
3
bottom-0
1

0
LINE
5
6F
100
AcDbEntity
8
Boundary
6
ByLayer
62
256
370
-1
100
AcDbLine
10
11.6250393701
20
0
11
0
21
0
0
LINE
5
70
100
AcDbEntity
8
Boundary
6
ByLayer
62
256
370
-1
100
AcDbLine
10
0
20
0
11
0
21
16.5
0
LINE
5
71
100
AcDbEntity
8
Boundary
6
ByLayer
62
256
370
-1
100
AcDbLine
10
0
20
16.5
11
11.6250393701
21
16.5
0
LINE
5
72
100
AcDbEntity
8
Boundary
6
ByLayer
62
256
370
-1
100
AcDbLine
10
11.6250393701
20
16.5
11
11.6250393701
21
0
0
CIRCLE
5
73
100
AcDbEntity
8
4-40 Through Hole
6
ByLayer
62
256
370
-1
100
AcDbCircle
10
0.977512381493
20
0.597007874016
40
0.0547209039396
0
CIRCLE
5
74
100
AcDbEntity
8
4-40 Through Hole
6
ByLayer
62
256
370
-1
100
AcDbCircle
10
4.91453239468
20
0.596999646909
40
0.0547241205002
0
CIRCLE
5
75
100
AcDbEntity
8
4-40 Through Hole
6
ByLayer
62
256
370
-1
100
AcDbCircle
10
0.977515182868
20
7.19200476273
40
0.0547243411767
0
CIRCLE
5
76
100
AcDbEntity
8
4-40 Through Hole
6
ByLayer
62
256
370
-1
100
AcDbCircle
10
4.90451065171
20
7.1920060767
40
0.0547214870202
0
CIRCLE
5
77
100
AcDbEntity
8
4-40 Through Hole
6
ByLayer
62
256
370
-1
100
AcDbCircle
10
2.00252661313
20
8.81998958225
40
0.0547268459848
0
CIRCLE
5
78
100
AcDbEntity
8
4-40 Through Hole
6
ByLayer
62
256
370
-1
100
AcDbCircle
10
0.752418560832
20
9.01999695251
40
0.0547208834079
0
CIRCLE
5
79
100
AcDbEntity
8
4-40 Through Hole
6
ByLayer
62
256
370
-1
100
AcDbCircle
10
0.752440219262
20
14.62
40
0.0547143412147
0
CIRCLE
5
7A
100
AcDbEntity
8
4-40 Through Hole
6
ByLayer
62
256
370
-1
100
AcDbCircle
10
2.0025107635
20
15.2199966048
40
0.0547144789664
0
CIRCLE
5
7B
100
AcDbEntity
8
Fixture Hole 1/4-20 Insert
6
ByLayer
62
256
370
-1
100
AcDbCircle
10
3
20
16.7
40
0.1796875
0
CIRCLE
5
7C
100
AcDbEntity
8
Fixture Hole 1/4-20 Insert
6
ByLayer
62
256
370
-1
100
AcDbCircle
10
9
20
16.7
40
0.1796875
0
CIRCLE
5
7D
100
AcDbEntity
8
Fixture Hole 1/4-20 Insert
6
ByLayer
62
256
370
-1
100
AcDbCircle
10
3
20
-0.2
40
0.1796875
0
CIRCLE
5
7E
100
AcDbEntity
8
Fixture Hole 1/4-20 Insert
6
ByLayer
62
256
370
-1
100
AcDbCircle
10
9
20
-0.2
40
0.1796875
0
LINE
5
7F
100
AcDbEntity
8
Fixture Pocket
6
ByLayer
62
256
370
-1
100
AcDbLine
10
2
20
17.5
11
4
21
17.5
0
LINE
5
80
100
AcDbEntity
8
Fixture Pocket
6
ByLayer
62
256
370
-1
100
AcDbLine
10
4
20
17.5
11
4
21
16
0
LINE
5
81
100
AcDbEntity
8
Fixture Pocket
6
ByLayer
62
256
370
-1
100
AcDbLine
10
4
20
16
11
2
21
16
0
LINE
5
82
100
AcDbEntity
8
Fixture Pocket
6
ByLayer
62
256
370
-1
100
AcDbLine
10
2
20
16
11
2
21
17.5
0
LINE
5
83
100
AcDbEntity
8
Fixture Pocket
6
ByLayer
62
256
370
-1
100
AcDbLine
10
8
20
17.5
11
10
21
17.5
0
LINE
5
84
100
AcDbEntity
8
Fixture Pocket
6
ByLayer
62
256
370
-1
100
AcDbLine
10
10
20
17.5
11
10
21
16
0
LINE
5
85
100
AcDbEntity
8
Fixture Pocket
6
ByLayer
62
256
370
-1
100
AcDbLine
10
10
20
16
11
8
21
16
0
LINE
5
86
100
AcDbEntity
8
Fixture Pocket
6
ByLayer
62
256
370
-1
100
AcDbLine
10
8
20
16
11
8
21
17.5
0
LINE
5
87
100
AcDbEntity
8
Fixture Pocket
6
ByLayer
62
256
370
-1
100
AcDbLine
10
2
20
-1
11
4
21
-1
0
LINE
5
88
100
AcDbEntity
8
Fixture Pocket
6
ByLayer
62
256
370
-1
100
AcDbLine
10
4
20
-1
11
4
21
0.5
0
LINE
5
89
100
AcDbEntity
8
Fixture Pocket
6
ByLayer
62
256
370
-1
100
AcDbLine
10
4
20
0.5
11
2
21
0.5
0
LINE
5
8A
100
AcDbEntity
8
Fixture Pocket
6
ByLayer
62
256
370
-1
100
AcDbLine
10
2
20
0.5
11
2
21
-1
0
LINE
5
8B
100
AcDbEntity
8
Fixture Pocket
6
ByLayer
62
256
370
-1
100
AcDbLine
10
8
20
0.5
11
10
21
0.5
0
LINE
5
8C
100
AcDbEntity
8
Fixture Pocket
6
ByLayer
62
256
370
-1
100
AcDbLine
10
10
20
0.5
11
10
21
-1
0
LINE
5
8D
100
AcDbEntity
8
Fixture Pocket
6
ByLayer
62
256
370
-1
100
AcDbLine
10
10
20
-1
11
8
21
-1
0
LINE
5
8E
100
AcDbEntity
8
Fixture Pocket
6
ByLayer
62
256
370
-1
100
AcDbLine
10
8
20
-1
11
8
21
0.5
0
ENDBLK
5
5F
330
5D
100
AcDbEntity
8
0
100
AcDbBlockEnd
0
BLOCK
5
61
330
60
100
AcDbEntity
8
0
100
AcDbBlockBegin
2
back-0
70
0
10
0
20
0
3
back-0
1

0
LINE
5
8F
100
AcDbEntity
8
Boundary
6
ByLayer
62
256
370
-1
100
AcDbLine
10
0
20
0
11
0
21
1.46
0
CIRCLE
5
90
100
AcDbEntity
8
DC Jack Hole
6
ByLayer
62
256
370
-1
100
AcDbCircle
10
4.07751968504
20
0.78799706885
40
0.218500613921
0
CIRCLE
5
91
100
AcDbEntity
8
4-40 Tap Hole
6
ByLayer
62
256
370
-1
100
AcDbCircle
10
11.2815354331
20
0.787974787261
40
0.061403210791
0
CIRCLE
5
92
100
AcDbEntity
8
4-40 Tap Hole
6
ByLayer
62
256
370
-1
100
AcDbCircle
10
13.1335114687
20
0.788011811024
40
0.0614215121771
0
LINE
5
93
100
AcDbEntity
8
Cutout
6
ByLayer
62
256
370
-1
100
AcDbLine
10
11.4004330709
20
0.520275590551
11
11.4004330709
21
1.05570866142
0
LINE
5
94
100
AcDbEntity
8
Cutout
6
ByLayer
62
256
370
-1
100
AcDbLine
10
13.0146062992
20
1.05570866142
11
13.0146062992
21
0.520275590551
0
LINE
5
95
100
AcDbEntity
8
Cutout
6
ByLayer
62
256
370
-1
100
AcDbLine
10
11.4004330709
20
1.05570866142
11
13.0146062992
21
1.05570866142
0
LINE
5
96
100
AcDbEntity
8
Cutout
6
ByLayer
62
256
370
-1
100
AcDbLine
10
11.4004330709
20
0.520275590551
11
13.0146062992
21
0.520275590551
0
CIRCLE
5
97
100
AcDbEntity
8
Fixture Hole 8-32 Insert
6
ByLayer
62
256
370
-1
100
AcDbCircle
10
0.1495
20
0.1265
40
0.1172
0
CIRCLE
5
98
100
AcDbEntity
8
Fixture Hole 8-32 Insert
6
ByLayer
62
256
370
-1
100
AcDbCircle
10
0.1495
20
1.3335
40
0.1172
0
LINE
5
99
100
AcDbEntity
8
Boundary
6
ByLayer
62
256
370
-1
100
AcDbLine
10
16.8438
20
1.46
11
16.8438
21
0
0
LINE
5
9A
100
AcDbEntity
8
Boundary
6
ByLayer
62
256
370
-1
100
AcDbLine
10
16.8438
20
0
11
0
21
0
0
LINE
5
9B
100
AcDbEntity
8
Boundary
6
ByLayer
62
256
370
-1
100
AcDbLine
10
0
20
1.46
11
16.8438
21
1.46
0
CIRCLE
5
9C
100
AcDbEntity
8
Fixture Hole 8-32 Insert
6
ByLayer
62
256
370
-1
100
AcDbCircle
10
16.6943
20
0.1265
40
0.1172
0
CIRCLE
5
9D
100
AcDbEntity
8
Fixture Hole 8-32 Insert
6
ByLayer
62
256
370
-1
100
AcDbCircle
10
16.6943
20
1.3335
40
0.1172
0
ENDBLK
5
62
330
60
100
AcDbEntity
8
0
100
AcDbBlockEnd
0
BLOCK
5
64
330
63
100
AcDbEntity
8
0
100
AcDbBlockBegin
2
front-0
70
0
10
0
20
0
3
front-0
1

0
LINE
5
9E
100
AcDbEntity
8
Boundary
6
ByLayer
62
256
370
-1
100
AcDbLine
10
0
20
0
11
0
21
1.74
0
LINE
5
9F
100
AcDbEntity
8
Boundary
6
ByLayer
62
256
370
-1
100
AcDbLine
10
0
20
1.74
11
19
21
1.74
0
LINE
5
A0
100
AcDbEntity
8
Boundary
6
ByLayer
62
256
370
-1
100
AcDbLine
10
19
20
1.74
11
19
21
0
0
LINE
5
A1
100
AcDbEntity
8
Boundary
6
ByLayer
62
256
370
-1
100
AcDbLine
10
19
20
0
11
0
21
0
0
CIRCLE
5
A2
100
AcDbEntity
8
BNC Hole
6
ByLayer
62
256
370
-1
100
AcDbCircle
10
2.12999684441
20
0.865108336424
40
0.265754445816
0
CIRCLE
5
A3
100
AcDbEntity
8
BNC Hole
6
ByLayer
62
256
370
-1
100
AcDbCircle
10
2.93001581713
20
0.865101672622
40
0.265739101021
0
CIRCLE
5
A4
100
AcDbEntity
8
BNC Hole
6
ByLayer
62
256
370
-1
100
AcDbCircle
10
3.72999731499
20
0.865115455892
40
0.265759184349
0
CIRCLE
5
A5
100
AcDbEntity
8
BNC Hole
6
ByLayer
62
256
370
-1
100
AcDbCircle
10
4.52999716936
20
0.865107507862
40
0.265751930664
0
CIRCLE
5
A6
100
AcDbEntity
8
BNC Hole
6
ByLayer
62
256
370
-1
100
AcDbCircle
10
5.3299995811
20
0.86512305174
40
0.265748450441
0
CIRCLE
5
A7
100
AcDbEntity
8
BNC Hole
6
ByLayer
62
256
370
-1
100
AcDbCircle
10
6.1299834009
20
0.865100010712
40
0.265738117019
0
CIRCLE
5
A8
100
AcDbEntity
8
BNC Hole
6
ByLayer
62
256
370
-1
100
AcDbCircle
10
6.93
20
0.865116872171
40
0.26574345744
0
CIRCLE
5
A9
100
AcDbEntity
8
BNC Hole
6
ByLayer
62
256
370
-1
100
AcDbCircle
10
7.73000080547
20
0.865107562622
40
0.265750416763
0
CIRCLE
5
AA
100
AcDbEntity
8
BNC Hole
6
ByLayer
62
256
370
-1
100
AcDbCircle
10
8.53000399498
20
0.865109422433
40
0.265753978674
0
CIRCLE
5
AB
100
AcDbEntity
8
BNC Hole
6
ByLayer
62
256
370
-1
100
AcDbCircle
10
9.33000687726
20
0.865107593338
40
0.26575134844
0
CIRCLE
5
AC
100
AcDbEntity
8
4-40 Tap Hole
6
ByLayer
62
256
370
-1
100
AcDbCircle
10
10.6099822513
20
1.46999544439
40
0.0439975809454
0
CIRCLE
5
AD
100
AcDbEntity
8
4-40 Tap Hole
6
ByLayer
62
256
370
-1
100
AcDbCircle
10
9.81000615873
20
0.270000525208
40
0.0440017712647
0
CIRCLE
5
AE
100
AcDbEntity
8
4-40 Tap Hole
6
ByLayer
62
256
370
-1
100
AcDbCircle
10
10.6099936165
20
0.269989034438
40
0.0439909117484
0
CIRCLE
5
AF
100
AcDbEntity
8
4-40 Tap Hole
6
ByLayer
62
256
370
-1
100
AcDbCircle
10
9.8099988189
20
1.47000393701
40
0.0440066929134
0
LINE
5
B0
100
AcDbEntity
8
Cutout
6
ByLayer
62
256
370
-1
100
AcDbLine
10
9.96
20
0.207480314961
11
9.96
21
1.53251968504
0
LINE
5
B1
100
AcDbEntity
8
Cutout
6
ByLayer
62
256
370
-1
100
AcDbLine
10
9.96
20
1.53251968504
11
10.46
21
1.53251968504
0
LINE
5
B2
100
AcDbEntity
8
Cutout
6
ByLayer
62
256
370
-1
100
AcDbLine
10
10.46
20
1.53251968504
11
10.46
21
0.207480314961
0
LINE
5
B3
100
AcDbEntity
8
Cutout
6
ByLayer
62
256
370
-1
100
AcDbLine
10
10.46
20
0.207480314961
11
9.96
21
0.207480314961
0
LINE
5
B4
100
AcDbEntity
8
Cutout
6
ByLayer
62
256
370
-1
100
AcDbLine
10
10.7387795276
20
0.561968503937
11
10.7387795276
21
0.851338582677
0
LINE
5
B5
100
AcDbEntity
8
Cutout
6
ByLayer
62
256
370
-1
100
AcDbLine
10
10.7387795276
20
0.851338582677
11
10.9612204724
21
0.851338582677
0
LINE
5
B6
100
AcDbEntity
8
Cutout
6
ByLayer
62
256
370
-1
100
AcDbLine
10
10.9612204724
20
0.851338582677
11
10.9612204724
21
0.561968503937
0
LINE
5
B7
100
AcDbEntity
8
Cutout
6
ByLayer
62
256
370
-1
100
AcDbLine
10
10.9612204724
20
0.561968503937
11
10.7387795276
21
0.561968503937
0
LINE
5
B8
100
AcDbEntity
8
Cutout
6
ByLayer
62
256
370
-1
100
AcDbLine
10
11.4277559055
20
0.561968503937
11
11.4277559055
21
0.851338582677
0
LINE
5
B9
100
AcDbEntity
8
Cutout
6
ByLayer
62
256
370
-1
100
AcDbLine
10
11.4277559055
20
0.851338582677
11
11.8722440945
21
0.851338582677
0
LINE
5
BA
100
AcDbEntity
8
Cutout
6
ByLayer
62
256
370
-1
100
AcDbLine
10
11.8722440945
20
0.851338582677
11
11.8722440945
21
0.561968503937
0
LINE
5
BB
100
AcDbEntity
8
Cutout
6
ByLayer
62
256
370
-1
100
AcDbLine
10
11.8722440945
20
0.561968503937
11
11.4277559055
21
0.561968503937
0
LINE
5
BC
100
AcDbEntity
8
Cutout
6
ByLayer
62
256
370
-1
100
AcDbLine
10
12.0304724409
20
0.518661417323
11
12.0304724409
21
1.03834645669
0
LINE
5
BD
100
AcDbEntity
8
Cutout
6
ByLayer
62
256
370
-1
100
AcDbLine
10
12.0304724409
20
1.03834645669
11
12.5895275591
21
1.03834645669
0
LINE
5
BE
100
AcDbEntity
8
Cutout
6
ByLayer
62
256
370
-1
100
AcDbLine
10
12.5895275591
20
1.03834645669
11
12.5895275591
21
0.518661417323
0
LINE
5
BF
100
AcDbEntity
8
Cutout
6
ByLayer
62
256
370
-1
100
AcDbLine
10
12.5895275591
20
0.518661417323
11
12.0304724409
21
0.518661417323
0
LINE
5
C0
100
AcDbEntity
8
Cutout
6
ByLayer
62
256
370
-1
100
AcDbLine
10
12.9554724409
20
0.518661417323
11
12.9554724409
21
1.0974015748
0
LINE
5
C1
100
AcDbEntity
8
Cutout
6
ByLayer
62
256
370
-1
100
AcDbLine
10
12.9554724409
20
1.0974015748
11
14.2625590551
21
1.0974015748
0
LINE
5
C2
100
AcDbEntity
8
Cutout
6
ByLayer
62
256
370
-1
100
AcDbLine
10
14.2625590551
20
1.0974015748
11
14.2625590551
21
0.518661417323
0
LINE
5
C3
100
AcDbEntity
8
Cutout
6
ByLayer
62
256
370
-1
100
AcDbLine
10
14.2625590551
20
0.518661417323
11
12.9554724409
21
0.518661417323
0
LINE
5
C4
100
AcDbEntity
8
Cutout
6
ByLayer
62
256
370
-1
100
AcDbLine
10
14.775511811
20
0.518661417323
11
14.775511811
21
0.727322834646
0
LINE
5
C5
100
AcDbEntity
8
Cutout
6
ByLayer
62
256
370
-1
100
AcDbLine
10
14.775511811
20
0.727322834646
11
15.964488189
21
0.727322834646
0
LINE
5
C6
100
AcDbEntity
8
Cutout
6
ByLayer
62
256
370
-1
100
AcDbLine
10
15.964488189
20
0.727322834646
11
15.964488189
21
0.518661417323
0
LINE
5
C7
100
AcDbEntity
8
Cutout
6
ByLayer
62
256
370
-1
100
AcDbLine
10
15.964488189
20
0.518661417323
11
14.775511811
21
0.518661417323
0
LINE
5
C8
100
AcDbEntity
8
Cutout
6
ByLayer
62
256
370
-1
100
AcDbLine
10
16.1257086614
20
0.561968503937
11
16.1257086614
21
0.851338582677
0
LINE
5
C9
100
AcDbEntity
8
Cutout
6
ByLayer
62
256
370
-1
100
AcDbLine
10
16.1257086614
20
0.851338582677
11
17.0142913386
21
0.851338582677
0
LINE
5
CA
100
AcDbEntity
8
Cutout
6
ByLayer
62
256
370
-1
100
AcDbLine
10
17.0142913386
20
0.851338582677
11
17.0142913386
21
0.561968503937
0
LINE
5
CB
100
AcDbEntity
8
Cutout
6
ByLayer
62
256
370
-1
100
AcDbLine
10
17.0142913386
20
0.561968503937
11
16.1257086614
21
0.561968503937
0
LINE
5
CC
100
AcDbEntity
8
Cutout
6
ByLayer
62
256
370
-1
100
AcDbLine
10
17.2688976378
20
0.598346456693
11
17.2688976378
21
1.14165354331
0
LINE
5
CD
100
AcDbEntity
8
Cutout
6
ByLayer
62
256
370
-1
100
AcDbLine
10
17.2688976378
20
1.14165354331
11
17.6311023622
21
1.14165354331
0
LINE
5
CE
100
AcDbEntity
8
Cutout
6
ByLayer
62
256
370
-1
100
AcDbLine
10
17.6311023622
20
1.14165354331
11
17.6311023622
21
0.598346456693
0
LINE
5
CF
100
AcDbEntity
8
Cutout
6
ByLayer
62
256
370
-1
100
AcDbLine
10
17.6311023622
20
0.598346456693
11
17.2688976378
21
0.598346456693
0
LINE
5
D0
100
AcDbEntity
8
Reference
6
ByLayer
62
256
370
-1
100
AcDbLine
10
0.15
20
0.252480314961
11
0.15094488189
21
0.267559055118
0
LINE
5
D1
100
AcDbEntity
8
Reference
6
ByLayer
62
256
370
-1
100
AcDbLine
10
0.15094488189
20
0.267559055118
11
0.153779527559
21
0.282362204724
0
LINE
5
D2
100
AcDbEntity
8
Reference
6
ByLayer
62
256
370
-1
100
AcDbLine
10
0.153779527559
20
0.282362204724
11
0.15842519685
21
0.296692913386
0
LINE
5
D3
100
AcDbEntity
8
Reference
6
ByLayer
62
256
370
-1
100
AcDbLine
10
0.15842519685
20
0.296692913386
11
0.164842519685
21
0.31031496063
0
LINE
5
D4
100
AcDbEntity
8
Reference
6
ByLayer
62
256
370
-1
100
AcDbLine
10
0.164842519685
20
0.31031496063
11
0.172913385827
21
0.323031496063
0
LINE
5
D5
100
AcDbEntity
8
Reference
6
ByLayer
62
256
370
-1
100
AcDbLine
10
0.172913385827
20
0.323031496063
11
0.182519685039
21
0.334645669291
0
LINE
5
D6
100
AcDbEntity
8
Reference
6
ByLayer
62
256
370
-1
100
AcDbLine
10
0.182519685039
20
0.334645669291
11
0.193503937008
21
0.344960629921
0
LINE
5
D7
100
AcDbEntity
8
Reference
6
ByLayer
62
256
370
-1
100
AcDbLine
10
0.193503937008
20
0.344960629921
11
0.205708661417
21
0.353818897638
0
LINE
5
D8
100
AcDbEntity
8
Reference
6
ByLayer
62
256
370
-1
100
AcDbLine
10
0.205708661417
20
0.353818897638
11
0.218897637795
21
0.361062992126
0
LINE
5
D9
100
AcDbEntity
8
Reference
6
ByLayer
62
256
370
-1
100
AcDbLine
10
0.218897637795
20
0.361062992126
11
0.232913385827
21
0.366614173228
0
LINE
5
DA
100
AcDbEntity
8
Reference
6
ByLayer
62
256
370
-1
100
AcDbLine
10
0.232913385827
20
0.366614173228
11
0.247519685039
21
0.370393700787
0
LINE
5
DB
100
AcDbEntity
8
Reference
6
ByLayer
62
256
370
-1
100
AcDbLine
10
0.247519685039
20
0.370393700787
11
0.262480314961
21
0.372244094488
0
LINE
5
DC
100
AcDbEntity
8
Reference
6
ByLayer
62
256
370
-1
100
AcDbLine
10
0.262480314961
20
0.372244094488
11
0.27
21
0.372244094488
0
LINE
5
DD
100
AcDbEntity
8
Reference
6
ByLayer
62
256
370
-1
100
AcDbLine
10
0.27
20
0.372244094488
11
0.27
21
0.372480314961
0
LINE
5
DE
100
AcDbEntity
8
Reference
6
ByLayer
62
256
370
-1
100
AcDbLine
10
0.27
20
0.372480314961
11
0.42
21
0.372480314961
0
LINE
5
DF
100
AcDbEntity
8
Reference
6
ByLayer
62
256
370
-1
100
AcDbLine
10
0.42
20
0.372480314961
11
0.42
21
0.372244094488
0
LINE
5
E0
100
AcDbEntity
8
Reference
6
ByLayer
62
256
370
-1
100
AcDbLine
10
0.42
20
0.372244094488
11
0.427519685039
21
0.372244094488
0
LINE
5
E1
100
AcDbEntity
8
Reference
6
ByLayer
62
256
370
-1
100
AcDbLine
10
0.427519685039
20
0.372244094488
11
0.442480314961
21
0.370393700787
0
LINE
5
E2
100
AcDbEntity
8
Reference
6
ByLayer
62
256
370
-1
100
AcDbLine
10
0.442480314961
20
0.370393700787
11
0.457086614173
21
0.366614173228
0
LINE
5
E3
100
AcDbEntity
8
Reference
6
ByLayer
62
256
370
-1
100
AcDbLine
10
0.457086614173
20
0.366614173228
11
0.471102362205
21
0.361062992126
0
LINE
5
E4
100
AcDbEntity
8
Reference
6
ByLayer
62
256
370
-1
100
AcDbLine
10
0.471102362205
20
0.361062992126
11
0.484291338583
21
0.353818897638
0
LINE
5
E5
100
AcDbEntity
8
Reference
6
ByLayer
62
256
370
-1
100
AcDbLine
10
0.484291338583
20
0.353818897638
11
0.496496062992
21
0.344960629921
0
LINE
5
E6
100
AcDbEntity
8
Reference
6
ByLayer
62
256
370
-1
100
AcDbLine
10
0.496496062992
20
0.344960629921
11
0.507480314961
21
0.334645669291
0
LINE
5
E7
100
AcDbEntity
8
Reference
6
ByLayer
62
256
370
-1
100
AcDbLine
10
0.507480314961
20
0.334645669291
11
0.517086614173
21
0.323031496063
0
LINE
5
E8
100
AcDbEntity
8
Reference
6
ByLayer
62
256
370
-1
100
AcDbLine
10
0.517086614173
20
0.323031496063
11
0.525157480315
21
0.31031496063
0
LINE
5
E9
100
AcDbEntity
8
Reference
6
ByLayer
62
256
370
-1
100
AcDbLine
10
0.525157480315
20
0.31031496063
11
0.53157480315
21
0.296692913386
0
LINE
5
EA
100
AcDbEntity
8
Reference
6
ByLayer
62
256
370
-1
100
AcDbLine
10
0.53157480315
20
0.296692913386
11
0.536220472441
21
0.282362204724
0
LINE
5
EB
100
AcDbEntity
8
Reference
6
ByLayer
62
256
370
-1
100
AcDbLine
10
0.536220472441
20
0.282362204724
11
0.53905511811
21
0.267559055118
0
LINE
5
EC
100
AcDbEntity
8
Reference
6
ByLayer
62
256
370
-1
100
AcDbLine
10
0.53905511811
20
0.267559055118
11
0.54
21
0.252480314961
0
LINE
5
ED
100
AcDbEntity
8
Reference
6
ByLayer
62
256
370
-1
100
AcDbLine
10
0.54
20
0.252480314961
11
0.53905511811
21
0.237440944882
0
LINE
5
EE
100
AcDbEntity
8
Reference
6
ByLayer
62
256
370
-1
100
AcDbLine
10
0.53905511811
20
0.237440944882
11
0.536220472441
21
0.222637795276
0
LINE
5
EF
100
AcDbEntity
8
Reference
6
ByLayer
62
256
370
-1
100
AcDbLine
10
0.536220472441
20
0.222637795276
11
0.53157480315
21
0.208307086614
0
LINE
5
F0
100
AcDbEntity
8
Reference
6
ByLayer
62
256
370
-1
100
AcDbLine
10
0.53157480315
20
0.208307086614
11
0.525157480315
21
0.19468503937
0
LINE
5
F1
100
AcDbEntity
8
Reference
6
ByLayer
62
256
370
-1
100
AcDbLine
10
0.525157480315
20
0.19468503937
11
0.517086614173
21
0.181968503937
0
LINE
5
F2
100
AcDbEntity
8
Reference
6
ByLayer
62
256
370
-1
100
AcDbLine
10
0.517086614173
20
0.181968503937
11
0.507480314961
21
0.170354330709
0
LINE
5
F3
100
AcDbEntity
8
Reference
6
ByLayer
62
256
370
-1
100
AcDbLine
10
0.507480314961
20
0.170354330709
11
0.496496062992
21
0.160039370079
0
LINE
5
F4
100
AcDbEntity
8
Reference
6
ByLayer
62
256
370
-1
100
AcDbLine
10
0.496496062992
20
0.160039370079
11
0.484291338583
21
0.151181102362
0
LINE
5
F5
100
AcDbEntity
8
Reference
6
ByLayer
62
256
370
-1
100
AcDbLine
10
0.484291338583
20
0.151181102362
11
0.471102362205
21
0.143937007874
0
LINE
5
F6
100
AcDbEntity
8
Reference
6
ByLayer
62
256
370
-1
100
AcDbLine
10
0.471102362205
20
0.143937007874
11
0.457086614173
21
0.138385826772
0
LINE
5
F7
100
AcDbEntity
8
Reference
6
ByLayer
62
256
370
-1
100
AcDbLine
10
0.457086614173
20
0.138385826772
11
0.442480314961
21
0.134606299213
0
LINE
5
F8
100
AcDbEntity
8
Reference
6
ByLayer
62
256
370
-1
100
AcDbLine
10
0.442480314961
20
0.134606299213
11
0.427519685039
21
0.132755905512
0
LINE
5
F9
100
AcDbEntity
8
Reference
6
ByLayer
62
256
370
-1
100
AcDbLine
10
0.427519685039
20
0.132755905512
11
0.42
21
0.132755905512
0
LINE
5
FA
100
AcDbEntity
8
Reference
6
ByLayer
62
256
370
-1
100
AcDbLine
10
0.42
20
0.132755905512
11
0.42
21
0.132519685039
0
LINE
5
FB
100
AcDbEntity
8
Reference
6
ByLayer
62
256
370
-1
100
AcDbLine
10
0.42
20
0.132519685039
11
0.27
21
0.132519685039
0
LINE
5
FC
100
AcDbEntity
8
Reference
6
ByLayer
62
256
370
-1
100
AcDbLine
10
0.27
20
0.132519685039
11
0.27
21
0.132755905512
0
LINE
5
FD
100
AcDbEntity
8
Reference
6
ByLayer
62
256
370
-1
100
AcDbLine
10
0.27
20
0.132755905512
11
0.262480314961
21
0.132755905512
0
LINE
5
FE
100
AcDbEntity
8
Reference
6
ByLayer
62
256
370
-1
100
AcDbLine
10
0.262480314961
20
0.132755905512
11
0.247519685039
21
0.134606299213
0
LINE
5
FF
100
AcDbEntity
8
Reference
6
ByLayer
62
256
370
-1
100
AcDbLine
10
0.247519685039
20
0.134606299213
11
0.232913385827
21
0.138385826772
0
LINE
5
100
100
AcDbEntity
8
Reference
6
ByLayer
62
256
370
-1
100
AcDbLine
10
0.232913385827
20
0.138385826772
11
0.218897637795
21
0.143937007874
0
LINE
5
101
100
AcDbEntity
8
Reference
6
ByLayer
62
256
370
-1
100
AcDbLine
10
0.218897637795
20
0.143937007874
11
0.205708661417
21
0.151181102362
0
LINE
5
102
100
AcDbEntity
8
Reference
6
ByLayer
62
256
370
-1
100
AcDbLine
10
0.205708661417
20
0.151181102362
11
0.193503937008
21
0.160039370079
0
LINE
5
103
100
AcDbEntity
8
Reference
6
ByLayer
62
256
370
-1
100
AcDbLine
10
0.193503937008
20
0.160039370079
11
0.182519685039
21
0.170354330709
0
LINE
5
104
100
AcDbEntity
8
Reference
6
ByLayer
62
256
370
-1
100
AcDbLine
10
0.182519685039
20
0.170354330709
11
0.172913385827
21
0.181968503937
0
LINE
5
105
100
AcDbEntity
8
Reference
6
ByLayer
62
256
370
-1
100
AcDbLine
10
0.172913385827
20
0.181968503937
11
0.164842519685
21
0.19468503937
0
LINE
5
106
100
AcDbEntity
8
Reference
6
ByLayer
62
256
370
-1
100
AcDbLine
10
0.164842519685
20
0.19468503937
11
0.15842519685
21
0.208307086614
0
LINE
5
107
100
AcDbEntity
8
Reference
6
ByLayer
62
256
370
-1
100
AcDbLine
10
0.15842519685
20
0.208307086614
11
0.153779527559
21
0.222637795276
0
LINE
5
108
100
AcDbEntity
8
Reference
6
ByLayer
62
256
370
-1
100
AcDbLine
10
0.153779527559
20
0.222637795276
11
0.15094488189
21
0.237440944882
0
LINE
5
109
100
AcDbEntity
8
Reference
6
ByLayer
62
256
370
-1
100
AcDbLine
10
0.15094488189
20
0.237440944882
11
0.15
21
0.252480314961
0
LINE
5
10A
100
AcDbEntity
8
Reference
6
ByLayer
62
256
370
-1
100
AcDbLine
10
0.15
20
1.48751968504
11
0.15094488189
21
1.50255905512
0
LINE
5
10B
100
AcDbEntity
8
Reference
6
ByLayer
62
256
370
-1
100
AcDbLine
10
0.15094488189
20
1.50255905512
11
0.153779527559
21
1.51736220472
0
LINE
5
10C
100
AcDbEntity
8
Reference
6
ByLayer
62
256
370
-1
100
AcDbLine
10
0.153779527559
20
1.51736220472
11
0.15842519685
21
1.53169291339
0
LINE
5
10D
100
AcDbEntity
8
Reference
6
ByLayer
62
256
370
-1
100
AcDbLine
10
0.15842519685
20
1.53169291339
11
0.164842519685
21
1.54531496063
0
LINE
5
10E
100
AcDbEntity
8
Reference
6
ByLayer
62
256
370
-1
100
AcDbLine
10
0.164842519685
20
1.54531496063
11
0.172913385827
21
1.55803149606
0
LINE
5
10F
100
AcDbEntity
8
Reference
6
ByLayer
62
256
370
-1
100
AcDbLine
10
0.172913385827
20
1.55803149606
11
0.182519685039
21
1.56964566929
0
LINE
5
110
100
AcDbEntity
8
Reference
6
ByLayer
62
256
370
-1
100
AcDbLine
10
0.182519685039
20
1.56964566929
11
0.193503937008
21
1.57996062992
0
LINE
5
111
100
AcDbEntity
8
Reference
6
ByLayer
62
256
370
-1
100
AcDbLine
10
0.193503937008
20
1.57996062992
11
0.205708661417
21
1.58881889764
0
LINE
5
112
100
AcDbEntity
8
Reference
6
ByLayer
62
256
370
-1
100
AcDbLine
10
0.205708661417
20
1.58881889764
11
0.218897637795
21
1.59606299213
0
LINE
5
113
100
AcDbEntity
8
Reference
6
ByLayer
62
256
370
-1
100
AcDbLine
10
0.218897637795
20
1.59606299213
11
0.232913385827
21
1.60161417323
0
LINE
5
114
100
AcDbEntity
8
Reference
6
ByLayer
62
256
370
-1
100
AcDbLine
10
0.232913385827
20
1.60161417323
11
0.247519685039
21
1.60539370079
0
LINE
5
115
100
AcDbEntity
8
Reference
6
ByLayer
62
256
370
-1
100
AcDbLine
10
0.247519685039
20
1.60539370079
11
0.262480314961
21
1.60724409449
0
LINE
5
116
100
AcDbEntity
8
Reference
6
ByLayer
62
256
370
-1
100
AcDbLine
10
0.262480314961
20
1.60724409449
11
0.27
21
1.60724409449
0
LINE
5
117
100
AcDbEntity
8
Reference
6
ByLayer
62
256
370
-1
100
AcDbLine
10
0.27
20
1.60724409449
11
0.27
21
1.60748031496
0
LINE
5
118
100
AcDbEntity
8
Reference
6
ByLayer
62
256
370
-1
100
AcDbLine
10
0.42
20
1.60748031496
11
0.42
21
1.60724409449
0
LINE
5
119
100
AcDbEntity
8
Reference
6
ByLayer
62
256
370
-1
100
AcDbLine
10
0.42
20
1.60724409449
11
0.427519685039
21
1.60724409449
0
LINE
5
11A
100
AcDbEntity
8
Reference
6
ByLayer
62
256
370
-1
100
AcDbLine
10
0.427519685039
20
1.60724409449
11
0.442480314961
21
1.60539370079
0
LINE
5
11B
100
AcDbEntity
8
Reference
6
ByLayer
62
256
370
-1
100
AcDbLine
10
0.442480314961
20
1.60539370079
11
0.457086614173
21
1.60161417323
0
LINE
5
11C
100
AcDbEntity
8
Reference
6
ByLayer
62
256
370
-1
100
AcDbLine
10
0.457086614173
20
1.60161417323
11
0.471102362205
21
1.59606299213
0
LINE
5
11D
100
AcDbEntity
8
Reference
6
ByLayer
62
256
370
-1
100
AcDbLine
10
0.471102362205
20
1.59606299213
11
0.484291338583
21
1.58881889764
0
LINE
5
11E
100
AcDbEntity
8
Reference
6
ByLayer
62
256
370
-1
100
AcDbLine
10
0.484291338583
20
1.58881889764
11
0.496496062992
21
1.57996062992
0
LINE
5
11F
100
AcDbEntity
8
Reference
6
ByLayer
62
256
370
-1
100
AcDbLine
10
0.496496062992
20
1.57996062992
11
0.507480314961
21
1.56964566929
0
LINE
5
120
100
AcDbEntity
8
Reference
6
ByLayer
62
256
370
-1
100
AcDbLine
10
0.507480314961
20
1.56964566929
11
0.517086614173
21
1.55803149606
0
LINE
5
121
100
AcDbEntity
8
Reference
6
ByLayer
62
256
370
-1
100
AcDbLine
10
0.517086614173
20
1.55803149606
11
0.525157480315
21
1.54531496063
0
LINE
5
122
100
AcDbEntity
8
Reference
6
ByLayer
62
256
370
-1
100
AcDbLine
10
0.525157480315
20
1.54531496063
11
0.53157480315
21
1.53169291339
0
LINE
5
123
100
AcDbEntity
8
Reference
6
ByLayer
62
256
370
-1
100
AcDbLine
10
0.53157480315
20
1.53169291339
11
0.536220472441
21
1.51736220472
0
LINE
5
124
100
AcDbEntity
8
Reference
6
ByLayer
62
256
370
-1
100
AcDbLine
10
0.536220472441
20
1.51736220472
11
0.53905511811
21
1.50255905512
0
LINE
5
125
100
AcDbEntity
8
Reference
6
ByLayer
62
256
370
-1
100
AcDbLine
10
0.53905511811
20
1.50255905512
11
0.54
21
1.48751968504
0
LINE
5
126
100
AcDbEntity
8
Reference
6
ByLayer
62
256
370
-1
100
AcDbLine
10
0.54
20
1.48751968504
11
0.53905511811
21
1.47244094488
0
LINE
5
127
100
AcDbEntity
8
Reference
6
ByLayer
62
256
370
-1
100
AcDbLine
10
0.53905511811
20
1.47244094488
11
0.536220472441
21
1.45763779528
0
LINE
5
128
100
AcDbEntity
8
Reference
6
ByLayer
62
256
370
-1
100
AcDbLine
10
0.536220472441
20
1.45763779528
11
0.53157480315
21
1.44330708661
0
LINE
5
129
100
AcDbEntity
8
Reference
6
ByLayer
62
256
370
-1
100
AcDbLine
10
0.53157480315
20
1.44330708661
11
0.525157480315
21
1.42968503937
0
LINE
5
12A
100
AcDbEntity
8
Reference
6
ByLayer
62
256
370
-1
100
AcDbLine
10
0.525157480315
20
1.42968503937
11
0.517086614173
21
1.41696850394
0
LINE
5
12B
100
AcDbEntity
8
Reference
6
ByLayer
62
256
370
-1
100
AcDbLine
10
0.517086614173
20
1.41696850394
11
0.507480314961
21
1.40535433071
0
LINE
5
12C
100
AcDbEntity
8
Reference
6
ByLayer
62
256
370
-1
100
AcDbLine
10
0.507480314961
20
1.40535433071
11
0.496496062992
21
1.39503937008
0
LINE
5
12D
100
AcDbEntity
8
Reference
6
ByLayer
62
256
370
-1
100
AcDbLine
10
0.496496062992
20
1.39503937008
11
0.484291338583
21
1.38618110236
0
LINE
5
12E
100
AcDbEntity
8
Reference
6
ByLayer
62
256
370
-1
100
AcDbLine
10
0.484291338583
20
1.38618110236
11
0.471102362205
21
1.37893700787
0
LINE
5
12F
100
AcDbEntity
8
Reference
6
ByLayer
62
256
370
-1
100
AcDbLine
10
0.471102362205
20
1.37893700787
11
0.457086614173
21
1.37338582677
0
LINE
5
130
100
AcDbEntity
8
Reference
6
ByLayer
62
256
370
-1
100
AcDbLine
10
0.457086614173
20
1.37338582677
11
0.442480314961
21
1.36960629921
0
LINE
5
131
100
AcDbEntity
8
Reference
6
ByLayer
62
256
370
-1
100
AcDbLine
10
0.442480314961
20
1.36960629921
11
0.427519685039
21
1.36775590551
0
LINE
5
132
100
AcDbEntity
8
Reference
6
ByLayer
62
256
370
-1
100
AcDbLine
10
0.427519685039
20
1.36775590551
11
0.42
21
1.36775590551
0
LINE
5
133
100
AcDbEntity
8
Reference
6
ByLayer
62
256
370
-1
100
AcDbLine
10
0.42
20
1.36775590551
11
0.42
21
1.36751968504
0
LINE
5
134
100
AcDbEntity
8
Reference
6
ByLayer
62
256
370
-1
100
AcDbLine
10
0.42
20
1.36751968504
11
0.27
21
1.36751968504
0
LINE
5
135
100
AcDbEntity
8
Reference
6
ByLayer
62
256
370
-1
100
AcDbLine
10
0.27
20
1.36751968504
11
0.27
21
1.36775590551
0
LINE
5
136
100
AcDbEntity
8
Reference
6
ByLayer
62
256
370
-1
100
AcDbLine
10
0.27
20
1.36775590551
11
0.262480314961
21
1.36775590551
0
LINE
5
137
100
AcDbEntity
8
Reference
6
ByLayer
62
256
370
-1
100
AcDbLine
10
0.262480314961
20
1.36775590551
11
0.247519685039
21
1.36960629921
0
LINE
5
138
100
AcDbEntity
8
Reference
6
ByLayer
62
256
370
-1
100
AcDbLine
10
0.247519685039
20
1.36960629921
11
0.232913385827
21
1.37338582677
0
LINE
5
139
100
AcDbEntity
8
Reference
6
ByLayer
62
256
370
-1
100
AcDbLine
10
0.232913385827
20
1.37338582677
11
0.218897637795
21
1.37893700787
0
LINE
5
13A
100
AcDbEntity
8
Reference
6
ByLayer
62
256
370
-1
100
AcDbLine
10
0.218897637795
20
1.37893700787
11
0.205708661417
21
1.38618110236
0
LINE
5
13B
100
AcDbEntity
8
Reference
6
ByLayer
62
256
370
-1
100
AcDbLine
10
0.205708661417
20
1.38618110236
11
0.193503937008
21
1.39503937008
0
LINE
5
13C
100
AcDbEntity
8
Reference
6
ByLayer
62
256
370
-1
100
AcDbLine
10
0.193503937008
20
1.39503937008
11
0.182519685039
21
1.40535433071
0
LINE
5
13D
100
AcDbEntity
8
Reference
6
ByLayer
62
256
370
-1
100
AcDbLine
10
0.182519685039
20
1.40535433071
11
0.172913385827
21
1.41696850394
0
LINE
5
13E
100
AcDbEntity
8
Reference
6
ByLayer
62
256
370
-1
100
AcDbLine
10
0.172913385827
20
1.41696850394
11
0.164842519685
21
1.42968503937
0
LINE
5
13F
100
AcDbEntity
8
Reference
6
ByLayer
62
256
370
-1
100
AcDbLine
10
0.164842519685
20
1.42968503937
11
0.15842519685
21
1.44330708661
0
LINE
5
140
100
AcDbEntity
8
Reference
6
ByLayer
62
256
370
-1
100
AcDbLine
10
0.15842519685
20
1.44330708661
11
0.153779527559
21
1.45763779528
0
LINE
5
141
100
AcDbEntity
8
Reference
6
ByLayer
62
256
370
-1
100
AcDbLine
10
0.153779527559
20
1.45763779528
11
0.15094488189
21
1.47244094488
0
LINE
5
142
100
AcDbEntity
8
Reference
6
ByLayer
62
256
370
-1
100
AcDbLine
10
0.15094488189
20
1.47244094488
11
0.15
21
1.48751968504
0
LINE
5
143
100
AcDbEntity
8
Reference
6
ByLayer
62
256
370
-1
100
AcDbLine
10
18.46
20
0.252480314961
11
18.4609448819
21
0.267559055118
0
LINE
5
144
100
AcDbEntity
8
Reference
6
ByLayer
62
256
370
-1
100
AcDbLine
10
18.4609448819
20
0.267559055118
11
18.4637795276
21
0.282362204724
0
LINE
5
145
100
AcDbEntity
8
Reference
6
ByLayer
62
256
370
-1
100
AcDbLine
10
18.4637795276
20
0.282362204724
11
18.4684251969
21
0.296692913386
0
LINE
5
146
100
AcDbEntity
8
Reference
6
ByLayer
62
256
370
-1
100
AcDbLine
10
18.4684251969
20
0.296692913386
11
18.4748425197
21
0.31031496063
0
LINE
5
147
100
AcDbEntity
8
Reference
6
ByLayer
62
256
370
-1
100
AcDbLine
10
18.4748425197
20
0.31031496063
11
18.4829133858
21
0.323031496063
0
LINE
5
148
100
AcDbEntity
8
Reference
6
ByLayer
62
256
370
-1
100
AcDbLine
10
18.4829133858
20
0.323031496063
11
18.492519685
21
0.334645669291
0
LINE
5
149
100
AcDbEntity
8
Reference
6
ByLayer
62
256
370
-1
100
AcDbLine
10
18.492519685
20
0.334645669291
11
18.503503937
21
0.344960629921
0
LINE
5
14A
100
AcDbEntity
8
Reference
6
ByLayer
62
256
370
-1
100
AcDbLine
10
18.503503937
20
0.344960629921
11
18.5157086614
21
0.353818897638
0
LINE
5
14B
100
AcDbEntity
8
Reference
6
ByLayer
62
256
370
-1
100
AcDbLine
10
18.5157086614
20
0.353818897638
11
18.5288976378
21
0.361062992126
0
LINE
5
14C
100
AcDbEntity
8
Reference
6
ByLayer
62
256
370
-1
100
AcDbLine
10
18.5288976378
20
0.361062992126
11
18.5429133858
21
0.366614173228
0
LINE
5
14D
100
AcDbEntity
8
Reference
6
ByLayer
62
256
370
-1
100
AcDbLine
10
18.5429133858
20
0.366614173228
11
18.557519685
21
0.370393700787
0
LINE
5
14E
100
AcDbEntity
8
Reference
6
ByLayer
62
256
370
-1
100
AcDbLine
10
18.557519685
20
0.370393700787
11
18.572480315
21
0.372244094488
0
LINE
5
14F
100
AcDbEntity
8
Reference
6
ByLayer
62
256
370
-1
100
AcDbLine
10
18.572480315
20
0.372244094488
11
18.58
21
0.372244094488
0
LINE
5
150
100
AcDbEntity
8
Reference
6
ByLayer
62
256
370
-1
100
AcDbLine
10
18.58
20
0.372244094488
11
18.58
21
0.372480314961
0
LINE
5
151
100
AcDbEntity
8
Reference
6
ByLayer
62
256
370
-1
100
AcDbLine
10
18.58
20
0.372480314961
11
18.73
21
0.372480314961
0
LINE
5
152
100
AcDbEntity
8
Reference
6
ByLayer
62
256
370
-1
100
AcDbLine
10
18.73
20
0.372480314961
11
18.73
21
0.372244094488
0
LINE
5
153
100
AcDbEntity
8
Reference
6
ByLayer
62
256
370
-1
100
AcDbLine
10
18.73
20
0.372244094488
11
18.737519685
21
0.372244094488
0
LINE
5
154
100
AcDbEntity
8
Reference
6
ByLayer
62
256
370
-1
100
AcDbLine
10
18.737519685
20
0.372244094488
11
18.752480315
21
0.370393700787
0
LINE
5
155
100
AcDbEntity
8
Reference
6
ByLayer
62
256
370
-1
100
AcDbLine
10
18.752480315
20
0.370393700787
11
18.7670866142
21
0.366614173228
0
LINE
5
156
100
AcDbEntity
8
Reference
6
ByLayer
62
256
370
-1
100
AcDbLine
10
18.7670866142
20
0.366614173228
11
18.7811023622
21
0.361062992126
0
LINE
5
157
100
AcDbEntity
8
Reference
6
ByLayer
62
256
370
-1
100
AcDbLine
10
18.7811023622
20
0.361062992126
11
18.7942913386
21
0.353818897638
0
LINE
5
158
100
AcDbEntity
8
Reference
6
ByLayer
62
256
370
-1
100
AcDbLine
10
18.7942913386
20
0.353818897638
11
18.806496063
21
0.344960629921
0
LINE
5
159
100
AcDbEntity
8
Reference
6
ByLayer
62
256
370
-1
100
AcDbLine
10
18.806496063
20
0.344960629921
11
18.817480315
21
0.334645669291
0
LINE
5
15A
100
AcDbEntity
8
Reference
6
ByLayer
62
256
370
-1
100
AcDbLine
10
18.817480315
20
0.334645669291
11
18.8270866142
21
0.323031496063
0
LINE
5
15B
100
AcDbEntity
8
Reference
6
ByLayer
62
256
370
-1
100
AcDbLine
10
18.8270866142
20
0.323031496063
11
18.8351574803
21
0.31031496063
0
LINE
5
15C
100
AcDbEntity
8
Reference
6
ByLayer
62
256
370
-1
100
AcDbLine
10
18.8351574803
20
0.31031496063
11
18.8415748031
21
0.296692913386
0
LINE
5
15D
100
AcDbEntity
8
Reference
6
ByLayer
62
256
370
-1
100
AcDbLine
10
18.8415748031
20
0.296692913386
11
18.8462204724
21
0.282362204724
0
LINE
5
15E
100
AcDbEntity
8
Reference
6
ByLayer
62
256
370
-1
100
AcDbLine
10
18.8462204724
20
0.282362204724
11
18.8490551181
21
0.267559055118
0
LINE
5
15F
100
AcDbEntity
8
Reference
6
ByLayer
62
256
370
-1
100
AcDbLine
10
18.8490551181
20
0.267559055118
11
18.85
21
0.252480314961
0
LINE
5
160
100
AcDbEntity
8
Reference
6
ByLayer
62
256
370
-1
100
AcDbLine
10
18.85
20
0.252480314961
11
18.8490551181
21
0.237440944882
0
LINE
5
161
100
AcDbEntity
8
Reference
6
ByLayer
62
256
370
-1
100
AcDbLine
10
18.8490551181
20
0.237440944882
11
18.8462204724
21
0.222637795276
0
LINE
5
162
100
AcDbEntity
8
Reference
6
ByLayer
62
256
370
-1
100
AcDbLine
10
18.8462204724
20
0.222637795276
11
18.8415748031
21
0.208307086614
0
LINE
5
163
100
AcDbEntity
8
Reference
6
ByLayer
62
256
370
-1
100
AcDbLine
10
18.8415748031
20
0.208307086614
11
18.8351574803
21
0.19468503937
0
LINE
5
164
100
AcDbEntity
8
Reference
6
ByLayer
62
256
370
-1
100
AcDbLine
10
18.8351574803
20
0.19468503937
11
18.8270866142
21
0.181968503937
0
LINE
5
165
100
AcDbEntity
8
Reference
6
ByLayer
62
256
370
-1
100
AcDbLine
10
18.8270866142
20
0.181968503937
11
18.817480315
21
0.170354330709
0
LINE
5
166
100
AcDbEntity
8
Reference
6
ByLayer
62
256
370
-1
100
AcDbLine
10
18.817480315
20
0.170354330709
11
18.806496063
21
0.160039370079
0
LINE
5
167
100
AcDbEntity
8
Reference
6
ByLayer
62
256
370
-1
100
AcDbLine
10
18.806496063
20
0.160039370079
11
18.7942913386
21
0.151181102362
0
LINE
5
168
100
AcDbEntity
8
Reference
6
ByLayer
62
256
370
-1
100
AcDbLine
10
18.7942913386
20
0.151181102362
11
18.7811023622
21
0.143937007874
0
LINE
5
169
100
AcDbEntity
8
Reference
6
ByLayer
62
256
370
-1
100
AcDbLine
10
18.7811023622
20
0.143937007874
11
18.7670866142
21
0.138385826772
0
LINE
5
16A
100
AcDbEntity
8
Reference
6
ByLayer
62
256
370
-1
100
AcDbLine
10
18.7670866142
20
0.138385826772
11
18.752480315
21
0.134606299213
0
LINE
5
16B
100
AcDbEntity
8
Reference
6
ByLayer
62
256
370
-1
100
AcDbLine
10
18.752480315
20
0.134606299213
11
18.737519685
21
0.132755905512
0
LINE
5
16C
100
AcDbEntity
8
Reference
6
ByLayer
62
256
370
-1
100
AcDbLine
10
18.737519685
20
0.132755905512
11
18.73
21
0.132755905512
0
LINE
5
16D
100
AcDbEntity
8
Reference
6
ByLayer
62
256
370
-1
100
AcDbLine
10
18.73
20
0.132755905512
11
18.73
21
0.132519685039
0
LINE
5
16E
100
AcDbEntity
8
Reference
6
ByLayer
62
256
370
-1
100
AcDbLine
10
18.73
20
0.132519685039
11
18.58
21
0.132519685039
0
LINE
5
16F
100
AcDbEntity
8
Reference
6
ByLayer
62
256
370
-1
100
AcDbLine
10
18.58
20
0.132519685039
11
18.58
21
0.132755905512
0
LINE
5
170
100
AcDbEntity
8
Reference
6
ByLayer
62
256
370
-1
100
AcDbLine
10
18.58
20
0.132755905512
11
18.572480315
21
0.132755905512
0
LINE
5
171
100
AcDbEntity
8
Reference
6
ByLayer
62
256
370
-1
100
AcDbLine
10
18.572480315
20
0.132755905512
11
18.557519685
21
0.134606299213
0
LINE
5
172
100
AcDbEntity
8
Reference
6
ByLayer
62
256
370
-1
100
AcDbLine
10
18.557519685
20
0.134606299213
11
18.5429133858
21
0.138385826772
0
LINE
5
173
100
AcDbEntity
8
Reference
6
ByLayer
62
256
370
-1
100
AcDbLine
10
18.5429133858
20
0.138385826772
11
18.5288976378
21
0.143937007874
0
LINE
5
174
100
AcDbEntity
8
Reference
6
ByLayer
62
256
370
-1
100
AcDbLine
10
18.5288976378
20
0.143937007874
11
18.5157086614
21
0.151181102362
0
LINE
5
175
100
AcDbEntity
8
Reference
6
ByLayer
62
256
370
-1
100
AcDbLine
10
18.5157086614
20
0.151181102362
11
18.503503937
21
0.160039370079
0
LINE
5
176
100
AcDbEntity
8
Reference
6
ByLayer
62
256
370
-1
100
AcDbLine
10
18.503503937
20
0.160039370079
11
18.492519685
21
0.170354330709
0
LINE
5
177
100
AcDbEntity
8
Reference
6
ByLayer
62
256
370
-1
100
AcDbLine
10
18.492519685
20
0.170354330709
11
18.4829133858
21
0.181968503937
0
LINE
5
178
100
AcDbEntity
8
Reference
6
ByLayer
62
256
370
-1
100
AcDbLine
10
18.4829133858
20
0.181968503937
11
18.4748425197
21
0.19468503937
0
LINE
5
179
100
AcDbEntity
8
Reference
6
ByLayer
62
256
370
-1
100
AcDbLine
10
18.4748425197
20
0.19468503937
11
18.4684251969
21
0.208307086614
0
LINE
5
17A
100
AcDbEntity
8
Reference
6
ByLayer
62
256
370
-1
100
AcDbLine
10
18.4684251969
20
0.208307086614
11
18.4637795276
21
0.222637795276
0
LINE
5
17B
100
AcDbEntity
8
Reference
6
ByLayer
62
256
370
-1
100
AcDbLine
10
18.4637795276
20
0.222637795276
11
18.4609448819
21
0.237440944882
0
LINE
5
17C
100
AcDbEntity
8
Reference
6
ByLayer
62
256
370
-1
100
AcDbLine
10
18.4609448819
20
0.237440944882
11
18.46
21
0.252480314961
0
LINE
5
17D
100
AcDbEntity
8
Reference
6
ByLayer
62
256
370
-1
100
AcDbLine
10
18.46
20
1.48751968504
11
18.4609448819
21
1.50255905512
0
LINE
5
17E
100
AcDbEntity
8
Reference
6
ByLayer
62
256
370
-1
100
AcDbLine
10
18.4609448819
20
1.50255905512
11
18.4637795276
21
1.51736220472
0
LINE
5
17F
100
AcDbEntity
8
Reference
6
ByLayer
62
256
370
-1
100
AcDbLine
10
18.4637795276
20
1.51736220472
11
18.4684251969
21
1.53169291339
0
LINE
5
180
100
AcDbEntity
8
Reference
6
ByLayer
62
256
370
-1
100
AcDbLine
10
18.4684251969
20
1.53169291339
11
18.4748425197
21
1.54531496063
0
LINE
5
181
100
AcDbEntity
8
Reference
6
ByLayer
62
256
370
-1
100
AcDbLine
10
18.4748425197
20
1.54531496063
11
18.4829133858
21
1.55803149606
0
LINE
5
182
100
AcDbEntity
8
Reference
6
ByLayer
62
256
370
-1
100
AcDbLine
10
18.4829133858
20
1.55803149606
11
18.492519685
21
1.56964566929
0
LINE
5
183
100
AcDbEntity
8
Reference
6
ByLayer
62
256
370
-1
100
AcDbLine
10
18.492519685
20
1.56964566929
11
18.503503937
21
1.57996062992
0
LINE
5
184
100
AcDbEntity
8
Reference
6
ByLayer
62
256
370
-1
100
AcDbLine
10
18.503503937
20
1.57996062992
11
18.5157086614
21
1.58881889764
0
LINE
5
185
100
AcDbEntity
8
Reference
6
ByLayer
62
256
370
-1
100
AcDbLine
10
18.5157086614
20
1.58881889764
11
18.5288976378
21
1.59606299213
0
LINE
5
186
100
AcDbEntity
8
Reference
6
ByLayer
62
256
370
-1
100
AcDbLine
10
18.5288976378
20
1.59606299213
11
18.5429133858
21
1.60161417323
0
LINE
5
187
100
AcDbEntity
8
Reference
6
ByLayer
62
256
370
-1
100
AcDbLine
10
18.5429133858
20
1.60161417323
11
18.557519685
21
1.60539370079
0
LINE
5
188
100
AcDbEntity
8
Reference
6
ByLayer
62
256
370
-1
100
AcDbLine
10
18.557519685
20
1.60539370079
11
18.572480315
21
1.60724409449
0
LINE
5
189
100
AcDbEntity
8
Reference
6
ByLayer
62
256
370
-1
100
AcDbLine
10
18.572480315
20
1.60724409449
11
18.58
21
1.60724409449
0
LINE
5
18A
100
AcDbEntity
8
Reference
6
ByLayer
62
256
370
-1
100
AcDbLine
10
18.58
20
1.60724409449
11
18.58
21
1.60748031496
0
LINE
5
18B
100
AcDbEntity
8
Reference
6
ByLayer
62
256
370
-1
100
AcDbLine
10
18.58
20
1.60748031496
11
18.73
21
1.60748031496
0
LINE
5
18C
100
AcDbEntity
8
Reference
6
ByLayer
62
256
370
-1
100
AcDbLine
10
18.73
20
1.60748031496
11
18.73
21
1.60724409449
0
LINE
5
18D
100
AcDbEntity
8
Reference
6
ByLayer
62
256
370
-1
100
AcDbLine
10
18.73
20
1.60724409449
11
18.737519685
21
1.60724409449
0
LINE
5
18E
100
AcDbEntity
8
Reference
6
ByLayer
62
256
370
-1
100
AcDbLine
10
18.737519685
20
1.60724409449
11
18.752480315
21
1.60539370079
0
LINE
5
18F
100
AcDbEntity
8
Reference
6
ByLayer
62
256
370
-1
100
AcDbLine
10
18.752480315
20
1.60539370079
11
18.7670866142
21
1.60161417323
0
LINE
5
190
100
AcDbEntity
8
Reference
6
ByLayer
62
256
370
-1
100
AcDbLine
10
18.7670866142
20
1.60161417323
11
18.7811023622
21
1.59606299213
0
LINE
5
191
100
AcDbEntity
8
Reference
6
ByLayer
62
256
370
-1
100
AcDbLine
10
18.7811023622
20
1.59606299213
11
18.7942913386
21
1.58881889764
0
LINE
5
192
100
AcDbEntity
8
Reference
6
ByLayer
62
256
370
-1
100
AcDbLine
10
18.7942913386
20
1.58881889764
11
18.806496063
21
1.57996062992
0
LINE
5
193
100
AcDbEntity
8
Reference
6
ByLayer
62
256
370
-1
100
AcDbLine
10
18.806496063
20
1.57996062992
11
18.817480315
21
1.56964566929
0
LINE
5
194
100
AcDbEntity
8
Reference
6
ByLayer
62
256
370
-1
100
AcDbLine
10
18.817480315
20
1.56964566929
11
18.8270866142
21
1.55803149606
0
LINE
5
195
100
AcDbEntity
8
Reference
6
ByLayer
62
256
370
-1
100
AcDbLine
10
18.8270866142
20
1.55803149606
11
18.8351574803
21
1.54531496063
0
LINE
5
196
100
AcDbEntity
8
Reference
6
ByLayer
62
256
370
-1
100
AcDbLine
10
18.8351574803
20
1.54531496063
11
18.8415748031
21
1.53169291339
0
LINE
5
197
100
AcDbEntity
8
Reference
6
ByLayer
62
256
370
-1
100
AcDbLine
10
18.8415748031
20
1.53169291339
11
18.8462204724
21
1.51736220472
0
LINE
5
198
100
AcDbEntity
8
Reference
6
ByLayer
62
256
370
-1
100
AcDbLine
10
18.8462204724
20
1.51736220472
11
18.8490551181
21
1.50255905512
0
LINE
5
199
100
AcDbEntity
8
Reference
6
ByLayer
62
256
370
-1
100
AcDbLine
10
18.8490551181
20
1.50255905512
11
18.85
21
1.48751968504
0
LINE
5
19A
100
AcDbEntity
8
Reference
6
ByLayer
62
256
370
-1
100
AcDbLine
10
18.85
20
1.48751968504
11
18.8490551181
21
1.47244094488
0
LINE
5
19B
100
AcDbEntity
8
Reference
6
ByLayer
62
256
370
-1
100
AcDbLine
10
18.8490551181
20
1.47244094488
11
18.8462204724
21
1.45763779528
0
LINE
5
19C
100
AcDbEntity
8
Reference
6
ByLayer
62
256
370
-1
100
AcDbLine
10
18.8462204724
20
1.45763779528
11
18.8415748031
21
1.44330708661
0
LINE
5
19D
100
AcDbEntity
8
Reference
6
ByLayer
62
256
370
-1
100
AcDbLine
10
18.8415748031
20
1.44330708661
11
18.8351574803
21
1.42968503937
0
LINE
5
19E
100
AcDbEntity
8
Reference
6
ByLayer
62
256
370
-1
100
AcDbLine
10
18.8351574803
20
1.42968503937
11
18.8270866142
21
1.41696850394
0
LINE
5
19F
100
AcDbEntity
8
Reference
6
ByLayer
62
256
370
-1
100
AcDbLine
10
18.8270866142
20
1.41696850394
11
18.817480315
21
1.40535433071
0
LINE
5
1A0
100
AcDbEntity
8
Reference
6
ByLayer
62
256
370
-1
100
AcDbLine
10
18.817480315
20
1.40535433071
11
18.806496063
21
1.39503937008
0
LINE
5
1A1
100
AcDbEntity
8
Reference
6
ByLayer
62
256
370
-1
100
AcDbLine
10
18.806496063
20
1.39503937008
11
18.7942913386
21
1.38618110236
0
LINE
5
1A2
100
AcDbEntity
8
Reference
6
ByLayer
62
256
370
-1
100
AcDbLine
10
18.7942913386
20
1.38618110236
11
18.7811023622
21
1.37893700787
0
LINE
5
1A3
100
AcDbEntity
8
Reference
6
ByLayer
62
256
370
-1
100
AcDbLine
10
18.7811023622
20
1.37893700787
11
18.7670866142
21
1.37338582677
0
LINE
5
1A4
100
AcDbEntity
8
Reference
6
ByLayer
62
256
370
-1
100
AcDbLine
10
18.7670866142
20
1.37338582677
11
18.752480315
21
1.36960629921
0
LINE
5
1A5
100
AcDbEntity
8
Reference
6
ByLayer
62
256
370
-1
100
AcDbLine
10
18.752480315
20
1.36960629921
11
18.737519685
21
1.36775590551
0
LINE
5
1A6
100
AcDbEntity
8
Reference
6
ByLayer
62
256
370
-1
100
AcDbLine
10
18.737519685
20
1.36775590551
11
18.73
21
1.36775590551
0
LINE
5
1A7
100
AcDbEntity
8
Reference
6
ByLayer
62
256
370
-1
100
AcDbLine
10
18.73
20
1.36775590551
11
18.73
21
1.36751968504
0
LINE
5
1A8
100
AcDbEntity
8
Reference
6
ByLayer
62
256
370
-1
100
AcDbLine
10
18.73
20
1.36751968504
11
18.58
21
1.36751968504
0
LINE
5
1A9
100
AcDbEntity
8
Reference
6
ByLayer
62
256
370
-1
100
AcDbLine
10
18.58
20
1.36751968504
11
18.58
21
1.36775590551
0
LINE
5
1AA
100
AcDbEntity
8
Reference
6
ByLayer
62
256
370
-1
100
AcDbLine
10
18.58
20
1.36775590551
11
18.572480315
21
1.36775590551
0
LINE
5
1AB
100
AcDbEntity
8
Reference
6
ByLayer
62
256
370
-1
100
AcDbLine
10
18.572480315
20
1.36775590551
11
18.557519685
21
1.36960629921
0
LINE
5
1AC
100
AcDbEntity
8
Reference
6
ByLayer
62
256
370
-1
100
AcDbLine
10
18.557519685
20
1.36960629921
11
18.5429133858
21
1.37338582677
0
LINE
5
1AD
100
AcDbEntity
8
Reference
6
ByLayer
62
256
370
-1
100
AcDbLine
10
18.5429133858
20
1.37338582677
11
18.5288976378
21
1.37893700787
0
LINE
5
1AE
100
AcDbEntity
8
Reference
6
ByLayer
62
256
370
-1
100
AcDbLine
10
18.5288976378
20
1.37893700787
11
18.5157086614
21
1.38618110236
0
LINE
5
1AF
100
AcDbEntity
8
Reference
6
ByLayer
62
256
370
-1
100
AcDbLine
10
18.5157086614
20
1.38618110236
11
18.503503937
21
1.39503937008
0
LINE
5
1B0
100
AcDbEntity
8
Reference
6
ByLayer
62
256
370
-1
100
AcDbLine
10
18.503503937
20
1.39503937008
11
18.492519685
21
1.40535433071
0
LINE
5
1B1
100
AcDbEntity
8
Reference
6
ByLayer
62
256
370
-1
100
AcDbLine
10
18.492519685
20
1.40535433071
11
18.4829133858
21
1.41696850394
0
LINE
5
1B2
100
AcDbEntity
8
Reference
6
ByLayer
62
256
370
-1
100
AcDbLine
10
18.4829133858
20
1.41696850394
11
18.4748425197
21
1.42968503937
0
LINE
5
1B3
100
AcDbEntity
8
Reference
6
ByLayer
62
256
370
-1
100
AcDbLine
10
18.4748425197
20
1.42968503937
11
18.4684251969
21
1.44330708661
0
LINE
5
1B4
100
AcDbEntity
8
Reference
6
ByLayer
62
256
370
-1
100
AcDbLine
10
18.4684251969
20
1.44330708661
11
18.4637795276
21
1.45763779528
0
LINE
5
1B5
100
AcDbEntity
8
Reference
6
ByLayer
62
256
370
-1
100
AcDbLine
10
18.4637795276
20
1.45763779528
11
18.4609448819
21
1.47244094488
0
LINE
5
1B6
100
AcDbEntity
8
Reference
6
ByLayer
62
256
370
-1
100
AcDbLine
10
18.4609448819
20
1.47244094488
11
18.46
21
1.48751968504
0
LINE
5
1B7
100
AcDbEntity
8
Reference
6
ByLayer
62
256
370
-1
100
AcDbLine
10
0.27
20
1.60748031496
11
0.42
21
1.60748031496
0
LINE
5
1B8
100
AcDbEntity
8
Fixture Slots
6
ByLayer
62
256
370
-1
100
AcDbLine
10
1.5
20
0.16
11
17.5
21
0.16
0
LINE
5
1B9
100
AcDbEntity
8
Fixture Slots
6
ByLayer
62
256
370
-1
100
AcDbLine
10
1.5
20
1.58
11
17.5
21
1.58
0
CIRCLE
5
1BA
100
AcDbEntity
8
Fixture Hole 8-32 Insert
6
ByLayer
62
256
370
-1
100
AcDbCircle
10
0.345036933684
20
1.4874409158
40
0.0393700787402
0
CIRCLE
5
1BB
100
AcDbEntity
8
Fixture Hole 8-32 Insert
6
ByLayer
62
256
370
-1
100
AcDbCircle
10
0.345036970095
20
0.252440973992
40
0.0393700787402
0
CIRCLE
5
1BC
100
AcDbEntity
8
Fixture Hole 8-32 Insert
6
ByLayer
62
256
370
-1
100
AcDbCircle
10
18.6567951523
20
1.49048705581
40
0.0393700787402
0
CIRCLE
5
1BD
100
AcDbEntity
8
Fixture Hole 8-32 Insert
6
ByLayer
62
256
370
-1
100
AcDbCircle
10
18.655
20
0.2525
40
0.0393700787402
0
ENDBLK
5
65
330
63
100
AcDbEntity
8
0
100
AcDbBlockEnd
0
BLOCK
5
67
330
66
100
AcDbEntity
8
0
100
AcDbBlockBegin
2
back-1
70
0
10
0
20
0
3
back-1
1

0
LINE
5
1BE
100
AcDbEntity
8
Boundary
6
ByLayer
62
256
370
-1
100
AcDbLine
10
0
20
0
11
0
21
1.46
0
CIRCLE
5
1BF
100
AcDbEntity
8
DC Jack Hole
6
ByLayer
62
256
370
-1
100
AcDbCircle
10
4.07751968504
20
0.78799706885
40
0.218500613921
0
CIRCLE
5
1C0
100
AcDbEntity
8
4-40 Tap Hole
6
ByLayer
62
256
370
-1
100
AcDbCircle
10
11.2815354331
20
0.787974787261
40
0.061403210791
0
CIRCLE
5
1C1
100
AcDbEntity
8
4-40 Tap Hole
6
ByLayer
62
256
370
-1
100
AcDbCircle
10
13.1335114687
20
0.788011811024
40
0.0614215121771
0
LINE
5
1C2
100
AcDbEntity
8
Cutout
6
ByLayer
62
256
370
-1
100
AcDbLine
10
11.4004330709
20
0.520275590551
11
11.4004330709
21
1.05570866142
0
LINE
5
1C3
100
AcDbEntity
8
Cutout
6
ByLayer
62
256
370
-1
100
AcDbLine
10
13.0146062992
20
1.05570866142
11
13.0146062992
21
0.520275590551
0
LINE
5
1C4
100
AcDbEntity
8
Cutout
6
ByLayer
62
256
370
-1
100
AcDbLine
10
11.4004330709
20
1.05570866142
11
13.0146062992
21
1.05570866142
0
LINE
5
1C5
100
AcDbEntity
8
Cutout
6
ByLayer
62
256
370
-1
100
AcDbLine
10
11.4004330709
20
0.520275590551
11
13.0146062992
21
0.520275590551
0
CIRCLE
5
1C6
100
AcDbEntity
8
Fixture Hole 8-32 Insert
6
ByLayer
62
256
370
-1
100
AcDbCircle
10
0.1495
20
0.1265
40
0.1172
0
CIRCLE
5
1C7
100
AcDbEntity
8
Fixture Hole 8-32 Insert
6
ByLayer
62
256
370
-1
100
AcDbCircle
10
0.1495
20
1.3335
40
0.1172
0
LINE
5
1C8
100
AcDbEntity
8
Boundary
6
ByLayer
62
256
370
-1
100
AcDbLine
10
16.8438
20
1.46
11
16.8438
21
0
0
LINE
5
1C9
100
AcDbEntity
8
Boundary
6
ByLayer
62
256
370
-1
100
AcDbLine
10
16.8438
20
0
11
0
21
0
0
LINE
5
1CA
100
AcDbEntity
8
Boundary
6
ByLayer
62
256
370
-1
100
AcDbLine
10
0
20
1.46
11
16.8438
21
1.46
0
CIRCLE
5
1CB
100
AcDbEntity
8
Fixture Hole 8-32 Insert
6
ByLayer
62
256
370
-1
100
AcDbCircle
10
16.6943
20
0.1265
40
0.1172
0
CIRCLE
5
1CC
100
AcDbEntity
8
Fixture Hole 8-32 Insert
6
ByLayer
62
256
370
-1
100
AcDbCircle
10
16.6943
20
1.3335
40
0.1172
0
LINE
5
1CD
100
AcDbEntity
8
Fixture Pocket
6
ByLayer
62
256
370
-1
100
AcDbLine
10
7
20
1.8
11
8.2
21
1.8
0
LINE
5
1CE
100
AcDbEntity
8
Fixture Pocket
6
ByLayer
62
256
370
-1
100
AcDbLine
10
8.2
20
1.8
11
8.2
21
1
0
LINE
5
1CF
100
AcDbEntity
8
Fixture Pocket
6
ByLayer
62
256
370
-1
100
AcDbLine
10
8.2
20
1
11
7
21
1
0
LINE
5
1D0
100
AcDbEntity
8
Fixture Pocket
6
ByLayer
62
256
370
-1
100
AcDbLine
10
7
20
1
11
7
21
1.8
0
ENDBLK
5
68
330
66
100
AcDbEntity
8
0
100
AcDbBlockEnd
0
ENDSEC
0
SECTION
2
ENTITIES
0
LINE
5
1D1
100
AcDbEntity
8
Zeroing Pocket
6
ByLayer
62
256
370
-1
100
AcDbLine
10
0
20
2
11
2
21
2
0
LINE
5
1D2
100
AcDbEntity
8
Zeroing Pocket
6
ByLayer
62
256
370
-1
100
AcDbLine
10
2
20
2
11
2
21
0
0
LINE
5
1D3
100
AcDbEntity
8
Zeroing Pocket
6
ByLayer
62
256
370
-1
100
AcDbLine
10
2
20
0
11
0
21
0
0
LINE
5
1D4
100
AcDbEntity
8
Zeroing Pocket
6
ByLayer
62
256
370
-1
100
AcDbLine
10
0
20
0
11
0
21
2
0
CIRCLE
5
1D5
100
AcDbEntity
8
DC Jack Hole
6
ByLayer
62
256
370
-1
100
AcDbCircle
10
3.67200293115
20
4.07751968504
40
0.218500613921
0
CIRCLE
5
1D6
100
AcDbEntity
8
4-40 Tap Hole
6
ByLayer
62
256
370
-1
100
AcDbCircle
10
3.67202521274
20
11.2815354331
40
0.061403210791
0
CIRCLE
5
1D7
100
AcDbEntity
8
4-40 Tap Hole
6
ByLayer
62
256
370
-1
100
AcDbCircle
10
3.67198818898
20
13.1335114687
40
0.0614215121771
0
CIRCLE
5
1D8
100
AcDbEntity
8
Fixture Hole 8-32 Insert
6
ByLayer
62
256
370
-1
100
AcDbCircle
10
4.3335
20
0.1495
40
0.1172
0
CIRCLE
5
1D9
100
AcDbEntity
8
Fixture Hole 8-32 Insert
6
ByLayer
62
256
370
-1
100
AcDbCircle
10
3.1265
20
0.1495
40
0.1172
0
CIRCLE
5
1DA
100
AcDbEntity
8
Fixture Hole 8-32 Insert
6
ByLayer
62
256
370
-1
100
AcDbCircle
10
4.3335
20
16.6943
40
0.1172
0
CIRCLE
5
1DB
100
AcDbEntity
8
Fixture Hole 8-32 Insert
6
ByLayer
62
256
370
-1
100
AcDbCircle
10
3.1265
20
16.6943
40
0.1172
0
LINE
5
1DC
100
AcDbEntity
8
Fixture Pocket
6
ByLayer
62
256
370
-1
100
AcDbLine
10
2.66
20
7
11
2.66
21
8.2
0
LINE
5
1DD
100
AcDbEntity
8
Fixture Pocket
6
ByLayer
62
256
370
-1
100
AcDbLine
10
2.66
20
8.2
11
3.46
21
8.2
0
LINE
5
1DE
100
AcDbEntity
8
Fixture Pocket
6
ByLayer
62
256
370
-1
100
AcDbLine
10
3.46
20
8.2
11
3.46
21
7
0
LINE
5
1DF
100
AcDbEntity
8
Fixture Pocket
6
ByLayer
62
256
370
-1
100
AcDbLine
10
3.46
20
7
11
2.66
21
7
0
CIRCLE
5
1E0
100
AcDbEntity
8
BNC Hole
6
ByLayer
62
256
370
-1
100
AcDbCircle
10
6.87489166358
20
2.12999684441
40
0.265754445816
0
CIRCLE
5
1E1
100
AcDbEntity
8
BNC Hole
6
ByLayer
62
256
370
-1
100
AcDbCircle
10
6.87489832738
20
2.93001581713
40
0.265739101021
0
CIRCLE
5
1E2
100
AcDbEntity
8
BNC Hole
6
ByLayer
62
256
370
-1
100
AcDbCircle
10
6.87488454411
20
3.72999731499
40
0.265759184349
0
CIRCLE
5
1E3
100
AcDbEntity
8
BNC Hole
6
ByLayer
62
256
370
-1
100
AcDbCircle
10
6.87489249214
20
4.52999716936
40
0.265751930664
0
CIRCLE
5
1E4
100
AcDbEntity
8
BNC Hole
6
ByLayer
62
256
370
-1
100
AcDbCircle
10
6.87487694826
20
5.3299995811
40
0.265748450441
0
CIRCLE
5
1E5
100
AcDbEntity
8
BNC Hole
6
ByLayer
62
256
370
-1
100
AcDbCircle
10
6.87489998929
20
6.1299834009
40
0.265738117019
0
CIRCLE
5
1E6
100
AcDbEntity
8
BNC Hole
6
ByLayer
62
256
370
-1
100
AcDbCircle
10
6.87488312783
20
6.93
40
0.26574345744
0
CIRCLE
5
1E7
100
AcDbEntity
8
BNC Hole
6
ByLayer
62
256
370
-1
100
AcDbCircle
10
6.87489243738
20
7.73000080547
40
0.265750416763
0
CIRCLE
5
1E8
100
AcDbEntity
8
BNC Hole
6
ByLayer
62
256
370
-1
100
AcDbCircle
10
6.87489057757
20
8.53000399498
40
0.265753978674
0
CIRCLE
5
1E9
100
AcDbEntity
8
BNC Hole
6
ByLayer
62
256
370
-1
100
AcDbCircle
10
6.87489240666
20
9.33000687726
40
0.26575134844
0
CIRCLE
5
1EA
100
AcDbEntity
8
4-40 Tap Hole
6
ByLayer
62
256
370
-1
100
AcDbCircle
10
6.27000455561
20
10.6099822513
40
0.0439975809454
0
CIRCLE
5
1EB
100
AcDbEntity
8
4-40 Tap Hole
6
ByLayer
62
256
370
-1
100
AcDbCircle
10
7.46999947479
20
9.81000615873
40
0.0440017712647
0
CIRCLE
5
1EC
100
AcDbEntity
8
4-40 Tap Hole
6
ByLayer
62
256
370
-1
100
AcDbCircle
10
7.47001096556
20
10.6099936165
40
0.0439909117484
0
CIRCLE
5
1ED
100
AcDbEntity
8
4-40 Tap Hole
6
ByLayer
62
256
370
-1
100
AcDbCircle
10
6.26999606299
20
9.8099988189
40
0.0440066929134
0
LINE
5
1EE
100
AcDbEntity
8
Reference
6
ByLayer
62
256
370
-1
100
AcDbLine
10
7.48751968504
20
0.15
11
7.47244094488
21
0.15094488189
0
LINE
5
1EF
100
AcDbEntity
8
Reference
6
ByLayer
62
256
370
-1
100
AcDbLine
10
7.47244094488
20
0.15094488189
11
7.45763779528
21
0.153779527559
0
LINE
5
1F0
100
AcDbEntity
8
Reference
6
ByLayer
62
256
370
-1
100
AcDbLine
10
7.45763779528
20
0.153779527559
11
7.44330708661
21
0.15842519685
0
LINE
5
1F1
100
AcDbEntity
8
Reference
6
ByLayer
62
256
370
-1
100
AcDbLine
10
7.44330708661
20
0.15842519685
11
7.42968503937
21
0.164842519685
0
LINE
5
1F2
100
AcDbEntity
8
Reference
6
ByLayer
62
256
370
-1
100
AcDbLine
10
7.42968503937
20
0.164842519685
11
7.41696850394
21
0.172913385827
0
LINE
5
1F3
100
AcDbEntity
8
Reference
6
ByLayer
62
256
370
-1
100
AcDbLine
10
7.41696850394
20
0.172913385827
11
7.40535433071
21
0.182519685039
0
LINE
5
1F4
100
AcDbEntity
8
Reference
6
ByLayer
62
256
370
-1
100
AcDbLine
10
7.40535433071
20
0.182519685039
11
7.39503937008
21
0.193503937008
0
LINE
5
1F5
100
AcDbEntity
8
Reference
6
ByLayer
62
256
370
-1
100
AcDbLine
10
7.39503937008
20
0.193503937008
11
7.38618110236
21
0.205708661417
0
LINE
5
1F6
100
AcDbEntity
8
Reference
6
ByLayer
62
256
370
-1
100
AcDbLine
10
7.38618110236
20
0.205708661417
11
7.37893700787
21
0.218897637795
0
LINE
5
1F7
100
AcDbEntity
8
Reference
6
ByLayer
62
256
370
-1
100
AcDbLine
10
7.37893700787
20
0.218897637795
11
7.37338582677
21
0.232913385827
0
LINE
5
1F8
100
AcDbEntity
8
Reference
6
ByLayer
62
256
370
-1
100
AcDbLine
10
7.37338582677
20
0.232913385827
11
7.36960629921
21
0.247519685039
0
LINE
5
1F9
100
AcDbEntity
8
Reference
6
ByLayer
62
256
370
-1
100
AcDbLine
10
7.36960629921
20
0.247519685039
11
7.36775590551
21
0.262480314961
0
LINE
5
1FA
100
AcDbEntity
8
Reference
6
ByLayer
62
256
370
-1
100
AcDbLine
10
7.36775590551
20
0.262480314961
11
7.36775590551
21
0.27
0
LINE
5
1FB
100
AcDbEntity
8
Reference
6
ByLayer
62
256
370
-1
100
AcDbLine
10
7.36775590551
20
0.27
11
7.36751968504
21
0.27
0
LINE
5
1FC
100
AcDbEntity
8
Reference
6
ByLayer
62
256
370
-1
100
AcDbLine
10
7.36751968504
20
0.27
11
7.36751968504
21
0.42
0
LINE
5
1FD
100
AcDbEntity
8
Reference
6
ByLayer
62
256
370
-1
100
AcDbLine
10
7.36751968504
20
0.42
11
7.36775590551
21
0.42
0
LINE
5
1FE
100
AcDbEntity
8
Reference
6
ByLayer
62
256
370
-1
100
AcDbLine
10
7.36775590551
20
0.42
11
7.36775590551
21
0.427519685039
0
LINE
5
1FF
100
AcDbEntity
8
Reference
6
ByLayer
62
256
370
-1
100
AcDbLine
10
7.36775590551
20
0.427519685039
11
7.36960629921
21
0.442480314961
0
LINE
5
200
100
AcDbEntity
8
Reference
6
ByLayer
62
256
370
-1
100
AcDbLine
10
7.36960629921
20
0.442480314961
11
7.37338582677
21
0.457086614173
0
LINE
5
201
100
AcDbEntity
8
Reference
6
ByLayer
62
256
370
-1
100
AcDbLine
10
7.37338582677
20
0.457086614173
11
7.37893700787
21
0.471102362205
0
LINE
5
202
100
AcDbEntity
8
Reference
6
ByLayer
62
256
370
-1
100
AcDbLine
10
7.37893700787
20
0.471102362205
11
7.38618110236
21
0.484291338583
0
LINE
5
203
100
AcDbEntity
8
Reference
6
ByLayer
62
256
370
-1
100
AcDbLine
10
7.38618110236
20
0.484291338583
11
7.39503937008
21
0.496496062992
0
LINE
5
204
100
AcDbEntity
8
Reference
6
ByLayer
62
256
370
-1
100
AcDbLine
10
7.39503937008
20
0.496496062992
11
7.40535433071
21
0.507480314961
0
LINE
5
205
100
AcDbEntity
8
Reference
6
ByLayer
62
256
370
-1
100
AcDbLine
10
7.40535433071
20
0.507480314961
11
7.41696850394
21
0.517086614173
0
LINE
5
206
100
AcDbEntity
8
Reference
6
ByLayer
62
256
370
-1
100
AcDbLine
10
7.41696850394
20
0.517086614173
11
7.42968503937
21
0.525157480315
0
LINE
5
207
100
AcDbEntity
8
Reference
6
ByLayer
62
256
370
-1
100
AcDbLine
10
7.42968503937
20
0.525157480315
11
7.44330708661
21
0.53157480315
0
LINE
5
208
100
AcDbEntity
8
Reference
6
ByLayer
62
256
370
-1
100
AcDbLine
10
7.44330708661
20
0.53157480315
11
7.45763779528
21
0.536220472441
0
LINE
5
209
100
AcDbEntity
8
Reference
6
ByLayer
62
256
370
-1
100
AcDbLine
10
7.45763779528
20
0.536220472441
11
7.47244094488
21
0.53905511811
0
LINE
5
20A
100
AcDbEntity
8
Reference
6
ByLayer
62
256
370
-1
100
AcDbLine
10
7.47244094488
20
0.53905511811
11
7.48751968504
21
0.54
0
LINE
5
20B
100
AcDbEntity
8
Reference
6
ByLayer
62
256
370
-1
100
AcDbLine
10
7.48751968504
20
0.54
11
7.50255905512
21
0.53905511811
0
LINE
5
20C
100
AcDbEntity
8
Reference
6
ByLayer
62
256
370
-1
100
AcDbLine
10
7.50255905512
20
0.53905511811
11
7.51736220472
21
0.536220472441
0
LINE
5
20D
100
AcDbEntity
8
Reference
6
ByLayer
62
256
370
-1
100
AcDbLine
10
7.51736220472
20
0.536220472441
11
7.53169291339
21
0.53157480315
0
LINE
5
20E
100
AcDbEntity
8
Reference
6
ByLayer
62
256
370
-1
100
AcDbLine
10
7.53169291339
20
0.53157480315
11
7.54531496063
21
0.525157480315
0
LINE
5
20F
100
AcDbEntity
8
Reference
6
ByLayer
62
256
370
-1
100
AcDbLine
10
7.54531496063
20
0.525157480315
11
7.55803149606
21
0.517086614173
0
LINE
5
210
100
AcDbEntity
8
Reference
6
ByLayer
62
256
370
-1
100
AcDbLine
10
7.55803149606
20
0.517086614173
11
7.56964566929
21
0.507480314961
0
LINE
5
211
100
AcDbEntity
8
Reference
6
ByLayer
62
256
370
-1
100
AcDbLine
10
7.56964566929
20
0.507480314961
11
7.57996062992
21
0.496496062992
0
LINE
5
212
100
AcDbEntity
8
Reference
6
ByLayer
62
256
370
-1
100
AcDbLine
10
7.57996062992
20
0.496496062992
11
7.58881889764
21
0.484291338583
0
LINE
5
213
100
AcDbEntity
8
Reference
6
ByLayer
62
256
370
-1
100
AcDbLine
10
7.58881889764
20
0.484291338583
11
7.59606299213
21
0.471102362205
0
LINE
5
214
100
AcDbEntity
8
Reference
6
ByLayer
62
256
370
-1
100
AcDbLine
10
7.59606299213
20
0.471102362205
11
7.60161417323
21
0.457086614173
0
LINE
5
215
100
AcDbEntity
8
Reference
6
ByLayer
62
256
370
-1
100
AcDbLine
10
7.60161417323
20
0.457086614173
11
7.60539370079
21
0.442480314961
0
LINE
5
216
100
AcDbEntity
8
Reference
6
ByLayer
62
256
370
-1
100
AcDbLine
10
7.60539370079
20
0.442480314961
11
7.60724409449
21
0.427519685039
0
LINE
5
217
100
AcDbEntity
8
Reference
6
ByLayer
62
256
370
-1
100
AcDbLine
10
7.60724409449
20
0.427519685039
11
7.60724409449
21
0.42
0
LINE
5
218
100
AcDbEntity
8
Reference
6
ByLayer
62
256
370
-1
100
AcDbLine
10
7.60724409449
20
0.42
11
7.60748031496
21
0.42
0
LINE
5
219
100
AcDbEntity
8
Reference
6
ByLayer
62
256
370
-1
100
AcDbLine
10
7.60748031496
20
0.42
11
7.60748031496
21
0.27
0
LINE
5
21A
100
AcDbEntity
8
Reference
6
ByLayer
62
256
370
-1
100
AcDbLine
10
7.60748031496
20
0.27
11
7.60724409449
21
0.27
0
LINE
5
21B
100
AcDbEntity
8
Reference
6
ByLayer
62
256
370
-1
100
AcDbLine
10
7.60724409449
20
0.27
11
7.60724409449
21
0.262480314961
0
LINE
5
21C
100
AcDbEntity
8
Reference
6
ByLayer
62
256
370
-1
100
AcDbLine
10
7.60724409449
20
0.262480314961
11
7.60539370079
21
0.247519685039
0
LINE
5
21D
100
AcDbEntity
8
Reference
6
ByLayer
62
256
370
-1
100
AcDbLine
10
7.60539370079
20
0.247519685039
11
7.60161417323
21
0.232913385827
0
LINE
5
21E
100
AcDbEntity
8
Reference
6
ByLayer
62
256
370
-1
100
AcDbLine
10
7.60161417323
20
0.232913385827
11
7.59606299213
21
0.218897637795
0
LINE
5
21F
100
AcDbEntity
8
Reference
6
ByLayer
62
256
370
-1
100
AcDbLine
10
7.59606299213
20
0.218897637795
11
7.58881889764
21
0.205708661417
0
LINE
5
220
100
AcDbEntity
8
Reference
6
ByLayer
62
256
370
-1
100
AcDbLine
10
7.58881889764
20
0.205708661417
11
7.57996062992
21
0.193503937008
0
LINE
5
221
100
AcDbEntity
8
Reference
6
ByLayer
62
256
370
-1
100
AcDbLine
10
7.57996062992
20
0.193503937008
11
7.56964566929
21
0.182519685039
0
LINE
5
222
100
AcDbEntity
8
Reference
6
ByLayer
62
256
370
-1
100
AcDbLine
10
7.56964566929
20
0.182519685039
11
7.55803149606
21
0.172913385827
0
LINE
5
223
100
AcDbEntity
8
Reference
6
ByLayer
62
256
370
-1
100
AcDbLine
10
7.55803149606
20
0.172913385827
11
7.54531496063
21
0.164842519685
0
LINE
5
224
100
AcDbEntity
8
Reference
6
ByLayer
62
256
370
-1
100
AcDbLine
10
7.54531496063
20
0.164842519685
11
7.53169291339
21
0.15842519685
0
LINE
5
225
100
AcDbEntity
8
Reference
6
ByLayer
62
256
370
-1
100
AcDbLine
10
7.53169291339
20
0.15842519685
11
7.51736220472
21
0.153779527559
0
LINE
5
226
100
AcDbEntity
8
Reference
6
ByLayer
62
256
370
-1
100
AcDbLine
10
7.51736220472
20
0.153779527559
11
7.50255905512
21
0.15094488189
0
LINE
5
227
100
AcDbEntity
8
Reference
6
ByLayer
62
256
370
-1
100
AcDbLine
10
7.50255905512
20
0.15094488189
11
7.48751968504
21
0.15
0
LINE
5
228
100
AcDbEntity
8
Reference
6
ByLayer
62
256
370
-1
100
AcDbLine
10
6.25248031496
20
0.15
11
6.23744094488
21
0.15094488189
0
LINE
5
229
100
AcDbEntity
8
Reference
6
ByLayer
62
256
370
-1
100
AcDbLine
10
6.23744094488
20
0.15094488189
11
6.22263779528
21
0.153779527559
0
LINE
5
22A
100
AcDbEntity
8
Reference
6
ByLayer
62
256
370
-1
100
AcDbLine
10
6.22263779528
20
0.153779527559
11
6.20830708661
21
0.15842519685
0
LINE
5
22B
100
AcDbEntity
8
Reference
6
ByLayer
62
256
370
-1
100
AcDbLine
10
6.20830708661
20
0.15842519685
11
6.19468503937
21
0.164842519685
0
LINE
5
22C
100
AcDbEntity
8
Reference
6
ByLayer
62
256
370
-1
100
AcDbLine
10
6.19468503937
20
0.164842519685
11
6.18196850394
21
0.172913385827
0
LINE
5
22D
100
AcDbEntity
8
Reference
6
ByLayer
62
256
370
-1
100
AcDbLine
10
6.18196850394
20
0.172913385827
11
6.17035433071
21
0.182519685039
0
LINE
5
22E
100
AcDbEntity
8
Reference
6
ByLayer
62
256
370
-1
100
AcDbLine
10
6.17035433071
20
0.182519685039
11
6.16003937008
21
0.193503937008
0
LINE
5
22F
100
AcDbEntity
8
Reference
6
ByLayer
62
256
370
-1
100
AcDbLine
10
6.16003937008
20
0.193503937008
11
6.15118110236
21
0.205708661417
0
LINE
5
230
100
AcDbEntity
8
Reference
6
ByLayer
62
256
370
-1
100
AcDbLine
10
6.15118110236
20
0.205708661417
11
6.14393700787
21
0.218897637795
0
LINE
5
231
100
AcDbEntity
8
Reference
6
ByLayer
62
256
370
-1
100
AcDbLine
10
6.14393700787
20
0.218897637795
11
6.13838582677
21
0.232913385827
0
LINE
5
232
100
AcDbEntity
8
Reference
6
ByLayer
62
256
370
-1
100
AcDbLine
10
6.13838582677
20
0.232913385827
11
6.13460629921
21
0.247519685039
0
LINE
5
233
100
AcDbEntity
8
Reference
6
ByLayer
62
256
370
-1
100
AcDbLine
10
6.13460629921
20
0.247519685039
11
6.13275590551
21
0.262480314961
0
LINE
5
234
100
AcDbEntity
8
Reference
6
ByLayer
62
256
370
-1
100
AcDbLine
10
6.13275590551
20
0.262480314961
11
6.13275590551
21
0.27
0
LINE
5
235
100
AcDbEntity
8
Reference
6
ByLayer
62
256
370
-1
100
AcDbLine
10
6.13275590551
20
0.27
11
6.13251968504
21
0.27
0
LINE
5
236
100
AcDbEntity
8
Reference
6
ByLayer
62
256
370
-1
100
AcDbLine
10
6.13251968504
20
0.42
11
6.13275590551
21
0.42
0
LINE
5
237
100
AcDbEntity
8
Reference
6
ByLayer
62
256
370
-1
100
AcDbLine
10
6.13275590551
20
0.42
11
6.13275590551
21
0.427519685039
0
LINE
5
238
100
AcDbEntity
8
Reference
6
ByLayer
62
256
370
-1
100
AcDbLine
10
6.13275590551
20
0.427519685039
11
6.13460629921
21
0.442480314961
0
LINE
5
239
100
AcDbEntity
8
Reference
6
ByLayer
62
256
370
-1
100
AcDbLine
10
6.13460629921
20
0.442480314961
11
6.13838582677
21
0.457086614173
0
LINE
5
23A
100
AcDbEntity
8
Reference
6
ByLayer
62
256
370
-1
100
AcDbLine
10
6.13838582677
20
0.457086614173
11
6.14393700787
21
0.471102362205
0
LINE
5
23B
100
AcDbEntity
8
Reference
6
ByLayer
62
256
370
-1
100
AcDbLine
10
6.14393700787
20
0.471102362205
11
6.15118110236
21
0.484291338583
0
LINE
5
23C
100
AcDbEntity
8
Reference
6
ByLayer
62
256
370
-1
100
AcDbLine
10
6.15118110236
20
0.484291338583
11
6.16003937008
21
0.496496062992
0
LINE
5
23D
100
AcDbEntity
8
Reference
6
ByLayer
62
256
370
-1
100
AcDbLine
10
6.16003937008
20
0.496496062992
11
6.17035433071
21
0.507480314961
0
LINE
5
23E
100
AcDbEntity
8
Reference
6
ByLayer
62
256
370
-1
100
AcDbLine
10
6.17035433071
20
0.507480314961
11
6.18196850394
21
0.517086614173
0
LINE
5
23F
100
AcDbEntity
8
Reference
6
ByLayer
62
256
370
-1
100
AcDbLine
10
6.18196850394
20
0.517086614173
11
6.19468503937
21
0.525157480315
0
LINE
5
240
100
AcDbEntity
8
Reference
6
ByLayer
62
256
370
-1
100
AcDbLine
10
6.19468503937
20
0.525157480315
11
6.20830708661
21
0.53157480315
0
LINE
5
241
100
AcDbEntity
8
Reference
6
ByLayer
62
256
370
-1
100
AcDbLine
10
6.20830708661
20
0.53157480315
11
6.22263779528
21
0.536220472441
0
LINE
5
242
100
AcDbEntity
8
Reference
6
ByLayer
62
256
370
-1
100
AcDbLine
10
6.22263779528
20
0.536220472441
11
6.23744094488
21
0.53905511811
0
LINE
5
243
100
AcDbEntity
8
Reference
6
ByLayer
62
256
370
-1
100
AcDbLine
10
6.23744094488
20
0.53905511811
11
6.25248031496
21
0.54
0
LINE
5
244
100
AcDbEntity
8
Reference
6
ByLayer
62
256
370
-1
100
AcDbLine
10
6.25248031496
20
0.54
11
6.26755905512
21
0.53905511811
0
LINE
5
245
100
AcDbEntity
8
Reference
6
ByLayer
62
256
370
-1
100
AcDbLine
10
6.26755905512
20
0.53905511811
11
6.28236220472
21
0.536220472441
0
LINE
5
246
100
AcDbEntity
8
Reference
6
ByLayer
62
256
370
-1
100
AcDbLine
10
6.28236220472
20
0.536220472441
11
6.29669291339
21
0.53157480315
0
LINE
5
247
100
AcDbEntity
8
Reference
6
ByLayer
62
256
370
-1
100
AcDbLine
10
6.29669291339
20
0.53157480315
11
6.31031496063
21
0.525157480315
0
LINE
5
248
100
AcDbEntity
8
Reference
6
ByLayer
62
256
370
-1
100
AcDbLine
10
6.31031496063
20
0.525157480315
11
6.32303149606
21
0.517086614173
0
LINE
5
249
100
AcDbEntity
8
Reference
6
ByLayer
62
256
370
-1
100
AcDbLine
10
6.32303149606
20
0.517086614173
11
6.33464566929
21
0.507480314961
0
LINE
5
24A
100
AcDbEntity
8
Reference
6
ByLayer
62
256
370
-1
100
AcDbLine
10
6.33464566929
20
0.507480314961
11
6.34496062992
21
0.496496062992
0
LINE
5
24B
100
AcDbEntity
8
Reference
6
ByLayer
62
256
370
-1
100
AcDbLine
10
6.34496062992
20
0.496496062992
11
6.35381889764
21
0.484291338583
0
LINE
5
24C
100
AcDbEntity
8
Reference
6
ByLayer
62
256
370
-1
100
AcDbLine
10
6.35381889764
20
0.484291338583
11
6.36106299213
21
0.471102362205
0
LINE
5
24D
100
AcDbEntity
8
Reference
6
ByLayer
62
256
370
-1
100
AcDbLine
10
6.36106299213
20
0.471102362205
11
6.36661417323
21
0.457086614173
0
LINE
5
24E
100
AcDbEntity
8
Reference
6
ByLayer
62
256
370
-1
100
AcDbLine
10
6.36661417323
20
0.457086614173
11
6.37039370079
21
0.442480314961
0
LINE
5
24F
100
AcDbEntity
8
Reference
6
ByLayer
62
256
370
-1
100
AcDbLine
10
6.37039370079
20
0.442480314961
11
6.37224409449
21
0.427519685039
0
LINE
5
250
100
AcDbEntity
8
Reference
6
ByLayer
62
256
370
-1
100
AcDbLine
10
6.37224409449
20
0.427519685039
11
6.37224409449
21
0.42
0
LINE
5
251
100
AcDbEntity
8
Reference
6
ByLayer
62
256
370
-1
100
AcDbLine
10
6.37224409449
20
0.42
11
6.37248031496
21
0.42
0
LINE
5
252
100
AcDbEntity
8
Reference
6
ByLayer
62
256
370
-1
100
AcDbLine
10
6.37248031496
20
0.42
11
6.37248031496
21
0.27
0
LINE
5
253
100
AcDbEntity
8
Reference
6
ByLayer
62
256
370
-1
100
AcDbLine
10
6.37248031496
20
0.27
11
6.37224409449
21
0.27
0
LINE
5
254
100
AcDbEntity
8
Reference
6
ByLayer
62
256
370
-1
100
AcDbLine
10
6.37224409449
20
0.27
11
6.37224409449
21
0.262480314961
0
LINE
5
255
100
AcDbEntity
8
Reference
6
ByLayer
62
256
370
-1
100
AcDbLine
10
6.37224409449
20
0.262480314961
11
6.37039370079
21
0.247519685039
0
LINE
5
256
100
AcDbEntity
8
Reference
6
ByLayer
62
256
370
-1
100
AcDbLine
10
6.37039370079
20
0.247519685039
11
6.36661417323
21
0.232913385827
0
LINE
5
257
100
AcDbEntity
8
Reference
6
ByLayer
62
256
370
-1
100
AcDbLine
10
6.36661417323
20
0.232913385827
11
6.36106299213
21
0.218897637795
0
LINE
5
258
100
AcDbEntity
8
Reference
6
ByLayer
62
256
370
-1
100
AcDbLine
10
6.36106299213
20
0.218897637795
11
6.35381889764
21
0.205708661417
0
LINE
5
259
100
AcDbEntity
8
Reference
6
ByLayer
62
256
370
-1
100
AcDbLine
10
6.35381889764
20
0.205708661417
11
6.34496062992
21
0.193503937008
0
LINE
5
25A
100
AcDbEntity
8
Reference
6
ByLayer
62
256
370
-1
100
AcDbLine
10
6.34496062992
20
0.193503937008
11
6.33464566929
21
0.182519685039
0
LINE
5
25B
100
AcDbEntity
8
Reference
6
ByLayer
62
256
370
-1
100
AcDbLine
10
6.33464566929
20
0.182519685039
11
6.32303149606
21
0.172913385827
0
LINE
5
25C
100
AcDbEntity
8
Reference
6
ByLayer
62
256
370
-1
100
AcDbLine
10
6.32303149606
20
0.172913385827
11
6.31031496063
21
0.164842519685
0
LINE
5
25D
100
AcDbEntity
8
Reference
6
ByLayer
62
256
370
-1
100
AcDbLine
10
6.31031496063
20
0.164842519685
11
6.29669291339
21
0.15842519685
0
LINE
5
25E
100
AcDbEntity
8
Reference
6
ByLayer
62
256
370
-1
100
AcDbLine
10
6.29669291339
20
0.15842519685
11
6.28236220472
21
0.153779527559
0
LINE
5
25F
100
AcDbEntity
8
Reference
6
ByLayer
62
256
370
-1
100
AcDbLine
10
6.28236220472
20
0.153779527559
11
6.26755905512
21
0.15094488189
0
LINE
5
260
100
AcDbEntity
8
Reference
6
ByLayer
62
256
370
-1
100
AcDbLine
10
6.26755905512
20
0.15094488189
11
6.25248031496
21
0.15
0
LINE
5
261
100
AcDbEntity
8
Reference
6
ByLayer
62
256
370
-1
100
AcDbLine
10
7.48751968504
20
18.46
11
7.47244094488
21
18.4609448819
0
LINE
5
262
100
AcDbEntity
8
Reference
6
ByLayer
62
256
370
-1
100
AcDbLine
10
7.47244094488
20
18.4609448819
11
7.45763779528
21
18.4637795276
0
LINE
5
263
100
AcDbEntity
8
Reference
6
ByLayer
62
256
370
-1
100
AcDbLine
10
7.45763779528
20
18.4637795276
11
7.44330708661
21
18.4684251969
0
LINE
5
264
100
AcDbEntity
8
Reference
6
ByLayer
62
256
370
-1
100
AcDbLine
10
7.44330708661
20
18.4684251969
11
7.42968503937
21
18.4748425197
0
LINE
5
265
100
AcDbEntity
8
Reference
6
ByLayer
62
256
370
-1
100
AcDbLine
10
7.42968503937
20
18.4748425197
11
7.41696850394
21
18.4829133858
0
LINE
5
266
100
AcDbEntity
8
Reference
6
ByLayer
62
256
370
-1
100
AcDbLine
10
7.41696850394
20
18.4829133858
11
7.40535433071
21
18.492519685
0
LINE
5
267
100
AcDbEntity
8
Reference
6
ByLayer
62
256
370
-1
100
AcDbLine
10
7.40535433071
20
18.492519685
11
7.39503937008
21
18.503503937
0
LINE
5
268
100
AcDbEntity
8
Reference
6
ByLayer
62
256
370
-1
100
AcDbLine
10
7.39503937008
20
18.503503937
11
7.38618110236
21
18.5157086614
0
LINE
5
269
100
AcDbEntity
8
Reference
6
ByLayer
62
256
370
-1
100
AcDbLine
10
7.38618110236
20
18.5157086614
11
7.37893700787
21
18.5288976378
0
LINE
5
26A
100
AcDbEntity
8
Reference
6
ByLayer
62
256
370
-1
100
AcDbLine
10
7.37893700787
20
18.5288976378
11
7.37338582677
21
18.5429133858
0
LINE
5
26B
100
AcDbEntity
8
Reference
6
ByLayer
62
256
370
-1
100
AcDbLine
10
7.37338582677
20
18.5429133858
11
7.36960629921
21
18.557519685
0
LINE
5
26C
100
AcDbEntity
8
Reference
6
ByLayer
62
256
370
-1
100
AcDbLine
10
7.36960629921
20
18.557519685
11
7.36775590551
21
18.572480315
0
LINE
5
26D
100
AcDbEntity
8
Reference
6
ByLayer
62
256
370
-1
100
AcDbLine
10
7.36775590551
20
18.572480315
11
7.36775590551
21
18.58
0
LINE
5
26E
100
AcDbEntity
8
Reference
6
ByLayer
62
256
370
-1
100
AcDbLine
10
7.36775590551
20
18.58
11
7.36751968504
21
18.58
0
LINE
5
26F
100
AcDbEntity
8
Reference
6
ByLayer
62
256
370
-1
100
AcDbLine
10
7.36751968504
20
18.58
11
7.36751968504
21
18.73
0
LINE
5
270
100
AcDbEntity
8
Reference
6
ByLayer
62
256
370
-1
100
AcDbLine
10
7.36751968504
20
18.73
11
7.36775590551
21
18.73
0
LINE
5
271
100
AcDbEntity
8
Reference
6
ByLayer
62
256
370
-1
100
AcDbLine
10
7.36775590551
20
18.73
11
7.36775590551
21
18.737519685
0
LINE
5
272
100
AcDbEntity
8
Reference
6
ByLayer
62
256
370
-1
100
AcDbLine
10
7.36775590551
20
18.737519685
11
7.36960629921
21
18.752480315
0
LINE
5
273
100
AcDbEntity
8
Reference
6
ByLayer
62
256
370
-1
100
AcDbLine
10
7.36960629921
20
18.752480315
11
7.37338582677
21
18.7670866142
0
LINE
5
274
100
AcDbEntity
8
Reference
6
ByLayer
62
256
370
-1
100
AcDbLine
10
7.37338582677
20
18.7670866142
11
7.37893700787
21
18.7811023622
0
LINE
5
275
100
AcDbEntity
8
Reference
6
ByLayer
62
256
370
-1
100
AcDbLine
10
7.37893700787
20
18.7811023622
11
7.38618110236
21
18.7942913386
0
LINE
5
276
100
AcDbEntity
8
Reference
6
ByLayer
62
256
370
-1
100
AcDbLine
10
7.38618110236
20
18.7942913386
11
7.39503937008
21
18.806496063
0
LINE
5
277
100
AcDbEntity
8
Reference
6
ByLayer
62
256
370
-1
100
AcDbLine
10
7.39503937008
20
18.806496063
11
7.40535433071
21
18.817480315
0
LINE
5
278
100
AcDbEntity
8
Reference
6
ByLayer
62
256
370
-1
100
AcDbLine
10
7.40535433071
20
18.817480315
11
7.41696850394
21
18.8270866142
0
LINE
5
279
100
AcDbEntity
8
Reference
6
ByLayer
62
256
370
-1
100
AcDbLine
10
7.41696850394
20
18.8270866142
11
7.42968503937
21
18.8351574803
0
LINE
5
27A
100
AcDbEntity
8
Reference
6
ByLayer
62
256
370
-1
100
AcDbLine
10
7.42968503937
20
18.8351574803
11
7.44330708661
21
18.8415748031
0
LINE
5
27B
100
AcDbEntity
8
Reference
6
ByLayer
62
256
370
-1
100
AcDbLine
10
7.44330708661
20
18.8415748031
11
7.45763779528
21
18.8462204724
0
LINE
5
27C
100
AcDbEntity
8
Reference
6
ByLayer
62
256
370
-1
100
AcDbLine
10
7.45763779528
20
18.8462204724
11
7.47244094488
21
18.8490551181
0
LINE
5
27D
100
AcDbEntity
8
Reference
6
ByLayer
62
256
370
-1
100
AcDbLine
10
7.47244094488
20
18.8490551181
11
7.48751968504
21
18.85
0
LINE
5
27E
100
AcDbEntity
8
Reference
6
ByLayer
62
256
370
-1
100
AcDbLine
10
7.48751968504
20
18.85
11
7.50255905512
21
18.8490551181
0
LINE
5
27F
100
AcDbEntity
8
Reference
6
ByLayer
62
256
370
-1
100
AcDbLine
10
7.50255905512
20
18.8490551181
11
7.51736220472
21
18.8462204724
0
LINE
5
280
100
AcDbEntity
8
Reference
6
ByLayer
62
256
370
-1
100
AcDbLine
10
7.51736220472
20
18.8462204724
11
7.53169291339
21
18.8415748031
0
LINE
5
281
100
AcDbEntity
8
Reference
6
ByLayer
62
256
370
-1
100
AcDbLine
10
7.53169291339
20
18.8415748031
11
7.54531496063
21
18.8351574803
0
LINE
5
282
100
AcDbEntity
8
Reference
6
ByLayer
62
256
370
-1
100
AcDbLine
10
7.54531496063
20
18.8351574803
11
7.55803149606
21
18.8270866142
0
LINE
5
283
100
AcDbEntity
8
Reference
6
ByLayer
62
256
370
-1
100
AcDbLine
10
7.55803149606
20
18.8270866142
11
7.56964566929
21
18.817480315
0
LINE
5
284
100
AcDbEntity
8
Reference
6
ByLayer
62
256
370
-1
100
AcDbLine
10
7.56964566929
20
18.817480315
11
7.57996062992
21
18.806496063
0
LINE
5
285
100
AcDbEntity
8
Reference
6
ByLayer
62
256
370
-1
100
AcDbLine
10
7.57996062992
20
18.806496063
11
7.58881889764
21
18.7942913386
0
LINE
5
286
100
AcDbEntity
8
Reference
6
ByLayer
62
256
370
-1
100
AcDbLine
10
7.58881889764
20
18.7942913386
11
7.59606299213
21
18.7811023622
0
LINE
5
287
100
AcDbEntity
8
Reference
6
ByLayer
62
256
370
-1
100
AcDbLine
10
7.59606299213
20
18.7811023622
11
7.60161417323
21
18.7670866142
0
LINE
5
288
100
AcDbEntity
8
Reference
6
ByLayer
62
256
370
-1
100
AcDbLine
10
7.60161417323
20
18.7670866142
11
7.60539370079
21
18.752480315
0
LINE
5
289
100
AcDbEntity
8
Reference
6
ByLayer
62
256
370
-1
100
AcDbLine
10
7.60539370079
20
18.752480315
11
7.60724409449
21
18.737519685
0
LINE
5
28A
100
AcDbEntity
8
Reference
6
ByLayer
62
256
370
-1
100
AcDbLine
10
7.60724409449
20
18.737519685
11
7.60724409449
21
18.73
0
LINE
5
28B
100
AcDbEntity
8
Reference
6
ByLayer
62
256
370
-1
100
AcDbLine
10
7.60724409449
20
18.73
11
7.60748031496
21
18.73
0
LINE
5
28C
100
AcDbEntity
8
Reference
6
ByLayer
62
256
370
-1
100
AcDbLine
10
7.60748031496
20
18.73
11
7.60748031496
21
18.58
0
LINE
5
28D
100
AcDbEntity
8
Reference
6
ByLayer
62
256
370
-1
100
AcDbLine
10
7.60748031496
20
18.58
11
7.60724409449
21
18.58
0
LINE
5
28E
100
AcDbEntity
8
Reference
6
ByLayer
62
256
370
-1
100
AcDbLine
10
7.60724409449
20
18.58
11
7.60724409449
21
18.572480315
0
LINE
5
28F
100
AcDbEntity
8
Reference
6
ByLayer
62
256
370
-1
100
AcDbLine
10
7.60724409449
20
18.572480315
11
7.60539370079
21
18.557519685
0
LINE
5
290
100
AcDbEntity
8
Reference
6
ByLayer
62
256
370
-1
100
AcDbLine
10
7.60539370079
20
18.557519685
11
7.60161417323
21
18.5429133858
0
LINE
5
291
100
AcDbEntity
8
Reference
6
ByLayer
62
256
370
-1
100
AcDbLine
10
7.60161417323
20
18.5429133858
11
7.59606299213
21
18.5288976378
0
LINE
5
292
100
AcDbEntity
8
Reference
6
ByLayer
62
256
370
-1
100
AcDbLine
10
7.59606299213
20
18.5288976378
11
7.58881889764
21
18.5157086614
0
LINE
5
293
100
AcDbEntity
8
Reference
6
ByLayer
62
256
370
-1
100
AcDbLine
10
7.58881889764
20
18.5157086614
11
7.57996062992
21
18.503503937
0
LINE
5
294
100
AcDbEntity
8
Reference
6
ByLayer
62
256
370
-1
100
AcDbLine
10
7.57996062992
20
18.503503937
11
7.56964566929
21
18.492519685
0
LINE
5
295
100
AcDbEntity
8
Reference
6
ByLayer
62
256
370
-1
100
AcDbLine
10
7.56964566929
20
18.492519685
11
7.55803149606
21
18.4829133858
0
LINE
5
296
100
AcDbEntity
8
Reference
6
ByLayer
62
256
370
-1
100
AcDbLine
10
7.55803149606
20
18.4829133858
11
7.54531496063
21
18.4748425197
0
LINE
5
297
100
AcDbEntity
8
Reference
6
ByLayer
62
256
370
-1
100
AcDbLine
10
7.54531496063
20
18.4748425197
11
7.53169291339
21
18.4684251969
0
LINE
5
298
100
AcDbEntity
8
Reference
6
ByLayer
62
256
370
-1
100
AcDbLine
10
7.53169291339
20
18.4684251969
11
7.51736220472
21
18.4637795276
0
LINE
5
299
100
AcDbEntity
8
Reference
6
ByLayer
62
256
370
-1
100
AcDbLine
10
7.51736220472
20
18.4637795276
11
7.50255905512
21
18.4609448819
0
LINE
5
29A
100
AcDbEntity
8
Reference
6
ByLayer
62
256
370
-1
100
AcDbLine
10
7.50255905512
20
18.4609448819
11
7.48751968504
21
18.46
0
LINE
5
29B
100
AcDbEntity
8
Reference
6
ByLayer
62
256
370
-1
100
AcDbLine
10
6.25248031496
20
18.46
11
6.23744094488
21
18.4609448819
0
LINE
5
29C
100
AcDbEntity
8
Reference
6
ByLayer
62
256
370
-1
100
AcDbLine
10
6.23744094488
20
18.4609448819
11
6.22263779528
21
18.4637795276
0
LINE
5
29D
100
AcDbEntity
8
Reference
6
ByLayer
62
256
370
-1
100
AcDbLine
10
6.22263779528
20
18.4637795276
11
6.20830708661
21
18.4684251969
0
LINE
5
29E
100
AcDbEntity
8
Reference
6
ByLayer
62
256
370
-1
100
AcDbLine
10
6.20830708661
20
18.4684251969
11
6.19468503937
21
18.4748425197
0
LINE
5
29F
100
AcDbEntity
8
Reference
6
ByLayer
62
256
370
-1
100
AcDbLine
10
6.19468503937
20
18.4748425197
11
6.18196850394
21
18.4829133858
0
LINE
5
2A0
100
AcDbEntity
8
Reference
6
ByLayer
62
256
370
-1
100
AcDbLine
10
6.18196850394
20
18.4829133858
11
6.17035433071
21
18.492519685
0
LINE
5
2A1
100
AcDbEntity
8
Reference
6
ByLayer
62
256
370
-1
100
AcDbLine
10
6.17035433071
20
18.492519685
11
6.16003937008
21
18.503503937
0
LINE
5
2A2
100
AcDbEntity
8
Reference
6
ByLayer
62
256
370
-1
100
AcDbLine
10
6.16003937008
20
18.503503937
11
6.15118110236
21
18.5157086614
0
LINE
5
2A3
100
AcDbEntity
8
Reference
6
ByLayer
62
256
370
-1
100
AcDbLine
10
6.15118110236
20
18.5157086614
11
6.14393700787
21
18.5288976378
0
LINE
5
2A4
100
AcDbEntity
8
Reference
6
ByLayer
62
256
370
-1
100
AcDbLine
10
6.14393700787
20
18.5288976378
11
6.13838582677
21
18.5429133858
0
LINE
5
2A5
100
AcDbEntity
8
Reference
6
ByLayer
62
256
370
-1
100
AcDbLine
10
6.13838582677
20
18.5429133858
11
6.13460629921
21
18.557519685
0
LINE
5
2A6
100
AcDbEntity
8
Reference
6
ByLayer
62
256
370
-1
100
AcDbLine
10
6.13460629921
20
18.557519685
11
6.13275590551
21
18.572480315
0
LINE
5
2A7
100
AcDbEntity
8
Reference
6
ByLayer
62
256
370
-1
100
AcDbLine
10
6.13275590551
20
18.572480315
11
6.13275590551
21
18.58
0
LINE
5
2A8
100
AcDbEntity
8
Reference
6
ByLayer
62
256
370
-1
100
AcDbLine
10
6.13275590551
20
18.58
11
6.13251968504
21
18.58
0
LINE
5
2A9
100
AcDbEntity
8
Reference
6
ByLayer
62
256
370
-1
100
AcDbLine
10
6.13251968504
20
18.58
11
6.13251968504
21
18.73
0
LINE
5
2AA
100
AcDbEntity
8
Reference
6
ByLayer
62
256
370
-1
100
AcDbLine
10
6.13251968504
20
18.73
11
6.13275590551
21
18.73
0
LINE
5
2AB
100
AcDbEntity
8
Reference
6
ByLayer
62
256
370
-1
100
AcDbLine
10
6.13275590551
20
18.73
11
6.13275590551
21
18.737519685
0
LINE
5
2AC
100
AcDbEntity
8
Reference
6
ByLayer
62
256
370
-1
100
AcDbLine
10
6.13275590551
20
18.737519685
11
6.13460629921
21
18.752480315
0
LINE
5
2AD
100
AcDbEntity
8
Reference
6
ByLayer
62
256
370
-1
100
AcDbLine
10
6.13460629921
20
18.752480315
11
6.13838582677
21
18.7670866142
0
LINE
5
2AE
100
AcDbEntity
8
Reference
6
ByLayer
62
256
370
-1
100
AcDbLine
10
6.13838582677
20
18.7670866142
11
6.14393700787
21
18.7811023622
0
LINE
5
2AF
100
AcDbEntity
8
Reference
6
ByLayer
62
256
370
-1
100
AcDbLine
10
6.14393700787
20
18.7811023622
11
6.15118110236
21
18.7942913386
0
LINE
5
2B0
100
AcDbEntity
8
Reference
6
ByLayer
62
256
370
-1
100
AcDbLine
10
6.15118110236
20
18.7942913386
11
6.16003937008
21
18.806496063
0
LINE
5
2B1
100
AcDbEntity
8
Reference
6
ByLayer
62
256
370
-1
100
AcDbLine
10
6.16003937008
20
18.806496063
11
6.17035433071
21
18.817480315
0
LINE
5
2B2
100
AcDbEntity
8
Reference
6
ByLayer
62
256
370
-1
100
AcDbLine
10
6.17035433071
20
18.817480315
11
6.18196850394
21
18.8270866142
0
LINE
5
2B3
100
AcDbEntity
8
Reference
6
ByLayer
62
256
370
-1
100
AcDbLine
10
6.18196850394
20
18.8270866142
11
6.19468503937
21
18.8351574803
0
LINE
5
2B4
100
AcDbEntity
8
Reference
6
ByLayer
62
256
370
-1
100
AcDbLine
10
6.19468503937
20
18.8351574803
11
6.20830708661
21
18.8415748031
0
LINE
5
2B5
100
AcDbEntity
8
Reference
6
ByLayer
62
256
370
-1
100
AcDbLine
10
6.20830708661
20
18.8415748031
11
6.22263779528
21
18.8462204724
0
LINE
5
2B6
100
AcDbEntity
8
Reference
6
ByLayer
62
256
370
-1
100
AcDbLine
10
6.22263779528
20
18.8462204724
11
6.23744094488
21
18.8490551181
0
LINE
5
2B7
100
AcDbEntity
8
Reference
6
ByLayer
62
256
370
-1
100
AcDbLine
10
6.23744094488
20
18.8490551181
11
6.25248031496
21
18.85
0
LINE
5
2B8
100
AcDbEntity
8
Reference
6
ByLayer
62
256
370
-1
100
AcDbLine
10
6.25248031496
20
18.85
11
6.26755905512
21
18.8490551181
0
LINE
5
2B9
100
AcDbEntity
8
Reference
6
ByLayer
62
256
370
-1
100
AcDbLine
10
6.26755905512
20
18.8490551181
11
6.28236220472
21
18.8462204724
0
LINE
5
2BA
100
AcDbEntity
8
Reference
6
ByLayer
62
256
370
-1
100
AcDbLine
10
6.28236220472
20
18.8462204724
11
6.29669291339
21
18.8415748031
0
LINE
5
2BB
100
AcDbEntity
8
Reference
6
ByLayer
62
256
370
-1
100
AcDbLine
10
6.29669291339
20
18.8415748031
11
6.31031496063
21
18.8351574803
0
LINE
5
2BC
100
AcDbEntity
8
Reference
6
ByLayer
62
256
370
-1
100
AcDbLine
10
6.31031496063
20
18.8351574803
11
6.32303149606
21
18.8270866142
0
LINE
5
2BD
100
AcDbEntity
8
Reference
6
ByLayer
62
256
370
-1
100
AcDbLine
10
6.32303149606
20
18.8270866142
11
6.33464566929
21
18.817480315
0
LINE
5
2BE
100
AcDbEntity
8
Reference
6
ByLayer
62
256
370
-1
100
AcDbLine
10
6.33464566929
20
18.817480315
11
6.34496062992
21
18.806496063
0
LINE
5
2BF
100
AcDbEntity
8
Reference
6
ByLayer
62
256
370
-1
100
AcDbLine
10
6.34496062992
20
18.806496063
11
6.35381889764
21
18.7942913386
0
LINE
5
2C0
100
AcDbEntity
8
Reference
6
ByLayer
62
256
370
-1
100
AcDbLine
10
6.35381889764
20
18.7942913386
11
6.36106299213
21
18.7811023622
0
LINE
5
2C1
100
AcDbEntity
8
Reference
6
ByLayer
62
256
370
-1
100
AcDbLine
10
6.36106299213
20
18.7811023622
11
6.36661417323
21
18.7670866142
0
LINE
5
2C2
100
AcDbEntity
8
Reference
6
ByLayer
62
256
370
-1
100
AcDbLine
10
6.36661417323
20
18.7670866142
11
6.37039370079
21
18.752480315
0
LINE
5
2C3
100
AcDbEntity
8
Reference
6
ByLayer
62
256
370
-1
100
AcDbLine
10
6.37039370079
20
18.752480315
11
6.37224409449
21
18.737519685
0
LINE
5
2C4
100
AcDbEntity
8
Reference
6
ByLayer
62
256
370
-1
100
AcDbLine
10
6.37224409449
20
18.737519685
11
6.37224409449
21
18.73
0
LINE
5
2C5
100
AcDbEntity
8
Reference
6
ByLayer
62
256
370
-1
100
AcDbLine
10
6.37224409449
20
18.73
11
6.37248031496
21
18.73
0
LINE
5
2C6
100
AcDbEntity
8
Reference
6
ByLayer
62
256
370
-1
100
AcDbLine
10
6.37248031496
20
18.73
11
6.37248031496
21
18.58
0
LINE
5
2C7
100
AcDbEntity
8
Reference
6
ByLayer
62
256
370
-1
100
AcDbLine
10
6.37248031496
20
18.58
11
6.37224409449
21
18.58
0
LINE
5
2C8
100
AcDbEntity
8
Reference
6
ByLayer
62
256
370
-1
100
AcDbLine
10
6.37224409449
20
18.58
11
6.37224409449
21
18.572480315
0
LINE
5
2C9
100
AcDbEntity
8
Reference
6
ByLayer
62
256
370
-1
100
AcDbLine
10
6.37224409449
20
18.572480315
11
6.37039370079
21
18.557519685
0
LINE
5
2CA
100
AcDbEntity
8
Reference
6
ByLayer
62
256
370
-1
100
AcDbLine
10
6.37039370079
20
18.557519685
11
6.36661417323
21
18.5429133858
0
LINE
5
2CB
100
AcDbEntity
8
Reference
6
ByLayer
62
256
370
-1
100
AcDbLine
10
6.36661417323
20
18.5429133858
11
6.36106299213
21
18.5288976378
0
LINE
5
2CC
100
AcDbEntity
8
Reference
6
ByLayer
62
256
370
-1
100
AcDbLine
10
6.36106299213
20
18.5288976378
11
6.35381889764
21
18.5157086614
0
LINE
5
2CD
100
AcDbEntity
8
Reference
6
ByLayer
62
256
370
-1
100
AcDbLine
10
6.35381889764
20
18.5157086614
11
6.34496062992
21
18.503503937
0
LINE
5
2CE
100
AcDbEntity
8
Reference
6
ByLayer
62
256
370
-1
100
AcDbLine
10
6.34496062992
20
18.503503937
11
6.33464566929
21
18.492519685
0
LINE
5
2CF
100
AcDbEntity
8
Reference
6
ByLayer
62
256
370
-1
100
AcDbLine
10
6.33464566929
20
18.492519685
11
6.32303149606
21
18.4829133858
0
LINE
5
2D0
100
AcDbEntity
8
Reference
6
ByLayer
62
256
370
-1
100
AcDbLine
10
6.32303149606
20
18.4829133858
11
6.31031496063
21
18.4748425197
0
LINE
5
2D1
100
AcDbEntity
8
Reference
6
ByLayer
62
256
370
-1
100
AcDbLine
10
6.31031496063
20
18.4748425197
11
6.29669291339
21
18.4684251969
0
LINE
5
2D2
100
AcDbEntity
8
Reference
6
ByLayer
62
256
370
-1
100
AcDbLine
10
6.29669291339
20
18.4684251969
11
6.28236220472
21
18.4637795276
0
LINE
5
2D3
100
AcDbEntity
8
Reference
6
ByLayer
62
256
370
-1
100
AcDbLine
10
6.28236220472
20
18.4637795276
11
6.26755905512
21
18.4609448819
0
LINE
5
2D4
100
AcDbEntity
8
Reference
6
ByLayer
62
256
370
-1
100
AcDbLine
10
6.26755905512
20
18.4609448819
11
6.25248031496
21
18.46
0
LINE
5
2D5
100
AcDbEntity
8
Reference
6
ByLayer
62
256
370
-1
100
AcDbLine
10
6.13251968504
20
0.27
11
6.13251968504
21
0.42
0
LINE
5
2D6
100
AcDbEntity
8
Fixture Slots
6
ByLayer
62
256
370
-1
100
AcDbLine
10
7.58
20
1.5
11
7.58
21
17.5
0
LINE
5
2D7
100
AcDbEntity
8
Fixture Slots
6
ByLayer
62
256
370
-1
100
AcDbLine
10
6.16
20
1.5
11
6.16
21
17.5
0
CIRCLE
5
2D8
100
AcDbEntity
8
Fixture Hole 8-32 Insert
6
ByLayer
62
256
370
-1
100
AcDbCircle
10
6.2525590842
20
0.345036933684
40
0.0393700787402
0
CIRCLE
5
2D9
100
AcDbEntity
8
Fixture Hole 8-32 Insert
6
ByLayer
62
256
370
-1
100
AcDbCircle
10
7.48755902601
20
0.345036970095
40
0.0393700787402
0
CIRCLE
5
2DA
100
AcDbEntity
8
Fixture Hole 8-32 Insert
6
ByLayer
62
256
370
-1
100
AcDbCircle
10
6.24951294419
20
18.6567951523
40
0.0393700787402
0
CIRCLE
5
2DB
100
AcDbEntity
8
Fixture Hole 8-32 Insert
6
ByLayer
62
256
370
-1
100
AcDbCircle
10
7.4875
20
18.655
40
0.0393700787402
0
CIRCLE
5
2DC
100
AcDbEntity
8
DC Jack Hole
6
ByLayer
62
256
370
-1
100
AcDbCircle
10
22.6720029312
20
4.07751968504
40
0.218500613921
0
CIRCLE
5
2DD
100
AcDbEntity
8
4-40 Tap Hole
6
ByLayer
62
256
370
-1
100
AcDbCircle
10
22.6720252127
20
11.2815354331
40
0.061403210791
0
CIRCLE
5
2DE
100
AcDbEntity
8
4-40 Tap Hole
6
ByLayer
62
256
370
-1
100
AcDbCircle
10
22.671988189
20
13.1335114687
40
0.0614215121771
0
CIRCLE
5
2DF
100
AcDbEntity
8
Fixture Hole 8-32 Insert
6
ByLayer
62
256
370
-1
100
AcDbCircle
10
23.3335
20
0.1495
40
0.1172
0
CIRCLE
5
2E0
100
AcDbEntity
8
Fixture Hole 8-32 Insert
6
ByLayer
62
256
370
-1
100
AcDbCircle
10
22.1265
20
0.1495
40
0.1172
0
CIRCLE
5
2E1
100
AcDbEntity
8
Fixture Hole 8-32 Insert
6
ByLayer
62
256
370
-1
100
AcDbCircle
10
23.3335
20
16.6943
40
0.1172
0
CIRCLE
5
2E2
100
AcDbEntity
8
Fixture Hole 8-32 Insert
6
ByLayer
62
256
370
-1
100
AcDbCircle
10
22.1265
20
16.6943
40
0.1172
0
LINE
5
2E3
100
AcDbEntity
8
Fixture Pocket
6
ByLayer
62
256
370
-1
100
AcDbLine
10
21.66
20
7
11
21.66
21
8.2
0
LINE
5
2E4
100
AcDbEntity
8
Fixture Pocket
6
ByLayer
62
256
370
-1
100
AcDbLine
10
21.66
20
8.2
11
22.46
21
8.2
0
LINE
5
2E5
100
AcDbEntity
8
Fixture Pocket
6
ByLayer
62
256
370
-1
100
AcDbLine
10
22.46
20
8.2
11
22.46
21
7
0
LINE
5
2E6
100
AcDbEntity
8
Fixture Pocket
6
ByLayer
62
256
370
-1
100
AcDbLine
10
22.46
20
7
11
21.66
21
7
0
CIRCLE
5
2E7
100
AcDbEntity
8
BNC Hole
6
ByLayer
62
256
370
-1
100
AcDbCircle
10
25.8748916636
20
2.12999684441
40
0.265754445816
0
CIRCLE
5
2E8
100
AcDbEntity
8
BNC Hole
6
ByLayer
62
256
370
-1
100
AcDbCircle
10
25.8748983274
20
2.93001581713
40
0.265739101021
0
CIRCLE
5
2E9
100
AcDbEntity
8
BNC Hole
6
ByLayer
62
256
370
-1
100
AcDbCircle
10
25.8748845441
20
3.72999731499
40
0.265759184349
0
CIRCLE
5
2EA
100
AcDbEntity
8
BNC Hole
6
ByLayer
62
256
370
-1
100
AcDbCircle
10
25.8748924921
20
4.52999716936
40
0.265751930664
0
CIRCLE
5
2EB
100
AcDbEntity
8
BNC Hole
6
ByLayer
62
256
370
-1
100
AcDbCircle
10
25.8748769483
20
5.3299995811
40
0.265748450441
0
CIRCLE
5
2EC
100
AcDbEntity
8
BNC Hole
6
ByLayer
62
256
370
-1
100
AcDbCircle
10
25.8748999893
20
6.1299834009
40
0.265738117019
0
CIRCLE
5
2ED
100
AcDbEntity
8
BNC Hole
6
ByLayer
62
256
370
-1
100
AcDbCircle
10
25.8748831278
20
6.93
40
0.26574345744
0
CIRCLE
5
2EE
100
AcDbEntity
8
BNC Hole
6
ByLayer
62
256
370
-1
100
AcDbCircle
10
25.8748924374
20
7.73000080547
40
0.265750416763
0
CIRCLE
5
2EF
100
AcDbEntity
8
BNC Hole
6
ByLayer
62
256
370
-1
100
AcDbCircle
10
25.8748905776
20
8.53000399498
40
0.265753978674
0
CIRCLE
5
2F0
100
AcDbEntity
8
BNC Hole
6
ByLayer
62
256
370
-1
100
AcDbCircle
10
25.8748924067
20
9.33000687726
40
0.26575134844
0
CIRCLE
5
2F1
100
AcDbEntity
8
4-40 Tap Hole
6
ByLayer
62
256
370
-1
100
AcDbCircle
10
25.2700045556
20
10.6099822513
40
0.0439975809454
0
CIRCLE
5
2F2
100
AcDbEntity
8
4-40 Tap Hole
6
ByLayer
62
256
370
-1
100
AcDbCircle
10
26.4699994748
20
9.81000615873
40
0.0440017712647
0
CIRCLE
5
2F3
100
AcDbEntity
8
4-40 Tap Hole
6
ByLayer
62
256
370
-1
100
AcDbCircle
10
26.4700109656
20
10.6099936165
40
0.0439909117484
0
CIRCLE
5
2F4
100
AcDbEntity
8
4-40 Tap Hole
6
ByLayer
62
256
370
-1
100
AcDbCircle
10
25.269996063
20
9.8099988189
40
0.0440066929134
0
LINE
5
2F5
100
AcDbEntity
8
Reference
6
ByLayer
62
256
370
-1
100
AcDbLine
10
26.487519685
20
0.15
11
26.4724409449
21
0.15094488189
0
LINE
5
2F6
100
AcDbEntity
8
Reference
6
ByLayer
62
256
370
-1
100
AcDbLine
10
26.4724409449
20
0.15094488189
11
26.4576377953
21
0.153779527559
0
LINE
5
2F7
100
AcDbEntity
8
Reference
6
ByLayer
62
256
370
-1
100
AcDbLine
10
26.4576377953
20
0.153779527559
11
26.4433070866
21
0.15842519685
0
LINE
5
2F8
100
AcDbEntity
8
Reference
6
ByLayer
62
256
370
-1
100
AcDbLine
10
26.4433070866
20
0.15842519685
11
26.4296850394
21
0.164842519685
0
LINE
5
2F9
100
AcDbEntity
8
Reference
6
ByLayer
62
256
370
-1
100
AcDbLine
10
26.4296850394
20
0.164842519685
11
26.4169685039
21
0.172913385827
0
LINE
5
2FA
100
AcDbEntity
8
Reference
6
ByLayer
62
256
370
-1
100
AcDbLine
10
26.4169685039
20
0.172913385827
11
26.4053543307
21
0.182519685039
0
LINE
5
2FB
100
AcDbEntity
8
Reference
6
ByLayer
62
256
370
-1
100
AcDbLine
10
26.4053543307
20
0.182519685039
11
26.3950393701
21
0.193503937008
0
LINE
5
2FC
100
AcDbEntity
8
Reference
6
ByLayer
62
256
370
-1
100
AcDbLine
10
26.3950393701
20
0.193503937008
11
26.3861811024
21
0.205708661417
0
LINE
5
2FD
100
AcDbEntity
8
Reference
6
ByLayer
62
256
370
-1
100
AcDbLine
10
26.3861811024
20
0.205708661417
11
26.3789370079
21
0.218897637795
0
LINE
5
2FE
100
AcDbEntity
8
Reference
6
ByLayer
62
256
370
-1
100
AcDbLine
10
26.3789370079
20
0.218897637795
11
26.3733858268
21
0.232913385827
0
LINE
5
2FF
100
AcDbEntity
8
Reference
6
ByLayer
62
256
370
-1
100
AcDbLine
10
26.3733858268
20
0.232913385827
11
26.3696062992
21
0.247519685039
0
LINE
5
300
100
AcDbEntity
8
Reference
6
ByLayer
62
256
370
-1
100
AcDbLine
10
26.3696062992
20
0.247519685039
11
26.3677559055
21
0.262480314961
0
LINE
5
301
100
AcDbEntity
8
Reference
6
ByLayer
62
256
370
-1
100
AcDbLine
10
26.3677559055
20
0.262480314961
11
26.3677559055
21
0.27
0
LINE
5
302
100
AcDbEntity
8
Reference
6
ByLayer
62
256
370
-1
100
AcDbLine
10
26.3677559055
20
0.27
11
26.367519685
21
0.27
0
LINE
5
303
100
AcDbEntity
8
Reference
6
ByLayer
62
256
370
-1
100
AcDbLine
10
26.367519685
20
0.27
11
26.367519685
21
0.42
0
LINE
5
304
100
AcDbEntity
8
Reference
6
ByLayer
62
256
370
-1
100
AcDbLine
10
26.367519685
20
0.42
11
26.3677559055
21
0.42
0
LINE
5
305
100
AcDbEntity
8
Reference
6
ByLayer
62
256
370
-1
100
AcDbLine
10
26.3677559055
20
0.42
11
26.3677559055
21
0.427519685039
0
LINE
5
306
100
AcDbEntity
8
Reference
6
ByLayer
62
256
370
-1
100
AcDbLine
10
26.3677559055
20
0.427519685039
11
26.3696062992
21
0.442480314961
0
LINE
5
307
100
AcDbEntity
8
Reference
6
ByLayer
62
256
370
-1
100
AcDbLine
10
26.3696062992
20
0.442480314961
11
26.3733858268
21
0.457086614173
0
LINE
5
308
100
AcDbEntity
8
Reference
6
ByLayer
62
256
370
-1
100
AcDbLine
10
26.3733858268
20
0.457086614173
11
26.3789370079
21
0.471102362205
0
LINE
5
309
100
AcDbEntity
8
Reference
6
ByLayer
62
256
370
-1
100
AcDbLine
10
26.3789370079
20
0.471102362205
11
26.3861811024
21
0.484291338583
0
LINE
5
30A
100
AcDbEntity
8
Reference
6
ByLayer
62
256
370
-1
100
AcDbLine
10
26.3861811024
20
0.484291338583
11
26.3950393701
21
0.496496062992
0
LINE
5
30B
100
AcDbEntity
8
Reference
6
ByLayer
62
256
370
-1
100
AcDbLine
10
26.3950393701
20
0.496496062992
11
26.4053543307
21
0.507480314961
0
LINE
5
30C
100
AcDbEntity
8
Reference
6
ByLayer
62
256
370
-1
100
AcDbLine
10
26.4053543307
20
0.507480314961
11
26.4169685039
21
0.517086614173
0
LINE
5
30D
100
AcDbEntity
8
Reference
6
ByLayer
62
256
370
-1
100
AcDbLine
10
26.4169685039
20
0.517086614173
11
26.4296850394
21
0.525157480315
0
LINE
5
30E
100
AcDbEntity
8
Reference
6
ByLayer
62
256
370
-1
100
AcDbLine
10
26.4296850394
20
0.525157480315
11
26.4433070866
21
0.53157480315
0
LINE
5
30F
100
AcDbEntity
8
Reference
6
ByLayer
62
256
370
-1
100
AcDbLine
10
26.4433070866
20
0.53157480315
11
26.4576377953
21
0.536220472441
0
LINE
5
310
100
AcDbEntity
8
Reference
6
ByLayer
62
256
370
-1
100
AcDbLine
10
26.4576377953
20
0.536220472441
11
26.4724409449
21
0.53905511811
0
LINE
5
311
100
AcDbEntity
8
Reference
6
ByLayer
62
256
370
-1
100
AcDbLine
10
26.4724409449
20
0.53905511811
11
26.487519685
21
0.54
0
LINE
5
312
100
AcDbEntity
8
Reference
6
ByLayer
62
256
370
-1
100
AcDbLine
10
26.487519685
20
0.54
11
26.5025590551
21
0.53905511811
0
LINE
5
313
100
AcDbEntity
8
Reference
6
ByLayer
62
256
370
-1
100
AcDbLine
10
26.5025590551
20
0.53905511811
11
26.5173622047
21
0.536220472441
0
LINE
5
314
100
AcDbEntity
8
Reference
6
ByLayer
62
256
370
-1
100
AcDbLine
10
26.5173622047
20
0.536220472441
11
26.5316929134
21
0.53157480315
0
LINE
5
315
100
AcDbEntity
8
Reference
6
ByLayer
62
256
370
-1
100
AcDbLine
10
26.5316929134
20
0.53157480315
11
26.5453149606
21
0.525157480315
0
LINE
5
316
100
AcDbEntity
8
Reference
6
ByLayer
62
256
370
-1
100
AcDbLine
10
26.5453149606
20
0.525157480315
11
26.5580314961
21
0.517086614173
0
LINE
5
317
100
AcDbEntity
8
Reference
6
ByLayer
62
256
370
-1
100
AcDbLine
10
26.5580314961
20
0.517086614173
11
26.5696456693
21
0.507480314961
0
LINE
5
318
100
AcDbEntity
8
Reference
6
ByLayer
62
256
370
-1
100
AcDbLine
10
26.5696456693
20
0.507480314961
11
26.5799606299
21
0.496496062992
0
LINE
5
319
100
AcDbEntity
8
Reference
6
ByLayer
62
256
370
-1
100
AcDbLine
10
26.5799606299
20
0.496496062992
11
26.5888188976
21
0.484291338583
0
LINE
5
31A
100
AcDbEntity
8
Reference
6
ByLayer
62
256
370
-1
100
AcDbLine
10
26.5888188976
20
0.484291338583
11
26.5960629921
21
0.471102362205
0
LINE
5
31B
100
AcDbEntity
8
Reference
6
ByLayer
62
256
370
-1
100
AcDbLine
10
26.5960629921
20
0.471102362205
11
26.6016141732
21
0.457086614173
0
LINE
5
31C
100
AcDbEntity
8
Reference
6
ByLayer
62
256
370
-1
100
AcDbLine
10
26.6016141732
20
0.457086614173
11
26.6053937008
21
0.442480314961
0
LINE
5
31D
100
AcDbEntity
8
Reference
6
ByLayer
62
256
370
-1
100
AcDbLine
10
26.6053937008
20
0.442480314961
11
26.6072440945
21
0.427519685039
0
LINE
5
31E
100
AcDbEntity
8
Reference
6
ByLayer
62
256
370
-1
100
AcDbLine
10
26.6072440945
20
0.427519685039
11
26.6072440945
21
0.42
0
LINE
5
31F
100
AcDbEntity
8
Reference
6
ByLayer
62
256
370
-1
100
AcDbLine
10
26.6072440945
20
0.42
11
26.607480315
21
0.42
0
LINE
5
320
100
AcDbEntity
8
Reference
6
ByLayer
62
256
370
-1
100
AcDbLine
10
26.607480315
20
0.42
11
26.607480315
21
0.27
0
LINE
5
321
100
AcDbEntity
8
Reference
6
ByLayer
62
256
370
-1
100
AcDbLine
10
26.607480315
20
0.27
11
26.6072440945
21
0.27
0
LINE
5
322
100
AcDbEntity
8
Reference
6
ByLayer
62
256
370
-1
100
AcDbLine
10
26.6072440945
20
0.27
11
26.6072440945
21
0.262480314961
0
LINE
5
323
100
AcDbEntity
8
Reference
6
ByLayer
62
256
370
-1
100
AcDbLine
10
26.6072440945
20
0.262480314961
11
26.6053937008
21
0.247519685039
0
LINE
5
324
100
AcDbEntity
8
Reference
6
ByLayer
62
256
370
-1
100
AcDbLine
10
26.6053937008
20
0.247519685039
11
26.6016141732
21
0.232913385827
0
LINE
5
325
100
AcDbEntity
8
Reference
6
ByLayer
62
256
370
-1
100
AcDbLine
10
26.6016141732
20
0.232913385827
11
26.5960629921
21
0.218897637795
0
LINE
5
326
100
AcDbEntity
8
Reference
6
ByLayer
62
256
370
-1
100
AcDbLine
10
26.5960629921
20
0.218897637795
11
26.5888188976
21
0.205708661417
0
LINE
5
327
100
AcDbEntity
8
Reference
6
ByLayer
62
256
370
-1
100
AcDbLine
10
26.5888188976
20
0.205708661417
11
26.5799606299
21
0.193503937008
0
LINE
5
328
100
AcDbEntity
8
Reference
6
ByLayer
62
256
370
-1
100
AcDbLine
10
26.5799606299
20
0.193503937008
11
26.5696456693
21
0.182519685039
0
LINE
5
329
100
AcDbEntity
8
Reference
6
ByLayer
62
256
370
-1
100
AcDbLine
10
26.5696456693
20
0.182519685039
11
26.5580314961
21
0.172913385827
0
LINE
5
32A
100
AcDbEntity
8
Reference
6
ByLayer
62
256
370
-1
100
AcDbLine
10
26.5580314961
20
0.172913385827
11
26.5453149606
21
0.164842519685
0
LINE
5
32B
100
AcDbEntity
8
Reference
6
ByLayer
62
256
370
-1
100
AcDbLine
10
26.5453149606
20
0.164842519685
11
26.5316929134
21
0.15842519685
0
LINE
5
32C
100
AcDbEntity
8
Reference
6
ByLayer
62
256
370
-1
100
AcDbLine
10
26.5316929134
20
0.15842519685
11
26.5173622047
21
0.153779527559
0
LINE
5
32D
100
AcDbEntity
8
Reference
6
ByLayer
62
256
370
-1
100
AcDbLine
10
26.5173622047
20
0.153779527559
11
26.5025590551
21
0.15094488189
0
LINE
5
32E
100
AcDbEntity
8
Reference
6
ByLayer
62
256
370
-1
100
AcDbLine
10
26.5025590551
20
0.15094488189
11
26.487519685
21
0.15
0
LINE
5
32F
100
AcDbEntity
8
Reference
6
ByLayer
62
256
370
-1
100
AcDbLine
10
25.252480315
20
0.15
11
25.2374409449
21
0.15094488189
0
LINE
5
330
100
AcDbEntity
8
Reference
6
ByLayer
62
256
370
-1
100
AcDbLine
10
25.2374409449
20
0.15094488189
11
25.2226377953
21
0.153779527559
0
LINE
5
331
100
AcDbEntity
8
Reference
6
ByLayer
62
256
370
-1
100
AcDbLine
10
25.2226377953
20
0.153779527559
11
25.2083070866
21
0.15842519685
0
LINE
5
332
100
AcDbEntity
8
Reference
6
ByLayer
62
256
370
-1
100
AcDbLine
10
25.2083070866
20
0.15842519685
11
25.1946850394
21
0.164842519685
0
LINE
5
333
100
AcDbEntity
8
Reference
6
ByLayer
62
256
370
-1
100
AcDbLine
10
25.1946850394
20
0.164842519685
11
25.1819685039
21
0.172913385827
0
LINE
5
334
100
AcDbEntity
8
Reference
6
ByLayer
62
256
370
-1
100
AcDbLine
10
25.1819685039
20
0.172913385827
11
25.1703543307
21
0.182519685039
0
LINE
5
335
100
AcDbEntity
8
Reference
6
ByLayer
62
256
370
-1
100
AcDbLine
10
25.1703543307
20
0.182519685039
11
25.1600393701
21
0.193503937008
0
LINE
5
336
100
AcDbEntity
8
Reference
6
ByLayer
62
256
370
-1
100
AcDbLine
10
25.1600393701
20
0.193503937008
11
25.1511811024
21
0.205708661417
0
LINE
5
337
100
AcDbEntity
8
Reference
6
ByLayer
62
256
370
-1
100
AcDbLine
10
25.1511811024
20
0.205708661417
11
25.1439370079
21
0.218897637795
0
LINE
5
338
100
AcDbEntity
8
Reference
6
ByLayer
62
256
370
-1
100
AcDbLine
10
25.1439370079
20
0.218897637795
11
25.1383858268
21
0.232913385827
0
LINE
5
339
100
AcDbEntity
8
Reference
6
ByLayer
62
256
370
-1
100
AcDbLine
10
25.1383858268
20
0.232913385827
11
25.1346062992
21
0.247519685039
0
LINE
5
33A
100
AcDbEntity
8
Reference
6
ByLayer
62
256
370
-1
100
AcDbLine
10
25.1346062992
20
0.247519685039
11
25.1327559055
21
0.262480314961
0
LINE
5
33B
100
AcDbEntity
8
Reference
6
ByLayer
62
256
370
-1
100
AcDbLine
10
25.1327559055
20
0.262480314961
11
25.1327559055
21
0.27
0
LINE
5
33C
100
AcDbEntity
8
Reference
6
ByLayer
62
256
370
-1
100
AcDbLine
10
25.1327559055
20
0.27
11
25.132519685
21
0.27
0
LINE
5
33D
100
AcDbEntity
8
Reference
6
ByLayer
62
256
370
-1
100
AcDbLine
10
25.132519685
20
0.42
11
25.1327559055
21
0.42
0
LINE
5
33E
100
AcDbEntity
8
Reference
6
ByLayer
62
256
370
-1
100
AcDbLine
10
25.1327559055
20
0.42
11
25.1327559055
21
0.427519685039
0
LINE
5
33F
100
AcDbEntity
8
Reference
6
ByLayer
62
256
370
-1
100
AcDbLine
10
25.1327559055
20
0.427519685039
11
25.1346062992
21
0.442480314961
0
LINE
5
340
100
AcDbEntity
8
Reference
6
ByLayer
62
256
370
-1
100
AcDbLine
10
25.1346062992
20
0.442480314961
11
25.1383858268
21
0.457086614173
0
LINE
5
341
100
AcDbEntity
8
Reference
6
ByLayer
62
256
370
-1
100
AcDbLine
10
25.1383858268
20
0.457086614173
11
25.1439370079
21
0.471102362205
0
LINE
5
342
100
AcDbEntity
8
Reference
6
ByLayer
62
256
370
-1
100
AcDbLine
10
25.1439370079
20
0.471102362205
11
25.1511811024
21
0.484291338583
0
LINE
5
343
100
AcDbEntity
8
Reference
6
ByLayer
62
256
370
-1
100
AcDbLine
10
25.1511811024
20
0.484291338583
11
25.1600393701
21
0.496496062992
0
LINE
5
344
100
AcDbEntity
8
Reference
6
ByLayer
62
256
370
-1
100
AcDbLine
10
25.1600393701
20
0.496496062992
11
25.1703543307
21
0.507480314961
0
LINE
5
345
100
AcDbEntity
8
Reference
6
ByLayer
62
256
370
-1
100
AcDbLine
10
25.1703543307
20
0.507480314961
11
25.1819685039
21
0.517086614173
0
LINE
5
346
100
AcDbEntity
8
Reference
6
ByLayer
62
256
370
-1
100
AcDbLine
10
25.1819685039
20
0.517086614173
11
25.1946850394
21
0.525157480315
0
LINE
5
347
100
AcDbEntity
8
Reference
6
ByLayer
62
256
370
-1
100
AcDbLine
10
25.1946850394
20
0.525157480315
11
25.2083070866
21
0.53157480315
0
LINE
5
348
100
AcDbEntity
8
Reference
6
ByLayer
62
256
370
-1
100
AcDbLine
10
25.2083070866
20
0.53157480315
11
25.2226377953
21
0.536220472441
0
LINE
5
349
100
AcDbEntity
8
Reference
6
ByLayer
62
256
370
-1
100
AcDbLine
10
25.2226377953
20
0.536220472441
11
25.2374409449
21
0.53905511811
0
LINE
5
34A
100
AcDbEntity
8
Reference
6
ByLayer
62
256
370
-1
100
AcDbLine
10
25.2374409449
20
0.53905511811
11
25.252480315
21
0.54
0
LINE
5
34B
100
AcDbEntity
8
Reference
6
ByLayer
62
256
370
-1
100
AcDbLine
10
25.252480315
20
0.54
11
25.2675590551
21
0.53905511811
0
LINE
5
34C
100
AcDbEntity
8
Reference
6
ByLayer
62
256
370
-1
100
AcDbLine
10
25.2675590551
20
0.53905511811
11
25.2823622047
21
0.536220472441
0
LINE
5
34D
100
AcDbEntity
8
Reference
6
ByLayer
62
256
370
-1
100
AcDbLine
10
25.2823622047
20
0.536220472441
11
25.2966929134
21
0.53157480315
0
LINE
5
34E
100
AcDbEntity
8
Reference
6
ByLayer
62
256
370
-1
100
AcDbLine
10
25.2966929134
20
0.53157480315
11
25.3103149606
21
0.525157480315
0
LINE
5
34F
100
AcDbEntity
8
Reference
6
ByLayer
62
256
370
-1
100
AcDbLine
10
25.3103149606
20
0.525157480315
11
25.3230314961
21
0.517086614173
0
LINE
5
350
100
AcDbEntity
8
Reference
6
ByLayer
62
256
370
-1
100
AcDbLine
10
25.3230314961
20
0.517086614173
11
25.3346456693
21
0.507480314961
0
LINE
5
351
100
AcDbEntity
8
Reference
6
ByLayer
62
256
370
-1
100
AcDbLine
10
25.3346456693
20
0.507480314961
11
25.3449606299
21
0.496496062992
0
LINE
5
352
100
AcDbEntity
8
Reference
6
ByLayer
62
256
370
-1
100
AcDbLine
10
25.3449606299
20
0.496496062992
11
25.3538188976
21
0.484291338583
0
LINE
5
353
100
AcDbEntity
8
Reference
6
ByLayer
62
256
370
-1
100
AcDbLine
10
25.3538188976
20
0.484291338583
11
25.3610629921
21
0.471102362205
0
LINE
5
354
100
AcDbEntity
8
Reference
6
ByLayer
62
256
370
-1
100
AcDbLine
10
25.3610629921
20
0.471102362205
11
25.3666141732
21
0.457086614173
0
LINE
5
355
100
AcDbEntity
8
Reference
6
ByLayer
62
256
370
-1
100
AcDbLine
10
25.3666141732
20
0.457086614173
11
25.3703937008
21
0.442480314961
0
LINE
5
356
100
AcDbEntity
8
Reference
6
ByLayer
62
256
370
-1
100
AcDbLine
10
25.3703937008
20
0.442480314961
11
25.3722440945
21
0.427519685039
0
LINE
5
357
100
AcDbEntity
8
Reference
6
ByLayer
62
256
370
-1
100
AcDbLine
10
25.3722440945
20
0.427519685039
11
25.3722440945
21
0.42
0
LINE
5
358
100
AcDbEntity
8
Reference
6
ByLayer
62
256
370
-1
100
AcDbLine
10
25.3722440945
20
0.42
11
25.372480315
21
0.42
0
LINE
5
359
100
AcDbEntity
8
Reference
6
ByLayer
62
256
370
-1
100
AcDbLine
10
25.372480315
20
0.42
11
25.372480315
21
0.27
0
LINE
5
35A
100
AcDbEntity
8
Reference
6
ByLayer
62
256
370
-1
100
AcDbLine
10
25.372480315
20
0.27
11
25.3722440945
21
0.27
0
LINE
5
35B
100
AcDbEntity
8
Reference
6
ByLayer
62
256
370
-1
100
AcDbLine
10
25.3722440945
20
0.27
11
25.3722440945
21
0.262480314961
0
LINE
5
35C
100
AcDbEntity
8
Reference
6
ByLayer
62
256
370
-1
100
AcDbLine
10
25.3722440945
20
0.262480314961
11
25.3703937008
21
0.247519685039
0
LINE
5
35D
100
AcDbEntity
8
Reference
6
ByLayer
62
256
370
-1
100
AcDbLine
10
25.3703937008
20
0.247519685039
11
25.3666141732
21
0.232913385827
0
LINE
5
35E
100
AcDbEntity
8
Reference
6
ByLayer
62
256
370
-1
100
AcDbLine
10
25.3666141732
20
0.232913385827
11
25.3610629921
21
0.218897637795
0
LINE
5
35F
100
AcDbEntity
8
Reference
6
ByLayer
62
256
370
-1
100
AcDbLine
10
25.3610629921
20
0.218897637795
11
25.3538188976
21
0.205708661417
0
LINE
5
360
100
AcDbEntity
8
Reference
6
ByLayer
62
256
370
-1
100
AcDbLine
10
25.3538188976
20
0.205708661417
11
25.3449606299
21
0.193503937008
0
LINE
5
361
100
AcDbEntity
8
Reference
6
ByLayer
62
256
370
-1
100
AcDbLine
10
25.3449606299
20
0.193503937008
11
25.3346456693
21
0.182519685039
0
LINE
5
362
100
AcDbEntity
8
Reference
6
ByLayer
62
256
370
-1
100
AcDbLine
10
25.3346456693
20
0.182519685039
11
25.3230314961
21
0.172913385827
0
LINE
5
363
100
AcDbEntity
8
Reference
6
ByLayer
62
256
370
-1
100
AcDbLine
10
25.3230314961
20
0.172913385827
11
25.3103149606
21
0.164842519685
0
LINE
5
364
100
AcDbEntity
8
Reference
6
ByLayer
62
256
370
-1
100
AcDbLine
10
25.3103149606
20
0.164842519685
11
25.2966929134
21
0.15842519685
0
LINE
5
365
100
AcDbEntity
8
Reference
6
ByLayer
62
256
370
-1
100
AcDbLine
10
25.2966929134
20
0.15842519685
11
25.2823622047
21
0.153779527559
0
LINE
5
366
100
AcDbEntity
8
Reference
6
ByLayer
62
256
370
-1
100
AcDbLine
10
25.2823622047
20
0.153779527559
11
25.2675590551
21
0.15094488189
0
LINE
5
367
100
AcDbEntity
8
Reference
6
ByLayer
62
256
370
-1
100
AcDbLine
10
25.2675590551
20
0.15094488189
11
25.252480315
21
0.15
0
LINE
5
368
100
AcDbEntity
8
Reference
6
ByLayer
62
256
370
-1
100
AcDbLine
10
26.487519685
20
18.46
11
26.4724409449
21
18.4609448819
0
LINE
5
369
100
AcDbEntity
8
Reference
6
ByLayer
62
256
370
-1
100
AcDbLine
10
26.4724409449
20
18.4609448819
11
26.4576377953
21
18.4637795276
0
LINE
5
36A
100
AcDbEntity
8
Reference
6
ByLayer
62
256
370
-1
100
AcDbLine
10
26.4576377953
20
18.4637795276
11
26.4433070866
21
18.4684251969
0
LINE
5
36B
100
AcDbEntity
8
Reference
6
ByLayer
62
256
370
-1
100
AcDbLine
10
26.4433070866
20
18.4684251969
11
26.4296850394
21
18.4748425197
0
LINE
5
36C
100
AcDbEntity
8
Reference
6
ByLayer
62
256
370
-1
100
AcDbLine
10
26.4296850394
20
18.4748425197
11
26.4169685039
21
18.4829133858
0
LINE
5
36D
100
AcDbEntity
8
Reference
6
ByLayer
62
256
370
-1
100
AcDbLine
10
26.4169685039
20
18.4829133858
11
26.4053543307
21
18.492519685
0
LINE
5
36E
100
AcDbEntity
8
Reference
6
ByLayer
62
256
370
-1
100
AcDbLine
10
26.4053543307
20
18.492519685
11
26.3950393701
21
18.503503937
0
LINE
5
36F
100
AcDbEntity
8
Reference
6
ByLayer
62
256
370
-1
100
AcDbLine
10
26.3950393701
20
18.503503937
11
26.3861811024
21
18.5157086614
0
LINE
5
370
100
AcDbEntity
8
Reference
6
ByLayer
62
256
370
-1
100
AcDbLine
10
26.3861811024
20
18.5157086614
11
26.3789370079
21
18.5288976378
0
LINE
5
371
100
AcDbEntity
8
Reference
6
ByLayer
62
256
370
-1
100
AcDbLine
10
26.3789370079
20
18.5288976378
11
26.3733858268
21
18.5429133858
0
LINE
5
372
100
AcDbEntity
8
Reference
6
ByLayer
62
256
370
-1
100
AcDbLine
10
26.3733858268
20
18.5429133858
11
26.3696062992
21
18.557519685
0
LINE
5
373
100
AcDbEntity
8
Reference
6
ByLayer
62
256
370
-1
100
AcDbLine
10
26.3696062992
20
18.557519685
11
26.3677559055
21
18.572480315
0
LINE
5
374
100
AcDbEntity
8
Reference
6
ByLayer
62
256
370
-1
100
AcDbLine
10
26.3677559055
20
18.572480315
11
26.3677559055
21
18.58
0
LINE
5
375
100
AcDbEntity
8
Reference
6
ByLayer
62
256
370
-1
100
AcDbLine
10
26.3677559055
20
18.58
11
26.367519685
21
18.58
0
LINE
5
376
100
AcDbEntity
8
Reference
6
ByLayer
62
256
370
-1
100
AcDbLine
10
26.367519685
20
18.58
11
26.367519685
21
18.73
0
LINE
5
377
100
AcDbEntity
8
Reference
6
ByLayer
62
256
370
-1
100
AcDbLine
10
26.367519685
20
18.73
11
26.3677559055
21
18.73
0
LINE
5
378
100
AcDbEntity
8
Reference
6
ByLayer
62
256
370
-1
100
AcDbLine
10
26.3677559055
20
18.73
11
26.3677559055
21
18.737519685
0
LINE
5
379
100
AcDbEntity
8
Reference
6
ByLayer
62
256
370
-1
100
AcDbLine
10
26.3677559055
20
18.737519685
11
26.3696062992
21
18.752480315
0
LINE
5
37A
100
AcDbEntity
8
Reference
6
ByLayer
62
256
370
-1
100
AcDbLine
10
26.3696062992
20
18.752480315
11
26.3733858268
21
18.7670866142
0
LINE
5
37B
100
AcDbEntity
8
Reference
6
ByLayer
62
256
370
-1
100
AcDbLine
10
26.3733858268
20
18.7670866142
11
26.3789370079
21
18.7811023622
0
LINE
5
37C
100
AcDbEntity
8
Reference
6
ByLayer
62
256
370
-1
100
AcDbLine
10
26.3789370079
20
18.7811023622
11
26.3861811024
21
18.7942913386
0
LINE
5
37D
100
AcDbEntity
8
Reference
6
ByLayer
62
256
370
-1
100
AcDbLine
10
26.3861811024
20
18.7942913386
11
26.3950393701
21
18.806496063
0
LINE
5
37E
100
AcDbEntity
8
Reference
6
ByLayer
62
256
370
-1
100
AcDbLine
10
26.3950393701
20
18.806496063
11
26.4053543307
21
18.817480315
0
LINE
5
37F
100
AcDbEntity
8
Reference
6
ByLayer
62
256
370
-1
100
AcDbLine
10
26.4053543307
20
18.817480315
11
26.4169685039
21
18.8270866142
0
LINE
5
380
100
AcDbEntity
8
Reference
6
ByLayer
62
256
370
-1
100
AcDbLine
10
26.4169685039
20
18.8270866142
11
26.4296850394
21
18.8351574803
0
LINE
5
381
100
AcDbEntity
8
Reference
6
ByLayer
62
256
370
-1
100
AcDbLine
10
26.4296850394
20
18.8351574803
11
26.4433070866
21
18.8415748031
0
LINE
5
382
100
AcDbEntity
8
Reference
6
ByLayer
62
256
370
-1
100
AcDbLine
10
26.4433070866
20
18.8415748031
11
26.4576377953
21
18.8462204724
0
LINE
5
383
100
AcDbEntity
8
Reference
6
ByLayer
62
256
370
-1
100
AcDbLine
10
26.4576377953
20
18.8462204724
11
26.4724409449
21
18.8490551181
0
LINE
5
384
100
AcDbEntity
8
Reference
6
ByLayer
62
256
370
-1
100
AcDbLine
10
26.4724409449
20
18.8490551181
11
26.487519685
21
18.85
0
LINE
5
385
100
AcDbEntity
8
Reference
6
ByLayer
62
256
370
-1
100
AcDbLine
10
26.487519685
20
18.85
11
26.5025590551
21
18.8490551181
0
LINE
5
386
100
AcDbEntity
8
Reference
6
ByLayer
62
256
370
-1
100
AcDbLine
10
26.5025590551
20
18.8490551181
11
26.5173622047
21
18.8462204724
0
LINE
5
387
100
AcDbEntity
8
Reference
6
ByLayer
62
256
370
-1
100
AcDbLine
10
26.5173622047
20
18.8462204724
11
26.5316929134
21
18.8415748031
0
LINE
5
388
100
AcDbEntity
8
Reference
6
ByLayer
62
256
370
-1
100
AcDbLine
10
26.5316929134
20
18.8415748031
11
26.5453149606
21
18.8351574803
0
LINE
5
389
100
AcDbEntity
8
Reference
6
ByLayer
62
256
370
-1
100
AcDbLine
10
26.5453149606
20
18.8351574803
11
26.5580314961
21
18.8270866142
0
LINE
5
38A
100
AcDbEntity
8
Reference
6
ByLayer
62
256
370
-1
100
AcDbLine
10
26.5580314961
20
18.8270866142
11
26.5696456693
21
18.817480315
0
LINE
5
38B
100
AcDbEntity
8
Reference
6
ByLayer
62
256
370
-1
100
AcDbLine
10
26.5696456693
20
18.817480315
11
26.5799606299
21
18.806496063
0
LINE
5
38C
100
AcDbEntity
8
Reference
6
ByLayer
62
256
370
-1
100
AcDbLine
10
26.5799606299
20
18.806496063
11
26.5888188976
21
18.7942913386
0
LINE
5
38D
100
AcDbEntity
8
Reference
6
ByLayer
62
256
370
-1
100
AcDbLine
10
26.5888188976
20
18.7942913386
11
26.5960629921
21
18.7811023622
0
LINE
5
38E
100
AcDbEntity
8
Reference
6
ByLayer
62
256
370
-1
100
AcDbLine
10
26.5960629921
20
18.7811023622
11
26.6016141732
21
18.7670866142
0
LINE
5
38F
100
AcDbEntity
8
Reference
6
ByLayer
62
256
370
-1
100
AcDbLine
10
26.6016141732
20
18.7670866142
11
26.6053937008
21
18.752480315
0
LINE
5
390
100
AcDbEntity
8
Reference
6
ByLayer
62
256
370
-1
100
AcDbLine
10
26.6053937008
20
18.752480315
11
26.6072440945
21
18.737519685
0
LINE
5
391
100
AcDbEntity
8
Reference
6
ByLayer
62
256
370
-1
100
AcDbLine
10
26.6072440945
20
18.737519685
11
26.6072440945
21
18.73
0
LINE
5
392
100
AcDbEntity
8
Reference
6
ByLayer
62
256
370
-1
100
AcDbLine
10
26.6072440945
20
18.73
11
26.607480315
21
18.73
0
LINE
5
393
100
AcDbEntity
8
Reference
6
ByLayer
62
256
370
-1
100
AcDbLine
10
26.607480315
20
18.73
11
26.607480315
21
18.58
0
LINE
5
394
100
AcDbEntity
8
Reference
6
ByLayer
62
256
370
-1
100
AcDbLine
10
26.607480315
20
18.58
11
26.6072440945
21
18.58
0
LINE
5
395
100
AcDbEntity
8
Reference
6
ByLayer
62
256
370
-1
100
AcDbLine
10
26.6072440945
20
18.58
11
26.6072440945
21
18.572480315
0
LINE
5
396
100
AcDbEntity
8
Reference
6
ByLayer
62
256
370
-1
100
AcDbLine
10
26.6072440945
20
18.572480315
11
26.6053937008
21
18.557519685
0
LINE
5
397
100
AcDbEntity
8
Reference
6
ByLayer
62
256
370
-1
100
AcDbLine
10
26.6053937008
20
18.557519685
11
26.6016141732
21
18.5429133858
0
LINE
5
398
100
AcDbEntity
8
Reference
6
ByLayer
62
256
370
-1
100
AcDbLine
10
26.6016141732
20
18.5429133858
11
26.5960629921
21
18.5288976378
0
LINE
5
399
100
AcDbEntity
8
Reference
6
ByLayer
62
256
370
-1
100
AcDbLine
10
26.5960629921
20
18.5288976378
11
26.5888188976
21
18.5157086614
0
LINE
5
39A
100
AcDbEntity
8
Reference
6
ByLayer
62
256
370
-1
100
AcDbLine
10
26.5888188976
20
18.5157086614
11
26.5799606299
21
18.503503937
0
LINE
5
39B
100
AcDbEntity
8
Reference
6
ByLayer
62
256
370
-1
100
AcDbLine
10
26.5799606299
20
18.503503937
11
26.5696456693
21
18.492519685
0
LINE
5
39C
100
AcDbEntity
8
Reference
6
ByLayer
62
256
370
-1
100
AcDbLine
10
26.5696456693
20
18.492519685
11
26.5580314961
21
18.4829133858
0
LINE
5
39D
100
AcDbEntity
8
Reference
6
ByLayer
62
256
370
-1
100
AcDbLine
10
26.5580314961
20
18.4829133858
11
26.5453149606
21
18.4748425197
0
LINE
5
39E
100
AcDbEntity
8
Reference
6
ByLayer
62
256
370
-1
100
AcDbLine
10
26.5453149606
20
18.4748425197
11
26.5316929134
21
18.4684251969
0
LINE
5
39F
100
AcDbEntity
8
Reference
6
ByLayer
62
256
370
-1
100
AcDbLine
10
26.5316929134
20
18.4684251969
11
26.5173622047
21
18.4637795276
0
LINE
5
3A0
100
AcDbEntity
8
Reference
6
ByLayer
62
256
370
-1
100
AcDbLine
10
26.5173622047
20
18.4637795276
11
26.5025590551
21
18.4609448819
0
LINE
5
3A1
100
AcDbEntity
8
Reference
6
ByLayer
62
256
370
-1
100
AcDbLine
10
26.5025590551
20
18.4609448819
11
26.487519685
21
18.46
0
LINE
5
3A2
100
AcDbEntity
8
Reference
6
ByLayer
62
256
370
-1
100
AcDbLine
10
25.252480315
20
18.46
11
25.2374409449
21
18.4609448819
0
LINE
5
3A3
100
AcDbEntity
8
Reference
6
ByLayer
62
256
370
-1
100
AcDbLine
10
25.2374409449
20
18.4609448819
11
25.2226377953
21
18.4637795276
0
LINE
5
3A4
100
AcDbEntity
8
Reference
6
ByLayer
62
256
370
-1
100
AcDbLine
10
25.2226377953
20
18.4637795276
11
25.2083070866
21
18.4684251969
0
LINE
5
3A5
100
AcDbEntity
8
Reference
6
ByLayer
62
256
370
-1
100
AcDbLine
10
25.2083070866
20
18.4684251969
11
25.1946850394
21
18.4748425197
0
LINE
5
3A6
100
AcDbEntity
8
Reference
6
ByLayer
62
256
370
-1
100
AcDbLine
10
25.1946850394
20
18.4748425197
11
25.1819685039
21
18.4829133858
0
LINE
5
3A7
100
AcDbEntity
8
Reference
6
ByLayer
62
256
370
-1
100
AcDbLine
10
25.1819685039
20
18.4829133858
11
25.1703543307
21
18.492519685
0
LINE
5
3A8
100
AcDbEntity
8
Reference
6
ByLayer
62
256
370
-1
100
AcDbLine
10
25.1703543307
20
18.492519685
11
25.1600393701
21
18.503503937
0
LINE
5
3A9
100
AcDbEntity
8
Reference
6
ByLayer
62
256
370
-1
100
AcDbLine
10
25.1600393701
20
18.503503937
11
25.1511811024
21
18.5157086614
0
LINE
5
3AA
100
AcDbEntity
8
Reference
6
ByLayer
62
256
370
-1
100
AcDbLine
10
25.1511811024
20
18.5157086614
11
25.1439370079
21
18.5288976378
0
LINE
5
3AB
100
AcDbEntity
8
Reference
6
ByLayer
62
256
370
-1
100
AcDbLine
10
25.1439370079
20
18.5288976378
11
25.1383858268
21
18.5429133858
0
LINE
5
3AC
100
AcDbEntity
8
Reference
6
ByLayer
62
256
370
-1
100
AcDbLine
10
25.1383858268
20
18.5429133858
11
25.1346062992
21
18.557519685
0
LINE
5
3AD
100
AcDbEntity
8
Reference
6
ByLayer
62
256
370
-1
100
AcDbLine
10
25.1346062992
20
18.557519685
11
25.1327559055
21
18.572480315
0
LINE
5
3AE
100
AcDbEntity
8
Reference
6
ByLayer
62
256
370
-1
100
AcDbLine
10
25.1327559055
20
18.572480315
11
25.1327559055
21
18.58
0
LINE
5
3AF
100
AcDbEntity
8
Reference
6
ByLayer
62
256
370
-1
100
AcDbLine
10
25.1327559055
20
18.58
11
25.132519685
21
18.58
0
LINE
5
3B0
100
AcDbEntity
8
Reference
6
ByLayer
62
256
370
-1
100
AcDbLine
10
25.132519685
20
18.58
11
25.132519685
21
18.73
0
LINE
5
3B1
100
AcDbEntity
8
Reference
6
ByLayer
62
256
370
-1
100
AcDbLine
10
25.132519685
20
18.73
11
25.1327559055
21
18.73
0
LINE
5
3B2
100
AcDbEntity
8
Reference
6
ByLayer
62
256
370
-1
100
AcDbLine
10
25.1327559055
20
18.73
11
25.1327559055
21
18.737519685
0
LINE
5
3B3
100
AcDbEntity
8
Reference
6
ByLayer
62
256
370
-1
100
AcDbLine
10
25.1327559055
20
18.737519685
11
25.1346062992
21
18.752480315
0
LINE
5
3B4
100
AcDbEntity
8
Reference
6
ByLayer
62
256
370
-1
100
AcDbLine
10
25.1346062992
20
18.752480315
11
25.1383858268
21
18.7670866142
0
LINE
5
3B5
100
AcDbEntity
8
Reference
6
ByLayer
62
256
370
-1
100
AcDbLine
10
25.1383858268
20
18.7670866142
11
25.1439370079
21
18.7811023622
0
LINE
5
3B6
100
AcDbEntity
8
Reference
6
ByLayer
62
256
370
-1
100
AcDbLine
10
25.1439370079
20
18.7811023622
11
25.1511811024
21
18.7942913386
0
LINE
5
3B7
100
AcDbEntity
8
Reference
6
ByLayer
62
256
370
-1
100
AcDbLine
10
25.1511811024
20
18.7942913386
11
25.1600393701
21
18.806496063
0
LINE
5
3B8
100
AcDbEntity
8
Reference
6
ByLayer
62
256
370
-1
100
AcDbLine
10
25.1600393701
20
18.806496063
11
25.1703543307
21
18.817480315
0
LINE
5
3B9
100
AcDbEntity
8
Reference
6
ByLayer
62
256
370
-1
100
AcDbLine
10
25.1703543307
20
18.817480315
11
25.1819685039
21
18.8270866142
0
LINE
5
3BA
100
AcDbEntity
8
Reference
6
ByLayer
62
256
370
-1
100
AcDbLine
10
25.1819685039
20
18.8270866142
11
25.1946850394
21
18.8351574803
0
LINE
5
3BB
100
AcDbEntity
8
Reference
6
ByLayer
62
256
370
-1
100
AcDbLine
10
25.1946850394
20
18.8351574803
11
25.2083070866
21
18.8415748031
0
LINE
5
3BC
100
AcDbEntity
8
Reference
6
ByLayer
62
256
370
-1
100
AcDbLine
10
25.2083070866
20
18.8415748031
11
25.2226377953
21
18.8462204724
0
LINE
5
3BD
100
AcDbEntity
8
Reference
6
ByLayer
62
256
370
-1
100
AcDbLine
10
25.2226377953
20
18.8462204724
11
25.2374409449
21
18.8490551181
0
LINE
5
3BE
100
AcDbEntity
8
Reference
6
ByLayer
62
256
370
-1
100
AcDbLine
10
25.2374409449
20
18.8490551181
11
25.252480315
21
18.85
0
LINE
5
3BF
100
AcDbEntity
8
Reference
6
ByLayer
62
256
370
-1
100
AcDbLine
10
25.252480315
20
18.85
11
25.2675590551
21
18.8490551181
0
LINE
5
3C0
100
AcDbEntity
8
Reference
6
ByLayer
62
256
370
-1
100
AcDbLine
10
25.2675590551
20
18.8490551181
11
25.2823622047
21
18.8462204724
0
LINE
5
3C1
100
AcDbEntity
8
Reference
6
ByLayer
62
256
370
-1
100
AcDbLine
10
25.2823622047
20
18.8462204724
11
25.2966929134
21
18.8415748031
0
LINE
5
3C2
100
AcDbEntity
8
Reference
6
ByLayer
62
256
370
-1
100
AcDbLine
10
25.2966929134
20
18.8415748031
11
25.3103149606
21
18.8351574803
0
LINE
5
3C3
100
AcDbEntity
8
Reference
6
ByLayer
62
256
370
-1
100
AcDbLine
10
25.3103149606
20
18.8351574803
11
25.3230314961
21
18.8270866142
0
LINE
5
3C4
100
AcDbEntity
8
Reference
6
ByLayer
62
256
370
-1
100
AcDbLine
10
25.3230314961
20
18.8270866142
11
25.3346456693
21
18.817480315
0
LINE
5
3C5
100
AcDbEntity
8
Reference
6
ByLayer
62
256
370
-1
100
AcDbLine
10
25.3346456693
20
18.817480315
11
25.3449606299
21
18.806496063
0
LINE
5
3C6
100
AcDbEntity
8
Reference
6
ByLayer
62
256
370
-1
100
AcDbLine
10
25.3449606299
20
18.806496063
11
25.3538188976
21
18.7942913386
0
LINE
5
3C7
100
AcDbEntity
8
Reference
6
ByLayer
62
256
370
-1
100
AcDbLine
10
25.3538188976
20
18.7942913386
11
25.3610629921
21
18.7811023622
0
LINE
5
3C8
100
AcDbEntity
8
Reference
6
ByLayer
62
256
370
-1
100
AcDbLine
10
25.3610629921
20
18.7811023622
11
25.3666141732
21
18.7670866142
0
LINE
5
3C9
100
AcDbEntity
8
Reference
6
ByLayer
62
256
370
-1
100
AcDbLine
10
25.3666141732
20
18.7670866142
11
25.3703937008
21
18.752480315
0
LINE
5
3CA
100
AcDbEntity
8
Reference
6
ByLayer
62
256
370
-1
100
AcDbLine
10
25.3703937008
20
18.752480315
11
25.3722440945
21
18.737519685
0
LINE
5
3CB
100
AcDbEntity
8
Reference
6
ByLayer
62
256
370
-1
100
AcDbLine
10
25.3722440945
20
18.737519685
11
25.3722440945
21
18.73
0
LINE
5
3CC
100
AcDbEntity
8
Reference
6
ByLayer
62
256
370
-1
100
AcDbLine
10
25.3722440945
20
18.73
11
25.372480315
21
18.73
0
LINE
5
3CD
100
AcDbEntity
8
Reference
6
ByLayer
62
256
370
-1
100
AcDbLine
10
25.372480315
20
18.73
11
25.372480315
21
18.58
0
LINE
5
3CE
100
AcDbEntity
8
Reference
6
ByLayer
62
256
370
-1
100
AcDbLine
10
25.372480315
20
18.58
11
25.3722440945
21
18.58
0
LINE
5
3CF
100
AcDbEntity
8
Reference
6
ByLayer
62
256
370
-1
100
AcDbLine
10
25.3722440945
20
18.58
11
25.3722440945
21
18.572480315
0
LINE
5
3D0
100
AcDbEntity
8
Reference
6
ByLayer
62
256
370
-1
100
AcDbLine
10
25.3722440945
20
18.572480315
11
25.3703937008
21
18.557519685
0
LINE
5
3D1
100
AcDbEntity
8
Reference
6
ByLayer
62
256
370
-1
100
AcDbLine
10
25.3703937008
20
18.557519685
11
25.3666141732
21
18.5429133858
0
LINE
5
3D2
100
AcDbEntity
8
Reference
6
ByLayer
62
256
370
-1
100
AcDbLine
10
25.3666141732
20
18.5429133858
11
25.3610629921
21
18.5288976378
0
LINE
5
3D3
100
AcDbEntity
8
Reference
6
ByLayer
62
256
370
-1
100
AcDbLine
10
25.3610629921
20
18.5288976378
11
25.3538188976
21
18.5157086614
0
LINE
5
3D4
100
AcDbEntity
8
Reference
6
ByLayer
62
256
370
-1
100
AcDbLine
10
25.3538188976
20
18.5157086614
11
25.3449606299
21
18.503503937
0
LINE
5
3D5
100
AcDbEntity
8
Reference
6
ByLayer
62
256
370
-1
100
AcDbLine
10
25.3449606299
20
18.503503937
11
25.3346456693
21
18.492519685
0
LINE
5
3D6
100
AcDbEntity
8
Reference
6
ByLayer
62
256
370
-1
100
AcDbLine
10
25.3346456693
20
18.492519685
11
25.3230314961
21
18.4829133858
0
LINE
5
3D7
100
AcDbEntity
8
Reference
6
ByLayer
62
256
370
-1
100
AcDbLine
10
25.3230314961
20
18.4829133858
11
25.3103149606
21
18.4748425197
0
LINE
5
3D8
100
AcDbEntity
8
Reference
6
ByLayer
62
256
370
-1
100
AcDbLine
10
25.3103149606
20
18.4748425197
11
25.2966929134
21
18.4684251969
0
LINE
5
3D9
100
AcDbEntity
8
Reference
6
ByLayer
62
256
370
-1
100
AcDbLine
10
25.2966929134
20
18.4684251969
11
25.2823622047
21
18.4637795276
0
LINE
5
3DA
100
AcDbEntity
8
Reference
6
ByLayer
62
256
370
-1
100
AcDbLine
10
25.2823622047
20
18.4637795276
11
25.2675590551
21
18.4609448819
0
LINE
5
3DB
100
AcDbEntity
8
Reference
6
ByLayer
62
256
370
-1
100
AcDbLine
10
25.2675590551
20
18.4609448819
11
25.252480315
21
18.46
0
LINE
5
3DC
100
AcDbEntity
8
Reference
6
ByLayer
62
256
370
-1
100
AcDbLine
10
25.132519685
20
0.27
11
25.132519685
21
0.42
0
LINE
5
3DD
100
AcDbEntity
8
Fixture Slots
6
ByLayer
62
256
370
-1
100
AcDbLine
10
26.58
20
1.5
11
26.58
21
17.5
0
LINE
5
3DE
100
AcDbEntity
8
Fixture Slots
6
ByLayer
62
256
370
-1
100
AcDbLine
10
25.16
20
1.5
11
25.16
21
17.5
0
CIRCLE
5
3DF
100
AcDbEntity
8
Fixture Hole 8-32 Insert
6
ByLayer
62
256
370
-1
100
AcDbCircle
10
25.2525590842
20
0.345036933684
40
0.0393700787402
0
CIRCLE
5
3E0
100
AcDbEntity
8
Fixture Hole 8-32 Insert
6
ByLayer
62
256
370
-1
100
AcDbCircle
10
26.487559026
20
0.345036970095
40
0.0393700787402
0
CIRCLE
5
3E1
100
AcDbEntity
8
Fixture Hole 8-32 Insert
6
ByLayer
62
256
370
-1
100
AcDbCircle
10
25.2495129442
20
18.6567951523
40
0.0393700787402
0
CIRCLE
5
3E2
100
AcDbEntity
8
Fixture Hole 8-32 Insert
6
ByLayer
62
256
370
-1
100
AcDbCircle
10
26.4875
20
18.655
40
0.0393700787402
0
CIRCLE
5
3E3
100
AcDbEntity
8
4-40 Through Hole
6
ByLayer
62
256
370
-1
100
AcDbCircle
10
9.97751238149
20
1.59700787402
40
0.0547209039396
0
CIRCLE
5
3E4
100
AcDbEntity
8
4-40 Through Hole
6
ByLayer
62
256
370
-1
100
AcDbCircle
10
13.9145323947
20
1.59699964691
40
0.0547241205002
0
CIRCLE
5
3E5
100
AcDbEntity
8
4-40 Through Hole
6
ByLayer
62
256
370
-1
100
AcDbCircle
10
9.97751518287
20
8.19200476273
40
0.0547243411767
0
CIRCLE
5
3E6
100
AcDbEntity
8
4-40 Through Hole
6
ByLayer
62
256
370
-1
100
AcDbCircle
10
13.9045106517
20
8.1920060767
40
0.0547214870202
0
CIRCLE
5
3E7
100
AcDbEntity
8
4-40 Through Hole
6
ByLayer
62
256
370
-1
100
AcDbCircle
10
11.0025266131
20
9.81998958225
40
0.0547268459848
0
CIRCLE
5
3E8
100
AcDbEntity
8
4-40 Through Hole
6
ByLayer
62
256
370
-1
100
AcDbCircle
10
9.75241856083
20
10.0199969525
40
0.0547208834079
0
CIRCLE
5
3E9
100
AcDbEntity
8
4-40 Through Hole
6
ByLayer
62
256
370
-1
100
AcDbCircle
10
9.75244021926
20
15.62
40
0.0547143412147
0
CIRCLE
5
3EA
100
AcDbEntity
8
4-40 Through Hole
6
ByLayer
62
256
370
-1
100
AcDbCircle
10
11.0025107635
20
16.2199966048
40
0.0547144789664
0
CIRCLE
5
3EB
100
AcDbEntity
8
Fixture Hole 1/4-20 Insert
6
ByLayer
62
256
370
-1
100
AcDbCircle
10
12
20
17.7
40
0.1796875
0
CIRCLE
5
3EC
100
AcDbEntity
8
Fixture Hole 1/4-20 Insert
6
ByLayer
62
256
370
-1
100
AcDbCircle
10
18
20
17.7
40
0.1796875
0
CIRCLE
5
3ED
100
AcDbEntity
8
Fixture Hole 1/4-20 Insert
6
ByLayer
62
256
370
-1
100
AcDbCircle
10
12
20
0.8
40
0.1796875
0
CIRCLE
5
3EE
100
AcDbEntity
8
Fixture Hole 1/4-20 Insert
6
ByLayer
62
256
370
-1
100
AcDbCircle
10
18
20
0.8
40
0.1796875
0
LINE
5
3EF
100
AcDbEntity
8
Fixture Pocket
6
ByLayer
62
256
370
-1
100
AcDbLine
10
11
20
18.5
11
13
21
18.5
0
LINE
5
3F0
100
AcDbEntity
8
Fixture Pocket
6
ByLayer
62
256
370
-1
100
AcDbLine
10
13
20
18.5
11
13
21
17
0
LINE
5
3F1
100
AcDbEntity
8
Fixture Pocket
6
ByLayer
62
256
370
-1
100
AcDbLine
10
13
20
17
11
11
21
17
0
LINE
5
3F2
100
AcDbEntity
8
Fixture Pocket
6
ByLayer
62
256
370
-1
100
AcDbLine
10
11
20
17
11
11
21
18.5
0
LINE
5
3F3
100
AcDbEntity
8
Fixture Pocket
6
ByLayer
62
256
370
-1
100
AcDbLine
10
17
20
18.5
11
19
21
18.5
0
LINE
5
3F4
100
AcDbEntity
8
Fixture Pocket
6
ByLayer
62
256
370
-1
100
AcDbLine
10
19
20
18.5
11
19
21
17
0
LINE
5
3F5
100
AcDbEntity
8
Fixture Pocket
6
ByLayer
62
256
370
-1
100
AcDbLine
10
19
20
17
11
17
21
17
0
LINE
5
3F6
100
AcDbEntity
8
Fixture Pocket
6
ByLayer
62
256
370
-1
100
AcDbLine
10
17
20
17
11
17
21
18.5
0
LINE
5
3F7
100
AcDbEntity
8
Fixture Pocket
6
ByLayer
62
256
370
-1
100
AcDbLine
10
11
20
0
11
13
21
0
0
LINE
5
3F8
100
AcDbEntity
8
Fixture Pocket
6
ByLayer
62
256
370
-1
100
AcDbLine
10
13
20
0
11
13
21
1.5
0
LINE
5
3F9
100
AcDbEntity
8
Fixture Pocket
6
ByLayer
62
256
370
-1
100
AcDbLine
10
13
20
1.5
11
11
21
1.5
0
LINE
5
3FA
100
AcDbEntity
8
Fixture Pocket
6
ByLayer
62
256
370
-1
100
AcDbLine
10
11
20
1.5
11
11
21
0
0
LINE
5
3FB
100
AcDbEntity
8
Fixture Pocket
6
ByLayer
62
256
370
-1
100
AcDbLine
10
17
20
1.5
11
19
21
1.5
0
LINE
5
3FC
100
AcDbEntity
8
Fixture Pocket
6
ByLayer
62
256
370
-1
100
AcDbLine
10
19
20
1.5
11
19
21
0
0
LINE
5
3FD
100
AcDbEntity
8
Fixture Pocket
6
ByLayer
62
256
370
-1
100
AcDbLine
10
19
20
0
11
17
21
0
0
LINE
5
3FE
100
AcDbEntity
8
Fixture Pocket
6
ByLayer
62
256
370
-1
100
AcDbLine
10
17
20
0
11
17
21
1.5
0
CIRCLE
5
3FF
100
AcDbEntity
8
4-40 Through Hole
6
ByLayer
62
256
370
-1
100
AcDbCircle
10
28.9775123815
20
1.59700787402
40
0.0547209039396
0
CIRCLE
5
400
100
AcDbEntity
8
4-40 Through Hole
6
ByLayer
62
256
370
-1
100
AcDbCircle
10
32.9145323947
20
1.59699964691
40
0.0547241205002
0
CIRCLE
5
401
100
AcDbEntity
8
4-40 Through Hole
6
ByLayer
62
256
370
-1
100
AcDbCircle
10
28.9775151829
20
8.19200476273
40
0.0547243411767
0
CIRCLE
5
402
100
AcDbEntity
8
4-40 Through Hole
6
ByLayer
62
256
370
-1
100
AcDbCircle
10
32.9045106517
20
8.1920060767
40
0.0547214870202
0
CIRCLE
5
403
100
AcDbEntity
8
4-40 Through Hole
6
ByLayer
62
256
370
-1
100
AcDbCircle
10
30.0025266131
20
9.81998958225
40
0.0547268459848
0
CIRCLE
5
404
100
AcDbEntity
8
4-40 Through Hole
6
ByLayer
62
256
370
-1
100
AcDbCircle
10
28.7524185608
20
10.0199969525
40
0.0547208834079
0
CIRCLE
5
405
100
AcDbEntity
8
4-40 Through Hole
6
ByLayer
62
256
370
-1
100
AcDbCircle
10
28.7524402193
20
15.62
40
0.0547143412147
0
CIRCLE
5
406
100
AcDbEntity
8
4-40 Through Hole
6
ByLayer
62
256
370
-1
100
AcDbCircle
10
30.0025107635
20
16.2199966048
40
0.0547144789664
0
CIRCLE
5
407
100
AcDbEntity
8
Fixture Hole 1/4-20 Insert
6
ByLayer
62
256
370
-1
100
AcDbCircle
10
31
20
17.7
40
0.1796875
0
CIRCLE
5
408
100
AcDbEntity
8
Fixture Hole 1/4-20 Insert
6
ByLayer
62
256
370
-1
100
AcDbCircle
10
37
20
17.7
40
0.1796875
0
CIRCLE
5
409
100
AcDbEntity
8
Fixture Hole 1/4-20 Insert
6
ByLayer
62
256
370
-1
100
AcDbCircle
10
31
20
0.8
40
0.1796875
0
CIRCLE
5
40A
100
AcDbEntity
8
Fixture Hole 1/4-20 Insert
6
ByLayer
62
256
370
-1
100
AcDbCircle
10
37
20
0.8
40
0.1796875
0
LINE
5
40B
100
AcDbEntity
8
Fixture Pocket
6
ByLayer
62
256
370
-1
100
AcDbLine
10
30
20
18.5
11
32
21
18.5
0
LINE
5
40C
100
AcDbEntity
8
Fixture Pocket
6
ByLayer
62
256
370
-1
100
AcDbLine
10
32
20
18.5
11
32
21
17
0
LINE
5
40D
100
AcDbEntity
8
Fixture Pocket
6
ByLayer
62
256
370
-1
100
AcDbLine
10
32
20
17
11
30
21
17
0
LINE
5
40E
100
AcDbEntity
8
Fixture Pocket
6
ByLayer
62
256
370
-1
100
AcDbLine
10
30
20
17
11
30
21
18.5
0
LINE
5
40F
100
AcDbEntity
8
Fixture Pocket
6
ByLayer
62
256
370
-1
100
AcDbLine
10
36
20
18.5
11
38
21
18.5
0
LINE
5
410
100
AcDbEntity
8
Fixture Pocket
6
ByLayer
62
256
370
-1
100
AcDbLine
10
38
20
18.5
11
38
21
17
0
LINE
5
411
100
AcDbEntity
8
Fixture Pocket
6
ByLayer
62
256
370
-1
100
AcDbLine
10
38
20
17
11
36
21
17
0
LINE
5
412
100
AcDbEntity
8
Fixture Pocket
6
ByLayer
62
256
370
-1
100
AcDbLine
10
36
20
17
11
36
21
18.5
0
LINE
5
413
100
AcDbEntity
8
Fixture Pocket
6
ByLayer
62
256
370
-1
100
AcDbLine
10
30
20
0
11
32
21
0
0
LINE
5
414
100
AcDbEntity
8
Fixture Pocket
6
ByLayer
62
256
370
-1
100
AcDbLine
10
32
20
0
11
32
21
1.5
0
LINE
5
415
100
AcDbEntity
8
Fixture Pocket
6
ByLayer
62
256
370
-1
100
AcDbLine
10
32
20
1.5
11
30
21
1.5
0
LINE
5
416
100
AcDbEntity
8
Fixture Pocket
6
ByLayer
62
256
370
-1
100
AcDbLine
10
30
20
1.5
11
30
21
0
0
LINE
5
417
100
AcDbEntity
8
Fixture Pocket
6
ByLayer
62
256
370
-1
100
AcDbLine
10
36
20
1.5
11
38
21
1.5
0
LINE
5
418
100
AcDbEntity
8
Fixture Pocket
6
ByLayer
62
256
370
-1
100
AcDbLine
10
38
20
1.5
11
38
21
0
0
LINE
5
419
100
AcDbEntity
8
Fixture Pocket
6
ByLayer
62
256
370
-1
100
AcDbLine
10
38
20
0
11
36
21
0
0
LINE
5
41A
100
AcDbEntity
8
Fixture Pocket
6
ByLayer
62
256
370
-1
100
AcDbLine
10
36
20
0
11
36
21
1.5
0
LINE
5
41B
100
AcDbEntity
8
Fixture Boundary
6
ByLayer
62
256
370
-1
100
AcDbLine
10
-0.5
20
19.5
11
-0.5
21
-0.5
0
LINE
5
41C
100
AcDbEntity
8
Fixture Boundary
6
ByLayer
62
256
370
-1
100
AcDbLine
10
40.5
20
19.5
11
-0.5
21
19.5
0
LINE
5
41D
100
AcDbEntity
8
Fixture Boundary
6
ByLayer
62
256
370
-1
100
AcDbLine
10
-0.5
20
-0.5
11
40.5
21
-0.5
0
LINE
5
41E
100
AcDbEntity
8
Fixture Boundary
6
ByLayer
62
256
370
-1
100
AcDbLine
10
40.5
20
-0.5
11
40.5
21
19.5
0
LINE
5
41F
100
AcDbEntity
8
Boundary
6
ByLayer
62
256
370
-1
100
AcDbLine
10
4.46
20
-0.01
11
3
21
-0.01
0
LINE
5
420
100
AcDbEntity
8
Boundary
6
ByLayer
62
256
370
-1
100
AcDbLine
10
7.74
20
-0.01
11
6
21
-0.01
0
LINE
5
421
100
AcDbEntity
8
Boundary
6
ByLayer
62
256
370
-1
100
AcDbLine
10
23.46
20
-0.01
11
22
21
-0.01
0
LINE
5
422
100
AcDbEntity
8
Boundary
6
ByLayer
62
256
370
-1
100
AcDbLine
10
26.74
20
-0.01
11
25
21
-0.01
0
LINE
5
423
100
AcDbEntity
8
Boundary
6
ByLayer
62
256
370
-1
100
AcDbLine
10
3
20
-0.01
11
3
21
16.8538
0
LINE
5
424
100
AcDbEntity
8
Boundary
6
ByLayer
62
256
370
-1
100
AcDbLine
10
3
20
16.8538
11
4.46
21
16.8538
0
LINE
5
425
100
AcDbEntity
8
Boundary
6
ByLayer
62
256
370
-1
100
AcDbLine
10
4.46
20
16.8538
11
4.46
21
-0.01
0
LINE
5
426
100
AcDbEntity
8
Boundary
6
ByLayer
62
256
370
-1
100
AcDbLine
10
6
20
-0.01
11
6
21
19.01
0
LINE
5
427
100
AcDbEntity
8
Boundary
6
ByLayer
62
256
370
-1
100
AcDbLine
10
6
20
19.01
11
7.74
21
19.01
0
LINE
5
428
100
AcDbEntity
8
Boundary
6
ByLayer
62
256
370
-1
100
AcDbLine
10
7.74
20
19.01
11
7.74
21
-0.01
0
LINE
5
429
100
AcDbEntity
8
Boundary
6
ByLayer
62
256
370
-1
100
AcDbLine
10
22
20
-0.01
11
22
21
16.8538
0
LINE
5
42A
100
AcDbEntity
8
Boundary
6
ByLayer
62
256
370
-1
100
AcDbLine
10
22
20
16.8538
11
23.46
21
16.8538
0
LINE
5
42B
100
AcDbEntity
8
Boundary
6
ByLayer
62
256
370
-1
100
AcDbLine
10
23.46
20
16.8538
11
23.46
21
-0.01
0
LINE
5
42C
100
AcDbEntity
8
Boundary
6
ByLayer
62
256
370
-1
100
AcDbLine
10
25
20
-0.01
11
25
21
19.01
0
LINE
5
42D
100
AcDbEntity
8
Boundary
6
ByLayer
62
256
370
-1
100
AcDbLine
10
25
20
19.01
11
26.74
21
19.01
0
LINE
5
42E
100
AcDbEntity
8
Boundary
6
ByLayer
62
256
370
-1
100
AcDbLine
10
26.74
20
19.01
11
26.74
21
-0.01
0
LINE
5
42F
100
AcDbEntity
8
Boundary
6
ByLayer
62
256
370
-1
100
AcDbLine
10
20.6250393701
20
1
11
9
21
1
0
LINE
5
430
100
AcDbEntity
8
Boundary
6
ByLayer
62
256
370
-1
100
AcDbLine
10
9
20
1
11
9
21
17.5
0
LINE
5
431
100
AcDbEntity
8
Boundary
6
ByLayer
62
256
370
-1
100
AcDbLine
10
9
20
17.5
11
20.6250393701
21
17.5
0
LINE
5
432
100
AcDbEntity
8
Boundary
6
ByLayer
62
256
370
-1
100
AcDbLine
10
20.6250393701
20
17.5
11
20.6250393701
21
1
0
LINE
5
433
100
AcDbEntity
8
Boundary
6
ByLayer
62
256
370
-1
100
AcDbLine
10
39.6250393701
20
1
11
28
21
1
0
LINE
5
434
100
AcDbEntity
8
Boundary
6
ByLayer
62
256
370
-1
100
AcDbLine
10
28
20
1
11
28
21
17.5
0
LINE
5
435
100
AcDbEntity
8
Boundary
6
ByLayer
62
256
370
-1
100
AcDbLine
10
28
20
17.5
11
39.6250393701
21
17.5
0
LINE
5
436
100
AcDbEntity
8
Boundary
6
ByLayer
62
256
370
-1
100
AcDbLine
10
39.6250393701
20
17.5
11
39.6250393701
21
1
0
CIRCLE
5
437
100
AcDbEntity
8
Fixture Hole 1/4 Through
6
ByLayer
62
256
370
-1
100
AcDbCircle
10
40
20
19
40
0.125
0
CIRCLE
5
438
100
AcDbEntity
8
Fixture Hole 1/4 Through
6
ByLayer
62
256
370
-1
100
AcDbCircle
10
40
20
0
40
0.125
0
CIRCLE
5
439
100
AcDbEntity
8
Fixture Hole 1/4 Through
6
ByLayer
62
256
370
-1
100
AcDbCircle
10
0
20
19
40
0.125
0
CIRCLE
5
43A
100
AcDbEntity
8
Fixture Hole 1/4 Through
6
ByLayer
62
256
370
-1
100
AcDbCircle
10
0
20
4
40
0.125
0
LINE
5
43B
100
AcDbEntity
8
Cutout
6
ByLayer
62
256
370
-1
100
AcDbLine
10
7.53251968504
20
9.96
11
6.20748031496
21
9.96
0
LINE
5
43C
100
AcDbEntity
8
Cutout
6
ByLayer
62
256
370
-1
100
AcDbLine
10
6.20748031496
20
9.96
11
6.20748031496
21
10.46
0
LINE
5
43D
100
AcDbEntity
8
Cutout
6
ByLayer
62
256
370
-1
100
AcDbLine
10
6.20748031496
20
10.46
11
7.53251968504
21
10.46
0
LINE
5
43E
100
AcDbEntity
8
Cutout
6
ByLayer
62
256
370
-1
100
AcDbLine
10
7.53251968504
20
10.46
11
7.53251968504
21
9.96
0
LINE
5
43F
100
AcDbEntity
8
Cutout
6
ByLayer
62
256
370
-1
100
AcDbLine
10
26.532519685
20
9.96
11
25.207480315
21
9.96
0
LINE
5
440
100
AcDbEntity
8
Cutout
6
ByLayer
62
256
370
-1
100
AcDbLine
10
25.207480315
20
9.96
11
25.207480315
21
10.46
0
LINE
5
441
100
AcDbEntity
8
Cutout
6
ByLayer
62
256
370
-1
100
AcDbLine
10
25.207480315
20
10.46
11
26.532519685
21
10.46
0
LINE
5
442
100
AcDbEntity
8
Cutout
6
ByLayer
62
256
370
-1
100
AcDbLine
10
26.532519685
20
10.46
11
26.532519685
21
9.96
0
LINE
5
443
100
AcDbEntity
8
Cutout
6
ByLayer
62
256
370
-1
100
AcDbLine
10
7.17803149606
20
11.4277559055
11
6.88866141732
21
11.4277559055
0
LINE
5
444
100
AcDbEntity
8
Cutout
6
ByLayer
62
256
370
-1
100
AcDbLine
10
6.88866141732
20
11.4277559055
11
6.88866141732
21
11.8722440945
0
LINE
5
445
100
AcDbEntity
8
Cutout
6
ByLayer
62
256
370
-1
100
AcDbLine
10
6.88866141732
20
11.8722440945
11
7.17803149606
21
11.8722440945
0
LINE
5
446
100
AcDbEntity
8
Cutout
6
ByLayer
62
256
370
-1
100
AcDbLine
10
7.17803149606
20
11.8722440945
11
7.17803149606
21
11.4277559055
0
LINE
5
447
100
AcDbEntity
8
Cutout
6
ByLayer
62
256
370
-1
100
AcDbLine
10
7.22133858268
20
12.0304724409
11
6.70165354331
21
12.0304724409
0
LINE
5
448
100
AcDbEntity
8
Cutout
6
ByLayer
62
256
370
-1
100
AcDbLine
10
6.70165354331
20
12.0304724409
11
6.70165354331
21
12.5895275591
0
LINE
5
449
100
AcDbEntity
8
Cutout
6
ByLayer
62
256
370
-1
100
AcDbLine
10
6.70165354331
20
12.5895275591
11
7.22133858268
21
12.5895275591
0
LINE
5
44A
100
AcDbEntity
8
Cutout
6
ByLayer
62
256
370
-1
100
AcDbLine
10
7.22133858268
20
12.5895275591
11
7.22133858268
21
12.0304724409
0
LINE
5
44B
100
AcDbEntity
8
Cutout
6
ByLayer
62
256
370
-1
100
AcDbLine
10
7.22133858268
20
12.9554724409
11
6.6425984252
21
12.9554724409
0
LINE
5
44C
100
AcDbEntity
8
Cutout
6
ByLayer
62
256
370
-1
100
AcDbLine
10
6.6425984252
20
12.9554724409
11
6.6425984252
21
14.2625590551
0
LINE
5
44D
100
AcDbEntity
8
Cutout
6
ByLayer
62
256
370
-1
100
AcDbLine
10
6.6425984252
20
14.2625590551
11
7.22133858268
21
14.2625590551
0
LINE
5
44E
100
AcDbEntity
8
Cutout
6
ByLayer
62
256
370
-1
100
AcDbLine
10
7.22133858268
20
14.2625590551
11
7.22133858268
21
12.9554724409
0
LINE
5
44F
100
AcDbEntity
8
Cutout
6
ByLayer
62
256
370
-1
100
AcDbLine
10
26.1780314961
20
11.4277559055
11
25.8886614173
21
11.4277559055
0
LINE
5
450
100
AcDbEntity
8
Cutout
6
ByLayer
62
256
370
-1
100
AcDbLine
10
25.8886614173
20
11.4277559055
11
25.8886614173
21
11.8722440945
0
LINE
5
451
100
AcDbEntity
8
Cutout
6
ByLayer
62
256
370
-1
100
AcDbLine
10
25.8886614173
20
11.8722440945
11
26.1780314961
21
11.8722440945
0
LINE
5
452
100
AcDbEntity
8
Cutout
6
ByLayer
62
256
370
-1
100
AcDbLine
10
26.1780314961
20
11.8722440945
11
26.1780314961
21
11.4277559055
0
LINE
5
453
100
AcDbEntity
8
Cutout
6
ByLayer
62
256
370
-1
100
AcDbLine
10
26.2213385827
20
12.0304724409
11
25.7016535433
21
12.0304724409
0
LINE
5
454
100
AcDbEntity
8
Cutout
6
ByLayer
62
256
370
-1
100
AcDbLine
10
25.7016535433
20
12.0304724409
11
25.7016535433
21
12.5895275591
0
LINE
5
455
100
AcDbEntity
8
Cutout
6
ByLayer
62
256
370
-1
100
AcDbLine
10
25.7016535433
20
12.5895275591
11
26.2213385827
21
12.5895275591
0
LINE
5
456
100
AcDbEntity
8
Cutout
6
ByLayer
62
256
370
-1
100
AcDbLine
10
26.2213385827
20
12.5895275591
11
26.2213385827
21
12.0304724409
0
LINE
5
457
100
AcDbEntity
8
Cutout
6
ByLayer
62
256
370
-1
100
AcDbLine
10
26.2213385827
20
12.9554724409
11
25.6425984252
21
12.9554724409
0
LINE
5
458
100
AcDbEntity
8
Cutout
6
ByLayer
62
256
370
-1
100
AcDbLine
10
25.6425984252
20
12.9554724409
11
25.6425984252
21
14.2625590551
0
LINE
5
459
100
AcDbEntity
8
Cutout
6
ByLayer
62
256
370
-1
100
AcDbLine
10
25.6425984252
20
14.2625590551
11
26.2213385827
21
14.2625590551
0
LINE
5
45A
100
AcDbEntity
8
Cutout
6
ByLayer
62
256
370
-1
100
AcDbLine
10
26.2213385827
20
14.2625590551
11
26.2213385827
21
12.9554724409
0
LINE
5
45B
100
AcDbEntity
8
Cutout
6
ByLayer
62
256
370
-1
100
AcDbLine
10
7.17803149606
20
16.1257086614
11
6.88866141732
21
16.1257086614
0
LINE
5
45C
100
AcDbEntity
8
Cutout
6
ByLayer
62
256
370
-1
100
AcDbLine
10
6.88866141732
20
16.1257086614
11
6.88866141732
21
17.0142913386
0
LINE
5
45D
100
AcDbEntity
8
Cutout
6
ByLayer
62
256
370
-1
100
AcDbLine
10
6.88866141732
20
17.0142913386
11
7.17803149606
21
17.0142913386
0
LINE
5
45E
100
AcDbEntity
8
Cutout
6
ByLayer
62
256
370
-1
100
AcDbLine
10
7.17803149606
20
17.0142913386
11
7.17803149606
21
16.1257086614
0
LINE
5
45F
100
AcDbEntity
8
Cutout
6
ByLayer
62
256
370
-1
100
AcDbLine
10
7.14165354331
20
17.2688976378
11
6.59834645669
21
17.2688976378
0
LINE
5
460
100
AcDbEntity
8
Cutout
6
ByLayer
62
256
370
-1
100
AcDbLine
10
6.59834645669
20
17.2688976378
11
6.59834645669
21
17.6311023622
0
LINE
5
461
100
AcDbEntity
8
Cutout
6
ByLayer
62
256
370
-1
100
AcDbLine
10
6.59834645669
20
17.6311023622
11
7.14165354331
21
17.6311023622
0
LINE
5
462
100
AcDbEntity
8
Cutout
6
ByLayer
62
256
370
-1
100
AcDbLine
10
7.14165354331
20
17.6311023622
11
7.14165354331
21
17.2688976378
0
LINE
5
463
100
AcDbEntity
8
Cutout
6
ByLayer
62
256
370
-1
100
AcDbLine
10
26.1780314961
20
16.1257086614
11
25.8886614173
21
16.1257086614
0
LINE
5
464
100
AcDbEntity
8
Cutout
6
ByLayer
62
256
370
-1
100
AcDbLine
10
25.8886614173
20
16.1257086614
11
25.8886614173
21
17.0142913386
0
LINE
5
465
100
AcDbEntity
8
Cutout
6
ByLayer
62
256
370
-1
100
AcDbLine
10
25.8886614173
20
17.0142913386
11
26.1780314961
21
17.0142913386
0
LINE
5
466
100
AcDbEntity
8
Cutout
6
ByLayer
62
256
370
-1
100
AcDbLine
10
26.1780314961
20
17.0142913386
11
26.1780314961
21
16.1257086614
0
LINE
5
467
100
AcDbEntity
8
Cutout
6
ByLayer
62
256
370
-1
100
AcDbLine
10
26.1416535433
20
17.2688976378
11
25.5983464567
21
17.2688976378
0
LINE
5
468
100
AcDbEntity
8
Cutout
6
ByLayer
62
256
370
-1
100
AcDbLine
10
25.5983464567
20
17.2688976378
11
25.5983464567
21
17.6311023622
0
LINE
5
469
100
AcDbEntity
8
Cutout
6
ByLayer
62
256
370
-1
100
AcDbLine
10
25.5983464567
20
17.6311023622
11
26.1416535433
21
17.6311023622
0
LINE
5
46A
100
AcDbEntity
8
Cutout
6
ByLayer
62
256
370
-1
100
AcDbLine
10
26.1416535433
20
17.6311023622
11
26.1416535433
21
17.2688976378
0
LINE
5
46B
100
AcDbEntity
8
tmp
6
ByLayer
62
256
370
-1
100
AcDbLine
10
7.01267716535
20
15.964488189
11
7.22133858268
21
15.964488189
0
LINE
5
46C
100
AcDbEntity
8
tmp
6
ByLayer
62
256
370
-1
100
AcDbLine
10
7.22133858268
20
15.964488189
11
7.22133858268
21
14.775511811
0
LINE
5
46D
100
AcDbEntity
8
tmp
6
ByLayer
62
256
370
-1
100
AcDbLine
10
7.22133858268
20
14.775511811
11
7.01267716535
21
14.775511811
0
LINE
5
46E
100
AcDbEntity
8
tmp
6
ByLayer
62
256
370
-1
100
AcDbLine
10
7.01267716535
20
14.775511811
11
7.01267716535
21
15.964488189
0
LINE
5
46F
100
AcDbEntity
8
tmp
6
ByLayer
62
256
370
-1
100
AcDbLine
10
26.0126771654
20
15.964488189
11
26.2213385827
21
15.964488189
0
LINE
5
470
100
AcDbEntity
8
tmp
6
ByLayer
62
256
370
-1
100
AcDbLine
10
26.2213385827
20
15.964488189
11
26.2213385827
21
14.775511811
0
LINE
5
471
100
AcDbEntity
8
tmp
6
ByLayer
62
256
370
-1
100
AcDbLine
10
26.2213385827
20
14.775511811
11
26.0126771654
21
14.775511811
0
LINE
5
472
100
AcDbEntity
8
tmp
6
ByLayer
62
256
370
-1
100
AcDbLine
10
26.0126771654
20
14.775511811
11
26.0126771654
21
15.964488189
0
LINE
5
473
100
AcDbEntity
8
Cutout
6
ByLayer
62
256
370
-1
100
AcDbLine
10
6.88866
20
10.9762
11
7.17803
21
10.9762
0
LINE
5
474
100
AcDbEntity
8
Cutout
6
ByLayer
62
256
370
-1
100
AcDbLine
10
7.17803
20
10.7238
11
6.88866
21
10.7238
0
LINE
5
475
100
AcDbEntity
8
Cutout
6
ByLayer
62
256
370
-1
100
AcDbLine
10
7.17803
20
10.9762
11
7.17803
21
10.7238
0
LINE
5
476
100
AcDbEntity
8
Cutout
6
ByLayer
62
256
370
-1
100
AcDbLine
10
6.88866
20
10.7238
11
6.88866
21
10.9762
0
LINE
5
477
100
AcDbEntity
8
Cutout
6
ByLayer
62
256
370
-1
100
AcDbLine
10
25.8887
20
10.9762
11
26.178
21
10.9762
0
LINE
5
478
100
AcDbEntity
8
Cutout
6
ByLayer
62
256
370
-1
100
AcDbLine
10
25.8887
20
10.7238
11
25.8887
21
10.9762
0
LINE
5
479
100
AcDbEntity
8
Cutout
6
ByLayer
62
256
370
-1
100
AcDbLine
10
26.178
20
10.9762
11
26.178
21
10.7238
0
LINE
5
47A
100
AcDbEntity
8
Cutout
6
ByLayer
62
256
370
-1
100
AcDbLine
10
26.178
20
10.7238
11
25.8887
21
10.7238
0
LINE
5
47B
100
AcDbEntity
8
Cutout
6
ByLayer
62
256
370
-1
100
AcDbLine
10
7.25
20
14.77
11
6.98
21
14.77
0
LINE
5
47C
100
AcDbEntity
8
Cutout
6
ByLayer
62
256
370
-1
100
AcDbLine
10
6.98
20
15.97
11
7.25
21
15.97
0
LINE
5
47D
100
AcDbEntity
8
Cutout
6
ByLayer
62
256
370
-1
100
AcDbLine
10
6.98
20
14.77
11
6.98
21
15.97
0
LINE
5
47E
100
AcDbEntity
8
Cutout
6
ByLayer
62
256
370
-1
100
AcDbLine
10
7.25
20
15.97
11
7.25
21
14.77
0
LINE
5
47F
100
AcDbEntity
8
Cutout
6
ByLayer
62
256
370
-1
100
AcDbLine
10
26.25
20
14.77
11
25.98
21
14.77
0
LINE
5
480
100
AcDbEntity
8
Cutout
6
ByLayer
62
256
370
-1
100
AcDbLine
10
25.98
20
15.97
11
26.25
21
15.97
0
LINE
5
481
100
AcDbEntity
8
Cutout
6
ByLayer
62
256
370
-1
100
AcDbLine
10
25.98
20
14.77
11
25.98
21
15.97
0
LINE
5
482
100
AcDbEntity
8
Cutout
6
ByLayer
62
256
370
-1
100
AcDbLine
10
26.25
20
15.97
11
26.25
21
14.77
0
LINE
5
483
100
AcDbEntity
8
Cutout With Corner
6
ByLayer
62
256
370
-1
100
AcDbLine
10
3.93972440945
20
11.4004330709
11
3.40429133858
21
11.4004330709
0
LINE
5
484
100
AcDbEntity
8
Cutout With Corner
6
ByLayer
62
256
370
-1
100
AcDbLine
10
3.40429133858
20
13.0146062992
11
3.93972440945
21
13.0146062992
0
LINE
5
485
100
AcDbEntity
8
Cutout With Corner
6
ByLayer
62
256
370
-1
100
AcDbLine
10
3.40429133858
20
11.4004330709
11
3.40429133858
21
13.0146062992
0
LINE
5
486
100
AcDbEntity
8
Cutout With Corner
6
ByLayer
62
256
370
-1
100
AcDbLine
10
3.93972440945
20
11.4004330709
11
3.93972440945
21
13.0146062992
0
LINE
5
487
100
AcDbEntity
8
Cutout With Corner
6
ByLayer
62
256
370
-1
100
AcDbLine
10
22.9397244094
20
11.4004330709
11
22.4042913386
21
11.4004330709
0
LINE
5
488
100
AcDbEntity
8
Cutout With Corner
6
ByLayer
62
256
370
-1
100
AcDbLine
10
22.4042913386
20
13.0146062992
11
22.9397244094
21
13.0146062992
0
LINE
5
489
100
AcDbEntity
8
Cutout With Corner
6
ByLayer
62
256
370
-1
100
AcDbLine
10
22.4042913386
20
11.4004330709
11
22.4042913386
21
13.0146062992
0
LINE
5
48A
100
AcDbEntity
8
Cutout With Corner
6
ByLayer
62
256
370
-1
100
AcDbLine
10
22.9397244094
20
11.4004330709
11
22.9397244094
21
13.0146062992
0
MTEXT
5
48B
100
AcDbEntity
8
engrave
6
ByLayer
62
256
370
-1
100
AcDbMText
10
6.35
20
1.9
30
0
40
0.15
41
0.466666666667
71
1
72
1
1
ADC0
7
iso
210
0
220
0
230
1
50
90
73
2
44
1
0
MTEXT
5
48C
100
AcDbEntity
8
engrave
6
ByLayer
62
256
370
-1
100
AcDbMText
10
6.35
20
2.7
30
0
40
0.15
41
0.433333333333
71
1
72
1
1
ADC1
7
iso
210
0
220
0
230
1
50
90
73
2
44
1
0
MTEXT
5
48D
100
AcDbEntity
8
engrave
6
ByLayer
62
256
370
-1
100
AcDbMText
10
6.35
20
3.47
30
0
40
0.15
41
0.466666666667
71
1
72
1
1
ADC2
7
iso
210
0
220
0
230
1
50
90
73
2
44
1
0
MTEXT
5
48E
100
AcDbEntity
8
engrave
6
ByLayer
62
256
370
-1
100
AcDbMText
10
6.36
20
4.26
30
0
40
0.15
41
0.466666666667
71
1
72
1
1
ADC3
7
iso
210
0
220
0
230
1
50
90
73
2
44
1
0
MTEXT
5
48F
100
AcDbEntity
8
engrave
6
ByLayer
62
256
370
-1
100
AcDbMText
10
6.35
20
5.085
30
0
40
0.15
41
0.466666666667
71
1
72
1
1
DAC0
7
iso
210
0
220
0
230
1
50
90
73
2
44
1
0
MTEXT
5
490
100
AcDbEntity
8
engrave
6
ByLayer
62
256
370
-1
100
AcDbMText
10
6.35
20
5.9
30
0
40
0.15
41
0.433333333333
71
1
72
1
1
DAC1
7
iso
210
0
220
0
230
1
50
90
73
2
44
1
0
MTEXT
5
491
100
AcDbEntity
8
engrave
6
ByLayer
62
256
370
-1
100
AcDbMText
10
6.35
20
6.7
30
0
40
0.15
41
0.466666666667
71
1
72
1
1
DAC2
7
iso
210
0
220
0
230
1
50
90
73
2
44
1
0
MTEXT
5
492
100
AcDbEntity
8
engrave
6
ByLayer
62
256
370
-1
100
AcDbMText
10
6.35
20
7.52
30
0
40
0.15
41
0.466666666667
71
1
72
1
1
DAC3
7
iso
210
0
220
0
230
1
50
90
73
2
44
1
0
MTEXT
5
493
100
AcDbEntity
8
engrave
6
ByLayer
62
256
370
-1
100
AcDbMText
10
6.35
20
8.34
30
0
40
0.15
41
0.383333333333
71
1
72
1
1
INT0
7
iso
210
0
220
0
230
1
50
90
73
2
44
1
0
MTEXT
5
494
100
AcDbEntity
8
engrave
6
ByLayer
62
256
370
-1
100
AcDbMText
10
6.35
20
9.16
30
0
40
0.15
41
0.35
71
1
72
1
1
INT1
7
iso
210
0
220
0
230
1
50
90
73
2
44
1
0
MTEXT
5
495
100
AcDbEntity
8
engrave
6
ByLayer
62
256
370
-1
100
AcDbMText
10
6.65
20
10.7
30
0
40
0.15
41
0.4
71
1
72
1
1
PWR
7
iso
210
0
220
0
230
1
50
90
73
2
44
1
0
MTEXT
5
496
100
AcDbEntity
8
engrave
6
ByLayer
62
256
370
-1
100
AcDbMText
10
6.49
20
12.16
30
0
40
0.15
41
0.3499999682
71
1
72
1
1
USB
7
iso
210
0
220
0
230
1
50
90
73
2
44
1
0
MTEXT
5
497
100
AcDbEntity
8
engrave
6
ByLayer
62
256
370
-1
100
AcDbMText
10
6.4
20
13.49
30
0
40
0.15
41
0.233333333333
71
1
72
1
1
I2C
7
iso
210
0
220
0
230
1
50
90
73
2
44
1
0
MTEXT
5
498
100
AcDbEntity
8
engrave
6
ByLayer
62
256
370
-1
100
AcDbMText
10
6.65
20
16.29
30
0
40
0.15
41
0.633333378676
71
1
72
1
1
Status
7
iso
210
0
220
0
230
1
50
90
73
2
44
1
0
MTEXT
5
499
100
AcDbEntity
8
engrave
6
ByLayer
62
256
370
-1
100
AcDbMText
10
6.745
20
14.99
30
0
40
0.15
41
0.779166634866
71
1
72
1
1
SD Card
7
iso
210
0
220
0
230
1
50
90
73
2
44
1
0
DIMENSION
5
49A
100
AcDbEntity
8
engrave
6
ByLayer
62
256
370
-1
100
AcDbDimension
2
*D1
10
6.87489166358
20
1.6
30
0
11
6.61244583179
21
1.675
31
0
70
32
71
5
3
Standard
53
0
210
0
220
0
230
1
100
AcDbAlignedDimension
13
6.35
23
1.9
33
0
14
6.87489166358
24
2.12999684441
34
0
100
AcDbRotatedDimension
0
MTEXT
5
49B
100
AcDbEntity
8
engrave
6
ByLayer
62
256
370
-1
100
AcDbMText
10
25.35
20
1.9
30
0
40
0.15
41
0.466666666667
71
1
72
1
1
ADC0
7
iso
210
0
220
0
230
1
50
90
73
2
44
1
0
MTEXT
5
49C
100
AcDbEntity
8
engrave
6
ByLayer
62
256
370
-1
100
AcDbMText
10
25.35
20
2.7
30
0
40
0.15
41
0.433333333333
71
1
72
1
1
ADC1
7
iso
210
0
220
0
230
1
50
90
73
2
44
1
0
MTEXT
5
49D
100
AcDbEntity
8
engrave
6
ByLayer
62
256
370
-1
100
AcDbMText
10
25.35
20
3.47
30
0
40
0.15
41
0.466666666667
71
1
72
1
1
ADC2
7
iso
210
0
220
0
230
1
50
90
73
2
44
1
0
MTEXT
5
49E
100
AcDbEntity
8
engrave
6
ByLayer
62
256
370
-1
100
AcDbMText
10
25.36
20
4.26
30
0
40
0.15
41
0.466666666667
71
1
72
1
1
ADC3
7
iso
210
0
220
0
230
1
50
90
73
2
44
1
0
MTEXT
5
49F
100
AcDbEntity
8
engrave
6
ByLayer
62
256
370
-1
100
AcDbMText
10
25.35
20
5.085
30
0
40
0.15
41
0.466666666667
71
1
72
1
1
DAC0
7
iso
210
0
220
0
230
1
50
90
73
2
44
1
0
MTEXT
5
4A0
100
AcDbEntity
8
engrave
6
ByLayer
62
256
370
-1
100
AcDbMText
10
25.35
20
5.9
30
0
40
0.15
41
0.433333333333
71
1
72
1
1
DAC1
7
iso
210
0
220
0
230
1
50
90
73
2
44
1
0
MTEXT
5
4A1
100
AcDbEntity
8
engrave
6
ByLayer
62
256
370
-1
100
AcDbMText
10
25.35
20
6.7
30
0
40
0.15
41
0.466666666667
71
1
72
1
1
DAC2
7
iso
210
0
220
0
230
1
50
90
73
2
44
1
0
MTEXT
5
4A2
100
AcDbEntity
8
engrave
6
ByLayer
62
256
370
-1
100
AcDbMText
10
25.35
20
7.52
30
0
40
0.15
41
0.466666666667
71
1
72
1
1
DAC3
7
iso
210
0
220
0
230
1
50
90
73
2
44
1
0
MTEXT
5
4A3
100
AcDbEntity
8
engrave
6
ByLayer
62
256
370
-1
100
AcDbMText
10
25.35
20
8.34
30
0
40
0.15
41
0.383333333333
71
1
72
1
1
INT0
7
iso
210
0
220
0
230
1
50
90
73
2
44
1
0
MTEXT
5
4A4
100
AcDbEntity
8
engrave
6
ByLayer
62
256
370
-1
100
AcDbMText
10
25.35
20
9.16
30
0
40
0.15
41
0.35
71
1
72
1
1
INT1
7
iso
210
0
220
0
230
1
50
90
73
2
44
1
0
MTEXT
5
4A5
100
AcDbEntity
8
engrave
6
ByLayer
62
256
370
-1
100
AcDbMText
10
25.65
20
10.7
30
0
40
0.15
41
0.4
71
1
72
1
1
PWR
7
iso
210
0
220
0
230
1
50
90
73
2
44
1
0
MTEXT
5
4A6
100
AcDbEntity
8
engrave
6
ByLayer
62
256
370
-1
100
AcDbMText
10
25.49
20
12.16
30
0
40
0.15
41
0.3499999682
71
1
72
1
1
USB
7
iso
210
0
220
0
230
1
50
90
73
2
44
1
0
MTEXT
5
4A7
100
AcDbEntity
8
engrave
6
ByLayer
62
256
370
-1
100
AcDbMText
10
25.4
20
13.49
30
0
40
0.15
41
0.233333333333
71
1
72
1
1
I2C
7
iso
210
0
220
0
230
1
50
90
73
2
44
1
0
MTEXT
5
4A8
100
AcDbEntity
8
engrave
6
ByLayer
62
256
370
-1
100
AcDbMText
10
25.65
20
16.29
30
0
40
0.15
41
0.633333378676
71
1
72
1
1
Status
7
iso
210
0
220
0
230
1
50
90
73
2
44
1
0
MTEXT
5
4A9
100
AcDbEntity
8
engrave
6
ByLayer
62
256
370
-1
100
AcDbMText
10
25.745
20
14.99
30
0
40
0.15
41
0.779166634866
71
1
72
1
1
SD Card
7
iso
210
0
220
0
230
1
50
90
73
2
44
1
0
ENDSEC
0
SECTION
2
OBJECTS
0
DICTIONARY
5
C
330
0
100
AcDbDictionary
281
1
3
ACAD_GROUP
350
D
0
DICTIONARY
5
D
330
C
100
AcDbDictionary
281
1
0
ENDSEC
0
EOF
