999
dxflib 2.0.4.8
  0
SECTION
  2
HEADER
  9
$ACADVER
  1
AC1015
  9
$HANDSEED
  5
FFFF
  9
$DIMASZ
 40
2.5
  9
$DIMGAP
 40
0.625
  9
$DIMEXO
 40
0.625
  9
$INSUNITS
 70
4
  9
$DIMTXT
 40
2.5
  9
$DIMSTYLE
  2
Standard
  9
$PLIMMAX
 10
210.0
 20
297.0
  9
$PLIMMIN
 10
0.0
 20
0.0
  9
$DIMEXE
 40
1.25
  0
ENDSEC
  0
SECTION
  2
TABLES
  0
TABLE
  2
VPORT
  5
8
100
AcDbSymbolTable
 70
1
  0
VPORT
  5
30
100
AcDbSymbolTableRecord
100
AcDbViewportTableRecord
  2
*Active
 70
0
 10
0.0
 20
0.0
 11
1.0
 21
1.0
 12
286.3055555555554861
 22
148.5
 13
0.0
 23
0.0
 14
10.0
 24
10.0
 15
10.0
 25
10.0
 16
0.0
 26
0.0
 36
1.0
 17
0.0
 27
0.0
 37
0.0
 40
297.0
 41
1.92798353909465
 42
50.0
 43
0.0
 44
0.0
 50
0.0
 51
0.0
 71
0
 72
100
 73
1
 74
3
 75
1
 76
1
 77
0
 78
0
281
0
 65
1
110
0.0
120
0.0
130
0.0
111
1.0
121
0.0
131
0.0
112
0.0
122
1.0
132
0.0
 79
0
146
0.0
  0
ENDTAB
  0
TABLE
  2
LTYPE
  5
5
100
AcDbSymbolTable
 70
21
  0
LTYPE
  5
14
100
AcDbSymbolTableRecord
100
AcDbLinetypeTableRecord
  2
ByBlock
 70
0
  3

 72
65
 73
0
 40
0.0
  0
LTYPE
  5
15
100
AcDbSymbolTableRecord
100
AcDbLinetypeTableRecord
  2
ByLayer
 70
0
  3

 72
65
 73
0
 40
0.0
  0
LTYPE
  5
16
100
AcDbSymbolTableRecord
100
AcDbLinetypeTableRecord
  2
CONTINUOUS
 70
0
  3
Solid line
 72
65
 73
0
 40
0.0
  0
LTYPE
  5
31
100
AcDbSymbolTableRecord
100
AcDbLinetypeTableRecord
  2
DOT
 70
0
  3
Dot . . . . . . . . . . . . . . . . . . . . . .
 72
65
 73
2
 40
6.3499999999999996
 49
0.0
 74
0
 49
-6.3499999999999996
 74
0
  0
LTYPE
  5
32
100
AcDbSymbolTableRecord
100
AcDbLinetypeTableRecord
  2
DOT2
 70
0
  3
Dot (.5x) .....................................
 72
65
 73
2
 40
3.1749999999999998
 49
0.0
 74
0
 49
-3.1749999999999998
 74
0
  0
LTYPE
  5
33
100
AcDbSymbolTableRecord
100
AcDbLinetypeTableRecord
  2
DOTX2
 70
0
  3
Dot (2x) .  .  .  .  .  .  .  .  .  .  .  .  .
 72
65
 73
2
 40
12.6999999999999993
 49
0.0
 74
0
 49
-12.6999999999999993
 74
0
  0
LTYPE
  5
34
100
AcDbSymbolTableRecord
100
AcDbLinetypeTableRecord
  2
DASHED
 70
0
  3
Dashed __ __ __ __ __ __ __ __ __ __ __ __ __ _
 72
65
 73
2
 40
19.0500000000000007
 49
12.6999999999999993
 74
0
 49
-6.3499999999999996
 74
0
  0
LTYPE
  5
35
100
AcDbSymbolTableRecord
100
AcDbLinetypeTableRecord
  2
DASHED2
 70
0
  3
Dashed (.5x) _ _ _ _ _ _ _ _ _ _ _ _ _ _ _ _ _
 72
65
 73
2
 40
9.5250000000000004
 49
6.3499999999999996
 74
0
 49
-3.1749999999999998
 74
0
  0
LTYPE
  5
36
100
AcDbSymbolTableRecord
100
AcDbLinetypeTableRecord
  2
DASHEDX2
 70
0
  3
Dashed (2x) ____  ____  ____  ____  ____  ___
 72
65
 73
2
 40
38.1000000000000014
 49
25.3999999999999986
 74
0
 49
-12.6999999999999993
 74
0
  0
LTYPE
  5
37
100
AcDbSymbolTableRecord
100
AcDbLinetypeTableRecord
  2
DASHDOT
 70
0
  3
Dash dot __ . __ . __ . __ . __ . __ . __ . __
 72
65
 73
4
 40
25.3999999999999986
 49
12.6999999999999993
 74
0
 49
-6.3499999999999996
 74
0
 49
0.0
 74
0
 49
-6.3499999999999996
 74
0
  0
LTYPE
  5
38
100
AcDbSymbolTableRecord
100
AcDbLinetypeTableRecord
  2
DASHDOT2
 70
0
  3
Dash dot (.5x) _._._._._._._._._._._._._._._.
 72
65
 73
4
 40
12.6999999999999993
 49
6.3499999999999996
 74
0
 49
-3.1749999999999998
 74
0
 49
0.0
 74
0
 49
-3.1749999999999998
 74
0
  0
LTYPE
  5
39
100
AcDbSymbolTableRecord
100
AcDbLinetypeTableRecord
  2
DASHDOTX2
 70
0
  3
Dash dot (2x) ____  .  ____  .  ____  .  ___
 72
65
 73
4
 40
50.7999999999999972
 49
25.3999999999999986
 74
0
 49
-12.6999999999999993
 74
0
 49
0.0
 74
0
 49
-12.6999999999999993
 74
0
  0
LTYPE
  5
3A
100
AcDbSymbolTableRecord
100
AcDbLinetypeTableRecord
  2
DIVIDE
 70
0
  3
Divide ____ . . ____ . . ____ . . ____ . . ____
 72
65
 73
6
 40
31.75
 49
12.6999999999999993
 74
0
 49
-6.3499999999999996
 74
0
 49
0.0
 74
0
 49
-6.3499999999999996
 74
0
 49
0.0
 74
0
 49
-6.3499999999999996
 74
0
  0
LTYPE
  5
3B
100
AcDbSymbolTableRecord
100
AcDbLinetypeTableRecord
  2
DIVIDE2
 70
0
  3
Divide (.5x) __..__..__..__..__..__..__..__.._
 72
65
 73
6
 40
15.875
 49
6.3499999999999996
 74
0
 49
-3.1749999999999998
 74
0
 49
0.0
 74
0
 49
-3.1749999999999998
 74
0
 49
0.0
 74
0
 49
-3.1749999999999998
 74
0
  0
LTYPE
  5
3C
100
AcDbSymbolTableRecord
100
AcDbLinetypeTableRecord
  2
DIVIDEX2
 70
0
  3
Divide (2x) ________  .  .  ________  .  .  _
 72
65
 73
6
 40
63.5
 49
25.3999999999999986
 74
0
 49
-12.6999999999999993
 74
0
 49
0.0
 74
0
 49
-12.6999999999999993
 74
0
 49
0.0
 74
0
 49
-12.6999999999999993
 74
0
  0
LTYPE
  5
3D
100
AcDbSymbolTableRecord
100
AcDbLinetypeTableRecord
  2
CENTER
 70
0
  3
Center ____ _ ____ _ ____ _ ____ _ ____ _ ____
 72
65
 73
4
 40
50.7999999999999972
 49
31.75
 74
0
 49
-6.3499999999999996
 74
0
 49
6.3499999999999996
 74
0
 49
-6.3499999999999996
 74
0
  0
LTYPE
  5
3E
100
AcDbSymbolTableRecord
100
AcDbLinetypeTableRecord
  2
CENTER2
 70
0
  3
Center (.5x) ___ _ ___ _ ___ _ ___ _ ___ _ ___
 72
65
 73
4
 40
28.5749999999999993
 49
19.0500000000000007
 74
0
 49
-3.1749999999999998
 74
0
 49
3.1749999999999998
 74
0
 49
-3.1749999999999998
 74
0
  0
LTYPE
  5
3F
100
AcDbSymbolTableRecord
100
AcDbLinetypeTableRecord
  2
CENTERX2
 70
0
  3
Center (2x) ________  __  ________  __  _____
 72
65
 73
4
 40
101.5999999999999943
 49
63.5
 74
0
 49
-12.6999999999999993
 74
0
 49
12.6999999999999993
 74
0
 49
-12.6999999999999993
 74
0
  0
LTYPE
  5
40
100
AcDbSymbolTableRecord
100
AcDbLinetypeTableRecord
  2
BORDER
 70
0
  3
Border __ __ . __ __ . __ __ . __ __ . __ __ .
 72
65
 73
6
 40
44.4500000000000028
 49
12.6999999999999993
 74
0
 49
-6.3499999999999996
 74
0
 49
12.6999999999999993
 74
0
 49
-6.3499999999999996
 74
0
 49
0.0
 74
0
 49
-6.3499999999999996
 74
0
  0
LTYPE
  5
41
100
AcDbSymbolTableRecord
100
AcDbLinetypeTableRecord
  2
BORDER2
 70
0
  3
Border (.5x) __.__.__.__.__.__.__.__.__.__.__.
 72
65
 73
6
 40
22.2250000000000014
 49
6.3499999999999996
 74
0
 49
-3.1749999999999998
 74
0
 49
6.3499999999999996
 74
0
 49
-3.1749999999999998
 74
0
 49
0.0
 74
0
 49
-3.1749999999999998
 74
0
  0
LTYPE
  5
42
100
AcDbSymbolTableRecord
100
AcDbLinetypeTableRecord
  2
BORDERX2
 70
0
  3
Border (2x) ____  ____  .  ____  ____  .  ___
 72
65
 73
6
 40
88.9000000000000057
 49
25.3999999999999986
 74
0
 49
-12.6999999999999993
 74
0
 49
25.3999999999999986
 74
0
 49
-12.6999999999999993
 74
0
 49
0.0
 74
0
 49
-12.6999999999999993
 74
0
  0
ENDTAB
  0
TABLE
  2
LAYER
  5
2
100
AcDbSymbolTable
 70
1
  0
LAYER
  5
10
100
AcDbSymbolTableRecord
100
AcDbLayerTableRecord
  2
0
 70
0
 62
7
  6
CONTINUOUS
370
0
390
F
  0
ENDTAB
  0
TABLE
  2
STYLE
  5
3
100
AcDbSymbolTable
 70
1
  0
STYLE
  5
11
100
AcDbSymbolTableRecord
100
AcDbTextStyleTableRecord
  2
Standard
 70
0
 40
0.0
 41
0.75
 50
0.0
 71
0
 42
2.5
  3
txt
  4

  0
ENDTAB
  0
TABLE
  2
VIEW
  5
6
100
AcDbSymbolTable
 70
0
  0
ENDTAB
  0
TABLE
  2
UCS
  5
7
100
AcDbSymbolTable
 70
0
  0
ENDTAB
  0
TABLE
  2
APPID
  5
9
100
AcDbSymbolTable
 70
1
  0
APPID
  5
12
100
AcDbSymbolTableRecord
100
AcDbRegAppTableRecord
  2
ACAD
 70
0
  0
ENDTAB
  0
TABLE
  2
DIMSTYLE
  5
A
100
AcDbSymbolTable
 70
1
100
AcDbDimStyleTable
 71
0
  0
DIMSTYLE
105
27
100
AcDbSymbolTableRecord
100
AcDbDimStyleTableRecord
  2
Standard
 41
2.5
 42
0.625
 43
3.75
 44
1.25
 70
0
 73
0
 74
0
 77
1
 78
8
140
2.5
141
2.5
143
0.03937007874016
147
0.625
171
3
172
1
271
2
272
2
274
3
278
44
283
0
284
8
340
11
  0
ENDTAB
  0
TABLE
  2
BLOCK_RECORD
  5
1
100
AcDbSymbolTable
 70
1
  0
BLOCK_RECORD
  5
1F
100
AcDbSymbolTableRecord
100
AcDbBlockTableRecord
  2
*Model_Space
340
22
  0
BLOCK_RECORD
  5
1B
100
AcDbSymbolTableRecord
100
AcDbBlockTableRecord
  2
*Paper_Space
340
1E
  0
BLOCK_RECORD
  5
23
100
AcDbSymbolTableRecord
100
AcDbBlockTableRecord
  2
*Paper_Space0
340
26
  0
ENDTAB
  0
ENDSEC
  0
SECTION
  2
BLOCKS
  0
BLOCK
  5
20
100
AcDbEntity
  8
0
100
AcDbBlockBegin
  2
*Model_Space
 70
0
 10
0.0
 20
0.0
 30
0.0
  3
*Model_Space
  1

  0
ENDBLK
  5
21
100
AcDbEntity
  8
0
100
AcDbBlockEnd
  0
BLOCK
  5
1C
100
AcDbEntity
 67
1
  8
0
100
AcDbBlockBegin
  2
*Paper_Space
 70
0
 10
0.0
 20
0.0
 30
0.0
  3
*Paper_Space
  1

  0
ENDBLK
  5
1D
100
AcDbEntity
 67
1
  8
0
100
AcDbBlockEnd
  0
BLOCK
  5
24
100
AcDbEntity
  8
0
100
AcDbBlockBegin
  2
*Paper_Space0
 70
0
 10
0.0
 20
0.0
 30
0.0
  3
*Paper_Space0
  1

  0
ENDBLK
  5
25
100
AcDbEntity
  8
0
100
AcDbBlockEnd
  0
ENDSEC
  0
SECTION
  2
ENTITIES
  0
LINE
  5
43
100
AcDbEntity
100
AcDbLine
  8
0
 62
256
370
-1
  6
ByLayer
 10
-209.5500000000000114
 20
-147.6380000000000052
 30
0.0
 11
-209.5500000000000114
 21
147.6380000000000052
 31
0.0
  0
LINE
  5
44
100
AcDbEntity
100
AcDbLine
  8
0
 62
256
370
-1
  6
ByLayer
 10
-209.5500000000000114
 20
147.6380000000000052
 30
0.0
 11
209.5500000000000114
 21
147.6380000000000052
 31
0.0
  0
LINE
  5
45
100
AcDbEntity
100
AcDbLine
  8
0
 62
256
370
-1
  6
ByLayer
 10
209.5500000000000114
 20
147.6380000000000052
 30
0.0
 11
209.5500000000000114
 21
-147.6380000000000052
 31
0.0
  0
LINE
  5
46
100
AcDbEntity
100
AcDbLine
  8
0
 62
256
370
-1
  6
ByLayer
 10
209.5500000000000114
 20
-147.6380000000000052
 30
0.0
 11
-209.5500000000000114
 21
-147.6380000000000052
 31
0.0
  0
LINE
  5
47
100
AcDbEntity
100
AcDbLine
  8
0
 62
256
370
-1
  6
ByLayer
 10
-195.7760000000000105
 20
22.8090000000000011
 30
0.0
 11
-195.7649999999999864
 21
22.9830000000000005
 31
0.0
  0
LINE
  5
48
100
AcDbEntity
100
AcDbLine
  8
0
 62
256
370
-1
  6
ByLayer
 10
-195.7649999999999864
 20
22.9830000000000005
 30
0.0
 11
-195.7330000000000041
 21
23.1550000000000011
 31
0.0
  0
LINE
  5
49
100
AcDbEntity
100
AcDbLine
  8
0
 62
256
370
-1
  6
ByLayer
 10
-195.7330000000000041
 20
23.1550000000000011
 30
0.0
 11
-195.679000000000002
 21
23.3210000000000015
 31
0.0
  0
LINE
  5
4A
100
AcDbEntity
100
AcDbLine
  8
0
 62
256
370
-1
  6
ByLayer
 10
-195.679000000000002
 20
23.3210000000000015
 30
0.0
 11
-195.6040000000000134
 21
23.4789999999999992
 31
0.0
  0
LINE
  5
4B
100
AcDbEntity
100
AcDbLine
  8
0
 62
256
370
-1
  6
ByLayer
 10
-195.6040000000000134
 20
23.4789999999999992
 30
0.0
 11
-195.5109999999999957
 21
23.6260000000000012
 31
0.0
  0
LINE
  5
4C
100
AcDbEntity
100
AcDbLine
  8
0
 62
256
370
-1
  6
ByLayer
 10
-195.5109999999999957
 20
23.6260000000000012
 30
0.0
 11
-195.3990000000000009
 21
23.7609999999999992
 31
0.0
  0
LINE
  5
4D
100
AcDbEntity
100
AcDbLine
  8
0
 62
256
370
-1
  6
ByLayer
 10
-195.3990000000000009
 20
23.7609999999999992
 30
0.0
 11
-195.2719999999999914
 21
23.879999999999999
 31
0.0
  0
LINE
  5
4E
100
AcDbEntity
100
AcDbLine
  8
0
 62
256
370
-1
  6
ByLayer
 10
-195.2719999999999914
 20
23.879999999999999
 30
0.0
 11
-195.1310000000000002
 21
23.9830000000000005
 31
0.0
  0
LINE
  5
4F
100
AcDbEntity
100
AcDbLine
  8
0
 62
256
370
-1
  6
ByLayer
 10
-195.1310000000000002
 20
23.9830000000000005
 30
0.0
 11
-194.9780000000000086
 21
24.0670000000000002
 31
0.0
  0
LINE
  5
50
100
AcDbEntity
100
AcDbLine
  8
0
 62
256
370
-1
  6
ByLayer
 10
-194.9780000000000086
 20
24.0670000000000002
 30
0.0
 11
-194.8160000000000025
 21
24.1310000000000002
 31
0.0
  0
LINE
  5
51
100
AcDbEntity
100
AcDbLine
  8
0
 62
256
370
-1
  6
ByLayer
 10
-194.8160000000000025
 20
24.1310000000000002
 30
0.0
 11
-194.6469999999999914
 21
24.1750000000000007
 31
0.0
  0
LINE
  5
52
100
AcDbEntity
100
AcDbLine
  8
0
 62
256
370
-1
  6
ByLayer
 10
-194.6469999999999914
 20
24.1750000000000007
 30
0.0
 11
-194.4730000000000132
 21
24.1960000000000015
 31
0.0
  0
LINE
  5
53
100
AcDbEntity
100
AcDbLine
  8
0
 62
256
370
-1
  6
ByLayer
 10
-194.4730000000000132
 20
24.1960000000000015
 30
0.0
 11
-194.2990000000000066
 21
24.1960000000000015
 31
0.0
  0
LINE
  5
54
100
AcDbEntity
100
AcDbLine
  8
0
 62
256
370
-1
  6
ByLayer
 10
-194.2990000000000066
 20
24.1960000000000015
 30
0.0
 11
-194.1260000000000048
 21
24.1750000000000007
 31
0.0
  0
LINE
  5
55
100
AcDbEntity
100
AcDbLine
  8
0
 62
256
370
-1
  6
ByLayer
 10
-194.1260000000000048
 20
24.1750000000000007
 30
0.0
 11
-193.9569999999999936
 21
24.1310000000000002
 31
0.0
  0
LINE
  5
56
100
AcDbEntity
100
AcDbLine
  8
0
 62
256
370
-1
  6
ByLayer
 10
-193.9569999999999936
 20
24.1310000000000002
 30
0.0
 11
-193.7940000000000111
 21
24.0670000000000002
 31
0.0
  0
LINE
  5
57
100
AcDbEntity
100
AcDbLine
  8
0
 62
256
370
-1
  6
ByLayer
 10
-193.7940000000000111
 20
24.0670000000000002
 30
0.0
 11
-193.6409999999999911
 21
23.9830000000000005
 31
0.0
  0
LINE
  5
58
100
AcDbEntity
100
AcDbLine
  8
0
 62
256
370
-1
  6
ByLayer
 10
-193.6409999999999911
 20
23.9830000000000005
 30
0.0
 11
-193.5
 21
23.879999999999999
 31
0.0
  0
LINE
  5
59
100
AcDbEntity
100
AcDbLine
  8
0
 62
256
370
-1
  6
ByLayer
 10
-193.5
 20
23.879999999999999
 30
0.0
 11
-193.3729999999999905
 21
23.7609999999999992
 31
0.0
  0
LINE
  5
5A
100
AcDbEntity
100
AcDbLine
  8
0
 62
256
370
-1
  6
ByLayer
 10
-193.3729999999999905
 20
23.7609999999999992
 30
0.0
 11
-193.2620000000000005
 21
23.6260000000000012
 31
0.0
  0
LINE
  5
5B
100
AcDbEntity
100
AcDbLine
  8
0
 62
256
370
-1
  6
ByLayer
 10
-193.2620000000000005
 20
23.6260000000000012
 30
0.0
 11
-193.1680000000000064
 21
23.4789999999999992
 31
0.0
  0
LINE
  5
5C
100
AcDbEntity
100
AcDbLine
  8
0
 62
256
370
-1
  6
ByLayer
 10
-193.1680000000000064
 20
23.4789999999999992
 30
0.0
 11
-193.0939999999999941
 21
23.3210000000000015
 31
0.0
  0
LINE
  5
5D
100
AcDbEntity
100
AcDbLine
  8
0
 62
256
370
-1
  6
ByLayer
 10
-193.0939999999999941
 20
23.3210000000000015
 30
0.0
 11
-193.039999999999992
 21
23.1550000000000011
 31
0.0
  0
LINE
  5
5E
100
AcDbEntity
100
AcDbLine
  8
0
 62
256
370
-1
  6
ByLayer
 10
-193.039999999999992
 20
23.1550000000000011
 30
0.0
 11
-193.007000000000005
 21
22.9830000000000005
 31
0.0
  0
LINE
  5
5F
100
AcDbEntity
100
AcDbLine
  8
0
 62
256
370
-1
  6
ByLayer
 10
-193.007000000000005
 20
22.9830000000000005
 30
0.0
 11
-192.9960000000000093
 21
22.8090000000000011
 31
0.0
  0
LINE
  5
60
100
AcDbEntity
100
AcDbLine
  8
0
 62
256
370
-1
  6
ByLayer
 10
-192.9960000000000093
 20
22.8090000000000011
 30
0.0
 11
-193.007000000000005
 21
22.6350000000000016
 31
0.0
  0
LINE
  5
61
100
AcDbEntity
100
AcDbLine
  8
0
 62
256
370
-1
  6
ByLayer
 10
-193.007000000000005
 20
22.6350000000000016
 30
0.0
 11
-193.039999999999992
 21
22.4639999999999986
 31
0.0
  0
LINE
  5
62
100
AcDbEntity
100
AcDbLine
  8
0
 62
256
370
-1
  6
ByLayer
 10
-193.039999999999992
 20
22.4639999999999986
 30
0.0
 11
-193.0939999999999941
 21
22.2979999999999983
 31
0.0
  0
LINE
  5
63
100
AcDbEntity
100
AcDbLine
  8
0
 62
256
370
-1
  6
ByLayer
 10
-193.0939999999999941
 20
22.2979999999999983
 30
0.0
 11
-193.1680000000000064
 21
22.1400000000000006
 31
0.0
  0
LINE
  5
64
100
AcDbEntity
100
AcDbLine
  8
0
 62
256
370
-1
  6
ByLayer
 10
-193.1680000000000064
 20
22.1400000000000006
 30
0.0
 11
-193.2620000000000005
 21
21.9920000000000009
 31
0.0
  0
LINE
  5
65
100
AcDbEntity
100
AcDbLine
  8
0
 62
256
370
-1
  6
ByLayer
 10
-193.2620000000000005
 20
21.9920000000000009
 30
0.0
 11
-193.3729999999999905
 21
21.8580000000000005
 31
0.0
  0
LINE
  5
66
100
AcDbEntity
100
AcDbLine
  8
0
 62
256
370
-1
  6
ByLayer
 10
-193.3729999999999905
 20
21.8580000000000005
 30
0.0
 11
-193.5
 21
21.7379999999999995
 31
0.0
  0
LINE
  5
67
100
AcDbEntity
100
AcDbLine
  8
0
 62
256
370
-1
  6
ByLayer
 10
-193.5
 20
21.7379999999999995
 30
0.0
 11
-193.6409999999999911
 21
21.6359999999999992
 31
0.0
  0
LINE
  5
68
100
AcDbEntity
100
AcDbLine
  8
0
 62
256
370
-1
  6
ByLayer
 10
-193.6409999999999911
 20
21.6359999999999992
 30
0.0
 11
-193.7940000000000111
 21
21.5509999999999984
 31
0.0
  0
LINE
  5
69
100
AcDbEntity
100
AcDbLine
  8
0
 62
256
370
-1
  6
ByLayer
 10
-193.7940000000000111
 20
21.5509999999999984
 30
0.0
 11
-193.9569999999999936
 21
21.4869999999999983
 31
0.0
  0
LINE
  5
6A
100
AcDbEntity
100
AcDbLine
  8
0
 62
256
370
-1
  6
ByLayer
 10
-193.9569999999999936
 20
21.4869999999999983
 30
0.0
 11
-194.1260000000000048
 21
21.4439999999999991
 31
0.0
  0
LINE
  5
6B
100
AcDbEntity
100
AcDbLine
  8
0
 62
256
370
-1
  6
ByLayer
 10
-194.1260000000000048
 20
21.4439999999999991
 30
0.0
 11
-194.2990000000000066
 21
21.4220000000000006
 31
0.0
  0
LINE
  5
6C
100
AcDbEntity
100
AcDbLine
  8
0
 62
256
370
-1
  6
ByLayer
 10
-194.2990000000000066
 20
21.4220000000000006
 30
0.0
 11
-194.4730000000000132
 21
21.4220000000000006
 31
0.0
  0
LINE
  5
6D
100
AcDbEntity
100
AcDbLine
  8
0
 62
256
370
-1
  6
ByLayer
 10
-194.4730000000000132
 20
21.4220000000000006
 30
0.0
 11
-194.6469999999999914
 21
21.4439999999999991
 31
0.0
  0
LINE
  5
6E
100
AcDbEntity
100
AcDbLine
  8
0
 62
256
370
-1
  6
ByLayer
 10
-194.6469999999999914
 20
21.4439999999999991
 30
0.0
 11
-194.8160000000000025
 21
21.4869999999999983
 31
0.0
  0
LINE
  5
6F
100
AcDbEntity
100
AcDbLine
  8
0
 62
256
370
-1
  6
ByLayer
 10
-194.8160000000000025
 20
21.4869999999999983
 30
0.0
 11
-194.9780000000000086
 21
21.5509999999999984
 31
0.0
  0
LINE
  5
70
100
AcDbEntity
100
AcDbLine
  8
0
 62
256
370
-1
  6
ByLayer
 10
-194.9780000000000086
 20
21.5509999999999984
 30
0.0
 11
-195.1310000000000002
 21
21.6359999999999992
 31
0.0
  0
LINE
  5
71
100
AcDbEntity
100
AcDbLine
  8
0
 62
256
370
-1
  6
ByLayer
 10
-195.1310000000000002
 20
21.6359999999999992
 30
0.0
 11
-195.2719999999999914
 21
21.7379999999999995
 31
0.0
  0
LINE
  5
72
100
AcDbEntity
100
AcDbLine
  8
0
 62
256
370
-1
  6
ByLayer
 10
-195.2719999999999914
 20
21.7379999999999995
 30
0.0
 11
-195.3990000000000009
 21
21.8580000000000005
 31
0.0
  0
LINE
  5
73
100
AcDbEntity
100
AcDbLine
  8
0
 62
256
370
-1
  6
ByLayer
 10
-195.3990000000000009
 20
21.8580000000000005
 30
0.0
 11
-195.5109999999999957
 21
21.9920000000000009
 31
0.0
  0
LINE
  5
74
100
AcDbEntity
100
AcDbLine
  8
0
 62
256
370
-1
  6
ByLayer
 10
-195.5109999999999957
 20
21.9920000000000009
 30
0.0
 11
-195.6040000000000134
 21
22.1400000000000006
 31
0.0
  0
LINE
  5
75
100
AcDbEntity
100
AcDbLine
  8
0
 62
256
370
-1
  6
ByLayer
 10
-195.6040000000000134
 20
22.1400000000000006
 30
0.0
 11
-195.679000000000002
 21
22.2979999999999983
 31
0.0
  0
LINE
  5
76
100
AcDbEntity
100
AcDbLine
  8
0
 62
256
370
-1
  6
ByLayer
 10
-195.679000000000002
 20
22.2979999999999983
 30
0.0
 11
-195.7330000000000041
 21
22.4639999999999986
 31
0.0
  0
LINE
  5
77
100
AcDbEntity
100
AcDbLine
  8
0
 62
256
370
-1
  6
ByLayer
 10
-195.7330000000000041
 20
22.4639999999999986
 30
0.0
 11
-195.7649999999999864
 21
22.6350000000000016
 31
0.0
  0
LINE
  5
78
100
AcDbEntity
100
AcDbLine
  8
0
 62
256
370
-1
  6
ByLayer
 10
-195.7649999999999864
 20
22.6350000000000016
 30
0.0
 11
-195.7760000000000105
 21
22.8090000000000011
 31
0.0
  0
LINE
  5
79
100
AcDbEntity
100
AcDbLine
  8
0
 62
256
370
-1
  6
ByLayer
 10
-195.7760000000000105
 20
122.8089999999999975
 30
0.0
 11
-195.7649999999999864
 21
122.9830000000000041
 31
0.0
  0
LINE
  5
7A
100
AcDbEntity
100
AcDbLine
  8
0
 62
256
370
-1
  6
ByLayer
 10
-195.7649999999999864
 20
122.9830000000000041
 30
0.0
 11
-195.7330000000000041
 21
123.1550000000000011
 31
0.0
  0
LINE
  5
7B
100
AcDbEntity
100
AcDbLine
  8
0
 62
256
370
-1
  6
ByLayer
 10
-195.7330000000000041
 20
123.1550000000000011
 30
0.0
 11
-195.679000000000002
 21
123.320999999999998
 31
0.0
  0
LINE
  5
7C
100
AcDbEntity
100
AcDbLine
  8
0
 62
256
370
-1
  6
ByLayer
 10
-195.679000000000002
 20
123.320999999999998
 30
0.0
 11
-195.6040000000000134
 21
123.4789999999999992
 31
0.0
  0
LINE
  5
7D
100
AcDbEntity
100
AcDbLine
  8
0
 62
256
370
-1
  6
ByLayer
 10
-195.6040000000000134
 20
123.4789999999999992
 30
0.0
 11
-195.5109999999999957
 21
123.6260000000000048
 31
0.0
  0
LINE
  5
7E
100
AcDbEntity
100
AcDbLine
  8
0
 62
256
370
-1
  6
ByLayer
 10
-195.5109999999999957
 20
123.6260000000000048
 30
0.0
 11
-195.3990000000000009
 21
123.7609999999999957
 31
0.0
  0
LINE
  5
7F
100
AcDbEntity
100
AcDbLine
  8
0
 62
256
370
-1
  6
ByLayer
 10
-195.3990000000000009
 20
123.7609999999999957
 30
0.0
 11
-195.2719999999999914
 21
123.8799999999999955
 31
0.0
  0
LINE
  5
80
100
AcDbEntity
100
AcDbLine
  8
0
 62
256
370
-1
  6
ByLayer
 10
-195.2719999999999914
 20
123.8799999999999955
 30
0.0
 11
-195.1310000000000002
 21
123.9830000000000041
 31
0.0
  0
LINE
  5
81
100
AcDbEntity
100
AcDbLine
  8
0
 62
256
370
-1
  6
ByLayer
 10
-195.1310000000000002
 20
123.9830000000000041
 30
0.0
 11
-194.9780000000000086
 21
124.0669999999999931
 31
0.0
  0
LINE
  5
82
100
AcDbEntity
100
AcDbLine
  8
0
 62
256
370
-1
  6
ByLayer
 10
-194.9780000000000086
 20
124.0669999999999931
 30
0.0
 11
-194.8160000000000025
 21
124.1310000000000002
 31
0.0
  0
LINE
  5
83
100
AcDbEntity
100
AcDbLine
  8
0
 62
256
370
-1
  6
ByLayer
 10
-194.8160000000000025
 20
124.1310000000000002
 30
0.0
 11
-194.6469999999999914
 21
124.1740000000000066
 31
0.0
  0
LINE
  5
84
100
AcDbEntity
100
AcDbLine
  8
0
 62
256
370
-1
  6
ByLayer
 10
-194.6469999999999914
 20
124.1740000000000066
 30
0.0
 11
-194.4730000000000132
 21
124.195999999999998
 31
0.0
  0
LINE
  5
85
100
AcDbEntity
100
AcDbLine
  8
0
 62
256
370
-1
  6
ByLayer
 10
-194.4730000000000132
 20
124.195999999999998
 30
0.0
 11
-194.2990000000000066
 21
124.195999999999998
 31
0.0
  0
LINE
  5
86
100
AcDbEntity
100
AcDbLine
  8
0
 62
256
370
-1
  6
ByLayer
 10
-194.2990000000000066
 20
124.195999999999998
 30
0.0
 11
-194.1260000000000048
 21
124.1740000000000066
 31
0.0
  0
LINE
  5
87
100
AcDbEntity
100
AcDbLine
  8
0
 62
256
370
-1
  6
ByLayer
 10
-194.1260000000000048
 20
124.1740000000000066
 30
0.0
 11
-193.9569999999999936
 21
124.1310000000000002
 31
0.0
  0
LINE
  5
88
100
AcDbEntity
100
AcDbLine
  8
0
 62
256
370
-1
  6
ByLayer
 10
-193.9569999999999936
 20
124.1310000000000002
 30
0.0
 11
-193.7940000000000111
 21
124.0669999999999931
 31
0.0
  0
LINE
  5
89
100
AcDbEntity
100
AcDbLine
  8
0
 62
256
370
-1
  6
ByLayer
 10
-193.7940000000000111
 20
124.0669999999999931
 30
0.0
 11
-193.6409999999999911
 21
123.9830000000000041
 31
0.0
  0
LINE
  5
8A
100
AcDbEntity
100
AcDbLine
  8
0
 62
256
370
-1
  6
ByLayer
 10
-193.6409999999999911
 20
123.9830000000000041
 30
0.0
 11
-193.5
 21
123.8799999999999955
 31
0.0
  0
LINE
  5
8B
100
AcDbEntity
100
AcDbLine
  8
0
 62
256
370
-1
  6
ByLayer
 10
-193.5
 20
123.8799999999999955
 30
0.0
 11
-193.3729999999999905
 21
123.7609999999999957
 31
0.0
  0
LINE
  5
8C
100
AcDbEntity
100
AcDbLine
  8
0
 62
256
370
-1
  6
ByLayer
 10
-193.3729999999999905
 20
123.7609999999999957
 30
0.0
 11
-193.2620000000000005
 21
123.6260000000000048
 31
0.0
  0
LINE
  5
8D
100
AcDbEntity
100
AcDbLine
  8
0
 62
256
370
-1
  6
ByLayer
 10
-193.2620000000000005
 20
123.6260000000000048
 30
0.0
 11
-193.1680000000000064
 21
123.4789999999999992
 31
0.0
  0
LINE
  5
8E
100
AcDbEntity
100
AcDbLine
  8
0
 62
256
370
-1
  6
ByLayer
 10
-193.1680000000000064
 20
123.4789999999999992
 30
0.0
 11
-193.0939999999999941
 21
123.320999999999998
 31
0.0
  0
LINE
  5
8F
100
AcDbEntity
100
AcDbLine
  8
0
 62
256
370
-1
  6
ByLayer
 10
-193.0939999999999941
 20
123.320999999999998
 30
0.0
 11
-193.039999999999992
 21
123.1550000000000011
 31
0.0
  0
LINE
  5
90
100
AcDbEntity
100
AcDbLine
  8
0
 62
256
370
-1
  6
ByLayer
 10
-193.039999999999992
 20
123.1550000000000011
 30
0.0
 11
-193.007000000000005
 21
122.9830000000000041
 31
0.0
  0
LINE
  5
91
100
AcDbEntity
100
AcDbLine
  8
0
 62
256
370
-1
  6
ByLayer
 10
-193.007000000000005
 20
122.9830000000000041
 30
0.0
 11
-192.9960000000000093
 21
122.8089999999999975
 31
0.0
  0
LINE
  5
92
100
AcDbEntity
100
AcDbLine
  8
0
 62
256
370
-1
  6
ByLayer
 10
-192.9960000000000093
 20
122.8089999999999975
 30
0.0
 11
-193.007000000000005
 21
122.6350000000000051
 31
0.0
  0
LINE
  5
93
100
AcDbEntity
100
AcDbLine
  8
0
 62
256
370
-1
  6
ByLayer
 10
-193.007000000000005
 20
122.6350000000000051
 30
0.0
 11
-193.039999999999992
 21
122.4629999999999939
 31
0.0
  0
LINE
  5
94
100
AcDbEntity
100
AcDbLine
  8
0
 62
256
370
-1
  6
ByLayer
 10
-193.039999999999992
 20
122.4629999999999939
 30
0.0
 11
-193.0939999999999941
 21
122.296999999999997
 31
0.0
  0
LINE
  5
95
100
AcDbEntity
100
AcDbLine
  8
0
 62
256
370
-1
  6
ByLayer
 10
-193.0939999999999941
 20
122.296999999999997
 30
0.0
 11
-193.1680000000000064
 21
122.1389999999999958
 31
0.0
  0
LINE
  5
96
100
AcDbEntity
100
AcDbLine
  8
0
 62
256
370
-1
  6
ByLayer
 10
-193.1680000000000064
 20
122.1389999999999958
 30
0.0
 11
-193.2620000000000005
 21
121.9920000000000044
 31
0.0
  0
LINE
  5
97
100
AcDbEntity
100
AcDbLine
  8
0
 62
256
370
-1
  6
ByLayer
 10
-193.2620000000000005
 20
121.9920000000000044
 30
0.0
 11
-193.3729999999999905
 21
121.8569999999999993
 31
0.0
  0
LINE
  5
98
100
AcDbEntity
100
AcDbLine
  8
0
 62
256
370
-1
  6
ByLayer
 10
-193.3729999999999905
 20
121.8569999999999993
 30
0.0
 11
-193.5
 21
121.7379999999999995
 31
0.0
  0
LINE
  5
99
100
AcDbEntity
100
AcDbLine
  8
0
 62
256
370
-1
  6
ByLayer
 10
-193.5
 20
121.7379999999999995
 30
0.0
 11
-193.6409999999999911
 21
121.6350000000000051
 31
0.0
  0
LINE
  5
9A
100
AcDbEntity
100
AcDbLine
  8
0
 62
256
370
-1
  6
ByLayer
 10
-193.6409999999999911
 20
121.6350000000000051
 30
0.0
 11
-193.7940000000000111
 21
121.5510000000000019
 31
0.0
  0
LINE
  5
9B
100
AcDbEntity
100
AcDbLine
  8
0
 62
256
370
-1
  6
ByLayer
 10
-193.7940000000000111
 20
121.5510000000000019
 30
0.0
 11
-193.9569999999999936
 21
121.4869999999999948
 31
0.0
  0
LINE
  5
9C
100
AcDbEntity
100
AcDbLine
  8
0
 62
256
370
-1
  6
ByLayer
 10
-193.9569999999999936
 20
121.4869999999999948
 30
0.0
 11
-194.1260000000000048
 21
121.4440000000000026
 31
0.0
  0
LINE
  5
9D
100
AcDbEntity
100
AcDbLine
  8
0
 62
256
370
-1
  6
ByLayer
 10
-194.1260000000000048
 20
121.4440000000000026
 30
0.0
 11
-194.2990000000000066
 21
121.421999999999997
 31
0.0
  0
LINE
  5
9E
100
AcDbEntity
100
AcDbLine
  8
0
 62
256
370
-1
  6
ByLayer
 10
-194.2990000000000066
 20
121.421999999999997
 30
0.0
 11
-194.4730000000000132
 21
121.421999999999997
 31
0.0
  0
LINE
  5
9F
100
AcDbEntity
100
AcDbLine
  8
0
 62
256
370
-1
  6
ByLayer
 10
-194.4730000000000132
 20
121.421999999999997
 30
0.0
 11
-194.6469999999999914
 21
121.4440000000000026
 31
0.0
  0
LINE
  5
A0
100
AcDbEntity
100
AcDbLine
  8
0
 62
256
370
-1
  6
ByLayer
 10
-194.6469999999999914
 20
121.4440000000000026
 30
0.0
 11
-194.8160000000000025
 21
121.4869999999999948
 31
0.0
  0
LINE
  5
A1
100
AcDbEntity
100
AcDbLine
  8
0
 62
256
370
-1
  6
ByLayer
 10
-194.8160000000000025
 20
121.4869999999999948
 30
0.0
 11
-194.9780000000000086
 21
121.5510000000000019
 31
0.0
  0
LINE
  5
A2
100
AcDbEntity
100
AcDbLine
  8
0
 62
256
370
-1
  6
ByLayer
 10
-194.9780000000000086
 20
121.5510000000000019
 30
0.0
 11
-195.1310000000000002
 21
121.6350000000000051
 31
0.0
  0
LINE
  5
A3
100
AcDbEntity
100
AcDbLine
  8
0
 62
256
370
-1
  6
ByLayer
 10
-195.1310000000000002
 20
121.6350000000000051
 30
0.0
 11
-195.2719999999999914
 21
121.7379999999999995
 31
0.0
  0
LINE
  5
A4
100
AcDbEntity
100
AcDbLine
  8
0
 62
256
370
-1
  6
ByLayer
 10
-195.2719999999999914
 20
121.7379999999999995
 30
0.0
 11
-195.3990000000000009
 21
121.8569999999999993
 31
0.0
  0
LINE
  5
A5
100
AcDbEntity
100
AcDbLine
  8
0
 62
256
370
-1
  6
ByLayer
 10
-195.3990000000000009
 20
121.8569999999999993
 30
0.0
 11
-195.5109999999999957
 21
121.9920000000000044
 31
0.0
  0
LINE
  5
A6
100
AcDbEntity
100
AcDbLine
  8
0
 62
256
370
-1
  6
ByLayer
 10
-195.5109999999999957
 20
121.9920000000000044
 30
0.0
 11
-195.6040000000000134
 21
122.1389999999999958
 31
0.0
  0
LINE
  5
A7
100
AcDbEntity
100
AcDbLine
  8
0
 62
256
370
-1
  6
ByLayer
 10
-195.6040000000000134
 20
122.1389999999999958
 30
0.0
 11
-195.679000000000002
 21
122.296999999999997
 31
0.0
  0
LINE
  5
A8
100
AcDbEntity
100
AcDbLine
  8
0
 62
256
370
-1
  6
ByLayer
 10
-195.679000000000002
 20
122.296999999999997
 30
0.0
 11
-195.7330000000000041
 21
122.4629999999999939
 31
0.0
  0
LINE
  5
A9
100
AcDbEntity
100
AcDbLine
  8
0
 62
256
370
-1
  6
ByLayer
 10
-195.7330000000000041
 20
122.4629999999999939
 30
0.0
 11
-195.7649999999999864
 21
122.6350000000000051
 31
0.0
  0
LINE
  5
AA
100
AcDbEntity
100
AcDbLine
  8
0
 62
256
370
-1
  6
ByLayer
 10
-195.7649999999999864
 20
122.6350000000000051
 30
0.0
 11
-195.7760000000000105
 21
122.8089999999999975
 31
0.0
  0
LINE
  5
AB
100
AcDbEntity
100
AcDbLine
  8
0
 62
256
370
-1
  6
ByLayer
 10
-28.2630000000000017
 20
23.0629999999999988
 30
0.0
 11
-28.2519999999999989
 21
23.2369999999999983
 31
0.0
  0
LINE
  5
AC
100
AcDbEntity
100
AcDbLine
  8
0
 62
256
370
-1
  6
ByLayer
 10
-28.2519999999999989
 20
23.2369999999999983
 30
0.0
 11
-28.2199999999999989
 21
23.4089999999999989
 31
0.0
  0
LINE
  5
AD
100
AcDbEntity
100
AcDbLine
  8
0
 62
256
370
-1
  6
ByLayer
 10
-28.2199999999999989
 20
23.4089999999999989
 30
0.0
 11
-28.1660000000000004
 21
23.5749999999999993
 31
0.0
  0
LINE
  5
AE
100
AcDbEntity
100
AcDbLine
  8
0
 62
256
370
-1
  6
ByLayer
 10
-28.1660000000000004
 20
23.5749999999999993
 30
0.0
 11
-28.0910000000000011
 21
23.7330000000000005
 31
0.0
  0
LINE
  5
AF
100
AcDbEntity
100
AcDbLine
  8
0
 62
256
370
-1
  6
ByLayer
 10
-28.0910000000000011
 20
23.7330000000000005
 30
0.0
 11
-27.9980000000000011
 21
23.879999999999999
 31
0.0
  0
LINE
  5
B0
100
AcDbEntity
100
AcDbLine
  8
0
 62
256
370
-1
  6
ByLayer
 10
-27.9980000000000011
 20
23.879999999999999
 30
0.0
 11
-27.8859999999999992
 21
24.0150000000000006
 31
0.0
  0
LINE
  5
B1
100
AcDbEntity
100
AcDbLine
  8
0
 62
256
370
-1
  6
ByLayer
 10
-27.8859999999999992
 20
24.0150000000000006
 30
0.0
 11
-27.7590000000000003
 21
24.1340000000000003
 31
0.0
  0
LINE
  5
B2
100
AcDbEntity
100
AcDbLine
  8
0
 62
256
370
-1
  6
ByLayer
 10
-27.7590000000000003
 20
24.1340000000000003
 30
0.0
 11
-27.6179999999999986
 21
24.2369999999999983
 31
0.0
  0
LINE
  5
B3
100
AcDbEntity
100
AcDbLine
  8
0
 62
256
370
-1
  6
ByLayer
 10
-27.6179999999999986
 20
24.2369999999999983
 30
0.0
 11
-27.4649999999999999
 21
24.3210000000000015
 31
0.0
  0
LINE
  5
B4
100
AcDbEntity
100
AcDbLine
  8
0
 62
256
370
-1
  6
ByLayer
 10
-27.4649999999999999
 20
24.3210000000000015
 30
0.0
 11
-27.3030000000000008
 21
24.3850000000000016
 31
0.0
  0
LINE
  5
B5
100
AcDbEntity
100
AcDbLine
  8
0
 62
256
370
-1
  6
ByLayer
 10
-27.3030000000000008
 20
24.3850000000000016
 30
0.0
 11
-27.1340000000000003
 21
24.4289999999999985
 31
0.0
  0
LINE
  5
B6
100
AcDbEntity
100
AcDbLine
  8
0
 62
256
370
-1
  6
ByLayer
 10
-27.1340000000000003
 20
24.4289999999999985
 30
0.0
 11
-26.9600000000000009
 21
24.4499999999999993
 31
0.0
  0
LINE
  5
B7
100
AcDbEntity
100
AcDbLine
  8
0
 62
256
370
-1
  6
ByLayer
 10
-26.9600000000000009
 20
24.4499999999999993
 30
0.0
 11
-26.7860000000000014
 21
24.4499999999999993
 31
0.0
  0
LINE
  5
B8
100
AcDbEntity
100
AcDbLine
  8
0
 62
256
370
-1
  6
ByLayer
 10
-26.7860000000000014
 20
24.4499999999999993
 30
0.0
 11
-26.6129999999999995
 21
24.4289999999999985
 31
0.0
  0
LINE
  5
B9
100
AcDbEntity
100
AcDbLine
  8
0
 62
256
370
-1
  6
ByLayer
 10
-26.6129999999999995
 20
24.4289999999999985
 30
0.0
 11
-26.4439999999999991
 21
24.3850000000000016
 31
0.0
  0
LINE
  5
BA
100
AcDbEntity
100
AcDbLine
  8
0
 62
256
370
-1
  6
ByLayer
 10
-26.4439999999999991
 20
24.3850000000000016
 30
0.0
 11
-26.2809999999999988
 21
24.3210000000000015
 31
0.0
  0
LINE
  5
BB
100
AcDbEntity
100
AcDbLine
  8
0
 62
256
370
-1
  6
ByLayer
 10
-26.2809999999999988
 20
24.3210000000000015
 30
0.0
 11
-26.1280000000000001
 21
24.2369999999999983
 31
0.0
  0
LINE
  5
BC
100
AcDbEntity
100
AcDbLine
  8
0
 62
256
370
-1
  6
ByLayer
 10
-26.1280000000000001
 20
24.2369999999999983
 30
0.0
 11
-25.9869999999999983
 21
24.1340000000000003
 31
0.0
  0
LINE
  5
BD
100
AcDbEntity
100
AcDbLine
  8
0
 62
256
370
-1
  6
ByLayer
 10
-25.9869999999999983
 20
24.1340000000000003
 30
0.0
 11
-25.8599999999999994
 21
24.0150000000000006
 31
0.0
  0
LINE
  5
BE
100
AcDbEntity
100
AcDbLine
  8
0
 62
256
370
-1
  6
ByLayer
 10
-25.8599999999999994
 20
24.0150000000000006
 30
0.0
 11
-25.7489999999999988
 21
23.879999999999999
 31
0.0
  0
LINE
  5
BF
100
AcDbEntity
100
AcDbLine
  8
0
 62
256
370
-1
  6
ByLayer
 10
-25.7489999999999988
 20
23.879999999999999
 30
0.0
 11
-25.6550000000000011
 21
23.7330000000000005
 31
0.0
  0
LINE
  5
C0
100
AcDbEntity
100
AcDbLine
  8
0
 62
256
370
-1
  6
ByLayer
 10
-25.6550000000000011
 20
23.7330000000000005
 30
0.0
 11
-25.5809999999999995
 21
23.5749999999999993
 31
0.0
  0
LINE
  5
C1
100
AcDbEntity
100
AcDbLine
  8
0
 62
256
370
-1
  6
ByLayer
 10
-25.5809999999999995
 20
23.5749999999999993
 30
0.0
 11
-25.527000000000001
 21
23.4089999999999989
 31
0.0
  0
LINE
  5
C2
100
AcDbEntity
100
AcDbLine
  8
0
 62
256
370
-1
  6
ByLayer
 10
-25.527000000000001
 20
23.4089999999999989
 30
0.0
 11
-25.4939999999999998
 21
23.2369999999999983
 31
0.0
  0
LINE
  5
C3
100
AcDbEntity
100
AcDbLine
  8
0
 62
256
370
-1
  6
ByLayer
 10
-25.4939999999999998
 20
23.2369999999999983
 30
0.0
 11
-25.4830000000000005
 21
23.0629999999999988
 31
0.0
  0
LINE
  5
C4
100
AcDbEntity
100
AcDbLine
  8
0
 62
256
370
-1
  6
ByLayer
 10
-25.4830000000000005
 20
23.0629999999999988
 30
0.0
 11
-25.4939999999999998
 21
22.8889999999999993
 31
0.0
  0
LINE
  5
C5
100
AcDbEntity
100
AcDbLine
  8
0
 62
256
370
-1
  6
ByLayer
 10
-25.4939999999999998
 20
22.8889999999999993
 30
0.0
 11
-25.527000000000001
 21
22.718
 31
0.0
  0
LINE
  5
C6
100
AcDbEntity
100
AcDbLine
  8
0
 62
256
370
-1
  6
ByLayer
 10
-25.527000000000001
 20
22.718
 30
0.0
 11
-25.5809999999999995
 21
22.5519999999999996
 31
0.0
  0
LINE
  5
C7
100
AcDbEntity
100
AcDbLine
  8
0
 62
256
370
-1
  6
ByLayer
 10
-25.5809999999999995
 20
22.5519999999999996
 30
0.0
 11
-25.6550000000000011
 21
22.3939999999999984
 31
0.0
  0
LINE
  5
C8
100
AcDbEntity
100
AcDbLine
  8
0
 62
256
370
-1
  6
ByLayer
 10
-25.6550000000000011
 20
22.3939999999999984
 30
0.0
 11
-25.7489999999999988
 21
22.2459999999999987
 31
0.0
  0
LINE
  5
C9
100
AcDbEntity
100
AcDbLine
  8
0
 62
256
370
-1
  6
ByLayer
 10
-25.7489999999999988
 20
22.2459999999999987
 30
0.0
 11
-25.8599999999999994
 21
22.1119999999999983
 31
0.0
  0
LINE
  5
CA
100
AcDbEntity
100
AcDbLine
  8
0
 62
256
370
-1
  6
ByLayer
 10
-25.8599999999999994
 20
22.1119999999999983
 30
0.0
 11
-25.9869999999999983
 21
21.9920000000000009
 31
0.0
  0
LINE
  5
CB
100
AcDbEntity
100
AcDbLine
  8
0
 62
256
370
-1
  6
ByLayer
 10
-25.9869999999999983
 20
21.9920000000000009
 30
0.0
 11
-26.1280000000000001
 21
21.8900000000000006
 31
0.0
  0
LINE
  5
CC
100
AcDbEntity
100
AcDbLine
  8
0
 62
256
370
-1
  6
ByLayer
 10
-26.1280000000000001
 20
21.8900000000000006
 30
0.0
 11
-26.2809999999999988
 21
21.8049999999999997
 31
0.0
  0
LINE
  5
CD
100
AcDbEntity
100
AcDbLine
  8
0
 62
256
370
-1
  6
ByLayer
 10
-26.2809999999999988
 20
21.8049999999999997
 30
0.0
 11
-26.4439999999999991
 21
21.7409999999999997
 31
0.0
  0
LINE
  5
CE
100
AcDbEntity
100
AcDbLine
  8
0
 62
256
370
-1
  6
ByLayer
 10
-26.4439999999999991
 20
21.7409999999999997
 30
0.0
 11
-26.6129999999999995
 21
21.6980000000000004
 31
0.0
  0
LINE
  5
CF
100
AcDbEntity
100
AcDbLine
  8
0
 62
256
370
-1
  6
ByLayer
 10
-26.6129999999999995
 20
21.6980000000000004
 30
0.0
 11
-26.7860000000000014
 21
21.6759999999999984
 31
0.0
  0
LINE
  5
D0
100
AcDbEntity
100
AcDbLine
  8
0
 62
256
370
-1
  6
ByLayer
 10
-26.7860000000000014
 20
21.6759999999999984
 30
0.0
 11
-26.9600000000000009
 21
21.6759999999999984
 31
0.0
  0
LINE
  5
D1
100
AcDbEntity
100
AcDbLine
  8
0
 62
256
370
-1
  6
ByLayer
 10
-26.9600000000000009
 20
21.6759999999999984
 30
0.0
 11
-27.1340000000000003
 21
21.6980000000000004
 31
0.0
  0
LINE
  5
D2
100
AcDbEntity
100
AcDbLine
  8
0
 62
256
370
-1
  6
ByLayer
 10
-27.1340000000000003
 20
21.6980000000000004
 30
0.0
 11
-27.3030000000000008
 21
21.7409999999999997
 31
0.0
  0
LINE
  5
D3
100
AcDbEntity
100
AcDbLine
  8
0
 62
256
370
-1
  6
ByLayer
 10
-27.3030000000000008
 20
21.7409999999999997
 30
0.0
 11
-27.4649999999999999
 21
21.8049999999999997
 31
0.0
  0
LINE
  5
D4
100
AcDbEntity
100
AcDbLine
  8
0
 62
256
370
-1
  6
ByLayer
 10
-27.4649999999999999
 20
21.8049999999999997
 30
0.0
 11
-27.6179999999999986
 21
21.8900000000000006
 31
0.0
  0
LINE
  5
D5
100
AcDbEntity
100
AcDbLine
  8
0
 62
256
370
-1
  6
ByLayer
 10
-27.6179999999999986
 20
21.8900000000000006
 30
0.0
 11
-27.7590000000000003
 21
21.9920000000000009
 31
0.0
  0
LINE
  5
D6
100
AcDbEntity
100
AcDbLine
  8
0
 62
256
370
-1
  6
ByLayer
 10
-27.7590000000000003
 20
21.9920000000000009
 30
0.0
 11
-27.8859999999999992
 21
22.1119999999999983
 31
0.0
  0
LINE
  5
D7
100
AcDbEntity
100
AcDbLine
  8
0
 62
256
370
-1
  6
ByLayer
 10
-27.8859999999999992
 20
22.1119999999999983
 30
0.0
 11
-27.9980000000000011
 21
22.2459999999999987
 31
0.0
  0
LINE
  5
D8
100
AcDbEntity
100
AcDbLine
  8
0
 62
256
370
-1
  6
ByLayer
 10
-27.9980000000000011
 20
22.2459999999999987
 30
0.0
 11
-28.0910000000000011
 21
22.3939999999999984
 31
0.0
  0
LINE
  5
D9
100
AcDbEntity
100
AcDbLine
  8
0
 62
256
370
-1
  6
ByLayer
 10
-28.0910000000000011
 20
22.3939999999999984
 30
0.0
 11
-28.1660000000000004
 21
22.5519999999999996
 31
0.0
  0
LINE
  5
DA
100
AcDbEntity
100
AcDbLine
  8
0
 62
256
370
-1
  6
ByLayer
 10
-28.1660000000000004
 20
22.5519999999999996
 30
0.0
 11
-28.2199999999999989
 21
22.718
 31
0.0
  0
LINE
  5
DB
100
AcDbEntity
100
AcDbLine
  8
0
 62
256
370
-1
  6
ByLayer
 10
-28.2199999999999989
 20
22.718
 30
0.0
 11
-28.2519999999999989
 21
22.8889999999999993
 31
0.0
  0
LINE
  5
DC
100
AcDbEntity
100
AcDbLine
  8
0
 62
256
370
-1
  6
ByLayer
 10
-28.2519999999999989
 20
22.8889999999999993
 30
0.0
 11
-28.2630000000000017
 21
23.0629999999999988
 31
0.0
  0
LINE
  5
DD
100
AcDbEntity
100
AcDbLine
  8
0
 62
256
370
-1
  6
ByLayer
 10
-28.2630000000000017
 20
122.8089999999999975
 30
0.0
 11
-28.2519999999999989
 21
122.9830000000000041
 31
0.0
  0
LINE
  5
DE
100
AcDbEntity
100
AcDbLine
  8
0
 62
256
370
-1
  6
ByLayer
 10
-28.2519999999999989
 20
122.9830000000000041
 30
0.0
 11
-28.2199999999999989
 21
123.1550000000000011
 31
0.0
  0
LINE
  5
DF
100
AcDbEntity
100
AcDbLine
  8
0
 62
256
370
-1
  6
ByLayer
 10
-28.2199999999999989
 20
123.1550000000000011
 30
0.0
 11
-28.1660000000000004
 21
123.320999999999998
 31
0.0
  0
LINE
  5
E0
100
AcDbEntity
100
AcDbLine
  8
0
 62
256
370
-1
  6
ByLayer
 10
-28.1660000000000004
 20
123.320999999999998
 30
0.0
 11
-28.0910000000000011
 21
123.4789999999999992
 31
0.0
  0
LINE
  5
E1
100
AcDbEntity
100
AcDbLine
  8
0
 62
256
370
-1
  6
ByLayer
 10
-28.0910000000000011
 20
123.4789999999999992
 30
0.0
 11
-27.9980000000000011
 21
123.6260000000000048
 31
0.0
  0
LINE
  5
E2
100
AcDbEntity
100
AcDbLine
  8
0
 62
256
370
-1
  6
ByLayer
 10
-27.9980000000000011
 20
123.6260000000000048
 30
0.0
 11
-27.8859999999999992
 21
123.7609999999999957
 31
0.0
  0
LINE
  5
E3
100
AcDbEntity
100
AcDbLine
  8
0
 62
256
370
-1
  6
ByLayer
 10
-27.8859999999999992
 20
123.7609999999999957
 30
0.0
 11
-27.7590000000000003
 21
123.8799999999999955
 31
0.0
  0
LINE
  5
E4
100
AcDbEntity
100
AcDbLine
  8
0
 62
256
370
-1
  6
ByLayer
 10
-27.7590000000000003
 20
123.8799999999999955
 30
0.0
 11
-27.6179999999999986
 21
123.9830000000000041
 31
0.0
  0
LINE
  5
E5
100
AcDbEntity
100
AcDbLine
  8
0
 62
256
370
-1
  6
ByLayer
 10
-27.6179999999999986
 20
123.9830000000000041
 30
0.0
 11
-27.4649999999999999
 21
124.0669999999999931
 31
0.0
  0
LINE
  5
E6
100
AcDbEntity
100
AcDbLine
  8
0
 62
256
370
-1
  6
ByLayer
 10
-27.4649999999999999
 20
124.0669999999999931
 30
0.0
 11
-27.3030000000000008
 21
124.1310000000000002
 31
0.0
  0
LINE
  5
E7
100
AcDbEntity
100
AcDbLine
  8
0
 62
256
370
-1
  6
ByLayer
 10
-27.3030000000000008
 20
124.1310000000000002
 30
0.0
 11
-27.1340000000000003
 21
124.1740000000000066
 31
0.0
  0
LINE
  5
E8
100
AcDbEntity
100
AcDbLine
  8
0
 62
256
370
-1
  6
ByLayer
 10
-27.1340000000000003
 20
124.1740000000000066
 30
0.0
 11
-26.9600000000000009
 21
124.195999999999998
 31
0.0
  0
LINE
  5
E9
100
AcDbEntity
100
AcDbLine
  8
0
 62
256
370
-1
  6
ByLayer
 10
-26.9600000000000009
 20
124.195999999999998
 30
0.0
 11
-26.7860000000000014
 21
124.195999999999998
 31
0.0
  0
LINE
  5
EA
100
AcDbEntity
100
AcDbLine
  8
0
 62
256
370
-1
  6
ByLayer
 10
-26.7860000000000014
 20
124.195999999999998
 30
0.0
 11
-26.6129999999999995
 21
124.1740000000000066
 31
0.0
  0
LINE
  5
EB
100
AcDbEntity
100
AcDbLine
  8
0
 62
256
370
-1
  6
ByLayer
 10
-26.6129999999999995
 20
124.1740000000000066
 30
0.0
 11
-26.4439999999999991
 21
124.1310000000000002
 31
0.0
  0
LINE
  5
EC
100
AcDbEntity
100
AcDbLine
  8
0
 62
256
370
-1
  6
ByLayer
 10
-26.4439999999999991
 20
124.1310000000000002
 30
0.0
 11
-26.2809999999999988
 21
124.0669999999999931
 31
0.0
  0
LINE
  5
ED
100
AcDbEntity
100
AcDbLine
  8
0
 62
256
370
-1
  6
ByLayer
 10
-26.2809999999999988
 20
124.0669999999999931
 30
0.0
 11
-26.1280000000000001
 21
123.9830000000000041
 31
0.0
  0
LINE
  5
EE
100
AcDbEntity
100
AcDbLine
  8
0
 62
256
370
-1
  6
ByLayer
 10
-26.1280000000000001
 20
123.9830000000000041
 30
0.0
 11
-25.9869999999999983
 21
123.8799999999999955
 31
0.0
  0
LINE
  5
EF
100
AcDbEntity
100
AcDbLine
  8
0
 62
256
370
-1
  6
ByLayer
 10
-25.9869999999999983
 20
123.8799999999999955
 30
0.0
 11
-25.8599999999999994
 21
123.7609999999999957
 31
0.0
  0
LINE
  5
F0
100
AcDbEntity
100
AcDbLine
  8
0
 62
256
370
-1
  6
ByLayer
 10
-25.8599999999999994
 20
123.7609999999999957
 30
0.0
 11
-25.7489999999999988
 21
123.6260000000000048
 31
0.0
  0
LINE
  5
F1
100
AcDbEntity
100
AcDbLine
  8
0
 62
256
370
-1
  6
ByLayer
 10
-25.7489999999999988
 20
123.6260000000000048
 30
0.0
 11
-25.6550000000000011
 21
123.4789999999999992
 31
0.0
  0
LINE
  5
F2
100
AcDbEntity
100
AcDbLine
  8
0
 62
256
370
-1
  6
ByLayer
 10
-25.6550000000000011
 20
123.4789999999999992
 30
0.0
 11
-25.5809999999999995
 21
123.320999999999998
 31
0.0
  0
LINE
  5
F3
100
AcDbEntity
100
AcDbLine
  8
0
 62
256
370
-1
  6
ByLayer
 10
-25.5809999999999995
 20
123.320999999999998
 30
0.0
 11
-25.527000000000001
 21
123.1550000000000011
 31
0.0
  0
LINE
  5
F4
100
AcDbEntity
100
AcDbLine
  8
0
 62
256
370
-1
  6
ByLayer
 10
-25.527000000000001
 20
123.1550000000000011
 30
0.0
 11
-25.4939999999999998
 21
122.9830000000000041
 31
0.0
  0
LINE
  5
F5
100
AcDbEntity
100
AcDbLine
  8
0
 62
256
370
-1
  6
ByLayer
 10
-25.4939999999999998
 20
122.9830000000000041
 30
0.0
 11
-25.4830000000000005
 21
122.8089999999999975
 31
0.0
  0
LINE
  5
F6
100
AcDbEntity
100
AcDbLine
  8
0
 62
256
370
-1
  6
ByLayer
 10
-25.4830000000000005
 20
122.8089999999999975
 30
0.0
 11
-25.4939999999999998
 21
122.6350000000000051
 31
0.0
  0
LINE
  5
F7
100
AcDbEntity
100
AcDbLine
  8
0
 62
256
370
-1
  6
ByLayer
 10
-25.4939999999999998
 20
122.6350000000000051
 30
0.0
 11
-25.527000000000001
 21
122.4629999999999939
 31
0.0
  0
LINE
  5
F8
100
AcDbEntity
100
AcDbLine
  8
0
 62
256
370
-1
  6
ByLayer
 10
-25.527000000000001
 20
122.4629999999999939
 30
0.0
 11
-25.5809999999999995
 21
122.296999999999997
 31
0.0
  0
LINE
  5
F9
100
AcDbEntity
100
AcDbLine
  8
0
 62
256
370
-1
  6
ByLayer
 10
-25.5809999999999995
 20
122.296999999999997
 30
0.0
 11
-25.6550000000000011
 21
122.1389999999999958
 31
0.0
  0
LINE
  5
FA
100
AcDbEntity
100
AcDbLine
  8
0
 62
256
370
-1
  6
ByLayer
 10
-25.6550000000000011
 20
122.1389999999999958
 30
0.0
 11
-25.7489999999999988
 21
121.9920000000000044
 31
0.0
  0
LINE
  5
FB
100
AcDbEntity
100
AcDbLine
  8
0
 62
256
370
-1
  6
ByLayer
 10
-25.7489999999999988
 20
121.9920000000000044
 30
0.0
 11
-25.8599999999999994
 21
121.8569999999999993
 31
0.0
  0
LINE
  5
FC
100
AcDbEntity
100
AcDbLine
  8
0
 62
256
370
-1
  6
ByLayer
 10
-25.8599999999999994
 20
121.8569999999999993
 30
0.0
 11
-25.9869999999999983
 21
121.7379999999999995
 31
0.0
  0
LINE
  5
FD
100
AcDbEntity
100
AcDbLine
  8
0
 62
256
370
-1
  6
ByLayer
 10
-25.9869999999999983
 20
121.7379999999999995
 30
0.0
 11
-26.1280000000000001
 21
121.6350000000000051
 31
0.0
  0
LINE
  5
FE
100
AcDbEntity
100
AcDbLine
  8
0
 62
256
370
-1
  6
ByLayer
 10
-26.1280000000000001
 20
121.6350000000000051
 30
0.0
 11
-26.2809999999999988
 21
121.5510000000000019
 31
0.0
  0
LINE
  5
FF
100
AcDbEntity
100
AcDbLine
  8
0
 62
256
370
-1
  6
ByLayer
 10
-26.2809999999999988
 20
121.5510000000000019
 30
0.0
 11
-26.4439999999999991
 21
121.4869999999999948
 31
0.0
  0
LINE
  5
100
100
AcDbEntity
100
AcDbLine
  8
0
 62
256
370
-1
  6
ByLayer
 10
-26.4439999999999991
 20
121.4869999999999948
 30
0.0
 11
-26.6129999999999995
 21
121.4440000000000026
 31
0.0
  0
LINE
  5
101
100
AcDbEntity
100
AcDbLine
  8
0
 62
256
370
-1
  6
ByLayer
 10
-26.6129999999999995
 20
121.4440000000000026
 30
0.0
 11
-26.7860000000000014
 21
121.421999999999997
 31
0.0
  0
LINE
  5
102
100
AcDbEntity
100
AcDbLine
  8
0
 62
256
370
-1
  6
ByLayer
 10
-26.7860000000000014
 20
121.421999999999997
 30
0.0
 11
-26.9600000000000009
 21
121.421999999999997
 31
0.0
  0
LINE
  5
103
100
AcDbEntity
100
AcDbLine
  8
0
 62
256
370
-1
  6
ByLayer
 10
-26.9600000000000009
 20
121.421999999999997
 30
0.0
 11
-27.1340000000000003
 21
121.4440000000000026
 31
0.0
  0
LINE
  5
104
100
AcDbEntity
100
AcDbLine
  8
0
 62
256
370
-1
  6
ByLayer
 10
-27.1340000000000003
 20
121.4440000000000026
 30
0.0
 11
-27.3030000000000008
 21
121.4869999999999948
 31
0.0
  0
LINE
  5
105
100
AcDbEntity
100
AcDbLine
  8
0
 62
256
370
-1
  6
ByLayer
 10
-27.3030000000000008
 20
121.4869999999999948
 30
0.0
 11
-27.4649999999999999
 21
121.5510000000000019
 31
0.0
  0
LINE
  5
106
100
AcDbEntity
100
AcDbLine
  8
0
 62
256
370
-1
  6
ByLayer
 10
-27.4649999999999999
 20
121.5510000000000019
 30
0.0
 11
-27.6179999999999986
 21
121.6350000000000051
 31
0.0
  0
LINE
  5
107
100
AcDbEntity
100
AcDbLine
  8
0
 62
256
370
-1
  6
ByLayer
 10
-27.6179999999999986
 20
121.6350000000000051
 30
0.0
 11
-27.7590000000000003
 21
121.7379999999999995
 31
0.0
  0
LINE
  5
108
100
AcDbEntity
100
AcDbLine
  8
0
 62
256
370
-1
  6
ByLayer
 10
-27.7590000000000003
 20
121.7379999999999995
 30
0.0
 11
-27.8859999999999992
 21
121.8569999999999993
 31
0.0
  0
LINE
  5
109
100
AcDbEntity
100
AcDbLine
  8
0
 62
256
370
-1
  6
ByLayer
 10
-27.8859999999999992
 20
121.8569999999999993
 30
0.0
 11
-27.9980000000000011
 21
121.9920000000000044
 31
0.0
  0
LINE
  5
10A
100
AcDbEntity
100
AcDbLine
  8
0
 62
256
370
-1
  6
ByLayer
 10
-27.9980000000000011
 20
121.9920000000000044
 30
0.0
 11
-28.0910000000000011
 21
122.1389999999999958
 31
0.0
  0
LINE
  5
10B
100
AcDbEntity
100
AcDbLine
  8
0
 62
256
370
-1
  6
ByLayer
 10
-28.0910000000000011
 20
122.1389999999999958
 30
0.0
 11
-28.1660000000000004
 21
122.296999999999997
 31
0.0
  0
LINE
  5
10C
100
AcDbEntity
100
AcDbLine
  8
0
 62
256
370
-1
  6
ByLayer
 10
-28.1660000000000004
 20
122.296999999999997
 30
0.0
 11
-28.2199999999999989
 21
122.4629999999999939
 31
0.0
  0
LINE
  5
10D
100
AcDbEntity
100
AcDbLine
  8
0
 62
256
370
-1
  6
ByLayer
 10
-28.2199999999999989
 20
122.4629999999999939
 30
0.0
 11
-28.2519999999999989
 21
122.6350000000000051
 31
0.0
  0
LINE
  5
10E
100
AcDbEntity
100
AcDbLine
  8
0
 62
256
370
-1
  6
ByLayer
 10
-28.2519999999999989
 20
122.6350000000000051
 30
0.0
 11
-28.2630000000000017
 21
122.8089999999999975
 31
0.0
  0
LINE
  5
10F
100
AcDbEntity
100
AcDbLine
  8
0
 62
256
370
-1
  6
ByLayer
 10
13.0879999999999992
 20
96.7740000000000009
 30
0.0
 11
13.0990000000000002
 21
96.9479999999999933
 31
0.0
  0
LINE
  5
110
100
AcDbEntity
100
AcDbLine
  8
0
 62
256
370
-1
  6
ByLayer
 10
13.0990000000000002
 20
96.9479999999999933
 30
0.0
 11
13.1319999999999997
 21
97.1200000000000045
 31
0.0
  0
LINE
  5
111
100
AcDbEntity
100
AcDbLine
  8
0
 62
256
370
-1
  6
ByLayer
 10
13.1319999999999997
 20
97.1200000000000045
 30
0.0
 11
13.1859999999999999
 21
97.2860000000000014
 31
0.0
  0
LINE
  5
112
100
AcDbEntity
100
AcDbLine
  8
0
 62
256
370
-1
  6
ByLayer
 10
13.1859999999999999
 20
97.2860000000000014
 30
0.0
 11
13.2599999999999998
 21
97.4440000000000026
 31
0.0
  0
LINE
  5
113
100
AcDbEntity
100
AcDbLine
  8
0
 62
256
370
-1
  6
ByLayer
 10
13.2599999999999998
 20
97.4440000000000026
 30
0.0
 11
13.3529999999999998
 21
97.590999999999994
 31
0.0
  0
LINE
  5
114
100
AcDbEntity
100
AcDbLine
  8
0
 62
256
370
-1
  6
ByLayer
 10
13.3529999999999998
 20
97.590999999999994
 30
0.0
 11
13.4649999999999999
 21
97.7259999999999991
 31
0.0
  0
LINE
  5
115
100
AcDbEntity
100
AcDbLine
  8
0
 62
256
370
-1
  6
ByLayer
 10
13.4649999999999999
 20
97.7259999999999991
 30
0.0
 11
13.5920000000000005
 21
97.8449999999999989
 31
0.0
  0
LINE
  5
116
100
AcDbEntity
100
AcDbLine
  8
0
 62
256
370
-1
  6
ByLayer
 10
13.5920000000000005
 20
97.8449999999999989
 30
0.0
 11
13.7330000000000005
 21
97.9479999999999933
 31
0.0
  0
LINE
  5
117
100
AcDbEntity
100
AcDbLine
  8
0
 62
256
370
-1
  6
ByLayer
 10
13.7330000000000005
 20
97.9479999999999933
 30
0.0
 11
13.8859999999999992
 21
98.0319999999999965
 31
0.0
  0
LINE
  5
118
100
AcDbEntity
100
AcDbLine
  8
0
 62
256
370
-1
  6
ByLayer
 10
13.8859999999999992
 20
98.0319999999999965
 30
0.0
 11
14.048
 21
98.0960000000000036
 31
0.0
  0
LINE
  5
119
100
AcDbEntity
100
AcDbLine
  8
0
 62
256
370
-1
  6
ByLayer
 10
14.048
 20
98.0960000000000036
 30
0.0
 11
14.218
 21
98.1389999999999958
 31
0.0
  0
LINE
  5
11A
100
AcDbEntity
100
AcDbLine
  8
0
 62
256
370
-1
  6
ByLayer
 10
14.218
 20
98.1389999999999958
 30
0.0
 11
14.391
 21
98.1610000000000014
 31
0.0
  0
LINE
  5
11B
100
AcDbEntity
100
AcDbLine
  8
0
 62
256
370
-1
  6
ByLayer
 10
14.391
 20
98.1610000000000014
 30
0.0
 11
14.5649999999999995
 21
98.1610000000000014
 31
0.0
  0
LINE
  5
11C
100
AcDbEntity
100
AcDbLine
  8
0
 62
256
370
-1
  6
ByLayer
 10
14.5649999999999995
 20
98.1610000000000014
 30
0.0
 11
14.7379999999999995
 21
98.1389999999999958
 31
0.0
  0
LINE
  5
11D
100
AcDbEntity
100
AcDbLine
  8
0
 62
256
370
-1
  6
ByLayer
 10
14.7379999999999995
 20
98.1389999999999958
 30
0.0
 11
14.9079999999999995
 21
98.0960000000000036
 31
0.0
  0
LINE
  5
11E
100
AcDbEntity
100
AcDbLine
  8
0
 62
256
370
-1
  6
ByLayer
 10
14.9079999999999995
 20
98.0960000000000036
 30
0.0
 11
15.0700000000000003
 21
98.0319999999999965
 31
0.0
  0
LINE
  5
11F
100
AcDbEntity
100
AcDbLine
  8
0
 62
256
370
-1
  6
ByLayer
 10
15.0700000000000003
 20
98.0319999999999965
 30
0.0
 11
15.2230000000000008
 21
97.9479999999999933
 31
0.0
  0
LINE
  5
120
100
AcDbEntity
100
AcDbLine
  8
0
 62
256
370
-1
  6
ByLayer
 10
15.2230000000000008
 20
97.9479999999999933
 30
0.0
 11
15.3640000000000008
 21
97.8449999999999989
 31
0.0
  0
LINE
  5
121
100
AcDbEntity
100
AcDbLine
  8
0
 62
256
370
-1
  6
ByLayer
 10
15.3640000000000008
 20
97.8449999999999989
 30
0.0
 11
15.4909999999999997
 21
97.7259999999999991
 31
0.0
  0
LINE
  5
122
100
AcDbEntity
100
AcDbLine
  8
0
 62
256
370
-1
  6
ByLayer
 10
15.4909999999999997
 20
97.7259999999999991
 30
0.0
 11
15.6029999999999998
 21
97.590999999999994
 31
0.0
  0
LINE
  5
123
100
AcDbEntity
100
AcDbLine
  8
0
 62
256
370
-1
  6
ByLayer
 10
15.6029999999999998
 20
97.590999999999994
 30
0.0
 11
15.6959999999999997
 21
97.4440000000000026
 31
0.0
  0
LINE
  5
124
100
AcDbEntity
100
AcDbLine
  8
0
 62
256
370
-1
  6
ByLayer
 10
15.6959999999999997
 20
97.4440000000000026
 30
0.0
 11
15.7699999999999996
 21
97.2860000000000014
 31
0.0
  0
LINE
  5
125
100
AcDbEntity
100
AcDbLine
  8
0
 62
256
370
-1
  6
ByLayer
 10
15.7699999999999996
 20
97.2860000000000014
 30
0.0
 11
15.8239999999999998
 21
97.1200000000000045
 31
0.0
  0
LINE
  5
126
100
AcDbEntity
100
AcDbLine
  8
0
 62
256
370
-1
  6
ByLayer
 10
15.8239999999999998
 20
97.1200000000000045
 30
0.0
 11
15.8569999999999993
 21
96.9479999999999933
 31
0.0
  0
LINE
  5
127
100
AcDbEntity
100
AcDbLine
  8
0
 62
256
370
-1
  6
ByLayer
 10
15.8569999999999993
 20
96.9479999999999933
 30
0.0
 11
15.8680000000000003
 21
96.7740000000000009
 31
0.0
  0
LINE
  5
128
100
AcDbEntity
100
AcDbLine
  8
0
 62
256
370
-1
  6
ByLayer
 10
15.8680000000000003
 20
96.7740000000000009
 30
0.0
 11
15.8569999999999993
 21
96.5999999999999943
 31
0.0
  0
LINE
  5
129
100
AcDbEntity
100
AcDbLine
  8
0
 62
256
370
-1
  6
ByLayer
 10
15.8569999999999993
 20
96.5999999999999943
 30
0.0
 11
15.8239999999999998
 21
96.4279999999999973
 31
0.0
  0
LINE
  5
12A
100
AcDbEntity
100
AcDbLine
  8
0
 62
256
370
-1
  6
ByLayer
 10
15.8239999999999998
 20
96.4279999999999973
 30
0.0
 11
15.7699999999999996
 21
96.2620000000000005
 31
0.0
  0
LINE
  5
12B
100
AcDbEntity
100
AcDbLine
  8
0
 62
256
370
-1
  6
ByLayer
 10
15.7699999999999996
 20
96.2620000000000005
 30
0.0
 11
15.6959999999999997
 21
96.1039999999999992
 31
0.0
  0
LINE
  5
12C
100
AcDbEntity
100
AcDbLine
  8
0
 62
256
370
-1
  6
ByLayer
 10
15.6959999999999997
 20
96.1039999999999992
 30
0.0
 11
15.6029999999999998
 21
95.9569999999999936
 31
0.0
  0
LINE
  5
12D
100
AcDbEntity
100
AcDbLine
  8
0
 62
256
370
-1
  6
ByLayer
 10
15.6029999999999998
 20
95.9569999999999936
 30
0.0
 11
15.4909999999999997
 21
95.8220000000000027
 31
0.0
  0
LINE
  5
12E
100
AcDbEntity
100
AcDbLine
  8
0
 62
256
370
-1
  6
ByLayer
 10
15.4909999999999997
 20
95.8220000000000027
 30
0.0
 11
15.3640000000000008
 21
95.703000000000003
 31
0.0
  0
LINE
  5
12F
100
AcDbEntity
100
AcDbLine
  8
0
 62
256
370
-1
  6
ByLayer
 10
15.3640000000000008
 20
95.703000000000003
 30
0.0
 11
15.2230000000000008
 21
95.5999999999999943
 31
0.0
  0
LINE
  5
130
100
AcDbEntity
100
AcDbLine
  8
0
 62
256
370
-1
  6
ByLayer
 10
15.2230000000000008
 20
95.5999999999999943
 30
0.0
 11
15.0700000000000003
 21
95.5160000000000053
 31
0.0
  0
LINE
  5
131
100
AcDbEntity
100
AcDbLine
  8
0
 62
256
370
-1
  6
ByLayer
 10
15.0700000000000003
 20
95.5160000000000053
 30
0.0
 11
14.9079999999999995
 21
95.4519999999999982
 31
0.0
  0
LINE
  5
132
100
AcDbEntity
100
AcDbLine
  8
0
 62
256
370
-1
  6
ByLayer
 10
14.9079999999999995
 20
95.4519999999999982
 30
0.0
 11
14.7379999999999995
 21
95.409000000000006
 31
0.0
  0
LINE
  5
133
100
AcDbEntity
100
AcDbLine
  8
0
 62
256
370
-1
  6
ByLayer
 10
14.7379999999999995
 20
95.409000000000006
 30
0.0
 11
14.5649999999999995
 21
95.3870000000000005
 31
0.0
  0
LINE
  5
134
100
AcDbEntity
100
AcDbLine
  8
0
 62
256
370
-1
  6
ByLayer
 10
14.5649999999999995
 20
95.3870000000000005
 30
0.0
 11
14.391
 21
95.3870000000000005
 31
0.0
  0
LINE
  5
135
100
AcDbEntity
100
AcDbLine
  8
0
 62
256
370
-1
  6
ByLayer
 10
14.391
 20
95.3870000000000005
 30
0.0
 11
14.218
 21
95.409000000000006
 31
0.0
  0
LINE
  5
136
100
AcDbEntity
100
AcDbLine
  8
0
 62
256
370
-1
  6
ByLayer
 10
14.218
 20
95.409000000000006
 30
0.0
 11
14.048
 21
95.4519999999999982
 31
0.0
  0
LINE
  5
137
100
AcDbEntity
100
AcDbLine
  8
0
 62
256
370
-1
  6
ByLayer
 10
14.048
 20
95.4519999999999982
 30
0.0
 11
13.8859999999999992
 21
95.5160000000000053
 31
0.0
  0
LINE
  5
138
100
AcDbEntity
100
AcDbLine
  8
0
 62
256
370
-1
  6
ByLayer
 10
13.8859999999999992
 20
95.5160000000000053
 30
0.0
 11
13.7330000000000005
 21
95.5999999999999943
 31
0.0
  0
LINE
  5
139
100
AcDbEntity
100
AcDbLine
  8
0
 62
256
370
-1
  6
ByLayer
 10
13.7330000000000005
 20
95.5999999999999943
 30
0.0
 11
13.5920000000000005
 21
95.703000000000003
 31
0.0
  0
LINE
  5
13A
100
AcDbEntity
100
AcDbLine
  8
0
 62
256
370
-1
  6
ByLayer
 10
13.5920000000000005
 20
95.703000000000003
 30
0.0
 11
13.4649999999999999
 21
95.8220000000000027
 31
0.0
  0
LINE
  5
13B
100
AcDbEntity
100
AcDbLine
  8
0
 62
256
370
-1
  6
ByLayer
 10
13.4649999999999999
 20
95.8220000000000027
 30
0.0
 11
13.3529999999999998
 21
95.9569999999999936
 31
0.0
  0
LINE
  5
13C
100
AcDbEntity
100
AcDbLine
  8
0
 62
256
370
-1
  6
ByLayer
 10
13.3529999999999998
 20
95.9569999999999936
 30
0.0
 11
13.2599999999999998
 21
96.1039999999999992
 31
0.0
  0
LINE
  5
13D
100
AcDbEntity
100
AcDbLine
  8
0
 62
256
370
-1
  6
ByLayer
 10
13.2599999999999998
 20
96.1039999999999992
 30
0.0
 11
13.1859999999999999
 21
96.2620000000000005
 31
0.0
  0
LINE
  5
13E
100
AcDbEntity
100
AcDbLine
  8
0
 62
256
370
-1
  6
ByLayer
 10
13.1859999999999999
 20
96.2620000000000005
 30
0.0
 11
13.1319999999999997
 21
96.4279999999999973
 31
0.0
  0
LINE
  5
13F
100
AcDbEntity
100
AcDbLine
  8
0
 62
256
370
-1
  6
ByLayer
 10
13.1319999999999997
 20
96.4279999999999973
 30
0.0
 11
13.0990000000000002
 21
96.5999999999999943
 31
0.0
  0
LINE
  5
140
100
AcDbEntity
100
AcDbLine
  8
0
 62
256
370
-1
  6
ByLayer
 10
13.0990000000000002
 20
96.5999999999999943
 30
0.0
 11
13.0879999999999992
 21
96.7740000000000009
 31
0.0
  0
LINE
  5
141
100
AcDbEntity
100
AcDbLine
  8
0
 62
256
370
-1
  6
ByLayer
 10
18.1679999999999993
 20
128.5269999999999868
 30
0.0
 11
18.1789999999999985
 21
128.7009999999999934
 31
0.0
  0
LINE
  5
142
100
AcDbEntity
100
AcDbLine
  8
0
 62
256
370
-1
  6
ByLayer
 10
18.1789999999999985
 20
128.7009999999999934
 30
0.0
 11
18.2119999999999997
 21
128.8720000000000141
 31
0.0
  0
LINE
  5
143
100
AcDbEntity
100
AcDbLine
  8
0
 62
256
370
-1
  6
ByLayer
 10
18.2119999999999997
 20
128.8720000000000141
 30
0.0
 11
18.2659999999999982
 21
129.0380000000000109
 31
0.0
  0
LINE
  5
144
100
AcDbEntity
100
AcDbLine
  8
0
 62
256
370
-1
  6
ByLayer
 10
18.2659999999999982
 20
129.0380000000000109
 30
0.0
 11
18.3399999999999999
 21
129.195999999999998
 31
0.0
  0
LINE
  5
145
100
AcDbEntity
100
AcDbLine
  8
0
 62
256
370
-1
  6
ByLayer
 10
18.3399999999999999
 20
129.195999999999998
 30
0.0
 11
18.4329999999999998
 21
129.3439999999999941
 31
0.0
  0
LINE
  5
146
100
AcDbEntity
100
AcDbLine
  8
0
 62
256
370
-1
  6
ByLayer
 10
18.4329999999999998
 20
129.3439999999999941
 30
0.0
 11
18.5450000000000017
 21
129.4780000000000086
 31
0.0
  0
LINE
  5
147
100
AcDbEntity
100
AcDbLine
  8
0
 62
256
370
-1
  6
ByLayer
 10
18.5450000000000017
 20
129.4780000000000086
 30
0.0
 11
18.6720000000000006
 21
129.5980000000000132
 31
0.0
  0
LINE
  5
148
100
AcDbEntity
100
AcDbLine
  8
0
 62
256
370
-1
  6
ByLayer
 10
18.6720000000000006
 20
129.5980000000000132
 30
0.0
 11
18.8129999999999988
 21
129.6999999999999886
 31
0.0
  0
LINE
  5
149
100
AcDbEntity
100
AcDbLine
  8
0
 62
256
370
-1
  6
ByLayer
 10
18.8129999999999988
 20
129.6999999999999886
 30
0.0
 11
18.9660000000000011
 21
129.7839999999999918
 31
0.0
  0
LINE
  5
14A
100
AcDbEntity
100
AcDbLine
  8
0
 62
256
370
-1
  6
ByLayer
 10
18.9660000000000011
 20
129.7839999999999918
 30
0.0
 11
19.1280000000000001
 21
129.8489999999999895
 31
0.0
  0
LINE
  5
14B
100
AcDbEntity
100
AcDbLine
  8
0
 62
256
370
-1
  6
ByLayer
 10
19.1280000000000001
 20
129.8489999999999895
 30
0.0
 11
19.2979999999999983
 21
129.8919999999999959
 31
0.0
  0
LINE
  5
14C
100
AcDbEntity
100
AcDbLine
  8
0
 62
256
370
-1
  6
ByLayer
 10
19.2979999999999983
 20
129.8919999999999959
 30
0.0
 11
19.4710000000000001
 21
129.9139999999999873
 31
0.0
  0
LINE
  5
14D
100
AcDbEntity
100
AcDbLine
  8
0
 62
256
370
-1
  6
ByLayer
 10
19.4710000000000001
 20
129.9139999999999873
 30
0.0
 11
19.6449999999999996
 21
129.9139999999999873
 31
0.0
  0
LINE
  5
14E
100
AcDbEntity
100
AcDbLine
  8
0
 62
256
370
-1
  6
ByLayer
 10
19.6449999999999996
 20
129.9139999999999873
 30
0.0
 11
19.8180000000000014
 21
129.8919999999999959
 31
0.0
  0
LINE
  5
14F
100
AcDbEntity
100
AcDbLine
  8
0
 62
256
370
-1
  6
ByLayer
 10
19.8180000000000014
 20
129.8919999999999959
 30
0.0
 11
19.9879999999999995
 21
129.8489999999999895
 31
0.0
  0
LINE
  5
150
100
AcDbEntity
100
AcDbLine
  8
0
 62
256
370
-1
  6
ByLayer
 10
19.9879999999999995
 20
129.8489999999999895
 30
0.0
 11
20.1499999999999986
 21
129.7839999999999918
 31
0.0
  0
LINE
  5
151
100
AcDbEntity
100
AcDbLine
  8
0
 62
256
370
-1
  6
ByLayer
 10
20.1499999999999986
 20
129.7839999999999918
 30
0.0
 11
20.3030000000000008
 21
129.6999999999999886
 31
0.0
  0
LINE
  5
152
100
AcDbEntity
100
AcDbLine
  8
0
 62
256
370
-1
  6
ByLayer
 10
20.3030000000000008
 20
129.6999999999999886
 30
0.0
 11
20.4439999999999991
 21
129.5980000000000132
 31
0.0
  0
LINE
  5
153
100
AcDbEntity
100
AcDbLine
  8
0
 62
256
370
-1
  6
ByLayer
 10
20.4439999999999991
 20
129.5980000000000132
 30
0.0
 11
20.5710000000000015
 21
129.4780000000000086
 31
0.0
  0
LINE
  5
154
100
AcDbEntity
100
AcDbLine
  8
0
 62
256
370
-1
  6
ByLayer
 10
20.5710000000000015
 20
129.4780000000000086
 30
0.0
 11
20.6829999999999998
 21
129.3439999999999941
 31
0.0
  0
LINE
  5
155
100
AcDbEntity
100
AcDbLine
  8
0
 62
256
370
-1
  6
ByLayer
 10
20.6829999999999998
 20
129.3439999999999941
 30
0.0
 11
20.7759999999999998
 21
129.195999999999998
 31
0.0
  0
LINE
  5
156
100
AcDbEntity
100
AcDbLine
  8
0
 62
256
370
-1
  6
ByLayer
 10
20.7759999999999998
 20
129.195999999999998
 30
0.0
 11
20.8500000000000014
 21
129.0380000000000109
 31
0.0
  0
LINE
  5
157
100
AcDbEntity
100
AcDbLine
  8
0
 62
256
370
-1
  6
ByLayer
 10
20.8500000000000014
 20
129.0380000000000109
 30
0.0
 11
20.9039999999999999
 21
128.8720000000000141
 31
0.0
  0
LINE
  5
158
100
AcDbEntity
100
AcDbLine
  8
0
 62
256
370
-1
  6
ByLayer
 10
20.9039999999999999
 20
128.8720000000000141
 30
0.0
 11
20.9370000000000012
 21
128.7009999999999934
 31
0.0
  0
LINE
  5
159
100
AcDbEntity
100
AcDbLine
  8
0
 62
256
370
-1
  6
ByLayer
 10
20.9370000000000012
 20
128.7009999999999934
 30
0.0
 11
20.9480000000000004
 21
128.5269999999999868
 31
0.0
  0
LINE
  5
15A
100
AcDbEntity
100
AcDbLine
  8
0
 62
256
370
-1
  6
ByLayer
 10
20.9480000000000004
 20
128.5269999999999868
 30
0.0
 11
20.9370000000000012
 21
128.3520000000000039
 31
0.0
  0
LINE
  5
15B
100
AcDbEntity
100
AcDbLine
  8
0
 62
256
370
-1
  6
ByLayer
 10
20.9370000000000012
 20
128.3520000000000039
 30
0.0
 11
20.9039999999999999
 21
128.1810000000000116
 31
0.0
  0
LINE
  5
15C
100
AcDbEntity
100
AcDbLine
  8
0
 62
256
370
-1
  6
ByLayer
 10
20.9039999999999999
 20
128.1810000000000116
 30
0.0
 11
20.8500000000000014
 21
128.0149999999999864
 31
0.0
  0
LINE
  5
15D
100
AcDbEntity
100
AcDbLine
  8
0
 62
256
370
-1
  6
ByLayer
 10
20.8500000000000014
 20
128.0149999999999864
 30
0.0
 11
20.7759999999999998
 21
127.8569999999999993
 31
0.0
  0
LINE
  5
15E
100
AcDbEntity
100
AcDbLine
  8
0
 62
256
370
-1
  6
ByLayer
 10
20.7759999999999998
 20
127.8569999999999993
 30
0.0
 11
20.6829999999999998
 21
127.7099999999999937
 31
0.0
  0
LINE
  5
15F
100
AcDbEntity
100
AcDbLine
  8
0
 62
256
370
-1
  6
ByLayer
 10
20.6829999999999998
 20
127.7099999999999937
 30
0.0
 11
20.5710000000000015
 21
127.5750000000000028
 31
0.0
  0
LINE
  5
160
100
AcDbEntity
100
AcDbLine
  8
0
 62
256
370
-1
  6
ByLayer
 10
20.5710000000000015
 20
127.5750000000000028
 30
0.0
 11
20.4439999999999991
 21
127.4560000000000031
 31
0.0
  0
LINE
  5
161
100
AcDbEntity
100
AcDbLine
  8
0
 62
256
370
-1
  6
ByLayer
 10
20.4439999999999991
 20
127.4560000000000031
 30
0.0
 11
20.3030000000000008
 21
127.3529999999999944
 31
0.0
  0
LINE
  5
162
100
AcDbEntity
100
AcDbLine
  8
0
 62
256
370
-1
  6
ByLayer
 10
20.3030000000000008
 20
127.3529999999999944
 30
0.0
 11
20.1499999999999986
 21
127.2690000000000055
 31
0.0
  0
LINE
  5
163
100
AcDbEntity
100
AcDbLine
  8
0
 62
256
370
-1
  6
ByLayer
 10
20.1499999999999986
 20
127.2690000000000055
 30
0.0
 11
19.9879999999999995
 21
127.2049999999999983
 31
0.0
  0
LINE
  5
164
100
AcDbEntity
100
AcDbLine
  8
0
 62
256
370
-1
  6
ByLayer
 10
19.9879999999999995
 20
127.2049999999999983
 30
0.0
 11
19.8180000000000014
 21
127.1610000000000014
 31
0.0
  0
LINE
  5
165
100
AcDbEntity
100
AcDbLine
  8
0
 62
256
370
-1
  6
ByLayer
 10
19.8180000000000014
 20
127.1610000000000014
 30
0.0
 11
19.6449999999999996
 21
127.1389999999999958
 31
0.0
  0
LINE
  5
166
100
AcDbEntity
100
AcDbLine
  8
0
 62
256
370
-1
  6
ByLayer
 10
19.6449999999999996
 20
127.1389999999999958
 30
0.0
 11
19.4710000000000001
 21
127.1389999999999958
 31
0.0
  0
LINE
  5
167
100
AcDbEntity
100
AcDbLine
  8
0
 62
256
370
-1
  6
ByLayer
 10
19.4710000000000001
 20
127.1389999999999958
 30
0.0
 11
19.2979999999999983
 21
127.1610000000000014
 31
0.0
  0
LINE
  5
168
100
AcDbEntity
100
AcDbLine
  8
0
 62
256
370
-1
  6
ByLayer
 10
19.2979999999999983
 20
127.1610000000000014
 30
0.0
 11
19.1280000000000001
 21
127.2049999999999983
 31
0.0
  0
LINE
  5
169
100
AcDbEntity
100
AcDbLine
  8
0
 62
256
370
-1
  6
ByLayer
 10
19.1280000000000001
 20
127.2049999999999983
 30
0.0
 11
18.9660000000000011
 21
127.2690000000000055
 31
0.0
  0
LINE
  5
16A
100
AcDbEntity
100
AcDbLine
  8
0
 62
256
370
-1
  6
ByLayer
 10
18.9660000000000011
 20
127.2690000000000055
 30
0.0
 11
18.8129999999999988
 21
127.3529999999999944
 31
0.0
  0
LINE
  5
16B
100
AcDbEntity
100
AcDbLine
  8
0
 62
256
370
-1
  6
ByLayer
 10
18.8129999999999988
 20
127.3529999999999944
 30
0.0
 11
18.6720000000000006
 21
127.4560000000000031
 31
0.0
  0
LINE
  5
16C
100
AcDbEntity
100
AcDbLine
  8
0
 62
256
370
-1
  6
ByLayer
 10
18.6720000000000006
 20
127.4560000000000031
 30
0.0
 11
18.5450000000000017
 21
127.5750000000000028
 31
0.0
  0
LINE
  5
16D
100
AcDbEntity
100
AcDbLine
  8
0
 62
256
370
-1
  6
ByLayer
 10
18.5450000000000017
 20
127.5750000000000028
 30
0.0
 11
18.4329999999999998
 21
127.7099999999999937
 31
0.0
  0
LINE
  5
16E
100
AcDbEntity
100
AcDbLine
  8
0
 62
256
370
-1
  6
ByLayer
 10
18.4329999999999998
 20
127.7099999999999937
 30
0.0
 11
18.3399999999999999
 21
127.8569999999999993
 31
0.0
  0
LINE
  5
16F
100
AcDbEntity
100
AcDbLine
  8
0
 62
256
370
-1
  6
ByLayer
 10
18.3399999999999999
 20
127.8569999999999993
 30
0.0
 11
18.2659999999999982
 21
128.0149999999999864
 31
0.0
  0
LINE
  5
170
100
AcDbEntity
100
AcDbLine
  8
0
 62
256
370
-1
  6
ByLayer
 10
18.2659999999999982
 20
128.0149999999999864
 30
0.0
 11
18.2119999999999997
 21
128.1810000000000116
 31
0.0
  0
LINE
  5
171
100
AcDbEntity
100
AcDbLine
  8
0
 62
256
370
-1
  6
ByLayer
 10
18.2119999999999997
 20
128.1810000000000116
 30
0.0
 11
18.1789999999999985
 21
128.3520000000000039
 31
0.0
  0
LINE
  5
172
100
AcDbEntity
100
AcDbLine
  8
0
 62
256
370
-1
  6
ByLayer
 10
18.1789999999999985
 20
128.3520000000000039
 30
0.0
 11
18.1679999999999993
 21
128.5269999999999868
 31
0.0
  0
LINE
  5
173
100
AcDbEntity
100
AcDbLine
  8
0
 62
256
370
-1
  6
ByLayer
 10
160.407999999999987
 20
128.5269999999999868
 30
0.0
 11
160.4190000000000111
 21
128.7009999999999934
 31
0.0
  0
LINE
  5
174
100
AcDbEntity
100
AcDbLine
  8
0
 62
256
370
-1
  6
ByLayer
 10
160.4190000000000111
 20
128.7009999999999934
 30
0.0
 11
160.4519999999999982
 21
128.8720000000000141
 31
0.0
  0
LINE
  5
175
100
AcDbEntity
100
AcDbLine
  8
0
 62
256
370
-1
  6
ByLayer
 10
160.4519999999999982
 20
128.8720000000000141
 30
0.0
 11
160.5060000000000002
 21
129.0380000000000109
 31
0.0
  0
LINE
  5
176
100
AcDbEntity
100
AcDbLine
  8
0
 62
256
370
-1
  6
ByLayer
 10
160.5060000000000002
 20
129.0380000000000109
 30
0.0
 11
160.5800000000000125
 21
129.195999999999998
 31
0.0
  0
LINE
  5
177
100
AcDbEntity
100
AcDbLine
  8
0
 62
256
370
-1
  6
ByLayer
 10
160.5800000000000125
 20
129.195999999999998
 30
0.0
 11
160.6730000000000018
 21
129.3439999999999941
 31
0.0
  0
LINE
  5
178
100
AcDbEntity
100
AcDbLine
  8
0
 62
256
370
-1
  6
ByLayer
 10
160.6730000000000018
 20
129.3439999999999941
 30
0.0
 11
160.7849999999999966
 21
129.4780000000000086
 31
0.0
  0
LINE
  5
179
100
AcDbEntity
100
AcDbLine
  8
0
 62
256
370
-1
  6
ByLayer
 10
160.7849999999999966
 20
129.4780000000000086
 30
0.0
 11
160.9120000000000061
 21
129.5980000000000132
 31
0.0
  0
LINE
  5
17A
100
AcDbEntity
100
AcDbLine
  8
0
 62
256
370
-1
  6
ByLayer
 10
160.9120000000000061
 20
129.5980000000000132
 30
0.0
 11
161.0529999999999973
 21
129.6999999999999886
 31
0.0
  0
LINE
  5
17B
100
AcDbEntity
100
AcDbLine
  8
0
 62
256
370
-1
  6
ByLayer
 10
161.0529999999999973
 20
129.6999999999999886
 30
0.0
 11
161.2059999999999889
 21
129.7839999999999918
 31
0.0
  0
LINE
  5
17C
100
AcDbEntity
100
AcDbLine
  8
0
 62
256
370
-1
  6
ByLayer
 10
161.2059999999999889
 20
129.7839999999999918
 30
0.0
 11
161.367999999999995
 21
129.8489999999999895
 31
0.0
  0
LINE
  5
17D
100
AcDbEntity
100
AcDbLine
  8
0
 62
256
370
-1
  6
ByLayer
 10
161.367999999999995
 20
129.8489999999999895
 30
0.0
 11
161.5380000000000109
 21
129.8919999999999959
 31
0.0
  0
LINE
  5
17E
100
AcDbEntity
100
AcDbLine
  8
0
 62
256
370
-1
  6
ByLayer
 10
161.5380000000000109
 20
129.8919999999999959
 30
0.0
 11
161.7110000000000127
 21
129.9139999999999873
 31
0.0
  0
LINE
  5
17F
100
AcDbEntity
100
AcDbLine
  8
0
 62
256
370
-1
  6
ByLayer
 10
161.7110000000000127
 20
129.9139999999999873
 30
0.0
 11
161.8849999999999909
 21
129.9139999999999873
 31
0.0
  0
LINE
  5
180
100
AcDbEntity
100
AcDbLine
  8
0
 62
256
370
-1
  6
ByLayer
 10
161.8849999999999909
 20
129.9139999999999873
 30
0.0
 11
162.0579999999999927
 21
129.8919999999999959
 31
0.0
  0
LINE
  5
181
100
AcDbEntity
100
AcDbLine
  8
0
 62
256
370
-1
  6
ByLayer
 10
162.0579999999999927
 20
129.8919999999999959
 30
0.0
 11
162.2280000000000086
 21
129.8489999999999895
 31
0.0
  0
LINE
  5
182
100
AcDbEntity
100
AcDbLine
  8
0
 62
256
370
-1
  6
ByLayer
 10
162.2280000000000086
 20
129.8489999999999895
 30
0.0
 11
162.3899999999999864
 21
129.7839999999999918
 31
0.0
  0
LINE
  5
183
100
AcDbEntity
100
AcDbLine
  8
0
 62
256
370
-1
  6
ByLayer
 10
162.3899999999999864
 20
129.7839999999999918
 30
0.0
 11
162.5430000000000064
 21
129.6999999999999886
 31
0.0
  0
LINE
  5
184
100
AcDbEntity
100
AcDbLine
  8
0
 62
256
370
-1
  6
ByLayer
 10
162.5430000000000064
 20
129.6999999999999886
 30
0.0
 11
162.6839999999999975
 21
129.5980000000000132
 31
0.0
  0
LINE
  5
185
100
AcDbEntity
100
AcDbLine
  8
0
 62
256
370
-1
  6
ByLayer
 10
162.6839999999999975
 20
129.5980000000000132
 30
0.0
 11
162.811000000000007
 21
129.4780000000000086
 31
0.0
  0
LINE
  5
186
100
AcDbEntity
100
AcDbLine
  8
0
 62
256
370
-1
  6
ByLayer
 10
162.811000000000007
 20
129.4780000000000086
 30
0.0
 11
162.9230000000000018
 21
129.3439999999999941
 31
0.0
  0
LINE
  5
187
100
AcDbEntity
100
AcDbLine
  8
0
 62
256
370
-1
  6
ByLayer
 10
162.9230000000000018
 20
129.3439999999999941
 30
0.0
 11
163.0159999999999911
 21
129.195999999999998
 31
0.0
  0
LINE
  5
188
100
AcDbEntity
100
AcDbLine
  8
0
 62
256
370
-1
  6
ByLayer
 10
163.0159999999999911
 20
129.195999999999998
 30
0.0
 11
163.0900000000000034
 21
129.0380000000000109
 31
0.0
  0
LINE
  5
189
100
AcDbEntity
100
AcDbLine
  8
0
 62
256
370
-1
  6
ByLayer
 10
163.0900000000000034
 20
129.0380000000000109
 30
0.0
 11
163.1440000000000055
 21
128.8720000000000141
 31
0.0
  0
LINE
  5
18A
100
AcDbEntity
100
AcDbLine
  8
0
 62
256
370
-1
  6
ByLayer
 10
163.1440000000000055
 20
128.8720000000000141
 30
0.0
 11
163.1769999999999925
 21
128.7009999999999934
 31
0.0
  0
LINE
  5
18B
100
AcDbEntity
100
AcDbLine
  8
0
 62
256
370
-1
  6
ByLayer
 10
163.1769999999999925
 20
128.7009999999999934
 30
0.0
 11
163.1879999999999882
 21
128.5269999999999868
 31
0.0
  0
LINE
  5
18C
100
AcDbEntity
100
AcDbLine
  8
0
 62
256
370
-1
  6
ByLayer
 10
163.1879999999999882
 20
128.5269999999999868
 30
0.0
 11
163.1769999999999925
 21
128.3520000000000039
 31
0.0
  0
LINE
  5
18D
100
AcDbEntity
100
AcDbLine
  8
0
 62
256
370
-1
  6
ByLayer
 10
163.1769999999999925
 20
128.3520000000000039
 30
0.0
 11
163.1440000000000055
 21
128.1810000000000116
 31
0.0
  0
LINE
  5
18E
100
AcDbEntity
100
AcDbLine
  8
0
 62
256
370
-1
  6
ByLayer
 10
163.1440000000000055
 20
128.1810000000000116
 30
0.0
 11
163.0900000000000034
 21
128.0149999999999864
 31
0.0
  0
LINE
  5
18F
100
AcDbEntity
100
AcDbLine
  8
0
 62
256
370
-1
  6
ByLayer
 10
163.0900000000000034
 20
128.0149999999999864
 30
0.0
 11
163.0159999999999911
 21
127.8569999999999993
 31
0.0
  0
LINE
  5
190
100
AcDbEntity
100
AcDbLine
  8
0
 62
256
370
-1
  6
ByLayer
 10
163.0159999999999911
 20
127.8569999999999993
 30
0.0
 11
162.9230000000000018
 21
127.7099999999999937
 31
0.0
  0
LINE
  5
191
100
AcDbEntity
100
AcDbLine
  8
0
 62
256
370
-1
  6
ByLayer
 10
162.9230000000000018
 20
127.7099999999999937
 30
0.0
 11
162.811000000000007
 21
127.5750000000000028
 31
0.0
  0
LINE
  5
192
100
AcDbEntity
100
AcDbLine
  8
0
 62
256
370
-1
  6
ByLayer
 10
162.811000000000007
 20
127.5750000000000028
 30
0.0
 11
162.6839999999999975
 21
127.4560000000000031
 31
0.0
  0
LINE
  5
193
100
AcDbEntity
100
AcDbLine
  8
0
 62
256
370
-1
  6
ByLayer
 10
162.6839999999999975
 20
127.4560000000000031
 30
0.0
 11
162.5430000000000064
 21
127.3529999999999944
 31
0.0
  0
LINE
  5
194
100
AcDbEntity
100
AcDbLine
  8
0
 62
256
370
-1
  6
ByLayer
 10
162.5430000000000064
 20
127.3529999999999944
 30
0.0
 11
162.3899999999999864
 21
127.2690000000000055
 31
0.0
  0
LINE
  5
195
100
AcDbEntity
100
AcDbLine
  8
0
 62
256
370
-1
  6
ByLayer
 10
162.3899999999999864
 20
127.2690000000000055
 30
0.0
 11
162.2280000000000086
 21
127.2049999999999983
 31
0.0
  0
LINE
  5
196
100
AcDbEntity
100
AcDbLine
  8
0
 62
256
370
-1
  6
ByLayer
 10
162.2280000000000086
 20
127.2049999999999983
 30
0.0
 11
162.0579999999999927
 21
127.1610000000000014
 31
0.0
  0
LINE
  5
197
100
AcDbEntity
100
AcDbLine
  8
0
 62
256
370
-1
  6
ByLayer
 10
162.0579999999999927
 20
127.1610000000000014
 30
0.0
 11
161.8849999999999909
 21
127.1389999999999958
 31
0.0
  0
LINE
  5
198
100
AcDbEntity
100
AcDbLine
  8
0
 62
256
370
-1
  6
ByLayer
 10
161.8849999999999909
 20
127.1389999999999958
 30
0.0
 11
161.7110000000000127
 21
127.1389999999999958
 31
0.0
  0
LINE
  5
199
100
AcDbEntity
100
AcDbLine
  8
0
 62
256
370
-1
  6
ByLayer
 10
161.7110000000000127
 20
127.1389999999999958
 30
0.0
 11
161.5380000000000109
 21
127.1610000000000014
 31
0.0
  0
LINE
  5
19A
100
AcDbEntity
100
AcDbLine
  8
0
 62
256
370
-1
  6
ByLayer
 10
161.5380000000000109
 20
127.1610000000000014
 30
0.0
 11
161.367999999999995
 21
127.2049999999999983
 31
0.0
  0
LINE
  5
19B
100
AcDbEntity
100
AcDbLine
  8
0
 62
256
370
-1
  6
ByLayer
 10
161.367999999999995
 20
127.2049999999999983
 30
0.0
 11
161.2059999999999889
 21
127.2690000000000055
 31
0.0
  0
LINE
  5
19C
100
AcDbEntity
100
AcDbLine
  8
0
 62
256
370
-1
  6
ByLayer
 10
161.2059999999999889
 20
127.2690000000000055
 30
0.0
 11
161.0529999999999973
 21
127.3529999999999944
 31
0.0
  0
LINE
  5
19D
100
AcDbEntity
100
AcDbLine
  8
0
 62
256
370
-1
  6
ByLayer
 10
161.0529999999999973
 20
127.3529999999999944
 30
0.0
 11
160.9120000000000061
 21
127.4560000000000031
 31
0.0
  0
LINE
  5
19E
100
AcDbEntity
100
AcDbLine
  8
0
 62
256
370
-1
  6
ByLayer
 10
160.9120000000000061
 20
127.4560000000000031
 30
0.0
 11
160.7849999999999966
 21
127.5750000000000028
 31
0.0
  0
LINE
  5
19F
100
AcDbEntity
100
AcDbLine
  8
0
 62
256
370
-1
  6
ByLayer
 10
160.7849999999999966
 20
127.5750000000000028
 30
0.0
 11
160.6730000000000018
 21
127.7099999999999937
 31
0.0
  0
LINE
  5
1A0
100
AcDbEntity
100
AcDbLine
  8
0
 62
256
370
-1
  6
ByLayer
 10
160.6730000000000018
 20
127.7099999999999937
 30
0.0
 11
160.5800000000000125
 21
127.8569999999999993
 31
0.0
  0
LINE
  5
1A1
100
AcDbEntity
100
AcDbLine
  8
0
 62
256
370
-1
  6
ByLayer
 10
160.5800000000000125
 20
127.8569999999999993
 30
0.0
 11
160.5060000000000002
 21
128.0149999999999864
 31
0.0
  0
LINE
  5
1A2
100
AcDbEntity
100
AcDbLine
  8
0
 62
256
370
-1
  6
ByLayer
 10
160.5060000000000002
 20
128.0149999999999864
 30
0.0
 11
160.4519999999999982
 21
128.1810000000000116
 31
0.0
  0
LINE
  5
1A3
100
AcDbEntity
100
AcDbLine
  8
0
 62
256
370
-1
  6
ByLayer
 10
160.4519999999999982
 20
128.1810000000000116
 30
0.0
 11
160.4190000000000111
 21
128.3520000000000039
 31
0.0
  0
LINE
  5
1A4
100
AcDbEntity
100
AcDbLine
  8
0
 62
256
370
-1
  6
ByLayer
 10
160.4190000000000111
 20
128.3520000000000039
 30
0.0
 11
160.407999999999987
 21
128.5269999999999868
 31
0.0
  0
LINE
  5
1A5
100
AcDbEntity
100
AcDbLine
  8
0
 62
256
370
-1
  6
ByLayer
 10
175.6479999999999961
 20
96.7740000000000009
 30
0.0
 11
175.6589999999999918
 21
96.9479999999999933
 31
0.0
  0
LINE
  5
1A6
100
AcDbEntity
100
AcDbLine
  8
0
 62
256
370
-1
  6
ByLayer
 10
175.6589999999999918
 20
96.9479999999999933
 30
0.0
 11
175.6920000000000073
 21
97.1200000000000045
 31
0.0
  0
LINE
  5
1A7
100
AcDbEntity
100
AcDbLine
  8
0
 62
256
370
-1
  6
ByLayer
 10
175.6920000000000073
 20
97.1200000000000045
 30
0.0
 11
175.7460000000000093
 21
97.2860000000000014
 31
0.0
  0
LINE
  5
1A8
100
AcDbEntity
100
AcDbLine
  8
0
 62
256
370
-1
  6
ByLayer
 10
175.7460000000000093
 20
97.2860000000000014
 30
0.0
 11
175.8199999999999932
 21
97.4440000000000026
 31
0.0
  0
LINE
  5
1A9
100
AcDbEntity
100
AcDbLine
  8
0
 62
256
370
-1
  6
ByLayer
 10
175.8199999999999932
 20
97.4440000000000026
 30
0.0
 11
175.9130000000000109
 21
97.590999999999994
 31
0.0
  0
LINE
  5
1AA
100
AcDbEntity
100
AcDbLine
  8
0
 62
256
370
-1
  6
ByLayer
 10
175.9130000000000109
 20
97.590999999999994
 30
0.0
 11
176.0250000000000057
 21
97.7259999999999991
 31
0.0
  0
LINE
  5
1AB
100
AcDbEntity
100
AcDbLine
  8
0
 62
256
370
-1
  6
ByLayer
 10
176.0250000000000057
 20
97.7259999999999991
 30
0.0
 11
176.1519999999999868
 21
97.8449999999999989
 31
0.0
  0
LINE
  5
1AC
100
AcDbEntity
100
AcDbLine
  8
0
 62
256
370
-1
  6
ByLayer
 10
176.1519999999999868
 20
97.8449999999999989
 30
0.0
 11
176.2930000000000064
 21
97.9479999999999933
 31
0.0
  0
LINE
  5
1AD
100
AcDbEntity
100
AcDbLine
  8
0
 62
256
370
-1
  6
ByLayer
 10
176.2930000000000064
 20
97.9479999999999933
 30
0.0
 11
176.445999999999998
 21
98.0319999999999965
 31
0.0
  0
LINE
  5
1AE
100
AcDbEntity
100
AcDbLine
  8
0
 62
256
370
-1
  6
ByLayer
 10
176.445999999999998
 20
98.0319999999999965
 30
0.0
 11
176.6080000000000041
 21
98.0960000000000036
 31
0.0
  0
LINE
  5
1AF
100
AcDbEntity
100
AcDbLine
  8
0
 62
256
370
-1
  6
ByLayer
 10
176.6080000000000041
 20
98.0960000000000036
 30
0.0
 11
176.7779999999999916
 21
98.1389999999999958
 31
0.0
  0
LINE
  5
1B0
100
AcDbEntity
100
AcDbLine
  8
0
 62
256
370
-1
  6
ByLayer
 10
176.7779999999999916
 20
98.1389999999999958
 30
0.0
 11
176.9509999999999934
 21
98.1610000000000014
 31
0.0
  0
LINE
  5
1B1
100
AcDbEntity
100
AcDbLine
  8
0
 62
256
370
-1
  6
ByLayer
 10
176.9509999999999934
 20
98.1610000000000014
 30
0.0
 11
177.125
 21
98.1610000000000014
 31
0.0
  0
LINE
  5
1B2
100
AcDbEntity
100
AcDbLine
  8
0
 62
256
370
-1
  6
ByLayer
 10
177.125
 20
98.1610000000000014
 30
0.0
 11
177.2980000000000018
 21
98.1389999999999958
 31
0.0
  0
LINE
  5
1B3
100
AcDbEntity
100
AcDbLine
  8
0
 62
256
370
-1
  6
ByLayer
 10
177.2980000000000018
 20
98.1389999999999958
 30
0.0
 11
177.4679999999999893
 21
98.0960000000000036
 31
0.0
  0
LINE
  5
1B4
100
AcDbEntity
100
AcDbLine
  8
0
 62
256
370
-1
  6
ByLayer
 10
177.4679999999999893
 20
98.0960000000000036
 30
0.0
 11
177.6299999999999955
 21
98.0319999999999965
 31
0.0
  0
LINE
  5
1B5
100
AcDbEntity
100
AcDbLine
  8
0
 62
256
370
-1
  6
ByLayer
 10
177.6299999999999955
 20
98.0319999999999965
 30
0.0
 11
177.782999999999987
 21
97.9479999999999933
 31
0.0
  0
LINE
  5
1B6
100
AcDbEntity
100
AcDbLine
  8
0
 62
256
370
-1
  6
ByLayer
 10
177.782999999999987
 20
97.9479999999999933
 30
0.0
 11
177.9240000000000066
 21
97.8449999999999989
 31
0.0
  0
LINE
  5
1B7
100
AcDbEntity
100
AcDbLine
  8
0
 62
256
370
-1
  6
ByLayer
 10
177.9240000000000066
 20
97.8449999999999989
 30
0.0
 11
178.0509999999999877
 21
97.7259999999999991
 31
0.0
  0
LINE
  5
1B8
100
AcDbEntity
100
AcDbLine
  8
0
 62
256
370
-1
  6
ByLayer
 10
178.0509999999999877
 20
97.7259999999999991
 30
0.0
 11
178.1630000000000109
 21
97.590999999999994
 31
0.0
  0
LINE
  5
1B9
100
AcDbEntity
100
AcDbLine
  8
0
 62
256
370
-1
  6
ByLayer
 10
178.1630000000000109
 20
97.590999999999994
 30
0.0
 11
178.2560000000000002
 21
97.4440000000000026
 31
0.0
  0
LINE
  5
1BA
100
AcDbEntity
100
AcDbLine
  8
0
 62
256
370
-1
  6
ByLayer
 10
178.2560000000000002
 20
97.4440000000000026
 30
0.0
 11
178.3300000000000125
 21
97.2860000000000014
 31
0.0
  0
LINE
  5
1BB
100
AcDbEntity
100
AcDbLine
  8
0
 62
256
370
-1
  6
ByLayer
 10
178.3300000000000125
 20
97.2860000000000014
 30
0.0
 11
178.3839999999999861
 21
97.1200000000000045
 31
0.0
  0
LINE
  5
1BC
100
AcDbEntity
100
AcDbLine
  8
0
 62
256
370
-1
  6
ByLayer
 10
178.3839999999999861
 20
97.1200000000000045
 30
0.0
 11
178.4170000000000016
 21
96.9479999999999933
 31
0.0
  0
LINE
  5
1BD
100
AcDbEntity
100
AcDbLine
  8
0
 62
256
370
-1
  6
ByLayer
 10
178.4170000000000016
 20
96.9479999999999933
 30
0.0
 11
178.4279999999999973
 21
96.7740000000000009
 31
0.0
  0
LINE
  5
1BE
100
AcDbEntity
100
AcDbLine
  8
0
 62
256
370
-1
  6
ByLayer
 10
178.4279999999999973
 20
96.7740000000000009
 30
0.0
 11
178.4170000000000016
 21
96.5999999999999943
 31
0.0
  0
LINE
  5
1BF
100
AcDbEntity
100
AcDbLine
  8
0
 62
256
370
-1
  6
ByLayer
 10
178.4170000000000016
 20
96.5999999999999943
 30
0.0
 11
178.3839999999999861
 21
96.4279999999999973
 31
0.0
  0
LINE
  5
1C0
100
AcDbEntity
100
AcDbLine
  8
0
 62
256
370
-1
  6
ByLayer
 10
178.3839999999999861
 20
96.4279999999999973
 30
0.0
 11
178.3300000000000125
 21
96.2620000000000005
 31
0.0
  0
LINE
  5
1C1
100
AcDbEntity
100
AcDbLine
  8
0
 62
256
370
-1
  6
ByLayer
 10
178.3300000000000125
 20
96.2620000000000005
 30
0.0
 11
178.2560000000000002
 21
96.1039999999999992
 31
0.0
  0
LINE
  5
1C2
100
AcDbEntity
100
AcDbLine
  8
0
 62
256
370
-1
  6
ByLayer
 10
178.2560000000000002
 20
96.1039999999999992
 30
0.0
 11
178.1630000000000109
 21
95.9569999999999936
 31
0.0
  0
LINE
  5
1C3
100
AcDbEntity
100
AcDbLine
  8
0
 62
256
370
-1
  6
ByLayer
 10
178.1630000000000109
 20
95.9569999999999936
 30
0.0
 11
178.0509999999999877
 21
95.8220000000000027
 31
0.0
  0
LINE
  5
1C4
100
AcDbEntity
100
AcDbLine
  8
0
 62
256
370
-1
  6
ByLayer
 10
178.0509999999999877
 20
95.8220000000000027
 30
0.0
 11
177.9240000000000066
 21
95.703000000000003
 31
0.0
  0
LINE
  5
1C5
100
AcDbEntity
100
AcDbLine
  8
0
 62
256
370
-1
  6
ByLayer
 10
177.9240000000000066
 20
95.703000000000003
 30
0.0
 11
177.782999999999987
 21
95.5999999999999943
 31
0.0
  0
LINE
  5
1C6
100
AcDbEntity
100
AcDbLine
  8
0
 62
256
370
-1
  6
ByLayer
 10
177.782999999999987
 20
95.5999999999999943
 30
0.0
 11
177.6299999999999955
 21
95.5160000000000053
 31
0.0
  0
LINE
  5
1C7
100
AcDbEntity
100
AcDbLine
  8
0
 62
256
370
-1
  6
ByLayer
 10
177.6299999999999955
 20
95.5160000000000053
 30
0.0
 11
177.4679999999999893
 21
95.4519999999999982
 31
0.0
  0
LINE
  5
1C8
100
AcDbEntity
100
AcDbLine
  8
0
 62
256
370
-1
  6
ByLayer
 10
177.4679999999999893
 20
95.4519999999999982
 30
0.0
 11
177.2980000000000018
 21
95.409000000000006
 31
0.0
  0
LINE
  5
1C9
100
AcDbEntity
100
AcDbLine
  8
0
 62
256
370
-1
  6
ByLayer
 10
177.2980000000000018
 20
95.409000000000006
 30
0.0
 11
177.125
 21
95.3870000000000005
 31
0.0
  0
LINE
  5
1CA
100
AcDbEntity
100
AcDbLine
  8
0
 62
256
370
-1
  6
ByLayer
 10
177.125
 20
95.3870000000000005
 30
0.0
 11
176.9509999999999934
 21
95.3870000000000005
 31
0.0
  0
LINE
  5
1CB
100
AcDbEntity
100
AcDbLine
  8
0
 62
256
370
-1
  6
ByLayer
 10
176.9509999999999934
 20
95.3870000000000005
 30
0.0
 11
176.7779999999999916
 21
95.409000000000006
 31
0.0
  0
LINE
  5
1CC
100
AcDbEntity
100
AcDbLine
  8
0
 62
256
370
-1
  6
ByLayer
 10
176.7779999999999916
 20
95.409000000000006
 30
0.0
 11
176.6080000000000041
 21
95.4519999999999982
 31
0.0
  0
LINE
  5
1CD
100
AcDbEntity
100
AcDbLine
  8
0
 62
256
370
-1
  6
ByLayer
 10
176.6080000000000041
 20
95.4519999999999982
 30
0.0
 11
176.445999999999998
 21
95.5160000000000053
 31
0.0
  0
LINE
  5
1CE
100
AcDbEntity
100
AcDbLine
  8
0
 62
256
370
-1
  6
ByLayer
 10
176.445999999999998
 20
95.5160000000000053
 30
0.0
 11
176.2930000000000064
 21
95.5999999999999943
 31
0.0
  0
LINE
  5
1CF
100
AcDbEntity
100
AcDbLine
  8
0
 62
256
370
-1
  6
ByLayer
 10
176.2930000000000064
 20
95.5999999999999943
 30
0.0
 11
176.1519999999999868
 21
95.703000000000003
 31
0.0
  0
LINE
  5
1D0
100
AcDbEntity
100
AcDbLine
  8
0
 62
256
370
-1
  6
ByLayer
 10
176.1519999999999868
 20
95.703000000000003
 30
0.0
 11
176.0250000000000057
 21
95.8220000000000027
 31
0.0
  0
LINE
  5
1D1
100
AcDbEntity
100
AcDbLine
  8
0
 62
256
370
-1
  6
ByLayer
 10
176.0250000000000057
 20
95.8220000000000027
 30
0.0
 11
175.9130000000000109
 21
95.9569999999999936
 31
0.0
  0
LINE
  5
1D2
100
AcDbEntity
100
AcDbLine
  8
0
 62
256
370
-1
  6
ByLayer
 10
175.9130000000000109
 20
95.9569999999999936
 30
0.0
 11
175.8199999999999932
 21
96.1039999999999992
 31
0.0
  0
LINE
  5
1D3
100
AcDbEntity
100
AcDbLine
  8
0
 62
256
370
-1
  6
ByLayer
 10
175.8199999999999932
 20
96.1039999999999992
 30
0.0
 11
175.7460000000000093
 21
96.2620000000000005
 31
0.0
  0
LINE
  5
1D4
100
AcDbEntity
100
AcDbLine
  8
0
 62
256
370
-1
  6
ByLayer
 10
175.7460000000000093
 20
96.2620000000000005
 30
0.0
 11
175.6920000000000073
 21
96.4279999999999973
 31
0.0
  0
LINE
  5
1D5
100
AcDbEntity
100
AcDbLine
  8
0
 62
256
370
-1
  6
ByLayer
 10
175.6920000000000073
 20
96.4279999999999973
 30
0.0
 11
175.6589999999999918
 21
96.5999999999999943
 31
0.0
  0
LINE
  5
1D6
100
AcDbEntity
100
AcDbLine
  8
0
 62
256
370
-1
  6
ByLayer
 10
175.6589999999999918
 20
96.5999999999999943
 30
0.0
 11
175.6479999999999961
 21
96.7740000000000009
 31
0.0
  0
ENDSEC
  0
SECTION
  2
OBJECTS
  0
DICTIONARY
  5
C
100
AcDbDictionary
280
0
281
1
  3
ACAD_GROUP
350
D
  3
ACAD_LAYOUT
350
1A
  3
ACAD_MLINESTYLE
350
17
  3
ACAD_PLOTSETTINGS
350
19
  3
ACAD_PLOTSTYLENAME
350
E
  3
AcDbVariableDictionary
350
1D7
  0
DICTIONARY
  5
D
100
AcDbDictionary
280
0
281
1
  0
ACDBDICTIONARYWDFLT
  5
E
100
AcDbDictionary
281
1
  3
Normal
350
F
100
AcDbDictionaryWithDefault
340
F
  0
ACDBPLACEHOLDER
  5
F
  0
DICTIONARY
  5
17
100
AcDbDictionary
280
0
281
1
  3
Standard
350
18
  0
MLINESTYLE
  5
18
100
AcDbMlineStyle
  2
STANDARD
 70
0
  3

 62
256
 51
90.0
 52
90.0
 71
2
 49
0.5
 62
256
  6
BYLAYER
 49
-0.5
 62
256
  6
BYLAYER
  0
DICTIONARY
  5
19
100
AcDbDictionary
280
0
281
1
  0
DICTIONARY
  5
1A
100
AcDbDictionary
281
1
  3
Layout1
350
1E
  3
Layout2
350
26
  3
Model
350
22
  0
LAYOUT
  5
1E
100
AcDbPlotSettings
  1

  2
C:\Program Files\AutoCAD 2002\plotters\DWF ePlot (optimized for plotting).pc3
  4

  6

 40
0.0
 41
0.0
 42
0.0
 43
0.0
 44
0.0
 45
0.0
 46
0.0
 47
0.0
 48
0.0
 49
0.0
140
0.0
141
0.0
142
1.0
143
1.0
 70
688
 72
0
 73
0
 74
5
  7

 75
16
147
1.0
148
0.0
149
0.0
100
AcDbLayout
  1
Layout1
 70
1
 71
1
 10
0.0
 20
0.0
 11
420.0
 21
297.0
 12
0.0
 22
0.0
 32
0.0
 14
100000000000000000000.0
 24
100000000000000000000.0
 34
100000000000000000000.0
 15
-100000000000000000000.0
 25
-100000000000000000000.0
 35
-100000000000000000000.0
146
0.0
 13
0.0
 23
0.0
 33
0.0
 16
1.0
 26
0.0
 36
0.0
 17
0.0
 27
1.0
 37
0.0
 76
0
330
1B
  0
LAYOUT
  5
22
100
AcDbPlotSettings
  1

  2
C:\Program Files\AutoCAD 2002\plotters\DWF ePlot (optimized for plotting).pc3
  4

  6

 40
0.0
 41
0.0
 42
0.0
 43
0.0
 44
0.0
 45
0.0
 46
0.0
 47
0.0
 48
0.0
 49
0.0
140
0.0
141
0.0
142
1.0
143
1.0
 70
1712
 72
0
 73
0
 74
0
  7

 75
0
147
1.0
148
0.0
149
0.0
100
AcDbLayout
  1
Model
 70
1
 71
0
 10
0.0
 20
0.0
 11
12.0
 21
9.0
 12
0.0
 22
0.0
 32
0.0
 14
0.0
 24
0.0
 34
0.0
 15
0.0
 25
0.0
 35
0.0
146
0.0
 13
0.0
 23
0.0
 33
0.0
 16
1.0
 26
0.0
 36
0.0
 17
0.0
 27
1.0
 37
0.0
 76
0
330
1F
  0
LAYOUT
  5
26
100
AcDbPlotSettings
  1

  2
C:\Program Files\AutoCAD 2002\plotters\DWF ePlot (optimized for plotting).pc3
  4

  6

 40
0.0
 41
0.0
 42
0.0
 43
0.0
 44
0.0
 45
0.0
 46
0.0
 47
0.0
 48
0.0
 49
0.0
140
0.0
141
0.0
142
1.0
143
1.0
 70
688
 72
0
 73
0
 74
5
  7

 75
16
147
1.0
148
0.0
149
0.0
100
AcDbLayout
  1
Layout2
 70
1
 71
2
 10
0.0
 20
0.0
 11
12.0
 21
9.0
 12
0.0
 22
0.0
 32
0.0
 14
0.0
 24
0.0
 34
0.0
 15
0.0
 25
0.0
 35
0.0
146
0.0
 13
0.0
 23
0.0
 33
0.0
 16
1.0
 26
0.0
 36
0.0
 17
0.0
 27
1.0
 37
0.0
 76
0
330
23
  0
DICTIONARY
  5
1D7
100
AcDbDictionary
281
1
  3
DIMASSOC
350
1D9
  3
HIDETEXT
350
1D8
  0
DICTIONARYVAR
  5
1D8
100
DictionaryVariables
280
0
  1
2
  0
DICTIONARYVAR
  5
1D9
100
DictionaryVariables
280
0
  1
1
  0
ENDSEC
  0
EOF
