999
dxfrw 0.6.3
  0
SECTION
  2
HEADER
  9
$ACADVER
  1
AC1021
  9
$DWGCODEPAGE
  3
ANSI_1252
  9
$INSBASE
 10
0
 20
0
 30
0
  9
$EXTMIN
 10
0
 20
0
 30
0
  9
$EXTMAX
 10
19.02
 20
1.740000000000002
 30
0
  9
$LIMMIN
 10
0
 20
0
  9
$LIMMAX
 10
420
 20
297
  9
$ORTHOMODE
 70
    0
  9
$REGENMODE
 70
    1
  9
$FILLMODE
 70
    1
  9
$QTEXTMODE
 70
    0
  9
$MIRRTEXT
 70
    0
  9
$LTSCALE
 40
1
  9
$ATTMODE
 70
    0
  9
$TEXTSIZE
 40
2.5
  9
$TRACEWID
 40
15.68
  9
$TEXTSTYLE
  7
STANDARD
  9
$CLAYER
  8
Reference
  9
$CELTYPE
  6
BYLAYER
  9
$CECOLOR
 62
  256
  9
$CELTSCALE
 40
1
  9
$DISPSILH
 70
    0
  9
$DIMSCALE
 40
1
  9
$DIMASZ
 40
0.1
  9
$DIMEXO
 40
0.025
  9
$DIMDLI
 40
3.75
  9
$DIMRND
 40
0
  9
$DIMDLE
 40
0
  9
$DIMEXE
 40
0.05
  9
$DIMTP
 40
0
  9
$DIMTM
 40
0
  9
$DIMTXT
 40
0.1
  9
$DIMCEN
 40
2.5
  9
$DIMTSZ
 40
0
  9
$DIMTOL
 70
    0
  9
$DIMLIM
 70
    0
  9
$DIMTIH
 70
    0
  9
$DIMTOH
 70
    0
  9
$DIMSE1
 70
    0
  9
$DIMSE2
 70
    0
  9
$DIMTAD
 70
    1
  9
$DIMZIN
 70
    8
  9
$DIMBLK
  1

  9
$DIMASO
 70
    1
  9
$DIMSHO
 70
    1
  9
$DIMPOST
  1

  9
$DIMAPOST
  1

  9
$DIMALT
 70
    0
  9
$DIMALTD
 70
    3
  9
$DIMALTF
 40
0.03937
  9
$DIMLFAC
 40
1
  9
$DIMTOFL
 70
    1
  9
$DIMTVP
 40
0
  9
$DIMTIX
 70
    0
  9
$DIMSOXD
 70
    0
  9
$DIMSAH
 70
    0
  9
$DIMBLK1
  1

  9
$DIMBLK2
  1

  9
$DIMSTYLE
  2
STANDARD
  9
$DIMCLRD
 70
    0
  9
$DIMCLRE
 70
    0
  9
$DIMCLRT
 70
    0
  9
$DIMTFAC
 40
1
  9
$DIMGAP
 40
0.025
  9
$DIMJUST
 70
    0
  9
$DIMSD1
 70
    0
  9
$DIMSD2
 70
    0
  9
$DIMTOLJ
 70
    0
  9
$DIMTZIN
 70
    8
  9
$DIMALTZ
 70
    0
  9
$DIMALTTZ
 70
    0
  9
$DIMUPT
 70
    0
  9
$DIMDEC
 70
    4
  9
$DIMTDEC
 70
    2
  9
$DIMALTU
 70
    2
  9
$DIMALTTD
 70
    3
  9
$DIMTXSTY
  7
STANDARD
  9
$DIMAUNIT
 70
    0
  9
$DIMADEC
 70
    0
  9
$DIMALTRND
 40
0
  9
$DIMAZIN
 70
    0
  9
$DIMDSEP
 70
   44
  9
$DIMATFIT
 70
    3
  9
$DIMFRAC
 70
    0
  9
$DIMLDRBLK
  1
STANDARD
  9
$DIMLUNIT
 70
    2
  9
$DIMLWD
 70
   -2
  9
$DIMLWE
 70
   -2
  9
$DIMTMOVE
 70
    0
  9
$DIMFXL
 40
1
  9
$DIMFXLON
 70
    0
  9
$DIMJOGANG
 40
0.7854
  9
$DIMTFILL
 70
    0
  9
$DIMTFILLCLR
 70
    0
  9
$DIMARCSYM
 70
    0
  9
$DIMLTYPE
  6

  9
$DIMLTEX1
  6

  9
$DIMLTEX2
  6

  9
$LUNITS
 70
    2
  9
$LUPREC
 70
    4
  9
$SKETCHINC
 40
1
  9
$FILLETRAD
 40
0
  9
$AUNITS
 70
    0
  9
$AUPREC
 70
    2
  9
$MENU
  1
.
  9
$ELEVATION
 40
0
  9
$PELEVATION
 40
0
  9
$THICKNESS
 40
0
  9
$LIMCHECK
 70
    0
  9
$CHAMFERA
 40
0
  9
$CHAMFERB
 40
0
  9
$CHAMFERC
 40
0
  9
$CHAMFERD
 40
0
  9
$SKPOLY
 70
    0
  9
$USRTIMER
 70
    1
  9
$ANGBASE
 50
0
  9
$ANGDIR
 70
    0
  9
$PDMODE
 70
   34
  9
$PDSIZE
 40
0
  9
$PLINEWID
 40
0
  9
$SPLFRAME
 70
    0
  9
$SPLINETYPE
 70
    2
  9
$SPLINESEGS
 70
    8
  9
$HANDSEED
  5
20000
  9
$SURFTAB1
 70
    6
  9
$SURFTAB2
 70
    6
  9
$SURFTYPE
 70
    6
  9
$SURFU
 70
    6
  9
$SURFV
 70
    6
  9
$UCSBASE
  2

  9
$UCSNAME
  2

  9
$UCSORG
 10
0
 20
0
 30
0
  9
$UCSXDIR
 10
1
 20
0
 30
0
  9
$UCSYDIR
 10
0
 20
1
 30
0
  9
$UCSORTHOREF
  2

  9
$UCSORTHOVIEW
 70
    0
  9
$UCSORGTOP
 10
0
 20
0
 30
0
  9
$UCSORGBOTTOM
 10
0
 20
0
 30
0
  9
$UCSORGLEFT
 10
0
 20
0
 30
0
  9
$UCSORGRIGHT
 10
0
 20
0
 30
0
  9
$UCSORGFRONT
 10
0
 20
0
 30
0
  9
$UCSORGBACK
 10
0
 20
0
 30
0
  9
$PUCSBASE
  2

  9
$PUCSNAME
  2

  9
$PUCSORG
 10
0
 20
0
 30
0
  9
$PUCSXDIR
 10
1
 20
0
 30
0
  9
$PUCSYDIR
 10
0
 20
1
 30
0
  9
$PUCSORTHOREF
  2

  9
$PUCSORTHOVIEW
 70
    0
  9
$PUCSORGTOP
 10
0
 20
0
 30
0
  9
$PUCSORGBOTTOM
 10
0
 20
0
 30
0
  9
$PUCSORGLEFT
 10
0
 20
0
 30
0
  9
$PUCSORGRIGHT
 10
0
 20
0
 30
0
  9
$PUCSORGFRONT
 10
0
 20
0
 30
0
  9
$PUCSORGBACK
 10
0
 20
0
 30
0
  9
$USERI1
 70
    0
  9
$USERI2
 70
    0
  9
$USERI3
 70
    0
  9
$USERI4
 70
    0
  9
$USERI5
 70
    0
  9
$USERR1
 40
0
  9
$USERR2
 40
0
  9
$USERR3
 40
0
  9
$USERR4
 40
0
  9
$USERR5
 40
0
  9
$WORLDVIEW
 70
    1
  9
$SHADEDGE
 70
    3
  9
$SHADEDIF
 70
   70
  9
$TILEMODE
 70
    1
  9
$MAXACTVP
 70
   64
  9
$PINSBASE
 10
0
 20
0
 30
0
  9
$PLIMCHECK
 70
    0
  9
$PEXTMIN
 10
0
 20
0
 30
0
  9
$PEXTMAX
 10
0
 20
0
 30
0
  9
$GRIDMODE
 70
    1
  9
$SNAPSTYLE
 70
    0
  9
$GRIDUNIT
 10
0
 20
0
  9
$PLIMMIN
 10
0
 20
0
  9
$PLIMMAX
 10
7.8201774e-07
 20
1.10599728e-06
  9
$UNITMODE
 70
    0
  9
$VISRETAIN
 70
    1
  9
$PLINEGEN
 70
    0
  9
$PSLTSCALE
 70
    1
  9
$TREEDEPTH
 70
 3020
  9
$CMLSTYLE
  2
Standard
  9
$CMLJUST
 70
    0
  9
$CMLSCALE
 40
20
  9
$PROXYGRAPHICS
 70
    1
  9
$MEASUREMENT
 70
    1
  9
$CELWEIGHT
370
   -1
  9
$ENDCAPS
280
    0
  9
$JOINSTYLE
280
    0
  9
$LWDISPLAY
290
    0
  9
$INSUNITS
 70
    1
  9
$HYPERLINKBASE
  1

  9
$STYLESHEET
  1

  9
$XEDIT
290
    1
  9
$CEPSNTYPE
380
    0
  9
$PSTYLEMODE
290
    1
  9
$EXTNAMES
290
    1
  9
$PSVPSCALE
 40
1
  9
$OLESTARTUP
290
    0
  9
$SORTENTS
280
  127
  9
$INDEXCTL
280
    0
  9
$HIDETEXT
280
    1
  9
$XCLIPFRAME
290
    0
  9
$HALOGAP
280
    0
  9
$OBSCOLOR
 70
  257
  9
$OBSLTYPE
280
    0
  9
$INTERSECTIONDISPLAY
280
    0
  9
$INTERSECTIONCOLOR
 70
  257
  9
$DIMASSOC
280
    1
  9
$PROJECTNAME
  1

  9
$CAMERADISPLAY
290
    0
  9
$LENSLENGTH
 40
50
  9
$CAMERAHEIGHT
 40
0
  9
$STEPSPERSEC
 40
2
  9
$STEPSIZE
 40
50
  9
$3DDWFPREC
 40
2
  9
$PSOLWIDTH
 40
5
  9
$PSOLHEIGHT
 40
80
  9
$LOFTANG1
 40
1.570796326794897
  9
$LOFTANG2
 40
1.570796326794897
  9
$LOFTMAG1
 40
0
  9
$LOFTMAG2
 40
0
  9
$LOFTPARAM
 70
    7
  9
$LOFTNORMALS
280
    1
  9
$LATITUDE
 40
1
  9
$LONGITUDE
 40
1
  9
$NORTHDIRECTION
 40
0
  9
$TIMEZONE
 70
-8000
  9
$LIGHTGLYPHDISPLAY
280
    1
  9
$TILEMODELIGHTSYNCH
280
    1
  9
$SOLIDHIST
280
    1
  9
$SHOWHIST
280
    1
  9
$DWFFRAME
280
    2
  9
$DGNFRAME
280
    0
  9
$REALWORLDSCALE
290
    1
  9
$INTERFERECOLOR
 62
    1
  9
$CSHADOW
280
    0
  9
$SHADOWPLANELOCATION
 40
0
  0
ENDSEC
  0
SECTION
  2
CLASSES
  0
ENDSEC
  0
SECTION
  2
TABLES
  0
TABLE
  2
VPORT
  5
8
330
0
100
AcDbSymbolTable
 70
    1
  0
VPORT
  5
31
330
2
100
AcDbSymbolTableRecord
100
AcDbViewportTableRecord
  2
*ACTIVE
 70
    0
 10
0
 20
0
 11
1
 21
1
 12
9.98055167399521
 22
3.008348784308204
 13
0
 23
0
 14
10
 24
10
 15
10
 25
10
 16
0
 26
0
 36
1
 17
0
 27
0
 37
0
 40
11.94381651338245
 41
1.9475
 42
50
 43
0
 44
0
 50
0
 51
0
 71
    0
 72
  100
 73
    1
 74
    3
 75
    0
 76
    1
 77
    0
 78
    0
281
    0
 65
    1
110
0
120
0
130
0
111
1
121
0
131
0
112
0
122
1
132
0
 79
    0
146
0
348
10020
 60
    7
 61
    5
292
1
282
    1
141
0
142
0
 63
  250
421
3358443
  0
ENDTAB
  0
TABLE
  2
LTYPE
  5
5
330
0
100
AcDbSymbolTable
 70
    4
  0
LTYPE
  5
14
330
5
100
AcDbSymbolTableRecord
100
AcDbLinetypeTableRecord
  2
ByBlock
 70
    0
  3

 72
   65
 73
    0
 40
0
  0
LTYPE
  5
15
330
5
100
AcDbSymbolTableRecord
100
AcDbLinetypeTableRecord
  2
ByLayer
 70
    0
  3

 72
   65
 73
    0
 40
0
  0
LTYPE
  5
16
330
5
100
AcDbSymbolTableRecord
100
AcDbLinetypeTableRecord
  2
Continuous
 70
    0
  3
Solid line
 72
   65
 73
    0
 40
0
  0
LTYPE
  5
32
330
5
100
AcDbSymbolTableRecord
100
AcDbLinetypeTableRecord
  2
DOT
 70
    0
  3
Dot . . . . . . . . . . . . . . . . . . . . . .
 72
   65
 73
    2
 40
6.35
 49
0
 74
    0
 49
-6.35
 74
    0
  0
LTYPE
  5
33
330
5
100
AcDbSymbolTableRecord
100
AcDbLinetypeTableRecord
  2
DOTTINY
 70
    0
  3
Dot (.15x) .....................................
 72
   65
 73
    2
 40
0.9525
 49
0
 74
    0
 49
-0.9525
 74
    0
  0
LTYPE
  5
34
330
5
100
AcDbSymbolTableRecord
100
AcDbLinetypeTableRecord
  2
DOT2
 70
    0
  3
Dot (.5x) .....................................
 72
   65
 73
    2
 40
3.175
 49
0
 74
    0
 49
-3.175
 74
    0
  0
LTYPE
  5
35
330
5
100
AcDbSymbolTableRecord
100
AcDbLinetypeTableRecord
  2
DOTX2
 70
    0
  3
Dot (2x) .  .  .  .  .  .  .  .  .  .  .  .  .
 72
   65
 73
    2
 40
12.7
 49
0
 74
    0
 49
-12.7
 74
    0
  0
LTYPE
  5
36
330
5
100
AcDbSymbolTableRecord
100
AcDbLinetypeTableRecord
  2
DASHED
 70
    0
  3
Dashed _ _ _ _ _ _ _ _ _ _ _ _ _ _ _ _ _
 72
   65
 73
    2
 40
19.05
 49
12.7
 74
    0
 49
-6.35
 74
    0
  0
LTYPE
  5
37
330
5
100
AcDbSymbolTableRecord
100
AcDbLinetypeTableRecord
  2
DASHEDTINY
 70
    0
  3
Dashed (.15x) _ _ _ _ _ _ _ _ _ _ _ _ _ _ _ _ _
 72
   65
 73
    2
 40
2.8575
 49
1.905
 74
    0
 49
-0.9525
 74
    0
  0
LTYPE
  5
38
330
5
100
AcDbSymbolTableRecord
100
AcDbLinetypeTableRecord
  2
DASHED2
 70
    0
  3
Dashed (.5x) _ _ _ _ _ _ _ _ _ _ _ _ _ _ _ _ _
 72
   65
 73
    2
 40
9.524999999999999
 49
6.35
 74
    0
 49
-3.175
 74
    0
  0
LTYPE
  5
39
330
5
100
AcDbSymbolTableRecord
100
AcDbLinetypeTableRecord
  2
DASHEDX2
 70
    0
  3
Dashed (2x) ____  ____  ____  ____  ____  ___
 72
   65
 73
    2
 40
38.09999999999999
 49
25.4
 74
    0
 49
-12.7
 74
    0
  0
LTYPE
  5
3A
330
5
100
AcDbSymbolTableRecord
100
AcDbLinetypeTableRecord
  2
DASHDOT
 70
    0
  3
Dash dot __ . __ . __ . __ . __ . __ . __ . __
 72
   65
 73
    4
 40
25.4
 49
12.7
 74
    0
 49
-6.35
 74
    0
 49
0
 74
    0
 49
-6.35
 74
    0
  0
LTYPE
  5
3B
330
5
100
AcDbSymbolTableRecord
100
AcDbLinetypeTableRecord
  2
DASHDOTTINY
 70
    0
  3
Dash dot (.15x) _._._._._._._._._._._._._._._.
 72
   65
 73
    4
 40
3.81
 49
1.905
 74
    0
 49
-0.9525
 74
    0
 49
0
 74
    0
 49
-0.9525
 74
    0
  0
LTYPE
  5
3C
330
5
100
AcDbSymbolTableRecord
100
AcDbLinetypeTableRecord
  2
DASHDOT2
 70
    0
  3
Dash dot (.5x) _._._._._._._._._._._._._._._.
 72
   65
 73
    4
 40
12.7
 49
6.35
 74
    0
 49
-3.175
 74
    0
 49
0
 74
    0
 49
-3.175
 74
    0
  0
LTYPE
  5
3D
330
5
100
AcDbSymbolTableRecord
100
AcDbLinetypeTableRecord
  2
DASHDOTX2
 70
    0
  3
Dash dot (2x) ____  .  ____  .  ____  .  ___
 72
   65
 73
    4
 40
50.8
 49
25.4
 74
    0
 49
-12.7
 74
    0
 49
0
 74
    0
 49
-12.7
 74
    0
  0
LTYPE
  5
3E
330
5
100
AcDbSymbolTableRecord
100
AcDbLinetypeTableRecord
  2
DIVIDE
 70
    0
  3
Divide ____ . . ____ . . ____ . . ____ . . ____
 72
   65
 73
    6
 40
31.75
 49
12.7
 74
    0
 49
-6.35
 74
    0
 49
0
 74
    0
 49
-6.35
 74
    0
 49
0
 74
    0
 49
-6.35
 74
    0
  0
LTYPE
  5
3F
330
5
100
AcDbSymbolTableRecord
100
AcDbLinetypeTableRecord
  2
DIVIDETINY
 70
    0
  3
Divide (.15x) __..__..__..__..__..__..__..__.._
 72
   65
 73
    6
 40
4.7625
 49
1.905
 74
    0
 49
-0.9525
 74
    0
 49
0
 74
    0
 49
-0.9525
 74
    0
 49
0
 74
    0
 49
-0.9525
 74
    0
  0
LTYPE
  5
40
330
5
100
AcDbSymbolTableRecord
100
AcDbLinetypeTableRecord
  2
DIVIDE2
 70
    0
  3
Divide (.5x) __..__..__..__..__..__..__..__.._
 72
   65
 73
    6
 40
15.875
 49
6.35
 74
    0
 49
-3.175
 74
    0
 49
0
 74
    0
 49
-3.175
 74
    0
 49
0
 74
    0
 49
-3.175
 74
    0
  0
LTYPE
  5
41
330
5
100
AcDbSymbolTableRecord
100
AcDbLinetypeTableRecord
  2
DIVIDEX2
 70
    0
  3
Divide (2x) ________  .  .  ________  .  .  _
 72
   65
 73
    6
 40
63.5
 49
25.4
 74
    0
 49
-12.7
 74
    0
 49
0
 74
    0
 49
-12.7
 74
    0
 49
0
 74
    0
 49
-12.7
 74
    0
  0
LTYPE
  5
42
330
5
100
AcDbSymbolTableRecord
100
AcDbLinetypeTableRecord
  2
BORDER
 70
    0
  3
Border __ __ . __ __ . __ __ . __ __ . __ __ .
 72
   65
 73
    6
 40
44.45
 49
12.7
 74
    0
 49
-6.35
 74
    0
 49
12.7
 74
    0
 49
-6.35
 74
    0
 49
0
 74
    0
 49
-6.35
 74
    0
  0
LTYPE
  5
43
330
5
100
AcDbSymbolTableRecord
100
AcDbLinetypeTableRecord
  2
BORDERTINY
 70
    0
  3
Border (.15x) __.__.__.__.__.__.__.__.__.__.__.
 72
   65
 73
    6
 40
6.6675
 49
1.905
 74
    0
 49
-0.9525
 74
    0
 49
1.905
 74
    0
 49
-0.9525
 74
    0
 49
0
 74
    0
 49
-0.9525
 74
    0
  0
LTYPE
  5
44
330
5
100
AcDbSymbolTableRecord
100
AcDbLinetypeTableRecord
  2
BORDER2
 70
    0
  3
Border (.5x) __.__.__.__.__.__.__.__.__.__.__.
 72
   65
 73
    6
 40
22.225
 49
6.35
 74
    0
 49
-3.175
 74
    0
 49
6.35
 74
    0
 49
-3.175
 74
    0
 49
0
 74
    0
 49
-3.175
 74
    0
  0
LTYPE
  5
45
330
5
100
AcDbSymbolTableRecord
100
AcDbLinetypeTableRecord
  2
BORDERX2
 70
    0
  3
Border (2x) ____  ____  .  ____  ____  .  ___
 72
   65
 73
    6
 40
88.89999999999999
 49
25.4
 74
    0
 49
-12.7
 74
    0
 49
25.4
 74
    0
 49
-12.7
 74
    0
 49
0
 74
    0
 49
-12.7
 74
    0
  0
LTYPE
  5
46
330
5
100
AcDbSymbolTableRecord
100
AcDbLinetypeTableRecord
  2
CENTER
 70
    0
  3
Center ____ _ ____ _ ____ _ ____ _ ____ _ ____
 72
   65
 73
    4
 40
50.8
 49
31.75
 74
    0
 49
-6.35
 74
    0
 49
6.35
 74
    0
 49
-6.35
 74
    0
  0
LTYPE
  5
47
330
5
100
AcDbSymbolTableRecord
100
AcDbLinetypeTableRecord
  2
CENTERTINY
 70
    0
  3
Center (.15x) ___ _ ___ _ ___ _ ___ _ ___ _ ___
 72
   65
 73
    4
 40
7.619999999999999
 49
4.7625
 74
    0
 49
-0.9525
 74
    0
 49
0.9525
 74
    0
 49
-0.9525
 74
    0
  0
LTYPE
  5
48
330
5
100
AcDbSymbolTableRecord
100
AcDbLinetypeTableRecord
  2
CENTER2
 70
    0
  3
Center (.5x) ___ _ ___ _ ___ _ ___ _ ___ _ ___
 72
   65
 73
    4
 40
28.575
 49
19.05
 74
    0
 49
-3.175
 74
    0
 49
3.175
 74
    0
 49
-3.175
 74
    0
  0
LTYPE
  5
49
330
5
100
AcDbSymbolTableRecord
100
AcDbLinetypeTableRecord
  2
CENTERX2
 70
    0
  3
Center (2x) ________  __  ________  __  _____
 72
   65
 73
    4
 40
101.6
 49
63.5
 74
    0
 49
-12.7
 74
    0
 49
12.7
 74
    0
 49
-12.7
 74
    0
  0
ENDTAB
  0
TABLE
  2
LAYER
  5
2
330
0
100
AcDbSymbolTable
 70
    1
  0
LAYER
  5
10
330
2
100
AcDbSymbolTableRecord
100
AcDbLayerTableRecord
  2
0
 70
    0
 62
    7
  6
CONTINUOUS
370
    0
390
F
  0
LAYER
  5
4A
330
2
100
AcDbSymbolTableRecord
100
AcDbLayerTableRecord
  2
4-40 Tap Hole
 70
    0
 62
    2
  6
CONTINUOUS
370
    0
390
F
  0
LAYER
  5
4B
330
2
100
AcDbSymbolTableRecord
100
AcDbLayerTableRecord
  2
BNC Hole
 70
    0
 62
    3
  6
CONTINUOUS
370
    0
390
F
  0
LAYER
  5
4C
330
2
100
AcDbSymbolTableRecord
100
AcDbLayerTableRecord
  2
Boundary
 70
    0
 62
    5
  6
CONTINUOUS
370
    0
390
F
  0
LAYER
  5
4D
330
2
100
AcDbSymbolTableRecord
100
AcDbLayerTableRecord
  2
Cutout
 70
    0
 62
    6
  6
CONTINUOUS
370
    0
390
F
  0
LAYER
  5
4E
330
2
100
AcDbSymbolTableRecord
100
AcDbLayerTableRecord
  2
Reference
 70
    0
 62
  253
420
10526884
  6
CONTINUOUS
370
    0
390
F
  0
LAYER
  5
4F
330
2
100
AcDbSymbolTableRecord
100
AcDbLayerTableRecord
  2
engrave
 70
    0
 62
    7
  6
CONTINUOUS
370
    0
390
F
  0
ENDTAB
  0
TABLE
  2
STYLE
  5
3
330
0
100
AcDbSymbolTable
 70
    3
  0
STYLE
  5
50
330
2
100
AcDbSymbolTableRecord
100
AcDbTextStyleTableRecord
  2
iso
 70
    0
 40
0
 41
1
 50
0
 71
    0
 42
1
  3
iso
  4

  0
STYLE
  5
51
330
2
100
AcDbSymbolTableRecord
100
AcDbTextStyleTableRecord
  2
Standard
 70
    0
 40
0
 41
1
 50
0
 71
    0
 42
1
  3
txt
  4

  0
ENDTAB
  0
TABLE
  2
VIEW
  5
6
330
0
100
AcDbSymbolTable
 70
    0
  0
ENDTAB
  0
TABLE
  2
UCS
  5
7
330
0
100
AcDbSymbolTable
 70
    0
  0
ENDTAB
  0
TABLE
  2
APPID
  5
9
330
0
100
AcDbSymbolTable
 70
    1
  0
APPID
  5
12
330
9
100
AcDbSymbolTableRecord
100
AcDbRegAppTableRecord
  2
ACAD
 70
    0
  0
APPID
  5
52
330
9
100
AcDbSymbolTableRecord
100
AcDbRegAppTableRecord
  2
LibreCad
 70
    0
  0
ENDTAB
  0
TABLE
  2
DIMSTYLE
  5
A
330
0
100
AcDbSymbolTable
 70
    1
100
AcDbDimStyleTable
 71
    1
  0
DIMSTYLE
105
53
330
A
100
AcDbSymbolTableRecord
100
AcDbDimStyleTableRecord
  2
Standard
 70
    0
 40
1
 41
0.1
 42
0.025
 43
0.38
 44
0.05
 45
0
 46
0
 47
0
 48
0
 49
1
140
0.1
141
0.09
142
0
143
25.4
144
1
145
0
146
1
147
0.025
148
0
 71
    0
 72
    0
 73
    0
 74
    1
 75
    0
 76
    0
 77
    0
 78
    8
 79
    0
170
    0
171
    2
172
    0
173
    0
174
    0
175
    0
176
    0
177
    0
178
    0
179
    0
271
    4
272
    4
273
    2
274
    2
275
    0
276
    0
277
    2
278
   44
279
    0
280
    0
281
    0
282
    0
283
    1
284
    0
285
    0
286
    0
288
    0
289
    3
340
STANDARD
341

371
   -2
372
   -2
  0
ENDTAB
  0
TABLE
  2
BLOCK_RECORD
  5
1
330
0
100
AcDbSymbolTable
 70
    2
  0
BLOCK_RECORD
  5
1F
330
1
100
AcDbSymbolTableRecord
100
AcDbBlockTableRecord
  2
*Model_Space
 70
    0
280
    1
281
    0
  0
BLOCK_RECORD
  5
1E
330
1
100
AcDbSymbolTableRecord
100
AcDbBlockTableRecord
  2
*Paper_Space
 70
    0
280
    1
281
    0
  0
BLOCK_RECORD
  5
54
330
1
100
AcDbSymbolTableRecord
100
AcDbBlockTableRecord
  2
bottom-0
 70
    0
280
    1
281
    0
  0
BLOCK_RECORD
  5
57
330
1
100
AcDbSymbolTableRecord
100
AcDbBlockTableRecord
  2
back-0
 70
    0
280
    1
281
    0
  0
BLOCK_RECORD
  5
5A
330
1
100
AcDbSymbolTableRecord
100
AcDbBlockTableRecord
  2
front-0
 70
    0
280
    1
281
    0
  0
BLOCK_RECORD
  5
5D
330
1
100
AcDbSymbolTableRecord
100
AcDbBlockTableRecord
  2
back-1
 70
    0
280
    1
281
    0
  0
ENDTAB
  0
ENDSEC
  0
SECTION
  2
BLOCKS
  0
BLOCK
  5
20
330
1F
100
AcDbEntity
  8
0
100
AcDbBlockBegin
  2
*Model_Space
 70
    0
 10
0
 20
0
 30
0
  3
*Model_Space
  1

  0
ENDBLK
  5
21
330
1F
100
AcDbEntity
  8
0
100
AcDbBlockEnd
  0
BLOCK
  5
1C
330
1B
100
AcDbEntity
  8
0
100
AcDbBlockBegin
  2
*Paper_Space
 70
    0
 10
0
 20
0
 30
0
  3
*Paper_Space
  1

  0
ENDBLK
  5
1D
330
1F
100
AcDbEntity
  8
0
100
AcDbBlockEnd
  0
BLOCK
  5
55
330
54
100
AcDbEntity
  8
0
100
AcDbBlockBegin
  2
bottom-0
 70
    0
 10
0
 20
0
  3
bottom-0
  1

  0
LINE
  5
60
100
AcDbEntity
  8
Boundary
  6
ByLayer
 62
  256
370
   -1
100
AcDbLine
 10
11.6250393701
 20
0
 11
0
 21
0
  0
LINE
  5
61
100
AcDbEntity
  8
Boundary
  6
ByLayer
 62
  256
370
   -1
100
AcDbLine
 10
0
 20
0
 11
0
 21
16.5
  0
LINE
  5
62
100
AcDbEntity
  8
Boundary
  6
ByLayer
 62
  256
370
   -1
100
AcDbLine
 10
0
 20
16.5
 11
11.6250393701
 21
16.5
  0
LINE
  5
63
100
AcDbEntity
  8
Boundary
  6
ByLayer
 62
  256
370
   -1
100
AcDbLine
 10
11.6250393701
 20
16.5
 11
11.6250393701
 21
0
  0
ENDBLK
  5
56
330
54
100
AcDbEntity
  8
0
100
AcDbBlockEnd
  0
BLOCK
  5
58
330
57
100
AcDbEntity
  8
0
100
AcDbBlockBegin
  2
back-0
 70
    0
 10
0
 20
0
  3
back-0
  1

  0
LINE
  5
64
100
AcDbEntity
  8
Boundary
  6
ByLayer
 62
  256
370
   -1
100
AcDbLine
 10
0
 20
0
 11
0
 21
1.46
  0
CIRCLE
  5
65
100
AcDbEntity
  8
4-40 Tap Hole
  6
ByLayer
 62
  256
370
   -1
100
AcDbCircle
 10
11.2815354331
 20
0.787974787261
 40
0.061403210791
  0
CIRCLE
  5
66
100
AcDbEntity
  8
4-40 Tap Hole
  6
ByLayer
 62
  256
370
   -1
100
AcDbCircle
 10
13.1335114687
 20
0.788011811024
 40
0.0614215121771
  0
LINE
  5
67
100
AcDbEntity
  8
Cutout
  6
ByLayer
 62
  256
370
   -1
100
AcDbLine
 10
11.4004330709
 20
0.520275590551
 11
11.4004330709
 21
1.05570866142
  0
LINE
  5
68
100
AcDbEntity
  8
Cutout
  6
ByLayer
 62
  256
370
   -1
100
AcDbLine
 10
13.0146062992
 20
1.05570866142
 11
13.0146062992
 21
0.520275590551
  0
LINE
  5
69
100
AcDbEntity
  8
Cutout
  6
ByLayer
 62
  256
370
   -1
100
AcDbLine
 10
11.4004330709
 20
1.05570866142
 11
13.0146062992
 21
1.05570866142
  0
LINE
  5
6A
100
AcDbEntity
  8
Cutout
  6
ByLayer
 62
  256
370
   -1
100
AcDbLine
 10
11.4004330709
 20
0.520275590551
 11
13.0146062992
 21
0.520275590551
  0
LINE
  5
6B
100
AcDbEntity
  8
Boundary
  6
ByLayer
 62
  256
370
   -1
100
AcDbLine
 10
16.8438
 20
1.46
 11
16.8438
 21
0
  0
LINE
  5
6C
100
AcDbEntity
  8
Boundary
  6
ByLayer
 62
  256
370
   -1
100
AcDbLine
 10
16.8438
 20
0
 11
0
 21
0
  0
LINE
  5
6D
100
AcDbEntity
  8
Boundary
  6
ByLayer
 62
  256
370
   -1
100
AcDbLine
 10
0
 20
1.46
 11
16.8438
 21
1.46
  0
ENDBLK
  5
59
330
57
100
AcDbEntity
  8
0
100
AcDbBlockEnd
  0
BLOCK
  5
5B
330
5A
100
AcDbEntity
  8
0
100
AcDbBlockBegin
  2
front-0
 70
    0
 10
0
 20
0
  3
front-0
  1

  0
LINE
  5
6E
100
AcDbEntity
  8
Boundary
  6
ByLayer
 62
  256
370
   -1
100
AcDbLine
 10
0
 20
0
 11
0
 21
1.74
  0
LINE
  5
6F
100
AcDbEntity
  8
Boundary
  6
ByLayer
 62
  256
370
   -1
100
AcDbLine
 10
0
 20
1.74
 11
19
 21
1.74
  0
LINE
  5
70
100
AcDbEntity
  8
Boundary
  6
ByLayer
 62
  256
370
   -1
100
AcDbLine
 10
19
 20
1.74
 11
19
 21
0
  0
LINE
  5
71
100
AcDbEntity
  8
Boundary
  6
ByLayer
 62
  256
370
   -1
100
AcDbLine
 10
19
 20
0
 11
0
 21
0
  0
CIRCLE
  5
72
100
AcDbEntity
  8
BNC Hole
  6
ByLayer
 62
  256
370
   -1
100
AcDbCircle
 10
2.12999684441
 20
0.865108336424
 40
0.265754445816
  0
CIRCLE
  5
73
100
AcDbEntity
  8
BNC Hole
  6
ByLayer
 62
  256
370
   -1
100
AcDbCircle
 10
2.93001581713
 20
0.865101672622
 40
0.265739101021
  0
CIRCLE
  5
74
100
AcDbEntity
  8
BNC Hole
  6
ByLayer
 62
  256
370
   -1
100
AcDbCircle
 10
3.72999731499
 20
0.865115455892
 40
0.265759184349
  0
CIRCLE
  5
75
100
AcDbEntity
  8
BNC Hole
  6
ByLayer
 62
  256
370
   -1
100
AcDbCircle
 10
4.52999716936
 20
0.865107507862
 40
0.265751930664
  0
CIRCLE
  5
76
100
AcDbEntity
  8
BNC Hole
  6
ByLayer
 62
  256
370
   -1
100
AcDbCircle
 10
5.3299995811
 20
0.86512305174
 40
0.265748450441
  0
CIRCLE
  5
77
100
AcDbEntity
  8
BNC Hole
  6
ByLayer
 62
  256
370
   -1
100
AcDbCircle
 10
6.1299834009
 20
0.865100010712
 40
0.265738117019
  0
CIRCLE
  5
78
100
AcDbEntity
  8
BNC Hole
  6
ByLayer
 62
  256
370
   -1
100
AcDbCircle
 10
6.93
 20
0.865116872171
 40
0.26574345744
  0
CIRCLE
  5
79
100
AcDbEntity
  8
BNC Hole
  6
ByLayer
 62
  256
370
   -1
100
AcDbCircle
 10
7.73000080547
 20
0.8651075626219999
 40
0.265750416763
  0
CIRCLE
  5
7A
100
AcDbEntity
  8
BNC Hole
  6
ByLayer
 62
  256
370
   -1
100
AcDbCircle
 10
8.53000399498
 20
0.865109422433
 40
0.265753978674
  0
CIRCLE
  5
7B
100
AcDbEntity
  8
BNC Hole
  6
ByLayer
 62
  256
370
   -1
100
AcDbCircle
 10
9.330006877260001
 20
0.865107593338
 40
0.26575134844
  0
CIRCLE
  5
7C
100
AcDbEntity
  8
4-40 Tap Hole
  6
ByLayer
 62
  256
370
   -1
100
AcDbCircle
 10
10.6099822513
 20
1.46999544439
 40
0.0439975809454
  0
CIRCLE
  5
7D
100
AcDbEntity
  8
4-40 Tap Hole
  6
ByLayer
 62
  256
370
   -1
100
AcDbCircle
 10
9.810006158729999
 20
0.270000525208
 40
0.0440017712647
  0
CIRCLE
  5
7E
100
AcDbEntity
  8
4-40 Tap Hole
  6
ByLayer
 62
  256
370
   -1
100
AcDbCircle
 10
10.6099936165
 20
0.269989034438
 40
0.0439909117484
  0
CIRCLE
  5
7F
100
AcDbEntity
  8
4-40 Tap Hole
  6
ByLayer
 62
  256
370
   -1
100
AcDbCircle
 10
9.8099988189
 20
1.47000393701
 40
0.0440066929134
  0
LINE
  5
80
100
AcDbEntity
  8
Cutout
  6
ByLayer
 62
  256
370
   -1
100
AcDbLine
 10
9.960000000000001
 20
0.207480314961
 11
9.960000000000001
 21
1.53251968504
  0
LINE
  5
81
100
AcDbEntity
  8
Cutout
  6
ByLayer
 62
  256
370
   -1
100
AcDbLine
 10
9.960000000000001
 20
1.53251968504
 11
10.46
 21
1.53251968504
  0
LINE
  5
82
100
AcDbEntity
  8
Cutout
  6
ByLayer
 62
  256
370
   -1
100
AcDbLine
 10
10.46
 20
1.53251968504
 11
10.46
 21
0.207480314961
  0
LINE
  5
83
100
AcDbEntity
  8
Cutout
  6
ByLayer
 62
  256
370
   -1
100
AcDbLine
 10
10.46
 20
0.207480314961
 11
9.960000000000001
 21
0.207480314961
  0
LINE
  5
84
100
AcDbEntity
  8
Cutout
  6
ByLayer
 62
  256
370
   -1
100
AcDbLine
 10
10.7387795276
 20
0.561968503937
 11
10.7387795276
 21
0.851338582677
  0
LINE
  5
85
100
AcDbEntity
  8
Cutout
  6
ByLayer
 62
  256
370
   -1
100
AcDbLine
 10
10.7387795276
 20
0.851338582677
 11
10.9612204724
 21
0.851338582677
  0
LINE
  5
86
100
AcDbEntity
  8
Cutout
  6
ByLayer
 62
  256
370
   -1
100
AcDbLine
 10
10.9612204724
 20
0.851338582677
 11
10.9612204724
 21
0.561968503937
  0
LINE
  5
87
100
AcDbEntity
  8
Cutout
  6
ByLayer
 62
  256
370
   -1
100
AcDbLine
 10
10.9612204724
 20
0.561968503937
 11
10.7387795276
 21
0.561968503937
  0
LINE
  5
88
100
AcDbEntity
  8
Cutout
  6
ByLayer
 62
  256
370
   -1
100
AcDbLine
 10
11.4277559055
 20
0.561968503937
 11
11.4277559055
 21
0.851338582677
  0
LINE
  5
89
100
AcDbEntity
  8
Cutout
  6
ByLayer
 62
  256
370
   -1
100
AcDbLine
 10
11.4277559055
 20
0.851338582677
 11
11.8722440945
 21
0.851338582677
  0
LINE
  5
8A
100
AcDbEntity
  8
Cutout
  6
ByLayer
 62
  256
370
   -1
100
AcDbLine
 10
11.8722440945
 20
0.851338582677
 11
11.8722440945
 21
0.561968503937
  0
LINE
  5
8B
100
AcDbEntity
  8
Cutout
  6
ByLayer
 62
  256
370
   -1
100
AcDbLine
 10
11.8722440945
 20
0.561968503937
 11
11.4277559055
 21
0.561968503937
  0
LINE
  5
8C
100
AcDbEntity
  8
Cutout
  6
ByLayer
 62
  256
370
   -1
100
AcDbLine
 10
12.0304724409
 20
0.518661417323
 11
12.0304724409
 21
1.03834645669
  0
LINE
  5
8D
100
AcDbEntity
  8
Cutout
  6
ByLayer
 62
  256
370
   -1
100
AcDbLine
 10
12.0304724409
 20
1.03834645669
 11
12.5895275591
 21
1.03834645669
  0
LINE
  5
8E
100
AcDbEntity
  8
Cutout
  6
ByLayer
 62
  256
370
   -1
100
AcDbLine
 10
12.5895275591
 20
1.03834645669
 11
12.5895275591
 21
0.518661417323
  0
LINE
  5
8F
100
AcDbEntity
  8
Cutout
  6
ByLayer
 62
  256
370
   -1
100
AcDbLine
 10
12.5895275591
 20
0.518661417323
 11
12.0304724409
 21
0.518661417323
  0
LINE
  5
90
100
AcDbEntity
  8
Cutout
  6
ByLayer
 62
  256
370
   -1
100
AcDbLine
 10
12.9554724409
 20
0.518661417323
 11
12.9554724409
 21
1.0974015748
  0
LINE
  5
91
100
AcDbEntity
  8
Cutout
  6
ByLayer
 62
  256
370
   -1
100
AcDbLine
 10
12.9554724409
 20
1.0974015748
 11
14.2625590551
 21
1.0974015748
  0
LINE
  5
92
100
AcDbEntity
  8
Cutout
  6
ByLayer
 62
  256
370
   -1
100
AcDbLine
 10
14.2625590551
 20
1.0974015748
 11
14.2625590551
 21
0.518661417323
  0
LINE
  5
93
100
AcDbEntity
  8
Cutout
  6
ByLayer
 62
  256
370
   -1
100
AcDbLine
 10
14.2625590551
 20
0.518661417323
 11
12.9554724409
 21
0.518661417323
  0
LINE
  5
94
100
AcDbEntity
  8
Cutout
  6
ByLayer
 62
  256
370
   -1
100
AcDbLine
 10
14.775511811
 20
0.518661417323
 11
14.775511811
 21
0.727322834646
  0
LINE
  5
95
100
AcDbEntity
  8
Cutout
  6
ByLayer
 62
  256
370
   -1
100
AcDbLine
 10
14.775511811
 20
0.727322834646
 11
15.964488189
 21
0.727322834646
  0
LINE
  5
96
100
AcDbEntity
  8
Cutout
  6
ByLayer
 62
  256
370
   -1
100
AcDbLine
 10
15.964488189
 20
0.727322834646
 11
15.964488189
 21
0.518661417323
  0
LINE
  5
97
100
AcDbEntity
  8
Cutout
  6
ByLayer
 62
  256
370
   -1
100
AcDbLine
 10
15.964488189
 20
0.518661417323
 11
14.775511811
 21
0.518661417323
  0
LINE
  5
98
100
AcDbEntity
  8
Cutout
  6
ByLayer
 62
  256
370
   -1
100
AcDbLine
 10
16.1257086614
 20
0.561968503937
 11
16.1257086614
 21
0.851338582677
  0
LINE
  5
99
100
AcDbEntity
  8
Cutout
  6
ByLayer
 62
  256
370
   -1
100
AcDbLine
 10
16.1257086614
 20
0.851338582677
 11
17.0142913386
 21
0.851338582677
  0
LINE
  5
9A
100
AcDbEntity
  8
Cutout
  6
ByLayer
 62
  256
370
   -1
100
AcDbLine
 10
17.0142913386
 20
0.851338582677
 11
17.0142913386
 21
0.561968503937
  0
LINE
  5
9B
100
AcDbEntity
  8
Cutout
  6
ByLayer
 62
  256
370
   -1
100
AcDbLine
 10
17.0142913386
 20
0.561968503937
 11
16.1257086614
 21
0.561968503937
  0
LINE
  5
9C
100
AcDbEntity
  8
Cutout
  6
ByLayer
 62
  256
370
   -1
100
AcDbLine
 10
17.2688976378
 20
0.598346456693
 11
17.2688976378
 21
1.14165354331
  0
LINE
  5
9D
100
AcDbEntity
  8
Cutout
  6
ByLayer
 62
  256
370
   -1
100
AcDbLine
 10
17.2688976378
 20
1.14165354331
 11
17.6311023622
 21
1.14165354331
  0
LINE
  5
9E
100
AcDbEntity
  8
Cutout
  6
ByLayer
 62
  256
370
   -1
100
AcDbLine
 10
17.6311023622
 20
1.14165354331
 11
17.6311023622
 21
0.598346456693
  0
LINE
  5
9F
100
AcDbEntity
  8
Cutout
  6
ByLayer
 62
  256
370
   -1
100
AcDbLine
 10
17.6311023622
 20
0.598346456693
 11
17.2688976378
 21
0.598346456693
  0
LINE
  5
A0
100
AcDbEntity
  8
Reference
  6
ByLayer
 62
  256
370
   -1
100
AcDbLine
 10
0.15
 20
0.252480314961
 11
0.15094488189
 21
0.267559055118
  0
LINE
  5
A1
100
AcDbEntity
  8
Reference
  6
ByLayer
 62
  256
370
   -1
100
AcDbLine
 10
0.15094488189
 20
0.267559055118
 11
0.153779527559
 21
0.282362204724
  0
LINE
  5
A2
100
AcDbEntity
  8
Reference
  6
ByLayer
 62
  256
370
   -1
100
AcDbLine
 10
0.153779527559
 20
0.282362204724
 11
0.15842519685
 21
0.296692913386
  0
LINE
  5
A3
100
AcDbEntity
  8
Reference
  6
ByLayer
 62
  256
370
   -1
100
AcDbLine
 10
0.15842519685
 20
0.296692913386
 11
0.164842519685
 21
0.31031496063
  0
LINE
  5
A4
100
AcDbEntity
  8
Reference
  6
ByLayer
 62
  256
370
   -1
100
AcDbLine
 10
0.164842519685
 20
0.31031496063
 11
0.172913385827
 21
0.323031496063
  0
LINE
  5
A5
100
AcDbEntity
  8
Reference
  6
ByLayer
 62
  256
370
   -1
100
AcDbLine
 10
0.172913385827
 20
0.323031496063
 11
0.182519685039
 21
0.334645669291
  0
LINE
  5
A6
100
AcDbEntity
  8
Reference
  6
ByLayer
 62
  256
370
   -1
100
AcDbLine
 10
0.182519685039
 20
0.334645669291
 11
0.193503937008
 21
0.344960629921
  0
LINE
  5
A7
100
AcDbEntity
  8
Reference
  6
ByLayer
 62
  256
370
   -1
100
AcDbLine
 10
0.193503937008
 20
0.344960629921
 11
0.205708661417
 21
0.353818897638
  0
LINE
  5
A8
100
AcDbEntity
  8
Reference
  6
ByLayer
 62
  256
370
   -1
100
AcDbLine
 10
0.205708661417
 20
0.353818897638
 11
0.218897637795
 21
0.361062992126
  0
LINE
  5
A9
100
AcDbEntity
  8
Reference
  6
ByLayer
 62
  256
370
   -1
100
AcDbLine
 10
0.218897637795
 20
0.361062992126
 11
0.232913385827
 21
0.366614173228
  0
LINE
  5
AA
100
AcDbEntity
  8
Reference
  6
ByLayer
 62
  256
370
   -1
100
AcDbLine
 10
0.232913385827
 20
0.366614173228
 11
0.247519685039
 21
0.370393700787
  0
LINE
  5
AB
100
AcDbEntity
  8
Reference
  6
ByLayer
 62
  256
370
   -1
100
AcDbLine
 10
0.247519685039
 20
0.370393700787
 11
0.262480314961
 21
0.372244094488
  0
LINE
  5
AC
100
AcDbEntity
  8
Reference
  6
ByLayer
 62
  256
370
   -1
100
AcDbLine
 10
0.262480314961
 20
0.372244094488
 11
0.27
 21
0.372244094488
  0
LINE
  5
AD
100
AcDbEntity
  8
Reference
  6
ByLayer
 62
  256
370
   -1
100
AcDbLine
 10
0.27
 20
0.372244094488
 11
0.27
 21
0.372480314961
  0
LINE
  5
AE
100
AcDbEntity
  8
Reference
  6
ByLayer
 62
  256
370
   -1
100
AcDbLine
 10
0.27
 20
0.372480314961
 11
0.42
 21
0.372480314961
  0
LINE
  5
AF
100
AcDbEntity
  8
Reference
  6
ByLayer
 62
  256
370
   -1
100
AcDbLine
 10
0.42
 20
0.372480314961
 11
0.42
 21
0.372244094488
  0
LINE
  5
B0
100
AcDbEntity
  8
Reference
  6
ByLayer
 62
  256
370
   -1
100
AcDbLine
 10
0.42
 20
0.372244094488
 11
0.427519685039
 21
0.372244094488
  0
LINE
  5
B1
100
AcDbEntity
  8
Reference
  6
ByLayer
 62
  256
370
   -1
100
AcDbLine
 10
0.427519685039
 20
0.372244094488
 11
0.442480314961
 21
0.370393700787
  0
LINE
  5
B2
100
AcDbEntity
  8
Reference
  6
ByLayer
 62
  256
370
   -1
100
AcDbLine
 10
0.442480314961
 20
0.370393700787
 11
0.457086614173
 21
0.366614173228
  0
LINE
  5
B3
100
AcDbEntity
  8
Reference
  6
ByLayer
 62
  256
370
   -1
100
AcDbLine
 10
0.457086614173
 20
0.366614173228
 11
0.471102362205
 21
0.361062992126
  0
LINE
  5
B4
100
AcDbEntity
  8
Reference
  6
ByLayer
 62
  256
370
   -1
100
AcDbLine
 10
0.471102362205
 20
0.361062992126
 11
0.484291338583
 21
0.353818897638
  0
LINE
  5
B5
100
AcDbEntity
  8
Reference
  6
ByLayer
 62
  256
370
   -1
100
AcDbLine
 10
0.484291338583
 20
0.353818897638
 11
0.496496062992
 21
0.344960629921
  0
LINE
  5
B6
100
AcDbEntity
  8
Reference
  6
ByLayer
 62
  256
370
   -1
100
AcDbLine
 10
0.496496062992
 20
0.344960629921
 11
0.507480314961
 21
0.334645669291
  0
LINE
  5
B7
100
AcDbEntity
  8
Reference
  6
ByLayer
 62
  256
370
   -1
100
AcDbLine
 10
0.507480314961
 20
0.334645669291
 11
0.5170866141729999
 21
0.323031496063
  0
LINE
  5
B8
100
AcDbEntity
  8
Reference
  6
ByLayer
 62
  256
370
   -1
100
AcDbLine
 10
0.5170866141729999
 20
0.323031496063
 11
0.525157480315
 21
0.31031496063
  0
LINE
  5
B9
100
AcDbEntity
  8
Reference
  6
ByLayer
 62
  256
370
   -1
100
AcDbLine
 10
0.525157480315
 20
0.31031496063
 11
0.5315748031500001
 21
0.296692913386
  0
LINE
  5
BA
100
AcDbEntity
  8
Reference
  6
ByLayer
 62
  256
370
   -1
100
AcDbLine
 10
0.5315748031500001
 20
0.296692913386
 11
0.536220472441
 21
0.282362204724
  0
LINE
  5
BB
100
AcDbEntity
  8
Reference
  6
ByLayer
 62
  256
370
   -1
100
AcDbLine
 10
0.536220472441
 20
0.282362204724
 11
0.53905511811
 21
0.267559055118
  0
LINE
  5
BC
100
AcDbEntity
  8
Reference
  6
ByLayer
 62
  256
370
   -1
100
AcDbLine
 10
0.53905511811
 20
0.267559055118
 11
0.54
 21
0.252480314961
  0
LINE
  5
BD
100
AcDbEntity
  8
Reference
  6
ByLayer
 62
  256
370
   -1
100
AcDbLine
 10
0.54
 20
0.252480314961
 11
0.53905511811
 21
0.237440944882
  0
LINE
  5
BE
100
AcDbEntity
  8
Reference
  6
ByLayer
 62
  256
370
   -1
100
AcDbLine
 10
0.53905511811
 20
0.237440944882
 11
0.536220472441
 21
0.222637795276
  0
LINE
  5
BF
100
AcDbEntity
  8
Reference
  6
ByLayer
 62
  256
370
   -1
100
AcDbLine
 10
0.536220472441
 20
0.222637795276
 11
0.5315748031500001
 21
0.208307086614
  0
LINE
  5
C0
100
AcDbEntity
  8
Reference
  6
ByLayer
 62
  256
370
   -1
100
AcDbLine
 10
0.5315748031500001
 20
0.208307086614
 11
0.525157480315
 21
0.19468503937
  0
LINE
  5
C1
100
AcDbEntity
  8
Reference
  6
ByLayer
 62
  256
370
   -1
100
AcDbLine
 10
0.525157480315
 20
0.19468503937
 11
0.5170866141729999
 21
0.181968503937
  0
LINE
  5
C2
100
AcDbEntity
  8
Reference
  6
ByLayer
 62
  256
370
   -1
100
AcDbLine
 10
0.5170866141729999
 20
0.181968503937
 11
0.507480314961
 21
0.170354330709
  0
LINE
  5
C3
100
AcDbEntity
  8
Reference
  6
ByLayer
 62
  256
370
   -1
100
AcDbLine
 10
0.507480314961
 20
0.170354330709
 11
0.496496062992
 21
0.160039370079
  0
LINE
  5
C4
100
AcDbEntity
  8
Reference
  6
ByLayer
 62
  256
370
   -1
100
AcDbLine
 10
0.496496062992
 20
0.160039370079
 11
0.484291338583
 21
0.151181102362
  0
LINE
  5
C5
100
AcDbEntity
  8
Reference
  6
ByLayer
 62
  256
370
   -1
100
AcDbLine
 10
0.484291338583
 20
0.151181102362
 11
0.471102362205
 21
0.143937007874
  0
LINE
  5
C6
100
AcDbEntity
  8
Reference
  6
ByLayer
 62
  256
370
   -1
100
AcDbLine
 10
0.471102362205
 20
0.143937007874
 11
0.457086614173
 21
0.138385826772
  0
LINE
  5
C7
100
AcDbEntity
  8
Reference
  6
ByLayer
 62
  256
370
   -1
100
AcDbLine
 10
0.457086614173
 20
0.138385826772
 11
0.442480314961
 21
0.134606299213
  0
LINE
  5
C8
100
AcDbEntity
  8
Reference
  6
ByLayer
 62
  256
370
   -1
100
AcDbLine
 10
0.442480314961
 20
0.134606299213
 11
0.427519685039
 21
0.132755905512
  0
LINE
  5
C9
100
AcDbEntity
  8
Reference
  6
ByLayer
 62
  256
370
   -1
100
AcDbLine
 10
0.427519685039
 20
0.132755905512
 11
0.42
 21
0.132755905512
  0
LINE
  5
CA
100
AcDbEntity
  8
Reference
  6
ByLayer
 62
  256
370
   -1
100
AcDbLine
 10
0.42
 20
0.132755905512
 11
0.42
 21
0.132519685039
  0
LINE
  5
CB
100
AcDbEntity
  8
Reference
  6
ByLayer
 62
  256
370
   -1
100
AcDbLine
 10
0.42
 20
0.132519685039
 11
0.27
 21
0.132519685039
  0
LINE
  5
CC
100
AcDbEntity
  8
Reference
  6
ByLayer
 62
  256
370
   -1
100
AcDbLine
 10
0.27
 20
0.132519685039
 11
0.27
 21
0.132755905512
  0
LINE
  5
CD
100
AcDbEntity
  8
Reference
  6
ByLayer
 62
  256
370
   -1
100
AcDbLine
 10
0.27
 20
0.132755905512
 11
0.262480314961
 21
0.132755905512
  0
LINE
  5
CE
100
AcDbEntity
  8
Reference
  6
ByLayer
 62
  256
370
   -1
100
AcDbLine
 10
0.262480314961
 20
0.132755905512
 11
0.247519685039
 21
0.134606299213
  0
LINE
  5
CF
100
AcDbEntity
  8
Reference
  6
ByLayer
 62
  256
370
   -1
100
AcDbLine
 10
0.247519685039
 20
0.134606299213
 11
0.232913385827
 21
0.138385826772
  0
LINE
  5
D0
100
AcDbEntity
  8
Reference
  6
ByLayer
 62
  256
370
   -1
100
AcDbLine
 10
0.232913385827
 20
0.138385826772
 11
0.218897637795
 21
0.143937007874
  0
LINE
  5
D1
100
AcDbEntity
  8
Reference
  6
ByLayer
 62
  256
370
   -1
100
AcDbLine
 10
0.218897637795
 20
0.143937007874
 11
0.205708661417
 21
0.151181102362
  0
LINE
  5
D2
100
AcDbEntity
  8
Reference
  6
ByLayer
 62
  256
370
   -1
100
AcDbLine
 10
0.205708661417
 20
0.151181102362
 11
0.193503937008
 21
0.160039370079
  0
LINE
  5
D3
100
AcDbEntity
  8
Reference
  6
ByLayer
 62
  256
370
   -1
100
AcDbLine
 10
0.193503937008
 20
0.160039370079
 11
0.182519685039
 21
0.170354330709
  0
LINE
  5
D4
100
AcDbEntity
  8
Reference
  6
ByLayer
 62
  256
370
   -1
100
AcDbLine
 10
0.182519685039
 20
0.170354330709
 11
0.172913385827
 21
0.181968503937
  0
LINE
  5
D5
100
AcDbEntity
  8
Reference
  6
ByLayer
 62
  256
370
   -1
100
AcDbLine
 10
0.172913385827
 20
0.181968503937
 11
0.164842519685
 21
0.19468503937
  0
LINE
  5
D6
100
AcDbEntity
  8
Reference
  6
ByLayer
 62
  256
370
   -1
100
AcDbLine
 10
0.164842519685
 20
0.19468503937
 11
0.15842519685
 21
0.208307086614
  0
LINE
  5
D7
100
AcDbEntity
  8
Reference
  6
ByLayer
 62
  256
370
   -1
100
AcDbLine
 10
0.15842519685
 20
0.208307086614
 11
0.153779527559
 21
0.222637795276
  0
LINE
  5
D8
100
AcDbEntity
  8
Reference
  6
ByLayer
 62
  256
370
   -1
100
AcDbLine
 10
0.153779527559
 20
0.222637795276
 11
0.15094488189
 21
0.237440944882
  0
LINE
  5
D9
100
AcDbEntity
  8
Reference
  6
ByLayer
 62
  256
370
   -1
100
AcDbLine
 10
0.15094488189
 20
0.237440944882
 11
0.15
 21
0.252480314961
  0
LINE
  5
DA
100
AcDbEntity
  8
Reference
  6
ByLayer
 62
  256
370
   -1
100
AcDbLine
 10
0.15
 20
1.48751968504
 11
0.15094488189
 21
1.50255905512
  0
LINE
  5
DB
100
AcDbEntity
  8
Reference
  6
ByLayer
 62
  256
370
   -1
100
AcDbLine
 10
0.15094488189
 20
1.50255905512
 11
0.153779527559
 21
1.51736220472
  0
LINE
  5
DC
100
AcDbEntity
  8
Reference
  6
ByLayer
 62
  256
370
   -1
100
AcDbLine
 10
0.153779527559
 20
1.51736220472
 11
0.15842519685
 21
1.53169291339
  0
LINE
  5
DD
100
AcDbEntity
  8
Reference
  6
ByLayer
 62
  256
370
   -1
100
AcDbLine
 10
0.15842519685
 20
1.53169291339
 11
0.164842519685
 21
1.54531496063
  0
LINE
  5
DE
100
AcDbEntity
  8
Reference
  6
ByLayer
 62
  256
370
   -1
100
AcDbLine
 10
0.164842519685
 20
1.54531496063
 11
0.172913385827
 21
1.55803149606
  0
LINE
  5
DF
100
AcDbEntity
  8
Reference
  6
ByLayer
 62
  256
370
   -1
100
AcDbLine
 10
0.172913385827
 20
1.55803149606
 11
0.182519685039
 21
1.56964566929
  0
LINE
  5
E0
100
AcDbEntity
  8
Reference
  6
ByLayer
 62
  256
370
   -1
100
AcDbLine
 10
0.182519685039
 20
1.56964566929
 11
0.193503937008
 21
1.57996062992
  0
LINE
  5
E1
100
AcDbEntity
  8
Reference
  6
ByLayer
 62
  256
370
   -1
100
AcDbLine
 10
0.193503937008
 20
1.57996062992
 11
0.205708661417
 21
1.58881889764
  0
LINE
  5
E2
100
AcDbEntity
  8
Reference
  6
ByLayer
 62
  256
370
   -1
100
AcDbLine
 10
0.205708661417
 20
1.58881889764
 11
0.218897637795
 21
1.59606299213
  0
LINE
  5
E3
100
AcDbEntity
  8
Reference
  6
ByLayer
 62
  256
370
   -1
100
AcDbLine
 10
0.218897637795
 20
1.59606299213
 11
0.232913385827
 21
1.60161417323
  0
LINE
  5
E4
100
AcDbEntity
  8
Reference
  6
ByLayer
 62
  256
370
   -1
100
AcDbLine
 10
0.232913385827
 20
1.60161417323
 11
0.247519685039
 21
1.60539370079
  0
LINE
  5
E5
100
AcDbEntity
  8
Reference
  6
ByLayer
 62
  256
370
   -1
100
AcDbLine
 10
0.247519685039
 20
1.60539370079
 11
0.262480314961
 21
1.60724409449
  0
LINE
  5
E6
100
AcDbEntity
  8
Reference
  6
ByLayer
 62
  256
370
   -1
100
AcDbLine
 10
0.262480314961
 20
1.60724409449
 11
0.27
 21
1.60724409449
  0
LINE
  5
E7
100
AcDbEntity
  8
Reference
  6
ByLayer
 62
  256
370
   -1
100
AcDbLine
 10
0.27
 20
1.60724409449
 11
0.27
 21
1.60748031496
  0
LINE
  5
E8
100
AcDbEntity
  8
Reference
  6
ByLayer
 62
  256
370
   -1
100
AcDbLine
 10
0.42
 20
1.60748031496
 11
0.42
 21
1.60724409449
  0
LINE
  5
E9
100
AcDbEntity
  8
Reference
  6
ByLayer
 62
  256
370
   -1
100
AcDbLine
 10
0.42
 20
1.60724409449
 11
0.427519685039
 21
1.60724409449
  0
LINE
  5
EA
100
AcDbEntity
  8
Reference
  6
ByLayer
 62
  256
370
   -1
100
AcDbLine
 10
0.427519685039
 20
1.60724409449
 11
0.442480314961
 21
1.60539370079
  0
LINE
  5
EB
100
AcDbEntity
  8
Reference
  6
ByLayer
 62
  256
370
   -1
100
AcDbLine
 10
0.442480314961
 20
1.60539370079
 11
0.457086614173
 21
1.60161417323
  0
LINE
  5
EC
100
AcDbEntity
  8
Reference
  6
ByLayer
 62
  256
370
   -1
100
AcDbLine
 10
0.457086614173
 20
1.60161417323
 11
0.471102362205
 21
1.59606299213
  0
LINE
  5
ED
100
AcDbEntity
  8
Reference
  6
ByLayer
 62
  256
370
   -1
100
AcDbLine
 10
0.471102362205
 20
1.59606299213
 11
0.484291338583
 21
1.58881889764
  0
LINE
  5
EE
100
AcDbEntity
  8
Reference
  6
ByLayer
 62
  256
370
   -1
100
AcDbLine
 10
0.484291338583
 20
1.58881889764
 11
0.496496062992
 21
1.57996062992
  0
LINE
  5
EF
100
AcDbEntity
  8
Reference
  6
ByLayer
 62
  256
370
   -1
100
AcDbLine
 10
0.496496062992
 20
1.57996062992
 11
0.507480314961
 21
1.56964566929
  0
LINE
  5
F0
100
AcDbEntity
  8
Reference
  6
ByLayer
 62
  256
370
   -1
100
AcDbLine
 10
0.507480314961
 20
1.56964566929
 11
0.5170866141729999
 21
1.55803149606
  0
LINE
  5
F1
100
AcDbEntity
  8
Reference
  6
ByLayer
 62
  256
370
   -1
100
AcDbLine
 10
0.5170866141729999
 20
1.55803149606
 11
0.525157480315
 21
1.54531496063
  0
LINE
  5
F2
100
AcDbEntity
  8
Reference
  6
ByLayer
 62
  256
370
   -1
100
AcDbLine
 10
0.525157480315
 20
1.54531496063
 11
0.5315748031500001
 21
1.53169291339
  0
LINE
  5
F3
100
AcDbEntity
  8
Reference
  6
ByLayer
 62
  256
370
   -1
100
AcDbLine
 10
0.5315748031500001
 20
1.53169291339
 11
0.536220472441
 21
1.51736220472
  0
LINE
  5
F4
100
AcDbEntity
  8
Reference
  6
ByLayer
 62
  256
370
   -1
100
AcDbLine
 10
0.536220472441
 20
1.51736220472
 11
0.53905511811
 21
1.50255905512
  0
LINE
  5
F5
100
AcDbEntity
  8
Reference
  6
ByLayer
 62
  256
370
   -1
100
AcDbLine
 10
0.53905511811
 20
1.50255905512
 11
0.54
 21
1.48751968504
  0
LINE
  5
F6
100
AcDbEntity
  8
Reference
  6
ByLayer
 62
  256
370
   -1
100
AcDbLine
 10
0.54
 20
1.48751968504
 11
0.53905511811
 21
1.47244094488
  0
LINE
  5
F7
100
AcDbEntity
  8
Reference
  6
ByLayer
 62
  256
370
   -1
100
AcDbLine
 10
0.53905511811
 20
1.47244094488
 11
0.536220472441
 21
1.45763779528
  0
LINE
  5
F8
100
AcDbEntity
  8
Reference
  6
ByLayer
 62
  256
370
   -1
100
AcDbLine
 10
0.536220472441
 20
1.45763779528
 11
0.5315748031500001
 21
1.44330708661
  0
LINE
  5
F9
100
AcDbEntity
  8
Reference
  6
ByLayer
 62
  256
370
   -1
100
AcDbLine
 10
0.5315748031500001
 20
1.44330708661
 11
0.525157480315
 21
1.42968503937
  0
LINE
  5
FA
100
AcDbEntity
  8
Reference
  6
ByLayer
 62
  256
370
   -1
100
AcDbLine
 10
0.525157480315
 20
1.42968503937
 11
0.5170866141729999
 21
1.41696850394
  0
LINE
  5
FB
100
AcDbEntity
  8
Reference
  6
ByLayer
 62
  256
370
   -1
100
AcDbLine
 10
0.5170866141729999
 20
1.41696850394
 11
0.507480314961
 21
1.40535433071
  0
LINE
  5
FC
100
AcDbEntity
  8
Reference
  6
ByLayer
 62
  256
370
   -1
100
AcDbLine
 10
0.507480314961
 20
1.40535433071
 11
0.496496062992
 21
1.39503937008
  0
LINE
  5
FD
100
AcDbEntity
  8
Reference
  6
ByLayer
 62
  256
370
   -1
100
AcDbLine
 10
0.496496062992
 20
1.39503937008
 11
0.484291338583
 21
1.38618110236
  0
LINE
  5
FE
100
AcDbEntity
  8
Reference
  6
ByLayer
 62
  256
370
   -1
100
AcDbLine
 10
0.484291338583
 20
1.38618110236
 11
0.471102362205
 21
1.37893700787
  0
LINE
  5
FF
100
AcDbEntity
  8
Reference
  6
ByLayer
 62
  256
370
   -1
100
AcDbLine
 10
0.471102362205
 20
1.37893700787
 11
0.457086614173
 21
1.37338582677
  0
LINE
  5
100
100
AcDbEntity
  8
Reference
  6
ByLayer
 62
  256
370
   -1
100
AcDbLine
 10
0.457086614173
 20
1.37338582677
 11
0.442480314961
 21
1.36960629921
  0
LINE
  5
101
100
AcDbEntity
  8
Reference
  6
ByLayer
 62
  256
370
   -1
100
AcDbLine
 10
0.442480314961
 20
1.36960629921
 11
0.427519685039
 21
1.36775590551
  0
LINE
  5
102
100
AcDbEntity
  8
Reference
  6
ByLayer
 62
  256
370
   -1
100
AcDbLine
 10
0.427519685039
 20
1.36775590551
 11
0.42
 21
1.36775590551
  0
LINE
  5
103
100
AcDbEntity
  8
Reference
  6
ByLayer
 62
  256
370
   -1
100
AcDbLine
 10
0.42
 20
1.36775590551
 11
0.42
 21
1.36751968504
  0
LINE
  5
104
100
AcDbEntity
  8
Reference
  6
ByLayer
 62
  256
370
   -1
100
AcDbLine
 10
0.42
 20
1.36751968504
 11
0.27
 21
1.36751968504
  0
LINE
  5
105
100
AcDbEntity
  8
Reference
  6
ByLayer
 62
  256
370
   -1
100
AcDbLine
 10
0.27
 20
1.36751968504
 11
0.27
 21
1.36775590551
  0
LINE
  5
106
100
AcDbEntity
  8
Reference
  6
ByLayer
 62
  256
370
   -1
100
AcDbLine
 10
0.27
 20
1.36775590551
 11
0.262480314961
 21
1.36775590551
  0
LINE
  5
107
100
AcDbEntity
  8
Reference
  6
ByLayer
 62
  256
370
   -1
100
AcDbLine
 10
0.262480314961
 20
1.36775590551
 11
0.247519685039
 21
1.36960629921
  0
LINE
  5
108
100
AcDbEntity
  8
Reference
  6
ByLayer
 62
  256
370
   -1
100
AcDbLine
 10
0.247519685039
 20
1.36960629921
 11
0.232913385827
 21
1.37338582677
  0
LINE
  5
109
100
AcDbEntity
  8
Reference
  6
ByLayer
 62
  256
370
   -1
100
AcDbLine
 10
0.232913385827
 20
1.37338582677
 11
0.218897637795
 21
1.37893700787
  0
LINE
  5
10A
100
AcDbEntity
  8
Reference
  6
ByLayer
 62
  256
370
   -1
100
AcDbLine
 10
0.218897637795
 20
1.37893700787
 11
0.205708661417
 21
1.38618110236
  0
LINE
  5
10B
100
AcDbEntity
  8
Reference
  6
ByLayer
 62
  256
370
   -1
100
AcDbLine
 10
0.205708661417
 20
1.38618110236
 11
0.193503937008
 21
1.39503937008
  0
LINE
  5
10C
100
AcDbEntity
  8
Reference
  6
ByLayer
 62
  256
370
   -1
100
AcDbLine
 10
0.193503937008
 20
1.39503937008
 11
0.182519685039
 21
1.40535433071
  0
LINE
  5
10D
100
AcDbEntity
  8
Reference
  6
ByLayer
 62
  256
370
   -1
100
AcDbLine
 10
0.182519685039
 20
1.40535433071
 11
0.172913385827
 21
1.41696850394
  0
LINE
  5
10E
100
AcDbEntity
  8
Reference
  6
ByLayer
 62
  256
370
   -1
100
AcDbLine
 10
0.172913385827
 20
1.41696850394
 11
0.164842519685
 21
1.42968503937
  0
LINE
  5
10F
100
AcDbEntity
  8
Reference
  6
ByLayer
 62
  256
370
   -1
100
AcDbLine
 10
0.164842519685
 20
1.42968503937
 11
0.15842519685
 21
1.44330708661
  0
LINE
  5
110
100
AcDbEntity
  8
Reference
  6
ByLayer
 62
  256
370
   -1
100
AcDbLine
 10
0.15842519685
 20
1.44330708661
 11
0.153779527559
 21
1.45763779528
  0
LINE
  5
111
100
AcDbEntity
  8
Reference
  6
ByLayer
 62
  256
370
   -1
100
AcDbLine
 10
0.153779527559
 20
1.45763779528
 11
0.15094488189
 21
1.47244094488
  0
LINE
  5
112
100
AcDbEntity
  8
Reference
  6
ByLayer
 62
  256
370
   -1
100
AcDbLine
 10
0.15094488189
 20
1.47244094488
 11
0.15
 21
1.48751968504
  0
LINE
  5
113
100
AcDbEntity
  8
Reference
  6
ByLayer
 62
  256
370
   -1
100
AcDbLine
 10
18.46
 20
0.252480314961
 11
18.4609448819
 21
0.267559055118
  0
LINE
  5
114
100
AcDbEntity
  8
Reference
  6
ByLayer
 62
  256
370
   -1
100
AcDbLine
 10
18.4609448819
 20
0.267559055118
 11
18.4637795276
 21
0.282362204724
  0
LINE
  5
115
100
AcDbEntity
  8
Reference
  6
ByLayer
 62
  256
370
   -1
100
AcDbLine
 10
18.4637795276
 20
0.282362204724
 11
18.4684251969
 21
0.296692913386
  0
LINE
  5
116
100
AcDbEntity
  8
Reference
  6
ByLayer
 62
  256
370
   -1
100
AcDbLine
 10
18.4684251969
 20
0.296692913386
 11
18.4748425197
 21
0.31031496063
  0
LINE
  5
117
100
AcDbEntity
  8
Reference
  6
ByLayer
 62
  256
370
   -1
100
AcDbLine
 10
18.4748425197
 20
0.31031496063
 11
18.4829133858
 21
0.323031496063
  0
LINE
  5
118
100
AcDbEntity
  8
Reference
  6
ByLayer
 62
  256
370
   -1
100
AcDbLine
 10
18.4829133858
 20
0.323031496063
 11
18.492519685
 21
0.334645669291
  0
LINE
  5
119
100
AcDbEntity
  8
Reference
  6
ByLayer
 62
  256
370
   -1
100
AcDbLine
 10
18.492519685
 20
0.334645669291
 11
18.503503937
 21
0.344960629921
  0
LINE
  5
11A
100
AcDbEntity
  8
Reference
  6
ByLayer
 62
  256
370
   -1
100
AcDbLine
 10
18.503503937
 20
0.344960629921
 11
18.5157086614
 21
0.353818897638
  0
LINE
  5
11B
100
AcDbEntity
  8
Reference
  6
ByLayer
 62
  256
370
   -1
100
AcDbLine
 10
18.5157086614
 20
0.353818897638
 11
18.5288976378
 21
0.361062992126
  0
LINE
  5
11C
100
AcDbEntity
  8
Reference
  6
ByLayer
 62
  256
370
   -1
100
AcDbLine
 10
18.5288976378
 20
0.361062992126
 11
18.5429133858
 21
0.366614173228
  0
LINE
  5
11D
100
AcDbEntity
  8
Reference
  6
ByLayer
 62
  256
370
   -1
100
AcDbLine
 10
18.5429133858
 20
0.366614173228
 11
18.557519685
 21
0.370393700787
  0
LINE
  5
11E
100
AcDbEntity
  8
Reference
  6
ByLayer
 62
  256
370
   -1
100
AcDbLine
 10
18.557519685
 20
0.370393700787
 11
18.572480315
 21
0.372244094488
  0
LINE
  5
11F
100
AcDbEntity
  8
Reference
  6
ByLayer
 62
  256
370
   -1
100
AcDbLine
 10
18.572480315
 20
0.372244094488
 11
18.58
 21
0.372244094488
  0
LINE
  5
120
100
AcDbEntity
  8
Reference
  6
ByLayer
 62
  256
370
   -1
100
AcDbLine
 10
18.58
 20
0.372244094488
 11
18.58
 21
0.372480314961
  0
LINE
  5
121
100
AcDbEntity
  8
Reference
  6
ByLayer
 62
  256
370
   -1
100
AcDbLine
 10
18.58
 20
0.372480314961
 11
18.73
 21
0.372480314961
  0
LINE
  5
122
100
AcDbEntity
  8
Reference
  6
ByLayer
 62
  256
370
   -1
100
AcDbLine
 10
18.73
 20
0.372480314961
 11
18.73
 21
0.372244094488
  0
LINE
  5
123
100
AcDbEntity
  8
Reference
  6
ByLayer
 62
  256
370
   -1
100
AcDbLine
 10
18.73
 20
0.372244094488
 11
18.737519685
 21
0.372244094488
  0
LINE
  5
124
100
AcDbEntity
  8
Reference
  6
ByLayer
 62
  256
370
   -1
100
AcDbLine
 10
18.737519685
 20
0.372244094488
 11
18.752480315
 21
0.370393700787
  0
LINE
  5
125
100
AcDbEntity
  8
Reference
  6
ByLayer
 62
  256
370
   -1
100
AcDbLine
 10
18.752480315
 20
0.370393700787
 11
18.7670866142
 21
0.366614173228
  0
LINE
  5
126
100
AcDbEntity
  8
Reference
  6
ByLayer
 62
  256
370
   -1
100
AcDbLine
 10
18.7670866142
 20
0.366614173228
 11
18.7811023622
 21
0.361062992126
  0
LINE
  5
127
100
AcDbEntity
  8
Reference
  6
ByLayer
 62
  256
370
   -1
100
AcDbLine
 10
18.7811023622
 20
0.361062992126
 11
18.7942913386
 21
0.353818897638
  0
LINE
  5
128
100
AcDbEntity
  8
Reference
  6
ByLayer
 62
  256
370
   -1
100
AcDbLine
 10
18.7942913386
 20
0.353818897638
 11
18.806496063
 21
0.344960629921
  0
LINE
  5
129
100
AcDbEntity
  8
Reference
  6
ByLayer
 62
  256
370
   -1
100
AcDbLine
 10
18.806496063
 20
0.344960629921
 11
18.817480315
 21
0.334645669291
  0
LINE
  5
12A
100
AcDbEntity
  8
Reference
  6
ByLayer
 62
  256
370
   -1
100
AcDbLine
 10
18.817480315
 20
0.334645669291
 11
18.8270866142
 21
0.323031496063
  0
LINE
  5
12B
100
AcDbEntity
  8
Reference
  6
ByLayer
 62
  256
370
   -1
100
AcDbLine
 10
18.8270866142
 20
0.323031496063
 11
18.8351574803
 21
0.31031496063
  0
LINE
  5
12C
100
AcDbEntity
  8
Reference
  6
ByLayer
 62
  256
370
   -1
100
AcDbLine
 10
18.8351574803
 20
0.31031496063
 11
18.8415748031
 21
0.296692913386
  0
LINE
  5
12D
100
AcDbEntity
  8
Reference
  6
ByLayer
 62
  256
370
   -1
100
AcDbLine
 10
18.8415748031
 20
0.296692913386
 11
18.8462204724
 21
0.282362204724
  0
LINE
  5
12E
100
AcDbEntity
  8
Reference
  6
ByLayer
 62
  256
370
   -1
100
AcDbLine
 10
18.8462204724
 20
0.282362204724
 11
18.8490551181
 21
0.267559055118
  0
LINE
  5
12F
100
AcDbEntity
  8
Reference
  6
ByLayer
 62
  256
370
   -1
100
AcDbLine
 10
18.8490551181
 20
0.267559055118
 11
18.85
 21
0.252480314961
  0
LINE
  5
130
100
AcDbEntity
  8
Reference
  6
ByLayer
 62
  256
370
   -1
100
AcDbLine
 10
18.85
 20
0.252480314961
 11
18.8490551181
 21
0.237440944882
  0
LINE
  5
131
100
AcDbEntity
  8
Reference
  6
ByLayer
 62
  256
370
   -1
100
AcDbLine
 10
18.8490551181
 20
0.237440944882
 11
18.8462204724
 21
0.222637795276
  0
LINE
  5
132
100
AcDbEntity
  8
Reference
  6
ByLayer
 62
  256
370
   -1
100
AcDbLine
 10
18.8462204724
 20
0.222637795276
 11
18.8415748031
 21
0.208307086614
  0
LINE
  5
133
100
AcDbEntity
  8
Reference
  6
ByLayer
 62
  256
370
   -1
100
AcDbLine
 10
18.8415748031
 20
0.208307086614
 11
18.8351574803
 21
0.19468503937
  0
LINE
  5
134
100
AcDbEntity
  8
Reference
  6
ByLayer
 62
  256
370
   -1
100
AcDbLine
 10
18.8351574803
 20
0.19468503937
 11
18.8270866142
 21
0.181968503937
  0
LINE
  5
135
100
AcDbEntity
  8
Reference
  6
ByLayer
 62
  256
370
   -1
100
AcDbLine
 10
18.8270866142
 20
0.181968503937
 11
18.817480315
 21
0.170354330709
  0
LINE
  5
136
100
AcDbEntity
  8
Reference
  6
ByLayer
 62
  256
370
   -1
100
AcDbLine
 10
18.817480315
 20
0.170354330709
 11
18.806496063
 21
0.160039370079
  0
LINE
  5
137
100
AcDbEntity
  8
Reference
  6
ByLayer
 62
  256
370
   -1
100
AcDbLine
 10
18.806496063
 20
0.160039370079
 11
18.7942913386
 21
0.151181102362
  0
LINE
  5
138
100
AcDbEntity
  8
Reference
  6
ByLayer
 62
  256
370
   -1
100
AcDbLine
 10
18.7942913386
 20
0.151181102362
 11
18.7811023622
 21
0.143937007874
  0
LINE
  5
139
100
AcDbEntity
  8
Reference
  6
ByLayer
 62
  256
370
   -1
100
AcDbLine
 10
18.7811023622
 20
0.143937007874
 11
18.7670866142
 21
0.138385826772
  0
LINE
  5
13A
100
AcDbEntity
  8
Reference
  6
ByLayer
 62
  256
370
   -1
100
AcDbLine
 10
18.7670866142
 20
0.138385826772
 11
18.752480315
 21
0.134606299213
  0
LINE
  5
13B
100
AcDbEntity
  8
Reference
  6
ByLayer
 62
  256
370
   -1
100
AcDbLine
 10
18.752480315
 20
0.134606299213
 11
18.737519685
 21
0.132755905512
  0
LINE
  5
13C
100
AcDbEntity
  8
Reference
  6
ByLayer
 62
  256
370
   -1
100
AcDbLine
 10
18.737519685
 20
0.132755905512
 11
18.73
 21
0.132755905512
  0
LINE
  5
13D
100
AcDbEntity
  8
Reference
  6
ByLayer
 62
  256
370
   -1
100
AcDbLine
 10
18.73
 20
0.132755905512
 11
18.73
 21
0.132519685039
  0
LINE
  5
13E
100
AcDbEntity
  8
Reference
  6
ByLayer
 62
  256
370
   -1
100
AcDbLine
 10
18.73
 20
0.132519685039
 11
18.58
 21
0.132519685039
  0
LINE
  5
13F
100
AcDbEntity
  8
Reference
  6
ByLayer
 62
  256
370
   -1
100
AcDbLine
 10
18.58
 20
0.132519685039
 11
18.58
 21
0.132755905512
  0
LINE
  5
140
100
AcDbEntity
  8
Reference
  6
ByLayer
 62
  256
370
   -1
100
AcDbLine
 10
18.58
 20
0.132755905512
 11
18.572480315
 21
0.132755905512
  0
LINE
  5
141
100
AcDbEntity
  8
Reference
  6
ByLayer
 62
  256
370
   -1
100
AcDbLine
 10
18.572480315
 20
0.132755905512
 11
18.557519685
 21
0.134606299213
  0
LINE
  5
142
100
AcDbEntity
  8
Reference
  6
ByLayer
 62
  256
370
   -1
100
AcDbLine
 10
18.557519685
 20
0.134606299213
 11
18.5429133858
 21
0.138385826772
  0
LINE
  5
143
100
AcDbEntity
  8
Reference
  6
ByLayer
 62
  256
370
   -1
100
AcDbLine
 10
18.5429133858
 20
0.138385826772
 11
18.5288976378
 21
0.143937007874
  0
LINE
  5
144
100
AcDbEntity
  8
Reference
  6
ByLayer
 62
  256
370
   -1
100
AcDbLine
 10
18.5288976378
 20
0.143937007874
 11
18.5157086614
 21
0.151181102362
  0
LINE
  5
145
100
AcDbEntity
  8
Reference
  6
ByLayer
 62
  256
370
   -1
100
AcDbLine
 10
18.5157086614
 20
0.151181102362
 11
18.503503937
 21
0.160039370079
  0
LINE
  5
146
100
AcDbEntity
  8
Reference
  6
ByLayer
 62
  256
370
   -1
100
AcDbLine
 10
18.503503937
 20
0.160039370079
 11
18.492519685
 21
0.170354330709
  0
LINE
  5
147
100
AcDbEntity
  8
Reference
  6
ByLayer
 62
  256
370
   -1
100
AcDbLine
 10
18.492519685
 20
0.170354330709
 11
18.4829133858
 21
0.181968503937
  0
LINE
  5
148
100
AcDbEntity
  8
Reference
  6
ByLayer
 62
  256
370
   -1
100
AcDbLine
 10
18.4829133858
 20
0.181968503937
 11
18.4748425197
 21
0.19468503937
  0
LINE
  5
149
100
AcDbEntity
  8
Reference
  6
ByLayer
 62
  256
370
   -1
100
AcDbLine
 10
18.4748425197
 20
0.19468503937
 11
18.4684251969
 21
0.208307086614
  0
LINE
  5
14A
100
AcDbEntity
  8
Reference
  6
ByLayer
 62
  256
370
   -1
100
AcDbLine
 10
18.4684251969
 20
0.208307086614
 11
18.4637795276
 21
0.222637795276
  0
LINE
  5
14B
100
AcDbEntity
  8
Reference
  6
ByLayer
 62
  256
370
   -1
100
AcDbLine
 10
18.4637795276
 20
0.222637795276
 11
18.4609448819
 21
0.237440944882
  0
LINE
  5
14C
100
AcDbEntity
  8
Reference
  6
ByLayer
 62
  256
370
   -1
100
AcDbLine
 10
18.4609448819
 20
0.237440944882
 11
18.46
 21
0.252480314961
  0
LINE
  5
14D
100
AcDbEntity
  8
Reference
  6
ByLayer
 62
  256
370
   -1
100
AcDbLine
 10
18.46
 20
1.48751968504
 11
18.4609448819
 21
1.50255905512
  0
LINE
  5
14E
100
AcDbEntity
  8
Reference
  6
ByLayer
 62
  256
370
   -1
100
AcDbLine
 10
18.4609448819
 20
1.50255905512
 11
18.4637795276
 21
1.51736220472
  0
LINE
  5
14F
100
AcDbEntity
  8
Reference
  6
ByLayer
 62
  256
370
   -1
100
AcDbLine
 10
18.4637795276
 20
1.51736220472
 11
18.4684251969
 21
1.53169291339
  0
LINE
  5
150
100
AcDbEntity
  8
Reference
  6
ByLayer
 62
  256
370
   -1
100
AcDbLine
 10
18.4684251969
 20
1.53169291339
 11
18.4748425197
 21
1.54531496063
  0
LINE
  5
151
100
AcDbEntity
  8
Reference
  6
ByLayer
 62
  256
370
   -1
100
AcDbLine
 10
18.4748425197
 20
1.54531496063
 11
18.4829133858
 21
1.55803149606
  0
LINE
  5
152
100
AcDbEntity
  8
Reference
  6
ByLayer
 62
  256
370
   -1
100
AcDbLine
 10
18.4829133858
 20
1.55803149606
 11
18.492519685
 21
1.56964566929
  0
LINE
  5
153
100
AcDbEntity
  8
Reference
  6
ByLayer
 62
  256
370
   -1
100
AcDbLine
 10
18.492519685
 20
1.56964566929
 11
18.503503937
 21
1.57996062992
  0
LINE
  5
154
100
AcDbEntity
  8
Reference
  6
ByLayer
 62
  256
370
   -1
100
AcDbLine
 10
18.503503937
 20
1.57996062992
 11
18.5157086614
 21
1.58881889764
  0
LINE
  5
155
100
AcDbEntity
  8
Reference
  6
ByLayer
 62
  256
370
   -1
100
AcDbLine
 10
18.5157086614
 20
1.58881889764
 11
18.5288976378
 21
1.59606299213
  0
LINE
  5
156
100
AcDbEntity
  8
Reference
  6
ByLayer
 62
  256
370
   -1
100
AcDbLine
 10
18.5288976378
 20
1.59606299213
 11
18.5429133858
 21
1.60161417323
  0
LINE
  5
157
100
AcDbEntity
  8
Reference
  6
ByLayer
 62
  256
370
   -1
100
AcDbLine
 10
18.5429133858
 20
1.60161417323
 11
18.557519685
 21
1.60539370079
  0
LINE
  5
158
100
AcDbEntity
  8
Reference
  6
ByLayer
 62
  256
370
   -1
100
AcDbLine
 10
18.557519685
 20
1.60539370079
 11
18.572480315
 21
1.60724409449
  0
LINE
  5
159
100
AcDbEntity
  8
Reference
  6
ByLayer
 62
  256
370
   -1
100
AcDbLine
 10
18.572480315
 20
1.60724409449
 11
18.58
 21
1.60724409449
  0
LINE
  5
15A
100
AcDbEntity
  8
Reference
  6
ByLayer
 62
  256
370
   -1
100
AcDbLine
 10
18.58
 20
1.60724409449
 11
18.58
 21
1.60748031496
  0
LINE
  5
15B
100
AcDbEntity
  8
Reference
  6
ByLayer
 62
  256
370
   -1
100
AcDbLine
 10
18.58
 20
1.60748031496
 11
18.73
 21
1.60748031496
  0
LINE
  5
15C
100
AcDbEntity
  8
Reference
  6
ByLayer
 62
  256
370
   -1
100
AcDbLine
 10
18.73
 20
1.60748031496
 11
18.73
 21
1.60724409449
  0
LINE
  5
15D
100
AcDbEntity
  8
Reference
  6
ByLayer
 62
  256
370
   -1
100
AcDbLine
 10
18.73
 20
1.60724409449
 11
18.737519685
 21
1.60724409449
  0
LINE
  5
15E
100
AcDbEntity
  8
Reference
  6
ByLayer
 62
  256
370
   -1
100
AcDbLine
 10
18.737519685
 20
1.60724409449
 11
18.752480315
 21
1.60539370079
  0
LINE
  5
15F
100
AcDbEntity
  8
Reference
  6
ByLayer
 62
  256
370
   -1
100
AcDbLine
 10
18.752480315
 20
1.60539370079
 11
18.7670866142
 21
1.60161417323
  0
LINE
  5
160
100
AcDbEntity
  8
Reference
  6
ByLayer
 62
  256
370
   -1
100
AcDbLine
 10
18.7670866142
 20
1.60161417323
 11
18.7811023622
 21
1.59606299213
  0
LINE
  5
161
100
AcDbEntity
  8
Reference
  6
ByLayer
 62
  256
370
   -1
100
AcDbLine
 10
18.7811023622
 20
1.59606299213
 11
18.7942913386
 21
1.58881889764
  0
LINE
  5
162
100
AcDbEntity
  8
Reference
  6
ByLayer
 62
  256
370
   -1
100
AcDbLine
 10
18.7942913386
 20
1.58881889764
 11
18.806496063
 21
1.57996062992
  0
LINE
  5
163
100
AcDbEntity
  8
Reference
  6
ByLayer
 62
  256
370
   -1
100
AcDbLine
 10
18.806496063
 20
1.57996062992
 11
18.817480315
 21
1.56964566929
  0
LINE
  5
164
100
AcDbEntity
  8
Reference
  6
ByLayer
 62
  256
370
   -1
100
AcDbLine
 10
18.817480315
 20
1.56964566929
 11
18.8270866142
 21
1.55803149606
  0
LINE
  5
165
100
AcDbEntity
  8
Reference
  6
ByLayer
 62
  256
370
   -1
100
AcDbLine
 10
18.8270866142
 20
1.55803149606
 11
18.8351574803
 21
1.54531496063
  0
LINE
  5
166
100
AcDbEntity
  8
Reference
  6
ByLayer
 62
  256
370
   -1
100
AcDbLine
 10
18.8351574803
 20
1.54531496063
 11
18.8415748031
 21
1.53169291339
  0
LINE
  5
167
100
AcDbEntity
  8
Reference
  6
ByLayer
 62
  256
370
   -1
100
AcDbLine
 10
18.8415748031
 20
1.53169291339
 11
18.8462204724
 21
1.51736220472
  0
LINE
  5
168
100
AcDbEntity
  8
Reference
  6
ByLayer
 62
  256
370
   -1
100
AcDbLine
 10
18.8462204724
 20
1.51736220472
 11
18.8490551181
 21
1.50255905512
  0
LINE
  5
169
100
AcDbEntity
  8
Reference
  6
ByLayer
 62
  256
370
   -1
100
AcDbLine
 10
18.8490551181
 20
1.50255905512
 11
18.85
 21
1.48751968504
  0
LINE
  5
16A
100
AcDbEntity
  8
Reference
  6
ByLayer
 62
  256
370
   -1
100
AcDbLine
 10
18.85
 20
1.48751968504
 11
18.8490551181
 21
1.47244094488
  0
LINE
  5
16B
100
AcDbEntity
  8
Reference
  6
ByLayer
 62
  256
370
   -1
100
AcDbLine
 10
18.8490551181
 20
1.47244094488
 11
18.8462204724
 21
1.45763779528
  0
LINE
  5
16C
100
AcDbEntity
  8
Reference
  6
ByLayer
 62
  256
370
   -1
100
AcDbLine
 10
18.8462204724
 20
1.45763779528
 11
18.8415748031
 21
1.44330708661
  0
LINE
  5
16D
100
AcDbEntity
  8
Reference
  6
ByLayer
 62
  256
370
   -1
100
AcDbLine
 10
18.8415748031
 20
1.44330708661
 11
18.8351574803
 21
1.42968503937
  0
LINE
  5
16E
100
AcDbEntity
  8
Reference
  6
ByLayer
 62
  256
370
   -1
100
AcDbLine
 10
18.8351574803
 20
1.42968503937
 11
18.8270866142
 21
1.41696850394
  0
LINE
  5
16F
100
AcDbEntity
  8
Reference
  6
ByLayer
 62
  256
370
   -1
100
AcDbLine
 10
18.8270866142
 20
1.41696850394
 11
18.817480315
 21
1.40535433071
  0
LINE
  5
170
100
AcDbEntity
  8
Reference
  6
ByLayer
 62
  256
370
   -1
100
AcDbLine
 10
18.817480315
 20
1.40535433071
 11
18.806496063
 21
1.39503937008
  0
LINE
  5
171
100
AcDbEntity
  8
Reference
  6
ByLayer
 62
  256
370
   -1
100
AcDbLine
 10
18.806496063
 20
1.39503937008
 11
18.7942913386
 21
1.38618110236
  0
LINE
  5
172
100
AcDbEntity
  8
Reference
  6
ByLayer
 62
  256
370
   -1
100
AcDbLine
 10
18.7942913386
 20
1.38618110236
 11
18.7811023622
 21
1.37893700787
  0
LINE
  5
173
100
AcDbEntity
  8
Reference
  6
ByLayer
 62
  256
370
   -1
100
AcDbLine
 10
18.7811023622
 20
1.37893700787
 11
18.7670866142
 21
1.37338582677
  0
LINE
  5
174
100
AcDbEntity
  8
Reference
  6
ByLayer
 62
  256
370
   -1
100
AcDbLine
 10
18.7670866142
 20
1.37338582677
 11
18.752480315
 21
1.36960629921
  0
LINE
  5
175
100
AcDbEntity
  8
Reference
  6
ByLayer
 62
  256
370
   -1
100
AcDbLine
 10
18.752480315
 20
1.36960629921
 11
18.737519685
 21
1.36775590551
  0
LINE
  5
176
100
AcDbEntity
  8
Reference
  6
ByLayer
 62
  256
370
   -1
100
AcDbLine
 10
18.737519685
 20
1.36775590551
 11
18.73
 21
1.36775590551
  0
LINE
  5
177
100
AcDbEntity
  8
Reference
  6
ByLayer
 62
  256
370
   -1
100
AcDbLine
 10
18.73
 20
1.36775590551
 11
18.73
 21
1.36751968504
  0
LINE
  5
178
100
AcDbEntity
  8
Reference
  6
ByLayer
 62
  256
370
   -1
100
AcDbLine
 10
18.73
 20
1.36751968504
 11
18.58
 21
1.36751968504
  0
LINE
  5
179
100
AcDbEntity
  8
Reference
  6
ByLayer
 62
  256
370
   -1
100
AcDbLine
 10
18.58
 20
1.36751968504
 11
18.58
 21
1.36775590551
  0
LINE
  5
17A
100
AcDbEntity
  8
Reference
  6
ByLayer
 62
  256
370
   -1
100
AcDbLine
 10
18.58
 20
1.36775590551
 11
18.572480315
 21
1.36775590551
  0
LINE
  5
17B
100
AcDbEntity
  8
Reference
  6
ByLayer
 62
  256
370
   -1
100
AcDbLine
 10
18.572480315
 20
1.36775590551
 11
18.557519685
 21
1.36960629921
  0
LINE
  5
17C
100
AcDbEntity
  8
Reference
  6
ByLayer
 62
  256
370
   -1
100
AcDbLine
 10
18.557519685
 20
1.36960629921
 11
18.5429133858
 21
1.37338582677
  0
LINE
  5
17D
100
AcDbEntity
  8
Reference
  6
ByLayer
 62
  256
370
   -1
100
AcDbLine
 10
18.5429133858
 20
1.37338582677
 11
18.5288976378
 21
1.37893700787
  0
LINE
  5
17E
100
AcDbEntity
  8
Reference
  6
ByLayer
 62
  256
370
   -1
100
AcDbLine
 10
18.5288976378
 20
1.37893700787
 11
18.5157086614
 21
1.38618110236
  0
LINE
  5
17F
100
AcDbEntity
  8
Reference
  6
ByLayer
 62
  256
370
   -1
100
AcDbLine
 10
18.5157086614
 20
1.38618110236
 11
18.503503937
 21
1.39503937008
  0
LINE
  5
180
100
AcDbEntity
  8
Reference
  6
ByLayer
 62
  256
370
   -1
100
AcDbLine
 10
18.503503937
 20
1.39503937008
 11
18.492519685
 21
1.40535433071
  0
LINE
  5
181
100
AcDbEntity
  8
Reference
  6
ByLayer
 62
  256
370
   -1
100
AcDbLine
 10
18.492519685
 20
1.40535433071
 11
18.4829133858
 21
1.41696850394
  0
LINE
  5
182
100
AcDbEntity
  8
Reference
  6
ByLayer
 62
  256
370
   -1
100
AcDbLine
 10
18.4829133858
 20
1.41696850394
 11
18.4748425197
 21
1.42968503937
  0
LINE
  5
183
100
AcDbEntity
  8
Reference
  6
ByLayer
 62
  256
370
   -1
100
AcDbLine
 10
18.4748425197
 20
1.42968503937
 11
18.4684251969
 21
1.44330708661
  0
LINE
  5
184
100
AcDbEntity
  8
Reference
  6
ByLayer
 62
  256
370
   -1
100
AcDbLine
 10
18.4684251969
 20
1.44330708661
 11
18.4637795276
 21
1.45763779528
  0
LINE
  5
185
100
AcDbEntity
  8
Reference
  6
ByLayer
 62
  256
370
   -1
100
AcDbLine
 10
18.4637795276
 20
1.45763779528
 11
18.4609448819
 21
1.47244094488
  0
LINE
  5
186
100
AcDbEntity
  8
Reference
  6
ByLayer
 62
  256
370
   -1
100
AcDbLine
 10
18.4609448819
 20
1.47244094488
 11
18.46
 21
1.48751968504
  0
LINE
  5
187
100
AcDbEntity
  8
Reference
  6
ByLayer
 62
  256
370
   -1
100
AcDbLine
 10
0.27
 20
1.60748031496
 11
0.42
 21
1.60748031496
  0
ENDBLK
  5
5C
330
5A
100
AcDbEntity
  8
0
100
AcDbBlockEnd
  0
BLOCK
  5
5E
330
5D
100
AcDbEntity
  8
0
100
AcDbBlockBegin
  2
back-1
 70
    0
 10
0
 20
0
  3
back-1
  1

  0
LINE
  5
188
100
AcDbEntity
  8
Boundary
  6
ByLayer
 62
  256
370
   -1
100
AcDbLine
 10
0
 20
0
 11
0
 21
1.46
  0
CIRCLE
  5
189
100
AcDbEntity
  8
4-40 Tap Hole
  6
ByLayer
 62
  256
370
   -1
100
AcDbCircle
 10
11.2815354331
 20
0.787974787261
 40
0.061403210791
  0
CIRCLE
  5
18A
100
AcDbEntity
  8
4-40 Tap Hole
  6
ByLayer
 62
  256
370
   -1
100
AcDbCircle
 10
13.1335114687
 20
0.788011811024
 40
0.0614215121771
  0
LINE
  5
18B
100
AcDbEntity
  8
Cutout
  6
ByLayer
 62
  256
370
   -1
100
AcDbLine
 10
11.4004330709
 20
0.520275590551
 11
11.4004330709
 21
1.05570866142
  0
LINE
  5
18C
100
AcDbEntity
  8
Cutout
  6
ByLayer
 62
  256
370
   -1
100
AcDbLine
 10
13.0146062992
 20
1.05570866142
 11
13.0146062992
 21
0.520275590551
  0
LINE
  5
18D
100
AcDbEntity
  8
Cutout
  6
ByLayer
 62
  256
370
   -1
100
AcDbLine
 10
11.4004330709
 20
1.05570866142
 11
13.0146062992
 21
1.05570866142
  0
LINE
  5
18E
100
AcDbEntity
  8
Cutout
  6
ByLayer
 62
  256
370
   -1
100
AcDbLine
 10
11.4004330709
 20
0.520275590551
 11
13.0146062992
 21
0.520275590551
  0
LINE
  5
18F
100
AcDbEntity
  8
Boundary
  6
ByLayer
 62
  256
370
   -1
100
AcDbLine
 10
16.8438
 20
1.46
 11
16.8438
 21
0
  0
LINE
  5
190
100
AcDbEntity
  8
Boundary
  6
ByLayer
 62
  256
370
   -1
100
AcDbLine
 10
16.8438
 20
0
 11
0
 21
0
  0
LINE
  5
191
100
AcDbEntity
  8
Boundary
  6
ByLayer
 62
  256
370
   -1
100
AcDbLine
 10
0
 20
1.46
 11
16.8438
 21
1.46
  0
ENDBLK
  5
5F
330
5D
100
AcDbEntity
  8
0
100
AcDbBlockEnd
  0
ENDSEC
  0
SECTION
  2
ENTITIES
  0
CIRCLE
  5
192
100
AcDbEntity
  8
BNC Hole
  6
ByLayer
 62
  256
370
   -1
100
AcDbCircle
 10
2.13999684441
 20
0.8651083364200005
 40
0.265754445816
  0
CIRCLE
  5
193
100
AcDbEntity
  8
BNC Hole
  6
ByLayer
 62
  256
370
   -1
100
AcDbCircle
 10
2.94001581713
 20
0.8651016726199998
 40
0.265739101021
  0
CIRCLE
  5
194
100
AcDbEntity
  8
BNC Hole
  6
ByLayer
 62
  256
370
   -1
100
AcDbCircle
 10
3.739997314989999
 20
0.8651154558900007
 40
0.265759184349
  0
CIRCLE
  5
195
100
AcDbEntity
  8
BNC Hole
  6
ByLayer
 62
  256
370
   -1
100
AcDbCircle
 10
4.539997169359999
 20
0.8651075078600012
 40
0.265751930664
  0
CIRCLE
  5
196
100
AcDbEntity
  8
BNC Hole
  6
ByLayer
 62
  256
370
   -1
100
AcDbCircle
 10
5.3399995811
 20
0.8651230517400013
 40
0.265748450441
  0
CIRCLE
  5
197
100
AcDbEntity
  8
BNC Hole
  6
ByLayer
 62
  256
370
   -1
100
AcDbCircle
 10
6.139983400899999
 20
0.86510001071
 40
0.265738117019
  0
CIRCLE
  5
198
100
AcDbEntity
  8
BNC Hole
  6
ByLayer
 62
  256
370
   -1
100
AcDbCircle
 10
6.94
 20
0.8651168721700007
 40
0.26574345744
  0
CIRCLE
  5
199
100
AcDbEntity
  8
BNC Hole
  6
ByLayer
 62
  256
370
   -1
100
AcDbCircle
 10
7.740000805469999
 20
0.8651075626200004
 40
0.265750416763
  0
CIRCLE
  5
19A
100
AcDbEntity
  8
BNC Hole
  6
ByLayer
 62
  256
370
   -1
100
AcDbCircle
 10
8.540003994979999
 20
0.8651094224300007
 40
0.265753978674
  0
CIRCLE
  5
19B
100
AcDbEntity
  8
BNC Hole
  6
ByLayer
 62
  256
370
   -1
100
AcDbCircle
 10
9.34000687726
 20
0.8651075933400012
 40
0.26575134844
  0
CIRCLE
  5
19C
100
AcDbEntity
  8
4-40 Tap Hole
  6
ByLayer
 62
  256
370
   -1
100
AcDbCircle
 10
10.6199822513
 20
1.469995444390001
 40
0.0439975809454
  0
CIRCLE
  5
19D
100
AcDbEntity
  8
4-40 Tap Hole
  6
ByLayer
 62
  256
370
   -1
100
AcDbCircle
 10
9.820006158729999
 20
0.2700005252100013
 40
0.0440017712647
  0
CIRCLE
  5
19E
100
AcDbEntity
  8
4-40 Tap Hole
  6
ByLayer
 62
  256
370
   -1
100
AcDbCircle
 10
10.6199936165
 20
0.2699890344400018
 40
0.0439909117484
  0
CIRCLE
  5
19F
100
AcDbEntity
  8
4-40 Tap Hole
  6
ByLayer
 62
  256
370
   -1
100
AcDbCircle
 10
9.8199988189
 20
1.47000393701
 40
0.0440066929134
  0
LINE
  5
1A0
100
AcDbEntity
  8
Reference
  6
ByLayer
 62
  256
370
   -1
100
AcDbLine
 10
0.1600000000000001
 20
0.2524803149600015
 11
0.1609448818899999
 21
0.2675590551200013
  0
LINE
  5
1A1
100
AcDbEntity
  8
Reference
  6
ByLayer
 62
  256
370
   -1
100
AcDbLine
 10
0.1609448818899999
 20
0.2675590551200013
 11
0.163779527558999
 21
0.2823622047200001
  0
LINE
  5
1A2
100
AcDbEntity
  8
Reference
  6
ByLayer
 62
  256
370
   -1
100
AcDbLine
 10
0.163779527558999
 20
0.2823622047200001
 11
0.1684251968500003
 21
0.2966929133900003
  0
LINE
  5
1A3
100
AcDbEntity
  8
Reference
  6
ByLayer
 62
  256
370
   -1
100
AcDbLine
 10
0.1684251968500003
 20
0.2966929133900003
 11
0.174842519684999
 21
0.3103149606300004
  0
LINE
  5
1A4
100
AcDbEntity
  8
Reference
  6
ByLayer
 62
  256
370
   -1
100
AcDbLine
 10
0.174842519684999
 20
0.3103149606300004
 11
0.1829133858269998
 21
0.3230314960600005
  0
LINE
  5
1A5
100
AcDbEntity
  8
Reference
  6
ByLayer
 62
  256
370
   -1
100
AcDbLine
 10
0.1829133858269998
 20
0.3230314960600005
 11
0.1925196850390005
 21
0.3346456692900013
  0
LINE
  5
1A6
100
AcDbEntity
  8
Reference
  6
ByLayer
 62
  256
370
   -1
100
AcDbLine
 10
0.1925196850390005
 20
0.3346456692900013
 11
0.2035039370079996
 21
0.344960629920001
  0
LINE
  5
1A7
100
AcDbEntity
  8
Reference
  6
ByLayer
 62
  256
370
   -1
100
AcDbLine
 10
0.2035039370079996
 20
0.344960629920001
 11
0.2157086614170005
 21
0.3538188976400001
  0
LINE
  5
1A8
100
AcDbEntity
  8
Reference
  6
ByLayer
 62
  256
370
   -1
100
AcDbLine
 10
0.2157086614170005
 20
0.3538188976400001
 11
0.2288976377949989
 21
0.3610629921299999
  0
LINE
  5
1A9
100
AcDbEntity
  8
Reference
  6
ByLayer
 62
  256
370
   -1
100
AcDbLine
 10
0.2288976377949989
 20
0.3610629921299999
 11
0.2429133858270003
 21
0.3666141732300012
  0
LINE
  5
1AA
100
AcDbEntity
  8
Reference
  6
ByLayer
 62
  256
370
   -1
100
AcDbLine
 10
0.2429133858270003
 20
0.3666141732300012
 11
0.257519685039
 21
0.3703937007900002
  0
LINE
  5
1AB
100
AcDbEntity
  8
Reference
  6
ByLayer
 62
  256
370
   -1
100
AcDbLine
 10
0.257519685039
 20
0.3703937007900002
 11
0.2724803149609993
 21
0.3722440944900001
  0
LINE
  5
1AC
100
AcDbEntity
  8
Reference
  6
ByLayer
 62
  256
370
   -1
100
AcDbLine
 10
0.2724803149609993
 20
0.3722440944900001
 11
0.2799999999999994
 21
0.3722440944900001
  0
LINE
  5
1AD
100
AcDbEntity
  8
Reference
  6
ByLayer
 62
  256
370
   -1
100
AcDbLine
 10
0.2799999999999994
 20
0.3722440944900001
 11
0.2799999999999994
 21
0.3724803149600007
  0
LINE
  5
1AE
100
AcDbEntity
  8
Reference
  6
ByLayer
 62
  256
370
   -1
100
AcDbLine
 10
0.2799999999999994
 20
0.3724803149600007
 11
0.4299999999999997
 21
0.3724803149600007
  0
LINE
  5
1AF
100
AcDbEntity
  8
Reference
  6
ByLayer
 62
  256
370
   -1
100
AcDbLine
 10
0.4299999999999997
 20
0.3724803149600007
 11
0.4299999999999997
 21
0.3722440944900001
  0
LINE
  5
1B0
100
AcDbEntity
  8
Reference
  6
ByLayer
 62
  256
370
   -1
100
AcDbLine
 10
0.4299999999999997
 20
0.3722440944900001
 11
0.4375196850389997
 21
0.3722440944900001
  0
LINE
  5
1B1
100
AcDbEntity
  8
Reference
  6
ByLayer
 62
  256
370
   -1
100
AcDbLine
 10
0.4375196850389997
 20
0.3722440944900001
 11
0.4524803149609991
 21
0.3703937007900002
  0
LINE
  5
1B2
100
AcDbEntity
  8
Reference
  6
ByLayer
 62
  256
370
   -1
100
AcDbLine
 10
0.4524803149609991
 20
0.3703937007900002
 11
0.4670866141730006
 21
0.3666141732300012
  0
LINE
  5
1B3
100
AcDbEntity
  8
Reference
  6
ByLayer
 62
  256
370
   -1
100
AcDbLine
 10
0.4670866141730006
 20
0.3666141732300012
 11
0.4811023622050001
 21
0.3610629921299999
  0
LINE
  5
1B4
100
AcDbEntity
  8
Reference
  6
ByLayer
 62
  256
370
   -1
100
AcDbLine
 10
0.4811023622050001
 20
0.3610629921299999
 11
0.4942913385830003
 21
0.3538188976400001
  0
LINE
  5
1B5
100
AcDbEntity
  8
Reference
  6
ByLayer
 62
  256
370
   -1
100
AcDbLine
 10
0.4942913385830003
 20
0.3538188976400001
 11
0.5064960629919995
 21
0.344960629920001
  0
LINE
  5
1B6
100
AcDbEntity
  8
Reference
  6
ByLayer
 62
  256
370
   -1
100
AcDbLine
 10
0.5064960629919995
 20
0.344960629920001
 11
0.5174803149610003
 21
0.3346456692900013
  0
LINE
  5
1B7
100
AcDbEntity
  8
Reference
  6
ByLayer
 62
  256
370
   -1
100
AcDbLine
 10
0.5174803149610003
 20
0.3346456692900013
 11
0.5270866141729993
 21
0.3230314960600005
  0
LINE
  5
1B8
100
AcDbEntity
  8
Reference
  6
ByLayer
 62
  256
370
   -1
100
AcDbLine
 10
0.5270866141729993
 20
0.3230314960600005
 11
0.5351574803150001
 21
0.3103149606300004
  0
LINE
  5
1B9
100
AcDbEntity
  8
Reference
  6
ByLayer
 62
  256
370
   -1
100
AcDbLine
 10
0.5351574803150001
 20
0.3103149606300004
 11
0.5415748031500005
 21
0.2966929133900003
  0
LINE
  5
1BA
100
AcDbEntity
  8
Reference
  6
ByLayer
 62
  256
370
   -1
100
AcDbLine
 10
0.5415748031500005
 20
0.2966929133900003
 11
0.546220472441
 21
0.2823622047200001
  0
LINE
  5
1BB
100
AcDbEntity
  8
Reference
  6
ByLayer
 62
  256
370
   -1
100
AcDbLine
 10
0.546220472441
 20
0.2823622047200001
 11
0.5490551181099992
 21
0.2675590551200013
  0
LINE
  5
1BC
100
AcDbEntity
  8
Reference
  6
ByLayer
 62
  256
370
   -1
100
AcDbLine
 10
0.5490551181099992
 20
0.2675590551200013
 11
0.5500000000000007
 21
0.2524803149600015
  0
LINE
  5
1BD
100
AcDbEntity
  8
Reference
  6
ByLayer
 62
  256
370
   -1
100
AcDbLine
 10
0.5500000000000007
 20
0.2524803149600015
 11
0.5490551181099992
 21
0.2374409448800012
  0
LINE
  5
1BE
100
AcDbEntity
  8
Reference
  6
ByLayer
 62
  256
370
   -1
100
AcDbLine
 10
0.5490551181099992
 20
0.2374409448800012
 11
0.546220472441
 21
0.2226377952800007
  0
LINE
  5
1BF
100
AcDbEntity
  8
Reference
  6
ByLayer
 62
  256
370
   -1
100
AcDbLine
 10
0.546220472441
 20
0.2226377952800007
 11
0.5415748031500005
 21
0.2083070866100005
  0
LINE
  5
1C0
100
AcDbEntity
  8
Reference
  6
ByLayer
 62
  256
370
   -1
100
AcDbLine
 10
0.5415748031500005
 20
0.2083070866100005
 11
0.5351574803150001
 21
0.1946850393700004
  0
LINE
  5
1C1
100
AcDbEntity
  8
Reference
  6
ByLayer
 62
  256
370
   -1
100
AcDbLine
 10
0.5351574803150001
 20
0.1946850393700004
 11
0.5270866141729993
 21
0.1819685039400003
  0
LINE
  5
1C2
100
AcDbEntity
  8
Reference
  6
ByLayer
 62
  256
370
   -1
100
AcDbLine
 10
0.5270866141729993
 20
0.1819685039400003
 11
0.5174803149610003
 21
0.1703543307100013
  0
LINE
  5
1C3
100
AcDbEntity
  8
Reference
  6
ByLayer
 62
  256
370
   -1
100
AcDbLine
 10
0.5174803149610003
 20
0.1703543307100013
 11
0.5064960629919995
 21
0.1600393700799998
  0
LINE
  5
1C4
100
AcDbEntity
  8
Reference
  6
ByLayer
 62
  256
370
   -1
100
AcDbLine
 10
0.5064960629919995
 20
0.1600393700799998
 11
0.4942913385830003
 21
0.1511811023600007
  0
LINE
  5
1C5
100
AcDbEntity
  8
Reference
  6
ByLayer
 62
  256
370
   -1
100
AcDbLine
 10
0.4942913385830003
 20
0.1511811023600007
 11
0.4811023622050001
 21
0.1439370078700009
  0
LINE
  5
1C6
100
AcDbEntity
  8
Reference
  6
ByLayer
 62
  256
370
   -1
100
AcDbLine
 10
0.4811023622050001
 20
0.1439370078700009
 11
0.4670866141730006
 21
0.1383858267700013
  0
LINE
  5
1C7
100
AcDbEntity
  8
Reference
  6
ByLayer
 62
  256
370
   -1
100
AcDbLine
 10
0.4670866141730006
 20
0.1383858267700013
 11
0.4524803149609991
 21
0.1346062992100006
  0
LINE
  5
1C8
100
AcDbEntity
  8
Reference
  6
ByLayer
 62
  256
370
   -1
100
AcDbLine
 10
0.4524803149609991
 20
0.1346062992100006
 11
0.4375196850389997
 21
0.1327559055100007
  0
LINE
  5
1C9
100
AcDbEntity
  8
Reference
  6
ByLayer
 62
  256
370
   -1
100
AcDbLine
 10
0.4375196850389997
 20
0.1327559055100007
 11
0.4299999999999997
 21
0.1327559055100007
  0
LINE
  5
1CA
100
AcDbEntity
  8
Reference
  6
ByLayer
 62
  256
370
   -1
100
AcDbLine
 10
0.4299999999999997
 20
0.1327559055100007
 11
0.4299999999999997
 21
0.1325196850400001
  0
LINE
  5
1CB
100
AcDbEntity
  8
Reference
  6
ByLayer
 62
  256
370
   -1
100
AcDbLine
 10
0.4299999999999997
 20
0.1325196850400001
 11
0.2799999999999994
 21
0.1325196850400001
  0
LINE
  5
1CC
100
AcDbEntity
  8
Reference
  6
ByLayer
 62
  256
370
   -1
100
AcDbLine
 10
0.2799999999999994
 20
0.1325196850400001
 11
0.2799999999999994
 21
0.1327559055100007
  0
LINE
  5
1CD
100
AcDbEntity
  8
Reference
  6
ByLayer
 62
  256
370
   -1
100
AcDbLine
 10
0.2799999999999994
 20
0.1327559055100007
 11
0.2724803149609993
 21
0.1327559055100007
  0
LINE
  5
1CE
100
AcDbEntity
  8
Reference
  6
ByLayer
 62
  256
370
   -1
100
AcDbLine
 10
0.2724803149609993
 20
0.1327559055100007
 11
0.257519685039
 21
0.1346062992100006
  0
LINE
  5
1CF
100
AcDbEntity
  8
Reference
  6
ByLayer
 62
  256
370
   -1
100
AcDbLine
 10
0.257519685039
 20
0.1346062992100006
 11
0.2429133858270003
 21
0.1383858267700013
  0
LINE
  5
1D0
100
AcDbEntity
  8
Reference
  6
ByLayer
 62
  256
370
   -1
100
AcDbLine
 10
0.2429133858270003
 20
0.1383858267700013
 11
0.2288976377949989
 21
0.1439370078700009
  0
LINE
  5
1D1
100
AcDbEntity
  8
Reference
  6
ByLayer
 62
  256
370
   -1
100
AcDbLine
 10
0.2288976377949989
 20
0.1439370078700009
 11
0.2157086614170005
 21
0.1511811023600007
  0
LINE
  5
1D2
100
AcDbEntity
  8
Reference
  6
ByLayer
 62
  256
370
   -1
100
AcDbLine
 10
0.2157086614170005
 20
0.1511811023600007
 11
0.2035039370079996
 21
0.1600393700799998
  0
LINE
  5
1D3
100
AcDbEntity
  8
Reference
  6
ByLayer
 62
  256
370
   -1
100
AcDbLine
 10
0.2035039370079996
 20
0.1600393700799998
 11
0.1925196850390005
 21
0.1703543307100013
  0
LINE
  5
1D4
100
AcDbEntity
  8
Reference
  6
ByLayer
 62
  256
370
   -1
100
AcDbLine
 10
0.1925196850390005
 20
0.1703543307100013
 11
0.1829133858269998
 21
0.1819685039400003
  0
LINE
  5
1D5
100
AcDbEntity
  8
Reference
  6
ByLayer
 62
  256
370
   -1
100
AcDbLine
 10
0.1829133858269998
 20
0.1819685039400003
 11
0.174842519684999
 21
0.1946850393700004
  0
LINE
  5
1D6
100
AcDbEntity
  8
Reference
  6
ByLayer
 62
  256
370
   -1
100
AcDbLine
 10
0.174842519684999
 20
0.1946850393700004
 11
0.1684251968500003
 21
0.2083070866100005
  0
LINE
  5
1D7
100
AcDbEntity
  8
Reference
  6
ByLayer
 62
  256
370
   -1
100
AcDbLine
 10
0.1684251968500003
 20
0.2083070866100005
 11
0.163779527558999
 21
0.2226377952800007
  0
LINE
  5
1D8
100
AcDbEntity
  8
Reference
  6
ByLayer
 62
  256
370
   -1
100
AcDbLine
 10
0.163779527558999
 20
0.2226377952800007
 11
0.1609448818899999
 21
0.2374409448800012
  0
LINE
  5
1D9
100
AcDbEntity
  8
Reference
  6
ByLayer
 62
  256
370
   -1
100
AcDbLine
 10
0.1609448818899999
 20
0.2374409448800012
 11
0.1600000000000001
 21
0.2524803149600015
  0
LINE
  5
1DA
100
AcDbEntity
  8
Reference
  6
ByLayer
 62
  256
370
   -1
100
AcDbLine
 10
0.1600000000000001
 20
1.487519685040001
 11
0.1609448818899999
 21
1.502559055120001
  0
LINE
  5
1DB
100
AcDbEntity
  8
Reference
  6
ByLayer
 62
  256
370
   -1
100
AcDbLine
 10
0.1609448818899999
 20
1.502559055120001
 11
0.163779527558999
 21
1.517362204720001
  0
LINE
  5
1DC
100
AcDbEntity
  8
Reference
  6
ByLayer
 62
  256
370
   -1
100
AcDbLine
 10
0.163779527558999
 20
1.517362204720001
 11
0.1684251968500003
 21
1.531692913390001
  0
LINE
  5
1DD
100
AcDbEntity
  8
Reference
  6
ByLayer
 62
  256
370
   -1
100
AcDbLine
 10
0.1684251968500003
 20
1.531692913390001
 11
0.174842519684999
 21
1.54531496063
  0
LINE
  5
1DE
100
AcDbEntity
  8
Reference
  6
ByLayer
 62
  256
370
   -1
100
AcDbLine
 10
0.174842519684999
 20
1.54531496063
 11
0.1829133858269998
 21
1.55803149606
  0
LINE
  5
1DF
100
AcDbEntity
  8
Reference
  6
ByLayer
 62
  256
370
   -1
100
AcDbLine
 10
0.1829133858269998
 20
1.55803149606
 11
0.1925196850390005
 21
1.569645669290001
  0
LINE
  5
1E0
100
AcDbEntity
  8
Reference
  6
ByLayer
 62
  256
370
   -1
100
AcDbLine
 10
0.1925196850390005
 20
1.569645669290001
 11
0.2035039370079996
 21
1.57996062992
  0
LINE
  5
1E1
100
AcDbEntity
  8
Reference
  6
ByLayer
 62
  256
370
   -1
100
AcDbLine
 10
0.2035039370079996
 20
1.57996062992
 11
0.2157086614170005
 21
1.588818897640001
  0
LINE
  5
1E2
100
AcDbEntity
  8
Reference
  6
ByLayer
 62
  256
370
   -1
100
AcDbLine
 10
0.2157086614170005
 20
1.588818897640001
 11
0.2288976377949989
 21
1.596062992130001
  0
LINE
  5
1E3
100
AcDbEntity
  8
Reference
  6
ByLayer
 62
  256
370
   -1
100
AcDbLine
 10
0.2288976377949989
 20
1.596062992130001
 11
0.2429133858270003
 21
1.601614173230001
  0
LINE
  5
1E4
100
AcDbEntity
  8
Reference
  6
ByLayer
 62
  256
370
   -1
100
AcDbLine
 10
0.2429133858270003
 20
1.601614173230001
 11
0.257519685039
 21
1.605393700790001
  0
LINE
  5
1E5
100
AcDbEntity
  8
Reference
  6
ByLayer
 62
  256
370
   -1
100
AcDbLine
 10
0.257519685039
 20
1.605393700790001
 11
0.2724803149609993
 21
1.607244094490001
  0
LINE
  5
1E6
100
AcDbEntity
  8
Reference
  6
ByLayer
 62
  256
370
   -1
100
AcDbLine
 10
0.2724803149609993
 20
1.607244094490001
 11
0.2799999999999994
 21
1.607244094490001
  0
LINE
  5
1E7
100
AcDbEntity
  8
Reference
  6
ByLayer
 62
  256
370
   -1
100
AcDbLine
 10
0.2799999999999994
 20
1.607244094490001
 11
0.2799999999999994
 21
1.60748031496
  0
LINE
  5
1E8
100
AcDbEntity
  8
Reference
  6
ByLayer
 62
  256
370
   -1
100
AcDbLine
 10
0.4299999999999997
 20
1.60748031496
 11
0.4299999999999997
 21
1.607244094490001
  0
LINE
  5
1E9
100
AcDbEntity
  8
Reference
  6
ByLayer
 62
  256
370
   -1
100
AcDbLine
 10
0.4299999999999997
 20
1.607244094490001
 11
0.4375196850389997
 21
1.607244094490001
  0
LINE
  5
1EA
100
AcDbEntity
  8
Reference
  6
ByLayer
 62
  256
370
   -1
100
AcDbLine
 10
0.4375196850389997
 20
1.607244094490001
 11
0.4524803149609991
 21
1.605393700790001
  0
LINE
  5
1EB
100
AcDbEntity
  8
Reference
  6
ByLayer
 62
  256
370
   -1
100
AcDbLine
 10
0.4524803149609991
 20
1.605393700790001
 11
0.4670866141730006
 21
1.601614173230001
  0
LINE
  5
1EC
100
AcDbEntity
  8
Reference
  6
ByLayer
 62
  256
370
   -1
100
AcDbLine
 10
0.4670866141730006
 20
1.601614173230001
 11
0.4811023622050001
 21
1.596062992130001
  0
LINE
  5
1ED
100
AcDbEntity
  8
Reference
  6
ByLayer
 62
  256
370
   -1
100
AcDbLine
 10
0.4811023622050001
 20
1.596062992130001
 11
0.4942913385830003
 21
1.588818897640001
  0
LINE
  5
1EE
100
AcDbEntity
  8
Reference
  6
ByLayer
 62
  256
370
   -1
100
AcDbLine
 10
0.4942913385830003
 20
1.588818897640001
 11
0.5064960629919995
 21
1.57996062992
  0
LINE
  5
1EF
100
AcDbEntity
  8
Reference
  6
ByLayer
 62
  256
370
   -1
100
AcDbLine
 10
0.5064960629919995
 20
1.57996062992
 11
0.5174803149610003
 21
1.569645669290001
  0
LINE
  5
1F0
100
AcDbEntity
  8
Reference
  6
ByLayer
 62
  256
370
   -1
100
AcDbLine
 10
0.5174803149610003
 20
1.569645669290001
 11
0.5270866141729993
 21
1.55803149606
  0
LINE
  5
1F1
100
AcDbEntity
  8
Reference
  6
ByLayer
 62
  256
370
   -1
100
AcDbLine
 10
0.5270866141729993
 20
1.55803149606
 11
0.5351574803150001
 21
1.54531496063
  0
LINE
  5
1F2
100
AcDbEntity
  8
Reference
  6
ByLayer
 62
  256
370
   -1
100
AcDbLine
 10
0.5351574803150001
 20
1.54531496063
 11
0.5415748031500005
 21
1.531692913390001
  0
LINE
  5
1F3
100
AcDbEntity
  8
Reference
  6
ByLayer
 62
  256
370
   -1
100
AcDbLine
 10
0.5415748031500005
 20
1.531692913390001
 11
0.546220472441
 21
1.517362204720001
  0
LINE
  5
1F4
100
AcDbEntity
  8
Reference
  6
ByLayer
 62
  256
370
   -1
100
AcDbLine
 10
0.546220472441
 20
1.517362204720001
 11
0.5490551181099992
 21
1.502559055120001
  0
LINE
  5
1F5
100
AcDbEntity
  8
Reference
  6
ByLayer
 62
  256
370
   -1
100
AcDbLine
 10
0.5490551181099992
 20
1.502559055120001
 11
0.5500000000000007
 21
1.487519685040001
  0
LINE
  5
1F6
100
AcDbEntity
  8
Reference
  6
ByLayer
 62
  256
370
   -1
100
AcDbLine
 10
0.5500000000000007
 20
1.487519685040001
 11
0.5490551181099992
 21
1.472440944880001
  0
LINE
  5
1F7
100
AcDbEntity
  8
Reference
  6
ByLayer
 62
  256
370
   -1
100
AcDbLine
 10
0.5490551181099992
 20
1.472440944880001
 11
0.546220472441
 21
1.45763779528
  0
LINE
  5
1F8
100
AcDbEntity
  8
Reference
  6
ByLayer
 62
  256
370
   -1
100
AcDbLine
 10
0.546220472441
 20
1.45763779528
 11
0.5415748031500005
 21
1.44330708661
  0
LINE
  5
1F9
100
AcDbEntity
  8
Reference
  6
ByLayer
 62
  256
370
   -1
100
AcDbLine
 10
0.5415748031500005
 20
1.44330708661
 11
0.5351574803150001
 21
1.42968503937
  0
LINE
  5
1FA
100
AcDbEntity
  8
Reference
  6
ByLayer
 62
  256
370
   -1
100
AcDbLine
 10
0.5351574803150001
 20
1.42968503937
 11
0.5270866141729993
 21
1.416968503940002
  0
LINE
  5
1FB
100
AcDbEntity
  8
Reference
  6
ByLayer
 62
  256
370
   -1
100
AcDbLine
 10
0.5270866141729993
 20
1.416968503940002
 11
0.5174803149610003
 21
1.405354330710001
  0
LINE
  5
1FC
100
AcDbEntity
  8
Reference
  6
ByLayer
 62
  256
370
   -1
100
AcDbLine
 10
0.5174803149610003
 20
1.405354330710001
 11
0.5064960629919995
 21
1.395039370080001
  0
LINE
  5
1FD
100
AcDbEntity
  8
Reference
  6
ByLayer
 62
  256
370
   -1
100
AcDbLine
 10
0.5064960629919995
 20
1.395039370080001
 11
0.4942913385830003
 21
1.38618110236
  0
LINE
  5
1FE
100
AcDbEntity
  8
Reference
  6
ByLayer
 62
  256
370
   -1
100
AcDbLine
 10
0.4942913385830003
 20
1.38618110236
 11
0.4811023622050001
 21
1.37893700787
  0
LINE
  5
1FF
100
AcDbEntity
  8
Reference
  6
ByLayer
 62
  256
370
   -1
100
AcDbLine
 10
0.4811023622050001
 20
1.37893700787
 11
0.4670866141730006
 21
1.373385826770001
  0
LINE
  5
200
100
AcDbEntity
  8
Reference
  6
ByLayer
 62
  256
370
   -1
100
AcDbLine
 10
0.4670866141730006
 20
1.373385826770001
 11
0.4524803149609991
 21
1.36960629921
  0
LINE
  5
201
100
AcDbEntity
  8
Reference
  6
ByLayer
 62
  256
370
   -1
100
AcDbLine
 10
0.4524803149609991
 20
1.36960629921
 11
0.4375196850389997
 21
1.36775590551
  0
LINE
  5
202
100
AcDbEntity
  8
Reference
  6
ByLayer
 62
  256
370
   -1
100
AcDbLine
 10
0.4375196850389997
 20
1.36775590551
 11
0.4299999999999997
 21
1.36775590551
  0
LINE
  5
203
100
AcDbEntity
  8
Reference
  6
ByLayer
 62
  256
370
   -1
100
AcDbLine
 10
0.4299999999999997
 20
1.36775590551
 11
0.4299999999999997
 21
1.367519685040001
  0
LINE
  5
204
100
AcDbEntity
  8
Reference
  6
ByLayer
 62
  256
370
   -1
100
AcDbLine
 10
0.4299999999999997
 20
1.367519685040001
 11
0.2799999999999994
 21
1.367519685040001
  0
LINE
  5
205
100
AcDbEntity
  8
Reference
  6
ByLayer
 62
  256
370
   -1
100
AcDbLine
 10
0.2799999999999994
 20
1.367519685040001
 11
0.2799999999999994
 21
1.36775590551
  0
LINE
  5
206
100
AcDbEntity
  8
Reference
  6
ByLayer
 62
  256
370
   -1
100
AcDbLine
 10
0.2799999999999994
 20
1.36775590551
 11
0.2724803149609993
 21
1.36775590551
  0
LINE
  5
207
100
AcDbEntity
  8
Reference
  6
ByLayer
 62
  256
370
   -1
100
AcDbLine
 10
0.2724803149609993
 20
1.36775590551
 11
0.257519685039
 21
1.36960629921
  0
LINE
  5
208
100
AcDbEntity
  8
Reference
  6
ByLayer
 62
  256
370
   -1
100
AcDbLine
 10
0.257519685039
 20
1.36960629921
 11
0.2429133858270003
 21
1.373385826770001
  0
LINE
  5
209
100
AcDbEntity
  8
Reference
  6
ByLayer
 62
  256
370
   -1
100
AcDbLine
 10
0.2429133858270003
 20
1.373385826770001
 11
0.2288976377949989
 21
1.37893700787
  0
LINE
  5
20A
100
AcDbEntity
  8
Reference
  6
ByLayer
 62
  256
370
   -1
100
AcDbLine
 10
0.2288976377949989
 20
1.37893700787
 11
0.2157086614170005
 21
1.38618110236
  0
LINE
  5
20B
100
AcDbEntity
  8
Reference
  6
ByLayer
 62
  256
370
   -1
100
AcDbLine
 10
0.2157086614170005
 20
1.38618110236
 11
0.2035039370079996
 21
1.395039370080001
  0
LINE
  5
20C
100
AcDbEntity
  8
Reference
  6
ByLayer
 62
  256
370
   -1
100
AcDbLine
 10
0.2035039370079996
 20
1.395039370080001
 11
0.1925196850390005
 21
1.405354330710001
  0
LINE
  5
20D
100
AcDbEntity
  8
Reference
  6
ByLayer
 62
  256
370
   -1
100
AcDbLine
 10
0.1925196850390005
 20
1.405354330710001
 11
0.1829133858269998
 21
1.416968503940002
  0
LINE
  5
20E
100
AcDbEntity
  8
Reference
  6
ByLayer
 62
  256
370
   -1
100
AcDbLine
 10
0.1829133858269998
 20
1.416968503940002
 11
0.174842519684999
 21
1.42968503937
  0
LINE
  5
20F
100
AcDbEntity
  8
Reference
  6
ByLayer
 62
  256
370
   -1
100
AcDbLine
 10
0.174842519684999
 20
1.42968503937
 11
0.1684251968500003
 21
1.44330708661
  0
LINE
  5
210
100
AcDbEntity
  8
Reference
  6
ByLayer
 62
  256
370
   -1
100
AcDbLine
 10
0.1684251968500003
 20
1.44330708661
 11
0.163779527558999
 21
1.45763779528
  0
LINE
  5
211
100
AcDbEntity
  8
Reference
  6
ByLayer
 62
  256
370
   -1
100
AcDbLine
 10
0.163779527558999
 20
1.45763779528
 11
0.1609448818899999
 21
1.472440944880001
  0
LINE
  5
212
100
AcDbEntity
  8
Reference
  6
ByLayer
 62
  256
370
   -1
100
AcDbLine
 10
0.1609448818899999
 20
1.472440944880001
 11
0.1600000000000001
 21
1.487519685040001
  0
LINE
  5
213
100
AcDbEntity
  8
Reference
  6
ByLayer
 62
  256
370
   -1
100
AcDbLine
 10
18.47
 20
0.2524803149600015
 11
18.4709448819
 21
0.2675590551200013
  0
LINE
  5
214
100
AcDbEntity
  8
Reference
  6
ByLayer
 62
  256
370
   -1
100
AcDbLine
 10
18.4709448819
 20
0.2675590551200013
 11
18.4737795276
 21
0.2823622047200018
  0
LINE
  5
215
100
AcDbEntity
  8
Reference
  6
ByLayer
 62
  256
370
   -1
100
AcDbLine
 10
18.4737795276
 20
0.2823622047200018
 11
18.4784251969
 21
0.296692913390002
  0
LINE
  5
216
100
AcDbEntity
  8
Reference
  6
ByLayer
 62
  256
370
   -1
100
AcDbLine
 10
18.4784251969
 20
0.296692913390002
 11
18.4848425197
 21
0.3103149606300022
  0
LINE
  5
217
100
AcDbEntity
  8
Reference
  6
ByLayer
 62
  256
370
   -1
100
AcDbLine
 10
18.4848425197
 20
0.3103149606300022
 11
18.4929133858
 21
0.3230314960600023
  0
LINE
  5
218
100
AcDbEntity
  8
Reference
  6
ByLayer
 62
  256
370
   -1
100
AcDbLine
 10
18.4929133858
 20
0.3230314960600023
 11
18.502519685
 21
0.3346456692900013
  0
LINE
  5
219
100
AcDbEntity
  8
Reference
  6
ByLayer
 62
  256
370
   -1
100
AcDbLine
 10
18.502519685
 20
0.3346456692900013
 11
18.513503937
 21
0.344960629920001
  0
LINE
  5
21A
100
AcDbEntity
  8
Reference
  6
ByLayer
 62
  256
370
   -1
100
AcDbLine
 10
18.513503937
 20
0.344960629920001
 11
18.5257086614
 21
0.3538188976400019
  0
LINE
  5
21B
100
AcDbEntity
  8
Reference
  6
ByLayer
 62
  256
370
   -1
100
AcDbLine
 10
18.5257086614
 20
0.3538188976400019
 11
18.5388976378
 21
0.3610629921300017
  0
LINE
  5
21C
100
AcDbEntity
  8
Reference
  6
ByLayer
 62
  256
370
   -1
100
AcDbLine
 10
18.5388976378
 20
0.3610629921300017
 11
18.5529133858
 21
0.3666141732300012
  0
LINE
  5
21D
100
AcDbEntity
  8
Reference
  6
ByLayer
 62
  256
370
   -1
100
AcDbLine
 10
18.5529133858
 20
0.3666141732300012
 11
18.567519685
 21
0.370393700790002
  0
LINE
  5
21E
100
AcDbEntity
  8
Reference
  6
ByLayer
 62
  256
370
   -1
100
AcDbLine
 10
18.567519685
 20
0.370393700790002
 11
18.582480315
 21
0.3722440944900018
  0
LINE
  5
21F
100
AcDbEntity
  8
Reference
  6
ByLayer
 62
  256
370
   -1
100
AcDbLine
 10
18.582480315
 20
0.3722440944900018
 11
18.59
 21
0.3722440944900018
  0
LINE
  5
220
100
AcDbEntity
  8
Reference
  6
ByLayer
 62
  256
370
   -1
100
AcDbLine
 10
18.59
 20
0.3722440944900018
 11
18.59
 21
0.3724803149600007
  0
LINE
  5
221
100
AcDbEntity
  8
Reference
  6
ByLayer
 62
  256
370
   -1
100
AcDbLine
 10
18.59
 20
0.3724803149600007
 11
18.74
 21
0.3724803149600007
  0
LINE
  5
222
100
AcDbEntity
  8
Reference
  6
ByLayer
 62
  256
370
   -1
100
AcDbLine
 10
18.74
 20
0.3724803149600007
 11
18.74
 21
0.3722440944900018
  0
LINE
  5
223
100
AcDbEntity
  8
Reference
  6
ByLayer
 62
  256
370
   -1
100
AcDbLine
 10
18.74
 20
0.3722440944900018
 11
18.747519685
 21
0.3722440944900018
  0
LINE
  5
224
100
AcDbEntity
  8
Reference
  6
ByLayer
 62
  256
370
   -1
100
AcDbLine
 10
18.747519685
 20
0.3722440944900018
 11
18.762480315
 21
0.370393700790002
  0
LINE
  5
225
100
AcDbEntity
  8
Reference
  6
ByLayer
 62
  256
370
   -1
100
AcDbLine
 10
18.762480315
 20
0.370393700790002
 11
18.7770866142
 21
0.3666141732300012
  0
LINE
  5
226
100
AcDbEntity
  8
Reference
  6
ByLayer
 62
  256
370
   -1
100
AcDbLine
 10
18.7770866142
 20
0.3666141732300012
 11
18.7911023622
 21
0.3610629921300017
  0
LINE
  5
227
100
AcDbEntity
  8
Reference
  6
ByLayer
 62
  256
370
   -1
100
AcDbLine
 10
18.7911023622
 20
0.3610629921300017
 11
18.8042913386
 21
0.3538188976400019
  0
LINE
  5
228
100
AcDbEntity
  8
Reference
  6
ByLayer
 62
  256
370
   -1
100
AcDbLine
 10
18.8042913386
 20
0.3538188976400019
 11
18.816496063
 21
0.344960629920001
  0
LINE
  5
229
100
AcDbEntity
  8
Reference
  6
ByLayer
 62
  256
370
   -1
100
AcDbLine
 10
18.816496063
 20
0.344960629920001
 11
18.827480315
 21
0.3346456692900013
  0
LINE
  5
22A
100
AcDbEntity
  8
Reference
  6
ByLayer
 62
  256
370
   -1
100
AcDbLine
 10
18.827480315
 20
0.3346456692900013
 11
18.8370866142
 21
0.3230314960600023
  0
LINE
  5
22B
100
AcDbEntity
  8
Reference
  6
ByLayer
 62
  256
370
   -1
100
AcDbLine
 10
18.8370866142
 20
0.3230314960600023
 11
18.8451574803
 21
0.3103149606300022
  0
LINE
  5
22C
100
AcDbEntity
  8
Reference
  6
ByLayer
 62
  256
370
   -1
100
AcDbLine
 10
18.8451574803
 20
0.3103149606300022
 11
18.8515748031
 21
0.296692913390002
  0
LINE
  5
22D
100
AcDbEntity
  8
Reference
  6
ByLayer
 62
  256
370
   -1
100
AcDbLine
 10
18.8515748031
 20
0.296692913390002
 11
18.8562204724
 21
0.2823622047200018
  0
LINE
  5
22E
100
AcDbEntity
  8
Reference
  6
ByLayer
 62
  256
370
   -1
100
AcDbLine
 10
18.8562204724
 20
0.2823622047200018
 11
18.8590551181
 21
0.2675590551200013
  0
LINE
  5
22F
100
AcDbEntity
  8
Reference
  6
ByLayer
 62
  256
370
   -1
100
AcDbLine
 10
18.8590551181
 20
0.2675590551200013
 11
18.86
 21
0.2524803149600015
  0
LINE
  5
230
100
AcDbEntity
  8
Reference
  6
ByLayer
 62
  256
370
   -1
100
AcDbLine
 10
18.86
 20
0.2524803149600015
 11
18.8590551181
 21
0.2374409448800012
  0
LINE
  5
231
100
AcDbEntity
  8
Reference
  6
ByLayer
 62
  256
370
   -1
100
AcDbLine
 10
18.8590551181
 20
0.2374409448800012
 11
18.8562204724
 21
0.2226377952800007
  0
LINE
  5
232
100
AcDbEntity
  8
Reference
  6
ByLayer
 62
  256
370
   -1
100
AcDbLine
 10
18.8562204724
 20
0.2226377952800007
 11
18.8515748031
 21
0.2083070866100023
  0
LINE
  5
233
100
AcDbEntity
  8
Reference
  6
ByLayer
 62
  256
370
   -1
100
AcDbLine
 10
18.8515748031
 20
0.2083070866100023
 11
18.8451574803
 21
0.1946850393700021
  0
LINE
  5
234
100
AcDbEntity
  8
Reference
  6
ByLayer
 62
  256
370
   -1
100
AcDbLine
 10
18.8451574803
 20
0.1946850393700021
 11
18.8370866142
 21
0.1819685039400021
  0
LINE
  5
235
100
AcDbEntity
  8
Reference
  6
ByLayer
 62
  256
370
   -1
100
AcDbLine
 10
18.8370866142
 20
0.1819685039400021
 11
18.827480315
 21
0.1703543307100013
  0
LINE
  5
236
100
AcDbEntity
  8
Reference
  6
ByLayer
 62
  256
370
   -1
100
AcDbLine
 10
18.827480315
 20
0.1703543307100013
 11
18.816496063
 21
0.1600393700800016
  0
LINE
  5
237
100
AcDbEntity
  8
Reference
  6
ByLayer
 62
  256
370
   -1
100
AcDbLine
 10
18.816496063
 20
0.1600393700800016
 11
18.8042913386
 21
0.1511811023600007
  0
LINE
  5
238
100
AcDbEntity
  8
Reference
  6
ByLayer
 62
  256
370
   -1
100
AcDbLine
 10
18.8042913386
 20
0.1511811023600007
 11
18.7911023622
 21
0.1439370078700009
  0
LINE
  5
239
100
AcDbEntity
  8
Reference
  6
ByLayer
 62
  256
370
   -1
100
AcDbLine
 10
18.7911023622
 20
0.1439370078700009
 11
18.7770866142
 21
0.1383858267700013
  0
LINE
  5
23A
100
AcDbEntity
  8
Reference
  6
ByLayer
 62
  256
370
   -1
100
AcDbLine
 10
18.7770866142
 20
0.1383858267700013
 11
18.762480315
 21
0.1346062992100023
  0
LINE
  5
23B
100
AcDbEntity
  8
Reference
  6
ByLayer
 62
  256
370
   -1
100
AcDbLine
 10
18.762480315
 20
0.1346062992100023
 11
18.747519685
 21
0.1327559055100007
  0
LINE
  5
23C
100
AcDbEntity
  8
Reference
  6
ByLayer
 62
  256
370
   -1
100
AcDbLine
 10
18.747519685
 20
0.1327559055100007
 11
18.74
 21
0.1327559055100007
  0
LINE
  5
23D
100
AcDbEntity
  8
Reference
  6
ByLayer
 62
  256
370
   -1
100
AcDbLine
 10
18.74
 20
0.1327559055100007
 11
18.74
 21
0.1325196850400019
  0
LINE
  5
23E
100
AcDbEntity
  8
Reference
  6
ByLayer
 62
  256
370
   -1
100
AcDbLine
 10
18.74
 20
0.1325196850400019
 11
18.59
 21
0.1325196850400019
  0
LINE
  5
23F
100
AcDbEntity
  8
Reference
  6
ByLayer
 62
  256
370
   -1
100
AcDbLine
 10
18.59
 20
0.1325196850400019
 11
18.59
 21
0.1327559055100007
  0
LINE
  5
240
100
AcDbEntity
  8
Reference
  6
ByLayer
 62
  256
370
   -1
100
AcDbLine
 10
18.59
 20
0.1327559055100007
 11
18.582480315
 21
0.1327559055100007
  0
LINE
  5
241
100
AcDbEntity
  8
Reference
  6
ByLayer
 62
  256
370
   -1
100
AcDbLine
 10
18.582480315
 20
0.1327559055100007
 11
18.567519685
 21
0.1346062992100023
  0
LINE
  5
242
100
AcDbEntity
  8
Reference
  6
ByLayer
 62
  256
370
   -1
100
AcDbLine
 10
18.567519685
 20
0.1346062992100023
 11
18.5529133858
 21
0.1383858267700013
  0
LINE
  5
243
100
AcDbEntity
  8
Reference
  6
ByLayer
 62
  256
370
   -1
100
AcDbLine
 10
18.5529133858
 20
0.1383858267700013
 11
18.5388976378
 21
0.1439370078700009
  0
LINE
  5
244
100
AcDbEntity
  8
Reference
  6
ByLayer
 62
  256
370
   -1
100
AcDbLine
 10
18.5388976378
 20
0.1439370078700009
 11
18.5257086614
 21
0.1511811023600007
  0
LINE
  5
245
100
AcDbEntity
  8
Reference
  6
ByLayer
 62
  256
370
   -1
100
AcDbLine
 10
18.5257086614
 20
0.1511811023600007
 11
18.513503937
 21
0.1600393700800016
  0
LINE
  5
246
100
AcDbEntity
  8
Reference
  6
ByLayer
 62
  256
370
   -1
100
AcDbLine
 10
18.513503937
 20
0.1600393700800016
 11
18.502519685
 21
0.1703543307100013
  0
LINE
  5
247
100
AcDbEntity
  8
Reference
  6
ByLayer
 62
  256
370
   -1
100
AcDbLine
 10
18.502519685
 20
0.1703543307100013
 11
18.4929133858
 21
0.1819685039400021
  0
LINE
  5
248
100
AcDbEntity
  8
Reference
  6
ByLayer
 62
  256
370
   -1
100
AcDbLine
 10
18.4929133858
 20
0.1819685039400021
 11
18.4848425197
 21
0.1946850393700021
  0
LINE
  5
249
100
AcDbEntity
  8
Reference
  6
ByLayer
 62
  256
370
   -1
100
AcDbLine
 10
18.4848425197
 20
0.1946850393700021
 11
18.4784251969
 21
0.2083070866100023
  0
LINE
  5
24A
100
AcDbEntity
  8
Reference
  6
ByLayer
 62
  256
370
   -1
100
AcDbLine
 10
18.4784251969
 20
0.2083070866100023
 11
18.4737795276
 21
0.2226377952800007
  0
LINE
  5
24B
100
AcDbEntity
  8
Reference
  6
ByLayer
 62
  256
370
   -1
100
AcDbLine
 10
18.4737795276
 20
0.2226377952800007
 11
18.4709448819
 21
0.2374409448800012
  0
LINE
  5
24C
100
AcDbEntity
  8
Reference
  6
ByLayer
 62
  256
370
   -1
100
AcDbLine
 10
18.4709448819
 20
0.2374409448800012
 11
18.47
 21
0.2524803149600015
  0
LINE
  5
24D
100
AcDbEntity
  8
Reference
  6
ByLayer
 62
  256
370
   -1
100
AcDbLine
 10
18.47
 20
1.487519685040002
 11
18.4709448819
 21
1.502559055120001
  0
LINE
  5
24E
100
AcDbEntity
  8
Reference
  6
ByLayer
 62
  256
370
   -1
100
AcDbLine
 10
18.4709448819
 20
1.502559055120001
 11
18.4737795276
 21
1.517362204720001
  0
LINE
  5
24F
100
AcDbEntity
  8
Reference
  6
ByLayer
 62
  256
370
   -1
100
AcDbLine
 10
18.4737795276
 20
1.517362204720001
 11
18.4784251969
 21
1.531692913390001
  0
LINE
  5
250
100
AcDbEntity
  8
Reference
  6
ByLayer
 62
  256
370
   -1
100
AcDbLine
 10
18.4784251969
 20
1.531692913390001
 11
18.4848425197
 21
1.545314960630002
  0
LINE
  5
251
100
AcDbEntity
  8
Reference
  6
ByLayer
 62
  256
370
   -1
100
AcDbLine
 10
18.4848425197
 20
1.545314960630002
 11
18.4929133858
 21
1.558031496060002
  0
LINE
  5
252
100
AcDbEntity
  8
Reference
  6
ByLayer
 62
  256
370
   -1
100
AcDbLine
 10
18.4929133858
 20
1.558031496060002
 11
18.502519685
 21
1.569645669290001
  0
LINE
  5
253
100
AcDbEntity
  8
Reference
  6
ByLayer
 62
  256
370
   -1
100
AcDbLine
 10
18.502519685
 20
1.569645669290001
 11
18.513503937
 21
1.579960629920002
  0
LINE
  5
254
100
AcDbEntity
  8
Reference
  6
ByLayer
 62
  256
370
   -1
100
AcDbLine
 10
18.513503937
 20
1.579960629920002
 11
18.5257086614
 21
1.588818897640001
  0
LINE
  5
255
100
AcDbEntity
  8
Reference
  6
ByLayer
 62
  256
370
   -1
100
AcDbLine
 10
18.5257086614
 20
1.588818897640001
 11
18.5388976378
 21
1.596062992130001
  0
LINE
  5
256
100
AcDbEntity
  8
Reference
  6
ByLayer
 62
  256
370
   -1
100
AcDbLine
 10
18.5388976378
 20
1.596062992130001
 11
18.5529133858
 21
1.601614173230001
  0
LINE
  5
257
100
AcDbEntity
  8
Reference
  6
ByLayer
 62
  256
370
   -1
100
AcDbLine
 10
18.5529133858
 20
1.601614173230001
 11
18.567519685
 21
1.605393700790001
  0
LINE
  5
258
100
AcDbEntity
  8
Reference
  6
ByLayer
 62
  256
370
   -1
100
AcDbLine
 10
18.567519685
 20
1.605393700790001
 11
18.582480315
 21
1.607244094490001
  0
LINE
  5
259
100
AcDbEntity
  8
Reference
  6
ByLayer
 62
  256
370
   -1
100
AcDbLine
 10
18.582480315
 20
1.607244094490001
 11
18.59
 21
1.607244094490001
  0
LINE
  5
25A
100
AcDbEntity
  8
Reference
  6
ByLayer
 62
  256
370
   -1
100
AcDbLine
 10
18.59
 20
1.607244094490001
 11
18.59
 21
1.607480314960002
  0
LINE
  5
25B
100
AcDbEntity
  8
Reference
  6
ByLayer
 62
  256
370
   -1
100
AcDbLine
 10
18.59
 20
1.607480314960002
 11
18.74
 21
1.607480314960002
  0
LINE
  5
25C
100
AcDbEntity
  8
Reference
  6
ByLayer
 62
  256
370
   -1
100
AcDbLine
 10
18.74
 20
1.607480314960002
 11
18.74
 21
1.607244094490001
  0
LINE
  5
25D
100
AcDbEntity
  8
Reference
  6
ByLayer
 62
  256
370
   -1
100
AcDbLine
 10
18.74
 20
1.607244094490001
 11
18.747519685
 21
1.607244094490001
  0
LINE
  5
25E
100
AcDbEntity
  8
Reference
  6
ByLayer
 62
  256
370
   -1
100
AcDbLine
 10
18.747519685
 20
1.607244094490001
 11
18.762480315
 21
1.605393700790001
  0
LINE
  5
25F
100
AcDbEntity
  8
Reference
  6
ByLayer
 62
  256
370
   -1
100
AcDbLine
 10
18.762480315
 20
1.605393700790001
 11
18.7770866142
 21
1.601614173230001
  0
LINE
  5
260
100
AcDbEntity
  8
Reference
  6
ByLayer
 62
  256
370
   -1
100
AcDbLine
 10
18.7770866142
 20
1.601614173230001
 11
18.7911023622
 21
1.596062992130001
  0
LINE
  5
261
100
AcDbEntity
  8
Reference
  6
ByLayer
 62
  256
370
   -1
100
AcDbLine
 10
18.7911023622
 20
1.596062992130001
 11
18.8042913386
 21
1.588818897640001
  0
LINE
  5
262
100
AcDbEntity
  8
Reference
  6
ByLayer
 62
  256
370
   -1
100
AcDbLine
 10
18.8042913386
 20
1.588818897640001
 11
18.816496063
 21
1.579960629920002
  0
LINE
  5
263
100
AcDbEntity
  8
Reference
  6
ByLayer
 62
  256
370
   -1
100
AcDbLine
 10
18.816496063
 20
1.579960629920002
 11
18.827480315
 21
1.569645669290001
  0
LINE
  5
264
100
AcDbEntity
  8
Reference
  6
ByLayer
 62
  256
370
   -1
100
AcDbLine
 10
18.827480315
 20
1.569645669290001
 11
18.8370866142
 21
1.558031496060002
  0
LINE
  5
265
100
AcDbEntity
  8
Reference
  6
ByLayer
 62
  256
370
   -1
100
AcDbLine
 10
18.8370866142
 20
1.558031496060002
 11
18.8451574803
 21
1.545314960630002
  0
LINE
  5
266
100
AcDbEntity
  8
Reference
  6
ByLayer
 62
  256
370
   -1
100
AcDbLine
 10
18.8451574803
 20
1.545314960630002
 11
18.8515748031
 21
1.531692913390001
  0
LINE
  5
267
100
AcDbEntity
  8
Reference
  6
ByLayer
 62
  256
370
   -1
100
AcDbLine
 10
18.8515748031
 20
1.531692913390001
 11
18.8562204724
 21
1.517362204720001
  0
LINE
  5
268
100
AcDbEntity
  8
Reference
  6
ByLayer
 62
  256
370
   -1
100
AcDbLine
 10
18.8562204724
 20
1.517362204720001
 11
18.8590551181
 21
1.502559055120001
  0
LINE
  5
269
100
AcDbEntity
  8
Reference
  6
ByLayer
 62
  256
370
   -1
100
AcDbLine
 10
18.8590551181
 20
1.502559055120001
 11
18.86
 21
1.487519685040002
  0
LINE
  5
26A
100
AcDbEntity
  8
Reference
  6
ByLayer
 62
  256
370
   -1
100
AcDbLine
 10
18.86
 20
1.487519685040002
 11
18.8590551181
 21
1.472440944880002
  0
LINE
  5
26B
100
AcDbEntity
  8
Reference
  6
ByLayer
 62
  256
370
   -1
100
AcDbLine
 10
18.8590551181
 20
1.472440944880002
 11
18.8562204724
 21
1.457637795280002
  0
LINE
  5
26C
100
AcDbEntity
  8
Reference
  6
ByLayer
 62
  256
370
   -1
100
AcDbLine
 10
18.8562204724
 20
1.457637795280002
 11
18.8515748031
 21
1.443307086610002
  0
LINE
  5
26D
100
AcDbEntity
  8
Reference
  6
ByLayer
 62
  256
370
   -1
100
AcDbLine
 10
18.8515748031
 20
1.443307086610002
 11
18.8451574803
 21
1.429685039370002
  0
LINE
  5
26E
100
AcDbEntity
  8
Reference
  6
ByLayer
 62
  256
370
   -1
100
AcDbLine
 10
18.8451574803
 20
1.429685039370002
 11
18.8370866142
 21
1.416968503940002
  0
LINE
  5
26F
100
AcDbEntity
  8
Reference
  6
ByLayer
 62
  256
370
   -1
100
AcDbLine
 10
18.8370866142
 20
1.416968503940002
 11
18.827480315
 21
1.405354330710001
  0
LINE
  5
270
100
AcDbEntity
  8
Reference
  6
ByLayer
 62
  256
370
   -1
100
AcDbLine
 10
18.827480315
 20
1.405354330710001
 11
18.816496063
 21
1.395039370080001
  0
LINE
  5
271
100
AcDbEntity
  8
Reference
  6
ByLayer
 62
  256
370
   -1
100
AcDbLine
 10
18.816496063
 20
1.395039370080001
 11
18.8042913386
 21
1.386181102360002
  0
LINE
  5
272
100
AcDbEntity
  8
Reference
  6
ByLayer
 62
  256
370
   -1
100
AcDbLine
 10
18.8042913386
 20
1.386181102360002
 11
18.7911023622
 21
1.378937007870002
  0
LINE
  5
273
100
AcDbEntity
  8
Reference
  6
ByLayer
 62
  256
370
   -1
100
AcDbLine
 10
18.7911023622
 20
1.378937007870002
 11
18.7770866142
 21
1.373385826770001
  0
LINE
  5
274
100
AcDbEntity
  8
Reference
  6
ByLayer
 62
  256
370
   -1
100
AcDbLine
 10
18.7770866142
 20
1.373385826770001
 11
18.762480315
 21
1.369606299210002
  0
LINE
  5
275
100
AcDbEntity
  8
Reference
  6
ByLayer
 62
  256
370
   -1
100
AcDbLine
 10
18.762480315
 20
1.369606299210002
 11
18.747519685
 21
1.367755905510002
  0
LINE
  5
276
100
AcDbEntity
  8
Reference
  6
ByLayer
 62
  256
370
   -1
100
AcDbLine
 10
18.747519685
 20
1.367755905510002
 11
18.74
 21
1.367755905510002
  0
LINE
  5
277
100
AcDbEntity
  8
Reference
  6
ByLayer
 62
  256
370
   -1
100
AcDbLine
 10
18.74
 20
1.367755905510002
 11
18.74
 21
1.367519685040001
  0
LINE
  5
278
100
AcDbEntity
  8
Reference
  6
ByLayer
 62
  256
370
   -1
100
AcDbLine
 10
18.74
 20
1.367519685040001
 11
18.59
 21
1.367519685040001
  0
LINE
  5
279
100
AcDbEntity
  8
Reference
  6
ByLayer
 62
  256
370
   -1
100
AcDbLine
 10
18.59
 20
1.367519685040001
 11
18.59
 21
1.367755905510002
  0
LINE
  5
27A
100
AcDbEntity
  8
Reference
  6
ByLayer
 62
  256
370
   -1
100
AcDbLine
 10
18.59
 20
1.367755905510002
 11
18.582480315
 21
1.367755905510002
  0
LINE
  5
27B
100
AcDbEntity
  8
Reference
  6
ByLayer
 62
  256
370
   -1
100
AcDbLine
 10
18.582480315
 20
1.367755905510002
 11
18.567519685
 21
1.369606299210002
  0
LINE
  5
27C
100
AcDbEntity
  8
Reference
  6
ByLayer
 62
  256
370
   -1
100
AcDbLine
 10
18.567519685
 20
1.369606299210002
 11
18.5529133858
 21
1.373385826770001
  0
LINE
  5
27D
100
AcDbEntity
  8
Reference
  6
ByLayer
 62
  256
370
   -1
100
AcDbLine
 10
18.5529133858
 20
1.373385826770001
 11
18.5388976378
 21
1.378937007870002
  0
LINE
  5
27E
100
AcDbEntity
  8
Reference
  6
ByLayer
 62
  256
370
   -1
100
AcDbLine
 10
18.5388976378
 20
1.378937007870002
 11
18.5257086614
 21
1.386181102360002
  0
LINE
  5
27F
100
AcDbEntity
  8
Reference
  6
ByLayer
 62
  256
370
   -1
100
AcDbLine
 10
18.5257086614
 20
1.386181102360002
 11
18.513503937
 21
1.395039370080001
  0
LINE
  5
280
100
AcDbEntity
  8
Reference
  6
ByLayer
 62
  256
370
   -1
100
AcDbLine
 10
18.513503937
 20
1.395039370080001
 11
18.502519685
 21
1.405354330710001
  0
LINE
  5
281
100
AcDbEntity
  8
Reference
  6
ByLayer
 62
  256
370
   -1
100
AcDbLine
 10
18.502519685
 20
1.405354330710001
 11
18.4929133858
 21
1.416968503940002
  0
LINE
  5
282
100
AcDbEntity
  8
Reference
  6
ByLayer
 62
  256
370
   -1
100
AcDbLine
 10
18.4929133858
 20
1.416968503940002
 11
18.4848425197
 21
1.429685039370002
  0
LINE
  5
283
100
AcDbEntity
  8
Reference
  6
ByLayer
 62
  256
370
   -1
100
AcDbLine
 10
18.4848425197
 20
1.429685039370002
 11
18.4784251969
 21
1.443307086610002
  0
LINE
  5
284
100
AcDbEntity
  8
Reference
  6
ByLayer
 62
  256
370
   -1
100
AcDbLine
 10
18.4784251969
 20
1.443307086610002
 11
18.4737795276
 21
1.457637795280002
  0
LINE
  5
285
100
AcDbEntity
  8
Reference
  6
ByLayer
 62
  256
370
   -1
100
AcDbLine
 10
18.4737795276
 20
1.457637795280002
 11
18.4709448819
 21
1.472440944880002
  0
LINE
  5
286
100
AcDbEntity
  8
Reference
  6
ByLayer
 62
  256
370
   -1
100
AcDbLine
 10
18.4709448819
 20
1.472440944880002
 11
18.47
 21
1.487519685040002
  0
LINE
  5
287
100
AcDbEntity
  8
Reference
  6
ByLayer
 62
  256
370
   -1
100
AcDbLine
 10
0.2799999999999994
 20
1.60748031496
 11
0.4299999999999997
 21
1.60748031496
  0
LINE
  5
288
100
AcDbEntity
  8
Boundary
  6
ByLayer
 62
  256
370
   -1
100
AcDbLine
 10
0
 20
0
 11
0
 21
1.74
  0
LINE
  5
289
100
AcDbEntity
  8
Boundary
  6
ByLayer
 62
  256
370
   -1
100
AcDbLine
 10
0
 20
1.74
 11
19.02
 21
1.740000000000002
  0
LINE
  5
28A
100
AcDbEntity
  8
Boundary
  6
ByLayer
 62
  256
370
   -1
100
AcDbLine
 10
19.02
 20
1.740000000000002
 11
19.02
 21
1.77635683940025e-15
  0
LINE
  5
28B
100
AcDbEntity
  8
Boundary
  6
ByLayer
 62
  256
370
   -1
100
AcDbLine
 10
19.02
 20
1.77635683940025e-15
 11
0
 21
0
  0
LINE
  5
28C
100
AcDbEntity
  8
Cutout
  6
ByLayer
 62
  256
370
   -1
100
AcDbLine
 10
9.970000000000001
 20
0.2074803149600015
 11
9.970000000000001
 21
1.532519685040002
  0
LINE
  5
28D
100
AcDbEntity
  8
Cutout
  6
ByLayer
 62
  256
370
   -1
100
AcDbLine
 10
9.970000000000001
 20
1.532519685040002
 11
10.47
 21
1.532519685040002
  0
LINE
  5
28E
100
AcDbEntity
  8
Cutout
  6
ByLayer
 62
  256
370
   -1
100
AcDbLine
 10
10.47
 20
1.532519685040002
 11
10.47
 21
0.2074803149600015
  0
LINE
  5
28F
100
AcDbEntity
  8
Cutout
  6
ByLayer
 62
  256
370
   -1
100
AcDbLine
 10
10.47
 20
0.2074803149600015
 11
9.970000000000001
 21
0.2074803149600015
  0
LINE
  5
290
100
AcDbEntity
  8
Cutout
  6
ByLayer
 62
  256
370
   -1
100
AcDbLine
 10
11.4377559055
 20
0.5619685039400011
 11
11.4377559055
 21
0.8513385826800022
  0
LINE
  5
291
100
AcDbEntity
  8
Cutout
  6
ByLayer
 62
  256
370
   -1
100
AcDbLine
 10
11.4377559055
 20
0.8513385826800022
 11
11.8822440945
 21
0.8513385826800022
  0
LINE
  5
292
100
AcDbEntity
  8
Cutout
  6
ByLayer
 62
  256
370
   -1
100
AcDbLine
 10
11.8822440945
 20
0.8513385826800022
 11
11.8822440945
 21
0.5619685039400011
  0
LINE
  5
293
100
AcDbEntity
  8
Cutout
  6
ByLayer
 62
  256
370
   -1
100
AcDbLine
 10
11.8822440945
 20
0.5619685039400011
 11
11.4377559055
 21
0.5619685039400011
  0
LINE
  5
294
100
AcDbEntity
  8
Cutout
  6
ByLayer
 62
  256
370
   -1
100
AcDbLine
 10
12.0404724409
 20
0.5186614173200024
 11
12.0404724409
 21
1.038346456690002
  0
LINE
  5
295
100
AcDbEntity
  8
Cutout
  6
ByLayer
 62
  256
370
   -1
100
AcDbLine
 10
12.0404724409
 20
1.038346456690002
 11
12.5995275591
 21
1.038346456690002
  0
LINE
  5
296
100
AcDbEntity
  8
Cutout
  6
ByLayer
 62
  256
370
   -1
100
AcDbLine
 10
12.5995275591
 20
1.038346456690002
 11
12.5995275591
 21
0.5186614173200024
  0
LINE
  5
297
100
AcDbEntity
  8
Cutout
  6
ByLayer
 62
  256
370
   -1
100
AcDbLine
 10
12.5995275591
 20
0.5186614173200024
 11
12.0404724409
 21
0.5186614173200024
  0
LINE
  5
298
100
AcDbEntity
  8
Cutout
  6
ByLayer
 62
  256
370
   -1
100
AcDbLine
 10
12.9654724409
 20
0.5186614173200024
 11
12.9654724409
 21
1.097401574800001
  0
LINE
  5
299
100
AcDbEntity
  8
Cutout
  6
ByLayer
 62
  256
370
   -1
100
AcDbLine
 10
12.9654724409
 20
1.097401574800001
 11
14.2725590551
 21
1.097401574800001
  0
LINE
  5
29A
100
AcDbEntity
  8
Cutout
  6
ByLayer
 62
  256
370
   -1
100
AcDbLine
 10
14.2725590551
 20
1.097401574800001
 11
14.2725590551
 21
0.5186614173200024
  0
LINE
  5
29B
100
AcDbEntity
  8
Cutout
  6
ByLayer
 62
  256
370
   -1
100
AcDbLine
 10
14.2725590551
 20
0.5186614173200024
 11
12.9654724409
 21
0.5186614173200024
  0
LINE
  5
29C
100
AcDbEntity
  8
Cutout
  6
ByLayer
 62
  256
370
   -1
100
AcDbLine
 10
16.1357086614
 20
0.5619685039400011
 11
16.1357086614
 21
0.8513385826800022
  0
LINE
  5
29D
100
AcDbEntity
  8
Cutout
  6
ByLayer
 62
  256
370
   -1
100
AcDbLine
 10
16.1357086614
 20
0.8513385826800022
 11
17.0242913386
 21
0.8513385826800022
  0
LINE
  5
29E
100
AcDbEntity
  8
Cutout
  6
ByLayer
 62
  256
370
   -1
100
AcDbLine
 10
17.0242913386
 20
0.8513385826800022
 11
17.0242913386
 21
0.5619685039400011
  0
LINE
  5
29F
100
AcDbEntity
  8
Cutout
  6
ByLayer
 62
  256
370
   -1
100
AcDbLine
 10
17.0242913386
 20
0.5619685039400011
 11
16.1357086614
 21
0.5619685039400011
  0
LINE
  5
2A0
100
AcDbEntity
  8
Cutout
  6
ByLayer
 62
  256
370
   -1
100
AcDbLine
 10
17.2788976378
 20
0.5983464566900007
 11
17.2788976378
 21
1.141653543310001
  0
LINE
  5
2A1
100
AcDbEntity
  8
Cutout
  6
ByLayer
 62
  256
370
   -1
100
AcDbLine
 10
17.2788976378
 20
1.141653543310001
 11
17.6411023622
 21
1.141653543310001
  0
LINE
  5
2A2
100
AcDbEntity
  8
Cutout
  6
ByLayer
 62
  256
370
   -1
100
AcDbLine
 10
17.6411023622
 20
1.141653543310001
 11
17.6411023622
 21
0.5983464566900007
  0
LINE
  5
2A3
100
AcDbEntity
  8
Cutout
  6
ByLayer
 62
  256
370
   -1
100
AcDbLine
 10
17.6411023622
 20
0.5983464566900007
 11
17.2788976378
 21
0.5983464566900007
  0
LINE
  5
2A4
100
AcDbEntity
  8
Cutout
  6
ByLayer
 62
  256
370
   -1
100
AcDbLine
 10
10.9862
 20
0.8513400000000022
 11
10.9862
 21
0.5619700000000023
  0
LINE
  5
2A5
100
AcDbEntity
  8
Cutout
  6
ByLayer
 62
  256
370
   -1
100
AcDbLine
 10
10.7338
 20
0.5619700000000023
 11
10.7338
 21
0.8513400000000022
  0
LINE
  5
2A6
100
AcDbEntity
  8
Cutout
  6
ByLayer
 62
  256
370
   -1
100
AcDbLine
 10
10.9862
 20
0.5619700000000023
 11
10.7338
 21
0.5619700000000023
  0
LINE
  5
2A7
100
AcDbEntity
  8
Cutout
  6
ByLayer
 62
  256
370
   -1
100
AcDbLine
 10
10.7338
 20
0.8513400000000022
 11
10.9862
 21
0.8513400000000022
  0
LINE
  5
2A8
100
AcDbEntity
  8
Cutout
  6
ByLayer
 62
  256
370
   -1
100
AcDbLine
 10
14.78
 20
0.490000000000002
 11
14.78
 21
0.7600000000000016
  0
LINE
  5
2A9
100
AcDbEntity
  8
Cutout
  6
ByLayer
 62
  256
370
   -1
100
AcDbLine
 10
15.98
 20
0.7600000000000016
 11
15.98
 21
0.490000000000002
  0
LINE
  5
2AA
100
AcDbEntity
  8
Cutout
  6
ByLayer
 62
  256
370
   -1
100
AcDbLine
 10
14.78
 20
0.7600000000000016
 11
15.98
 21
0.7600000000000016
  0
LINE
  5
2AB
100
AcDbEntity
  8
Cutout
  6
ByLayer
 62
  256
370
   -1
100
AcDbLine
 10
15.98
 20
0.490000000000002
 11
14.78
 21
0.490000000000002
  0
MTEXT
  5
2AC
100
AcDbEntity
  8
engrave
  6
ByLayer
 62
  256
370
   -1
100
AcDbMText
 10
1.91
 20
1.390000000000001
 30
0
 40
0.15
 41
0.466666666666676
 71
    1
 72
    1
  1
ADC0
  7
iso
210
0
220
0
230
1
 50
0
 73
    2
 44
1
  0
MTEXT
  5
2AD
100
AcDbEntity
  8
engrave
  6
ByLayer
 62
  256
370
   -1
100
AcDbMText
 10
2.71
 20
1.390000000000001
 30
0
 40
0.15
 41
0.4333333333333427
 71
    1
 72
    1
  1
ADC1
  7
iso
210
0
220
0
230
1
 50
0
 73
    2
 44
1
  0
MTEXT
  5
2AE
100
AcDbEntity
  8
engrave
  6
ByLayer
 62
  256
370
   -1
100
AcDbMText
 10
3.48
 20
1.390000000000001
 30
0
 40
0.15
 41
0.466666666666676
 71
    1
 72
    1
  1
ADC2
  7
iso
210
0
220
0
230
1
 50
0
 73
    2
 44
1
  0
MTEXT
  5
2AF
100
AcDbEntity
  8
engrave
  6
ByLayer
 62
  256
370
   -1
100
AcDbMText
 10
5.095
 20
1.390000000000001
 30
0
 40
0.15
 41
0.4666666666666759
 71
    1
 72
    1
  1
DAC0
  7
iso
210
0
220
0
230
1
 50
0
 73
    2
 44
1
  0
MTEXT
  5
2B0
100
AcDbEntity
  8
engrave
  6
ByLayer
 62
  256
370
   -1
100
AcDbMText
 10
5.91
 20
1.390000000000001
 30
0
 40
0.15
 41
0.4333333333333426
 71
    1
 72
    1
  1
DAC1
  7
iso
210
0
220
0
230
1
 50
0
 73
    2
 44
1
  0
MTEXT
  5
2B1
100
AcDbEntity
  8
engrave
  6
ByLayer
 62
  256
370
   -1
100
AcDbMText
 10
6.71
 20
1.390000000000001
 30
0
 40
0.15
 41
0.4666666666666759
 71
    1
 72
    1
  1
DAC2
  7
iso
210
0
220
0
230
1
 50
0
 73
    2
 44
1
  0
MTEXT
  5
2B2
100
AcDbEntity
  8
engrave
  6
ByLayer
 62
  256
370
   -1
100
AcDbMText
 10
7.529999999999999
 20
1.390000000000001
 30
0
 40
0.15
 41
0.4666666666666853
 71
    1
 72
    1
  1
DAC3
  7
iso
210
0
220
0
230
1
 50
0
 73
    2
 44
1
  0
MTEXT
  5
2B3
100
AcDbEntity
  8
engrave
  6
ByLayer
 62
  256
370
   -1
100
AcDbMText
 10
8.35
 20
1.390000000000002
 30
0
 40
0.15
 41
0.3833333333333333
 71
    1
 72
    1
  1
INT0
  7
iso
210
0
220
0
230
1
 50
0
 73
    2
 44
1
  0
MTEXT
  5
2B4
100
AcDbEntity
  8
engrave
  6
ByLayer
 62
  256
370
   -1
100
AcDbMText
 10
9.17
 20
1.390000000000002
 30
0
 40
0.15
 41
0.35
 71
    1
 72
    1
  1
INT1
  7
iso
210
0
220
0
230
1
 50
0
 73
    2
 44
1
  0
MTEXT
  5
2B5
100
AcDbEntity
  8
engrave
  6
ByLayer
 62
  256
370
   -1
100
AcDbMText
 10
10.71
 20
1.090000000000002
 30
0
 40
0.15
 41
0.4
 71
    1
 72
    1
  1
PWR
  7
iso
210
0
220
0
230
1
 50
0
 73
    2
 44
1
  0
MTEXT
  5
2B6
100
AcDbEntity
  8
engrave
  6
ByLayer
 62
  256
370
   -1
100
AcDbMText
 10
12.17
 20
1.250000000000002
 30
0
 40
0.15
 41
0.3499999681996776
 71
    1
 72
    1
  1
USB
  7
iso
210
0
220
0
230
1
 50
0
 73
    2
 44
1
  0
MTEXT
  5
2B7
100
AcDbEntity
  8
engrave
  6
ByLayer
 62
  256
370
   -1
100
AcDbMText
 10
13.5
 20
1.340000000000002
 30
0
 40
0.15
 41
0.2333333333333333
 71
    1
 72
    1
  1
I2C
  7
iso
210
0
220
0
230
1
 50
0
 73
    2
 44
1
  0
MTEXT
  5
2B8
100
AcDbEntity
  8
engrave
  6
ByLayer
 62
  256
370
   -1
100
AcDbMText
 10
15
 20
0.995000000000001
 30
0
 40
0.15
 41
0.7791666348663604
 71
    1
 72
    1
  1
SD Card
  7
iso
210
0
220
0
230
1
 50
0
 73
    2
 44
1
  0
MTEXT
  5
2B9
100
AcDbEntity
  8
engrave
  6
ByLayer
 62
  256
370
   -1
100
AcDbMText
 10
16.3
 20
1.090000000000002
 30
0
 40
0.15
 41
0.6333333786760975
 71
    1
 72
    1
  1
Status
  7
iso
210
0
220
0
230
1
 50
0
 73
    2
 44
1
  0
MTEXT
  5
2BA
100
AcDbEntity
  8
engrave
  6
ByLayer
 62
  256
370
   -1
100
AcDbMText
 10
4.319999999999999
 20
1.380000000000001
 30
0
 40
0.15
 41
0.4666666666666853
 71
    1
 72
    1
  1
ADC3
  7
iso
210
0
220
0
230
1
 50
0
 73
    2
 44
1
  0
ENDSEC
  0
SECTION
  2
OBJECTS
  0
DICTIONARY
  5
C
330
0
100
AcDbDictionary
281
    1
  3
ACAD_GROUP
350
D
  0
DICTIONARY
  5
D
330
C
100
AcDbDictionary
281
    1
  0
ENDSEC
  0
EOF
