999
dxflib 2.0.4.8
  0
SECTION
  2
HEADER
  9
$ACADVER
  1
AC1015
  9
$HANDSEED
  5
FFFF
  9
$DIMASZ
 40
2.5
  9
$DIMGAP
 40
0.625
  9
$DIMEXO
 40
0.625
  9
$INSUNITS
 70
4
  9
$DIMTXT
 40
2.5
  9
$DIMSTYLE
  2
Standard
  9
$PLIMMAX
 10
210.0
 20
297.0
  9
$PLIMMIN
 10
0.0
 20
0.0
  9
$DIMEXE
 40
1.25
  0
ENDSEC
  0
SECTION
  2
TABLES
  0
TABLE
  2
VPORT
  5
8
100
AcDbSymbolTable
 70
1
  0
VPORT
  5
30
100
AcDbSymbolTableRecord
100
AcDbViewportTableRecord
  2
*Active
 70
0
 10
0.0
 20
0.0
 11
1.0
 21
1.0
 12
286.3055555555554861
 22
148.5
 13
0.0
 23
0.0
 14
10.0
 24
10.0
 15
10.0
 25
10.0
 16
0.0
 26
0.0
 36
1.0
 17
0.0
 27
0.0
 37
0.0
 40
297.0
 41
1.92798353909465
 42
50.0
 43
0.0
 44
0.0
 50
0.0
 51
0.0
 71
0
 72
100
 73
1
 74
3
 75
1
 76
1
 77
0
 78
0
281
0
 65
1
110
0.0
120
0.0
130
0.0
111
1.0
121
0.0
131
0.0
112
0.0
122
1.0
132
0.0
 79
0
146
0.0
  0
ENDTAB
  0
TABLE
  2
LTYPE
  5
5
100
AcDbSymbolTable
 70
21
  0
LTYPE
  5
14
100
AcDbSymbolTableRecord
100
AcDbLinetypeTableRecord
  2
ByBlock
 70
0
  3

 72
65
 73
0
 40
0.0
  0
LTYPE
  5
15
100
AcDbSymbolTableRecord
100
AcDbLinetypeTableRecord
  2
ByLayer
 70
0
  3

 72
65
 73
0
 40
0.0
  0
LTYPE
  5
16
100
AcDbSymbolTableRecord
100
AcDbLinetypeTableRecord
  2
CONTINUOUS
 70
0
  3
Solid line
 72
65
 73
0
 40
0.0
  0
LTYPE
  5
31
100
AcDbSymbolTableRecord
100
AcDbLinetypeTableRecord
  2
DOT
 70
0
  3
Dot . . . . . . . . . . . . . . . . . . . . . .
 72
65
 73
2
 40
6.3499999999999996
 49
0.0
 74
0
 49
-6.3499999999999996
 74
0
  0
LTYPE
  5
32
100
AcDbSymbolTableRecord
100
AcDbLinetypeTableRecord
  2
DOT2
 70
0
  3
Dot (.5x) .....................................
 72
65
 73
2
 40
3.1749999999999998
 49
0.0
 74
0
 49
-3.1749999999999998
 74
0
  0
LTYPE
  5
33
100
AcDbSymbolTableRecord
100
AcDbLinetypeTableRecord
  2
DOTX2
 70
0
  3
Dot (2x) .  .  .  .  .  .  .  .  .  .  .  .  .
 72
65
 73
2
 40
12.6999999999999993
 49
0.0
 74
0
 49
-12.6999999999999993
 74
0
  0
LTYPE
  5
34
100
AcDbSymbolTableRecord
100
AcDbLinetypeTableRecord
  2
DASHED
 70
0
  3
Dashed __ __ __ __ __ __ __ __ __ __ __ __ __ _
 72
65
 73
2
 40
19.0500000000000007
 49
12.6999999999999993
 74
0
 49
-6.3499999999999996
 74
0
  0
LTYPE
  5
35
100
AcDbSymbolTableRecord
100
AcDbLinetypeTableRecord
  2
DASHED2
 70
0
  3
Dashed (.5x) _ _ _ _ _ _ _ _ _ _ _ _ _ _ _ _ _
 72
65
 73
2
 40
9.5250000000000004
 49
6.3499999999999996
 74
0
 49
-3.1749999999999998
 74
0
  0
LTYPE
  5
36
100
AcDbSymbolTableRecord
100
AcDbLinetypeTableRecord
  2
DASHEDX2
 70
0
  3
Dashed (2x) ____  ____  ____  ____  ____  ___
 72
65
 73
2
 40
38.1000000000000014
 49
25.3999999999999986
 74
0
 49
-12.6999999999999993
 74
0
  0
LTYPE
  5
37
100
AcDbSymbolTableRecord
100
AcDbLinetypeTableRecord
  2
DASHDOT
 70
0
  3
Dash dot __ . __ . __ . __ . __ . __ . __ . __
 72
65
 73
4
 40
25.3999999999999986
 49
12.6999999999999993
 74
0
 49
-6.3499999999999996
 74
0
 49
0.0
 74
0
 49
-6.3499999999999996
 74
0
  0
LTYPE
  5
38
100
AcDbSymbolTableRecord
100
AcDbLinetypeTableRecord
  2
DASHDOT2
 70
0
  3
Dash dot (.5x) _._._._._._._._._._._._._._._.
 72
65
 73
4
 40
12.6999999999999993
 49
6.3499999999999996
 74
0
 49
-3.1749999999999998
 74
0
 49
0.0
 74
0
 49
-3.1749999999999998
 74
0
  0
LTYPE
  5
39
100
AcDbSymbolTableRecord
100
AcDbLinetypeTableRecord
  2
DASHDOTX2
 70
0
  3
Dash dot (2x) ____  .  ____  .  ____  .  ___
 72
65
 73
4
 40
50.7999999999999972
 49
25.3999999999999986
 74
0
 49
-12.6999999999999993
 74
0
 49
0.0
 74
0
 49
-12.6999999999999993
 74
0
  0
LTYPE
  5
3A
100
AcDbSymbolTableRecord
100
AcDbLinetypeTableRecord
  2
DIVIDE
 70
0
  3
Divide ____ . . ____ . . ____ . . ____ . . ____
 72
65
 73
6
 40
31.75
 49
12.6999999999999993
 74
0
 49
-6.3499999999999996
 74
0
 49
0.0
 74
0
 49
-6.3499999999999996
 74
0
 49
0.0
 74
0
 49
-6.3499999999999996
 74
0
  0
LTYPE
  5
3B
100
AcDbSymbolTableRecord
100
AcDbLinetypeTableRecord
  2
DIVIDE2
 70
0
  3
Divide (.5x) __..__..__..__..__..__..__..__.._
 72
65
 73
6
 40
15.875
 49
6.3499999999999996
 74
0
 49
-3.1749999999999998
 74
0
 49
0.0
 74
0
 49
-3.1749999999999998
 74
0
 49
0.0
 74
0
 49
-3.1749999999999998
 74
0
  0
LTYPE
  5
3C
100
AcDbSymbolTableRecord
100
AcDbLinetypeTableRecord
  2
DIVIDEX2
 70
0
  3
Divide (2x) ________  .  .  ________  .  .  _
 72
65
 73
6
 40
63.5
 49
25.3999999999999986
 74
0
 49
-12.6999999999999993
 74
0
 49
0.0
 74
0
 49
-12.6999999999999993
 74
0
 49
0.0
 74
0
 49
-12.6999999999999993
 74
0
  0
LTYPE
  5
3D
100
AcDbSymbolTableRecord
100
AcDbLinetypeTableRecord
  2
CENTER
 70
0
  3
Center ____ _ ____ _ ____ _ ____ _ ____ _ ____
 72
65
 73
4
 40
50.7999999999999972
 49
31.75
 74
0
 49
-6.3499999999999996
 74
0
 49
6.3499999999999996
 74
0
 49
-6.3499999999999996
 74
0
  0
LTYPE
  5
3E
100
AcDbSymbolTableRecord
100
AcDbLinetypeTableRecord
  2
CENTER2
 70
0
  3
Center (.5x) ___ _ ___ _ ___ _ ___ _ ___ _ ___
 72
65
 73
4
 40
28.5749999999999993
 49
19.0500000000000007
 74
0
 49
-3.1749999999999998
 74
0
 49
3.1749999999999998
 74
0
 49
-3.1749999999999998
 74
0
  0
LTYPE
  5
3F
100
AcDbSymbolTableRecord
100
AcDbLinetypeTableRecord
  2
CENTERX2
 70
0
  3
Center (2x) ________  __  ________  __  _____
 72
65
 73
4
 40
101.5999999999999943
 49
63.5
 74
0
 49
-12.6999999999999993
 74
0
 49
12.6999999999999993
 74
0
 49
-12.6999999999999993
 74
0
  0
LTYPE
  5
40
100
AcDbSymbolTableRecord
100
AcDbLinetypeTableRecord
  2
BORDER
 70
0
  3
Border __ __ . __ __ . __ __ . __ __ . __ __ .
 72
65
 73
6
 40
44.4500000000000028
 49
12.6999999999999993
 74
0
 49
-6.3499999999999996
 74
0
 49
12.6999999999999993
 74
0
 49
-6.3499999999999996
 74
0
 49
0.0
 74
0
 49
-6.3499999999999996
 74
0
  0
LTYPE
  5
41
100
AcDbSymbolTableRecord
100
AcDbLinetypeTableRecord
  2
BORDER2
 70
0
  3
Border (.5x) __.__.__.__.__.__.__.__.__.__.__.
 72
65
 73
6
 40
22.2250000000000014
 49
6.3499999999999996
 74
0
 49
-3.1749999999999998
 74
0
 49
6.3499999999999996
 74
0
 49
-3.1749999999999998
 74
0
 49
0.0
 74
0
 49
-3.1749999999999998
 74
0
  0
LTYPE
  5
42
100
AcDbSymbolTableRecord
100
AcDbLinetypeTableRecord
  2
BORDERX2
 70
0
  3
Border (2x) ____  ____  .  ____  ____  .  ___
 72
65
 73
6
 40
88.9000000000000057
 49
25.3999999999999986
 74
0
 49
-12.6999999999999993
 74
0
 49
25.3999999999999986
 74
0
 49
-12.6999999999999993
 74
0
 49
0.0
 74
0
 49
-12.6999999999999993
 74
0
  0
ENDTAB
  0
TABLE
  2
LAYER
  5
2
100
AcDbSymbolTable
 70
1
  0
LAYER
  5
10
100
AcDbSymbolTableRecord
100
AcDbLayerTableRecord
  2
0
 70
0
 62
7
  6
CONTINUOUS
370
0
390
F
  0
ENDTAB
  0
TABLE
  2
STYLE
  5
3
100
AcDbSymbolTable
 70
1
  0
STYLE
  5
11
100
AcDbSymbolTableRecord
100
AcDbTextStyleTableRecord
  2
Standard
 70
0
 40
0.0
 41
0.75
 50
0.0
 71
0
 42
2.5
  3
txt
  4

  0
ENDTAB
  0
TABLE
  2
VIEW
  5
6
100
AcDbSymbolTable
 70
0
  0
ENDTAB
  0
TABLE
  2
UCS
  5
7
100
AcDbSymbolTable
 70
0
  0
ENDTAB
  0
TABLE
  2
APPID
  5
9
100
AcDbSymbolTable
 70
1
  0
APPID
  5
12
100
AcDbSymbolTableRecord
100
AcDbRegAppTableRecord
  2
ACAD
 70
0
  0
ENDTAB
  0
TABLE
  2
DIMSTYLE
  5
A
100
AcDbSymbolTable
 70
1
100
AcDbDimStyleTable
 71
0
  0
DIMSTYLE
105
27
100
AcDbSymbolTableRecord
100
AcDbDimStyleTableRecord
  2
Standard
 41
2.5
 42
0.625
 43
3.75
 44
1.25
 70
0
 73
0
 74
0
 77
1
 78
8
140
2.5
141
2.5
143
0.03937007874016
147
0.625
171
3
172
1
271
2
272
2
274
3
278
44
283
0
284
8
340
11
  0
ENDTAB
  0
TABLE
  2
BLOCK_RECORD
  5
1
100
AcDbSymbolTable
 70
1
  0
BLOCK_RECORD
  5
1F
100
AcDbSymbolTableRecord
100
AcDbBlockTableRecord
  2
*Model_Space
340
22
  0
BLOCK_RECORD
  5
1B
100
AcDbSymbolTableRecord
100
AcDbBlockTableRecord
  2
*Paper_Space
340
1E
  0
BLOCK_RECORD
  5
23
100
AcDbSymbolTableRecord
100
AcDbBlockTableRecord
  2
*Paper_Space0
340
26
  0
ENDTAB
  0
ENDSEC
  0
SECTION
  2
BLOCKS
  0
BLOCK
  5
20
100
AcDbEntity
  8
0
100
AcDbBlockBegin
  2
*Model_Space
 70
0
 10
0.0
 20
0.0
 30
0.0
  3
*Model_Space
  1

  0
ENDBLK
  5
21
100
AcDbEntity
  8
0
100
AcDbBlockEnd
  0
BLOCK
  5
1C
100
AcDbEntity
 67
1
  8
0
100
AcDbBlockBegin
  2
*Paper_Space
 70
0
 10
0.0
 20
0.0
 30
0.0
  3
*Paper_Space
  1

  0
ENDBLK
  5
1D
100
AcDbEntity
 67
1
  8
0
100
AcDbBlockEnd
  0
BLOCK
  5
24
100
AcDbEntity
  8
0
100
AcDbBlockBegin
  2
*Paper_Space0
 70
0
 10
0.0
 20
0.0
 30
0.0
  3
*Paper_Space0
  1

  0
ENDBLK
  5
25
100
AcDbEntity
  8
0
100
AcDbBlockEnd
  0
ENDSEC
  0
SECTION
  2
ENTITIES
  0
LINE
  5
43
100
AcDbEntity
100
AcDbLine
  8
0
 62
256
370
-1
  6
ByLayer
 10
-241.3000000000000114
 20
-22.097999999999999
 30
0.0
 11
-241.3000000000000114
 21
22.097999999999999
 31
0.0
  0
LINE
  5
44
100
AcDbEntity
100
AcDbLine
  8
0
 62
256
370
-1
  6
ByLayer
 10
-241.3000000000000114
 20
22.097999999999999
 30
0.0
 11
241.3000000000000114
 21
22.097999999999999
 31
0.0
  0
LINE
  5
45
100
AcDbEntity
100
AcDbLine
  8
0
 62
256
370
-1
  6
ByLayer
 10
241.3000000000000114
 20
22.097999999999999
 30
0.0
 11
241.3000000000000114
 21
-22.097999999999999
 31
0.0
  0
LINE
  5
46
100
AcDbEntity
100
AcDbLine
  8
0
 62
256
370
-1
  6
ByLayer
 10
241.3000000000000114
 20
-22.097999999999999
 30
0.0
 11
-241.3000000000000114
 21
-22.097999999999999
 31
0.0
  0
LINE
  5
47
100
AcDbEntity
100
AcDbLine
  8
0
 62
256
370
-1
  6
ByLayer
 10
-237.4900000000000091
 20
-15.6850000000000005
 30
0.0
 11
-237.4660000000000082
 21
-15.3019999999999996
 31
0.0
  0
LINE
  5
48
100
AcDbEntity
100
AcDbLine
  8
0
 62
256
370
-1
  6
ByLayer
 10
-237.4660000000000082
 20
-15.3019999999999996
 30
0.0
 11
-237.3940000000000055
 21
-14.9260000000000002
 31
0.0
  0
LINE
  5
49
100
AcDbEntity
100
AcDbLine
  8
0
 62
256
370
-1
  6
ByLayer
 10
-237.3940000000000055
 20
-14.9260000000000002
 30
0.0
 11
-237.2760000000000105
 21
-14.5619999999999994
 31
0.0
  0
LINE
  5
4A
100
AcDbEntity
100
AcDbLine
  8
0
 62
256
370
-1
  6
ByLayer
 10
-237.2760000000000105
 20
-14.5619999999999994
 30
0.0
 11
-237.1129999999999995
 21
-14.2159999999999993
 31
0.0
  0
LINE
  5
4B
100
AcDbEntity
100
AcDbLine
  8
0
 62
256
370
-1
  6
ByLayer
 10
-237.1129999999999995
 20
-14.2159999999999993
 30
0.0
 11
-236.907999999999987
 21
-13.8930000000000007
 31
0.0
  0
LINE
  5
4C
100
AcDbEntity
100
AcDbLine
  8
0
 62
256
370
-1
  6
ByLayer
 10
-236.907999999999987
 20
-13.8930000000000007
 30
0.0
 11
-236.6639999999999873
 21
-13.5980000000000008
 31
0.0
  0
LINE
  5
4D
100
AcDbEntity
100
AcDbLine
  8
0
 62
256
370
-1
  6
ByLayer
 10
-236.6639999999999873
 20
-13.5980000000000008
 30
0.0
 11
-236.3849999999999909
 21
-13.3360000000000003
 31
0.0
  0
LINE
  5
4E
100
AcDbEntity
100
AcDbLine
  8
0
 62
256
370
-1
  6
ByLayer
 10
-236.3849999999999909
 20
-13.3360000000000003
 30
0.0
 11
-236.0749999999999886
 21
-13.1110000000000007
 31
0.0
  0
LINE
  5
4F
100
AcDbEntity
100
AcDbLine
  8
0
 62
256
370
-1
  6
ByLayer
 10
-236.0749999999999886
 20
-13.1110000000000007
 30
0.0
 11
-235.7400000000000091
 21
-12.9269999999999996
 31
0.0
  0
LINE
  5
50
100
AcDbEntity
100
AcDbLine
  8
0
 62
256
370
-1
  6
ByLayer
 10
-235.7400000000000091
 20
-12.9269999999999996
 30
0.0
 11
-235.3839999999999861
 21
-12.7859999999999996
 31
0.0
  0
LINE
  5
51
100
AcDbEntity
100
AcDbLine
  8
0
 62
256
370
-1
  6
ByLayer
 10
-235.3839999999999861
 20
-12.7859999999999996
 30
0.0
 11
-235.0130000000000052
 21
-12.6899999999999995
 31
0.0
  0
LINE
  5
52
100
AcDbEntity
100
AcDbLine
  8
0
 62
256
370
-1
  6
ByLayer
 10
-235.0130000000000052
 20
-12.6899999999999995
 30
0.0
 11
-234.6330000000000098
 21
-12.6430000000000007
 31
0.0
  0
LINE
  5
53
100
AcDbEntity
100
AcDbLine
  8
0
 62
256
370
-1
  6
ByLayer
 10
-234.6330000000000098
 20
-12.6430000000000007
 30
0.0
 11
-234.4420000000000073
 21
-12.6430000000000007
 31
0.0
  0
LINE
  5
54
100
AcDbEntity
100
AcDbLine
  8
0
 62
256
370
-1
  6
ByLayer
 10
-234.4420000000000073
 20
-12.6430000000000007
 30
0.0
 11
-234.4420000000000073
 21
-12.6370000000000005
 31
0.0
  0
LINE
  5
55
100
AcDbEntity
100
AcDbLine
  8
0
 62
256
370
-1
  6
ByLayer
 10
-234.4420000000000073
 20
-12.6370000000000005
 30
0.0
 11
-230.632000000000005
 21
-12.6370000000000005
 31
0.0
  0
LINE
  5
56
100
AcDbEntity
100
AcDbLine
  8
0
 62
256
370
-1
  6
ByLayer
 10
-230.632000000000005
 20
-12.6370000000000005
 30
0.0
 11
-230.632000000000005
 21
-12.6430000000000007
 31
0.0
  0
LINE
  5
57
100
AcDbEntity
100
AcDbLine
  8
0
 62
256
370
-1
  6
ByLayer
 10
-230.632000000000005
 20
-12.6430000000000007
 30
0.0
 11
-230.4410000000000025
 21
-12.6430000000000007
 31
0.0
  0
LINE
  5
58
100
AcDbEntity
100
AcDbLine
  8
0
 62
256
370
-1
  6
ByLayer
 10
-230.4410000000000025
 20
-12.6430000000000007
 30
0.0
 11
-230.061000000000007
 21
-12.6899999999999995
 31
0.0
  0
LINE
  5
59
100
AcDbEntity
100
AcDbLine
  8
0
 62
256
370
-1
  6
ByLayer
 10
-230.061000000000007
 20
-12.6899999999999995
 30
0.0
 11
-229.6899999999999977
 21
-12.7859999999999996
 31
0.0
  0
LINE
  5
5A
100
AcDbEntity
100
AcDbLine
  8
0
 62
256
370
-1
  6
ByLayer
 10
-229.6899999999999977
 20
-12.7859999999999996
 30
0.0
 11
-229.3340000000000032
 21
-12.9269999999999996
 31
0.0
  0
LINE
  5
5B
100
AcDbEntity
100
AcDbLine
  8
0
 62
256
370
-1
  6
ByLayer
 10
-229.3340000000000032
 20
-12.9269999999999996
 30
0.0
 11
-228.9989999999999952
 21
-13.1110000000000007
 31
0.0
  0
LINE
  5
5C
100
AcDbEntity
100
AcDbLine
  8
0
 62
256
370
-1
  6
ByLayer
 10
-228.9989999999999952
 20
-13.1110000000000007
 30
0.0
 11
-228.688999999999993
 21
-13.3360000000000003
 31
0.0
  0
LINE
  5
5D
100
AcDbEntity
100
AcDbLine
  8
0
 62
256
370
-1
  6
ByLayer
 10
-228.688999999999993
 20
-13.3360000000000003
 30
0.0
 11
-228.4099999999999966
 21
-13.5980000000000008
 31
0.0
  0
LINE
  5
5E
100
AcDbEntity
100
AcDbLine
  8
0
 62
256
370
-1
  6
ByLayer
 10
-228.4099999999999966
 20
-13.5980000000000008
 30
0.0
 11
-228.1659999999999968
 21
-13.8930000000000007
 31
0.0
  0
LINE
  5
5F
100
AcDbEntity
100
AcDbLine
  8
0
 62
256
370
-1
  6
ByLayer
 10
-228.1659999999999968
 20
-13.8930000000000007
 30
0.0
 11
-227.9610000000000127
 21
-14.2159999999999993
 31
0.0
  0
LINE
  5
60
100
AcDbEntity
100
AcDbLine
  8
0
 62
256
370
-1
  6
ByLayer
 10
-227.9610000000000127
 20
-14.2159999999999993
 30
0.0
 11
-227.7980000000000018
 21
-14.5619999999999994
 31
0.0
  0
LINE
  5
61
100
AcDbEntity
100
AcDbLine
  8
0
 62
256
370
-1
  6
ByLayer
 10
-227.7980000000000018
 20
-14.5619999999999994
 30
0.0
 11
-227.6800000000000068
 21
-14.9260000000000002
 31
0.0
  0
LINE
  5
62
100
AcDbEntity
100
AcDbLine
  8
0
 62
256
370
-1
  6
ByLayer
 10
-227.6800000000000068
 20
-14.9260000000000002
 30
0.0
 11
-227.6080000000000041
 21
-15.3019999999999996
 31
0.0
  0
LINE
  5
63
100
AcDbEntity
100
AcDbLine
  8
0
 62
256
370
-1
  6
ByLayer
 10
-227.6080000000000041
 20
-15.3019999999999996
 30
0.0
 11
-227.5840000000000032
 21
-15.6850000000000005
 31
0.0
  0
LINE
  5
64
100
AcDbEntity
100
AcDbLine
  8
0
 62
256
370
-1
  6
ByLayer
 10
-227.5840000000000032
 20
-15.6850000000000005
 30
0.0
 11
-227.6080000000000041
 21
-16.0670000000000002
 31
0.0
  0
LINE
  5
65
100
AcDbEntity
100
AcDbLine
  8
0
 62
256
370
-1
  6
ByLayer
 10
-227.6080000000000041
 20
-16.0670000000000002
 30
0.0
 11
-227.6800000000000068
 21
-16.4430000000000014
 31
0.0
  0
LINE
  5
66
100
AcDbEntity
100
AcDbLine
  8
0
 62
256
370
-1
  6
ByLayer
 10
-227.6800000000000068
 20
-16.4430000000000014
 30
0.0
 11
-227.7980000000000018
 21
-16.8069999999999986
 31
0.0
  0
LINE
  5
67
100
AcDbEntity
100
AcDbLine
  8
0
 62
256
370
-1
  6
ByLayer
 10
-227.7980000000000018
 20
-16.8069999999999986
 30
0.0
 11
-227.9610000000000127
 21
-17.1529999999999987
 31
0.0
  0
LINE
  5
68
100
AcDbEntity
100
AcDbLine
  8
0
 62
256
370
-1
  6
ByLayer
 10
-227.9610000000000127
 20
-17.1529999999999987
 30
0.0
 11
-228.1659999999999968
 21
-17.4759999999999991
 31
0.0
  0
LINE
  5
69
100
AcDbEntity
100
AcDbLine
  8
0
 62
256
370
-1
  6
ByLayer
 10
-228.1659999999999968
 20
-17.4759999999999991
 30
0.0
 11
-228.4099999999999966
 21
-17.7710000000000008
 31
0.0
  0
LINE
  5
6A
100
AcDbEntity
100
AcDbLine
  8
0
 62
256
370
-1
  6
ByLayer
 10
-228.4099999999999966
 20
-17.7710000000000008
 30
0.0
 11
-228.688999999999993
 21
-18.0330000000000013
 31
0.0
  0
LINE
  5
6B
100
AcDbEntity
100
AcDbLine
  8
0
 62
256
370
-1
  6
ByLayer
 10
-228.688999999999993
 20
-18.0330000000000013
 30
0.0
 11
-228.9989999999999952
 21
-18.2579999999999991
 31
0.0
  0
LINE
  5
6C
100
AcDbEntity
100
AcDbLine
  8
0
 62
256
370
-1
  6
ByLayer
 10
-228.9989999999999952
 20
-18.2579999999999991
 30
0.0
 11
-229.3340000000000032
 21
-18.4420000000000002
 31
0.0
  0
LINE
  5
6D
100
AcDbEntity
100
AcDbLine
  8
0
 62
256
370
-1
  6
ByLayer
 10
-229.3340000000000032
 20
-18.4420000000000002
 30
0.0
 11
-229.6899999999999977
 21
-18.5829999999999984
 31
0.0
  0
LINE
  5
6E
100
AcDbEntity
100
AcDbLine
  8
0
 62
256
370
-1
  6
ByLayer
 10
-229.6899999999999977
 20
-18.5829999999999984
 30
0.0
 11
-230.061000000000007
 21
-18.6789999999999985
 31
0.0
  0
LINE
  5
6F
100
AcDbEntity
100
AcDbLine
  8
0
 62
256
370
-1
  6
ByLayer
 10
-230.061000000000007
 20
-18.6789999999999985
 30
0.0
 11
-230.4410000000000025
 21
-18.7259999999999991
 31
0.0
  0
LINE
  5
70
100
AcDbEntity
100
AcDbLine
  8
0
 62
256
370
-1
  6
ByLayer
 10
-230.4410000000000025
 20
-18.7259999999999991
 30
0.0
 11
-230.632000000000005
 21
-18.7259999999999991
 31
0.0
  0
LINE
  5
71
100
AcDbEntity
100
AcDbLine
  8
0
 62
256
370
-1
  6
ByLayer
 10
-230.632000000000005
 20
-18.7259999999999991
 30
0.0
 11
-230.632000000000005
 21
-18.7319999999999993
 31
0.0
  0
LINE
  5
72
100
AcDbEntity
100
AcDbLine
  8
0
 62
256
370
-1
  6
ByLayer
 10
-230.632000000000005
 20
-18.7319999999999993
 30
0.0
 11
-234.4420000000000073
 21
-18.7319999999999993
 31
0.0
  0
LINE
  5
73
100
AcDbEntity
100
AcDbLine
  8
0
 62
256
370
-1
  6
ByLayer
 10
-234.4420000000000073
 20
-18.7319999999999993
 30
0.0
 11
-234.4420000000000073
 21
-18.7259999999999991
 31
0.0
  0
LINE
  5
74
100
AcDbEntity
100
AcDbLine
  8
0
 62
256
370
-1
  6
ByLayer
 10
-234.4420000000000073
 20
-18.7259999999999991
 30
0.0
 11
-234.6330000000000098
 21
-18.7259999999999991
 31
0.0
  0
LINE
  5
75
100
AcDbEntity
100
AcDbLine
  8
0
 62
256
370
-1
  6
ByLayer
 10
-234.6330000000000098
 20
-18.7259999999999991
 30
0.0
 11
-235.0130000000000052
 21
-18.6789999999999985
 31
0.0
  0
LINE
  5
76
100
AcDbEntity
100
AcDbLine
  8
0
 62
256
370
-1
  6
ByLayer
 10
-235.0130000000000052
 20
-18.6789999999999985
 30
0.0
 11
-235.3839999999999861
 21
-18.5829999999999984
 31
0.0
  0
LINE
  5
77
100
AcDbEntity
100
AcDbLine
  8
0
 62
256
370
-1
  6
ByLayer
 10
-235.3839999999999861
 20
-18.5829999999999984
 30
0.0
 11
-235.7400000000000091
 21
-18.4420000000000002
 31
0.0
  0
LINE
  5
78
100
AcDbEntity
100
AcDbLine
  8
0
 62
256
370
-1
  6
ByLayer
 10
-235.7400000000000091
 20
-18.4420000000000002
 30
0.0
 11
-236.0749999999999886
 21
-18.2579999999999991
 31
0.0
  0
LINE
  5
79
100
AcDbEntity
100
AcDbLine
  8
0
 62
256
370
-1
  6
ByLayer
 10
-236.0749999999999886
 20
-18.2579999999999991
 30
0.0
 11
-236.3849999999999909
 21
-18.0330000000000013
 31
0.0
  0
LINE
  5
7A
100
AcDbEntity
100
AcDbLine
  8
0
 62
256
370
-1
  6
ByLayer
 10
-236.3849999999999909
 20
-18.0330000000000013
 30
0.0
 11
-236.6639999999999873
 21
-17.7710000000000008
 31
0.0
  0
LINE
  5
7B
100
AcDbEntity
100
AcDbLine
  8
0
 62
256
370
-1
  6
ByLayer
 10
-236.6639999999999873
 20
-17.7710000000000008
 30
0.0
 11
-236.907999999999987
 21
-17.4759999999999991
 31
0.0
  0
LINE
  5
7C
100
AcDbEntity
100
AcDbLine
  8
0
 62
256
370
-1
  6
ByLayer
 10
-236.907999999999987
 20
-17.4759999999999991
 30
0.0
 11
-237.1129999999999995
 21
-17.1529999999999987
 31
0.0
  0
LINE
  5
7D
100
AcDbEntity
100
AcDbLine
  8
0
 62
256
370
-1
  6
ByLayer
 10
-237.1129999999999995
 20
-17.1529999999999987
 30
0.0
 11
-237.2760000000000105
 21
-16.8069999999999986
 31
0.0
  0
LINE
  5
7E
100
AcDbEntity
100
AcDbLine
  8
0
 62
256
370
-1
  6
ByLayer
 10
-237.2760000000000105
 20
-16.8069999999999986
 30
0.0
 11
-237.3940000000000055
 21
-16.4430000000000014
 31
0.0
  0
LINE
  5
7F
100
AcDbEntity
100
AcDbLine
  8
0
 62
256
370
-1
  6
ByLayer
 10
-237.3940000000000055
 20
-16.4430000000000014
 30
0.0
 11
-237.4660000000000082
 21
-16.0670000000000002
 31
0.0
  0
LINE
  5
80
100
AcDbEntity
100
AcDbLine
  8
0
 62
256
370
-1
  6
ByLayer
 10
-237.4660000000000082
 20
-16.0670000000000002
 30
0.0
 11
-237.4900000000000091
 21
-15.6850000000000005
 31
0.0
  0
LINE
  5
81
100
AcDbEntity
100
AcDbLine
  8
0
 62
256
370
-1
  6
ByLayer
 10
-237.4900000000000091
 20
15.6850000000000005
 30
0.0
 11
-237.4660000000000082
 21
16.0670000000000002
 31
0.0
  0
LINE
  5
82
100
AcDbEntity
100
AcDbLine
  8
0
 62
256
370
-1
  6
ByLayer
 10
-237.4660000000000082
 20
16.0670000000000002
 30
0.0
 11
-237.3940000000000055
 21
16.4430000000000014
 31
0.0
  0
LINE
  5
83
100
AcDbEntity
100
AcDbLine
  8
0
 62
256
370
-1
  6
ByLayer
 10
-237.3940000000000055
 20
16.4430000000000014
 30
0.0
 11
-237.2760000000000105
 21
16.8069999999999986
 31
0.0
  0
LINE
  5
84
100
AcDbEntity
100
AcDbLine
  8
0
 62
256
370
-1
  6
ByLayer
 10
-237.2760000000000105
 20
16.8069999999999986
 30
0.0
 11
-237.1129999999999995
 21
17.1529999999999987
 31
0.0
  0
LINE
  5
85
100
AcDbEntity
100
AcDbLine
  8
0
 62
256
370
-1
  6
ByLayer
 10
-237.1129999999999995
 20
17.1529999999999987
 30
0.0
 11
-236.907999999999987
 21
17.4759999999999991
 31
0.0
  0
LINE
  5
86
100
AcDbEntity
100
AcDbLine
  8
0
 62
256
370
-1
  6
ByLayer
 10
-236.907999999999987
 20
17.4759999999999991
 30
0.0
 11
-236.6639999999999873
 21
17.7710000000000008
 31
0.0
  0
LINE
  5
87
100
AcDbEntity
100
AcDbLine
  8
0
 62
256
370
-1
  6
ByLayer
 10
-236.6639999999999873
 20
17.7710000000000008
 30
0.0
 11
-236.3849999999999909
 21
18.0330000000000013
 31
0.0
  0
LINE
  5
88
100
AcDbEntity
100
AcDbLine
  8
0
 62
256
370
-1
  6
ByLayer
 10
-236.3849999999999909
 20
18.0330000000000013
 30
0.0
 11
-236.0749999999999886
 21
18.2579999999999991
 31
0.0
  0
LINE
  5
89
100
AcDbEntity
100
AcDbLine
  8
0
 62
256
370
-1
  6
ByLayer
 10
-236.0749999999999886
 20
18.2579999999999991
 30
0.0
 11
-235.7400000000000091
 21
18.4420000000000002
 31
0.0
  0
LINE
  5
8A
100
AcDbEntity
100
AcDbLine
  8
0
 62
256
370
-1
  6
ByLayer
 10
-235.7400000000000091
 20
18.4420000000000002
 30
0.0
 11
-235.3839999999999861
 21
18.5829999999999984
 31
0.0
  0
LINE
  5
8B
100
AcDbEntity
100
AcDbLine
  8
0
 62
256
370
-1
  6
ByLayer
 10
-235.3839999999999861
 20
18.5829999999999984
 30
0.0
 11
-235.0130000000000052
 21
18.6789999999999985
 31
0.0
  0
LINE
  5
8C
100
AcDbEntity
100
AcDbLine
  8
0
 62
256
370
-1
  6
ByLayer
 10
-235.0130000000000052
 20
18.6789999999999985
 30
0.0
 11
-234.6330000000000098
 21
18.7259999999999991
 31
0.0
  0
LINE
  5
8D
100
AcDbEntity
100
AcDbLine
  8
0
 62
256
370
-1
  6
ByLayer
 10
-234.6330000000000098
 20
18.7259999999999991
 30
0.0
 11
-234.4420000000000073
 21
18.7259999999999991
 31
0.0
  0
LINE
  5
8E
100
AcDbEntity
100
AcDbLine
  8
0
 62
256
370
-1
  6
ByLayer
 10
-234.4420000000000073
 20
18.7259999999999991
 30
0.0
 11
-234.4420000000000073
 21
18.7319999999999993
 31
0.0
  0
LINE
  5
8F
100
AcDbEntity
100
AcDbLine
  8
0
 62
256
370
-1
  6
ByLayer
 10
-234.4420000000000073
 20
18.7319999999999993
 30
0.0
 11
-230.632000000000005
 21
18.7319999999999993
 31
0.0
  0
LINE
  5
90
100
AcDbEntity
100
AcDbLine
  8
0
 62
256
370
-1
  6
ByLayer
 10
-230.632000000000005
 20
18.7319999999999993
 30
0.0
 11
-230.632000000000005
 21
18.7259999999999991
 31
0.0
  0
LINE
  5
91
100
AcDbEntity
100
AcDbLine
  8
0
 62
256
370
-1
  6
ByLayer
 10
-230.632000000000005
 20
18.7259999999999991
 30
0.0
 11
-230.4410000000000025
 21
18.7259999999999991
 31
0.0
  0
LINE
  5
92
100
AcDbEntity
100
AcDbLine
  8
0
 62
256
370
-1
  6
ByLayer
 10
-230.4410000000000025
 20
18.7259999999999991
 30
0.0
 11
-230.061000000000007
 21
18.6789999999999985
 31
0.0
  0
LINE
  5
93
100
AcDbEntity
100
AcDbLine
  8
0
 62
256
370
-1
  6
ByLayer
 10
-230.061000000000007
 20
18.6789999999999985
 30
0.0
 11
-229.6899999999999977
 21
18.5829999999999984
 31
0.0
  0
LINE
  5
94
100
AcDbEntity
100
AcDbLine
  8
0
 62
256
370
-1
  6
ByLayer
 10
-229.6899999999999977
 20
18.5829999999999984
 30
0.0
 11
-229.3340000000000032
 21
18.4420000000000002
 31
0.0
  0
LINE
  5
95
100
AcDbEntity
100
AcDbLine
  8
0
 62
256
370
-1
  6
ByLayer
 10
-229.3340000000000032
 20
18.4420000000000002
 30
0.0
 11
-228.9989999999999952
 21
18.2579999999999991
 31
0.0
  0
LINE
  5
96
100
AcDbEntity
100
AcDbLine
  8
0
 62
256
370
-1
  6
ByLayer
 10
-228.9989999999999952
 20
18.2579999999999991
 30
0.0
 11
-228.688999999999993
 21
18.0330000000000013
 31
0.0
  0
LINE
  5
97
100
AcDbEntity
100
AcDbLine
  8
0
 62
256
370
-1
  6
ByLayer
 10
-228.688999999999993
 20
18.0330000000000013
 30
0.0
 11
-228.4099999999999966
 21
17.7710000000000008
 31
0.0
  0
LINE
  5
98
100
AcDbEntity
100
AcDbLine
  8
0
 62
256
370
-1
  6
ByLayer
 10
-228.4099999999999966
 20
17.7710000000000008
 30
0.0
 11
-228.1659999999999968
 21
17.4759999999999991
 31
0.0
  0
LINE
  5
99
100
AcDbEntity
100
AcDbLine
  8
0
 62
256
370
-1
  6
ByLayer
 10
-228.1659999999999968
 20
17.4759999999999991
 30
0.0
 11
-227.9610000000000127
 21
17.1529999999999987
 31
0.0
  0
LINE
  5
9A
100
AcDbEntity
100
AcDbLine
  8
0
 62
256
370
-1
  6
ByLayer
 10
-227.9610000000000127
 20
17.1529999999999987
 30
0.0
 11
-227.7980000000000018
 21
16.8069999999999986
 31
0.0
  0
LINE
  5
9B
100
AcDbEntity
100
AcDbLine
  8
0
 62
256
370
-1
  6
ByLayer
 10
-227.7980000000000018
 20
16.8069999999999986
 30
0.0
 11
-227.6800000000000068
 21
16.4430000000000014
 31
0.0
  0
LINE
  5
9C
100
AcDbEntity
100
AcDbLine
  8
0
 62
256
370
-1
  6
ByLayer
 10
-227.6800000000000068
 20
16.4430000000000014
 30
0.0
 11
-227.6080000000000041
 21
16.0670000000000002
 31
0.0
  0
LINE
  5
9D
100
AcDbEntity
100
AcDbLine
  8
0
 62
256
370
-1
  6
ByLayer
 10
-227.6080000000000041
 20
16.0670000000000002
 30
0.0
 11
-227.5840000000000032
 21
15.6850000000000005
 31
0.0
  0
LINE
  5
9E
100
AcDbEntity
100
AcDbLine
  8
0
 62
256
370
-1
  6
ByLayer
 10
-227.5840000000000032
 20
15.6850000000000005
 30
0.0
 11
-227.6080000000000041
 21
15.3019999999999996
 31
0.0
  0
LINE
  5
9F
100
AcDbEntity
100
AcDbLine
  8
0
 62
256
370
-1
  6
ByLayer
 10
-227.6080000000000041
 20
15.3019999999999996
 30
0.0
 11
-227.6800000000000068
 21
14.9260000000000002
 31
0.0
  0
LINE
  5
A0
100
AcDbEntity
100
AcDbLine
  8
0
 62
256
370
-1
  6
ByLayer
 10
-227.6800000000000068
 20
14.9260000000000002
 30
0.0
 11
-227.7980000000000018
 21
14.5619999999999994
 31
0.0
  0
LINE
  5
A1
100
AcDbEntity
100
AcDbLine
  8
0
 62
256
370
-1
  6
ByLayer
 10
-227.7980000000000018
 20
14.5619999999999994
 30
0.0
 11
-227.9610000000000127
 21
14.2159999999999993
 31
0.0
  0
LINE
  5
A2
100
AcDbEntity
100
AcDbLine
  8
0
 62
256
370
-1
  6
ByLayer
 10
-227.9610000000000127
 20
14.2159999999999993
 30
0.0
 11
-228.1659999999999968
 21
13.8930000000000007
 31
0.0
  0
LINE
  5
A3
100
AcDbEntity
100
AcDbLine
  8
0
 62
256
370
-1
  6
ByLayer
 10
-228.1659999999999968
 20
13.8930000000000007
 30
0.0
 11
-228.4099999999999966
 21
13.5980000000000008
 31
0.0
  0
LINE
  5
A4
100
AcDbEntity
100
AcDbLine
  8
0
 62
256
370
-1
  6
ByLayer
 10
-228.4099999999999966
 20
13.5980000000000008
 30
0.0
 11
-228.688999999999993
 21
13.3360000000000003
 31
0.0
  0
LINE
  5
A5
100
AcDbEntity
100
AcDbLine
  8
0
 62
256
370
-1
  6
ByLayer
 10
-228.688999999999993
 20
13.3360000000000003
 30
0.0
 11
-228.9989999999999952
 21
13.1110000000000007
 31
0.0
  0
LINE
  5
A6
100
AcDbEntity
100
AcDbLine
  8
0
 62
256
370
-1
  6
ByLayer
 10
-228.9989999999999952
 20
13.1110000000000007
 30
0.0
 11
-229.3340000000000032
 21
12.9269999999999996
 31
0.0
  0
LINE
  5
A7
100
AcDbEntity
100
AcDbLine
  8
0
 62
256
370
-1
  6
ByLayer
 10
-229.3340000000000032
 20
12.9269999999999996
 30
0.0
 11
-229.6899999999999977
 21
12.7859999999999996
 31
0.0
  0
LINE
  5
A8
100
AcDbEntity
100
AcDbLine
  8
0
 62
256
370
-1
  6
ByLayer
 10
-229.6899999999999977
 20
12.7859999999999996
 30
0.0
 11
-230.061000000000007
 21
12.6899999999999995
 31
0.0
  0
LINE
  5
A9
100
AcDbEntity
100
AcDbLine
  8
0
 62
256
370
-1
  6
ByLayer
 10
-230.061000000000007
 20
12.6899999999999995
 30
0.0
 11
-230.4410000000000025
 21
12.6430000000000007
 31
0.0
  0
LINE
  5
AA
100
AcDbEntity
100
AcDbLine
  8
0
 62
256
370
-1
  6
ByLayer
 10
-230.4410000000000025
 20
12.6430000000000007
 30
0.0
 11
-230.632000000000005
 21
12.6430000000000007
 31
0.0
  0
LINE
  5
AB
100
AcDbEntity
100
AcDbLine
  8
0
 62
256
370
-1
  6
ByLayer
 10
-230.632000000000005
 20
12.6430000000000007
 30
0.0
 11
-230.632000000000005
 21
12.6370000000000005
 31
0.0
  0
LINE
  5
AC
100
AcDbEntity
100
AcDbLine
  8
0
 62
256
370
-1
  6
ByLayer
 10
-230.632000000000005
 20
12.6370000000000005
 30
0.0
 11
-234.4420000000000073
 21
12.6370000000000005
 31
0.0
  0
LINE
  5
AD
100
AcDbEntity
100
AcDbLine
  8
0
 62
256
370
-1
  6
ByLayer
 10
-234.4420000000000073
 20
12.6370000000000005
 30
0.0
 11
-234.4420000000000073
 21
12.6430000000000007
 31
0.0
  0
LINE
  5
AE
100
AcDbEntity
100
AcDbLine
  8
0
 62
256
370
-1
  6
ByLayer
 10
-234.4420000000000073
 20
12.6430000000000007
 30
0.0
 11
-234.6330000000000098
 21
12.6430000000000007
 31
0.0
  0
LINE
  5
AF
100
AcDbEntity
100
AcDbLine
  8
0
 62
256
370
-1
  6
ByLayer
 10
-234.6330000000000098
 20
12.6430000000000007
 30
0.0
 11
-235.0130000000000052
 21
12.6899999999999995
 31
0.0
  0
LINE
  5
B0
100
AcDbEntity
100
AcDbLine
  8
0
 62
256
370
-1
  6
ByLayer
 10
-235.0130000000000052
 20
12.6899999999999995
 30
0.0
 11
-235.3839999999999861
 21
12.7859999999999996
 31
0.0
  0
LINE
  5
B1
100
AcDbEntity
100
AcDbLine
  8
0
 62
256
370
-1
  6
ByLayer
 10
-235.3839999999999861
 20
12.7859999999999996
 30
0.0
 11
-235.7400000000000091
 21
12.9269999999999996
 31
0.0
  0
LINE
  5
B2
100
AcDbEntity
100
AcDbLine
  8
0
 62
256
370
-1
  6
ByLayer
 10
-235.7400000000000091
 20
12.9269999999999996
 30
0.0
 11
-236.0749999999999886
 21
13.1110000000000007
 31
0.0
  0
LINE
  5
B3
100
AcDbEntity
100
AcDbLine
  8
0
 62
256
370
-1
  6
ByLayer
 10
-236.0749999999999886
 20
13.1110000000000007
 30
0.0
 11
-236.3849999999999909
 21
13.3360000000000003
 31
0.0
  0
LINE
  5
B4
100
AcDbEntity
100
AcDbLine
  8
0
 62
256
370
-1
  6
ByLayer
 10
-236.3849999999999909
 20
13.3360000000000003
 30
0.0
 11
-236.6639999999999873
 21
13.5980000000000008
 31
0.0
  0
LINE
  5
B5
100
AcDbEntity
100
AcDbLine
  8
0
 62
256
370
-1
  6
ByLayer
 10
-236.6639999999999873
 20
13.5980000000000008
 30
0.0
 11
-236.907999999999987
 21
13.8930000000000007
 31
0.0
  0
LINE
  5
B6
100
AcDbEntity
100
AcDbLine
  8
0
 62
256
370
-1
  6
ByLayer
 10
-236.907999999999987
 20
13.8930000000000007
 30
0.0
 11
-237.1129999999999995
 21
14.2159999999999993
 31
0.0
  0
LINE
  5
B7
100
AcDbEntity
100
AcDbLine
  8
0
 62
256
370
-1
  6
ByLayer
 10
-237.1129999999999995
 20
14.2159999999999993
 30
0.0
 11
-237.2760000000000105
 21
14.5619999999999994
 31
0.0
  0
LINE
  5
B8
100
AcDbEntity
100
AcDbLine
  8
0
 62
256
370
-1
  6
ByLayer
 10
-237.2760000000000105
 20
14.5619999999999994
 30
0.0
 11
-237.3940000000000055
 21
14.9260000000000002
 31
0.0
  0
LINE
  5
B9
100
AcDbEntity
100
AcDbLine
  8
0
 62
256
370
-1
  6
ByLayer
 10
-237.3940000000000055
 20
14.9260000000000002
 30
0.0
 11
-237.4660000000000082
 21
15.3019999999999996
 31
0.0
  0
LINE
  5
BA
100
AcDbEntity
100
AcDbLine
  8
0
 62
256
370
-1
  6
ByLayer
 10
-237.4660000000000082
 20
15.3019999999999996
 30
0.0
 11
-237.4900000000000091
 21
15.6850000000000005
 31
0.0
  0
LINE
  5
BB
100
AcDbEntity
100
AcDbLine
  8
0
 62
256
370
-1
  6
ByLayer
 10
-193.9480000000000075
 20
-0.124
 30
0.0
 11
-193.8950000000000102
 21
0.722
 31
0.0
  0
LINE
  5
BC
100
AcDbEntity
100
AcDbLine
  8
0
 62
256
370
-1
  6
ByLayer
 10
-193.8950000000000102
 20
0.722
 30
0.0
 11
-193.73599999999999
 21
1.554
 31
0.0
  0
LINE
  5
BD
100
AcDbEntity
100
AcDbLine
  8
0
 62
256
370
-1
  6
ByLayer
 10
-193.73599999999999
 20
1.554
 30
0.0
 11
-193.4739999999999895
 21
2.3610000000000002
 31
0.0
  0
LINE
  5
BE
100
AcDbEntity
100
AcDbLine
  8
0
 62
256
370
-1
  6
ByLayer
 10
-193.4739999999999895
 20
2.3610000000000002
 30
0.0
 11
-193.1129999999999995
 21
3.1280000000000001
 31
0.0
  0
LINE
  5
BF
100
AcDbEntity
100
AcDbLine
  8
0
 62
256
370
-1
  6
ByLayer
 10
-193.1129999999999995
 20
3.1280000000000001
 30
0.0
 11
-192.6589999999999918
 21
3.843
 31
0.0
  0
LINE
  5
C0
100
AcDbEntity
100
AcDbLine
  8
0
 62
256
370
-1
  6
ByLayer
 10
-192.6589999999999918
 20
3.843
 30
0.0
 11
-192.1189999999999998
 21
4.4960000000000004
 31
0.0
  0
LINE
  5
C1
100
AcDbEntity
100
AcDbLine
  8
0
 62
256
370
-1
  6
ByLayer
 10
-192.1189999999999998
 20
4.4960000000000004
 30
0.0
 11
-191.5010000000000048
 21
5.077
 31
0.0
  0
LINE
  5
C2
100
AcDbEntity
100
AcDbLine
  8
0
 62
256
370
-1
  6
ByLayer
 10
-191.5010000000000048
 20
5.077
 30
0.0
 11
-190.8149999999999977
 21
5.5750000000000002
 31
0.0
  0
LINE
  5
C3
100
AcDbEntity
100
AcDbLine
  8
0
 62
256
370
-1
  6
ByLayer
 10
-190.8149999999999977
 20
5.5750000000000002
 30
0.0
 11
-190.0720000000000027
 21
5.9829999999999997
 31
0.0
  0
LINE
  5
C4
100
AcDbEntity
100
AcDbLine
  8
0
 62
256
370
-1
  6
ByLayer
 10
-190.0720000000000027
 20
5.9829999999999997
 30
0.0
 11
-189.2839999999999918
 21
6.2949999999999999
 31
0.0
  0
LINE
  5
C5
100
AcDbEntity
100
AcDbLine
  8
0
 62
256
370
-1
  6
ByLayer
 10
-189.2839999999999918
 20
6.2949999999999999
 30
0.0
 11
-188.4629999999999939
 21
6.5060000000000002
 31
0.0
  0
LINE
  5
C6
100
AcDbEntity
100
AcDbLine
  8
0
 62
256
370
-1
  6
ByLayer
 10
-188.4629999999999939
 20
6.5060000000000002
 30
0.0
 11
-187.6220000000000141
 21
6.6120000000000001
 31
0.0
  0
LINE
  5
C7
100
AcDbEntity
100
AcDbLine
  8
0
 62
256
370
-1
  6
ByLayer
 10
-187.6220000000000141
 20
6.6120000000000001
 30
0.0
 11
-186.7740000000000009
 21
6.6120000000000001
 31
0.0
  0
LINE
  5
C8
100
AcDbEntity
100
AcDbLine
  8
0
 62
256
370
-1
  6
ByLayer
 10
-186.7740000000000009
 20
6.6120000000000001
 30
0.0
 11
-185.9329999999999927
 21
6.5060000000000002
 31
0.0
  0
LINE
  5
C9
100
AcDbEntity
100
AcDbLine
  8
0
 62
256
370
-1
  6
ByLayer
 10
-185.9329999999999927
 20
6.5060000000000002
 30
0.0
 11
-185.1119999999999948
 21
6.2949999999999999
 31
0.0
  0
LINE
  5
CA
100
AcDbEntity
100
AcDbLine
  8
0
 62
256
370
-1
  6
ByLayer
 10
-185.1119999999999948
 20
6.2949999999999999
 30
0.0
 11
-184.3240000000000123
 21
5.9829999999999997
 31
0.0
  0
LINE
  5
CB
100
AcDbEntity
100
AcDbLine
  8
0
 62
256
370
-1
  6
ByLayer
 10
-184.3240000000000123
 20
5.9829999999999997
 30
0.0
 11
-183.5809999999999889
 21
5.5750000000000002
 31
0.0
  0
LINE
  5
CC
100
AcDbEntity
100
AcDbLine
  8
0
 62
256
370
-1
  6
ByLayer
 10
-183.5809999999999889
 20
5.5750000000000002
 30
0.0
 11
-182.8950000000000102
 21
5.077
 31
0.0
  0
LINE
  5
CD
100
AcDbEntity
100
AcDbLine
  8
0
 62
256
370
-1
  6
ByLayer
 10
-182.8950000000000102
 20
5.077
 30
0.0
 11
-182.2769999999999868
 21
4.4960000000000004
 31
0.0
  0
LINE
  5
CE
100
AcDbEntity
100
AcDbLine
  8
0
 62
256
370
-1
  6
ByLayer
 10
-182.2769999999999868
 20
4.4960000000000004
 30
0.0
 11
-181.7369999999999948
 21
3.843
 31
0.0
  0
LINE
  5
CF
100
AcDbEntity
100
AcDbLine
  8
0
 62
256
370
-1
  6
ByLayer
 10
-181.7369999999999948
 20
3.843
 30
0.0
 11
-181.282999999999987
 21
3.1280000000000001
 31
0.0
  0
LINE
  5
D0
100
AcDbEntity
100
AcDbLine
  8
0
 62
256
370
-1
  6
ByLayer
 10
-181.282999999999987
 20
3.1280000000000001
 30
0.0
 11
-180.921999999999997
 21
2.3610000000000002
 31
0.0
  0
LINE
  5
D1
100
AcDbEntity
100
AcDbLine
  8
0
 62
256
370
-1
  6
ByLayer
 10
-180.921999999999997
 20
2.3610000000000002
 30
0.0
 11
-180.6599999999999966
 21
1.554
 31
0.0
  0
LINE
  5
D2
100
AcDbEntity
100
AcDbLine
  8
0
 62
256
370
-1
  6
ByLayer
 10
-180.6599999999999966
 20
1.554
 30
0.0
 11
-180.5010000000000048
 21
0.722
 31
0.0
  0
LINE
  5
D3
100
AcDbEntity
100
AcDbLine
  8
0
 62
256
370
-1
  6
ByLayer
 10
-180.5010000000000048
 20
0.722
 30
0.0
 11
-180.4480000000000075
 21
-0.124
 31
0.0
  0
LINE
  5
D4
100
AcDbEntity
100
AcDbLine
  8
0
 62
256
370
-1
  6
ByLayer
 10
-180.4480000000000075
 20
-0.124
 30
0.0
 11
-180.5010000000000048
 21
-0.97
 31
0.0
  0
LINE
  5
D5
100
AcDbEntity
100
AcDbLine
  8
0
 62
256
370
-1
  6
ByLayer
 10
-180.5010000000000048
 20
-0.97
 30
0.0
 11
-180.6599999999999966
 21
-1.8029999999999999
 31
0.0
  0
LINE
  5
D6
100
AcDbEntity
100
AcDbLine
  8
0
 62
256
370
-1
  6
ByLayer
 10
-180.6599999999999966
 20
-1.8029999999999999
 30
0.0
 11
-180.921999999999997
 21
-2.609
 31
0.0
  0
LINE
  5
D7
100
AcDbEntity
100
AcDbLine
  8
0
 62
256
370
-1
  6
ByLayer
 10
-180.921999999999997
 20
-2.609
 30
0.0
 11
-181.282999999999987
 21
-3.3759999999999999
 31
0.0
  0
LINE
  5
D8
100
AcDbEntity
100
AcDbLine
  8
0
 62
256
370
-1
  6
ByLayer
 10
-181.282999999999987
 20
-3.3759999999999999
 30
0.0
 11
-181.7369999999999948
 21
-4.0919999999999996
 31
0.0
  0
LINE
  5
D9
100
AcDbEntity
100
AcDbLine
  8
0
 62
256
370
-1
  6
ByLayer
 10
-181.7369999999999948
 20
-4.0919999999999996
 30
0.0
 11
-182.2769999999999868
 21
-4.7450000000000001
 31
0.0
  0
LINE
  5
DA
100
AcDbEntity
100
AcDbLine
  8
0
 62
256
370
-1
  6
ByLayer
 10
-182.2769999999999868
 20
-4.7450000000000001
 30
0.0
 11
-182.8950000000000102
 21
-5.3250000000000002
 31
0.0
  0
LINE
  5
DB
100
AcDbEntity
100
AcDbLine
  8
0
 62
256
370
-1
  6
ByLayer
 10
-182.8950000000000102
 20
-5.3250000000000002
 30
0.0
 11
-183.5809999999999889
 21
-5.8230000000000004
 31
0.0
  0
LINE
  5
DC
100
AcDbEntity
100
AcDbLine
  8
0
 62
256
370
-1
  6
ByLayer
 10
-183.5809999999999889
 20
-5.8230000000000004
 30
0.0
 11
-184.3240000000000123
 21
-6.2320000000000002
 31
0.0
  0
LINE
  5
DD
100
AcDbEntity
100
AcDbLine
  8
0
 62
256
370
-1
  6
ByLayer
 10
-184.3240000000000123
 20
-6.2320000000000002
 30
0.0
 11
-185.1119999999999948
 21
-6.5439999999999996
 31
0.0
  0
LINE
  5
DE
100
AcDbEntity
100
AcDbLine
  8
0
 62
256
370
-1
  6
ByLayer
 10
-185.1119999999999948
 20
-6.5439999999999996
 30
0.0
 11
-185.9329999999999927
 21
-6.7549999999999999
 31
0.0
  0
LINE
  5
DF
100
AcDbEntity
100
AcDbLine
  8
0
 62
256
370
-1
  6
ByLayer
 10
-185.9329999999999927
 20
-6.7549999999999999
 30
0.0
 11
-186.7740000000000009
 21
-6.8609999999999998
 31
0.0
  0
LINE
  5
E0
100
AcDbEntity
100
AcDbLine
  8
0
 62
256
370
-1
  6
ByLayer
 10
-186.7740000000000009
 20
-6.8609999999999998
 30
0.0
 11
-187.6220000000000141
 21
-6.8609999999999998
 31
0.0
  0
LINE
  5
E1
100
AcDbEntity
100
AcDbLine
  8
0
 62
256
370
-1
  6
ByLayer
 10
-187.6220000000000141
 20
-6.8609999999999998
 30
0.0
 11
-188.4629999999999939
 21
-6.7549999999999999
 31
0.0
  0
LINE
  5
E2
100
AcDbEntity
100
AcDbLine
  8
0
 62
256
370
-1
  6
ByLayer
 10
-188.4629999999999939
 20
-6.7549999999999999
 30
0.0
 11
-189.2839999999999918
 21
-6.5439999999999996
 31
0.0
  0
LINE
  5
E3
100
AcDbEntity
100
AcDbLine
  8
0
 62
256
370
-1
  6
ByLayer
 10
-189.2839999999999918
 20
-6.5439999999999996
 30
0.0
 11
-190.0720000000000027
 21
-6.2320000000000002
 31
0.0
  0
LINE
  5
E4
100
AcDbEntity
100
AcDbLine
  8
0
 62
256
370
-1
  6
ByLayer
 10
-190.0720000000000027
 20
-6.2320000000000002
 30
0.0
 11
-190.8149999999999977
 21
-5.8230000000000004
 31
0.0
  0
LINE
  5
E5
100
AcDbEntity
100
AcDbLine
  8
0
 62
256
370
-1
  6
ByLayer
 10
-190.8149999999999977
 20
-5.8230000000000004
 30
0.0
 11
-191.5010000000000048
 21
-5.3250000000000002
 31
0.0
  0
LINE
  5
E6
100
AcDbEntity
100
AcDbLine
  8
0
 62
256
370
-1
  6
ByLayer
 10
-191.5010000000000048
 20
-5.3250000000000002
 30
0.0
 11
-192.1189999999999998
 21
-4.7450000000000001
 31
0.0
  0
LINE
  5
E7
100
AcDbEntity
100
AcDbLine
  8
0
 62
256
370
-1
  6
ByLayer
 10
-192.1189999999999998
 20
-4.7450000000000001
 30
0.0
 11
-192.6589999999999918
 21
-4.0919999999999996
 31
0.0
  0
LINE
  5
E8
100
AcDbEntity
100
AcDbLine
  8
0
 62
256
370
-1
  6
ByLayer
 10
-192.6589999999999918
 20
-4.0919999999999996
 30
0.0
 11
-193.1129999999999995
 21
-3.3759999999999999
 31
0.0
  0
LINE
  5
E9
100
AcDbEntity
100
AcDbLine
  8
0
 62
256
370
-1
  6
ByLayer
 10
-193.1129999999999995
 20
-3.3759999999999999
 30
0.0
 11
-193.4739999999999895
 21
-2.609
 31
0.0
  0
LINE
  5
EA
100
AcDbEntity
100
AcDbLine
  8
0
 62
256
370
-1
  6
ByLayer
 10
-193.4739999999999895
 20
-2.609
 30
0.0
 11
-193.73599999999999
 21
-1.8029999999999999
 31
0.0
  0
LINE
  5
EB
100
AcDbEntity
100
AcDbLine
  8
0
 62
256
370
-1
  6
ByLayer
 10
-193.73599999999999
 20
-1.8029999999999999
 30
0.0
 11
-193.8950000000000102
 21
-0.97
 31
0.0
  0
LINE
  5
EC
100
AcDbEntity
100
AcDbLine
  8
0
 62
256
370
-1
  6
ByLayer
 10
-193.8950000000000102
 20
-0.97
 30
0.0
 11
-193.9480000000000075
 21
-0.124
 31
0.0
  0
LINE
  5
ED
100
AcDbEntity
100
AcDbLine
  8
0
 62
256
370
-1
  6
ByLayer
 10
-173.6279999999999859
 20
-0.124
 30
0.0
 11
-173.5749999999999886
 21
0.722
 31
0.0
  0
LINE
  5
EE
100
AcDbEntity
100
AcDbLine
  8
0
 62
256
370
-1
  6
ByLayer
 10
-173.5749999999999886
 20
0.722
 30
0.0
 11
-173.4159999999999968
 21
1.554
 31
0.0
  0
LINE
  5
EF
100
AcDbEntity
100
AcDbLine
  8
0
 62
256
370
-1
  6
ByLayer
 10
-173.4159999999999968
 20
1.554
 30
0.0
 11
-173.1539999999999964
 21
2.3610000000000002
 31
0.0
  0
LINE
  5
F0
100
AcDbEntity
100
AcDbLine
  8
0
 62
256
370
-1
  6
ByLayer
 10
-173.1539999999999964
 20
2.3610000000000002
 30
0.0
 11
-172.7930000000000064
 21
3.1280000000000001
 31
0.0
  0
LINE
  5
F1
100
AcDbEntity
100
AcDbLine
  8
0
 62
256
370
-1
  6
ByLayer
 10
-172.7930000000000064
 20
3.1280000000000001
 30
0.0
 11
-172.3389999999999986
 21
3.843
 31
0.0
  0
LINE
  5
F2
100
AcDbEntity
100
AcDbLine
  8
0
 62
256
370
-1
  6
ByLayer
 10
-172.3389999999999986
 20
3.843
 30
0.0
 11
-171.7990000000000066
 21
4.4960000000000004
 31
0.0
  0
LINE
  5
F3
100
AcDbEntity
100
AcDbLine
  8
0
 62
256
370
-1
  6
ByLayer
 10
-171.7990000000000066
 20
4.4960000000000004
 30
0.0
 11
-171.1810000000000116
 21
5.077
 31
0.0
  0
LINE
  5
F4
100
AcDbEntity
100
AcDbLine
  8
0
 62
256
370
-1
  6
ByLayer
 10
-171.1810000000000116
 20
5.077
 30
0.0
 11
-170.4950000000000045
 21
5.5750000000000002
 31
0.0
  0
LINE
  5
F5
100
AcDbEntity
100
AcDbLine
  8
0
 62
256
370
-1
  6
ByLayer
 10
-170.4950000000000045
 20
5.5750000000000002
 30
0.0
 11
-169.7520000000000095
 21
5.9829999999999997
 31
0.0
  0
LINE
  5
F6
100
AcDbEntity
100
AcDbLine
  8
0
 62
256
370
-1
  6
ByLayer
 10
-169.7520000000000095
 20
5.9829999999999997
 30
0.0
 11
-168.9639999999999986
 21
6.2949999999999999
 31
0.0
  0
LINE
  5
F7
100
AcDbEntity
100
AcDbLine
  8
0
 62
256
370
-1
  6
ByLayer
 10
-168.9639999999999986
 20
6.2949999999999999
 30
0.0
 11
-168.1430000000000007
 21
6.5060000000000002
 31
0.0
  0
LINE
  5
F8
100
AcDbEntity
100
AcDbLine
  8
0
 62
256
370
-1
  6
ByLayer
 10
-168.1430000000000007
 20
6.5060000000000002
 30
0.0
 11
-167.3019999999999925
 21
6.6120000000000001
 31
0.0
  0
LINE
  5
F9
100
AcDbEntity
100
AcDbLine
  8
0
 62
256
370
-1
  6
ByLayer
 10
-167.3019999999999925
 20
6.6120000000000001
 30
0.0
 11
-166.4540000000000077
 21
6.6120000000000001
 31
0.0
  0
LINE
  5
FA
100
AcDbEntity
100
AcDbLine
  8
0
 62
256
370
-1
  6
ByLayer
 10
-166.4540000000000077
 20
6.6120000000000001
 30
0.0
 11
-165.6129999999999995
 21
6.5060000000000002
 31
0.0
  0
LINE
  5
FB
100
AcDbEntity
100
AcDbLine
  8
0
 62
256
370
-1
  6
ByLayer
 10
-165.6129999999999995
 20
6.5060000000000002
 30
0.0
 11
-164.7920000000000016
 21
6.2949999999999999
 31
0.0
  0
LINE
  5
FC
100
AcDbEntity
100
AcDbLine
  8
0
 62
256
370
-1
  6
ByLayer
 10
-164.7920000000000016
 20
6.2949999999999999
 30
0.0
 11
-164.0039999999999907
 21
5.9829999999999997
 31
0.0
  0
LINE
  5
FD
100
AcDbEntity
100
AcDbLine
  8
0
 62
256
370
-1
  6
ByLayer
 10
-164.0039999999999907
 20
5.9829999999999997
 30
0.0
 11
-163.2609999999999957
 21
5.5750000000000002
 31
0.0
  0
LINE
  5
FE
100
AcDbEntity
100
AcDbLine
  8
0
 62
256
370
-1
  6
ByLayer
 10
-163.2609999999999957
 20
5.5750000000000002
 30
0.0
 11
-162.5749999999999886
 21
5.077
 31
0.0
  0
LINE
  5
FF
100
AcDbEntity
100
AcDbLine
  8
0
 62
256
370
-1
  6
ByLayer
 10
-162.5749999999999886
 20
5.077
 30
0.0
 11
-161.9569999999999936
 21
4.4960000000000004
 31
0.0
  0
LINE
  5
100
100
AcDbEntity
100
AcDbLine
  8
0
 62
256
370
-1
  6
ByLayer
 10
-161.9569999999999936
 20
4.4960000000000004
 30
0.0
 11
-161.4170000000000016
 21
3.843
 31
0.0
  0
LINE
  5
101
100
AcDbEntity
100
AcDbLine
  8
0
 62
256
370
-1
  6
ByLayer
 10
-161.4170000000000016
 20
3.843
 30
0.0
 11
-160.9629999999999939
 21
3.1280000000000001
 31
0.0
  0
LINE
  5
102
100
AcDbEntity
100
AcDbLine
  8
0
 62
256
370
-1
  6
ByLayer
 10
-160.9629999999999939
 20
3.1280000000000001
 30
0.0
 11
-160.6020000000000039
 21
2.3610000000000002
 31
0.0
  0
LINE
  5
103
100
AcDbEntity
100
AcDbLine
  8
0
 62
256
370
-1
  6
ByLayer
 10
-160.6020000000000039
 20
2.3610000000000002
 30
0.0
 11
-160.3400000000000034
 21
1.554
 31
0.0
  0
LINE
  5
104
100
AcDbEntity
100
AcDbLine
  8
0
 62
256
370
-1
  6
ByLayer
 10
-160.3400000000000034
 20
1.554
 30
0.0
 11
-160.1810000000000116
 21
0.722
 31
0.0
  0
LINE
  5
105
100
AcDbEntity
100
AcDbLine
  8
0
 62
256
370
-1
  6
ByLayer
 10
-160.1810000000000116
 20
0.722
 30
0.0
 11
-160.1279999999999859
 21
-0.124
 31
0.0
  0
LINE
  5
106
100
AcDbEntity
100
AcDbLine
  8
0
 62
256
370
-1
  6
ByLayer
 10
-160.1279999999999859
 20
-0.124
 30
0.0
 11
-160.1810000000000116
 21
-0.97
 31
0.0
  0
LINE
  5
107
100
AcDbEntity
100
AcDbLine
  8
0
 62
256
370
-1
  6
ByLayer
 10
-160.1810000000000116
 20
-0.97
 30
0.0
 11
-160.3400000000000034
 21
-1.8029999999999999
 31
0.0
  0
LINE
  5
108
100
AcDbEntity
100
AcDbLine
  8
0
 62
256
370
-1
  6
ByLayer
 10
-160.3400000000000034
 20
-1.8029999999999999
 30
0.0
 11
-160.6020000000000039
 21
-2.609
 31
0.0
  0
LINE
  5
109
100
AcDbEntity
100
AcDbLine
  8
0
 62
256
370
-1
  6
ByLayer
 10
-160.6020000000000039
 20
-2.609
 30
0.0
 11
-160.9629999999999939
 21
-3.3759999999999999
 31
0.0
  0
LINE
  5
10A
100
AcDbEntity
100
AcDbLine
  8
0
 62
256
370
-1
  6
ByLayer
 10
-160.9629999999999939
 20
-3.3759999999999999
 30
0.0
 11
-161.4170000000000016
 21
-4.0919999999999996
 31
0.0
  0
LINE
  5
10B
100
AcDbEntity
100
AcDbLine
  8
0
 62
256
370
-1
  6
ByLayer
 10
-161.4170000000000016
 20
-4.0919999999999996
 30
0.0
 11
-161.9569999999999936
 21
-4.7450000000000001
 31
0.0
  0
LINE
  5
10C
100
AcDbEntity
100
AcDbLine
  8
0
 62
256
370
-1
  6
ByLayer
 10
-161.9569999999999936
 20
-4.7450000000000001
 30
0.0
 11
-162.5749999999999886
 21
-5.3250000000000002
 31
0.0
  0
LINE
  5
10D
100
AcDbEntity
100
AcDbLine
  8
0
 62
256
370
-1
  6
ByLayer
 10
-162.5749999999999886
 20
-5.3250000000000002
 30
0.0
 11
-163.2609999999999957
 21
-5.8230000000000004
 31
0.0
  0
LINE
  5
10E
100
AcDbEntity
100
AcDbLine
  8
0
 62
256
370
-1
  6
ByLayer
 10
-163.2609999999999957
 20
-5.8230000000000004
 30
0.0
 11
-164.0039999999999907
 21
-6.2320000000000002
 31
0.0
  0
LINE
  5
10F
100
AcDbEntity
100
AcDbLine
  8
0
 62
256
370
-1
  6
ByLayer
 10
-164.0039999999999907
 20
-6.2320000000000002
 30
0.0
 11
-164.7920000000000016
 21
-6.5439999999999996
 31
0.0
  0
LINE
  5
110
100
AcDbEntity
100
AcDbLine
  8
0
 62
256
370
-1
  6
ByLayer
 10
-164.7920000000000016
 20
-6.5439999999999996
 30
0.0
 11
-165.6129999999999995
 21
-6.7549999999999999
 31
0.0
  0
LINE
  5
111
100
AcDbEntity
100
AcDbLine
  8
0
 62
256
370
-1
  6
ByLayer
 10
-165.6129999999999995
 20
-6.7549999999999999
 30
0.0
 11
-166.4540000000000077
 21
-6.8609999999999998
 31
0.0
  0
LINE
  5
112
100
AcDbEntity
100
AcDbLine
  8
0
 62
256
370
-1
  6
ByLayer
 10
-166.4540000000000077
 20
-6.8609999999999998
 30
0.0
 11
-167.3019999999999925
 21
-6.8609999999999998
 31
0.0
  0
LINE
  5
113
100
AcDbEntity
100
AcDbLine
  8
0
 62
256
370
-1
  6
ByLayer
 10
-167.3019999999999925
 20
-6.8609999999999998
 30
0.0
 11
-168.1430000000000007
 21
-6.7549999999999999
 31
0.0
  0
LINE
  5
114
100
AcDbEntity
100
AcDbLine
  8
0
 62
256
370
-1
  6
ByLayer
 10
-168.1430000000000007
 20
-6.7549999999999999
 30
0.0
 11
-168.9639999999999986
 21
-6.5439999999999996
 31
0.0
  0
LINE
  5
115
100
AcDbEntity
100
AcDbLine
  8
0
 62
256
370
-1
  6
ByLayer
 10
-168.9639999999999986
 20
-6.5439999999999996
 30
0.0
 11
-169.7520000000000095
 21
-6.2320000000000002
 31
0.0
  0
LINE
  5
116
100
AcDbEntity
100
AcDbLine
  8
0
 62
256
370
-1
  6
ByLayer
 10
-169.7520000000000095
 20
-6.2320000000000002
 30
0.0
 11
-170.4950000000000045
 21
-5.8230000000000004
 31
0.0
  0
LINE
  5
117
100
AcDbEntity
100
AcDbLine
  8
0
 62
256
370
-1
  6
ByLayer
 10
-170.4950000000000045
 20
-5.8230000000000004
 30
0.0
 11
-171.1810000000000116
 21
-5.3250000000000002
 31
0.0
  0
LINE
  5
118
100
AcDbEntity
100
AcDbLine
  8
0
 62
256
370
-1
  6
ByLayer
 10
-171.1810000000000116
 20
-5.3250000000000002
 30
0.0
 11
-171.7990000000000066
 21
-4.7450000000000001
 31
0.0
  0
LINE
  5
119
100
AcDbEntity
100
AcDbLine
  8
0
 62
256
370
-1
  6
ByLayer
 10
-171.7990000000000066
 20
-4.7450000000000001
 30
0.0
 11
-172.3389999999999986
 21
-4.0919999999999996
 31
0.0
  0
LINE
  5
11A
100
AcDbEntity
100
AcDbLine
  8
0
 62
256
370
-1
  6
ByLayer
 10
-172.3389999999999986
 20
-4.0919999999999996
 30
0.0
 11
-172.7930000000000064
 21
-3.3759999999999999
 31
0.0
  0
LINE
  5
11B
100
AcDbEntity
100
AcDbLine
  8
0
 62
256
370
-1
  6
ByLayer
 10
-172.7930000000000064
 20
-3.3759999999999999
 30
0.0
 11
-173.1539999999999964
 21
-2.609
 31
0.0
  0
LINE
  5
11C
100
AcDbEntity
100
AcDbLine
  8
0
 62
256
370
-1
  6
ByLayer
 10
-173.1539999999999964
 20
-2.609
 30
0.0
 11
-173.4159999999999968
 21
-1.8029999999999999
 31
0.0
  0
LINE
  5
11D
100
AcDbEntity
100
AcDbLine
  8
0
 62
256
370
-1
  6
ByLayer
 10
-173.4159999999999968
 20
-1.8029999999999999
 30
0.0
 11
-173.5749999999999886
 21
-0.97
 31
0.0
  0
LINE
  5
11E
100
AcDbEntity
100
AcDbLine
  8
0
 62
256
370
-1
  6
ByLayer
 10
-173.5749999999999886
 20
-0.97
 30
0.0
 11
-173.6279999999999859
 21
-0.124
 31
0.0
  0
LINE
  5
11F
100
AcDbEntity
100
AcDbLine
  8
0
 62
256
370
-1
  6
ByLayer
 10
-153.3079999999999927
 20
-0.124
 30
0.0
 11
-153.2549999999999955
 21
0.722
 31
0.0
  0
LINE
  5
120
100
AcDbEntity
100
AcDbLine
  8
0
 62
256
370
-1
  6
ByLayer
 10
-153.2549999999999955
 20
0.722
 30
0.0
 11
-153.0960000000000036
 21
1.554
 31
0.0
  0
LINE
  5
121
100
AcDbEntity
100
AcDbLine
  8
0
 62
256
370
-1
  6
ByLayer
 10
-153.0960000000000036
 20
1.554
 30
0.0
 11
-152.8340000000000032
 21
2.3610000000000002
 31
0.0
  0
LINE
  5
122
100
AcDbEntity
100
AcDbLine
  8
0
 62
256
370
-1
  6
ByLayer
 10
-152.8340000000000032
 20
2.3610000000000002
 30
0.0
 11
-152.4730000000000132
 21
3.1280000000000001
 31
0.0
  0
LINE
  5
123
100
AcDbEntity
100
AcDbLine
  8
0
 62
256
370
-1
  6
ByLayer
 10
-152.4730000000000132
 20
3.1280000000000001
 30
0.0
 11
-152.0190000000000055
 21
3.843
 31
0.0
  0
LINE
  5
124
100
AcDbEntity
100
AcDbLine
  8
0
 62
256
370
-1
  6
ByLayer
 10
-152.0190000000000055
 20
3.843
 30
0.0
 11
-151.4790000000000134
 21
4.4960000000000004
 31
0.0
  0
LINE
  5
125
100
AcDbEntity
100
AcDbLine
  8
0
 62
256
370
-1
  6
ByLayer
 10
-151.4790000000000134
 20
4.4960000000000004
 30
0.0
 11
-150.86099999999999
 21
5.077
 31
0.0
  0
LINE
  5
126
100
AcDbEntity
100
AcDbLine
  8
0
 62
256
370
-1
  6
ByLayer
 10
-150.86099999999999
 20
5.077
 30
0.0
 11
-150.1750000000000114
 21
5.5750000000000002
 31
0.0
  0
LINE
  5
127
100
AcDbEntity
100
AcDbLine
  8
0
 62
256
370
-1
  6
ByLayer
 10
-150.1750000000000114
 20
5.5750000000000002
 30
0.0
 11
-149.4319999999999879
 21
5.9829999999999997
 31
0.0
  0
LINE
  5
128
100
AcDbEntity
100
AcDbLine
  8
0
 62
256
370
-1
  6
ByLayer
 10
-149.4319999999999879
 20
5.9829999999999997
 30
0.0
 11
-148.6440000000000055
 21
6.2949999999999999
 31
0.0
  0
LINE
  5
129
100
AcDbEntity
100
AcDbLine
  8
0
 62
256
370
-1
  6
ByLayer
 10
-148.6440000000000055
 20
6.2949999999999999
 30
0.0
 11
-147.8230000000000075
 21
6.5060000000000002
 31
0.0
  0
LINE
  5
12A
100
AcDbEntity
100
AcDbLine
  8
0
 62
256
370
-1
  6
ByLayer
 10
-147.8230000000000075
 20
6.5060000000000002
 30
0.0
 11
-146.9819999999999993
 21
6.6120000000000001
 31
0.0
  0
LINE
  5
12B
100
AcDbEntity
100
AcDbLine
  8
0
 62
256
370
-1
  6
ByLayer
 10
-146.9819999999999993
 20
6.6120000000000001
 30
0.0
 11
-146.1339999999999861
 21
6.6120000000000001
 31
0.0
  0
LINE
  5
12C
100
AcDbEntity
100
AcDbLine
  8
0
 62
256
370
-1
  6
ByLayer
 10
-146.1339999999999861
 20
6.6120000000000001
 30
0.0
 11
-145.2930000000000064
 21
6.5060000000000002
 31
0.0
  0
LINE
  5
12D
100
AcDbEntity
100
AcDbLine
  8
0
 62
256
370
-1
  6
ByLayer
 10
-145.2930000000000064
 20
6.5060000000000002
 30
0.0
 11
-144.4720000000000084
 21
6.2949999999999999
 31
0.0
  0
LINE
  5
12E
100
AcDbEntity
100
AcDbLine
  8
0
 62
256
370
-1
  6
ByLayer
 10
-144.4720000000000084
 20
6.2949999999999999
 30
0.0
 11
-143.6839999999999975
 21
5.9829999999999997
 31
0.0
  0
LINE
  5
12F
100
AcDbEntity
100
AcDbLine
  8
0
 62
256
370
-1
  6
ByLayer
 10
-143.6839999999999975
 20
5.9829999999999997
 30
0.0
 11
-142.9410000000000025
 21
5.5750000000000002
 31
0.0
  0
LINE
  5
130
100
AcDbEntity
100
AcDbLine
  8
0
 62
256
370
-1
  6
ByLayer
 10
-142.9410000000000025
 20
5.5750000000000002
 30
0.0
 11
-142.2549999999999955
 21
5.077
 31
0.0
  0
LINE
  5
131
100
AcDbEntity
100
AcDbLine
  8
0
 62
256
370
-1
  6
ByLayer
 10
-142.2549999999999955
 20
5.077
 30
0.0
 11
-141.6370000000000005
 21
4.4960000000000004
 31
0.0
  0
LINE
  5
132
100
AcDbEntity
100
AcDbLine
  8
0
 62
256
370
-1
  6
ByLayer
 10
-141.6370000000000005
 20
4.4960000000000004
 30
0.0
 11
-141.0970000000000084
 21
3.843
 31
0.0
  0
LINE
  5
133
100
AcDbEntity
100
AcDbLine
  8
0
 62
256
370
-1
  6
ByLayer
 10
-141.0970000000000084
 20
3.843
 30
0.0
 11
-140.6430000000000007
 21
3.1280000000000001
 31
0.0
  0
LINE
  5
134
100
AcDbEntity
100
AcDbLine
  8
0
 62
256
370
-1
  6
ByLayer
 10
-140.6430000000000007
 20
3.1280000000000001
 30
0.0
 11
-140.2820000000000107
 21
2.3610000000000002
 31
0.0
  0
LINE
  5
135
100
AcDbEntity
100
AcDbLine
  8
0
 62
256
370
-1
  6
ByLayer
 10
-140.2820000000000107
 20
2.3610000000000002
 30
0.0
 11
-140.0200000000000102
 21
1.554
 31
0.0
  0
LINE
  5
136
100
AcDbEntity
100
AcDbLine
  8
0
 62
256
370
-1
  6
ByLayer
 10
-140.0200000000000102
 20
1.554
 30
0.0
 11
-139.86099999999999
 21
0.722
 31
0.0
  0
LINE
  5
137
100
AcDbEntity
100
AcDbLine
  8
0
 62
256
370
-1
  6
ByLayer
 10
-139.86099999999999
 20
0.722
 30
0.0
 11
-139.8079999999999927
 21
-0.124
 31
0.0
  0
LINE
  5
138
100
AcDbEntity
100
AcDbLine
  8
0
 62
256
370
-1
  6
ByLayer
 10
-139.8079999999999927
 20
-0.124
 30
0.0
 11
-139.86099999999999
 21
-0.97
 31
0.0
  0
LINE
  5
139
100
AcDbEntity
100
AcDbLine
  8
0
 62
256
370
-1
  6
ByLayer
 10
-139.86099999999999
 20
-0.97
 30
0.0
 11
-140.0200000000000102
 21
-1.8029999999999999
 31
0.0
  0
LINE
  5
13A
100
AcDbEntity
100
AcDbLine
  8
0
 62
256
370
-1
  6
ByLayer
 10
-140.0200000000000102
 20
-1.8029999999999999
 30
0.0
 11
-140.2820000000000107
 21
-2.609
 31
0.0
  0
LINE
  5
13B
100
AcDbEntity
100
AcDbLine
  8
0
 62
256
370
-1
  6
ByLayer
 10
-140.2820000000000107
 20
-2.609
 30
0.0
 11
-140.6430000000000007
 21
-3.3759999999999999
 31
0.0
  0
LINE
  5
13C
100
AcDbEntity
100
AcDbLine
  8
0
 62
256
370
-1
  6
ByLayer
 10
-140.6430000000000007
 20
-3.3759999999999999
 30
0.0
 11
-141.0970000000000084
 21
-4.0919999999999996
 31
0.0
  0
LINE
  5
13D
100
AcDbEntity
100
AcDbLine
  8
0
 62
256
370
-1
  6
ByLayer
 10
-141.0970000000000084
 20
-4.0919999999999996
 30
0.0
 11
-141.6370000000000005
 21
-4.7450000000000001
 31
0.0
  0
LINE
  5
13E
100
AcDbEntity
100
AcDbLine
  8
0
 62
256
370
-1
  6
ByLayer
 10
-141.6370000000000005
 20
-4.7450000000000001
 30
0.0
 11
-142.2549999999999955
 21
-5.3250000000000002
 31
0.0
  0
LINE
  5
13F
100
AcDbEntity
100
AcDbLine
  8
0
 62
256
370
-1
  6
ByLayer
 10
-142.2549999999999955
 20
-5.3250000000000002
 30
0.0
 11
-142.9410000000000025
 21
-5.8230000000000004
 31
0.0
  0
LINE
  5
140
100
AcDbEntity
100
AcDbLine
  8
0
 62
256
370
-1
  6
ByLayer
 10
-142.9410000000000025
 20
-5.8230000000000004
 30
0.0
 11
-143.6839999999999975
 21
-6.2320000000000002
 31
0.0
  0
LINE
  5
141
100
AcDbEntity
100
AcDbLine
  8
0
 62
256
370
-1
  6
ByLayer
 10
-143.6839999999999975
 20
-6.2320000000000002
 30
0.0
 11
-144.4720000000000084
 21
-6.5439999999999996
 31
0.0
  0
LINE
  5
142
100
AcDbEntity
100
AcDbLine
  8
0
 62
256
370
-1
  6
ByLayer
 10
-144.4720000000000084
 20
-6.5439999999999996
 30
0.0
 11
-145.2930000000000064
 21
-6.7549999999999999
 31
0.0
  0
LINE
  5
143
100
AcDbEntity
100
AcDbLine
  8
0
 62
256
370
-1
  6
ByLayer
 10
-145.2930000000000064
 20
-6.7549999999999999
 30
0.0
 11
-146.1339999999999861
 21
-6.8609999999999998
 31
0.0
  0
LINE
  5
144
100
AcDbEntity
100
AcDbLine
  8
0
 62
256
370
-1
  6
ByLayer
 10
-146.1339999999999861
 20
-6.8609999999999998
 30
0.0
 11
-146.9819999999999993
 21
-6.8609999999999998
 31
0.0
  0
LINE
  5
145
100
AcDbEntity
100
AcDbLine
  8
0
 62
256
370
-1
  6
ByLayer
 10
-146.9819999999999993
 20
-6.8609999999999998
 30
0.0
 11
-147.8230000000000075
 21
-6.7549999999999999
 31
0.0
  0
LINE
  5
146
100
AcDbEntity
100
AcDbLine
  8
0
 62
256
370
-1
  6
ByLayer
 10
-147.8230000000000075
 20
-6.7549999999999999
 30
0.0
 11
-148.6440000000000055
 21
-6.5439999999999996
 31
0.0
  0
LINE
  5
147
100
AcDbEntity
100
AcDbLine
  8
0
 62
256
370
-1
  6
ByLayer
 10
-148.6440000000000055
 20
-6.5439999999999996
 30
0.0
 11
-149.4319999999999879
 21
-6.2320000000000002
 31
0.0
  0
LINE
  5
148
100
AcDbEntity
100
AcDbLine
  8
0
 62
256
370
-1
  6
ByLayer
 10
-149.4319999999999879
 20
-6.2320000000000002
 30
0.0
 11
-150.1750000000000114
 21
-5.8230000000000004
 31
0.0
  0
LINE
  5
149
100
AcDbEntity
100
AcDbLine
  8
0
 62
256
370
-1
  6
ByLayer
 10
-150.1750000000000114
 20
-5.8230000000000004
 30
0.0
 11
-150.86099999999999
 21
-5.3250000000000002
 31
0.0
  0
LINE
  5
14A
100
AcDbEntity
100
AcDbLine
  8
0
 62
256
370
-1
  6
ByLayer
 10
-150.86099999999999
 20
-5.3250000000000002
 30
0.0
 11
-151.4790000000000134
 21
-4.7450000000000001
 31
0.0
  0
LINE
  5
14B
100
AcDbEntity
100
AcDbLine
  8
0
 62
256
370
-1
  6
ByLayer
 10
-151.4790000000000134
 20
-4.7450000000000001
 30
0.0
 11
-152.0190000000000055
 21
-4.0919999999999996
 31
0.0
  0
LINE
  5
14C
100
AcDbEntity
100
AcDbLine
  8
0
 62
256
370
-1
  6
ByLayer
 10
-152.0190000000000055
 20
-4.0919999999999996
 30
0.0
 11
-152.4730000000000132
 21
-3.3759999999999999
 31
0.0
  0
LINE
  5
14D
100
AcDbEntity
100
AcDbLine
  8
0
 62
256
370
-1
  6
ByLayer
 10
-152.4730000000000132
 20
-3.3759999999999999
 30
0.0
 11
-152.8340000000000032
 21
-2.609
 31
0.0
  0
LINE
  5
14E
100
AcDbEntity
100
AcDbLine
  8
0
 62
256
370
-1
  6
ByLayer
 10
-152.8340000000000032
 20
-2.609
 30
0.0
 11
-153.0960000000000036
 21
-1.8029999999999999
 31
0.0
  0
LINE
  5
14F
100
AcDbEntity
100
AcDbLine
  8
0
 62
256
370
-1
  6
ByLayer
 10
-153.0960000000000036
 20
-1.8029999999999999
 30
0.0
 11
-153.2549999999999955
 21
-0.97
 31
0.0
  0
LINE
  5
150
100
AcDbEntity
100
AcDbLine
  8
0
 62
256
370
-1
  6
ByLayer
 10
-153.2549999999999955
 20
-0.97
 30
0.0
 11
-153.3079999999999927
 21
-0.124
 31
0.0
  0
LINE
  5
151
100
AcDbEntity
100
AcDbLine
  8
0
 62
256
370
-1
  6
ByLayer
 10
-132.9879999999999995
 20
-0.124
 30
0.0
 11
-132.9350000000000023
 21
0.722
 31
0.0
  0
LINE
  5
152
100
AcDbEntity
100
AcDbLine
  8
0
 62
256
370
-1
  6
ByLayer
 10
-132.9350000000000023
 20
0.722
 30
0.0
 11
-132.7760000000000105
 21
1.554
 31
0.0
  0
LINE
  5
153
100
AcDbEntity
100
AcDbLine
  8
0
 62
256
370
-1
  6
ByLayer
 10
-132.7760000000000105
 20
1.554
 30
0.0
 11
-132.51400000000001
 21
2.3610000000000002
 31
0.0
  0
LINE
  5
154
100
AcDbEntity
100
AcDbLine
  8
0
 62
256
370
-1
  6
ByLayer
 10
-132.51400000000001
 20
2.3610000000000002
 30
0.0
 11
-132.1529999999999916
 21
3.1280000000000001
 31
0.0
  0
LINE
  5
155
100
AcDbEntity
100
AcDbLine
  8
0
 62
256
370
-1
  6
ByLayer
 10
-132.1529999999999916
 20
3.1280000000000001
 30
0.0
 11
-131.6990000000000123
 21
3.843
 31
0.0
  0
LINE
  5
156
100
AcDbEntity
100
AcDbLine
  8
0
 62
256
370
-1
  6
ByLayer
 10
-131.6990000000000123
 20
3.843
 30
0.0
 11
-131.1589999999999918
 21
4.4960000000000004
 31
0.0
  0
LINE
  5
157
100
AcDbEntity
100
AcDbLine
  8
0
 62
256
370
-1
  6
ByLayer
 10
-131.1589999999999918
 20
4.4960000000000004
 30
0.0
 11
-130.5409999999999968
 21
5.077
 31
0.0
  0
LINE
  5
158
100
AcDbEntity
100
AcDbLine
  8
0
 62
256
370
-1
  6
ByLayer
 10
-130.5409999999999968
 20
5.077
 30
0.0
 11
-129.8549999999999898
 21
5.5750000000000002
 31
0.0
  0
LINE
  5
159
100
AcDbEntity
100
AcDbLine
  8
0
 62
256
370
-1
  6
ByLayer
 10
-129.8549999999999898
 20
5.5750000000000002
 30
0.0
 11
-129.1119999999999948
 21
5.9829999999999997
 31
0.0
  0
LINE
  5
15A
100
AcDbEntity
100
AcDbLine
  8
0
 62
256
370
-1
  6
ByLayer
 10
-129.1119999999999948
 20
5.9829999999999997
 30
0.0
 11
-128.3240000000000123
 21
6.2949999999999999
 31
0.0
  0
LINE
  5
15B
100
AcDbEntity
100
AcDbLine
  8
0
 62
256
370
-1
  6
ByLayer
 10
-128.3240000000000123
 20
6.2949999999999999
 30
0.0
 11
-127.5030000000000001
 21
6.5060000000000002
 31
0.0
  0
LINE
  5
15C
100
AcDbEntity
100
AcDbLine
  8
0
 62
256
370
-1
  6
ByLayer
 10
-127.5030000000000001
 20
6.5060000000000002
 30
0.0
 11
-126.6620000000000061
 21
6.6120000000000001
 31
0.0
  0
LINE
  5
15D
100
AcDbEntity
100
AcDbLine
  8
0
 62
256
370
-1
  6
ByLayer
 10
-126.6620000000000061
 20
6.6120000000000001
 30
0.0
 11
-125.813999999999993
 21
6.6120000000000001
 31
0.0
  0
LINE
  5
15E
100
AcDbEntity
100
AcDbLine
  8
0
 62
256
370
-1
  6
ByLayer
 10
-125.813999999999993
 20
6.6120000000000001
 30
0.0
 11
-124.972999999999999
 21
6.5060000000000002
 31
0.0
  0
LINE
  5
15F
100
AcDbEntity
100
AcDbLine
  8
0
 62
256
370
-1
  6
ByLayer
 10
-124.972999999999999
 20
6.5060000000000002
 30
0.0
 11
-124.152000000000001
 21
6.2949999999999999
 31
0.0
  0
LINE
  5
160
100
AcDbEntity
100
AcDbLine
  8
0
 62
256
370
-1
  6
ByLayer
 10
-124.152000000000001
 20
6.2949999999999999
 30
0.0
 11
-123.3640000000000043
 21
5.9829999999999997
 31
0.0
  0
LINE
  5
161
100
AcDbEntity
100
AcDbLine
  8
0
 62
256
370
-1
  6
ByLayer
 10
-123.3640000000000043
 20
5.9829999999999997
 30
0.0
 11
-122.6209999999999951
 21
5.5750000000000002
 31
0.0
  0
LINE
  5
162
100
AcDbEntity
100
AcDbLine
  8
0
 62
256
370
-1
  6
ByLayer
 10
-122.6209999999999951
 20
5.5750000000000002
 30
0.0
 11
-121.9350000000000023
 21
5.077
 31
0.0
  0
LINE
  5
163
100
AcDbEntity
100
AcDbLine
  8
0
 62
256
370
-1
  6
ByLayer
 10
-121.9350000000000023
 20
5.077
 30
0.0
 11
-121.3169999999999931
 21
4.4960000000000004
 31
0.0
  0
LINE
  5
164
100
AcDbEntity
100
AcDbLine
  8
0
 62
256
370
-1
  6
ByLayer
 10
-121.3169999999999931
 20
4.4960000000000004
 30
0.0
 11
-120.777000000000001
 21
3.843
 31
0.0
  0
LINE
  5
165
100
AcDbEntity
100
AcDbLine
  8
0
 62
256
370
-1
  6
ByLayer
 10
-120.777000000000001
 20
3.843
 30
0.0
 11
-120.3229999999999933
 21
3.1280000000000001
 31
0.0
  0
LINE
  5
166
100
AcDbEntity
100
AcDbLine
  8
0
 62
256
370
-1
  6
ByLayer
 10
-120.3229999999999933
 20
3.1280000000000001
 30
0.0
 11
-119.9620000000000033
 21
2.3610000000000002
 31
0.0
  0
LINE
  5
167
100
AcDbEntity
100
AcDbLine
  8
0
 62
256
370
-1
  6
ByLayer
 10
-119.9620000000000033
 20
2.3610000000000002
 30
0.0
 11
-119.7000000000000028
 21
1.554
 31
0.0
  0
LINE
  5
168
100
AcDbEntity
100
AcDbLine
  8
0
 62
256
370
-1
  6
ByLayer
 10
-119.7000000000000028
 20
1.554
 30
0.0
 11
-119.5409999999999968
 21
0.722
 31
0.0
  0
LINE
  5
169
100
AcDbEntity
100
AcDbLine
  8
0
 62
256
370
-1
  6
ByLayer
 10
-119.5409999999999968
 20
0.722
 30
0.0
 11
-119.4879999999999995
 21
-0.124
 31
0.0
  0
LINE
  5
16A
100
AcDbEntity
100
AcDbLine
  8
0
 62
256
370
-1
  6
ByLayer
 10
-119.4879999999999995
 20
-0.124
 30
0.0
 11
-119.5409999999999968
 21
-0.97
 31
0.0
  0
LINE
  5
16B
100
AcDbEntity
100
AcDbLine
  8
0
 62
256
370
-1
  6
ByLayer
 10
-119.5409999999999968
 20
-0.97
 30
0.0
 11
-119.7000000000000028
 21
-1.8029999999999999
 31
0.0
  0
LINE
  5
16C
100
AcDbEntity
100
AcDbLine
  8
0
 62
256
370
-1
  6
ByLayer
 10
-119.7000000000000028
 20
-1.8029999999999999
 30
0.0
 11
-119.9620000000000033
 21
-2.609
 31
0.0
  0
LINE
  5
16D
100
AcDbEntity
100
AcDbLine
  8
0
 62
256
370
-1
  6
ByLayer
 10
-119.9620000000000033
 20
-2.609
 30
0.0
 11
-120.3229999999999933
 21
-3.3759999999999999
 31
0.0
  0
LINE
  5
16E
100
AcDbEntity
100
AcDbLine
  8
0
 62
256
370
-1
  6
ByLayer
 10
-120.3229999999999933
 20
-3.3759999999999999
 30
0.0
 11
-120.777000000000001
 21
-4.0919999999999996
 31
0.0
  0
LINE
  5
16F
100
AcDbEntity
100
AcDbLine
  8
0
 62
256
370
-1
  6
ByLayer
 10
-120.777000000000001
 20
-4.0919999999999996
 30
0.0
 11
-121.3169999999999931
 21
-4.7450000000000001
 31
0.0
  0
LINE
  5
170
100
AcDbEntity
100
AcDbLine
  8
0
 62
256
370
-1
  6
ByLayer
 10
-121.3169999999999931
 20
-4.7450000000000001
 30
0.0
 11
-121.9350000000000023
 21
-5.3250000000000002
 31
0.0
  0
LINE
  5
171
100
AcDbEntity
100
AcDbLine
  8
0
 62
256
370
-1
  6
ByLayer
 10
-121.9350000000000023
 20
-5.3250000000000002
 30
0.0
 11
-122.6209999999999951
 21
-5.8230000000000004
 31
0.0
  0
LINE
  5
172
100
AcDbEntity
100
AcDbLine
  8
0
 62
256
370
-1
  6
ByLayer
 10
-122.6209999999999951
 20
-5.8230000000000004
 30
0.0
 11
-123.3640000000000043
 21
-6.2320000000000002
 31
0.0
  0
LINE
  5
173
100
AcDbEntity
100
AcDbLine
  8
0
 62
256
370
-1
  6
ByLayer
 10
-123.3640000000000043
 20
-6.2320000000000002
 30
0.0
 11
-124.152000000000001
 21
-6.5439999999999996
 31
0.0
  0
LINE
  5
174
100
AcDbEntity
100
AcDbLine
  8
0
 62
256
370
-1
  6
ByLayer
 10
-124.152000000000001
 20
-6.5439999999999996
 30
0.0
 11
-124.972999999999999
 21
-6.7549999999999999
 31
0.0
  0
LINE
  5
175
100
AcDbEntity
100
AcDbLine
  8
0
 62
256
370
-1
  6
ByLayer
 10
-124.972999999999999
 20
-6.7549999999999999
 30
0.0
 11
-125.813999999999993
 21
-6.8609999999999998
 31
0.0
  0
LINE
  5
176
100
AcDbEntity
100
AcDbLine
  8
0
 62
256
370
-1
  6
ByLayer
 10
-125.813999999999993
 20
-6.8609999999999998
 30
0.0
 11
-126.6620000000000061
 21
-6.8609999999999998
 31
0.0
  0
LINE
  5
177
100
AcDbEntity
100
AcDbLine
  8
0
 62
256
370
-1
  6
ByLayer
 10
-126.6620000000000061
 20
-6.8609999999999998
 30
0.0
 11
-127.5030000000000001
 21
-6.7549999999999999
 31
0.0
  0
LINE
  5
178
100
AcDbEntity
100
AcDbLine
  8
0
 62
256
370
-1
  6
ByLayer
 10
-127.5030000000000001
 20
-6.7549999999999999
 30
0.0
 11
-128.3240000000000123
 21
-6.5439999999999996
 31
0.0
  0
LINE
  5
179
100
AcDbEntity
100
AcDbLine
  8
0
 62
256
370
-1
  6
ByLayer
 10
-128.3240000000000123
 20
-6.5439999999999996
 30
0.0
 11
-129.1119999999999948
 21
-6.2320000000000002
 31
0.0
  0
LINE
  5
17A
100
AcDbEntity
100
AcDbLine
  8
0
 62
256
370
-1
  6
ByLayer
 10
-129.1119999999999948
 20
-6.2320000000000002
 30
0.0
 11
-129.8549999999999898
 21
-5.8230000000000004
 31
0.0
  0
LINE
  5
17B
100
AcDbEntity
100
AcDbLine
  8
0
 62
256
370
-1
  6
ByLayer
 10
-129.8549999999999898
 20
-5.8230000000000004
 30
0.0
 11
-130.5409999999999968
 21
-5.3250000000000002
 31
0.0
  0
LINE
  5
17C
100
AcDbEntity
100
AcDbLine
  8
0
 62
256
370
-1
  6
ByLayer
 10
-130.5409999999999968
 20
-5.3250000000000002
 30
0.0
 11
-131.1589999999999918
 21
-4.7450000000000001
 31
0.0
  0
LINE
  5
17D
100
AcDbEntity
100
AcDbLine
  8
0
 62
256
370
-1
  6
ByLayer
 10
-131.1589999999999918
 20
-4.7450000000000001
 30
0.0
 11
-131.6990000000000123
 21
-4.0919999999999996
 31
0.0
  0
LINE
  5
17E
100
AcDbEntity
100
AcDbLine
  8
0
 62
256
370
-1
  6
ByLayer
 10
-131.6990000000000123
 20
-4.0919999999999996
 30
0.0
 11
-132.1529999999999916
 21
-3.3759999999999999
 31
0.0
  0
LINE
  5
17F
100
AcDbEntity
100
AcDbLine
  8
0
 62
256
370
-1
  6
ByLayer
 10
-132.1529999999999916
 20
-3.3759999999999999
 30
0.0
 11
-132.51400000000001
 21
-2.609
 31
0.0
  0
LINE
  5
180
100
AcDbEntity
100
AcDbLine
  8
0
 62
256
370
-1
  6
ByLayer
 10
-132.51400000000001
 20
-2.609
 30
0.0
 11
-132.7760000000000105
 21
-1.8029999999999999
 31
0.0
  0
LINE
  5
181
100
AcDbEntity
100
AcDbLine
  8
0
 62
256
370
-1
  6
ByLayer
 10
-132.7760000000000105
 20
-1.8029999999999999
 30
0.0
 11
-132.9350000000000023
 21
-0.97
 31
0.0
  0
LINE
  5
182
100
AcDbEntity
100
AcDbLine
  8
0
 62
256
370
-1
  6
ByLayer
 10
-132.9350000000000023
 20
-0.97
 30
0.0
 11
-132.9879999999999995
 21
-0.124
 31
0.0
  0
LINE
  5
183
100
AcDbEntity
100
AcDbLine
  8
0
 62
256
370
-1
  6
ByLayer
 10
-112.6680000000000064
 20
-0.124
 30
0.0
 11
-112.6149999999999949
 21
0.722
 31
0.0
  0
LINE
  5
184
100
AcDbEntity
100
AcDbLine
  8
0
 62
256
370
-1
  6
ByLayer
 10
-112.6149999999999949
 20
0.722
 30
0.0
 11
-112.4560000000000031
 21
1.554
 31
0.0
  0
LINE
  5
185
100
AcDbEntity
100
AcDbLine
  8
0
 62
256
370
-1
  6
ByLayer
 10
-112.4560000000000031
 20
1.554
 30
0.0
 11
-112.1940000000000026
 21
2.3610000000000002
 31
0.0
  0
LINE
  5
186
100
AcDbEntity
100
AcDbLine
  8
0
 62
256
370
-1
  6
ByLayer
 10
-112.1940000000000026
 20
2.3610000000000002
 30
0.0
 11
-111.8329999999999984
 21
3.1280000000000001
 31
0.0
  0
LINE
  5
187
100
AcDbEntity
100
AcDbLine
  8
0
 62
256
370
-1
  6
ByLayer
 10
-111.8329999999999984
 20
3.1280000000000001
 30
0.0
 11
-111.3790000000000049
 21
3.843
 31
0.0
  0
LINE
  5
188
100
AcDbEntity
100
AcDbLine
  8
0
 62
256
370
-1
  6
ByLayer
 10
-111.3790000000000049
 20
3.843
 30
0.0
 11
-110.8389999999999986
 21
4.4960000000000004
 31
0.0
  0
LINE
  5
189
100
AcDbEntity
100
AcDbLine
  8
0
 62
256
370
-1
  6
ByLayer
 10
-110.8389999999999986
 20
4.4960000000000004
 30
0.0
 11
-110.2210000000000036
 21
5.077
 31
0.0
  0
LINE
  5
18A
100
AcDbEntity
100
AcDbLine
  8
0
 62
256
370
-1
  6
ByLayer
 10
-110.2210000000000036
 20
5.077
 30
0.0
 11
-109.5349999999999966
 21
5.5750000000000002
 31
0.0
  0
LINE
  5
18B
100
AcDbEntity
100
AcDbLine
  8
0
 62
256
370
-1
  6
ByLayer
 10
-109.5349999999999966
 20
5.5750000000000002
 30
0.0
 11
-108.7920000000000016
 21
5.9829999999999997
 31
0.0
  0
LINE
  5
18C
100
AcDbEntity
100
AcDbLine
  8
0
 62
256
370
-1
  6
ByLayer
 10
-108.7920000000000016
 20
5.9829999999999997
 30
0.0
 11
-108.0040000000000049
 21
6.2949999999999999
 31
0.0
  0
LINE
  5
18D
100
AcDbEntity
100
AcDbLine
  8
0
 62
256
370
-1
  6
ByLayer
 10
-108.0040000000000049
 20
6.2949999999999999
 30
0.0
 11
-107.1830000000000069
 21
6.5060000000000002
 31
0.0
  0
LINE
  5
18E
100
AcDbEntity
100
AcDbLine
  8
0
 62
256
370
-1
  6
ByLayer
 10
-107.1830000000000069
 20
6.5060000000000002
 30
0.0
 11
-106.3419999999999987
 21
6.6120000000000001
 31
0.0
  0
LINE
  5
18F
100
AcDbEntity
100
AcDbLine
  8
0
 62
256
370
-1
  6
ByLayer
 10
-106.3419999999999987
 20
6.6120000000000001
 30
0.0
 11
-105.4939999999999998
 21
6.6120000000000001
 31
0.0
  0
LINE
  5
190
100
AcDbEntity
100
AcDbLine
  8
0
 62
256
370
-1
  6
ByLayer
 10
-105.4939999999999998
 20
6.6120000000000001
 30
0.0
 11
-104.6530000000000058
 21
6.5060000000000002
 31
0.0
  0
LINE
  5
191
100
AcDbEntity
100
AcDbLine
  8
0
 62
256
370
-1
  6
ByLayer
 10
-104.6530000000000058
 20
6.5060000000000002
 30
0.0
 11
-103.8319999999999936
 21
6.2949999999999999
 31
0.0
  0
LINE
  5
192
100
AcDbEntity
100
AcDbLine
  8
0
 62
256
370
-1
  6
ByLayer
 10
-103.8319999999999936
 20
6.2949999999999999
 30
0.0
 11
-103.0439999999999969
 21
5.9829999999999997
 31
0.0
  0
LINE
  5
193
100
AcDbEntity
100
AcDbLine
  8
0
 62
256
370
-1
  6
ByLayer
 10
-103.0439999999999969
 20
5.9829999999999997
 30
0.0
 11
-102.3010000000000019
 21
5.5750000000000002
 31
0.0
  0
LINE
  5
194
100
AcDbEntity
100
AcDbLine
  8
0
 62
256
370
-1
  6
ByLayer
 10
-102.3010000000000019
 20
5.5750000000000002
 30
0.0
 11
-101.6149999999999949
 21
5.077
 31
0.0
  0
LINE
  5
195
100
AcDbEntity
100
AcDbLine
  8
0
 62
256
370
-1
  6
ByLayer
 10
-101.6149999999999949
 20
5.077
 30
0.0
 11
-100.9969999999999999
 21
4.4960000000000004
 31
0.0
  0
LINE
  5
196
100
AcDbEntity
100
AcDbLine
  8
0
 62
256
370
-1
  6
ByLayer
 10
-100.9969999999999999
 20
4.4960000000000004
 30
0.0
 11
-100.4569999999999936
 21
3.843
 31
0.0
  0
LINE
  5
197
100
AcDbEntity
100
AcDbLine
  8
0
 62
256
370
-1
  6
ByLayer
 10
-100.4569999999999936
 20
3.843
 30
0.0
 11
-100.0030000000000001
 21
3.1280000000000001
 31
0.0
  0
LINE
  5
198
100
AcDbEntity
100
AcDbLine
  8
0
 62
256
370
-1
  6
ByLayer
 10
-100.0030000000000001
 20
3.1280000000000001
 30
0.0
 11
-99.6419999999999959
 21
2.3610000000000002
 31
0.0
  0
LINE
  5
199
100
AcDbEntity
100
AcDbLine
  8
0
 62
256
370
-1
  6
ByLayer
 10
-99.6419999999999959
 20
2.3610000000000002
 30
0.0
 11
-99.3799999999999955
 21
1.554
 31
0.0
  0
LINE
  5
19A
100
AcDbEntity
100
AcDbLine
  8
0
 62
256
370
-1
  6
ByLayer
 10
-99.3799999999999955
 20
1.554
 30
0.0
 11
-99.2210000000000036
 21
0.722
 31
0.0
  0
LINE
  5
19B
100
AcDbEntity
100
AcDbLine
  8
0
 62
256
370
-1
  6
ByLayer
 10
-99.2210000000000036
 20
0.722
 30
0.0
 11
-99.1680000000000064
 21
-0.124
 31
0.0
  0
LINE
  5
19C
100
AcDbEntity
100
AcDbLine
  8
0
 62
256
370
-1
  6
ByLayer
 10
-99.1680000000000064
 20
-0.124
 30
0.0
 11
-99.2210000000000036
 21
-0.97
 31
0.0
  0
LINE
  5
19D
100
AcDbEntity
100
AcDbLine
  8
0
 62
256
370
-1
  6
ByLayer
 10
-99.2210000000000036
 20
-0.97
 30
0.0
 11
-99.3799999999999955
 21
-1.8029999999999999
 31
0.0
  0
LINE
  5
19E
100
AcDbEntity
100
AcDbLine
  8
0
 62
256
370
-1
  6
ByLayer
 10
-99.3799999999999955
 20
-1.8029999999999999
 30
0.0
 11
-99.6419999999999959
 21
-2.609
 31
0.0
  0
LINE
  5
19F
100
AcDbEntity
100
AcDbLine
  8
0
 62
256
370
-1
  6
ByLayer
 10
-99.6419999999999959
 20
-2.609
 30
0.0
 11
-100.0030000000000001
 21
-3.3759999999999999
 31
0.0
  0
LINE
  5
1A0
100
AcDbEntity
100
AcDbLine
  8
0
 62
256
370
-1
  6
ByLayer
 10
-100.0030000000000001
 20
-3.3759999999999999
 30
0.0
 11
-100.4569999999999936
 21
-4.0919999999999996
 31
0.0
  0
LINE
  5
1A1
100
AcDbEntity
100
AcDbLine
  8
0
 62
256
370
-1
  6
ByLayer
 10
-100.4569999999999936
 20
-4.0919999999999996
 30
0.0
 11
-100.9969999999999999
 21
-4.7450000000000001
 31
0.0
  0
LINE
  5
1A2
100
AcDbEntity
100
AcDbLine
  8
0
 62
256
370
-1
  6
ByLayer
 10
-100.9969999999999999
 20
-4.7450000000000001
 30
0.0
 11
-101.6149999999999949
 21
-5.3250000000000002
 31
0.0
  0
LINE
  5
1A3
100
AcDbEntity
100
AcDbLine
  8
0
 62
256
370
-1
  6
ByLayer
 10
-101.6149999999999949
 20
-5.3250000000000002
 30
0.0
 11
-102.3010000000000019
 21
-5.8230000000000004
 31
0.0
  0
LINE
  5
1A4
100
AcDbEntity
100
AcDbLine
  8
0
 62
256
370
-1
  6
ByLayer
 10
-102.3010000000000019
 20
-5.8230000000000004
 30
0.0
 11
-103.0439999999999969
 21
-6.2320000000000002
 31
0.0
  0
LINE
  5
1A5
100
AcDbEntity
100
AcDbLine
  8
0
 62
256
370
-1
  6
ByLayer
 10
-103.0439999999999969
 20
-6.2320000000000002
 30
0.0
 11
-103.8319999999999936
 21
-6.5439999999999996
 31
0.0
  0
LINE
  5
1A6
100
AcDbEntity
100
AcDbLine
  8
0
 62
256
370
-1
  6
ByLayer
 10
-103.8319999999999936
 20
-6.5439999999999996
 30
0.0
 11
-104.6530000000000058
 21
-6.7549999999999999
 31
0.0
  0
LINE
  5
1A7
100
AcDbEntity
100
AcDbLine
  8
0
 62
256
370
-1
  6
ByLayer
 10
-104.6530000000000058
 20
-6.7549999999999999
 30
0.0
 11
-105.4939999999999998
 21
-6.8609999999999998
 31
0.0
  0
LINE
  5
1A8
100
AcDbEntity
100
AcDbLine
  8
0
 62
256
370
-1
  6
ByLayer
 10
-105.4939999999999998
 20
-6.8609999999999998
 30
0.0
 11
-106.3419999999999987
 21
-6.8609999999999998
 31
0.0
  0
LINE
  5
1A9
100
AcDbEntity
100
AcDbLine
  8
0
 62
256
370
-1
  6
ByLayer
 10
-106.3419999999999987
 20
-6.8609999999999998
 30
0.0
 11
-107.1830000000000069
 21
-6.7549999999999999
 31
0.0
  0
LINE
  5
1AA
100
AcDbEntity
100
AcDbLine
  8
0
 62
256
370
-1
  6
ByLayer
 10
-107.1830000000000069
 20
-6.7549999999999999
 30
0.0
 11
-108.0040000000000049
 21
-6.5439999999999996
 31
0.0
  0
LINE
  5
1AB
100
AcDbEntity
100
AcDbLine
  8
0
 62
256
370
-1
  6
ByLayer
 10
-108.0040000000000049
 20
-6.5439999999999996
 30
0.0
 11
-108.7920000000000016
 21
-6.2320000000000002
 31
0.0
  0
LINE
  5
1AC
100
AcDbEntity
100
AcDbLine
  8
0
 62
256
370
-1
  6
ByLayer
 10
-108.7920000000000016
 20
-6.2320000000000002
 30
0.0
 11
-109.5349999999999966
 21
-5.8230000000000004
 31
0.0
  0
LINE
  5
1AD
100
AcDbEntity
100
AcDbLine
  8
0
 62
256
370
-1
  6
ByLayer
 10
-109.5349999999999966
 20
-5.8230000000000004
 30
0.0
 11
-110.2210000000000036
 21
-5.3250000000000002
 31
0.0
  0
LINE
  5
1AE
100
AcDbEntity
100
AcDbLine
  8
0
 62
256
370
-1
  6
ByLayer
 10
-110.2210000000000036
 20
-5.3250000000000002
 30
0.0
 11
-110.8389999999999986
 21
-4.7450000000000001
 31
0.0
  0
LINE
  5
1AF
100
AcDbEntity
100
AcDbLine
  8
0
 62
256
370
-1
  6
ByLayer
 10
-110.8389999999999986
 20
-4.7450000000000001
 30
0.0
 11
-111.3790000000000049
 21
-4.0919999999999996
 31
0.0
  0
LINE
  5
1B0
100
AcDbEntity
100
AcDbLine
  8
0
 62
256
370
-1
  6
ByLayer
 10
-111.3790000000000049
 20
-4.0919999999999996
 30
0.0
 11
-111.8329999999999984
 21
-3.3759999999999999
 31
0.0
  0
LINE
  5
1B1
100
AcDbEntity
100
AcDbLine
  8
0
 62
256
370
-1
  6
ByLayer
 10
-111.8329999999999984
 20
-3.3759999999999999
 30
0.0
 11
-112.1940000000000026
 21
-2.609
 31
0.0
  0
LINE
  5
1B2
100
AcDbEntity
100
AcDbLine
  8
0
 62
256
370
-1
  6
ByLayer
 10
-112.1940000000000026
 20
-2.609
 30
0.0
 11
-112.4560000000000031
 21
-1.8029999999999999
 31
0.0
  0
LINE
  5
1B3
100
AcDbEntity
100
AcDbLine
  8
0
 62
256
370
-1
  6
ByLayer
 10
-112.4560000000000031
 20
-1.8029999999999999
 30
0.0
 11
-112.6149999999999949
 21
-0.97
 31
0.0
  0
LINE
  5
1B4
100
AcDbEntity
100
AcDbLine
  8
0
 62
256
370
-1
  6
ByLayer
 10
-112.6149999999999949
 20
-0.97
 30
0.0
 11
-112.6680000000000064
 21
-0.124
 31
0.0
  0
LINE
  5
1B5
100
AcDbEntity
100
AcDbLine
  8
0
 62
256
370
-1
  6
ByLayer
 10
-92.347999999999999
 20
-0.124
 30
0.0
 11
-92.2950000000000017
 21
0.722
 31
0.0
  0
LINE
  5
1B6
100
AcDbEntity
100
AcDbLine
  8
0
 62
256
370
-1
  6
ByLayer
 10
-92.2950000000000017
 20
0.722
 30
0.0
 11
-92.1359999999999957
 21
1.554
 31
0.0
  0
LINE
  5
1B7
100
AcDbEntity
100
AcDbLine
  8
0
 62
256
370
-1
  6
ByLayer
 10
-92.1359999999999957
 20
1.554
 30
0.0
 11
-91.8739999999999952
 21
2.3610000000000002
 31
0.0
  0
LINE
  5
1B8
100
AcDbEntity
100
AcDbLine
  8
0
 62
256
370
-1
  6
ByLayer
 10
-91.8739999999999952
 20
2.3610000000000002
 30
0.0
 11
-91.5130000000000052
 21
3.1280000000000001
 31
0.0
  0
LINE
  5
1B9
100
AcDbEntity
100
AcDbLine
  8
0
 62
256
370
-1
  6
ByLayer
 10
-91.5130000000000052
 20
3.1280000000000001
 30
0.0
 11
-91.0589999999999975
 21
3.843
 31
0.0
  0
LINE
  5
1BA
100
AcDbEntity
100
AcDbLine
  8
0
 62
256
370
-1
  6
ByLayer
 10
-91.0589999999999975
 20
3.843
 30
0.0
 11
-90.5190000000000055
 21
4.4960000000000004
 31
0.0
  0
LINE
  5
1BB
100
AcDbEntity
100
AcDbLine
  8
0
 62
256
370
-1
  6
ByLayer
 10
-90.5190000000000055
 20
4.4960000000000004
 30
0.0
 11
-89.9009999999999962
 21
5.077
 31
0.0
  0
LINE
  5
1BC
100
AcDbEntity
100
AcDbLine
  8
0
 62
256
370
-1
  6
ByLayer
 10
-89.9009999999999962
 20
5.077
 30
0.0
 11
-89.2150000000000034
 21
5.5750000000000002
 31
0.0
  0
LINE
  5
1BD
100
AcDbEntity
100
AcDbLine
  8
0
 62
256
370
-1
  6
ByLayer
 10
-89.2150000000000034
 20
5.5750000000000002
 30
0.0
 11
-88.4719999999999942
 21
5.9829999999999997
 31
0.0
  0
LINE
  5
1BE
100
AcDbEntity
100
AcDbLine
  8
0
 62
256
370
-1
  6
ByLayer
 10
-88.4719999999999942
 20
5.9829999999999997
 30
0.0
 11
-87.6839999999999975
 21
6.2949999999999999
 31
0.0
  0
LINE
  5
1BF
100
AcDbEntity
100
AcDbLine
  8
0
 62
256
370
-1
  6
ByLayer
 10
-87.6839999999999975
 20
6.2949999999999999
 30
0.0
 11
-86.8629999999999995
 21
6.5060000000000002
 31
0.0
  0
LINE
  5
1C0
100
AcDbEntity
100
AcDbLine
  8
0
 62
256
370
-1
  6
ByLayer
 10
-86.8629999999999995
 20
6.5060000000000002
 30
0.0
 11
-86.0220000000000056
 21
6.6120000000000001
 31
0.0
  0
LINE
  5
1C1
100
AcDbEntity
100
AcDbLine
  8
0
 62
256
370
-1
  6
ByLayer
 10
-86.0220000000000056
 20
6.6120000000000001
 30
0.0
 11
-85.1740000000000066
 21
6.6120000000000001
 31
0.0
  0
LINE
  5
1C2
100
AcDbEntity
100
AcDbLine
  8
0
 62
256
370
-1
  6
ByLayer
 10
-85.1740000000000066
 20
6.6120000000000001
 30
0.0
 11
-84.3329999999999984
 21
6.5060000000000002
 31
0.0
  0
LINE
  5
1C3
100
AcDbEntity
100
AcDbLine
  8
0
 62
256
370
-1
  6
ByLayer
 10
-84.3329999999999984
 20
6.5060000000000002
 30
0.0
 11
-83.5120000000000005
 21
6.2949999999999999
 31
0.0
  0
LINE
  5
1C4
100
AcDbEntity
100
AcDbLine
  8
0
 62
256
370
-1
  6
ByLayer
 10
-83.5120000000000005
 20
6.2949999999999999
 30
0.0
 11
-82.7240000000000038
 21
5.9829999999999997
 31
0.0
  0
LINE
  5
1C5
100
AcDbEntity
100
AcDbLine
  8
0
 62
256
370
-1
  6
ByLayer
 10
-82.7240000000000038
 20
5.9829999999999997
 30
0.0
 11
-81.9809999999999945
 21
5.5750000000000002
 31
0.0
  0
LINE
  5
1C6
100
AcDbEntity
100
AcDbLine
  8
0
 62
256
370
-1
  6
ByLayer
 10
-81.9809999999999945
 20
5.5750000000000002
 30
0.0
 11
-81.2950000000000017
 21
5.077
 31
0.0
  0
LINE
  5
1C7
100
AcDbEntity
100
AcDbLine
  8
0
 62
256
370
-1
  6
ByLayer
 10
-81.2950000000000017
 20
5.077
 30
0.0
 11
-80.6770000000000067
 21
4.4960000000000004
 31
0.0
  0
LINE
  5
1C8
100
AcDbEntity
100
AcDbLine
  8
0
 62
256
370
-1
  6
ByLayer
 10
-80.6770000000000067
 20
4.4960000000000004
 30
0.0
 11
-80.1370000000000005
 21
3.843
 31
0.0
  0
LINE
  5
1C9
100
AcDbEntity
100
AcDbLine
  8
0
 62
256
370
-1
  6
ByLayer
 10
-80.1370000000000005
 20
3.843
 30
0.0
 11
-79.6830000000000069
 21
3.1280000000000001
 31
0.0
  0
LINE
  5
1CA
100
AcDbEntity
100
AcDbLine
  8
0
 62
256
370
-1
  6
ByLayer
 10
-79.6830000000000069
 20
3.1280000000000001
 30
0.0
 11
-79.3220000000000027
 21
2.3610000000000002
 31
0.0
  0
LINE
  5
1CB
100
AcDbEntity
100
AcDbLine
  8
0
 62
256
370
-1
  6
ByLayer
 10
-79.3220000000000027
 20
2.3610000000000002
 30
0.0
 11
-79.0600000000000023
 21
1.554
 31
0.0
  0
LINE
  5
1CC
100
AcDbEntity
100
AcDbLine
  8
0
 62
256
370
-1
  6
ByLayer
 10
-79.0600000000000023
 20
1.554
 30
0.0
 11
-78.9009999999999962
 21
0.722
 31
0.0
  0
LINE
  5
1CD
100
AcDbEntity
100
AcDbLine
  8
0
 62
256
370
-1
  6
ByLayer
 10
-78.9009999999999962
 20
0.722
 30
0.0
 11
-78.847999999999999
 21
-0.124
 31
0.0
  0
LINE
  5
1CE
100
AcDbEntity
100
AcDbLine
  8
0
 62
256
370
-1
  6
ByLayer
 10
-78.847999999999999
 20
-0.124
 30
0.0
 11
-78.9009999999999962
 21
-0.97
 31
0.0
  0
LINE
  5
1CF
100
AcDbEntity
100
AcDbLine
  8
0
 62
256
370
-1
  6
ByLayer
 10
-78.9009999999999962
 20
-0.97
 30
0.0
 11
-79.0600000000000023
 21
-1.8029999999999999
 31
0.0
  0
LINE
  5
1D0
100
AcDbEntity
100
AcDbLine
  8
0
 62
256
370
-1
  6
ByLayer
 10
-79.0600000000000023
 20
-1.8029999999999999
 30
0.0
 11
-79.3220000000000027
 21
-2.609
 31
0.0
  0
LINE
  5
1D1
100
AcDbEntity
100
AcDbLine
  8
0
 62
256
370
-1
  6
ByLayer
 10
-79.3220000000000027
 20
-2.609
 30
0.0
 11
-79.6830000000000069
 21
-3.3759999999999999
 31
0.0
  0
LINE
  5
1D2
100
AcDbEntity
100
AcDbLine
  8
0
 62
256
370
-1
  6
ByLayer
 10
-79.6830000000000069
 20
-3.3759999999999999
 30
0.0
 11
-80.1370000000000005
 21
-4.0919999999999996
 31
0.0
  0
LINE
  5
1D3
100
AcDbEntity
100
AcDbLine
  8
0
 62
256
370
-1
  6
ByLayer
 10
-80.1370000000000005
 20
-4.0919999999999996
 30
0.0
 11
-80.6770000000000067
 21
-4.7450000000000001
 31
0.0
  0
LINE
  5
1D4
100
AcDbEntity
100
AcDbLine
  8
0
 62
256
370
-1
  6
ByLayer
 10
-80.6770000000000067
 20
-4.7450000000000001
 30
0.0
 11
-81.2950000000000017
 21
-5.3250000000000002
 31
0.0
  0
LINE
  5
1D5
100
AcDbEntity
100
AcDbLine
  8
0
 62
256
370
-1
  6
ByLayer
 10
-81.2950000000000017
 20
-5.3250000000000002
 30
0.0
 11
-81.9809999999999945
 21
-5.8230000000000004
 31
0.0
  0
LINE
  5
1D6
100
AcDbEntity
100
AcDbLine
  8
0
 62
256
370
-1
  6
ByLayer
 10
-81.9809999999999945
 20
-5.8230000000000004
 30
0.0
 11
-82.7240000000000038
 21
-6.2320000000000002
 31
0.0
  0
LINE
  5
1D7
100
AcDbEntity
100
AcDbLine
  8
0
 62
256
370
-1
  6
ByLayer
 10
-82.7240000000000038
 20
-6.2320000000000002
 30
0.0
 11
-83.5120000000000005
 21
-6.5439999999999996
 31
0.0
  0
LINE
  5
1D8
100
AcDbEntity
100
AcDbLine
  8
0
 62
256
370
-1
  6
ByLayer
 10
-83.5120000000000005
 20
-6.5439999999999996
 30
0.0
 11
-84.3329999999999984
 21
-6.7549999999999999
 31
0.0
  0
LINE
  5
1D9
100
AcDbEntity
100
AcDbLine
  8
0
 62
256
370
-1
  6
ByLayer
 10
-84.3329999999999984
 20
-6.7549999999999999
 30
0.0
 11
-85.1740000000000066
 21
-6.8609999999999998
 31
0.0
  0
LINE
  5
1DA
100
AcDbEntity
100
AcDbLine
  8
0
 62
256
370
-1
  6
ByLayer
 10
-85.1740000000000066
 20
-6.8609999999999998
 30
0.0
 11
-86.0220000000000056
 21
-6.8609999999999998
 31
0.0
  0
LINE
  5
1DB
100
AcDbEntity
100
AcDbLine
  8
0
 62
256
370
-1
  6
ByLayer
 10
-86.0220000000000056
 20
-6.8609999999999998
 30
0.0
 11
-86.8629999999999995
 21
-6.7549999999999999
 31
0.0
  0
LINE
  5
1DC
100
AcDbEntity
100
AcDbLine
  8
0
 62
256
370
-1
  6
ByLayer
 10
-86.8629999999999995
 20
-6.7549999999999999
 30
0.0
 11
-87.6839999999999975
 21
-6.5439999999999996
 31
0.0
  0
LINE
  5
1DD
100
AcDbEntity
100
AcDbLine
  8
0
 62
256
370
-1
  6
ByLayer
 10
-87.6839999999999975
 20
-6.5439999999999996
 30
0.0
 11
-88.4719999999999942
 21
-6.2320000000000002
 31
0.0
  0
LINE
  5
1DE
100
AcDbEntity
100
AcDbLine
  8
0
 62
256
370
-1
  6
ByLayer
 10
-88.4719999999999942
 20
-6.2320000000000002
 30
0.0
 11
-89.2150000000000034
 21
-5.8230000000000004
 31
0.0
  0
LINE
  5
1DF
100
AcDbEntity
100
AcDbLine
  8
0
 62
256
370
-1
  6
ByLayer
 10
-89.2150000000000034
 20
-5.8230000000000004
 30
0.0
 11
-89.9009999999999962
 21
-5.3250000000000002
 31
0.0
  0
LINE
  5
1E0
100
AcDbEntity
100
AcDbLine
  8
0
 62
256
370
-1
  6
ByLayer
 10
-89.9009999999999962
 20
-5.3250000000000002
 30
0.0
 11
-90.5190000000000055
 21
-4.7450000000000001
 31
0.0
  0
LINE
  5
1E1
100
AcDbEntity
100
AcDbLine
  8
0
 62
256
370
-1
  6
ByLayer
 10
-90.5190000000000055
 20
-4.7450000000000001
 30
0.0
 11
-91.0589999999999975
 21
-4.0919999999999996
 31
0.0
  0
LINE
  5
1E2
100
AcDbEntity
100
AcDbLine
  8
0
 62
256
370
-1
  6
ByLayer
 10
-91.0589999999999975
 20
-4.0919999999999996
 30
0.0
 11
-91.5130000000000052
 21
-3.3759999999999999
 31
0.0
  0
LINE
  5
1E3
100
AcDbEntity
100
AcDbLine
  8
0
 62
256
370
-1
  6
ByLayer
 10
-91.5130000000000052
 20
-3.3759999999999999
 30
0.0
 11
-91.8739999999999952
 21
-2.609
 31
0.0
  0
LINE
  5
1E4
100
AcDbEntity
100
AcDbLine
  8
0
 62
256
370
-1
  6
ByLayer
 10
-91.8739999999999952
 20
-2.609
 30
0.0
 11
-92.1359999999999957
 21
-1.8029999999999999
 31
0.0
  0
LINE
  5
1E5
100
AcDbEntity
100
AcDbLine
  8
0
 62
256
370
-1
  6
ByLayer
 10
-92.1359999999999957
 20
-1.8029999999999999
 30
0.0
 11
-92.2950000000000017
 21
-0.97
 31
0.0
  0
LINE
  5
1E6
100
AcDbEntity
100
AcDbLine
  8
0
 62
256
370
-1
  6
ByLayer
 10
-92.2950000000000017
 20
-0.97
 30
0.0
 11
-92.347999999999999
 21
-0.124
 31
0.0
  0
LINE
  5
1E7
100
AcDbEntity
100
AcDbLine
  8
0
 62
256
370
-1
  6
ByLayer
 10
-72.0280000000000058
 20
-0.124
 30
0.0
 11
-71.9749999999999943
 21
0.722
 31
0.0
  0
LINE
  5
1E8
100
AcDbEntity
100
AcDbLine
  8
0
 62
256
370
-1
  6
ByLayer
 10
-71.9749999999999943
 20
0.722
 30
0.0
 11
-71.8160000000000025
 21
1.554
 31
0.0
  0
LINE
  5
1E9
100
AcDbEntity
100
AcDbLine
  8
0
 62
256
370
-1
  6
ByLayer
 10
-71.8160000000000025
 20
1.554
 30
0.0
 11
-71.554000000000002
 21
2.3610000000000002
 31
0.0
  0
LINE
  5
1EA
100
AcDbEntity
100
AcDbLine
  8
0
 62
256
370
-1
  6
ByLayer
 10
-71.554000000000002
 20
2.3610000000000002
 30
0.0
 11
-71.1929999999999978
 21
3.1280000000000001
 31
0.0
  0
LINE
  5
1EB
100
AcDbEntity
100
AcDbLine
  8
0
 62
256
370
-1
  6
ByLayer
 10
-71.1929999999999978
 20
3.1280000000000001
 30
0.0
 11
-70.7390000000000043
 21
3.843
 31
0.0
  0
LINE
  5
1EC
100
AcDbEntity
100
AcDbLine
  8
0
 62
256
370
-1
  6
ByLayer
 10
-70.7390000000000043
 20
3.843
 30
0.0
 11
-70.1989999999999981
 21
4.4960000000000004
 31
0.0
  0
LINE
  5
1ED
100
AcDbEntity
100
AcDbLine
  8
0
 62
256
370
-1
  6
ByLayer
 10
-70.1989999999999981
 20
4.4960000000000004
 30
0.0
 11
-69.5810000000000031
 21
5.077
 31
0.0
  0
LINE
  5
1EE
100
AcDbEntity
100
AcDbLine
  8
0
 62
256
370
-1
  6
ByLayer
 10
-69.5810000000000031
 20
5.077
 30
0.0
 11
-68.894999999999996
 21
5.5750000000000002
 31
0.0
  0
LINE
  5
1EF
100
AcDbEntity
100
AcDbLine
  8
0
 62
256
370
-1
  6
ByLayer
 10
-68.894999999999996
 20
5.5750000000000002
 30
0.0
 11
-68.152000000000001
 21
5.9829999999999997
 31
0.0
  0
LINE
  5
1F0
100
AcDbEntity
100
AcDbLine
  8
0
 62
256
370
-1
  6
ByLayer
 10
-68.152000000000001
 20
5.9829999999999997
 30
0.0
 11
-67.3640000000000043
 21
6.2949999999999999
 31
0.0
  0
LINE
  5
1F1
100
AcDbEntity
100
AcDbLine
  8
0
 62
256
370
-1
  6
ByLayer
 10
-67.3640000000000043
 20
6.2949999999999999
 30
0.0
 11
-66.5430000000000064
 21
6.5060000000000002
 31
0.0
  0
LINE
  5
1F2
100
AcDbEntity
100
AcDbLine
  8
0
 62
256
370
-1
  6
ByLayer
 10
-66.5430000000000064
 20
6.5060000000000002
 30
0.0
 11
-65.7019999999999982
 21
6.6120000000000001
 31
0.0
  0
LINE
  5
1F3
100
AcDbEntity
100
AcDbLine
  8
0
 62
256
370
-1
  6
ByLayer
 10
-65.7019999999999982
 20
6.6120000000000001
 30
0.0
 11
-64.8539999999999992
 21
6.6120000000000001
 31
0.0
  0
LINE
  5
1F4
100
AcDbEntity
100
AcDbLine
  8
0
 62
256
370
-1
  6
ByLayer
 10
-64.8539999999999992
 20
6.6120000000000001
 30
0.0
 11
-64.0130000000000052
 21
6.5060000000000002
 31
0.0
  0
LINE
  5
1F5
100
AcDbEntity
100
AcDbLine
  8
0
 62
256
370
-1
  6
ByLayer
 10
-64.0130000000000052
 20
6.5060000000000002
 30
0.0
 11
-63.1920000000000002
 21
6.2949999999999999
 31
0.0
  0
LINE
  5
1F6
100
AcDbEntity
100
AcDbLine
  8
0
 62
256
370
-1
  6
ByLayer
 10
-63.1920000000000002
 20
6.2949999999999999
 30
0.0
 11
-62.4040000000000035
 21
5.9829999999999997
 31
0.0
  0
LINE
  5
1F7
100
AcDbEntity
100
AcDbLine
  8
0
 62
256
370
-1
  6
ByLayer
 10
-62.4040000000000035
 20
5.9829999999999997
 30
0.0
 11
-61.6610000000000014
 21
5.5750000000000002
 31
0.0
  0
LINE
  5
1F8
100
AcDbEntity
100
AcDbLine
  8
0
 62
256
370
-1
  6
ByLayer
 10
-61.6610000000000014
 20
5.5750000000000002
 30
0.0
 11
-60.9750000000000014
 21
5.077
 31
0.0
  0
LINE
  5
1F9
100
AcDbEntity
100
AcDbLine
  8
0
 62
256
370
-1
  6
ByLayer
 10
-60.9750000000000014
 20
5.077
 30
0.0
 11
-60.3569999999999993
 21
4.4960000000000004
 31
0.0
  0
LINE
  5
1FA
100
AcDbEntity
100
AcDbLine
  8
0
 62
256
370
-1
  6
ByLayer
 10
-60.3569999999999993
 20
4.4960000000000004
 30
0.0
 11
-59.8170000000000002
 21
3.843
 31
0.0
  0
LINE
  5
1FB
100
AcDbEntity
100
AcDbLine
  8
0
 62
256
370
-1
  6
ByLayer
 10
-59.8170000000000002
 20
3.843
 30
0.0
 11
-59.3629999999999995
 21
3.1280000000000001
 31
0.0
  0
LINE
  5
1FC
100
AcDbEntity
100
AcDbLine
  8
0
 62
256
370
-1
  6
ByLayer
 10
-59.3629999999999995
 20
3.1280000000000001
 30
0.0
 11
-59.0020000000000024
 21
2.3610000000000002
 31
0.0
  0
LINE
  5
1FD
100
AcDbEntity
100
AcDbLine
  8
0
 62
256
370
-1
  6
ByLayer
 10
-59.0020000000000024
 20
2.3610000000000002
 30
0.0
 11
-58.740000000000002
 21
1.554
 31
0.0
  0
LINE
  5
1FE
100
AcDbEntity
100
AcDbLine
  8
0
 62
256
370
-1
  6
ByLayer
 10
-58.740000000000002
 20
1.554
 30
0.0
 11
-58.5810000000000031
 21
0.722
 31
0.0
  0
LINE
  5
1FF
100
AcDbEntity
100
AcDbLine
  8
0
 62
256
370
-1
  6
ByLayer
 10
-58.5810000000000031
 20
0.722
 30
0.0
 11
-58.5279999999999987
 21
-0.124
 31
0.0
  0
LINE
  5
200
100
AcDbEntity
100
AcDbLine
  8
0
 62
256
370
-1
  6
ByLayer
 10
-58.5279999999999987
 20
-0.124
 30
0.0
 11
-58.5810000000000031
 21
-0.97
 31
0.0
  0
LINE
  5
201
100
AcDbEntity
100
AcDbLine
  8
0
 62
256
370
-1
  6
ByLayer
 10
-58.5810000000000031
 20
-0.97
 30
0.0
 11
-58.740000000000002
 21
-1.8029999999999999
 31
0.0
  0
LINE
  5
202
100
AcDbEntity
100
AcDbLine
  8
0
 62
256
370
-1
  6
ByLayer
 10
-58.740000000000002
 20
-1.8029999999999999
 30
0.0
 11
-59.0020000000000024
 21
-2.609
 31
0.0
  0
LINE
  5
203
100
AcDbEntity
100
AcDbLine
  8
0
 62
256
370
-1
  6
ByLayer
 10
-59.0020000000000024
 20
-2.609
 30
0.0
 11
-59.3629999999999995
 21
-3.3759999999999999
 31
0.0
  0
LINE
  5
204
100
AcDbEntity
100
AcDbLine
  8
0
 62
256
370
-1
  6
ByLayer
 10
-59.3629999999999995
 20
-3.3759999999999999
 30
0.0
 11
-59.8170000000000002
 21
-4.0919999999999996
 31
0.0
  0
LINE
  5
205
100
AcDbEntity
100
AcDbLine
  8
0
 62
256
370
-1
  6
ByLayer
 10
-59.8170000000000002
 20
-4.0919999999999996
 30
0.0
 11
-60.3569999999999993
 21
-4.7450000000000001
 31
0.0
  0
LINE
  5
206
100
AcDbEntity
100
AcDbLine
  8
0
 62
256
370
-1
  6
ByLayer
 10
-60.3569999999999993
 20
-4.7450000000000001
 30
0.0
 11
-60.9750000000000014
 21
-5.3250000000000002
 31
0.0
  0
LINE
  5
207
100
AcDbEntity
100
AcDbLine
  8
0
 62
256
370
-1
  6
ByLayer
 10
-60.9750000000000014
 20
-5.3250000000000002
 30
0.0
 11
-61.6610000000000014
 21
-5.8230000000000004
 31
0.0
  0
LINE
  5
208
100
AcDbEntity
100
AcDbLine
  8
0
 62
256
370
-1
  6
ByLayer
 10
-61.6610000000000014
 20
-5.8230000000000004
 30
0.0
 11
-62.4040000000000035
 21
-6.2320000000000002
 31
0.0
  0
LINE
  5
209
100
AcDbEntity
100
AcDbLine
  8
0
 62
256
370
-1
  6
ByLayer
 10
-62.4040000000000035
 20
-6.2320000000000002
 30
0.0
 11
-63.1920000000000002
 21
-6.5439999999999996
 31
0.0
  0
LINE
  5
20A
100
AcDbEntity
100
AcDbLine
  8
0
 62
256
370
-1
  6
ByLayer
 10
-63.1920000000000002
 20
-6.5439999999999996
 30
0.0
 11
-64.0130000000000052
 21
-6.7549999999999999
 31
0.0
  0
LINE
  5
20B
100
AcDbEntity
100
AcDbLine
  8
0
 62
256
370
-1
  6
ByLayer
 10
-64.0130000000000052
 20
-6.7549999999999999
 30
0.0
 11
-64.8539999999999992
 21
-6.8609999999999998
 31
0.0
  0
LINE
  5
20C
100
AcDbEntity
100
AcDbLine
  8
0
 62
256
370
-1
  6
ByLayer
 10
-64.8539999999999992
 20
-6.8609999999999998
 30
0.0
 11
-65.7019999999999982
 21
-6.8609999999999998
 31
0.0
  0
LINE
  5
20D
100
AcDbEntity
100
AcDbLine
  8
0
 62
256
370
-1
  6
ByLayer
 10
-65.7019999999999982
 20
-6.8609999999999998
 30
0.0
 11
-66.5430000000000064
 21
-6.7549999999999999
 31
0.0
  0
LINE
  5
20E
100
AcDbEntity
100
AcDbLine
  8
0
 62
256
370
-1
  6
ByLayer
 10
-66.5430000000000064
 20
-6.7549999999999999
 30
0.0
 11
-67.3640000000000043
 21
-6.5439999999999996
 31
0.0
  0
LINE
  5
20F
100
AcDbEntity
100
AcDbLine
  8
0
 62
256
370
-1
  6
ByLayer
 10
-67.3640000000000043
 20
-6.5439999999999996
 30
0.0
 11
-68.152000000000001
 21
-6.2320000000000002
 31
0.0
  0
LINE
  5
210
100
AcDbEntity
100
AcDbLine
  8
0
 62
256
370
-1
  6
ByLayer
 10
-68.152000000000001
 20
-6.2320000000000002
 30
0.0
 11
-68.894999999999996
 21
-5.8230000000000004
 31
0.0
  0
LINE
  5
211
100
AcDbEntity
100
AcDbLine
  8
0
 62
256
370
-1
  6
ByLayer
 10
-68.894999999999996
 20
-5.8230000000000004
 30
0.0
 11
-69.5810000000000031
 21
-5.3250000000000002
 31
0.0
  0
LINE
  5
212
100
AcDbEntity
100
AcDbLine
  8
0
 62
256
370
-1
  6
ByLayer
 10
-69.5810000000000031
 20
-5.3250000000000002
 30
0.0
 11
-70.1989999999999981
 21
-4.7450000000000001
 31
0.0
  0
LINE
  5
213
100
AcDbEntity
100
AcDbLine
  8
0
 62
256
370
-1
  6
ByLayer
 10
-70.1989999999999981
 20
-4.7450000000000001
 30
0.0
 11
-70.7390000000000043
 21
-4.0919999999999996
 31
0.0
  0
LINE
  5
214
100
AcDbEntity
100
AcDbLine
  8
0
 62
256
370
-1
  6
ByLayer
 10
-70.7390000000000043
 20
-4.0919999999999996
 30
0.0
 11
-71.1929999999999978
 21
-3.3759999999999999
 31
0.0
  0
LINE
  5
215
100
AcDbEntity
100
AcDbLine
  8
0
 62
256
370
-1
  6
ByLayer
 10
-71.1929999999999978
 20
-3.3759999999999999
 30
0.0
 11
-71.554000000000002
 21
-2.609
 31
0.0
  0
LINE
  5
216
100
AcDbEntity
100
AcDbLine
  8
0
 62
256
370
-1
  6
ByLayer
 10
-71.554000000000002
 20
-2.609
 30
0.0
 11
-71.8160000000000025
 21
-1.8029999999999999
 31
0.0
  0
LINE
  5
217
100
AcDbEntity
100
AcDbLine
  8
0
 62
256
370
-1
  6
ByLayer
 10
-71.8160000000000025
 20
-1.8029999999999999
 30
0.0
 11
-71.9749999999999943
 21
-0.97
 31
0.0
  0
LINE
  5
218
100
AcDbEntity
100
AcDbLine
  8
0
 62
256
370
-1
  6
ByLayer
 10
-71.9749999999999943
 20
-0.97
 30
0.0
 11
-72.0280000000000058
 21
-0.124
 31
0.0
  0
LINE
  5
219
100
AcDbEntity
100
AcDbLine
  8
0
 62
256
370
-1
  6
ByLayer
 10
-51.7079999999999984
 20
-0.124
 30
0.0
 11
-51.6550000000000011
 21
0.722
 31
0.0
  0
LINE
  5
21A
100
AcDbEntity
100
AcDbLine
  8
0
 62
256
370
-1
  6
ByLayer
 10
-51.6550000000000011
 20
0.722
 30
0.0
 11
-51.4960000000000022
 21
1.554
 31
0.0
  0
LINE
  5
21B
100
AcDbEntity
100
AcDbLine
  8
0
 62
256
370
-1
  6
ByLayer
 10
-51.4960000000000022
 20
1.554
 30
0.0
 11
-51.2340000000000018
 21
2.3610000000000002
 31
0.0
  0
LINE
  5
21C
100
AcDbEntity
100
AcDbLine
  8
0
 62
256
370
-1
  6
ByLayer
 10
-51.2340000000000018
 20
2.3610000000000002
 30
0.0
 11
-50.8729999999999976
 21
3.1280000000000001
 31
0.0
  0
LINE
  5
21D
100
AcDbEntity
100
AcDbLine
  8
0
 62
256
370
-1
  6
ByLayer
 10
-50.8729999999999976
 20
3.1280000000000001
 30
0.0
 11
-50.4189999999999969
 21
3.843
 31
0.0
  0
LINE
  5
21E
100
AcDbEntity
100
AcDbLine
  8
0
 62
256
370
-1
  6
ByLayer
 10
-50.4189999999999969
 20
3.843
 30
0.0
 11
-49.8789999999999978
 21
4.4960000000000004
 31
0.0
  0
LINE
  5
21F
100
AcDbEntity
100
AcDbLine
  8
0
 62
256
370
-1
  6
ByLayer
 10
-49.8789999999999978
 20
4.4960000000000004
 30
0.0
 11
-49.2610000000000028
 21
5.077
 31
0.0
  0
LINE
  5
220
100
AcDbEntity
100
AcDbLine
  8
0
 62
256
370
-1
  6
ByLayer
 10
-49.2610000000000028
 20
5.077
 30
0.0
 11
-48.5750000000000028
 21
5.5750000000000002
 31
0.0
  0
LINE
  5
221
100
AcDbEntity
100
AcDbLine
  8
0
 62
256
370
-1
  6
ByLayer
 10
-48.5750000000000028
 20
5.5750000000000002
 30
0.0
 11
-47.8320000000000007
 21
5.9829999999999997
 31
0.0
  0
LINE
  5
222
100
AcDbEntity
100
AcDbLine
  8
0
 62
256
370
-1
  6
ByLayer
 10
-47.8320000000000007
 20
5.9829999999999997
 30
0.0
 11
-47.0439999999999969
 21
6.2949999999999999
 31
0.0
  0
LINE
  5
223
100
AcDbEntity
100
AcDbLine
  8
0
 62
256
370
-1
  6
ByLayer
 10
-47.0439999999999969
 20
6.2949999999999999
 30
0.0
 11
-46.222999999999999
 21
6.5060000000000002
 31
0.0
  0
LINE
  5
224
100
AcDbEntity
100
AcDbLine
  8
0
 62
256
370
-1
  6
ByLayer
 10
-46.222999999999999
 20
6.5060000000000002
 30
0.0
 11
-45.3819999999999979
 21
6.6120000000000001
 31
0.0
  0
LINE
  5
225
100
AcDbEntity
100
AcDbLine
  8
0
 62
256
370
-1
  6
ByLayer
 10
-45.3819999999999979
 20
6.6120000000000001
 30
0.0
 11
-44.5339999999999989
 21
6.6120000000000001
 31
0.0
  0
LINE
  5
226
100
AcDbEntity
100
AcDbLine
  8
0
 62
256
370
-1
  6
ByLayer
 10
-44.5339999999999989
 20
6.6120000000000001
 30
0.0
 11
-43.6929999999999978
 21
6.5060000000000002
 31
0.0
  0
LINE
  5
227
100
AcDbEntity
100
AcDbLine
  8
0
 62
256
370
-1
  6
ByLayer
 10
-43.6929999999999978
 20
6.5060000000000002
 30
0.0
 11
-42.8719999999999999
 21
6.2949999999999999
 31
0.0
  0
LINE
  5
228
100
AcDbEntity
100
AcDbLine
  8
0
 62
256
370
-1
  6
ByLayer
 10
-42.8719999999999999
 20
6.2949999999999999
 30
0.0
 11
-42.0840000000000032
 21
5.9829999999999997
 31
0.0
  0
LINE
  5
229
100
AcDbEntity
100
AcDbLine
  8
0
 62
256
370
-1
  6
ByLayer
 10
-42.0840000000000032
 20
5.9829999999999997
 30
0.0
 11
-41.3410000000000011
 21
5.5750000000000002
 31
0.0
  0
LINE
  5
22A
100
AcDbEntity
100
AcDbLine
  8
0
 62
256
370
-1
  6
ByLayer
 10
-41.3410000000000011
 20
5.5750000000000002
 30
0.0
 11
-40.6550000000000011
 21
5.077
 31
0.0
  0
LINE
  5
22B
100
AcDbEntity
100
AcDbLine
  8
0
 62
256
370
-1
  6
ByLayer
 10
-40.6550000000000011
 20
5.077
 30
0.0
 11
-40.036999999999999
 21
4.4960000000000004
 31
0.0
  0
LINE
  5
22C
100
AcDbEntity
100
AcDbLine
  8
0
 62
256
370
-1
  6
ByLayer
 10
-40.036999999999999
 20
4.4960000000000004
 30
0.0
 11
-39.4969999999999999
 21
3.843
 31
0.0
  0
LINE
  5
22D
100
AcDbEntity
100
AcDbLine
  8
0
 62
256
370
-1
  6
ByLayer
 10
-39.4969999999999999
 20
3.843
 30
0.0
 11
-39.0429999999999993
 21
3.1280000000000001
 31
0.0
  0
LINE
  5
22E
100
AcDbEntity
100
AcDbLine
  8
0
 62
256
370
-1
  6
ByLayer
 10
-39.0429999999999993
 20
3.1280000000000001
 30
0.0
 11
-38.6820000000000022
 21
2.3610000000000002
 31
0.0
  0
LINE
  5
22F
100
AcDbEntity
100
AcDbLine
  8
0
 62
256
370
-1
  6
ByLayer
 10
-38.6820000000000022
 20
2.3610000000000002
 30
0.0
 11
-38.4200000000000017
 21
1.554
 31
0.0
  0
LINE
  5
230
100
AcDbEntity
100
AcDbLine
  8
0
 62
256
370
-1
  6
ByLayer
 10
-38.4200000000000017
 20
1.554
 30
0.0
 11
-38.2610000000000028
 21
0.722
 31
0.0
  0
LINE
  5
231
100
AcDbEntity
100
AcDbLine
  8
0
 62
256
370
-1
  6
ByLayer
 10
-38.2610000000000028
 20
0.722
 30
0.0
 11
-38.2079999999999984
 21
-0.124
 31
0.0
  0
LINE
  5
232
100
AcDbEntity
100
AcDbLine
  8
0
 62
256
370
-1
  6
ByLayer
 10
-38.2079999999999984
 20
-0.124
 30
0.0
 11
-38.2610000000000028
 21
-0.97
 31
0.0
  0
LINE
  5
233
100
AcDbEntity
100
AcDbLine
  8
0
 62
256
370
-1
  6
ByLayer
 10
-38.2610000000000028
 20
-0.97
 30
0.0
 11
-38.4200000000000017
 21
-1.8029999999999999
 31
0.0
  0
LINE
  5
234
100
AcDbEntity
100
AcDbLine
  8
0
 62
256
370
-1
  6
ByLayer
 10
-38.4200000000000017
 20
-1.8029999999999999
 30
0.0
 11
-38.6820000000000022
 21
-2.609
 31
0.0
  0
LINE
  5
235
100
AcDbEntity
100
AcDbLine
  8
0
 62
256
370
-1
  6
ByLayer
 10
-38.6820000000000022
 20
-2.609
 30
0.0
 11
-39.0429999999999993
 21
-3.3759999999999999
 31
0.0
  0
LINE
  5
236
100
AcDbEntity
100
AcDbLine
  8
0
 62
256
370
-1
  6
ByLayer
 10
-39.0429999999999993
 20
-3.3759999999999999
 30
0.0
 11
-39.4969999999999999
 21
-4.0919999999999996
 31
0.0
  0
LINE
  5
237
100
AcDbEntity
100
AcDbLine
  8
0
 62
256
370
-1
  6
ByLayer
 10
-39.4969999999999999
 20
-4.0919999999999996
 30
0.0
 11
-40.036999999999999
 21
-4.7450000000000001
 31
0.0
  0
LINE
  5
238
100
AcDbEntity
100
AcDbLine
  8
0
 62
256
370
-1
  6
ByLayer
 10
-40.036999999999999
 20
-4.7450000000000001
 30
0.0
 11
-40.6550000000000011
 21
-5.3250000000000002
 31
0.0
  0
LINE
  5
239
100
AcDbEntity
100
AcDbLine
  8
0
 62
256
370
-1
  6
ByLayer
 10
-40.6550000000000011
 20
-5.3250000000000002
 30
0.0
 11
-41.3410000000000011
 21
-5.8230000000000004
 31
0.0
  0
LINE
  5
23A
100
AcDbEntity
100
AcDbLine
  8
0
 62
256
370
-1
  6
ByLayer
 10
-41.3410000000000011
 20
-5.8230000000000004
 30
0.0
 11
-42.0840000000000032
 21
-6.2320000000000002
 31
0.0
  0
LINE
  5
23B
100
AcDbEntity
100
AcDbLine
  8
0
 62
256
370
-1
  6
ByLayer
 10
-42.0840000000000032
 20
-6.2320000000000002
 30
0.0
 11
-42.8719999999999999
 21
-6.5439999999999996
 31
0.0
  0
LINE
  5
23C
100
AcDbEntity
100
AcDbLine
  8
0
 62
256
370
-1
  6
ByLayer
 10
-42.8719999999999999
 20
-6.5439999999999996
 30
0.0
 11
-43.6929999999999978
 21
-6.7549999999999999
 31
0.0
  0
LINE
  5
23D
100
AcDbEntity
100
AcDbLine
  8
0
 62
256
370
-1
  6
ByLayer
 10
-43.6929999999999978
 20
-6.7549999999999999
 30
0.0
 11
-44.5339999999999989
 21
-6.8609999999999998
 31
0.0
  0
LINE
  5
23E
100
AcDbEntity
100
AcDbLine
  8
0
 62
256
370
-1
  6
ByLayer
 10
-44.5339999999999989
 20
-6.8609999999999998
 30
0.0
 11
-45.3819999999999979
 21
-6.8609999999999998
 31
0.0
  0
LINE
  5
23F
100
AcDbEntity
100
AcDbLine
  8
0
 62
256
370
-1
  6
ByLayer
 10
-45.3819999999999979
 20
-6.8609999999999998
 30
0.0
 11
-46.222999999999999
 21
-6.7549999999999999
 31
0.0
  0
LINE
  5
240
100
AcDbEntity
100
AcDbLine
  8
0
 62
256
370
-1
  6
ByLayer
 10
-46.222999999999999
 20
-6.7549999999999999
 30
0.0
 11
-47.0439999999999969
 21
-6.5439999999999996
 31
0.0
  0
LINE
  5
241
100
AcDbEntity
100
AcDbLine
  8
0
 62
256
370
-1
  6
ByLayer
 10
-47.0439999999999969
 20
-6.5439999999999996
 30
0.0
 11
-47.8320000000000007
 21
-6.2320000000000002
 31
0.0
  0
LINE
  5
242
100
AcDbEntity
100
AcDbLine
  8
0
 62
256
370
-1
  6
ByLayer
 10
-47.8320000000000007
 20
-6.2320000000000002
 30
0.0
 11
-48.5750000000000028
 21
-5.8230000000000004
 31
0.0
  0
LINE
  5
243
100
AcDbEntity
100
AcDbLine
  8
0
 62
256
370
-1
  6
ByLayer
 10
-48.5750000000000028
 20
-5.8230000000000004
 30
0.0
 11
-49.2610000000000028
 21
-5.3250000000000002
 31
0.0
  0
LINE
  5
244
100
AcDbEntity
100
AcDbLine
  8
0
 62
256
370
-1
  6
ByLayer
 10
-49.2610000000000028
 20
-5.3250000000000002
 30
0.0
 11
-49.8789999999999978
 21
-4.7450000000000001
 31
0.0
  0
LINE
  5
245
100
AcDbEntity
100
AcDbLine
  8
0
 62
256
370
-1
  6
ByLayer
 10
-49.8789999999999978
 20
-4.7450000000000001
 30
0.0
 11
-50.4189999999999969
 21
-4.0919999999999996
 31
0.0
  0
LINE
  5
246
100
AcDbEntity
100
AcDbLine
  8
0
 62
256
370
-1
  6
ByLayer
 10
-50.4189999999999969
 20
-4.0919999999999996
 30
0.0
 11
-50.8729999999999976
 21
-3.3759999999999999
 31
0.0
  0
LINE
  5
247
100
AcDbEntity
100
AcDbLine
  8
0
 62
256
370
-1
  6
ByLayer
 10
-50.8729999999999976
 20
-3.3759999999999999
 30
0.0
 11
-51.2340000000000018
 21
-2.609
 31
0.0
  0
LINE
  5
248
100
AcDbEntity
100
AcDbLine
  8
0
 62
256
370
-1
  6
ByLayer
 10
-51.2340000000000018
 20
-2.609
 30
0.0
 11
-51.4960000000000022
 21
-1.8029999999999999
 31
0.0
  0
LINE
  5
249
100
AcDbEntity
100
AcDbLine
  8
0
 62
256
370
-1
  6
ByLayer
 10
-51.4960000000000022
 20
-1.8029999999999999
 30
0.0
 11
-51.6550000000000011
 21
-0.97
 31
0.0
  0
LINE
  5
24A
100
AcDbEntity
100
AcDbLine
  8
0
 62
256
370
-1
  6
ByLayer
 10
-51.6550000000000011
 20
-0.97
 30
0.0
 11
-51.7079999999999984
 21
-0.124
 31
0.0
  0
LINE
  5
24B
100
AcDbEntity
100
AcDbLine
  8
0
 62
256
370
-1
  6
ByLayer
 10
-31.3880000000000017
 20
-0.124
 30
0.0
 11
-31.3350000000000009
 21
0.722
 31
0.0
  0
LINE
  5
24C
100
AcDbEntity
100
AcDbLine
  8
0
 62
256
370
-1
  6
ByLayer
 10
-31.3350000000000009
 20
0.722
 30
0.0
 11
-31.1759999999999984
 21
1.554
 31
0.0
  0
LINE
  5
24D
100
AcDbEntity
100
AcDbLine
  8
0
 62
256
370
-1
  6
ByLayer
 10
-31.1759999999999984
 20
1.554
 30
0.0
 11
-30.9140000000000015
 21
2.3610000000000002
 31
0.0
  0
LINE
  5
24E
100
AcDbEntity
100
AcDbLine
  8
0
 62
256
370
-1
  6
ByLayer
 10
-30.9140000000000015
 20
2.3610000000000002
 30
0.0
 11
-30.5530000000000008
 21
3.1280000000000001
 31
0.0
  0
LINE
  5
24F
100
AcDbEntity
100
AcDbLine
  8
0
 62
256
370
-1
  6
ByLayer
 10
-30.5530000000000008
 20
3.1280000000000001
 30
0.0
 11
-30.0990000000000002
 21
3.843
 31
0.0
  0
LINE
  5
250
100
AcDbEntity
100
AcDbLine
  8
0
 62
256
370
-1
  6
ByLayer
 10
-30.0990000000000002
 20
3.843
 30
0.0
 11
-29.5590000000000011
 21
4.4960000000000004
 31
0.0
  0
LINE
  5
251
100
AcDbEntity
100
AcDbLine
  8
0
 62
256
370
-1
  6
ByLayer
 10
-29.5590000000000011
 20
4.4960000000000004
 30
0.0
 11
-28.9409999999999989
 21
5.077
 31
0.0
  0
LINE
  5
252
100
AcDbEntity
100
AcDbLine
  8
0
 62
256
370
-1
  6
ByLayer
 10
-28.9409999999999989
 20
5.077
 30
0.0
 11
-28.254999999999999
 21
5.5750000000000002
 31
0.0
  0
LINE
  5
253
100
AcDbEntity
100
AcDbLine
  8
0
 62
256
370
-1
  6
ByLayer
 10
-28.254999999999999
 20
5.5750000000000002
 30
0.0
 11
-27.5120000000000005
 21
5.9829999999999997
 31
0.0
  0
LINE
  5
254
100
AcDbEntity
100
AcDbLine
  8
0
 62
256
370
-1
  6
ByLayer
 10
-27.5120000000000005
 20
5.9829999999999997
 30
0.0
 11
-26.7240000000000002
 21
6.2949999999999999
 31
0.0
  0
LINE
  5
255
100
AcDbEntity
100
AcDbLine
  8
0
 62
256
370
-1
  6
ByLayer
 10
-26.7240000000000002
 20
6.2949999999999999
 30
0.0
 11
-25.9029999999999987
 21
6.5060000000000002
 31
0.0
  0
LINE
  5
256
100
AcDbEntity
100
AcDbLine
  8
0
 62
256
370
-1
  6
ByLayer
 10
-25.9029999999999987
 20
6.5060000000000002
 30
0.0
 11
-25.0620000000000012
 21
6.6120000000000001
 31
0.0
  0
LINE
  5
257
100
AcDbEntity
100
AcDbLine
  8
0
 62
256
370
-1
  6
ByLayer
 10
-25.0620000000000012
 20
6.6120000000000001
 30
0.0
 11
-24.2139999999999986
 21
6.6120000000000001
 31
0.0
  0
LINE
  5
258
100
AcDbEntity
100
AcDbLine
  8
0
 62
256
370
-1
  6
ByLayer
 10
-24.2139999999999986
 20
6.6120000000000001
 30
0.0
 11
-23.3730000000000011
 21
6.5060000000000002
 31
0.0
  0
LINE
  5
259
100
AcDbEntity
100
AcDbLine
  8
0
 62
256
370
-1
  6
ByLayer
 10
-23.3730000000000011
 20
6.5060000000000002
 30
0.0
 11
-22.5519999999999996
 21
6.2949999999999999
 31
0.0
  0
LINE
  5
25A
100
AcDbEntity
100
AcDbLine
  8
0
 62
256
370
-1
  6
ByLayer
 10
-22.5519999999999996
 20
6.2949999999999999
 30
0.0
 11
-21.7639999999999993
 21
5.9829999999999997
 31
0.0
  0
LINE
  5
25B
100
AcDbEntity
100
AcDbLine
  8
0
 62
256
370
-1
  6
ByLayer
 10
-21.7639999999999993
 20
5.9829999999999997
 30
0.0
 11
-21.0210000000000008
 21
5.5750000000000002
 31
0.0
  0
LINE
  5
25C
100
AcDbEntity
100
AcDbLine
  8
0
 62
256
370
-1
  6
ByLayer
 10
-21.0210000000000008
 20
5.5750000000000002
 30
0.0
 11
-20.3350000000000009
 21
5.077
 31
0.0
  0
LINE
  5
25D
100
AcDbEntity
100
AcDbLine
  8
0
 62
256
370
-1
  6
ByLayer
 10
-20.3350000000000009
 20
5.077
 30
0.0
 11
-19.7169999999999987
 21
4.4960000000000004
 31
0.0
  0
LINE
  5
25E
100
AcDbEntity
100
AcDbLine
  8
0
 62
256
370
-1
  6
ByLayer
 10
-19.7169999999999987
 20
4.4960000000000004
 30
0.0
 11
-19.1769999999999996
 21
3.843
 31
0.0
  0
LINE
  5
25F
100
AcDbEntity
100
AcDbLine
  8
0
 62
256
370
-1
  6
ByLayer
 10
-19.1769999999999996
 20
3.843
 30
0.0
 11
-18.722999999999999
 21
3.1280000000000001
 31
0.0
  0
LINE
  5
260
100
AcDbEntity
100
AcDbLine
  8
0
 62
256
370
-1
  6
ByLayer
 10
-18.722999999999999
 20
3.1280000000000001
 30
0.0
 11
-18.3619999999999983
 21
2.3610000000000002
 31
0.0
  0
LINE
  5
261
100
AcDbEntity
100
AcDbLine
  8
0
 62
256
370
-1
  6
ByLayer
 10
-18.3619999999999983
 20
2.3610000000000002
 30
0.0
 11
-18.1000000000000014
 21
1.554
 31
0.0
  0
LINE
  5
262
100
AcDbEntity
100
AcDbLine
  8
0
 62
256
370
-1
  6
ByLayer
 10
-18.1000000000000014
 20
1.554
 30
0.0
 11
-17.9409999999999989
 21
0.722
 31
0.0
  0
LINE
  5
263
100
AcDbEntity
100
AcDbLine
  8
0
 62
256
370
-1
  6
ByLayer
 10
-17.9409999999999989
 20
0.722
 30
0.0
 11
-17.8880000000000017
 21
-0.124
 31
0.0
  0
LINE
  5
264
100
AcDbEntity
100
AcDbLine
  8
0
 62
256
370
-1
  6
ByLayer
 10
-17.8880000000000017
 20
-0.124
 30
0.0
 11
-17.9409999999999989
 21
-0.97
 31
0.0
  0
LINE
  5
265
100
AcDbEntity
100
AcDbLine
  8
0
 62
256
370
-1
  6
ByLayer
 10
-17.9409999999999989
 20
-0.97
 30
0.0
 11
-18.1000000000000014
 21
-1.8029999999999999
 31
0.0
  0
LINE
  5
266
100
AcDbEntity
100
AcDbLine
  8
0
 62
256
370
-1
  6
ByLayer
 10
-18.1000000000000014
 20
-1.8029999999999999
 30
0.0
 11
-18.3619999999999983
 21
-2.609
 31
0.0
  0
LINE
  5
267
100
AcDbEntity
100
AcDbLine
  8
0
 62
256
370
-1
  6
ByLayer
 10
-18.3619999999999983
 20
-2.609
 30
0.0
 11
-18.722999999999999
 21
-3.3759999999999999
 31
0.0
  0
LINE
  5
268
100
AcDbEntity
100
AcDbLine
  8
0
 62
256
370
-1
  6
ByLayer
 10
-18.722999999999999
 20
-3.3759999999999999
 30
0.0
 11
-19.1769999999999996
 21
-4.0919999999999996
 31
0.0
  0
LINE
  5
269
100
AcDbEntity
100
AcDbLine
  8
0
 62
256
370
-1
  6
ByLayer
 10
-19.1769999999999996
 20
-4.0919999999999996
 30
0.0
 11
-19.7169999999999987
 21
-4.7450000000000001
 31
0.0
  0
LINE
  5
26A
100
AcDbEntity
100
AcDbLine
  8
0
 62
256
370
-1
  6
ByLayer
 10
-19.7169999999999987
 20
-4.7450000000000001
 30
0.0
 11
-20.3350000000000009
 21
-5.3250000000000002
 31
0.0
  0
LINE
  5
26B
100
AcDbEntity
100
AcDbLine
  8
0
 62
256
370
-1
  6
ByLayer
 10
-20.3350000000000009
 20
-5.3250000000000002
 30
0.0
 11
-21.0210000000000008
 21
-5.8230000000000004
 31
0.0
  0
LINE
  5
26C
100
AcDbEntity
100
AcDbLine
  8
0
 62
256
370
-1
  6
ByLayer
 10
-21.0210000000000008
 20
-5.8230000000000004
 30
0.0
 11
-21.7639999999999993
 21
-6.2320000000000002
 31
0.0
  0
LINE
  5
26D
100
AcDbEntity
100
AcDbLine
  8
0
 62
256
370
-1
  6
ByLayer
 10
-21.7639999999999993
 20
-6.2320000000000002
 30
0.0
 11
-22.5519999999999996
 21
-6.5439999999999996
 31
0.0
  0
LINE
  5
26E
100
AcDbEntity
100
AcDbLine
  8
0
 62
256
370
-1
  6
ByLayer
 10
-22.5519999999999996
 20
-6.5439999999999996
 30
0.0
 11
-23.3730000000000011
 21
-6.7549999999999999
 31
0.0
  0
LINE
  5
26F
100
AcDbEntity
100
AcDbLine
  8
0
 62
256
370
-1
  6
ByLayer
 10
-23.3730000000000011
 20
-6.7549999999999999
 30
0.0
 11
-24.2139999999999986
 21
-6.8609999999999998
 31
0.0
  0
LINE
  5
270
100
AcDbEntity
100
AcDbLine
  8
0
 62
256
370
-1
  6
ByLayer
 10
-24.2139999999999986
 20
-6.8609999999999998
 30
0.0
 11
-25.0620000000000012
 21
-6.8609999999999998
 31
0.0
  0
LINE
  5
271
100
AcDbEntity
100
AcDbLine
  8
0
 62
256
370
-1
  6
ByLayer
 10
-25.0620000000000012
 20
-6.8609999999999998
 30
0.0
 11
-25.9029999999999987
 21
-6.7549999999999999
 31
0.0
  0
LINE
  5
272
100
AcDbEntity
100
AcDbLine
  8
0
 62
256
370
-1
  6
ByLayer
 10
-25.9029999999999987
 20
-6.7549999999999999
 30
0.0
 11
-26.7240000000000002
 21
-6.5439999999999996
 31
0.0
  0
LINE
  5
273
100
AcDbEntity
100
AcDbLine
  8
0
 62
256
370
-1
  6
ByLayer
 10
-26.7240000000000002
 20
-6.5439999999999996
 30
0.0
 11
-27.5120000000000005
 21
-6.2320000000000002
 31
0.0
  0
LINE
  5
274
100
AcDbEntity
100
AcDbLine
  8
0
 62
256
370
-1
  6
ByLayer
 10
-27.5120000000000005
 20
-6.2320000000000002
 30
0.0
 11
-28.254999999999999
 21
-5.8230000000000004
 31
0.0
  0
LINE
  5
275
100
AcDbEntity
100
AcDbLine
  8
0
 62
256
370
-1
  6
ByLayer
 10
-28.254999999999999
 20
-5.8230000000000004
 30
0.0
 11
-28.9409999999999989
 21
-5.3250000000000002
 31
0.0
  0
LINE
  5
276
100
AcDbEntity
100
AcDbLine
  8
0
 62
256
370
-1
  6
ByLayer
 10
-28.9409999999999989
 20
-5.3250000000000002
 30
0.0
 11
-29.5590000000000011
 21
-4.7450000000000001
 31
0.0
  0
LINE
  5
277
100
AcDbEntity
100
AcDbLine
  8
0
 62
256
370
-1
  6
ByLayer
 10
-29.5590000000000011
 20
-4.7450000000000001
 30
0.0
 11
-30.0990000000000002
 21
-4.0919999999999996
 31
0.0
  0
LINE
  5
278
100
AcDbEntity
100
AcDbLine
  8
0
 62
256
370
-1
  6
ByLayer
 10
-30.0990000000000002
 20
-4.0919999999999996
 30
0.0
 11
-30.5530000000000008
 21
-3.3759999999999999
 31
0.0
  0
LINE
  5
279
100
AcDbEntity
100
AcDbLine
  8
0
 62
256
370
-1
  6
ByLayer
 10
-30.5530000000000008
 20
-3.3759999999999999
 30
0.0
 11
-30.9140000000000015
 21
-2.609
 31
0.0
  0
LINE
  5
27A
100
AcDbEntity
100
AcDbLine
  8
0
 62
256
370
-1
  6
ByLayer
 10
-30.9140000000000015
 20
-2.609
 30
0.0
 11
-31.1759999999999984
 21
-1.8029999999999999
 31
0.0
  0
LINE
  5
27B
100
AcDbEntity
100
AcDbLine
  8
0
 62
256
370
-1
  6
ByLayer
 10
-31.1759999999999984
 20
-1.8029999999999999
 30
0.0
 11
-31.3350000000000009
 21
-0.97
 31
0.0
  0
LINE
  5
27C
100
AcDbEntity
100
AcDbLine
  8
0
 62
256
370
-1
  6
ByLayer
 10
-31.3350000000000009
 20
-0.97
 30
0.0
 11
-31.3880000000000017
 21
-0.124
 31
0.0
  0
LINE
  5
27D
100
AcDbEntity
100
AcDbLine
  8
0
 62
256
370
-1
  6
ByLayer
 10
-11.0679999999999996
 20
-0.124
 30
0.0
 11
-11.0150000000000006
 21
0.722
 31
0.0
  0
LINE
  5
27E
100
AcDbEntity
100
AcDbLine
  8
0
 62
256
370
-1
  6
ByLayer
 10
-11.0150000000000006
 20
0.722
 30
0.0
 11
-10.8559999999999999
 21
1.554
 31
0.0
  0
LINE
  5
27F
100
AcDbEntity
100
AcDbLine
  8
0
 62
256
370
-1
  6
ByLayer
 10
-10.8559999999999999
 20
1.554
 30
0.0
 11
-10.5939999999999994
 21
2.3610000000000002
 31
0.0
  0
LINE
  5
280
100
AcDbEntity
100
AcDbLine
  8
0
 62
256
370
-1
  6
ByLayer
 10
-10.5939999999999994
 20
2.3610000000000002
 30
0.0
 11
-10.2330000000000005
 21
3.1280000000000001
 31
0.0
  0
LINE
  5
281
100
AcDbEntity
100
AcDbLine
  8
0
 62
256
370
-1
  6
ByLayer
 10
-10.2330000000000005
 20
3.1280000000000001
 30
0.0
 11
-9.7789999999999999
 21
3.843
 31
0.0
  0
LINE
  5
282
100
AcDbEntity
100
AcDbLine
  8
0
 62
256
370
-1
  6
ByLayer
 10
-9.7789999999999999
 20
3.843
 30
0.0
 11
-9.2390000000000008
 21
4.4960000000000004
 31
0.0
  0
LINE
  5
283
100
AcDbEntity
100
AcDbLine
  8
0
 62
256
370
-1
  6
ByLayer
 10
-9.2390000000000008
 20
4.4960000000000004
 30
0.0
 11
-8.6210000000000004
 21
5.077
 31
0.0
  0
LINE
  5
284
100
AcDbEntity
100
AcDbLine
  8
0
 62
256
370
-1
  6
ByLayer
 10
-8.6210000000000004
 20
5.077
 30
0.0
 11
-7.9349999999999996
 21
5.5750000000000002
 31
0.0
  0
LINE
  5
285
100
AcDbEntity
100
AcDbLine
  8
0
 62
256
370
-1
  6
ByLayer
 10
-7.9349999999999996
 20
5.5750000000000002
 30
0.0
 11
-7.1920000000000002
 21
5.9829999999999997
 31
0.0
  0
LINE
  5
286
100
AcDbEntity
100
AcDbLine
  8
0
 62
256
370
-1
  6
ByLayer
 10
-7.1920000000000002
 20
5.9829999999999997
 30
0.0
 11
-6.4039999999999999
 21
6.2949999999999999
 31
0.0
  0
LINE
  5
287
100
AcDbEntity
100
AcDbLine
  8
0
 62
256
370
-1
  6
ByLayer
 10
-6.4039999999999999
 20
6.2949999999999999
 30
0.0
 11
-5.5830000000000002
 21
6.5060000000000002
 31
0.0
  0
LINE
  5
288
100
AcDbEntity
100
AcDbLine
  8
0
 62
256
370
-1
  6
ByLayer
 10
-5.5830000000000002
 20
6.5060000000000002
 30
0.0
 11
-4.742
 21
6.6120000000000001
 31
0.0
  0
LINE
  5
289
100
AcDbEntity
100
AcDbLine
  8
0
 62
256
370
-1
  6
ByLayer
 10
-4.742
 20
6.6120000000000001
 30
0.0
 11
-3.8940000000000001
 21
6.6120000000000001
 31
0.0
  0
LINE
  5
28A
100
AcDbEntity
100
AcDbLine
  8
0
 62
256
370
-1
  6
ByLayer
 10
-3.8940000000000001
 20
6.6120000000000001
 30
0.0
 11
-3.0529999999999999
 21
6.5060000000000002
 31
0.0
  0
LINE
  5
28B
100
AcDbEntity
100
AcDbLine
  8
0
 62
256
370
-1
  6
ByLayer
 10
-3.0529999999999999
 20
6.5060000000000002
 30
0.0
 11
-2.2320000000000002
 21
6.2949999999999999
 31
0.0
  0
LINE
  5
28C
100
AcDbEntity
100
AcDbLine
  8
0
 62
256
370
-1
  6
ByLayer
 10
-2.2320000000000002
 20
6.2949999999999999
 30
0.0
 11
-1.444
 21
5.9829999999999997
 31
0.0
  0
LINE
  5
28D
100
AcDbEntity
100
AcDbLine
  8
0
 62
256
370
-1
  6
ByLayer
 10
-1.444
 20
5.9829999999999997
 30
0.0
 11
-0.701
 21
5.5750000000000002
 31
0.0
  0
LINE
  5
28E
100
AcDbEntity
100
AcDbLine
  8
0
 62
256
370
-1
  6
ByLayer
 10
-0.701
 20
5.5750000000000002
 30
0.0
 11
-0.015
 21
5.077
 31
0.0
  0
LINE
  5
28F
100
AcDbEntity
100
AcDbLine
  8
0
 62
256
370
-1
  6
ByLayer
 10
-0.015
 20
5.077
 30
0.0
 11
0.603
 21
4.4960000000000004
 31
0.0
  0
LINE
  5
290
100
AcDbEntity
100
AcDbLine
  8
0
 62
256
370
-1
  6
ByLayer
 10
0.603
 20
4.4960000000000004
 30
0.0
 11
1.143
 21
3.843
 31
0.0
  0
LINE
  5
291
100
AcDbEntity
100
AcDbLine
  8
0
 62
256
370
-1
  6
ByLayer
 10
1.143
 20
3.843
 30
0.0
 11
1.597
 21
3.1280000000000001
 31
0.0
  0
LINE
  5
292
100
AcDbEntity
100
AcDbLine
  8
0
 62
256
370
-1
  6
ByLayer
 10
1.597
 20
3.1280000000000001
 30
0.0
 11
1.958
 21
2.3610000000000002
 31
0.0
  0
LINE
  5
293
100
AcDbEntity
100
AcDbLine
  8
0
 62
256
370
-1
  6
ByLayer
 10
1.958
 20
2.3610000000000002
 30
0.0
 11
2.2200000000000002
 21
1.554
 31
0.0
  0
LINE
  5
294
100
AcDbEntity
100
AcDbLine
  8
0
 62
256
370
-1
  6
ByLayer
 10
2.2200000000000002
 20
1.554
 30
0.0
 11
2.379
 21
0.722
 31
0.0
  0
LINE
  5
295
100
AcDbEntity
100
AcDbLine
  8
0
 62
256
370
-1
  6
ByLayer
 10
2.379
 20
0.722
 30
0.0
 11
2.4319999999999999
 21
-0.124
 31
0.0
  0
LINE
  5
296
100
AcDbEntity
100
AcDbLine
  8
0
 62
256
370
-1
  6
ByLayer
 10
2.4319999999999999
 20
-0.124
 30
0.0
 11
2.379
 21
-0.97
 31
0.0
  0
LINE
  5
297
100
AcDbEntity
100
AcDbLine
  8
0
 62
256
370
-1
  6
ByLayer
 10
2.379
 20
-0.97
 30
0.0
 11
2.2200000000000002
 21
-1.8029999999999999
 31
0.0
  0
LINE
  5
298
100
AcDbEntity
100
AcDbLine
  8
0
 62
256
370
-1
  6
ByLayer
 10
2.2200000000000002
 20
-1.8029999999999999
 30
0.0
 11
1.958
 21
-2.609
 31
0.0
  0
LINE
  5
299
100
AcDbEntity
100
AcDbLine
  8
0
 62
256
370
-1
  6
ByLayer
 10
1.958
 20
-2.609
 30
0.0
 11
1.597
 21
-3.3759999999999999
 31
0.0
  0
LINE
  5
29A
100
AcDbEntity
100
AcDbLine
  8
0
 62
256
370
-1
  6
ByLayer
 10
1.597
 20
-3.3759999999999999
 30
0.0
 11
1.143
 21
-4.0919999999999996
 31
0.0
  0
LINE
  5
29B
100
AcDbEntity
100
AcDbLine
  8
0
 62
256
370
-1
  6
ByLayer
 10
1.143
 20
-4.0919999999999996
 30
0.0
 11
0.603
 21
-4.7450000000000001
 31
0.0
  0
LINE
  5
29C
100
AcDbEntity
100
AcDbLine
  8
0
 62
256
370
-1
  6
ByLayer
 10
0.603
 20
-4.7450000000000001
 30
0.0
 11
-0.015
 21
-5.3250000000000002
 31
0.0
  0
LINE
  5
29D
100
AcDbEntity
100
AcDbLine
  8
0
 62
256
370
-1
  6
ByLayer
 10
-0.015
 20
-5.3250000000000002
 30
0.0
 11
-0.701
 21
-5.8230000000000004
 31
0.0
  0
LINE
  5
29E
100
AcDbEntity
100
AcDbLine
  8
0
 62
256
370
-1
  6
ByLayer
 10
-0.701
 20
-5.8230000000000004
 30
0.0
 11
-1.444
 21
-6.2320000000000002
 31
0.0
  0
LINE
  5
29F
100
AcDbEntity
100
AcDbLine
  8
0
 62
256
370
-1
  6
ByLayer
 10
-1.444
 20
-6.2320000000000002
 30
0.0
 11
-2.2320000000000002
 21
-6.5439999999999996
 31
0.0
  0
LINE
  5
2A0
100
AcDbEntity
100
AcDbLine
  8
0
 62
256
370
-1
  6
ByLayer
 10
-2.2320000000000002
 20
-6.5439999999999996
 30
0.0
 11
-3.0529999999999999
 21
-6.7549999999999999
 31
0.0
  0
LINE
  5
2A1
100
AcDbEntity
100
AcDbLine
  8
0
 62
256
370
-1
  6
ByLayer
 10
-3.0529999999999999
 20
-6.7549999999999999
 30
0.0
 11
-3.8940000000000001
 21
-6.8609999999999998
 31
0.0
  0
LINE
  5
2A2
100
AcDbEntity
100
AcDbLine
  8
0
 62
256
370
-1
  6
ByLayer
 10
-3.8940000000000001
 20
-6.8609999999999998
 30
0.0
 11
-4.742
 21
-6.8609999999999998
 31
0.0
  0
LINE
  5
2A3
100
AcDbEntity
100
AcDbLine
  8
0
 62
256
370
-1
  6
ByLayer
 10
-4.742
 20
-6.8609999999999998
 30
0.0
 11
-5.5830000000000002
 21
-6.7549999999999999
 31
0.0
  0
LINE
  5
2A4
100
AcDbEntity
100
AcDbLine
  8
0
 62
256
370
-1
  6
ByLayer
 10
-5.5830000000000002
 20
-6.7549999999999999
 30
0.0
 11
-6.4039999999999999
 21
-6.5439999999999996
 31
0.0
  0
LINE
  5
2A5
100
AcDbEntity
100
AcDbLine
  8
0
 62
256
370
-1
  6
ByLayer
 10
-6.4039999999999999
 20
-6.5439999999999996
 30
0.0
 11
-7.1920000000000002
 21
-6.2320000000000002
 31
0.0
  0
LINE
  5
2A6
100
AcDbEntity
100
AcDbLine
  8
0
 62
256
370
-1
  6
ByLayer
 10
-7.1920000000000002
 20
-6.2320000000000002
 30
0.0
 11
-7.9349999999999996
 21
-5.8230000000000004
 31
0.0
  0
LINE
  5
2A7
100
AcDbEntity
100
AcDbLine
  8
0
 62
256
370
-1
  6
ByLayer
 10
-7.9349999999999996
 20
-5.8230000000000004
 30
0.0
 11
-8.6210000000000004
 21
-5.3250000000000002
 31
0.0
  0
LINE
  5
2A8
100
AcDbEntity
100
AcDbLine
  8
0
 62
256
370
-1
  6
ByLayer
 10
-8.6210000000000004
 20
-5.3250000000000002
 30
0.0
 11
-9.2390000000000008
 21
-4.7450000000000001
 31
0.0
  0
LINE
  5
2A9
100
AcDbEntity
100
AcDbLine
  8
0
 62
256
370
-1
  6
ByLayer
 10
-9.2390000000000008
 20
-4.7450000000000001
 30
0.0
 11
-9.7789999999999999
 21
-4.0919999999999996
 31
0.0
  0
LINE
  5
2AA
100
AcDbEntity
100
AcDbLine
  8
0
 62
256
370
-1
  6
ByLayer
 10
-9.7789999999999999
 20
-4.0919999999999996
 30
0.0
 11
-10.2330000000000005
 21
-3.3759999999999999
 31
0.0
  0
LINE
  5
2AB
100
AcDbEntity
100
AcDbLine
  8
0
 62
256
370
-1
  6
ByLayer
 10
-10.2330000000000005
 20
-3.3759999999999999
 30
0.0
 11
-10.5939999999999994
 21
-2.609
 31
0.0
  0
LINE
  5
2AC
100
AcDbEntity
100
AcDbLine
  8
0
 62
256
370
-1
  6
ByLayer
 10
-10.5939999999999994
 20
-2.609
 30
0.0
 11
-10.8559999999999999
 21
-1.8029999999999999
 31
0.0
  0
LINE
  5
2AD
100
AcDbEntity
100
AcDbLine
  8
0
 62
256
370
-1
  6
ByLayer
 10
-10.8559999999999999
 20
-1.8029999999999999
 30
0.0
 11
-11.0150000000000006
 21
-0.97
 31
0.0
  0
LINE
  5
2AE
100
AcDbEntity
100
AcDbLine
  8
0
 62
256
370
-1
  6
ByLayer
 10
-11.0150000000000006
 20
-0.97
 30
0.0
 11
-11.0679999999999996
 21
-0.124
 31
0.0
  0
LINE
  5
2AF
100
AcDbEntity
100
AcDbLine
  8
0
 62
256
370
-1
  6
ByLayer
 10
6.7560000000000002
 20
-15.2400000000000002
 30
0.0
 11
6.7649999999999997
 21
-15.0999999999999996
 31
0.0
  0
LINE
  5
2B0
100
AcDbEntity
100
AcDbLine
  8
0
 62
256
370
-1
  6
ByLayer
 10
6.7649999999999997
 20
-15.0999999999999996
 30
0.0
 11
6.7919999999999998
 21
-14.9619999999999997
 31
0.0
  0
LINE
  5
2B1
100
AcDbEntity
100
AcDbLine
  8
0
 62
256
370
-1
  6
ByLayer
 10
6.7919999999999998
 20
-14.9619999999999997
 30
0.0
 11
6.835
 21
-14.8290000000000006
 31
0.0
  0
LINE
  5
2B2
100
AcDbEntity
100
AcDbLine
  8
0
 62
256
370
-1
  6
ByLayer
 10
6.835
 20
-14.8290000000000006
 30
0.0
 11
6.8949999999999996
 21
-14.702
 31
0.0
  0
LINE
  5
2B3
100
AcDbEntity
100
AcDbLine
  8
0
 62
256
370
-1
  6
ByLayer
 10
6.8949999999999996
 20
-14.702
 30
0.0
 11
6.9699999999999998
 21
-14.5830000000000002
 31
0.0
  0
LINE
  5
2B4
100
AcDbEntity
100
AcDbLine
  8
0
 62
256
370
-1
  6
ByLayer
 10
6.9699999999999998
 20
-14.5830000000000002
 30
0.0
 11
7.0590000000000002
 21
-14.4749999999999996
 31
0.0
  0
LINE
  5
2B5
100
AcDbEntity
100
AcDbLine
  8
0
 62
256
370
-1
  6
ByLayer
 10
7.0590000000000002
 20
-14.4749999999999996
 30
0.0
 11
7.1619999999999999
 21
-14.3789999999999996
 31
0.0
  0
LINE
  5
2B6
100
AcDbEntity
100
AcDbLine
  8
0
 62
256
370
-1
  6
ByLayer
 10
7.1619999999999999
 20
-14.3789999999999996
 30
0.0
 11
7.2750000000000004
 21
-14.2959999999999994
 31
0.0
  0
LINE
  5
2B7
100
AcDbEntity
100
AcDbLine
  8
0
 62
256
370
-1
  6
ByLayer
 10
7.2750000000000004
 20
-14.2959999999999994
 30
0.0
 11
7.3979999999999997
 21
-14.2289999999999992
 31
0.0
  0
LINE
  5
2B8
100
AcDbEntity
100
AcDbLine
  8
0
 62
256
370
-1
  6
ByLayer
 10
7.3979999999999997
 20
-14.2289999999999992
 30
0.0
 11
7.5289999999999999
 21
-14.1769999999999996
 31
0.0
  0
LINE
  5
2B9
100
AcDbEntity
100
AcDbLine
  8
0
 62
256
370
-1
  6
ByLayer
 10
7.5289999999999999
 20
-14.1769999999999996
 30
0.0
 11
7.665
 21
-14.1419999999999995
 31
0.0
  0
LINE
  5
2BA
100
AcDbEntity
100
AcDbLine
  8
0
 62
256
370
-1
  6
ByLayer
 10
7.665
 20
-14.1419999999999995
 30
0.0
 11
7.8040000000000003
 21
-14.125
 31
0.0
  0
LINE
  5
2BB
100
AcDbEntity
100
AcDbLine
  8
0
 62
256
370
-1
  6
ByLayer
 10
7.8040000000000003
 20
-14.125
 30
0.0
 11
7.944
 21
-14.125
 31
0.0
  0
LINE
  5
2BC
100
AcDbEntity
100
AcDbLine
  8
0
 62
256
370
-1
  6
ByLayer
 10
7.944
 20
-14.125
 30
0.0
 11
8.0830000000000002
 21
-14.1419999999999995
 31
0.0
  0
LINE
  5
2BD
100
AcDbEntity
100
AcDbLine
  8
0
 62
256
370
-1
  6
ByLayer
 10
8.0830000000000002
 20
-14.1419999999999995
 30
0.0
 11
8.2189999999999994
 21
-14.1769999999999996
 31
0.0
  0
LINE
  5
2BE
100
AcDbEntity
100
AcDbLine
  8
0
 62
256
370
-1
  6
ByLayer
 10
8.2189999999999994
 20
-14.1769999999999996
 30
0.0
 11
8.3499999999999996
 21
-14.2289999999999992
 31
0.0
  0
LINE
  5
2BF
100
AcDbEntity
100
AcDbLine
  8
0
 62
256
370
-1
  6
ByLayer
 10
8.3499999999999996
 20
-14.2289999999999992
 30
0.0
 11
8.4730000000000008
 21
-14.2959999999999994
 31
0.0
  0
LINE
  5
2C0
100
AcDbEntity
100
AcDbLine
  8
0
 62
256
370
-1
  6
ByLayer
 10
8.4730000000000008
 20
-14.2959999999999994
 30
0.0
 11
8.5860000000000003
 21
-14.3789999999999996
 31
0.0
  0
LINE
  5
2C1
100
AcDbEntity
100
AcDbLine
  8
0
 62
256
370
-1
  6
ByLayer
 10
8.5860000000000003
 20
-14.3789999999999996
 30
0.0
 11
8.6890000000000001
 21
-14.4749999999999996
 31
0.0
  0
LINE
  5
2C2
100
AcDbEntity
100
AcDbLine
  8
0
 62
256
370
-1
  6
ByLayer
 10
8.6890000000000001
 20
-14.4749999999999996
 30
0.0
 11
8.7780000000000005
 21
-14.5830000000000002
 31
0.0
  0
LINE
  5
2C3
100
AcDbEntity
100
AcDbLine
  8
0
 62
256
370
-1
  6
ByLayer
 10
8.7780000000000005
 20
-14.5830000000000002
 30
0.0
 11
8.8529999999999998
 21
-14.702
 31
0.0
  0
LINE
  5
2C4
100
AcDbEntity
100
AcDbLine
  8
0
 62
256
370
-1
  6
ByLayer
 10
8.8529999999999998
 20
-14.702
 30
0.0
 11
8.9130000000000003
 21
-14.8290000000000006
 31
0.0
  0
LINE
  5
2C5
100
AcDbEntity
100
AcDbLine
  8
0
 62
256
370
-1
  6
ByLayer
 10
8.9130000000000003
 20
-14.8290000000000006
 30
0.0
 11
8.9559999999999995
 21
-14.9619999999999997
 31
0.0
  0
LINE
  5
2C6
100
AcDbEntity
100
AcDbLine
  8
0
 62
256
370
-1
  6
ByLayer
 10
8.9559999999999995
 20
-14.9619999999999997
 30
0.0
 11
8.9830000000000005
 21
-15.0999999999999996
 31
0.0
  0
LINE
  5
2C7
100
AcDbEntity
100
AcDbLine
  8
0
 62
256
370
-1
  6
ByLayer
 10
8.9830000000000005
 20
-15.0999999999999996
 30
0.0
 11
8.9920000000000009
 21
-15.2400000000000002
 31
0.0
  0
LINE
  5
2C8
100
AcDbEntity
100
AcDbLine
  8
0
 62
256
370
-1
  6
ByLayer
 10
8.9920000000000009
 20
-15.2400000000000002
 30
0.0
 11
8.9830000000000005
 21
-15.3800000000000008
 31
0.0
  0
LINE
  5
2C9
100
AcDbEntity
100
AcDbLine
  8
0
 62
256
370
-1
  6
ByLayer
 10
8.9830000000000005
 20
-15.3800000000000008
 30
0.0
 11
8.9559999999999995
 21
-15.5180000000000007
 31
0.0
  0
LINE
  5
2CA
100
AcDbEntity
100
AcDbLine
  8
0
 62
256
370
-1
  6
ByLayer
 10
8.9559999999999995
 20
-15.5180000000000007
 30
0.0
 11
8.9130000000000003
 21
-15.6509999999999998
 31
0.0
  0
LINE
  5
2CB
100
AcDbEntity
100
AcDbLine
  8
0
 62
256
370
-1
  6
ByLayer
 10
8.9130000000000003
 20
-15.6509999999999998
 30
0.0
 11
8.8529999999999998
 21
-15.7780000000000005
 31
0.0
  0
LINE
  5
2CC
100
AcDbEntity
100
AcDbLine
  8
0
 62
256
370
-1
  6
ByLayer
 10
8.8529999999999998
 20
-15.7780000000000005
 30
0.0
 11
8.7780000000000005
 21
-15.8970000000000002
 31
0.0
  0
LINE
  5
2CD
100
AcDbEntity
100
AcDbLine
  8
0
 62
256
370
-1
  6
ByLayer
 10
8.7780000000000005
 20
-15.8970000000000002
 30
0.0
 11
8.6890000000000001
 21
-16.004999999999999
 31
0.0
  0
LINE
  5
2CE
100
AcDbEntity
100
AcDbLine
  8
0
 62
256
370
-1
  6
ByLayer
 10
8.6890000000000001
 20
-16.004999999999999
 30
0.0
 11
8.5860000000000003
 21
-16.1009999999999991
 31
0.0
  0
LINE
  5
2CF
100
AcDbEntity
100
AcDbLine
  8
0
 62
256
370
-1
  6
ByLayer
 10
8.5860000000000003
 20
-16.1009999999999991
 30
0.0
 11
8.4730000000000008
 21
-16.1840000000000011
 31
0.0
  0
LINE
  5
2D0
100
AcDbEntity
100
AcDbLine
  8
0
 62
256
370
-1
  6
ByLayer
 10
8.4730000000000008
 20
-16.1840000000000011
 30
0.0
 11
8.3499999999999996
 21
-16.2510000000000012
 31
0.0
  0
LINE
  5
2D1
100
AcDbEntity
100
AcDbLine
  8
0
 62
256
370
-1
  6
ByLayer
 10
8.3499999999999996
 20
-16.2510000000000012
 30
0.0
 11
8.2189999999999994
 21
-16.3030000000000008
 31
0.0
  0
LINE
  5
2D2
100
AcDbEntity
100
AcDbLine
  8
0
 62
256
370
-1
  6
ByLayer
 10
8.2189999999999994
 20
-16.3030000000000008
 30
0.0
 11
8.0830000000000002
 21
-16.338000000000001
 31
0.0
  0
LINE
  5
2D3
100
AcDbEntity
100
AcDbLine
  8
0
 62
256
370
-1
  6
ByLayer
 10
8.0830000000000002
 20
-16.338000000000001
 30
0.0
 11
7.944
 21
-16.3550000000000004
 31
0.0
  0
LINE
  5
2D4
100
AcDbEntity
100
AcDbLine
  8
0
 62
256
370
-1
  6
ByLayer
 10
7.944
 20
-16.3550000000000004
 30
0.0
 11
7.8040000000000003
 21
-16.3550000000000004
 31
0.0
  0
LINE
  5
2D5
100
AcDbEntity
100
AcDbLine
  8
0
 62
256
370
-1
  6
ByLayer
 10
7.8040000000000003
 20
-16.3550000000000004
 30
0.0
 11
7.665
 21
-16.338000000000001
 31
0.0
  0
LINE
  5
2D6
100
AcDbEntity
100
AcDbLine
  8
0
 62
256
370
-1
  6
ByLayer
 10
7.665
 20
-16.338000000000001
 30
0.0
 11
7.5289999999999999
 21
-16.3030000000000008
 31
0.0
  0
LINE
  5
2D7
100
AcDbEntity
100
AcDbLine
  8
0
 62
256
370
-1
  6
ByLayer
 10
7.5289999999999999
 20
-16.3030000000000008
 30
0.0
 11
7.3979999999999997
 21
-16.2510000000000012
 31
0.0
  0
LINE
  5
2D8
100
AcDbEntity
100
AcDbLine
  8
0
 62
256
370
-1
  6
ByLayer
 10
7.3979999999999997
 20
-16.2510000000000012
 30
0.0
 11
7.2750000000000004
 21
-16.1840000000000011
 31
0.0
  0
LINE
  5
2D9
100
AcDbEntity
100
AcDbLine
  8
0
 62
256
370
-1
  6
ByLayer
 10
7.2750000000000004
 20
-16.1840000000000011
 30
0.0
 11
7.1619999999999999
 21
-16.1009999999999991
 31
0.0
  0
LINE
  5
2DA
100
AcDbEntity
100
AcDbLine
  8
0
 62
256
370
-1
  6
ByLayer
 10
7.1619999999999999
 20
-16.1009999999999991
 30
0.0
 11
7.0590000000000002
 21
-16.004999999999999
 31
0.0
  0
LINE
  5
2DB
100
AcDbEntity
100
AcDbLine
  8
0
 62
256
370
-1
  6
ByLayer
 10
7.0590000000000002
 20
-16.004999999999999
 30
0.0
 11
6.9699999999999998
 21
-15.8970000000000002
 31
0.0
  0
LINE
  5
2DC
100
AcDbEntity
100
AcDbLine
  8
0
 62
256
370
-1
  6
ByLayer
 10
6.9699999999999998
 20
-15.8970000000000002
 30
0.0
 11
6.8949999999999996
 21
-15.7780000000000005
 31
0.0
  0
LINE
  5
2DD
100
AcDbEntity
100
AcDbLine
  8
0
 62
256
370
-1
  6
ByLayer
 10
6.8949999999999996
 20
-15.7780000000000005
 30
0.0
 11
6.835
 21
-15.6509999999999998
 31
0.0
  0
LINE
  5
2DE
100
AcDbEntity
100
AcDbLine
  8
0
 62
256
370
-1
  6
ByLayer
 10
6.835
 20
-15.6509999999999998
 30
0.0
 11
6.7919999999999998
 21
-15.5180000000000007
 31
0.0
  0
LINE
  5
2DF
100
AcDbEntity
100
AcDbLine
  8
0
 62
256
370
-1
  6
ByLayer
 10
6.7919999999999998
 20
-15.5180000000000007
 30
0.0
 11
6.7649999999999997
 21
-15.3800000000000008
 31
0.0
  0
LINE
  5
2E0
100
AcDbEntity
100
AcDbLine
  8
0
 62
256
370
-1
  6
ByLayer
 10
6.7649999999999997
 20
-15.3800000000000008
 30
0.0
 11
6.7560000000000002
 21
-15.2400000000000002
 31
0.0
  0
LINE
  5
2E1
100
AcDbEntity
100
AcDbLine
  8
0
 62
256
370
-1
  6
ByLayer
 10
6.7560000000000002
 20
15.2400000000000002
 30
0.0
 11
6.7649999999999997
 21
15.3800000000000008
 31
0.0
  0
LINE
  5
2E2
100
AcDbEntity
100
AcDbLine
  8
0
 62
256
370
-1
  6
ByLayer
 10
6.7649999999999997
 20
15.3800000000000008
 30
0.0
 11
6.7919999999999998
 21
15.5180000000000007
 31
0.0
  0
LINE
  5
2E3
100
AcDbEntity
100
AcDbLine
  8
0
 62
256
370
-1
  6
ByLayer
 10
6.7919999999999998
 20
15.5180000000000007
 30
0.0
 11
6.835
 21
15.6509999999999998
 31
0.0
  0
LINE
  5
2E4
100
AcDbEntity
100
AcDbLine
  8
0
 62
256
370
-1
  6
ByLayer
 10
6.835
 20
15.6509999999999998
 30
0.0
 11
6.8949999999999996
 21
15.7780000000000005
 31
0.0
  0
LINE
  5
2E5
100
AcDbEntity
100
AcDbLine
  8
0
 62
256
370
-1
  6
ByLayer
 10
6.8949999999999996
 20
15.7780000000000005
 30
0.0
 11
6.9699999999999998
 21
15.8970000000000002
 31
0.0
  0
LINE
  5
2E6
100
AcDbEntity
100
AcDbLine
  8
0
 62
256
370
-1
  6
ByLayer
 10
6.9699999999999998
 20
15.8970000000000002
 30
0.0
 11
7.0590000000000002
 21
16.004999999999999
 31
0.0
  0
LINE
  5
2E7
100
AcDbEntity
100
AcDbLine
  8
0
 62
256
370
-1
  6
ByLayer
 10
7.0590000000000002
 20
16.004999999999999
 30
0.0
 11
7.1619999999999999
 21
16.1009999999999991
 31
0.0
  0
LINE
  5
2E8
100
AcDbEntity
100
AcDbLine
  8
0
 62
256
370
-1
  6
ByLayer
 10
7.1619999999999999
 20
16.1009999999999991
 30
0.0
 11
7.2750000000000004
 21
16.1840000000000011
 31
0.0
  0
LINE
  5
2E9
100
AcDbEntity
100
AcDbLine
  8
0
 62
256
370
-1
  6
ByLayer
 10
7.2750000000000004
 20
16.1840000000000011
 30
0.0
 11
7.3979999999999997
 21
16.2510000000000012
 31
0.0
  0
LINE
  5
2EA
100
AcDbEntity
100
AcDbLine
  8
0
 62
256
370
-1
  6
ByLayer
 10
7.3979999999999997
 20
16.2510000000000012
 30
0.0
 11
7.5289999999999999
 21
16.3030000000000008
 31
0.0
  0
LINE
  5
2EB
100
AcDbEntity
100
AcDbLine
  8
0
 62
256
370
-1
  6
ByLayer
 10
7.5289999999999999
 20
16.3030000000000008
 30
0.0
 11
7.665
 21
16.338000000000001
 31
0.0
  0
LINE
  5
2EC
100
AcDbEntity
100
AcDbLine
  8
0
 62
256
370
-1
  6
ByLayer
 10
7.665
 20
16.338000000000001
 30
0.0
 11
7.8040000000000003
 21
16.3550000000000004
 31
0.0
  0
LINE
  5
2ED
100
AcDbEntity
100
AcDbLine
  8
0
 62
256
370
-1
  6
ByLayer
 10
7.8040000000000003
 20
16.3550000000000004
 30
0.0
 11
7.944
 21
16.3550000000000004
 31
0.0
  0
LINE
  5
2EE
100
AcDbEntity
100
AcDbLine
  8
0
 62
256
370
-1
  6
ByLayer
 10
7.944
 20
16.3550000000000004
 30
0.0
 11
8.0830000000000002
 21
16.338000000000001
 31
0.0
  0
LINE
  5
2EF
100
AcDbEntity
100
AcDbLine
  8
0
 62
256
370
-1
  6
ByLayer
 10
8.0830000000000002
 20
16.338000000000001
 30
0.0
 11
8.2189999999999994
 21
16.3030000000000008
 31
0.0
  0
LINE
  5
2F0
100
AcDbEntity
100
AcDbLine
  8
0
 62
256
370
-1
  6
ByLayer
 10
8.2189999999999994
 20
16.3030000000000008
 30
0.0
 11
8.3499999999999996
 21
16.2510000000000012
 31
0.0
  0
LINE
  5
2F1
100
AcDbEntity
100
AcDbLine
  8
0
 62
256
370
-1
  6
ByLayer
 10
8.3499999999999996
 20
16.2510000000000012
 30
0.0
 11
8.4730000000000008
 21
16.1840000000000011
 31
0.0
  0
LINE
  5
2F2
100
AcDbEntity
100
AcDbLine
  8
0
 62
256
370
-1
  6
ByLayer
 10
8.4730000000000008
 20
16.1840000000000011
 30
0.0
 11
8.5860000000000003
 21
16.1009999999999991
 31
0.0
  0
LINE
  5
2F3
100
AcDbEntity
100
AcDbLine
  8
0
 62
256
370
-1
  6
ByLayer
 10
8.5860000000000003
 20
16.1009999999999991
 30
0.0
 11
8.6890000000000001
 21
16.004999999999999
 31
0.0
  0
LINE
  5
2F4
100
AcDbEntity
100
AcDbLine
  8
0
 62
256
370
-1
  6
ByLayer
 10
8.6890000000000001
 20
16.004999999999999
 30
0.0
 11
8.7780000000000005
 21
15.8970000000000002
 31
0.0
  0
LINE
  5
2F5
100
AcDbEntity
100
AcDbLine
  8
0
 62
256
370
-1
  6
ByLayer
 10
8.7780000000000005
 20
15.8970000000000002
 30
0.0
 11
8.8529999999999998
 21
15.7780000000000005
 31
0.0
  0
LINE
  5
2F6
100
AcDbEntity
100
AcDbLine
  8
0
 62
256
370
-1
  6
ByLayer
 10
8.8529999999999998
 20
15.7780000000000005
 30
0.0
 11
8.9130000000000003
 21
15.6509999999999998
 31
0.0
  0
LINE
  5
2F7
100
AcDbEntity
100
AcDbLine
  8
0
 62
256
370
-1
  6
ByLayer
 10
8.9130000000000003
 20
15.6509999999999998
 30
0.0
 11
8.9559999999999995
 21
15.5180000000000007
 31
0.0
  0
LINE
  5
2F8
100
AcDbEntity
100
AcDbLine
  8
0
 62
256
370
-1
  6
ByLayer
 10
8.9559999999999995
 20
15.5180000000000007
 30
0.0
 11
8.9830000000000005
 21
15.3800000000000008
 31
0.0
  0
LINE
  5
2F9
100
AcDbEntity
100
AcDbLine
  8
0
 62
256
370
-1
  6
ByLayer
 10
8.9830000000000005
 20
15.3800000000000008
 30
0.0
 11
8.9920000000000009
 21
15.2400000000000002
 31
0.0
  0
LINE
  5
2FA
100
AcDbEntity
100
AcDbLine
  8
0
 62
256
370
-1
  6
ByLayer
 10
8.9920000000000009
 20
15.2400000000000002
 30
0.0
 11
8.9830000000000005
 21
15.0999999999999996
 31
0.0
  0
LINE
  5
2FB
100
AcDbEntity
100
AcDbLine
  8
0
 62
256
370
-1
  6
ByLayer
 10
8.9830000000000005
 20
15.0999999999999996
 30
0.0
 11
8.9559999999999995
 21
14.9619999999999997
 31
0.0
  0
LINE
  5
2FC
100
AcDbEntity
100
AcDbLine
  8
0
 62
256
370
-1
  6
ByLayer
 10
8.9559999999999995
 20
14.9619999999999997
 30
0.0
 11
8.9130000000000003
 21
14.8290000000000006
 31
0.0
  0
LINE
  5
2FD
100
AcDbEntity
100
AcDbLine
  8
0
 62
256
370
-1
  6
ByLayer
 10
8.9130000000000003
 20
14.8290000000000006
 30
0.0
 11
8.8529999999999998
 21
14.702
 31
0.0
  0
LINE
  5
2FE
100
AcDbEntity
100
AcDbLine
  8
0
 62
256
370
-1
  6
ByLayer
 10
8.8529999999999998
 20
14.702
 30
0.0
 11
8.7780000000000005
 21
14.5830000000000002
 31
0.0
  0
LINE
  5
2FF
100
AcDbEntity
100
AcDbLine
  8
0
 62
256
370
-1
  6
ByLayer
 10
8.7780000000000005
 20
14.5830000000000002
 30
0.0
 11
8.6890000000000001
 21
14.4749999999999996
 31
0.0
  0
LINE
  5
300
100
AcDbEntity
100
AcDbLine
  8
0
 62
256
370
-1
  6
ByLayer
 10
8.6890000000000001
 20
14.4749999999999996
 30
0.0
 11
8.5860000000000003
 21
14.3789999999999996
 31
0.0
  0
LINE
  5
301
100
AcDbEntity
100
AcDbLine
  8
0
 62
256
370
-1
  6
ByLayer
 10
8.5860000000000003
 20
14.3789999999999996
 30
0.0
 11
8.4730000000000008
 21
14.2959999999999994
 31
0.0
  0
LINE
  5
302
100
AcDbEntity
100
AcDbLine
  8
0
 62
256
370
-1
  6
ByLayer
 10
8.4730000000000008
 20
14.2959999999999994
 30
0.0
 11
8.3499999999999996
 21
14.2289999999999992
 31
0.0
  0
LINE
  5
303
100
AcDbEntity
100
AcDbLine
  8
0
 62
256
370
-1
  6
ByLayer
 10
8.3499999999999996
 20
14.2289999999999992
 30
0.0
 11
8.2189999999999994
 21
14.1769999999999996
 31
0.0
  0
LINE
  5
304
100
AcDbEntity
100
AcDbLine
  8
0
 62
256
370
-1
  6
ByLayer
 10
8.2189999999999994
 20
14.1769999999999996
 30
0.0
 11
8.0830000000000002
 21
14.1419999999999995
 31
0.0
  0
LINE
  5
305
100
AcDbEntity
100
AcDbLine
  8
0
 62
256
370
-1
  6
ByLayer
 10
8.0830000000000002
 20
14.1419999999999995
 30
0.0
 11
7.944
 21
14.125
 31
0.0
  0
LINE
  5
306
100
AcDbEntity
100
AcDbLine
  8
0
 62
256
370
-1
  6
ByLayer
 10
7.944
 20
14.125
 30
0.0
 11
7.8040000000000003
 21
14.125
 31
0.0
  0
LINE
  5
307
100
AcDbEntity
100
AcDbLine
  8
0
 62
256
370
-1
  6
ByLayer
 10
7.8040000000000003
 20
14.125
 30
0.0
 11
7.665
 21
14.1419999999999995
 31
0.0
  0
LINE
  5
308
100
AcDbEntity
100
AcDbLine
  8
0
 62
256
370
-1
  6
ByLayer
 10
7.665
 20
14.1419999999999995
 30
0.0
 11
7.5289999999999999
 21
14.1769999999999996
 31
0.0
  0
LINE
  5
309
100
AcDbEntity
100
AcDbLine
  8
0
 62
256
370
-1
  6
ByLayer
 10
7.5289999999999999
 20
14.1769999999999996
 30
0.0
 11
7.3979999999999997
 21
14.2289999999999992
 31
0.0
  0
LINE
  5
30A
100
AcDbEntity
100
AcDbLine
  8
0
 62
256
370
-1
  6
ByLayer
 10
7.3979999999999997
 20
14.2289999999999992
 30
0.0
 11
7.2750000000000004
 21
14.2959999999999994
 31
0.0
  0
LINE
  5
30B
100
AcDbEntity
100
AcDbLine
  8
0
 62
256
370
-1
  6
ByLayer
 10
7.2750000000000004
 20
14.2959999999999994
 30
0.0
 11
7.1619999999999999
 21
14.3789999999999996
 31
0.0
  0
LINE
  5
30C
100
AcDbEntity
100
AcDbLine
  8
0
 62
256
370
-1
  6
ByLayer
 10
7.1619999999999999
 20
14.3789999999999996
 30
0.0
 11
7.0590000000000002
 21
14.4749999999999996
 31
0.0
  0
LINE
  5
30D
100
AcDbEntity
100
AcDbLine
  8
0
 62
256
370
-1
  6
ByLayer
 10
7.0590000000000002
 20
14.4749999999999996
 30
0.0
 11
6.9699999999999998
 21
14.5830000000000002
 31
0.0
  0
LINE
  5
30E
100
AcDbEntity
100
AcDbLine
  8
0
 62
256
370
-1
  6
ByLayer
 10
6.9699999999999998
 20
14.5830000000000002
 30
0.0
 11
6.8949999999999996
 21
14.702
 31
0.0
  0
LINE
  5
30F
100
AcDbEntity
100
AcDbLine
  8
0
 62
256
370
-1
  6
ByLayer
 10
6.8949999999999996
 20
14.702
 30
0.0
 11
6.835
 21
14.8290000000000006
 31
0.0
  0
LINE
  5
310
100
AcDbEntity
100
AcDbLine
  8
0
 62
256
370
-1
  6
ByLayer
 10
6.835
 20
14.8290000000000006
 30
0.0
 11
6.7919999999999998
 21
14.9619999999999997
 31
0.0
  0
LINE
  5
311
100
AcDbEntity
100
AcDbLine
  8
0
 62
256
370
-1
  6
ByLayer
 10
6.7919999999999998
 20
14.9619999999999997
 30
0.0
 11
6.7649999999999997
 21
15.0999999999999996
 31
0.0
  0
LINE
  5
312
100
AcDbEntity
100
AcDbLine
  8
0
 62
256
370
-1
  6
ByLayer
 10
6.7649999999999997
 20
15.0999999999999996
 30
0.0
 11
6.7560000000000002
 21
15.2400000000000002
 31
0.0
  0
LINE
  5
313
100
AcDbEntity
100
AcDbLine
  8
0
 62
256
370
-1
  6
ByLayer
 10
11.6839999999999993
 20
-16.8279999999999994
 30
0.0
 11
11.6839999999999993
 21
16.8279999999999994
 31
0.0
  0
LINE
  5
314
100
AcDbEntity
100
AcDbLine
  8
0
 62
256
370
-1
  6
ByLayer
 10
11.6839999999999993
 20
16.8279999999999994
 30
0.0
 11
24.3840000000000003
 21
16.8279999999999994
 31
0.0
  0
LINE
  5
315
100
AcDbEntity
100
AcDbLine
  8
0
 62
256
370
-1
  6
ByLayer
 10
24.3840000000000003
 20
16.8279999999999994
 30
0.0
 11
24.3840000000000003
 21
-16.8279999999999994
 31
0.0
  0
LINE
  5
316
100
AcDbEntity
100
AcDbLine
  8
0
 62
256
370
-1
  6
ByLayer
 10
24.3840000000000003
 20
-16.8279999999999994
 30
0.0
 11
11.6839999999999993
 21
-16.8279999999999994
 31
0.0
  0
LINE
  5
317
100
AcDbEntity
100
AcDbLine
  8
0
 62
256
370
-1
  6
ByLayer
 10
27.0760000000000005
 20
-15.2400000000000002
 30
0.0
 11
27.0850000000000009
 21
-15.0999999999999996
 31
0.0
  0
LINE
  5
318
100
AcDbEntity
100
AcDbLine
  8
0
 62
256
370
-1
  6
ByLayer
 10
27.0850000000000009
 20
-15.0999999999999996
 30
0.0
 11
27.1119999999999983
 21
-14.9619999999999997
 31
0.0
  0
LINE
  5
319
100
AcDbEntity
100
AcDbLine
  8
0
 62
256
370
-1
  6
ByLayer
 10
27.1119999999999983
 20
-14.9619999999999997
 30
0.0
 11
27.1550000000000011
 21
-14.8290000000000006
 31
0.0
  0
LINE
  5
31A
100
AcDbEntity
100
AcDbLine
  8
0
 62
256
370
-1
  6
ByLayer
 10
27.1550000000000011
 20
-14.8290000000000006
 30
0.0
 11
27.2149999999999999
 21
-14.702
 31
0.0
  0
LINE
  5
31B
100
AcDbEntity
100
AcDbLine
  8
0
 62
256
370
-1
  6
ByLayer
 10
27.2149999999999999
 20
-14.702
 30
0.0
 11
27.2899999999999991
 21
-14.5830000000000002
 31
0.0
  0
LINE
  5
31C
100
AcDbEntity
100
AcDbLine
  8
0
 62
256
370
-1
  6
ByLayer
 10
27.2899999999999991
 20
-14.5830000000000002
 30
0.0
 11
27.3790000000000013
 21
-14.4749999999999996
 31
0.0
  0
LINE
  5
31D
100
AcDbEntity
100
AcDbLine
  8
0
 62
256
370
-1
  6
ByLayer
 10
27.3790000000000013
 20
-14.4749999999999996
 30
0.0
 11
27.4819999999999993
 21
-14.3789999999999996
 31
0.0
  0
LINE
  5
31E
100
AcDbEntity
100
AcDbLine
  8
0
 62
256
370
-1
  6
ByLayer
 10
27.4819999999999993
 20
-14.3789999999999996
 30
0.0
 11
27.5949999999999989
 21
-14.2959999999999994
 31
0.0
  0
LINE
  5
31F
100
AcDbEntity
100
AcDbLine
  8
0
 62
256
370
-1
  6
ByLayer
 10
27.5949999999999989
 20
-14.2959999999999994
 30
0.0
 11
27.718
 21
-14.2289999999999992
 31
0.0
  0
LINE
  5
320
100
AcDbEntity
100
AcDbLine
  8
0
 62
256
370
-1
  6
ByLayer
 10
27.718
 20
-14.2289999999999992
 30
0.0
 11
27.8490000000000002
 21
-14.1769999999999996
 31
0.0
  0
LINE
  5
321
100
AcDbEntity
100
AcDbLine
  8
0
 62
256
370
-1
  6
ByLayer
 10
27.8490000000000002
 20
-14.1769999999999996
 30
0.0
 11
27.9849999999999994
 21
-14.1419999999999995
 31
0.0
  0
LINE
  5
322
100
AcDbEntity
100
AcDbLine
  8
0
 62
256
370
-1
  6
ByLayer
 10
27.9849999999999994
 20
-14.1419999999999995
 30
0.0
 11
28.1239999999999988
 21
-14.125
 31
0.0
  0
LINE
  5
323
100
AcDbEntity
100
AcDbLine
  8
0
 62
256
370
-1
  6
ByLayer
 10
28.1239999999999988
 20
-14.125
 30
0.0
 11
28.2639999999999993
 21
-14.125
 31
0.0
  0
LINE
  5
324
100
AcDbEntity
100
AcDbLine
  8
0
 62
256
370
-1
  6
ByLayer
 10
28.2639999999999993
 20
-14.125
 30
0.0
 11
28.4029999999999987
 21
-14.1419999999999995
 31
0.0
  0
LINE
  5
325
100
AcDbEntity
100
AcDbLine
  8
0
 62
256
370
-1
  6
ByLayer
 10
28.4029999999999987
 20
-14.1419999999999995
 30
0.0
 11
28.5390000000000015
 21
-14.1769999999999996
 31
0.0
  0
LINE
  5
326
100
AcDbEntity
100
AcDbLine
  8
0
 62
256
370
-1
  6
ByLayer
 10
28.5390000000000015
 20
-14.1769999999999996
 30
0.0
 11
28.6700000000000017
 21
-14.2289999999999992
 31
0.0
  0
LINE
  5
327
100
AcDbEntity
100
AcDbLine
  8
0
 62
256
370
-1
  6
ByLayer
 10
28.6700000000000017
 20
-14.2289999999999992
 30
0.0
 11
28.7929999999999993
 21
-14.2959999999999994
 31
0.0
  0
LINE
  5
328
100
AcDbEntity
100
AcDbLine
  8
0
 62
256
370
-1
  6
ByLayer
 10
28.7929999999999993
 20
-14.2959999999999994
 30
0.0
 11
28.9059999999999988
 21
-14.3789999999999996
 31
0.0
  0
LINE
  5
329
100
AcDbEntity
100
AcDbLine
  8
0
 62
256
370
-1
  6
ByLayer
 10
28.9059999999999988
 20
-14.3789999999999996
 30
0.0
 11
29.0090000000000003
 21
-14.4749999999999996
 31
0.0
  0
LINE
  5
32A
100
AcDbEntity
100
AcDbLine
  8
0
 62
256
370
-1
  6
ByLayer
 10
29.0090000000000003
 20
-14.4749999999999996
 30
0.0
 11
29.097999999999999
 21
-14.5830000000000002
 31
0.0
  0
LINE
  5
32B
100
AcDbEntity
100
AcDbLine
  8
0
 62
256
370
-1
  6
ByLayer
 10
29.097999999999999
 20
-14.5830000000000002
 30
0.0
 11
29.1729999999999983
 21
-14.702
 31
0.0
  0
LINE
  5
32C
100
AcDbEntity
100
AcDbLine
  8
0
 62
256
370
-1
  6
ByLayer
 10
29.1729999999999983
 20
-14.702
 30
0.0
 11
29.2330000000000005
 21
-14.8290000000000006
 31
0.0
  0
LINE
  5
32D
100
AcDbEntity
100
AcDbLine
  8
0
 62
256
370
-1
  6
ByLayer
 10
29.2330000000000005
 20
-14.8290000000000006
 30
0.0
 11
29.2759999999999998
 21
-14.9619999999999997
 31
0.0
  0
LINE
  5
32E
100
AcDbEntity
100
AcDbLine
  8
0
 62
256
370
-1
  6
ByLayer
 10
29.2759999999999998
 20
-14.9619999999999997
 30
0.0
 11
29.3030000000000008
 21
-15.0999999999999996
 31
0.0
  0
LINE
  5
32F
100
AcDbEntity
100
AcDbLine
  8
0
 62
256
370
-1
  6
ByLayer
 10
29.3030000000000008
 20
-15.0999999999999996
 30
0.0
 11
29.3120000000000012
 21
-15.2400000000000002
 31
0.0
  0
LINE
  5
330
100
AcDbEntity
100
AcDbLine
  8
0
 62
256
370
-1
  6
ByLayer
 10
29.3120000000000012
 20
-15.2400000000000002
 30
0.0
 11
29.3030000000000008
 21
-15.3800000000000008
 31
0.0
  0
LINE
  5
331
100
AcDbEntity
100
AcDbLine
  8
0
 62
256
370
-1
  6
ByLayer
 10
29.3030000000000008
 20
-15.3800000000000008
 30
0.0
 11
29.2759999999999998
 21
-15.5180000000000007
 31
0.0
  0
LINE
  5
332
100
AcDbEntity
100
AcDbLine
  8
0
 62
256
370
-1
  6
ByLayer
 10
29.2759999999999998
 20
-15.5180000000000007
 30
0.0
 11
29.2330000000000005
 21
-15.6509999999999998
 31
0.0
  0
LINE
  5
333
100
AcDbEntity
100
AcDbLine
  8
0
 62
256
370
-1
  6
ByLayer
 10
29.2330000000000005
 20
-15.6509999999999998
 30
0.0
 11
29.1729999999999983
 21
-15.7780000000000005
 31
0.0
  0
LINE
  5
334
100
AcDbEntity
100
AcDbLine
  8
0
 62
256
370
-1
  6
ByLayer
 10
29.1729999999999983
 20
-15.7780000000000005
 30
0.0
 11
29.097999999999999
 21
-15.8970000000000002
 31
0.0
  0
LINE
  5
335
100
AcDbEntity
100
AcDbLine
  8
0
 62
256
370
-1
  6
ByLayer
 10
29.097999999999999
 20
-15.8970000000000002
 30
0.0
 11
29.0090000000000003
 21
-16.004999999999999
 31
0.0
  0
LINE
  5
336
100
AcDbEntity
100
AcDbLine
  8
0
 62
256
370
-1
  6
ByLayer
 10
29.0090000000000003
 20
-16.004999999999999
 30
0.0
 11
28.9059999999999988
 21
-16.1009999999999991
 31
0.0
  0
LINE
  5
337
100
AcDbEntity
100
AcDbLine
  8
0
 62
256
370
-1
  6
ByLayer
 10
28.9059999999999988
 20
-16.1009999999999991
 30
0.0
 11
28.7929999999999993
 21
-16.1840000000000011
 31
0.0
  0
LINE
  5
338
100
AcDbEntity
100
AcDbLine
  8
0
 62
256
370
-1
  6
ByLayer
 10
28.7929999999999993
 20
-16.1840000000000011
 30
0.0
 11
28.6700000000000017
 21
-16.2510000000000012
 31
0.0
  0
LINE
  5
339
100
AcDbEntity
100
AcDbLine
  8
0
 62
256
370
-1
  6
ByLayer
 10
28.6700000000000017
 20
-16.2510000000000012
 30
0.0
 11
28.5390000000000015
 21
-16.3030000000000008
 31
0.0
  0
LINE
  5
33A
100
AcDbEntity
100
AcDbLine
  8
0
 62
256
370
-1
  6
ByLayer
 10
28.5390000000000015
 20
-16.3030000000000008
 30
0.0
 11
28.4029999999999987
 21
-16.338000000000001
 31
0.0
  0
LINE
  5
33B
100
AcDbEntity
100
AcDbLine
  8
0
 62
256
370
-1
  6
ByLayer
 10
28.4029999999999987
 20
-16.338000000000001
 30
0.0
 11
28.2639999999999993
 21
-16.3550000000000004
 31
0.0
  0
LINE
  5
33C
100
AcDbEntity
100
AcDbLine
  8
0
 62
256
370
-1
  6
ByLayer
 10
28.2639999999999993
 20
-16.3550000000000004
 30
0.0
 11
28.1239999999999988
 21
-16.3550000000000004
 31
0.0
  0
LINE
  5
33D
100
AcDbEntity
100
AcDbLine
  8
0
 62
256
370
-1
  6
ByLayer
 10
28.1239999999999988
 20
-16.3550000000000004
 30
0.0
 11
27.9849999999999994
 21
-16.338000000000001
 31
0.0
  0
LINE
  5
33E
100
AcDbEntity
100
AcDbLine
  8
0
 62
256
370
-1
  6
ByLayer
 10
27.9849999999999994
 20
-16.338000000000001
 30
0.0
 11
27.8490000000000002
 21
-16.3030000000000008
 31
0.0
  0
LINE
  5
33F
100
AcDbEntity
100
AcDbLine
  8
0
 62
256
370
-1
  6
ByLayer
 10
27.8490000000000002
 20
-16.3030000000000008
 30
0.0
 11
27.718
 21
-16.2510000000000012
 31
0.0
  0
LINE
  5
340
100
AcDbEntity
100
AcDbLine
  8
0
 62
256
370
-1
  6
ByLayer
 10
27.718
 20
-16.2510000000000012
 30
0.0
 11
27.5949999999999989
 21
-16.1840000000000011
 31
0.0
  0
LINE
  5
341
100
AcDbEntity
100
AcDbLine
  8
0
 62
256
370
-1
  6
ByLayer
 10
27.5949999999999989
 20
-16.1840000000000011
 30
0.0
 11
27.4819999999999993
 21
-16.1009999999999991
 31
0.0
  0
LINE
  5
342
100
AcDbEntity
100
AcDbLine
  8
0
 62
256
370
-1
  6
ByLayer
 10
27.4819999999999993
 20
-16.1009999999999991
 30
0.0
 11
27.3790000000000013
 21
-16.004999999999999
 31
0.0
  0
LINE
  5
343
100
AcDbEntity
100
AcDbLine
  8
0
 62
256
370
-1
  6
ByLayer
 10
27.3790000000000013
 20
-16.004999999999999
 30
0.0
 11
27.2899999999999991
 21
-15.8970000000000002
 31
0.0
  0
LINE
  5
344
100
AcDbEntity
100
AcDbLine
  8
0
 62
256
370
-1
  6
ByLayer
 10
27.2899999999999991
 20
-15.8970000000000002
 30
0.0
 11
27.2149999999999999
 21
-15.7780000000000005
 31
0.0
  0
LINE
  5
345
100
AcDbEntity
100
AcDbLine
  8
0
 62
256
370
-1
  6
ByLayer
 10
27.2149999999999999
 20
-15.7780000000000005
 30
0.0
 11
27.1550000000000011
 21
-15.6509999999999998
 31
0.0
  0
LINE
  5
346
100
AcDbEntity
100
AcDbLine
  8
0
 62
256
370
-1
  6
ByLayer
 10
27.1550000000000011
 20
-15.6509999999999998
 30
0.0
 11
27.1119999999999983
 21
-15.5180000000000007
 31
0.0
  0
LINE
  5
347
100
AcDbEntity
100
AcDbLine
  8
0
 62
256
370
-1
  6
ByLayer
 10
27.1119999999999983
 20
-15.5180000000000007
 30
0.0
 11
27.0850000000000009
 21
-15.3800000000000008
 31
0.0
  0
LINE
  5
348
100
AcDbEntity
100
AcDbLine
  8
0
 62
256
370
-1
  6
ByLayer
 10
27.0850000000000009
 20
-15.3800000000000008
 30
0.0
 11
27.0760000000000005
 21
-15.2400000000000002
 31
0.0
  0
LINE
  5
349
100
AcDbEntity
100
AcDbLine
  8
0
 62
256
370
-1
  6
ByLayer
 10
27.0760000000000005
 20
15.2400000000000002
 30
0.0
 11
27.0850000000000009
 21
15.3800000000000008
 31
0.0
  0
LINE
  5
34A
100
AcDbEntity
100
AcDbLine
  8
0
 62
256
370
-1
  6
ByLayer
 10
27.0850000000000009
 20
15.3800000000000008
 30
0.0
 11
27.1119999999999983
 21
15.5180000000000007
 31
0.0
  0
LINE
  5
34B
100
AcDbEntity
100
AcDbLine
  8
0
 62
256
370
-1
  6
ByLayer
 10
27.1119999999999983
 20
15.5180000000000007
 30
0.0
 11
27.1550000000000011
 21
15.6509999999999998
 31
0.0
  0
LINE
  5
34C
100
AcDbEntity
100
AcDbLine
  8
0
 62
256
370
-1
  6
ByLayer
 10
27.1550000000000011
 20
15.6509999999999998
 30
0.0
 11
27.2149999999999999
 21
15.7780000000000005
 31
0.0
  0
LINE
  5
34D
100
AcDbEntity
100
AcDbLine
  8
0
 62
256
370
-1
  6
ByLayer
 10
27.2149999999999999
 20
15.7780000000000005
 30
0.0
 11
27.2899999999999991
 21
15.8970000000000002
 31
0.0
  0
LINE
  5
34E
100
AcDbEntity
100
AcDbLine
  8
0
 62
256
370
-1
  6
ByLayer
 10
27.2899999999999991
 20
15.8970000000000002
 30
0.0
 11
27.3790000000000013
 21
16.004999999999999
 31
0.0
  0
LINE
  5
34F
100
AcDbEntity
100
AcDbLine
  8
0
 62
256
370
-1
  6
ByLayer
 10
27.3790000000000013
 20
16.004999999999999
 30
0.0
 11
27.4819999999999993
 21
16.1009999999999991
 31
0.0
  0
LINE
  5
350
100
AcDbEntity
100
AcDbLine
  8
0
 62
256
370
-1
  6
ByLayer
 10
27.4819999999999993
 20
16.1009999999999991
 30
0.0
 11
27.5949999999999989
 21
16.1840000000000011
 31
0.0
  0
LINE
  5
351
100
AcDbEntity
100
AcDbLine
  8
0
 62
256
370
-1
  6
ByLayer
 10
27.5949999999999989
 20
16.1840000000000011
 30
0.0
 11
27.718
 21
16.2510000000000012
 31
0.0
  0
LINE
  5
352
100
AcDbEntity
100
AcDbLine
  8
0
 62
256
370
-1
  6
ByLayer
 10
27.718
 20
16.2510000000000012
 30
0.0
 11
27.8490000000000002
 21
16.3030000000000008
 31
0.0
  0
LINE
  5
353
100
AcDbEntity
100
AcDbLine
  8
0
 62
256
370
-1
  6
ByLayer
 10
27.8490000000000002
 20
16.3030000000000008
 30
0.0
 11
27.9849999999999994
 21
16.338000000000001
 31
0.0
  0
LINE
  5
354
100
AcDbEntity
100
AcDbLine
  8
0
 62
256
370
-1
  6
ByLayer
 10
27.9849999999999994
 20
16.338000000000001
 30
0.0
 11
28.1239999999999988
 21
16.3550000000000004
 31
0.0
  0
LINE
  5
355
100
AcDbEntity
100
AcDbLine
  8
0
 62
256
370
-1
  6
ByLayer
 10
28.1239999999999988
 20
16.3550000000000004
 30
0.0
 11
28.2639999999999993
 21
16.3550000000000004
 31
0.0
  0
LINE
  5
356
100
AcDbEntity
100
AcDbLine
  8
0
 62
256
370
-1
  6
ByLayer
 10
28.2639999999999993
 20
16.3550000000000004
 30
0.0
 11
28.4029999999999987
 21
16.338000000000001
 31
0.0
  0
LINE
  5
357
100
AcDbEntity
100
AcDbLine
  8
0
 62
256
370
-1
  6
ByLayer
 10
28.4029999999999987
 20
16.338000000000001
 30
0.0
 11
28.5390000000000015
 21
16.3030000000000008
 31
0.0
  0
LINE
  5
358
100
AcDbEntity
100
AcDbLine
  8
0
 62
256
370
-1
  6
ByLayer
 10
28.5390000000000015
 20
16.3030000000000008
 30
0.0
 11
28.6700000000000017
 21
16.2510000000000012
 31
0.0
  0
LINE
  5
359
100
AcDbEntity
100
AcDbLine
  8
0
 62
256
370
-1
  6
ByLayer
 10
28.6700000000000017
 20
16.2510000000000012
 30
0.0
 11
28.7929999999999993
 21
16.1840000000000011
 31
0.0
  0
LINE
  5
35A
100
AcDbEntity
100
AcDbLine
  8
0
 62
256
370
-1
  6
ByLayer
 10
28.7929999999999993
 20
16.1840000000000011
 30
0.0
 11
28.9059999999999988
 21
16.1009999999999991
 31
0.0
  0
LINE
  5
35B
100
AcDbEntity
100
AcDbLine
  8
0
 62
256
370
-1
  6
ByLayer
 10
28.9059999999999988
 20
16.1009999999999991
 30
0.0
 11
29.0090000000000003
 21
16.004999999999999
 31
0.0
  0
LINE
  5
35C
100
AcDbEntity
100
AcDbLine
  8
0
 62
256
370
-1
  6
ByLayer
 10
29.0090000000000003
 20
16.004999999999999
 30
0.0
 11
29.097999999999999
 21
15.8970000000000002
 31
0.0
  0
LINE
  5
35D
100
AcDbEntity
100
AcDbLine
  8
0
 62
256
370
-1
  6
ByLayer
 10
29.097999999999999
 20
15.8970000000000002
 30
0.0
 11
29.1729999999999983
 21
15.7780000000000005
 31
0.0
  0
LINE
  5
35E
100
AcDbEntity
100
AcDbLine
  8
0
 62
256
370
-1
  6
ByLayer
 10
29.1729999999999983
 20
15.7780000000000005
 30
0.0
 11
29.2330000000000005
 21
15.6509999999999998
 31
0.0
  0
LINE
  5
35F
100
AcDbEntity
100
AcDbLine
  8
0
 62
256
370
-1
  6
ByLayer
 10
29.2330000000000005
 20
15.6509999999999998
 30
0.0
 11
29.2759999999999998
 21
15.5180000000000007
 31
0.0
  0
LINE
  5
360
100
AcDbEntity
100
AcDbLine
  8
0
 62
256
370
-1
  6
ByLayer
 10
29.2759999999999998
 20
15.5180000000000007
 30
0.0
 11
29.3030000000000008
 21
15.3800000000000008
 31
0.0
  0
LINE
  5
361
100
AcDbEntity
100
AcDbLine
  8
0
 62
256
370
-1
  6
ByLayer
 10
29.3030000000000008
 20
15.3800000000000008
 30
0.0
 11
29.3120000000000012
 21
15.2400000000000002
 31
0.0
  0
LINE
  5
362
100
AcDbEntity
100
AcDbLine
  8
0
 62
256
370
-1
  6
ByLayer
 10
29.3120000000000012
 20
15.2400000000000002
 30
0.0
 11
29.3030000000000008
 21
15.0999999999999996
 31
0.0
  0
LINE
  5
363
100
AcDbEntity
100
AcDbLine
  8
0
 62
256
370
-1
  6
ByLayer
 10
29.3030000000000008
 20
15.0999999999999996
 30
0.0
 11
29.2759999999999998
 21
14.9619999999999997
 31
0.0
  0
LINE
  5
364
100
AcDbEntity
100
AcDbLine
  8
0
 62
256
370
-1
  6
ByLayer
 10
29.2759999999999998
 20
14.9619999999999997
 30
0.0
 11
29.2330000000000005
 21
14.8290000000000006
 31
0.0
  0
LINE
  5
365
100
AcDbEntity
100
AcDbLine
  8
0
 62
256
370
-1
  6
ByLayer
 10
29.2330000000000005
 20
14.8290000000000006
 30
0.0
 11
29.1729999999999983
 21
14.702
 31
0.0
  0
LINE
  5
366
100
AcDbEntity
100
AcDbLine
  8
0
 62
256
370
-1
  6
ByLayer
 10
29.1729999999999983
 20
14.702
 30
0.0
 11
29.097999999999999
 21
14.5830000000000002
 31
0.0
  0
LINE
  5
367
100
AcDbEntity
100
AcDbLine
  8
0
 62
256
370
-1
  6
ByLayer
 10
29.097999999999999
 20
14.5830000000000002
 30
0.0
 11
29.0090000000000003
 21
14.4749999999999996
 31
0.0
  0
LINE
  5
368
100
AcDbEntity
100
AcDbLine
  8
0
 62
256
370
-1
  6
ByLayer
 10
29.0090000000000003
 20
14.4749999999999996
 30
0.0
 11
28.9059999999999988
 21
14.3789999999999996
 31
0.0
  0
LINE
  5
369
100
AcDbEntity
100
AcDbLine
  8
0
 62
256
370
-1
  6
ByLayer
 10
28.9059999999999988
 20
14.3789999999999996
 30
0.0
 11
28.7929999999999993
 21
14.2959999999999994
 31
0.0
  0
LINE
  5
36A
100
AcDbEntity
100
AcDbLine
  8
0
 62
256
370
-1
  6
ByLayer
 10
28.7929999999999993
 20
14.2959999999999994
 30
0.0
 11
28.6700000000000017
 21
14.2289999999999992
 31
0.0
  0
LINE
  5
36B
100
AcDbEntity
100
AcDbLine
  8
0
 62
256
370
-1
  6
ByLayer
 10
28.6700000000000017
 20
14.2289999999999992
 30
0.0
 11
28.5390000000000015
 21
14.1769999999999996
 31
0.0
  0
LINE
  5
36C
100
AcDbEntity
100
AcDbLine
  8
0
 62
256
370
-1
  6
ByLayer
 10
28.5390000000000015
 20
14.1769999999999996
 30
0.0
 11
28.4029999999999987
 21
14.1419999999999995
 31
0.0
  0
LINE
  5
36D
100
AcDbEntity
100
AcDbLine
  8
0
 62
256
370
-1
  6
ByLayer
 10
28.4029999999999987
 20
14.1419999999999995
 30
0.0
 11
28.2639999999999993
 21
14.125
 31
0.0
  0
LINE
  5
36E
100
AcDbEntity
100
AcDbLine
  8
0
 62
256
370
-1
  6
ByLayer
 10
28.2639999999999993
 20
14.125
 30
0.0
 11
28.1239999999999988
 21
14.125
 31
0.0
  0
LINE
  5
36F
100
AcDbEntity
100
AcDbLine
  8
0
 62
256
370
-1
  6
ByLayer
 10
28.1239999999999988
 20
14.125
 30
0.0
 11
27.9849999999999994
 21
14.1419999999999995
 31
0.0
  0
LINE
  5
370
100
AcDbEntity
100
AcDbLine
  8
0
 62
256
370
-1
  6
ByLayer
 10
27.9849999999999994
 20
14.1419999999999995
 30
0.0
 11
27.8490000000000002
 21
14.1769999999999996
 31
0.0
  0
LINE
  5
371
100
AcDbEntity
100
AcDbLine
  8
0
 62
256
370
-1
  6
ByLayer
 10
27.8490000000000002
 20
14.1769999999999996
 30
0.0
 11
27.718
 21
14.2289999999999992
 31
0.0
  0
LINE
  5
372
100
AcDbEntity
100
AcDbLine
  8
0
 62
256
370
-1
  6
ByLayer
 10
27.718
 20
14.2289999999999992
 30
0.0
 11
27.5949999999999989
 21
14.2959999999999994
 31
0.0
  0
LINE
  5
373
100
AcDbEntity
100
AcDbLine
  8
0
 62
256
370
-1
  6
ByLayer
 10
27.5949999999999989
 20
14.2959999999999994
 30
0.0
 11
27.4819999999999993
 21
14.3789999999999996
 31
0.0
  0
LINE
  5
374
100
AcDbEntity
100
AcDbLine
  8
0
 62
256
370
-1
  6
ByLayer
 10
27.4819999999999993
 20
14.3789999999999996
 30
0.0
 11
27.3790000000000013
 21
14.4749999999999996
 31
0.0
  0
LINE
  5
375
100
AcDbEntity
100
AcDbLine
  8
0
 62
256
370
-1
  6
ByLayer
 10
27.3790000000000013
 20
14.4749999999999996
 30
0.0
 11
27.2899999999999991
 21
14.5830000000000002
 31
0.0
  0
LINE
  5
376
100
AcDbEntity
100
AcDbLine
  8
0
 62
256
370
-1
  6
ByLayer
 10
27.2899999999999991
 20
14.5830000000000002
 30
0.0
 11
27.2149999999999999
 21
14.702
 31
0.0
  0
LINE
  5
377
100
AcDbEntity
100
AcDbLine
  8
0
 62
256
370
-1
  6
ByLayer
 10
27.2149999999999999
 20
14.702
 30
0.0
 11
27.1550000000000011
 21
14.8290000000000006
 31
0.0
  0
LINE
  5
378
100
AcDbEntity
100
AcDbLine
  8
0
 62
256
370
-1
  6
ByLayer
 10
27.1550000000000011
 20
14.8290000000000006
 30
0.0
 11
27.1119999999999983
 21
14.9619999999999997
 31
0.0
  0
LINE
  5
379
100
AcDbEntity
100
AcDbLine
  8
0
 62
256
370
-1
  6
ByLayer
 10
27.1119999999999983
 20
14.9619999999999997
 30
0.0
 11
27.0850000000000009
 21
15.0999999999999996
 31
0.0
  0
LINE
  5
37A
100
AcDbEntity
100
AcDbLine
  8
0
 62
256
370
-1
  6
ByLayer
 10
27.0850000000000009
 20
15.0999999999999996
 30
0.0
 11
27.0760000000000005
 21
15.2400000000000002
 31
0.0
  0
LINE
  5
37B
100
AcDbEntity
100
AcDbLine
  8
0
 62
256
370
-1
  6
ByLayer
 10
31.4649999999999999
 20
-7.8239999999999998
 30
0.0
 11
31.4649999999999999
 21
-0.474
 31
0.0
  0
LINE
  5
37C
100
AcDbEntity
100
AcDbLine
  8
0
 62
256
370
-1
  6
ByLayer
 10
31.4649999999999999
 20
-0.474
 30
0.0
 11
37.115000000000002
 21
-0.474
 31
0.0
  0
LINE
  5
37D
100
AcDbEntity
100
AcDbLine
  8
0
 62
256
370
-1
  6
ByLayer
 10
37.115000000000002
 20
-0.474
 30
0.0
 11
37.115000000000002
 21
-7.8239999999999998
 31
0.0
  0
LINE
  5
37E
100
AcDbEntity
100
AcDbLine
  8
0
 62
256
370
-1
  6
ByLayer
 10
37.115000000000002
 20
-7.8239999999999998
 30
0.0
 11
31.4649999999999999
 21
-7.8239999999999998
 31
0.0
  0
LINE
  5
37F
100
AcDbEntity
100
AcDbLine
  8
0
 62
256
370
-1
  6
ByLayer
 10
48.9650000000000034
 20
-7.8239999999999998
 30
0.0
 11
48.9650000000000034
 21
-0.474
 31
0.0
  0
LINE
  5
380
100
AcDbEntity
100
AcDbLine
  8
0
 62
256
370
-1
  6
ByLayer
 10
48.9650000000000034
 20
-0.474
 30
0.0
 11
60.2550000000000026
 21
-0.474
 31
0.0
  0
LINE
  5
381
100
AcDbEntity
100
AcDbLine
  8
0
 62
256
370
-1
  6
ByLayer
 10
60.2550000000000026
 20
-0.474
 30
0.0
 11
60.2550000000000026
 21
-7.8239999999999998
 31
0.0
  0
LINE
  5
382
100
AcDbEntity
100
AcDbLine
  8
0
 62
256
370
-1
  6
ByLayer
 10
60.2550000000000026
 20
-7.8239999999999998
 30
0.0
 11
48.9650000000000034
 21
-7.8239999999999998
 31
0.0
  0
LINE
  5
383
100
AcDbEntity
100
AcDbLine
  8
0
 62
256
370
-1
  6
ByLayer
 10
64.2740000000000009
 20
-8.9239999999999995
 30
0.0
 11
64.2740000000000009
 21
4.2759999999999998
 31
0.0
  0
LINE
  5
384
100
AcDbEntity
100
AcDbLine
  8
0
 62
256
370
-1
  6
ByLayer
 10
64.2740000000000009
 20
4.2759999999999998
 30
0.0
 11
78.4740000000000038
 21
4.2759999999999998
 31
0.0
  0
LINE
  5
385
100
AcDbEntity
100
AcDbLine
  8
0
 62
256
370
-1
  6
ByLayer
 10
78.4740000000000038
 20
4.2759999999999998
 30
0.0
 11
78.4740000000000038
 21
-8.9239999999999995
 31
0.0
  0
LINE
  5
386
100
AcDbEntity
100
AcDbLine
  8
0
 62
256
370
-1
  6
ByLayer
 10
78.4740000000000038
 20
-8.9239999999999995
 30
0.0
 11
64.2740000000000009
 21
-8.9239999999999995
 31
0.0
  0
LINE
  5
387
100
AcDbEntity
100
AcDbLine
  8
0
 62
256
370
-1
  6
ByLayer
 10
87.7690000000000055
 20
-8.9239999999999995
 30
0.0
 11
87.7690000000000055
 21
5.7759999999999998
 31
0.0
  0
LINE
  5
388
100
AcDbEntity
100
AcDbLine
  8
0
 62
256
370
-1
  6
ByLayer
 10
87.7690000000000055
 20
5.7759999999999998
 30
0.0
 11
120.9689999999999941
 21
5.7759999999999998
 31
0.0
  0
LINE
  5
389
100
AcDbEntity
100
AcDbLine
  8
0
 62
256
370
-1
  6
ByLayer
 10
120.9689999999999941
 20
5.7759999999999998
 30
0.0
 11
120.9689999999999941
 21
-8.9239999999999995
 31
0.0
  0
LINE
  5
38A
100
AcDbEntity
100
AcDbLine
  8
0
 62
256
370
-1
  6
ByLayer
 10
120.9689999999999941
 20
-8.9239999999999995
 30
0.0
 11
87.7690000000000055
 21
-8.9239999999999995
 31
0.0
  0
LINE
  5
38B
100
AcDbEntity
100
AcDbLine
  8
0
 62
256
370
-1
  6
ByLayer
 10
133.9979999999999905
 20
-8.9239999999999995
 30
0.0
 11
133.9979999999999905
 21
-3.6240000000000001
 31
0.0
  0
LINE
  5
38C
100
AcDbEntity
100
AcDbLine
  8
0
 62
256
370
-1
  6
ByLayer
 10
133.9979999999999905
 20
-3.6240000000000001
 30
0.0
 11
164.1980000000000075
 21
-3.6240000000000001
 31
0.0
  0
LINE
  5
38D
100
AcDbEntity
100
AcDbLine
  8
0
 62
256
370
-1
  6
ByLayer
 10
164.1980000000000075
 20
-3.6240000000000001
 30
0.0
 11
164.1980000000000075
 21
-8.9239999999999995
 31
0.0
  0
LINE
  5
38E
100
AcDbEntity
100
AcDbLine
  8
0
 62
256
370
-1
  6
ByLayer
 10
164.1980000000000075
 20
-8.9239999999999995
 30
0.0
 11
133.9979999999999905
 21
-8.9239999999999995
 31
0.0
  0
LINE
  5
38F
100
AcDbEntity
100
AcDbLine
  8
0
 62
256
370
-1
  6
ByLayer
 10
168.2930000000000064
 20
-7.8239999999999998
 30
0.0
 11
168.2930000000000064
 21
-0.474
 31
0.0
  0
LINE
  5
390
100
AcDbEntity
100
AcDbLine
  8
0
 62
256
370
-1
  6
ByLayer
 10
168.2930000000000064
 20
-0.474
 30
0.0
 11
190.8629999999999995
 21
-0.474
 31
0.0
  0
LINE
  5
391
100
AcDbEntity
100
AcDbLine
  8
0
 62
256
370
-1
  6
ByLayer
 10
190.8629999999999995
 20
-0.474
 30
0.0
 11
190.8629999999999995
 21
-7.8239999999999998
 31
0.0
  0
LINE
  5
392
100
AcDbEntity
100
AcDbLine
  8
0
 62
256
370
-1
  6
ByLayer
 10
190.8629999999999995
 20
-7.8239999999999998
 30
0.0
 11
168.2930000000000064
 21
-7.8239999999999998
 31
0.0
  0
LINE
  5
393
100
AcDbEntity
100
AcDbLine
  8
0
 62
256
370
-1
  6
ByLayer
 10
197.3300000000000125
 20
-6.9000000000000004
 30
0.0
 11
197.3300000000000125
 21
6.9000000000000004
 31
0.0
  0
LINE
  5
394
100
AcDbEntity
100
AcDbLine
  8
0
 62
256
370
-1
  6
ByLayer
 10
197.3300000000000125
 20
6.9000000000000004
 30
0.0
 11
206.5300000000000011
 21
6.9000000000000004
 31
0.0
  0
LINE
  5
395
100
AcDbEntity
100
AcDbLine
  8
0
 62
256
370
-1
  6
ByLayer
 10
206.5300000000000011
 20
6.9000000000000004
 30
0.0
 11
206.5300000000000011
 21
-6.9000000000000004
 31
0.0
  0
LINE
  5
396
100
AcDbEntity
100
AcDbLine
  8
0
 62
256
370
-1
  6
ByLayer
 10
206.5300000000000011
 20
-6.9000000000000004
 30
0.0
 11
197.3300000000000125
 21
-6.9000000000000004
 31
0.0
  0
LINE
  5
397
100
AcDbEntity
100
AcDbLine
  8
0
 62
256
370
-1
  6
ByLayer
 10
227.5840000000000032
 20
-15.6850000000000005
 30
0.0
 11
227.6080000000000041
 21
-15.3019999999999996
 31
0.0
  0
LINE
  5
398
100
AcDbEntity
100
AcDbLine
  8
0
 62
256
370
-1
  6
ByLayer
 10
227.6080000000000041
 20
-15.3019999999999996
 30
0.0
 11
227.6800000000000068
 21
-14.9260000000000002
 31
0.0
  0
LINE
  5
399
100
AcDbEntity
100
AcDbLine
  8
0
 62
256
370
-1
  6
ByLayer
 10
227.6800000000000068
 20
-14.9260000000000002
 30
0.0
 11
227.7980000000000018
 21
-14.5619999999999994
 31
0.0
  0
LINE
  5
39A
100
AcDbEntity
100
AcDbLine
  8
0
 62
256
370
-1
  6
ByLayer
 10
227.7980000000000018
 20
-14.5619999999999994
 30
0.0
 11
227.9610000000000127
 21
-14.2159999999999993
 31
0.0
  0
LINE
  5
39B
100
AcDbEntity
100
AcDbLine
  8
0
 62
256
370
-1
  6
ByLayer
 10
227.9610000000000127
 20
-14.2159999999999993
 30
0.0
 11
228.1659999999999968
 21
-13.8930000000000007
 31
0.0
  0
LINE
  5
39C
100
AcDbEntity
100
AcDbLine
  8
0
 62
256
370
-1
  6
ByLayer
 10
228.1659999999999968
 20
-13.8930000000000007
 30
0.0
 11
228.4099999999999966
 21
-13.5980000000000008
 31
0.0
  0
LINE
  5
39D
100
AcDbEntity
100
AcDbLine
  8
0
 62
256
370
-1
  6
ByLayer
 10
228.4099999999999966
 20
-13.5980000000000008
 30
0.0
 11
228.688999999999993
 21
-13.3360000000000003
 31
0.0
  0
LINE
  5
39E
100
AcDbEntity
100
AcDbLine
  8
0
 62
256
370
-1
  6
ByLayer
 10
228.688999999999993
 20
-13.3360000000000003
 30
0.0
 11
228.9989999999999952
 21
-13.1110000000000007
 31
0.0
  0
LINE
  5
39F
100
AcDbEntity
100
AcDbLine
  8
0
 62
256
370
-1
  6
ByLayer
 10
228.9989999999999952
 20
-13.1110000000000007
 30
0.0
 11
229.3340000000000032
 21
-12.9269999999999996
 31
0.0
  0
LINE
  5
3A0
100
AcDbEntity
100
AcDbLine
  8
0
 62
256
370
-1
  6
ByLayer
 10
229.3340000000000032
 20
-12.9269999999999996
 30
0.0
 11
229.6899999999999977
 21
-12.7859999999999996
 31
0.0
  0
LINE
  5
3A1
100
AcDbEntity
100
AcDbLine
  8
0
 62
256
370
-1
  6
ByLayer
 10
229.6899999999999977
 20
-12.7859999999999996
 30
0.0
 11
230.061000000000007
 21
-12.6899999999999995
 31
0.0
  0
LINE
  5
3A2
100
AcDbEntity
100
AcDbLine
  8
0
 62
256
370
-1
  6
ByLayer
 10
230.061000000000007
 20
-12.6899999999999995
 30
0.0
 11
230.4410000000000025
 21
-12.6430000000000007
 31
0.0
  0
LINE
  5
3A3
100
AcDbEntity
100
AcDbLine
  8
0
 62
256
370
-1
  6
ByLayer
 10
230.4410000000000025
 20
-12.6430000000000007
 30
0.0
 11
230.632000000000005
 21
-12.6430000000000007
 31
0.0
  0
LINE
  5
3A4
100
AcDbEntity
100
AcDbLine
  8
0
 62
256
370
-1
  6
ByLayer
 10
230.632000000000005
 20
-12.6430000000000007
 30
0.0
 11
230.632000000000005
 21
-12.6370000000000005
 31
0.0
  0
LINE
  5
3A5
100
AcDbEntity
100
AcDbLine
  8
0
 62
256
370
-1
  6
ByLayer
 10
230.632000000000005
 20
-12.6370000000000005
 30
0.0
 11
234.4420000000000073
 21
-12.6370000000000005
 31
0.0
  0
LINE
  5
3A6
100
AcDbEntity
100
AcDbLine
  8
0
 62
256
370
-1
  6
ByLayer
 10
234.4420000000000073
 20
-12.6370000000000005
 30
0.0
 11
234.4420000000000073
 21
-12.6430000000000007
 31
0.0
  0
LINE
  5
3A7
100
AcDbEntity
100
AcDbLine
  8
0
 62
256
370
-1
  6
ByLayer
 10
234.4420000000000073
 20
-12.6430000000000007
 30
0.0
 11
234.6330000000000098
 21
-12.6430000000000007
 31
0.0
  0
LINE
  5
3A8
100
AcDbEntity
100
AcDbLine
  8
0
 62
256
370
-1
  6
ByLayer
 10
234.6330000000000098
 20
-12.6430000000000007
 30
0.0
 11
235.0130000000000052
 21
-12.6899999999999995
 31
0.0
  0
LINE
  5
3A9
100
AcDbEntity
100
AcDbLine
  8
0
 62
256
370
-1
  6
ByLayer
 10
235.0130000000000052
 20
-12.6899999999999995
 30
0.0
 11
235.3839999999999861
 21
-12.7859999999999996
 31
0.0
  0
LINE
  5
3AA
100
AcDbEntity
100
AcDbLine
  8
0
 62
256
370
-1
  6
ByLayer
 10
235.3839999999999861
 20
-12.7859999999999996
 30
0.0
 11
235.7400000000000091
 21
-12.9269999999999996
 31
0.0
  0
LINE
  5
3AB
100
AcDbEntity
100
AcDbLine
  8
0
 62
256
370
-1
  6
ByLayer
 10
235.7400000000000091
 20
-12.9269999999999996
 30
0.0
 11
236.0749999999999886
 21
-13.1110000000000007
 31
0.0
  0
LINE
  5
3AC
100
AcDbEntity
100
AcDbLine
  8
0
 62
256
370
-1
  6
ByLayer
 10
236.0749999999999886
 20
-13.1110000000000007
 30
0.0
 11
236.3849999999999909
 21
-13.3360000000000003
 31
0.0
  0
LINE
  5
3AD
100
AcDbEntity
100
AcDbLine
  8
0
 62
256
370
-1
  6
ByLayer
 10
236.3849999999999909
 20
-13.3360000000000003
 30
0.0
 11
236.6639999999999873
 21
-13.5980000000000008
 31
0.0
  0
LINE
  5
3AE
100
AcDbEntity
100
AcDbLine
  8
0
 62
256
370
-1
  6
ByLayer
 10
236.6639999999999873
 20
-13.5980000000000008
 30
0.0
 11
236.907999999999987
 21
-13.8930000000000007
 31
0.0
  0
LINE
  5
3AF
100
AcDbEntity
100
AcDbLine
  8
0
 62
256
370
-1
  6
ByLayer
 10
236.907999999999987
 20
-13.8930000000000007
 30
0.0
 11
237.1129999999999995
 21
-14.2159999999999993
 31
0.0
  0
LINE
  5
3B0
100
AcDbEntity
100
AcDbLine
  8
0
 62
256
370
-1
  6
ByLayer
 10
237.1129999999999995
 20
-14.2159999999999993
 30
0.0
 11
237.2760000000000105
 21
-14.5619999999999994
 31
0.0
  0
LINE
  5
3B1
100
AcDbEntity
100
AcDbLine
  8
0
 62
256
370
-1
  6
ByLayer
 10
237.2760000000000105
 20
-14.5619999999999994
 30
0.0
 11
237.3940000000000055
 21
-14.9260000000000002
 31
0.0
  0
LINE
  5
3B2
100
AcDbEntity
100
AcDbLine
  8
0
 62
256
370
-1
  6
ByLayer
 10
237.3940000000000055
 20
-14.9260000000000002
 30
0.0
 11
237.4660000000000082
 21
-15.3019999999999996
 31
0.0
  0
LINE
  5
3B3
100
AcDbEntity
100
AcDbLine
  8
0
 62
256
370
-1
  6
ByLayer
 10
237.4660000000000082
 20
-15.3019999999999996
 30
0.0
 11
237.4900000000000091
 21
-15.6850000000000005
 31
0.0
  0
LINE
  5
3B4
100
AcDbEntity
100
AcDbLine
  8
0
 62
256
370
-1
  6
ByLayer
 10
237.4900000000000091
 20
-15.6850000000000005
 30
0.0
 11
237.4660000000000082
 21
-16.0670000000000002
 31
0.0
  0
LINE
  5
3B5
100
AcDbEntity
100
AcDbLine
  8
0
 62
256
370
-1
  6
ByLayer
 10
237.4660000000000082
 20
-16.0670000000000002
 30
0.0
 11
237.3940000000000055
 21
-16.4430000000000014
 31
0.0
  0
LINE
  5
3B6
100
AcDbEntity
100
AcDbLine
  8
0
 62
256
370
-1
  6
ByLayer
 10
237.3940000000000055
 20
-16.4430000000000014
 30
0.0
 11
237.2760000000000105
 21
-16.8069999999999986
 31
0.0
  0
LINE
  5
3B7
100
AcDbEntity
100
AcDbLine
  8
0
 62
256
370
-1
  6
ByLayer
 10
237.2760000000000105
 20
-16.8069999999999986
 30
0.0
 11
237.1129999999999995
 21
-17.1529999999999987
 31
0.0
  0
LINE
  5
3B8
100
AcDbEntity
100
AcDbLine
  8
0
 62
256
370
-1
  6
ByLayer
 10
237.1129999999999995
 20
-17.1529999999999987
 30
0.0
 11
236.907999999999987
 21
-17.4759999999999991
 31
0.0
  0
LINE
  5
3B9
100
AcDbEntity
100
AcDbLine
  8
0
 62
256
370
-1
  6
ByLayer
 10
236.907999999999987
 20
-17.4759999999999991
 30
0.0
 11
236.6639999999999873
 21
-17.7710000000000008
 31
0.0
  0
LINE
  5
3BA
100
AcDbEntity
100
AcDbLine
  8
0
 62
256
370
-1
  6
ByLayer
 10
236.6639999999999873
 20
-17.7710000000000008
 30
0.0
 11
236.3849999999999909
 21
-18.0330000000000013
 31
0.0
  0
LINE
  5
3BB
100
AcDbEntity
100
AcDbLine
  8
0
 62
256
370
-1
  6
ByLayer
 10
236.3849999999999909
 20
-18.0330000000000013
 30
0.0
 11
236.0749999999999886
 21
-18.2579999999999991
 31
0.0
  0
LINE
  5
3BC
100
AcDbEntity
100
AcDbLine
  8
0
 62
256
370
-1
  6
ByLayer
 10
236.0749999999999886
 20
-18.2579999999999991
 30
0.0
 11
235.7400000000000091
 21
-18.4420000000000002
 31
0.0
  0
LINE
  5
3BD
100
AcDbEntity
100
AcDbLine
  8
0
 62
256
370
-1
  6
ByLayer
 10
235.7400000000000091
 20
-18.4420000000000002
 30
0.0
 11
235.3839999999999861
 21
-18.5829999999999984
 31
0.0
  0
LINE
  5
3BE
100
AcDbEntity
100
AcDbLine
  8
0
 62
256
370
-1
  6
ByLayer
 10
235.3839999999999861
 20
-18.5829999999999984
 30
0.0
 11
235.0130000000000052
 21
-18.6789999999999985
 31
0.0
  0
LINE
  5
3BF
100
AcDbEntity
100
AcDbLine
  8
0
 62
256
370
-1
  6
ByLayer
 10
235.0130000000000052
 20
-18.6789999999999985
 30
0.0
 11
234.6330000000000098
 21
-18.7259999999999991
 31
0.0
  0
LINE
  5
3C0
100
AcDbEntity
100
AcDbLine
  8
0
 62
256
370
-1
  6
ByLayer
 10
234.6330000000000098
 20
-18.7259999999999991
 30
0.0
 11
234.4420000000000073
 21
-18.7259999999999991
 31
0.0
  0
LINE
  5
3C1
100
AcDbEntity
100
AcDbLine
  8
0
 62
256
370
-1
  6
ByLayer
 10
234.4420000000000073
 20
-18.7259999999999991
 30
0.0
 11
234.4420000000000073
 21
-18.7319999999999993
 31
0.0
  0
LINE
  5
3C2
100
AcDbEntity
100
AcDbLine
  8
0
 62
256
370
-1
  6
ByLayer
 10
234.4420000000000073
 20
-18.7319999999999993
 30
0.0
 11
230.632000000000005
 21
-18.7319999999999993
 31
0.0
  0
LINE
  5
3C3
100
AcDbEntity
100
AcDbLine
  8
0
 62
256
370
-1
  6
ByLayer
 10
230.632000000000005
 20
-18.7319999999999993
 30
0.0
 11
230.632000000000005
 21
-18.7259999999999991
 31
0.0
  0
LINE
  5
3C4
100
AcDbEntity
100
AcDbLine
  8
0
 62
256
370
-1
  6
ByLayer
 10
230.632000000000005
 20
-18.7259999999999991
 30
0.0
 11
230.4410000000000025
 21
-18.7259999999999991
 31
0.0
  0
LINE
  5
3C5
100
AcDbEntity
100
AcDbLine
  8
0
 62
256
370
-1
  6
ByLayer
 10
230.4410000000000025
 20
-18.7259999999999991
 30
0.0
 11
230.061000000000007
 21
-18.6789999999999985
 31
0.0
  0
LINE
  5
3C6
100
AcDbEntity
100
AcDbLine
  8
0
 62
256
370
-1
  6
ByLayer
 10
230.061000000000007
 20
-18.6789999999999985
 30
0.0
 11
229.6899999999999977
 21
-18.5829999999999984
 31
0.0
  0
LINE
  5
3C7
100
AcDbEntity
100
AcDbLine
  8
0
 62
256
370
-1
  6
ByLayer
 10
229.6899999999999977
 20
-18.5829999999999984
 30
0.0
 11
229.3340000000000032
 21
-18.4420000000000002
 31
0.0
  0
LINE
  5
3C8
100
AcDbEntity
100
AcDbLine
  8
0
 62
256
370
-1
  6
ByLayer
 10
229.3340000000000032
 20
-18.4420000000000002
 30
0.0
 11
228.9989999999999952
 21
-18.2579999999999991
 31
0.0
  0
LINE
  5
3C9
100
AcDbEntity
100
AcDbLine
  8
0
 62
256
370
-1
  6
ByLayer
 10
228.9989999999999952
 20
-18.2579999999999991
 30
0.0
 11
228.688999999999993
 21
-18.0330000000000013
 31
0.0
  0
LINE
  5
3CA
100
AcDbEntity
100
AcDbLine
  8
0
 62
256
370
-1
  6
ByLayer
 10
228.688999999999993
 20
-18.0330000000000013
 30
0.0
 11
228.4099999999999966
 21
-17.7710000000000008
 31
0.0
  0
LINE
  5
3CB
100
AcDbEntity
100
AcDbLine
  8
0
 62
256
370
-1
  6
ByLayer
 10
228.4099999999999966
 20
-17.7710000000000008
 30
0.0
 11
228.1659999999999968
 21
-17.4759999999999991
 31
0.0
  0
LINE
  5
3CC
100
AcDbEntity
100
AcDbLine
  8
0
 62
256
370
-1
  6
ByLayer
 10
228.1659999999999968
 20
-17.4759999999999991
 30
0.0
 11
227.9610000000000127
 21
-17.1529999999999987
 31
0.0
  0
LINE
  5
3CD
100
AcDbEntity
100
AcDbLine
  8
0
 62
256
370
-1
  6
ByLayer
 10
227.9610000000000127
 20
-17.1529999999999987
 30
0.0
 11
227.7980000000000018
 21
-16.8069999999999986
 31
0.0
  0
LINE
  5
3CE
100
AcDbEntity
100
AcDbLine
  8
0
 62
256
370
-1
  6
ByLayer
 10
227.7980000000000018
 20
-16.8069999999999986
 30
0.0
 11
227.6800000000000068
 21
-16.4430000000000014
 31
0.0
  0
LINE
  5
3CF
100
AcDbEntity
100
AcDbLine
  8
0
 62
256
370
-1
  6
ByLayer
 10
227.6800000000000068
 20
-16.4430000000000014
 30
0.0
 11
227.6080000000000041
 21
-16.0670000000000002
 31
0.0
  0
LINE
  5
3D0
100
AcDbEntity
100
AcDbLine
  8
0
 62
256
370
-1
  6
ByLayer
 10
227.6080000000000041
 20
-16.0670000000000002
 30
0.0
 11
227.5840000000000032
 21
-15.6850000000000005
 31
0.0
  0
LINE
  5
3D1
100
AcDbEntity
100
AcDbLine
  8
0
 62
256
370
-1
  6
ByLayer
 10
227.5840000000000032
 20
15.6850000000000005
 30
0.0
 11
227.6080000000000041
 21
16.0670000000000002
 31
0.0
  0
LINE
  5
3D2
100
AcDbEntity
100
AcDbLine
  8
0
 62
256
370
-1
  6
ByLayer
 10
227.6080000000000041
 20
16.0670000000000002
 30
0.0
 11
227.6800000000000068
 21
16.4430000000000014
 31
0.0
  0
LINE
  5
3D3
100
AcDbEntity
100
AcDbLine
  8
0
 62
256
370
-1
  6
ByLayer
 10
227.6800000000000068
 20
16.4430000000000014
 30
0.0
 11
227.7980000000000018
 21
16.8069999999999986
 31
0.0
  0
LINE
  5
3D4
100
AcDbEntity
100
AcDbLine
  8
0
 62
256
370
-1
  6
ByLayer
 10
227.7980000000000018
 20
16.8069999999999986
 30
0.0
 11
227.9610000000000127
 21
17.1529999999999987
 31
0.0
  0
LINE
  5
3D5
100
AcDbEntity
100
AcDbLine
  8
0
 62
256
370
-1
  6
ByLayer
 10
227.9610000000000127
 20
17.1529999999999987
 30
0.0
 11
228.1659999999999968
 21
17.4759999999999991
 31
0.0
  0
LINE
  5
3D6
100
AcDbEntity
100
AcDbLine
  8
0
 62
256
370
-1
  6
ByLayer
 10
228.1659999999999968
 20
17.4759999999999991
 30
0.0
 11
228.4099999999999966
 21
17.7710000000000008
 31
0.0
  0
LINE
  5
3D7
100
AcDbEntity
100
AcDbLine
  8
0
 62
256
370
-1
  6
ByLayer
 10
228.4099999999999966
 20
17.7710000000000008
 30
0.0
 11
228.688999999999993
 21
18.0330000000000013
 31
0.0
  0
LINE
  5
3D8
100
AcDbEntity
100
AcDbLine
  8
0
 62
256
370
-1
  6
ByLayer
 10
228.688999999999993
 20
18.0330000000000013
 30
0.0
 11
228.9989999999999952
 21
18.2579999999999991
 31
0.0
  0
LINE
  5
3D9
100
AcDbEntity
100
AcDbLine
  8
0
 62
256
370
-1
  6
ByLayer
 10
228.9989999999999952
 20
18.2579999999999991
 30
0.0
 11
229.3340000000000032
 21
18.4420000000000002
 31
0.0
  0
LINE
  5
3DA
100
AcDbEntity
100
AcDbLine
  8
0
 62
256
370
-1
  6
ByLayer
 10
229.3340000000000032
 20
18.4420000000000002
 30
0.0
 11
229.6899999999999977
 21
18.5829999999999984
 31
0.0
  0
LINE
  5
3DB
100
AcDbEntity
100
AcDbLine
  8
0
 62
256
370
-1
  6
ByLayer
 10
229.6899999999999977
 20
18.5829999999999984
 30
0.0
 11
230.061000000000007
 21
18.6789999999999985
 31
0.0
  0
LINE
  5
3DC
100
AcDbEntity
100
AcDbLine
  8
0
 62
256
370
-1
  6
ByLayer
 10
230.061000000000007
 20
18.6789999999999985
 30
0.0
 11
230.4410000000000025
 21
18.7259999999999991
 31
0.0
  0
LINE
  5
3DD
100
AcDbEntity
100
AcDbLine
  8
0
 62
256
370
-1
  6
ByLayer
 10
230.4410000000000025
 20
18.7259999999999991
 30
0.0
 11
230.632000000000005
 21
18.7259999999999991
 31
0.0
  0
LINE
  5
3DE
100
AcDbEntity
100
AcDbLine
  8
0
 62
256
370
-1
  6
ByLayer
 10
230.632000000000005
 20
18.7259999999999991
 30
0.0
 11
230.632000000000005
 21
18.7319999999999993
 31
0.0
  0
LINE
  5
3DF
100
AcDbEntity
100
AcDbLine
  8
0
 62
256
370
-1
  6
ByLayer
 10
230.632000000000005
 20
18.7319999999999993
 30
0.0
 11
234.4420000000000073
 21
18.7319999999999993
 31
0.0
  0
LINE
  5
3E0
100
AcDbEntity
100
AcDbLine
  8
0
 62
256
370
-1
  6
ByLayer
 10
234.4420000000000073
 20
18.7319999999999993
 30
0.0
 11
234.4420000000000073
 21
18.7259999999999991
 31
0.0
  0
LINE
  5
3E1
100
AcDbEntity
100
AcDbLine
  8
0
 62
256
370
-1
  6
ByLayer
 10
234.4420000000000073
 20
18.7259999999999991
 30
0.0
 11
234.6330000000000098
 21
18.7259999999999991
 31
0.0
  0
LINE
  5
3E2
100
AcDbEntity
100
AcDbLine
  8
0
 62
256
370
-1
  6
ByLayer
 10
234.6330000000000098
 20
18.7259999999999991
 30
0.0
 11
235.0130000000000052
 21
18.6789999999999985
 31
0.0
  0
LINE
  5
3E3
100
AcDbEntity
100
AcDbLine
  8
0
 62
256
370
-1
  6
ByLayer
 10
235.0130000000000052
 20
18.6789999999999985
 30
0.0
 11
235.3839999999999861
 21
18.5829999999999984
 31
0.0
  0
LINE
  5
3E4
100
AcDbEntity
100
AcDbLine
  8
0
 62
256
370
-1
  6
ByLayer
 10
235.3839999999999861
 20
18.5829999999999984
 30
0.0
 11
235.7400000000000091
 21
18.4420000000000002
 31
0.0
  0
LINE
  5
3E5
100
AcDbEntity
100
AcDbLine
  8
0
 62
256
370
-1
  6
ByLayer
 10
235.7400000000000091
 20
18.4420000000000002
 30
0.0
 11
236.0749999999999886
 21
18.2579999999999991
 31
0.0
  0
LINE
  5
3E6
100
AcDbEntity
100
AcDbLine
  8
0
 62
256
370
-1
  6
ByLayer
 10
236.0749999999999886
 20
18.2579999999999991
 30
0.0
 11
236.3849999999999909
 21
18.0330000000000013
 31
0.0
  0
LINE
  5
3E7
100
AcDbEntity
100
AcDbLine
  8
0
 62
256
370
-1
  6
ByLayer
 10
236.3849999999999909
 20
18.0330000000000013
 30
0.0
 11
236.6639999999999873
 21
17.7710000000000008
 31
0.0
  0
LINE
  5
3E8
100
AcDbEntity
100
AcDbLine
  8
0
 62
256
370
-1
  6
ByLayer
 10
236.6639999999999873
 20
17.7710000000000008
 30
0.0
 11
236.907999999999987
 21
17.4759999999999991
 31
0.0
  0
LINE
  5
3E9
100
AcDbEntity
100
AcDbLine
  8
0
 62
256
370
-1
  6
ByLayer
 10
236.907999999999987
 20
17.4759999999999991
 30
0.0
 11
237.1129999999999995
 21
17.1529999999999987
 31
0.0
  0
LINE
  5
3EA
100
AcDbEntity
100
AcDbLine
  8
0
 62
256
370
-1
  6
ByLayer
 10
237.1129999999999995
 20
17.1529999999999987
 30
0.0
 11
237.2760000000000105
 21
16.8069999999999986
 31
0.0
  0
LINE
  5
3EB
100
AcDbEntity
100
AcDbLine
  8
0
 62
256
370
-1
  6
ByLayer
 10
237.2760000000000105
 20
16.8069999999999986
 30
0.0
 11
237.3940000000000055
 21
16.4430000000000014
 31
0.0
  0
LINE
  5
3EC
100
AcDbEntity
100
AcDbLine
  8
0
 62
256
370
-1
  6
ByLayer
 10
237.3940000000000055
 20
16.4430000000000014
 30
0.0
 11
237.4660000000000082
 21
16.0670000000000002
 31
0.0
  0
LINE
  5
3ED
100
AcDbEntity
100
AcDbLine
  8
0
 62
256
370
-1
  6
ByLayer
 10
237.4660000000000082
 20
16.0670000000000002
 30
0.0
 11
237.4900000000000091
 21
15.6850000000000005
 31
0.0
  0
LINE
  5
3EE
100
AcDbEntity
100
AcDbLine
  8
0
 62
256
370
-1
  6
ByLayer
 10
237.4900000000000091
 20
15.6850000000000005
 30
0.0
 11
237.4660000000000082
 21
15.3019999999999996
 31
0.0
  0
LINE
  5
3EF
100
AcDbEntity
100
AcDbLine
  8
0
 62
256
370
-1
  6
ByLayer
 10
237.4660000000000082
 20
15.3019999999999996
 30
0.0
 11
237.3940000000000055
 21
14.9260000000000002
 31
0.0
  0
LINE
  5
3F0
100
AcDbEntity
100
AcDbLine
  8
0
 62
256
370
-1
  6
ByLayer
 10
237.3940000000000055
 20
14.9260000000000002
 30
0.0
 11
237.2760000000000105
 21
14.5619999999999994
 31
0.0
  0
LINE
  5
3F1
100
AcDbEntity
100
AcDbLine
  8
0
 62
256
370
-1
  6
ByLayer
 10
237.2760000000000105
 20
14.5619999999999994
 30
0.0
 11
237.1129999999999995
 21
14.2159999999999993
 31
0.0
  0
LINE
  5
3F2
100
AcDbEntity
100
AcDbLine
  8
0
 62
256
370
-1
  6
ByLayer
 10
237.1129999999999995
 20
14.2159999999999993
 30
0.0
 11
236.907999999999987
 21
13.8930000000000007
 31
0.0
  0
LINE
  5
3F3
100
AcDbEntity
100
AcDbLine
  8
0
 62
256
370
-1
  6
ByLayer
 10
236.907999999999987
 20
13.8930000000000007
 30
0.0
 11
236.6639999999999873
 21
13.5980000000000008
 31
0.0
  0
LINE
  5
3F4
100
AcDbEntity
100
AcDbLine
  8
0
 62
256
370
-1
  6
ByLayer
 10
236.6639999999999873
 20
13.5980000000000008
 30
0.0
 11
236.3849999999999909
 21
13.3360000000000003
 31
0.0
  0
LINE
  5
3F5
100
AcDbEntity
100
AcDbLine
  8
0
 62
256
370
-1
  6
ByLayer
 10
236.3849999999999909
 20
13.3360000000000003
 30
0.0
 11
236.0749999999999886
 21
13.1110000000000007
 31
0.0
  0
LINE
  5
3F6
100
AcDbEntity
100
AcDbLine
  8
0
 62
256
370
-1
  6
ByLayer
 10
236.0749999999999886
 20
13.1110000000000007
 30
0.0
 11
235.7400000000000091
 21
12.9269999999999996
 31
0.0
  0
LINE
  5
3F7
100
AcDbEntity
100
AcDbLine
  8
0
 62
256
370
-1
  6
ByLayer
 10
235.7400000000000091
 20
12.9269999999999996
 30
0.0
 11
235.3839999999999861
 21
12.7859999999999996
 31
0.0
  0
LINE
  5
3F8
100
AcDbEntity
100
AcDbLine
  8
0
 62
256
370
-1
  6
ByLayer
 10
235.3839999999999861
 20
12.7859999999999996
 30
0.0
 11
235.0130000000000052
 21
12.6899999999999995
 31
0.0
  0
LINE
  5
3F9
100
AcDbEntity
100
AcDbLine
  8
0
 62
256
370
-1
  6
ByLayer
 10
235.0130000000000052
 20
12.6899999999999995
 30
0.0
 11
234.6330000000000098
 21
12.6430000000000007
 31
0.0
  0
LINE
  5
3FA
100
AcDbEntity
100
AcDbLine
  8
0
 62
256
370
-1
  6
ByLayer
 10
234.6330000000000098
 20
12.6430000000000007
 30
0.0
 11
234.4420000000000073
 21
12.6430000000000007
 31
0.0
  0
LINE
  5
3FB
100
AcDbEntity
100
AcDbLine
  8
0
 62
256
370
-1
  6
ByLayer
 10
234.4420000000000073
 20
12.6430000000000007
 30
0.0
 11
234.4420000000000073
 21
12.6370000000000005
 31
0.0
  0
LINE
  5
3FC
100
AcDbEntity
100
AcDbLine
  8
0
 62
256
370
-1
  6
ByLayer
 10
234.4420000000000073
 20
12.6370000000000005
 30
0.0
 11
230.632000000000005
 21
12.6370000000000005
 31
0.0
  0
LINE
  5
3FD
100
AcDbEntity
100
AcDbLine
  8
0
 62
256
370
-1
  6
ByLayer
 10
230.632000000000005
 20
12.6370000000000005
 30
0.0
 11
230.632000000000005
 21
12.6430000000000007
 31
0.0
  0
LINE
  5
3FE
100
AcDbEntity
100
AcDbLine
  8
0
 62
256
370
-1
  6
ByLayer
 10
230.632000000000005
 20
12.6430000000000007
 30
0.0
 11
230.4410000000000025
 21
12.6430000000000007
 31
0.0
  0
LINE
  5
3FF
100
AcDbEntity
100
AcDbLine
  8
0
 62
256
370
-1
  6
ByLayer
 10
230.4410000000000025
 20
12.6430000000000007
 30
0.0
 11
230.061000000000007
 21
12.6899999999999995
 31
0.0
  0
LINE
  5
400
100
AcDbEntity
100
AcDbLine
  8
0
 62
256
370
-1
  6
ByLayer
 10
230.061000000000007
 20
12.6899999999999995
 30
0.0
 11
229.6899999999999977
 21
12.7859999999999996
 31
0.0
  0
LINE
  5
401
100
AcDbEntity
100
AcDbLine
  8
0
 62
256
370
-1
  6
ByLayer
 10
229.6899999999999977
 20
12.7859999999999996
 30
0.0
 11
229.3340000000000032
 21
12.9269999999999996
 31
0.0
  0
LINE
  5
402
100
AcDbEntity
100
AcDbLine
  8
0
 62
256
370
-1
  6
ByLayer
 10
229.3340000000000032
 20
12.9269999999999996
 30
0.0
 11
228.9989999999999952
 21
13.1110000000000007
 31
0.0
  0
LINE
  5
403
100
AcDbEntity
100
AcDbLine
  8
0
 62
256
370
-1
  6
ByLayer
 10
228.9989999999999952
 20
13.1110000000000007
 30
0.0
 11
228.688999999999993
 21
13.3360000000000003
 31
0.0
  0
LINE
  5
404
100
AcDbEntity
100
AcDbLine
  8
0
 62
256
370
-1
  6
ByLayer
 10
228.688999999999993
 20
13.3360000000000003
 30
0.0
 11
228.4099999999999966
 21
13.5980000000000008
 31
0.0
  0
LINE
  5
405
100
AcDbEntity
100
AcDbLine
  8
0
 62
256
370
-1
  6
ByLayer
 10
228.4099999999999966
 20
13.5980000000000008
 30
0.0
 11
228.1659999999999968
 21
13.8930000000000007
 31
0.0
  0
LINE
  5
406
100
AcDbEntity
100
AcDbLine
  8
0
 62
256
370
-1
  6
ByLayer
 10
228.1659999999999968
 20
13.8930000000000007
 30
0.0
 11
227.9610000000000127
 21
14.2159999999999993
 31
0.0
  0
LINE
  5
407
100
AcDbEntity
100
AcDbLine
  8
0
 62
256
370
-1
  6
ByLayer
 10
227.9610000000000127
 20
14.2159999999999993
 30
0.0
 11
227.7980000000000018
 21
14.5619999999999994
 31
0.0
  0
LINE
  5
408
100
AcDbEntity
100
AcDbLine
  8
0
 62
256
370
-1
  6
ByLayer
 10
227.7980000000000018
 20
14.5619999999999994
 30
0.0
 11
227.6800000000000068
 21
14.9260000000000002
 31
0.0
  0
LINE
  5
409
100
AcDbEntity
100
AcDbLine
  8
0
 62
256
370
-1
  6
ByLayer
 10
227.6800000000000068
 20
14.9260000000000002
 30
0.0
 11
227.6080000000000041
 21
15.3019999999999996
 31
0.0
  0
LINE
  5
40A
100
AcDbEntity
100
AcDbLine
  8
0
 62
256
370
-1
  6
ByLayer
 10
227.6080000000000041
 20
15.3019999999999996
 30
0.0
 11
227.5840000000000032
 21
15.6850000000000005
 31
0.0
  0
ENDSEC
  0
SECTION
  2
OBJECTS
  0
DICTIONARY
  5
C
100
AcDbDictionary
280
0
281
1
  3
ACAD_GROUP
350
D
  3
ACAD_LAYOUT
350
1A
  3
ACAD_MLINESTYLE
350
17
  3
ACAD_PLOTSETTINGS
350
19
  3
ACAD_PLOTSTYLENAME
350
E
  3
AcDbVariableDictionary
350
40B
  0
DICTIONARY
  5
D
100
AcDbDictionary
280
0
281
1
  0
ACDBDICTIONARYWDFLT
  5
E
100
AcDbDictionary
281
1
  3
Normal
350
F
100
AcDbDictionaryWithDefault
340
F
  0
ACDBPLACEHOLDER
  5
F
  0
DICTIONARY
  5
17
100
AcDbDictionary
280
0
281
1
  3
Standard
350
18
  0
MLINESTYLE
  5
18
100
AcDbMlineStyle
  2
STANDARD
 70
0
  3

 62
256
 51
90.0
 52
90.0
 71
2
 49
0.5
 62
256
  6
BYLAYER
 49
-0.5
 62
256
  6
BYLAYER
  0
DICTIONARY
  5
19
100
AcDbDictionary
280
0
281
1
  0
DICTIONARY
  5
1A
100
AcDbDictionary
281
1
  3
Layout1
350
1E
  3
Layout2
350
26
  3
Model
350
22
  0
LAYOUT
  5
1E
100
AcDbPlotSettings
  1

  2
C:\Program Files\AutoCAD 2002\plotters\DWF ePlot (optimized for plotting).pc3
  4

  6

 40
0.0
 41
0.0
 42
0.0
 43
0.0
 44
0.0
 45
0.0
 46
0.0
 47
0.0
 48
0.0
 49
0.0
140
0.0
141
0.0
142
1.0
143
1.0
 70
688
 72
0
 73
0
 74
5
  7

 75
16
147
1.0
148
0.0
149
0.0
100
AcDbLayout
  1
Layout1
 70
1
 71
1
 10
0.0
 20
0.0
 11
420.0
 21
297.0
 12
0.0
 22
0.0
 32
0.0
 14
100000000000000000000.0
 24
100000000000000000000.0
 34
100000000000000000000.0
 15
-100000000000000000000.0
 25
-100000000000000000000.0
 35
-100000000000000000000.0
146
0.0
 13
0.0
 23
0.0
 33
0.0
 16
1.0
 26
0.0
 36
0.0
 17
0.0
 27
1.0
 37
0.0
 76
0
330
1B
  0
LAYOUT
  5
22
100
AcDbPlotSettings
  1

  2
C:\Program Files\AutoCAD 2002\plotters\DWF ePlot (optimized for plotting).pc3
  4

  6

 40
0.0
 41
0.0
 42
0.0
 43
0.0
 44
0.0
 45
0.0
 46
0.0
 47
0.0
 48
0.0
 49
0.0
140
0.0
141
0.0
142
1.0
143
1.0
 70
1712
 72
0
 73
0
 74
0
  7

 75
0
147
1.0
148
0.0
149
0.0
100
AcDbLayout
  1
Model
 70
1
 71
0
 10
0.0
 20
0.0
 11
12.0
 21
9.0
 12
0.0
 22
0.0
 32
0.0
 14
0.0
 24
0.0
 34
0.0
 15
0.0
 25
0.0
 35
0.0
146
0.0
 13
0.0
 23
0.0
 33
0.0
 16
1.0
 26
0.0
 36
0.0
 17
0.0
 27
1.0
 37
0.0
 76
0
330
1F
  0
LAYOUT
  5
26
100
AcDbPlotSettings
  1

  2
C:\Program Files\AutoCAD 2002\plotters\DWF ePlot (optimized for plotting).pc3
  4

  6

 40
0.0
 41
0.0
 42
0.0
 43
0.0
 44
0.0
 45
0.0
 46
0.0
 47
0.0
 48
0.0
 49
0.0
140
0.0
141
0.0
142
1.0
143
1.0
 70
688
 72
0
 73
0
 74
5
  7

 75
16
147
1.0
148
0.0
149
0.0
100
AcDbLayout
  1
Layout2
 70
1
 71
2
 10
0.0
 20
0.0
 11
12.0
 21
9.0
 12
0.0
 22
0.0
 32
0.0
 14
0.0
 24
0.0
 34
0.0
 15
0.0
 25
0.0
 35
0.0
146
0.0
 13
0.0
 23
0.0
 33
0.0
 16
1.0
 26
0.0
 36
0.0
 17
0.0
 27
1.0
 37
0.0
 76
0
330
23
  0
DICTIONARY
  5
40B
100
AcDbDictionary
281
1
  3
DIMASSOC
350
40D
  3
HIDETEXT
350
40C
  0
DICTIONARYVAR
  5
40C
100
DictionaryVariables
280
0
  1
2
  0
DICTIONARYVAR
  5
40D
100
DictionaryVariables
280
0
  1
1
  0
ENDSEC
  0
EOF
